G04 (created by PCBNEW (2013-may-18)-stable) date Čt 25. září 2014, 17:16:29 CEST*
%MOIN*%
G04 Gerber Fmt 3.4, Leading zero omitted, Abs format*
%FSLAX34Y34*%
G01*
G70*
G90*
G04 APERTURE LIST*
%ADD10C,0.00590551*%
%ADD11C,0.00984252*%
%ADD12C,0.06*%
%ADD13C,0.0708661*%
%ADD14R,0.0708661X0.0787*%
%ADD15C,0.0275591*%
%ADD16C,0.0393701*%
%ADD17C,0.0354331*%
%ADD18C,0.0314961*%
%ADD19C,0.0433071*%
%ADD20C,0.0393701*%
%ADD21C,0.0590551*%
G04 APERTURE END LIST*
G54D10*
G54D11*
X2164Y549D02*
X2407Y549D01*
X2276Y399D01*
X2332Y399D01*
X2370Y380D01*
X2389Y361D01*
X2407Y324D01*
X2407Y230D01*
X2389Y193D01*
X2370Y174D01*
X2332Y155D01*
X2220Y155D01*
X2182Y174D01*
X2164Y193D01*
G54D10*
X-196Y944D02*
G75*
G03X944Y-196I1141J0D01*
G74*
G01*
X944Y24212D02*
X17362Y24212D01*
X-196Y944D02*
X-196Y23070D01*
X17362Y-196D02*
X944Y-196D01*
X18503Y23070D02*
X18503Y944D01*
X17362Y-196D02*
G75*
G03X18503Y944I0J1141D01*
G74*
G01*
X944Y24212D02*
G75*
G03X-196Y23070I0J-1141D01*
G74*
G01*
X18503Y23070D02*
G75*
G03X17362Y24212I-1141J0D01*
G74*
G01*
G36*
X7911Y17177D02*
X7298Y16565D01*
X6874Y16989D01*
X7486Y17601D01*
X7911Y17177D01*
X7911Y17177D01*
G37*
G54D12*
X6591Y17696D02*
X6779Y17884D01*
G54D13*
X15433Y3346D03*
X15433Y2342D03*
X15433Y1338D03*
G54D14*
X3425Y1340D03*
G54D13*
X3425Y2340D03*
X4425Y1340D03*
X4425Y2340D03*
X5425Y1340D03*
X5425Y2340D03*
X6425Y1340D03*
X6425Y2340D03*
X7425Y1340D03*
X7425Y2340D03*
X8425Y1340D03*
X8425Y2340D03*
X9425Y1340D03*
X9425Y2340D03*
X10425Y1340D03*
X10425Y2340D03*
X11425Y1340D03*
X11425Y2340D03*
X12425Y1340D03*
X12425Y2340D03*
X3425Y3340D03*
X4425Y3340D03*
X5425Y3340D03*
X6425Y3340D03*
X7425Y3340D03*
X8425Y3340D03*
X9425Y3340D03*
X10425Y3340D03*
X11425Y3340D03*
X12425Y3340D03*
X13425Y1340D03*
X13425Y2340D03*
X13425Y3340D03*
X14425Y1340D03*
X14429Y2342D03*
X14425Y3340D03*
G54D15*
X2799Y3594D03*
X15177Y15818D03*
X11287Y19858D03*
X11169Y16244D03*
X8271Y15763D03*
X10027Y17661D03*
X8232Y21102D03*
G54D16*
X2484Y11137D03*
X720Y4165D03*
G54D17*
X5700Y20791D03*
X4948Y23409D03*
X3409Y23661D03*
G54D15*
X6732Y13425D03*
G54D17*
X6165Y17338D03*
G54D15*
X2744Y20559D03*
X11279Y21409D03*
X6177Y18224D03*
X1921Y22724D03*
X12177Y12610D03*
G54D18*
X15870Y10185D03*
G54D15*
X14122Y8452D03*
X15070Y7775D03*
X5433Y10354D03*
X5748Y8657D03*
X7590Y6169D03*
X12409Y6106D03*
X5881Y8334D03*
X15157Y18287D03*
G54D17*
X17299Y3090D03*
G54D15*
X3377Y6783D03*
G54D19*
X1062Y20905D03*
G54D17*
X12956Y22507D03*
X2389Y11610D03*
X5921Y23279D03*
X9283Y22803D03*
X13669Y23295D03*
G54D15*
X3791Y7110D03*
X4232Y8787D03*
X15830Y17763D03*
X11062Y13870D03*
X15799Y18228D03*
X10976Y14232D03*
X9559Y20807D03*
X4940Y14677D03*
X5114Y15035D03*
X12232Y21011D03*
X4720Y14133D03*
X6909Y12625D03*
X7027Y11956D03*
X17070Y16480D03*
X7066Y9712D03*
X10649Y18602D03*
X5944Y4228D03*
G54D17*
X17480Y3704D03*
G54D15*
X4893Y7645D03*
X8023Y4492D03*
G54D17*
X15692Y20047D03*
G54D15*
X11157Y20381D03*
X11602Y18767D03*
G54D16*
X11287Y15748D03*
G54D15*
X8704Y17948D03*
X7267Y21303D03*
X10141Y22929D03*
X6901Y22751D03*
X4519Y22251D03*
G54D17*
X10594Y17862D03*
G54D19*
X14015Y21437D03*
G54D16*
X12901Y16377D03*
G54D15*
X7244Y13543D03*
X17059Y9267D03*
G54D17*
X1141Y12263D03*
X2342Y20598D03*
G54D15*
X6519Y18704D03*
X1551Y17055D03*
X1192Y15429D03*
X5287Y18547D03*
X5259Y15929D03*
X6192Y16161D03*
X3539Y12437D03*
X5271Y13858D03*
X2893Y13078D03*
X6377Y12755D03*
X1602Y22547D03*
X5767Y11169D03*
X18043Y19771D03*
X16421Y15590D03*
X12972Y14137D03*
G54D17*
X16366Y13559D03*
G54D15*
X16531Y8078D03*
X15354Y13248D03*
X13854Y13259D03*
X15452Y9200D03*
G54D18*
X15870Y11051D03*
G54D15*
X8897Y8307D03*
X9200Y11240D03*
X2125Y10381D03*
X3937Y7992D03*
X3818Y9724D03*
G54D16*
X3779Y5866D03*
X2637Y3149D03*
G54D15*
X11259Y10433D03*
X13098Y12496D03*
X7047Y7637D03*
G54D17*
X9708Y8960D03*
G54D15*
X9614Y7681D03*
X10354Y8771D03*
X4657Y8444D03*
X7165Y8818D03*
X5984Y10708D03*
X12712Y6940D03*
X7106Y6212D03*
X14496Y22767D03*
X4102Y15822D03*
X10759Y23133D03*
X4728Y16964D03*
X7299Y22263D03*
X4551Y17283D03*
X3755Y21720D03*
X4535Y17708D03*
X8208Y16795D03*
X9637Y16464D03*
X9267Y12433D03*
X10314Y17094D03*
X9287Y16444D03*
X7905Y12496D03*
X14799Y20744D03*
X14811Y17574D03*
X11692Y11811D03*
X8657Y6397D03*
X7330Y10421D03*
X7708Y9811D03*
X5598Y21244D03*
G54D17*
X16629Y14515D03*
X17267Y4307D03*
G54D16*
X5925Y5275D03*
X492Y2862D03*
G54D15*
X1240Y8751D03*
X1181Y7440D03*
X610Y15578D03*
X1118Y19696D03*
G54D18*
X16952Y13440D03*
G54D15*
X13846Y11027D03*
X14818Y21708D03*
X15677Y22267D03*
X11641Y7834D03*
X1192Y14744D03*
X1059Y18279D03*
X15866Y7307D03*
X2003Y21657D03*
X7397Y11303D03*
X9641Y6448D03*
X8645Y12444D03*
X3692Y14610D03*
X1677Y21358D03*
X3476Y23196D03*
X3023Y21035D03*
X3732Y17787D03*
X3401Y21007D03*
X4137Y17748D03*
X3661Y3850D03*
X7897Y7476D03*
X15759Y10618D03*
X11228Y13535D03*
X15712Y9755D03*
X10700Y12283D03*
X15870Y11480D03*
X13511Y10456D03*
X15818Y11885D03*
X13224Y10696D03*
X15748Y8881D03*
X11610Y12291D03*
X15818Y9326D03*
X11074Y12433D03*
X1700Y6503D03*
X6645Y5838D03*
X11149Y19476D03*
X9586Y16803D03*
X13566Y20141D03*
X8555Y14755D03*
X13303Y20366D03*
X12476Y17724D03*
X7893Y16074D03*
X6598Y14925D03*
X8539Y14385D03*
X13649Y18562D03*
X7858Y16437D03*
X6496Y15586D03*
X7964Y14940D03*
X9196Y13980D03*
X16173Y12795D03*
X13452Y11354D03*
X1476Y9263D03*
X11811Y9015D03*
X11877Y8405D03*
X13110Y8539D03*
G54D20*
X720Y4165D02*
X720Y4043D01*
X2149Y11137D02*
X2484Y11137D01*
X720Y9708D02*
X2149Y11137D01*
X720Y4043D02*
X720Y9708D01*
X17267Y4307D02*
X17267Y8381D01*
X17480Y13665D02*
X16629Y14515D01*
X17480Y8594D02*
X17480Y13665D01*
X17267Y8381D02*
X17480Y8594D01*
X5830Y5275D02*
X5925Y5275D01*
X7066Y4039D02*
X5830Y5275D01*
X17000Y4039D02*
X7066Y4039D01*
X17267Y4307D02*
X17000Y4039D01*
G54D21*
X3531Y5275D02*
X5925Y5275D01*
X1358Y3102D02*
X3531Y5275D01*
X1224Y3102D02*
X1358Y3102D01*
X1145Y3023D02*
X1224Y3102D01*
G54D20*
X653Y3023D02*
X1145Y3023D01*
X492Y2862D02*
X653Y3023D01*
G54D10*
G36*
X18257Y887D02*
X17931Y588D01*
X17931Y1000D01*
X17931Y23126D01*
X17909Y23236D01*
X17866Y23339D01*
X17805Y23432D01*
X17726Y23511D01*
X17634Y23573D01*
X17531Y23616D01*
X17421Y23639D01*
X17310Y23640D01*
X17200Y23619D01*
X17097Y23577D01*
X17004Y23516D01*
X16924Y23438D01*
X16861Y23346D01*
X16817Y23243D01*
X16794Y23134D01*
X16792Y23023D01*
X16812Y22913D01*
X16853Y22809D01*
X16914Y22715D01*
X16991Y22635D01*
X17083Y22571D01*
X17185Y22527D01*
X17294Y22503D01*
X17406Y22500D01*
X17515Y22520D01*
X17619Y22560D01*
X17714Y22620D01*
X17794Y22697D01*
X17859Y22788D01*
X17904Y22890D01*
X17929Y22999D01*
X17931Y23126D01*
X17931Y1000D01*
X17909Y1110D01*
X17866Y1213D01*
X17812Y1294D01*
X17812Y8594D01*
X17812Y13665D01*
X17809Y13695D01*
X17807Y13726D01*
X17806Y13728D01*
X17806Y13729D01*
X17797Y13759D01*
X17789Y13788D01*
X17788Y13790D01*
X17787Y13792D01*
X17773Y13819D01*
X17759Y13846D01*
X17758Y13847D01*
X17757Y13849D01*
X17737Y13873D01*
X17718Y13897D01*
X17716Y13899D01*
X17716Y13899D01*
X17716Y13899D01*
X17715Y13900D01*
X17344Y14271D01*
X17344Y16507D01*
X17334Y16559D01*
X17313Y16609D01*
X17283Y16654D01*
X17246Y16692D01*
X17201Y16722D01*
X17152Y16742D01*
X17099Y16753D01*
X17045Y16754D01*
X16993Y16744D01*
X16943Y16723D01*
X16898Y16694D01*
X16860Y16657D01*
X16829Y16612D01*
X16808Y16563D01*
X16797Y16510D01*
X16796Y16457D01*
X16806Y16404D01*
X16826Y16354D01*
X16855Y16309D01*
X16892Y16270D01*
X16936Y16240D01*
X16985Y16218D01*
X17038Y16207D01*
X17091Y16206D01*
X17144Y16215D01*
X17194Y16234D01*
X17240Y16263D01*
X17278Y16300D01*
X17309Y16344D01*
X17331Y16393D01*
X17343Y16445D01*
X17344Y16507D01*
X17344Y14271D01*
X16865Y14750D01*
X16814Y14792D01*
X16757Y14822D01*
X16695Y14841D01*
X16631Y14848D01*
X16566Y14842D01*
X16504Y14823D01*
X16446Y14793D01*
X16396Y14752D01*
X16354Y14702D01*
X16323Y14645D01*
X16304Y14583D01*
X16297Y14519D01*
X16302Y14454D01*
X16321Y14392D01*
X16350Y14334D01*
X16391Y14283D01*
X16394Y14280D01*
X16940Y13734D01*
X16926Y13734D01*
X16869Y13723D01*
X16816Y13702D01*
X16768Y13670D01*
X16726Y13630D01*
X16694Y13582D01*
X16671Y13530D01*
X16659Y13473D01*
X16659Y13416D01*
X16669Y13359D01*
X16690Y13306D01*
X16721Y13257D01*
X16761Y13216D01*
X16808Y13183D01*
X16861Y13160D01*
X16917Y13148D01*
X16975Y13147D01*
X17032Y13157D01*
X17085Y13177D01*
X17134Y13208D01*
X17147Y13221D01*
X17147Y8732D01*
X17032Y8617D01*
X17012Y8593D01*
X16993Y8569D01*
X16992Y8568D01*
X16991Y8566D01*
X16976Y8539D01*
X16961Y8512D01*
X16961Y8511D01*
X16960Y8509D01*
X16951Y8480D01*
X16942Y8451D01*
X16942Y8449D01*
X16941Y8447D01*
X16938Y8417D01*
X16935Y8386D01*
X16935Y8383D01*
X16935Y8383D01*
X16935Y8382D01*
X16935Y8381D01*
X16935Y4444D01*
X16862Y4372D01*
X16446Y4372D01*
X16446Y12822D01*
X16436Y12874D01*
X16415Y12924D01*
X16386Y12969D01*
X16348Y13007D01*
X16303Y13037D01*
X16254Y13057D01*
X16201Y13068D01*
X16148Y13069D01*
X16104Y13060D01*
X16104Y17790D01*
X16093Y17843D01*
X16073Y17892D01*
X16043Y17937D01*
X16005Y17975D01*
X15961Y18005D01*
X15959Y18006D01*
X15968Y18011D01*
X16007Y18048D01*
X16038Y18092D01*
X16060Y18141D01*
X16071Y18193D01*
X16072Y18255D01*
X16062Y18307D01*
X16041Y18357D01*
X16012Y18402D01*
X15974Y18440D01*
X15950Y18456D01*
X15950Y22294D01*
X15940Y22347D01*
X15919Y22396D01*
X15890Y22441D01*
X15852Y22479D01*
X15807Y22509D01*
X15758Y22530D01*
X15705Y22541D01*
X15652Y22541D01*
X15599Y22531D01*
X15549Y22511D01*
X15504Y22481D01*
X15466Y22444D01*
X15436Y22400D01*
X15415Y22350D01*
X15403Y22298D01*
X15403Y22244D01*
X15412Y22191D01*
X15432Y22142D01*
X15461Y22096D01*
X15498Y22058D01*
X15543Y22027D01*
X15592Y22006D01*
X15644Y21994D01*
X15698Y21993D01*
X15751Y22002D01*
X15801Y22022D01*
X15846Y22051D01*
X15885Y22088D01*
X15916Y22131D01*
X15938Y22180D01*
X15949Y22233D01*
X15950Y22294D01*
X15950Y18456D01*
X15929Y18470D01*
X15880Y18490D01*
X15827Y18501D01*
X15774Y18502D01*
X15721Y18492D01*
X15671Y18472D01*
X15626Y18442D01*
X15588Y18405D01*
X15558Y18360D01*
X15537Y18311D01*
X15525Y18258D01*
X15525Y18205D01*
X15534Y18152D01*
X15554Y18102D01*
X15583Y18057D01*
X15621Y18018D01*
X15665Y17988D01*
X15670Y17985D01*
X15658Y17978D01*
X15620Y17940D01*
X15589Y17896D01*
X15568Y17846D01*
X15557Y17794D01*
X15556Y17740D01*
X15566Y17687D01*
X15586Y17638D01*
X15615Y17592D01*
X15652Y17554D01*
X15696Y17523D01*
X15745Y17502D01*
X15798Y17490D01*
X15851Y17489D01*
X15904Y17498D01*
X15954Y17518D01*
X15999Y17547D01*
X16038Y17584D01*
X16069Y17627D01*
X16091Y17676D01*
X16103Y17729D01*
X16104Y17790D01*
X16104Y13060D01*
X16095Y13059D01*
X16045Y13038D01*
X16000Y13009D01*
X15962Y12972D01*
X15932Y12927D01*
X15911Y12878D01*
X15899Y12825D01*
X15899Y12772D01*
X15908Y12719D01*
X15928Y12669D01*
X15957Y12624D01*
X15995Y12585D01*
X16039Y12555D01*
X16088Y12533D01*
X16140Y12522D01*
X16194Y12521D01*
X16247Y12530D01*
X16297Y12549D01*
X16342Y12578D01*
X16381Y12615D01*
X16412Y12659D01*
X16434Y12708D01*
X16446Y12760D01*
X16446Y12822D01*
X16446Y4372D01*
X16163Y4372D01*
X16163Y10213D01*
X16152Y10270D01*
X16143Y10290D01*
X16143Y11507D01*
X16133Y11559D01*
X16112Y11609D01*
X16083Y11654D01*
X16045Y11692D01*
X16026Y11705D01*
X16027Y11706D01*
X16057Y11750D01*
X16079Y11799D01*
X16091Y11851D01*
X16092Y11912D01*
X16082Y11965D01*
X16061Y12014D01*
X16031Y12059D01*
X15994Y12097D01*
X15949Y12127D01*
X15900Y12148D01*
X15847Y12159D01*
X15793Y12159D01*
X15741Y12149D01*
X15691Y12129D01*
X15646Y12100D01*
X15608Y12062D01*
X15577Y12018D01*
X15556Y11968D01*
X15545Y11916D01*
X15544Y11862D01*
X15554Y11810D01*
X15574Y11760D01*
X15603Y11715D01*
X15640Y11676D01*
X15663Y11660D01*
X15659Y11657D01*
X15629Y11612D01*
X15608Y11563D01*
X15596Y11510D01*
X15596Y11457D01*
X15605Y11404D01*
X15625Y11354D01*
X15654Y11309D01*
X15691Y11270D01*
X15735Y11240D01*
X15785Y11218D01*
X15837Y11207D01*
X15891Y11206D01*
X15944Y11215D01*
X15994Y11234D01*
X16039Y11263D01*
X16078Y11300D01*
X16109Y11344D01*
X16130Y11393D01*
X16142Y11445D01*
X16143Y11507D01*
X16143Y10290D01*
X16130Y10323D01*
X16098Y10371D01*
X16057Y10412D01*
X16010Y10444D01*
X15980Y10456D01*
X15998Y10482D01*
X16020Y10531D01*
X16032Y10583D01*
X16033Y10644D01*
X16023Y10697D01*
X16002Y10747D01*
X15972Y10791D01*
X15935Y10829D01*
X15890Y10859D01*
X15841Y10880D01*
X15788Y10891D01*
X15734Y10891D01*
X15682Y10881D01*
X15632Y10861D01*
X15587Y10832D01*
X15549Y10794D01*
X15518Y10750D01*
X15497Y10701D01*
X15486Y10648D01*
X15485Y10595D01*
X15495Y10542D01*
X15515Y10492D01*
X15544Y10447D01*
X15581Y10408D01*
X15625Y10378D01*
X15641Y10371D01*
X15611Y10327D01*
X15589Y10274D01*
X15577Y10217D01*
X15576Y10160D01*
X15586Y10103D01*
X15607Y10050D01*
X15629Y10017D01*
X15585Y9999D01*
X15540Y9970D01*
X15501Y9932D01*
X15471Y9888D01*
X15450Y9839D01*
X15450Y15845D01*
X15440Y15898D01*
X15431Y15920D01*
X15431Y18314D01*
X15420Y18366D01*
X15400Y18416D01*
X15370Y18461D01*
X15332Y18499D01*
X15288Y18529D01*
X15238Y18550D01*
X15186Y18560D01*
X15132Y18561D01*
X15092Y18553D01*
X15092Y21735D01*
X15082Y21788D01*
X15061Y21837D01*
X15031Y21882D01*
X14994Y21920D01*
X14949Y21950D01*
X14900Y21971D01*
X14847Y21982D01*
X14793Y21982D01*
X14769Y21977D01*
X14769Y22794D01*
X14759Y22847D01*
X14738Y22896D01*
X14709Y22941D01*
X14671Y22979D01*
X14626Y23009D01*
X14577Y23030D01*
X14524Y23041D01*
X14471Y23041D01*
X14418Y23031D01*
X14368Y23011D01*
X14323Y22981D01*
X14285Y22944D01*
X14255Y22900D01*
X14233Y22850D01*
X14222Y22798D01*
X14222Y22744D01*
X14231Y22691D01*
X14251Y22642D01*
X14280Y22596D01*
X14317Y22558D01*
X14361Y22527D01*
X14411Y22506D01*
X14463Y22494D01*
X14517Y22493D01*
X14570Y22502D01*
X14620Y22522D01*
X14665Y22551D01*
X14704Y22588D01*
X14735Y22631D01*
X14756Y22680D01*
X14768Y22733D01*
X14769Y22794D01*
X14769Y21977D01*
X14741Y21972D01*
X14691Y21952D01*
X14646Y21922D01*
X14608Y21885D01*
X14577Y21841D01*
X14556Y21791D01*
X14545Y21739D01*
X14544Y21685D01*
X14554Y21632D01*
X14574Y21582D01*
X14603Y21537D01*
X14640Y21499D01*
X14684Y21468D01*
X14733Y21447D01*
X14786Y21435D01*
X14839Y21434D01*
X14892Y21443D01*
X14942Y21463D01*
X14988Y21492D01*
X15027Y21529D01*
X15057Y21572D01*
X15079Y21621D01*
X15091Y21674D01*
X15092Y21735D01*
X15092Y18553D01*
X15079Y18551D01*
X15072Y18548D01*
X15072Y20770D01*
X15062Y20823D01*
X15041Y20873D01*
X15012Y20917D01*
X14974Y20955D01*
X14929Y20985D01*
X14880Y21006D01*
X14827Y21017D01*
X14774Y21017D01*
X14721Y21007D01*
X14671Y20987D01*
X14626Y20958D01*
X14588Y20920D01*
X14558Y20876D01*
X14537Y20827D01*
X14525Y20774D01*
X14525Y20721D01*
X14534Y20668D01*
X14554Y20618D01*
X14583Y20573D01*
X14621Y20534D01*
X14665Y20504D01*
X14714Y20482D01*
X14766Y20471D01*
X14820Y20469D01*
X14873Y20479D01*
X14923Y20498D01*
X14968Y20527D01*
X15007Y20564D01*
X15038Y20608D01*
X15060Y20657D01*
X15071Y20709D01*
X15072Y20770D01*
X15072Y18548D01*
X15030Y18531D01*
X14985Y18501D01*
X14946Y18464D01*
X14916Y18419D01*
X14895Y18370D01*
X14884Y18318D01*
X14883Y18264D01*
X14893Y18211D01*
X14912Y18161D01*
X14942Y18116D01*
X14979Y18078D01*
X15023Y18047D01*
X15072Y18025D01*
X15124Y18014D01*
X15178Y18013D01*
X15231Y18022D01*
X15281Y18041D01*
X15326Y18070D01*
X15365Y18107D01*
X15396Y18151D01*
X15418Y18200D01*
X15430Y18252D01*
X15431Y18314D01*
X15431Y15920D01*
X15419Y15947D01*
X15390Y15992D01*
X15352Y16030D01*
X15307Y16060D01*
X15258Y16081D01*
X15205Y16092D01*
X15152Y16092D01*
X15099Y16082D01*
X15084Y16076D01*
X15084Y17601D01*
X15074Y17654D01*
X15053Y17703D01*
X15024Y17748D01*
X14986Y17786D01*
X14941Y17816D01*
X14892Y17837D01*
X14839Y17848D01*
X14786Y17848D01*
X14733Y17838D01*
X14683Y17818D01*
X14638Y17789D01*
X14600Y17751D01*
X14570Y17707D01*
X14548Y17657D01*
X14537Y17605D01*
X14537Y17551D01*
X14546Y17499D01*
X14566Y17449D01*
X14595Y17404D01*
X14632Y17365D01*
X14676Y17334D01*
X14726Y17313D01*
X14778Y17301D01*
X14832Y17300D01*
X14884Y17309D01*
X14934Y17329D01*
X14980Y17358D01*
X15019Y17395D01*
X15050Y17438D01*
X15071Y17488D01*
X15083Y17540D01*
X15084Y17601D01*
X15084Y16076D01*
X15049Y16062D01*
X15004Y16033D01*
X14966Y15995D01*
X14936Y15951D01*
X14915Y15902D01*
X14903Y15849D01*
X14903Y15795D01*
X14912Y15743D01*
X14932Y15693D01*
X14961Y15648D01*
X14998Y15609D01*
X15043Y15578D01*
X15092Y15557D01*
X15144Y15545D01*
X15198Y15544D01*
X15251Y15554D01*
X15301Y15573D01*
X15346Y15602D01*
X15385Y15639D01*
X15416Y15683D01*
X15438Y15732D01*
X15449Y15784D01*
X15450Y15845D01*
X15450Y9839D01*
X15450Y9839D01*
X15439Y9786D01*
X15438Y9732D01*
X15448Y9680D01*
X15468Y9630D01*
X15497Y9585D01*
X15534Y9546D01*
X15578Y9515D01*
X15607Y9503D01*
X15577Y9459D01*
X15556Y9409D01*
X15545Y9357D01*
X15544Y9303D01*
X15554Y9250D01*
X15574Y9201D01*
X15603Y9155D01*
X15629Y9129D01*
X15620Y9125D01*
X15575Y9096D01*
X15537Y9058D01*
X15507Y9014D01*
X15485Y8965D01*
X15474Y8912D01*
X15474Y8858D01*
X15483Y8806D01*
X15503Y8756D01*
X15532Y8711D01*
X15569Y8672D01*
X15613Y8641D01*
X15663Y8620D01*
X15715Y8608D01*
X15769Y8607D01*
X15821Y8617D01*
X15871Y8636D01*
X15917Y8665D01*
X15956Y8702D01*
X15987Y8746D01*
X16008Y8795D01*
X16020Y8847D01*
X16021Y8908D01*
X16011Y8961D01*
X15990Y9010D01*
X15961Y9055D01*
X15937Y9079D01*
X15942Y9081D01*
X15988Y9110D01*
X16027Y9147D01*
X16057Y9190D01*
X16079Y9239D01*
X16091Y9292D01*
X16092Y9353D01*
X16082Y9406D01*
X16061Y9455D01*
X16031Y9500D01*
X15994Y9538D01*
X15949Y9568D01*
X15923Y9579D01*
X15951Y9620D01*
X15973Y9669D01*
X15985Y9721D01*
X15986Y9782D01*
X15975Y9835D01*
X15955Y9884D01*
X15945Y9900D01*
X15949Y9901D01*
X16002Y9921D01*
X16051Y9952D01*
X16093Y9992D01*
X16126Y10039D01*
X16149Y10092D01*
X16162Y10148D01*
X16163Y10213D01*
X16163Y4372D01*
X16139Y4372D01*
X16139Y7333D01*
X16129Y7386D01*
X16108Y7436D01*
X16079Y7480D01*
X16041Y7518D01*
X15996Y7548D01*
X15947Y7569D01*
X15894Y7580D01*
X15841Y7580D01*
X15788Y7570D01*
X15738Y7550D01*
X15693Y7521D01*
X15655Y7483D01*
X15625Y7439D01*
X15604Y7390D01*
X15592Y7337D01*
X15592Y7284D01*
X15601Y7231D01*
X15621Y7181D01*
X15650Y7136D01*
X15687Y7097D01*
X15732Y7067D01*
X15781Y7045D01*
X15833Y7034D01*
X15887Y7032D01*
X15940Y7042D01*
X15990Y7061D01*
X16035Y7090D01*
X16074Y7127D01*
X16105Y7171D01*
X16127Y7220D01*
X16138Y7272D01*
X16139Y7333D01*
X16139Y4372D01*
X15344Y4372D01*
X15344Y7802D01*
X15334Y7855D01*
X15313Y7904D01*
X15283Y7949D01*
X15246Y7987D01*
X15201Y8017D01*
X15152Y8038D01*
X15099Y8049D01*
X15045Y8049D01*
X14993Y8039D01*
X14943Y8019D01*
X14898Y7989D01*
X14860Y7952D01*
X14829Y7908D01*
X14808Y7858D01*
X14797Y7806D01*
X14796Y7752D01*
X14806Y7699D01*
X14826Y7649D01*
X14855Y7604D01*
X14892Y7566D01*
X14936Y7535D01*
X14985Y7514D01*
X15038Y7502D01*
X15091Y7501D01*
X15144Y7510D01*
X15194Y7530D01*
X15240Y7558D01*
X15278Y7595D01*
X15309Y7639D01*
X15331Y7688D01*
X15343Y7741D01*
X15344Y7802D01*
X15344Y4372D01*
X14395Y4372D01*
X14395Y8479D01*
X14385Y8532D01*
X14364Y8581D01*
X14335Y8626D01*
X14297Y8664D01*
X14252Y8694D01*
X14203Y8715D01*
X14150Y8726D01*
X14120Y8726D01*
X14120Y11054D01*
X14109Y11107D01*
X14089Y11156D01*
X14059Y11201D01*
X14021Y11239D01*
X13982Y11265D01*
X13982Y23325D01*
X13970Y23386D01*
X13946Y23442D01*
X13913Y23494D01*
X13869Y23537D01*
X13818Y23571D01*
X13762Y23595D01*
X13702Y23608D01*
X13640Y23608D01*
X13580Y23596D01*
X13523Y23573D01*
X13472Y23540D01*
X13428Y23497D01*
X13393Y23446D01*
X13369Y23390D01*
X13356Y23330D01*
X13355Y23268D01*
X13366Y23208D01*
X13389Y23151D01*
X13422Y23099D01*
X13465Y23055D01*
X13515Y23020D01*
X13572Y22996D01*
X13632Y22982D01*
X13693Y22981D01*
X13753Y22992D01*
X13811Y23014D01*
X13862Y23047D01*
X13907Y23089D01*
X13942Y23139D01*
X13967Y23196D01*
X13981Y23255D01*
X13982Y23325D01*
X13982Y11265D01*
X13977Y11269D01*
X13927Y11290D01*
X13923Y11291D01*
X13923Y18589D01*
X13912Y18642D01*
X13892Y18692D01*
X13862Y18736D01*
X13840Y18759D01*
X13840Y20168D01*
X13830Y20221D01*
X13809Y20270D01*
X13779Y20315D01*
X13742Y20353D01*
X13697Y20383D01*
X13648Y20404D01*
X13595Y20415D01*
X13572Y20415D01*
X13566Y20445D01*
X13545Y20495D01*
X13516Y20539D01*
X13478Y20577D01*
X13433Y20607D01*
X13384Y20628D01*
X13331Y20639D01*
X13278Y20639D01*
X13269Y20638D01*
X13269Y22538D01*
X13257Y22598D01*
X13234Y22655D01*
X13200Y22706D01*
X13157Y22750D01*
X13106Y22784D01*
X13049Y22808D01*
X12989Y22820D01*
X12928Y22821D01*
X12867Y22809D01*
X12810Y22786D01*
X12759Y22752D01*
X12715Y22710D01*
X12681Y22659D01*
X12656Y22602D01*
X12644Y22542D01*
X12643Y22481D01*
X12654Y22421D01*
X12676Y22364D01*
X12710Y22312D01*
X12752Y22268D01*
X12803Y22233D01*
X12859Y22208D01*
X12919Y22195D01*
X12980Y22194D01*
X13041Y22204D01*
X13098Y22227D01*
X13150Y22260D01*
X13194Y22302D01*
X13230Y22352D01*
X13255Y22408D01*
X13268Y22468D01*
X13269Y22538D01*
X13269Y20638D01*
X13225Y20629D01*
X13175Y20609D01*
X13130Y20580D01*
X13092Y20542D01*
X13062Y20498D01*
X13041Y20449D01*
X13029Y20396D01*
X13029Y20343D01*
X13038Y20290D01*
X13058Y20240D01*
X13087Y20195D01*
X13124Y20156D01*
X13169Y20126D01*
X13218Y20104D01*
X13270Y20093D01*
X13297Y20092D01*
X13302Y20065D01*
X13322Y20016D01*
X13351Y19970D01*
X13388Y19932D01*
X13432Y19901D01*
X13481Y19880D01*
X13534Y19868D01*
X13588Y19867D01*
X13640Y19876D01*
X13690Y19896D01*
X13736Y19925D01*
X13775Y19962D01*
X13805Y20005D01*
X13827Y20054D01*
X13839Y20107D01*
X13840Y20168D01*
X13840Y18759D01*
X13824Y18774D01*
X13780Y18804D01*
X13730Y18825D01*
X13678Y18836D01*
X13624Y18836D01*
X13571Y18826D01*
X13522Y18806D01*
X13477Y18777D01*
X13438Y18739D01*
X13408Y18695D01*
X13387Y18646D01*
X13376Y18593D01*
X13375Y18539D01*
X13385Y18487D01*
X13405Y18437D01*
X13434Y18392D01*
X13471Y18353D01*
X13515Y18322D01*
X13564Y18301D01*
X13617Y18289D01*
X13670Y18288D01*
X13723Y18298D01*
X13773Y18317D01*
X13818Y18346D01*
X13857Y18383D01*
X13888Y18427D01*
X13910Y18476D01*
X13922Y18528D01*
X13923Y18589D01*
X13923Y11291D01*
X13875Y11300D01*
X13821Y11301D01*
X13768Y11291D01*
X13719Y11271D01*
X13713Y11267D01*
X13725Y11319D01*
X13726Y11381D01*
X13715Y11433D01*
X13695Y11483D01*
X13665Y11528D01*
X13628Y11566D01*
X13583Y11596D01*
X13534Y11616D01*
X13481Y11627D01*
X13427Y11628D01*
X13375Y11618D01*
X13325Y11597D01*
X13280Y11568D01*
X13242Y11531D01*
X13211Y11486D01*
X13190Y11437D01*
X13179Y11384D01*
X13178Y11331D01*
X13188Y11278D01*
X13208Y11228D01*
X13237Y11183D01*
X13274Y11144D01*
X13318Y11114D01*
X13367Y11092D01*
X13420Y11081D01*
X13473Y11080D01*
X13526Y11089D01*
X13576Y11108D01*
X13586Y11114D01*
X13584Y11110D01*
X13573Y11058D01*
X13572Y11004D01*
X13582Y10951D01*
X13601Y10901D01*
X13630Y10856D01*
X13668Y10818D01*
X13712Y10787D01*
X13761Y10766D01*
X13813Y10754D01*
X13867Y10753D01*
X13920Y10762D01*
X13970Y10782D01*
X14015Y10810D01*
X14054Y10847D01*
X14085Y10891D01*
X14107Y10940D01*
X14119Y10993D01*
X14120Y11054D01*
X14120Y8726D01*
X14097Y8726D01*
X14044Y8716D01*
X13994Y8696D01*
X13949Y8667D01*
X13911Y8629D01*
X13881Y8585D01*
X13859Y8535D01*
X13848Y8483D01*
X13848Y8429D01*
X13857Y8376D01*
X13877Y8327D01*
X13906Y8281D01*
X13943Y8243D01*
X13987Y8212D01*
X14037Y8191D01*
X14089Y8179D01*
X14143Y8178D01*
X14195Y8187D01*
X14246Y8207D01*
X14291Y8236D01*
X14330Y8273D01*
X14361Y8316D01*
X14382Y8365D01*
X14394Y8418D01*
X14395Y8479D01*
X14395Y4372D01*
X13785Y4372D01*
X13785Y10483D01*
X13775Y10536D01*
X13754Y10585D01*
X13724Y10630D01*
X13687Y10668D01*
X13642Y10698D01*
X13593Y10719D01*
X13540Y10730D01*
X13496Y10730D01*
X13487Y10776D01*
X13467Y10825D01*
X13437Y10870D01*
X13399Y10908D01*
X13355Y10938D01*
X13305Y10959D01*
X13253Y10970D01*
X13199Y10970D01*
X13146Y10960D01*
X13097Y10940D01*
X13052Y10911D01*
X13013Y10873D01*
X12983Y10829D01*
X12962Y10779D01*
X12951Y10727D01*
X12950Y10673D01*
X12960Y10621D01*
X12979Y10571D01*
X13008Y10526D01*
X13046Y10487D01*
X13090Y10456D01*
X13139Y10435D01*
X13191Y10423D01*
X13239Y10422D01*
X13247Y10380D01*
X13267Y10331D01*
X13296Y10285D01*
X13333Y10247D01*
X13377Y10216D01*
X13426Y10195D01*
X13479Y10183D01*
X13532Y10182D01*
X13585Y10191D01*
X13635Y10211D01*
X13681Y10240D01*
X13719Y10277D01*
X13750Y10320D01*
X13772Y10369D01*
X13784Y10422D01*
X13785Y10483D01*
X13785Y4372D01*
X13383Y4372D01*
X13383Y8566D01*
X13373Y8618D01*
X13352Y8668D01*
X13323Y8713D01*
X13285Y8751D01*
X13241Y8781D01*
X13191Y8802D01*
X13138Y8812D01*
X13085Y8813D01*
X13032Y8803D01*
X12982Y8783D01*
X12937Y8753D01*
X12899Y8716D01*
X12869Y8671D01*
X12848Y8622D01*
X12837Y8570D01*
X12836Y8516D01*
X12845Y8463D01*
X12865Y8413D01*
X12894Y8368D01*
X12932Y8329D01*
X12976Y8299D01*
X13025Y8277D01*
X13077Y8266D01*
X13131Y8265D01*
X13184Y8274D01*
X13234Y8293D01*
X13279Y8322D01*
X13318Y8359D01*
X13349Y8403D01*
X13371Y8452D01*
X13383Y8504D01*
X13383Y8566D01*
X13383Y4372D01*
X12750Y4372D01*
X12750Y17751D01*
X12739Y17803D01*
X12719Y17853D01*
X12689Y17898D01*
X12651Y17936D01*
X12607Y17966D01*
X12557Y17987D01*
X12505Y17997D01*
X12505Y21038D01*
X12495Y21091D01*
X12475Y21140D01*
X12445Y21185D01*
X12407Y21223D01*
X12363Y21253D01*
X12313Y21274D01*
X12261Y21285D01*
X12207Y21285D01*
X12154Y21275D01*
X12104Y21255D01*
X12060Y21226D01*
X12021Y21188D01*
X11991Y21144D01*
X11970Y21094D01*
X11959Y21042D01*
X11958Y20988D01*
X11967Y20936D01*
X11987Y20886D01*
X12016Y20841D01*
X12054Y20802D01*
X12098Y20771D01*
X12147Y20750D01*
X12199Y20738D01*
X12253Y20737D01*
X12306Y20746D01*
X12356Y20766D01*
X12401Y20795D01*
X12440Y20832D01*
X12471Y20876D01*
X12493Y20925D01*
X12505Y20977D01*
X12505Y21038D01*
X12505Y17997D01*
X12505Y17997D01*
X12451Y17998D01*
X12398Y17988D01*
X12348Y17968D01*
X12304Y17938D01*
X12265Y17901D01*
X12235Y17856D01*
X12214Y17807D01*
X12203Y17755D01*
X12202Y17701D01*
X12212Y17648D01*
X12231Y17598D01*
X12260Y17553D01*
X12298Y17515D01*
X12342Y17484D01*
X12391Y17462D01*
X12443Y17451D01*
X12497Y17450D01*
X12550Y17459D01*
X12600Y17478D01*
X12645Y17507D01*
X12684Y17544D01*
X12715Y17588D01*
X12737Y17637D01*
X12749Y17689D01*
X12750Y17751D01*
X12750Y4372D01*
X12683Y4372D01*
X12683Y6133D01*
X12672Y6185D01*
X12652Y6235D01*
X12622Y6280D01*
X12584Y6318D01*
X12540Y6348D01*
X12490Y6368D01*
X12450Y6377D01*
X12450Y12637D01*
X12440Y12689D01*
X12419Y12739D01*
X12390Y12784D01*
X12352Y12822D01*
X12307Y12852D01*
X12258Y12872D01*
X12205Y12883D01*
X12152Y12884D01*
X12099Y12873D01*
X12049Y12853D01*
X12004Y12824D01*
X11966Y12786D01*
X11936Y12742D01*
X11915Y12693D01*
X11903Y12640D01*
X11903Y12587D01*
X11912Y12534D01*
X11932Y12484D01*
X11961Y12439D01*
X11998Y12400D01*
X12043Y12370D01*
X12092Y12348D01*
X12144Y12337D01*
X12198Y12336D01*
X12251Y12345D01*
X12301Y12364D01*
X12346Y12393D01*
X12385Y12430D01*
X12416Y12474D01*
X12438Y12523D01*
X12449Y12575D01*
X12450Y12637D01*
X12450Y6377D01*
X12438Y6379D01*
X12384Y6380D01*
X12331Y6370D01*
X12282Y6349D01*
X12237Y6320D01*
X12198Y6283D01*
X12168Y6238D01*
X12151Y6199D01*
X12151Y8432D01*
X12141Y8484D01*
X12120Y8534D01*
X12091Y8579D01*
X12084Y8585D01*
X12084Y9042D01*
X12074Y9095D01*
X12053Y9144D01*
X12024Y9189D01*
X11986Y9227D01*
X11966Y9240D01*
X11966Y11837D01*
X11956Y11890D01*
X11935Y11940D01*
X11905Y11984D01*
X11868Y12022D01*
X11823Y12052D01*
X11776Y12072D01*
X11779Y12074D01*
X11818Y12111D01*
X11849Y12155D01*
X11871Y12204D01*
X11883Y12256D01*
X11883Y12318D01*
X11873Y12370D01*
X11852Y12420D01*
X11823Y12465D01*
X11785Y12503D01*
X11741Y12533D01*
X11691Y12553D01*
X11638Y12564D01*
X11585Y12565D01*
X11561Y12560D01*
X11561Y19885D01*
X11553Y19924D01*
X11553Y21436D01*
X11542Y21488D01*
X11522Y21538D01*
X11492Y21583D01*
X11454Y21621D01*
X11410Y21651D01*
X11360Y21672D01*
X11308Y21682D01*
X11254Y21683D01*
X11201Y21673D01*
X11152Y21653D01*
X11107Y21623D01*
X11068Y21586D01*
X11038Y21541D01*
X11033Y21529D01*
X11033Y23160D01*
X11023Y23213D01*
X11002Y23262D01*
X10972Y23307D01*
X10935Y23345D01*
X10890Y23375D01*
X10841Y23396D01*
X10788Y23407D01*
X10734Y23407D01*
X10682Y23397D01*
X10632Y23377D01*
X10587Y23348D01*
X10549Y23310D01*
X10518Y23266D01*
X10497Y23216D01*
X10486Y23164D01*
X10485Y23110D01*
X10495Y23058D01*
X10515Y23008D01*
X10544Y22963D01*
X10581Y22924D01*
X10625Y22893D01*
X10674Y22872D01*
X10727Y22860D01*
X10780Y22859D01*
X10833Y22869D01*
X10883Y22888D01*
X10929Y22917D01*
X10967Y22954D01*
X10998Y22998D01*
X11020Y23047D01*
X11032Y23099D01*
X11033Y23160D01*
X11033Y21529D01*
X11017Y21492D01*
X11006Y21440D01*
X11005Y21386D01*
X11015Y21333D01*
X11034Y21283D01*
X11064Y21238D01*
X11101Y21200D01*
X11145Y21169D01*
X11194Y21147D01*
X11246Y21136D01*
X11300Y21135D01*
X11353Y21144D01*
X11403Y21164D01*
X11448Y21192D01*
X11487Y21229D01*
X11518Y21273D01*
X11540Y21322D01*
X11552Y21374D01*
X11553Y21436D01*
X11553Y19924D01*
X11550Y19937D01*
X11530Y19987D01*
X11500Y20032D01*
X11462Y20070D01*
X11418Y20100D01*
X11368Y20120D01*
X11316Y20131D01*
X11262Y20132D01*
X11209Y20122D01*
X11160Y20101D01*
X11115Y20072D01*
X11076Y20034D01*
X11046Y19990D01*
X11025Y19941D01*
X11014Y19888D01*
X11013Y19835D01*
X11023Y19782D01*
X11042Y19732D01*
X11045Y19729D01*
X11022Y19720D01*
X10977Y19690D01*
X10938Y19653D01*
X10908Y19608D01*
X10887Y19559D01*
X10876Y19507D01*
X10875Y19453D01*
X10885Y19400D01*
X10905Y19350D01*
X10934Y19305D01*
X10971Y19266D01*
X11015Y19236D01*
X11064Y19214D01*
X11117Y19203D01*
X11170Y19202D01*
X11223Y19211D01*
X11273Y19230D01*
X11318Y19259D01*
X11357Y19296D01*
X11388Y19340D01*
X11410Y19389D01*
X11422Y19441D01*
X11423Y19503D01*
X11412Y19555D01*
X11392Y19605D01*
X11392Y19605D01*
X11411Y19612D01*
X11456Y19641D01*
X11495Y19678D01*
X11526Y19722D01*
X11548Y19771D01*
X11560Y19823D01*
X11561Y19885D01*
X11561Y12560D01*
X11532Y12555D01*
X11501Y12542D01*
X11501Y13562D01*
X11491Y13614D01*
X11471Y13664D01*
X11442Y13706D01*
X11442Y16270D01*
X11432Y16323D01*
X11412Y16373D01*
X11382Y16417D01*
X11344Y16455D01*
X11300Y16485D01*
X11250Y16506D01*
X11198Y16517D01*
X11144Y16517D01*
X11091Y16507D01*
X11041Y16487D01*
X10997Y16458D01*
X10958Y16420D01*
X10928Y16376D01*
X10923Y16364D01*
X10923Y18629D01*
X10912Y18681D01*
X10892Y18731D01*
X10862Y18776D01*
X10824Y18814D01*
X10780Y18844D01*
X10730Y18865D01*
X10678Y18875D01*
X10624Y18876D01*
X10571Y18866D01*
X10522Y18846D01*
X10477Y18816D01*
X10438Y18779D01*
X10408Y18734D01*
X10387Y18685D01*
X10376Y18633D01*
X10375Y18579D01*
X10385Y18526D01*
X10405Y18476D01*
X10434Y18431D01*
X10471Y18392D01*
X10515Y18362D01*
X10564Y18340D01*
X10617Y18329D01*
X10670Y18328D01*
X10723Y18337D01*
X10773Y18356D01*
X10818Y18385D01*
X10857Y18422D01*
X10888Y18466D01*
X10910Y18515D01*
X10922Y18567D01*
X10923Y18629D01*
X10923Y16364D01*
X10907Y16327D01*
X10896Y16274D01*
X10895Y16221D01*
X10904Y16168D01*
X10924Y16118D01*
X10953Y16073D01*
X10991Y16034D01*
X11035Y16004D01*
X11084Y15982D01*
X11136Y15971D01*
X11190Y15969D01*
X11243Y15979D01*
X11293Y15998D01*
X11338Y16027D01*
X11377Y16064D01*
X11408Y16108D01*
X11430Y16157D01*
X11442Y16209D01*
X11442Y16270D01*
X11442Y13706D01*
X11441Y13709D01*
X11403Y13747D01*
X11359Y13777D01*
X11325Y13791D01*
X11335Y13835D01*
X11336Y13896D01*
X11326Y13949D01*
X11305Y13999D01*
X11276Y14043D01*
X11238Y14081D01*
X11215Y14097D01*
X11237Y14145D01*
X11249Y14197D01*
X11250Y14259D01*
X11239Y14311D01*
X11219Y14361D01*
X11189Y14406D01*
X11151Y14444D01*
X11107Y14474D01*
X11057Y14494D01*
X11005Y14505D01*
X10951Y14506D01*
X10898Y14496D01*
X10848Y14475D01*
X10804Y14446D01*
X10765Y14409D01*
X10735Y14364D01*
X10714Y14315D01*
X10703Y14262D01*
X10702Y14209D01*
X10712Y14156D01*
X10731Y14106D01*
X10760Y14061D01*
X10798Y14022D01*
X10823Y14005D01*
X10822Y14002D01*
X10800Y13953D01*
X10789Y13900D01*
X10789Y13847D01*
X10798Y13794D01*
X10818Y13744D01*
X10847Y13699D01*
X10884Y13660D01*
X10928Y13630D01*
X10965Y13614D01*
X10955Y13566D01*
X10954Y13512D01*
X10964Y13459D01*
X10983Y13409D01*
X11012Y13364D01*
X11050Y13326D01*
X11094Y13295D01*
X11143Y13273D01*
X11195Y13262D01*
X11249Y13261D01*
X11302Y13270D01*
X11352Y13290D01*
X11397Y13318D01*
X11436Y13355D01*
X11467Y13399D01*
X11489Y13448D01*
X11501Y13500D01*
X11501Y13562D01*
X11501Y12542D01*
X11482Y12534D01*
X11437Y12505D01*
X11399Y12468D01*
X11369Y12423D01*
X11348Y12375D01*
X11348Y12459D01*
X11338Y12512D01*
X11317Y12562D01*
X11287Y12606D01*
X11250Y12644D01*
X11205Y12674D01*
X11156Y12695D01*
X11103Y12706D01*
X11049Y12706D01*
X10997Y12696D01*
X10947Y12676D01*
X10902Y12647D01*
X10864Y12609D01*
X10833Y12565D01*
X10818Y12530D01*
X10782Y12546D01*
X10729Y12556D01*
X10675Y12557D01*
X10623Y12547D01*
X10588Y12533D01*
X10588Y17121D01*
X10578Y17173D01*
X10557Y17223D01*
X10528Y17268D01*
X10490Y17306D01*
X10445Y17336D01*
X10396Y17357D01*
X10343Y17367D01*
X10301Y17368D01*
X10301Y17688D01*
X10290Y17740D01*
X10270Y17790D01*
X10240Y17835D01*
X10202Y17873D01*
X10158Y17903D01*
X10108Y17924D01*
X10056Y17934D01*
X10002Y17935D01*
X9949Y17925D01*
X9900Y17905D01*
X9855Y17875D01*
X9832Y17853D01*
X9832Y20833D01*
X9822Y20886D01*
X9801Y20936D01*
X9772Y20980D01*
X9734Y21018D01*
X9689Y21048D01*
X9640Y21069D01*
X9596Y21078D01*
X9596Y22833D01*
X9584Y22894D01*
X9561Y22950D01*
X9527Y23001D01*
X9483Y23045D01*
X9433Y23079D01*
X9376Y23103D01*
X9316Y23115D01*
X9254Y23116D01*
X9194Y23104D01*
X9137Y23081D01*
X9086Y23048D01*
X9042Y23005D01*
X9007Y22954D01*
X8983Y22898D01*
X8970Y22838D01*
X8970Y22776D01*
X8981Y22716D01*
X9003Y22659D01*
X9036Y22607D01*
X9079Y22563D01*
X9130Y22528D01*
X9186Y22504D01*
X9246Y22490D01*
X9307Y22489D01*
X9368Y22500D01*
X9425Y22522D01*
X9477Y22555D01*
X9521Y22597D01*
X9556Y22647D01*
X9581Y22703D01*
X9595Y22763D01*
X9596Y22833D01*
X9596Y21078D01*
X9587Y21080D01*
X9534Y21080D01*
X9481Y21070D01*
X9431Y21050D01*
X9386Y21021D01*
X9348Y20983D01*
X9318Y20939D01*
X9296Y20890D01*
X9285Y20837D01*
X9285Y20784D01*
X9294Y20731D01*
X9314Y20681D01*
X9343Y20636D01*
X9380Y20597D01*
X9424Y20567D01*
X9474Y20545D01*
X9526Y20534D01*
X9580Y20532D01*
X9632Y20542D01*
X9683Y20561D01*
X9728Y20590D01*
X9767Y20627D01*
X9798Y20671D01*
X9819Y20720D01*
X9831Y20772D01*
X9832Y20833D01*
X9832Y17853D01*
X9816Y17838D01*
X9786Y17793D01*
X9765Y17744D01*
X9754Y17692D01*
X9753Y17638D01*
X9763Y17585D01*
X9783Y17535D01*
X9812Y17490D01*
X9849Y17452D01*
X9893Y17421D01*
X9942Y17399D01*
X9995Y17388D01*
X10048Y17387D01*
X10101Y17396D01*
X10151Y17416D01*
X10196Y17444D01*
X10235Y17481D01*
X10266Y17525D01*
X10288Y17574D01*
X10300Y17626D01*
X10301Y17688D01*
X10301Y17368D01*
X10290Y17368D01*
X10237Y17358D01*
X10187Y17338D01*
X10142Y17308D01*
X10104Y17271D01*
X10074Y17226D01*
X10052Y17177D01*
X10041Y17125D01*
X10040Y17071D01*
X10050Y17018D01*
X10070Y16968D01*
X10099Y16923D01*
X10136Y16885D01*
X10180Y16854D01*
X10229Y16832D01*
X10282Y16821D01*
X10336Y16820D01*
X10388Y16829D01*
X10438Y16849D01*
X10484Y16877D01*
X10523Y16914D01*
X10554Y16958D01*
X10575Y17007D01*
X10587Y17060D01*
X10588Y17121D01*
X10588Y12533D01*
X10573Y12527D01*
X10528Y12497D01*
X10490Y12460D01*
X10459Y12415D01*
X10438Y12366D01*
X10427Y12314D01*
X10426Y12260D01*
X10436Y12207D01*
X10456Y12157D01*
X10485Y12112D01*
X10522Y12074D01*
X10566Y12043D01*
X10615Y12021D01*
X10668Y12010D01*
X10721Y12009D01*
X10774Y12018D01*
X10824Y12038D01*
X10870Y12066D01*
X10908Y12103D01*
X10939Y12147D01*
X10956Y12185D01*
X10989Y12171D01*
X11042Y12160D01*
X11095Y12158D01*
X11148Y12168D01*
X11198Y12187D01*
X11244Y12216D01*
X11282Y12253D01*
X11313Y12297D01*
X11335Y12346D01*
X11347Y12398D01*
X11348Y12459D01*
X11348Y12375D01*
X11348Y12374D01*
X11337Y12321D01*
X11336Y12268D01*
X11345Y12215D01*
X11365Y12165D01*
X11394Y12120D01*
X11432Y12081D01*
X11476Y12051D01*
X11525Y12029D01*
X11527Y12029D01*
X11520Y12025D01*
X11482Y11987D01*
X11451Y11943D01*
X11430Y11894D01*
X11419Y11841D01*
X11418Y11788D01*
X11428Y11735D01*
X11448Y11685D01*
X11477Y11640D01*
X11514Y11601D01*
X11558Y11571D01*
X11607Y11549D01*
X11660Y11538D01*
X11714Y11536D01*
X11766Y11546D01*
X11816Y11565D01*
X11862Y11594D01*
X11901Y11631D01*
X11931Y11675D01*
X11953Y11724D01*
X11965Y11776D01*
X11966Y11837D01*
X11966Y9240D01*
X11941Y9257D01*
X11892Y9278D01*
X11839Y9289D01*
X11786Y9289D01*
X11733Y9279D01*
X11683Y9259D01*
X11638Y9230D01*
X11600Y9192D01*
X11570Y9148D01*
X11548Y9098D01*
X11537Y9046D01*
X11537Y8992D01*
X11546Y8939D01*
X11566Y8890D01*
X11595Y8844D01*
X11632Y8806D01*
X11676Y8775D01*
X11726Y8754D01*
X11778Y8742D01*
X11832Y8741D01*
X11884Y8750D01*
X11934Y8770D01*
X11980Y8799D01*
X12019Y8836D01*
X12050Y8879D01*
X12071Y8928D01*
X12083Y8981D01*
X12084Y9042D01*
X12084Y8585D01*
X12053Y8617D01*
X12008Y8647D01*
X11959Y8668D01*
X11906Y8678D01*
X11853Y8679D01*
X11800Y8669D01*
X11750Y8649D01*
X11705Y8619D01*
X11667Y8582D01*
X11637Y8537D01*
X11615Y8488D01*
X11604Y8436D01*
X11603Y8382D01*
X11613Y8329D01*
X11633Y8279D01*
X11662Y8234D01*
X11699Y8196D01*
X11743Y8165D01*
X11792Y8144D01*
X11845Y8132D01*
X11899Y8131D01*
X11951Y8140D01*
X12001Y8160D01*
X12047Y8188D01*
X12086Y8225D01*
X12117Y8269D01*
X12138Y8318D01*
X12150Y8371D01*
X12151Y8432D01*
X12151Y6199D01*
X12147Y6189D01*
X12136Y6136D01*
X12135Y6083D01*
X12145Y6030D01*
X12164Y5980D01*
X12193Y5935D01*
X12231Y5896D01*
X12275Y5866D01*
X12324Y5844D01*
X12376Y5833D01*
X12430Y5832D01*
X12483Y5841D01*
X12533Y5860D01*
X12578Y5889D01*
X12617Y5926D01*
X12648Y5970D01*
X12670Y6019D01*
X12682Y6071D01*
X12683Y6133D01*
X12683Y4372D01*
X11915Y4372D01*
X11915Y7861D01*
X11904Y7914D01*
X11884Y7963D01*
X11854Y8008D01*
X11816Y8046D01*
X11772Y8076D01*
X11723Y8097D01*
X11670Y8108D01*
X11616Y8108D01*
X11564Y8098D01*
X11514Y8078D01*
X11469Y8048D01*
X11431Y8011D01*
X11400Y7967D01*
X11379Y7917D01*
X11368Y7865D01*
X11367Y7811D01*
X11377Y7758D01*
X11397Y7708D01*
X11426Y7663D01*
X11463Y7625D01*
X11507Y7594D01*
X11556Y7573D01*
X11609Y7561D01*
X11662Y7560D01*
X11715Y7569D01*
X11765Y7589D01*
X11811Y7617D01*
X11849Y7654D01*
X11880Y7698D01*
X11902Y7747D01*
X11914Y7800D01*
X11915Y7861D01*
X11915Y4372D01*
X9915Y4372D01*
X9915Y6475D01*
X9911Y6495D01*
X9911Y16491D01*
X9901Y16544D01*
X9880Y16593D01*
X9850Y16638D01*
X9824Y16665D01*
X9825Y16667D01*
X9847Y16716D01*
X9859Y16768D01*
X9860Y16829D01*
X9849Y16882D01*
X9829Y16932D01*
X9799Y16976D01*
X9761Y17014D01*
X9717Y17045D01*
X9667Y17065D01*
X9615Y17076D01*
X9561Y17076D01*
X9508Y17066D01*
X9459Y17046D01*
X9414Y17017D01*
X9375Y16979D01*
X9345Y16935D01*
X9324Y16886D01*
X9313Y16833D01*
X9312Y16780D01*
X9322Y16727D01*
X9326Y16716D01*
X9316Y16718D01*
X9262Y16718D01*
X9209Y16708D01*
X9160Y16688D01*
X9115Y16659D01*
X9076Y16621D01*
X9046Y16577D01*
X9025Y16528D01*
X9014Y16475D01*
X9013Y16421D01*
X9023Y16369D01*
X9042Y16319D01*
X9071Y16274D01*
X9109Y16235D01*
X9153Y16204D01*
X9202Y16183D01*
X9254Y16171D01*
X9308Y16170D01*
X9361Y16180D01*
X9411Y16199D01*
X9456Y16228D01*
X9474Y16244D01*
X9503Y16224D01*
X9552Y16203D01*
X9605Y16191D01*
X9658Y16190D01*
X9711Y16199D01*
X9761Y16219D01*
X9807Y16247D01*
X9845Y16284D01*
X9876Y16328D01*
X9898Y16377D01*
X9910Y16430D01*
X9911Y16491D01*
X9911Y6495D01*
X9904Y6528D01*
X9884Y6577D01*
X9854Y6622D01*
X9816Y6660D01*
X9772Y6690D01*
X9723Y6711D01*
X9670Y6722D01*
X9616Y6722D01*
X9564Y6712D01*
X9541Y6703D01*
X9541Y12459D01*
X9530Y12512D01*
X9510Y12562D01*
X9480Y12606D01*
X9470Y12617D01*
X9470Y14007D01*
X9460Y14059D01*
X9439Y14109D01*
X9409Y14154D01*
X9372Y14192D01*
X9327Y14222D01*
X9278Y14242D01*
X9225Y14253D01*
X9171Y14254D01*
X9119Y14244D01*
X9069Y14223D01*
X9024Y14194D01*
X8986Y14157D01*
X8955Y14112D01*
X8934Y14063D01*
X8923Y14010D01*
X8922Y13957D01*
X8932Y13904D01*
X8952Y13854D01*
X8981Y13809D01*
X9018Y13770D01*
X9062Y13740D01*
X9111Y13718D01*
X9164Y13707D01*
X9217Y13706D01*
X9270Y13715D01*
X9320Y13734D01*
X9366Y13763D01*
X9404Y13800D01*
X9435Y13844D01*
X9457Y13893D01*
X9469Y13945D01*
X9470Y14007D01*
X9470Y12617D01*
X9442Y12644D01*
X9398Y12674D01*
X9349Y12695D01*
X9296Y12706D01*
X9242Y12706D01*
X9190Y12696D01*
X9140Y12676D01*
X9095Y12647D01*
X9057Y12609D01*
X9026Y12565D01*
X9005Y12516D01*
X8994Y12463D01*
X8993Y12410D01*
X9003Y12357D01*
X9023Y12307D01*
X9052Y12262D01*
X9089Y12223D01*
X9133Y12193D01*
X9182Y12171D01*
X9235Y12160D01*
X9288Y12158D01*
X9341Y12168D01*
X9391Y12187D01*
X9436Y12216D01*
X9475Y12253D01*
X9506Y12297D01*
X9528Y12346D01*
X9540Y12398D01*
X9541Y12459D01*
X9541Y6703D01*
X9514Y6692D01*
X9469Y6663D01*
X9431Y6625D01*
X9400Y6581D01*
X9379Y6531D01*
X9368Y6479D01*
X9367Y6425D01*
X9377Y6373D01*
X9397Y6323D01*
X9426Y6278D01*
X9463Y6239D01*
X9507Y6208D01*
X9556Y6187D01*
X9609Y6175D01*
X9662Y6174D01*
X9715Y6184D01*
X9765Y6203D01*
X9811Y6232D01*
X9849Y6269D01*
X9880Y6313D01*
X9902Y6362D01*
X9914Y6414D01*
X9915Y6475D01*
X9915Y4372D01*
X8931Y4372D01*
X8931Y6424D01*
X8920Y6477D01*
X8919Y6480D01*
X8919Y12471D01*
X8908Y12524D01*
X8888Y12573D01*
X8858Y12618D01*
X8828Y12648D01*
X8828Y14782D01*
X8818Y14835D01*
X8797Y14884D01*
X8768Y14929D01*
X8730Y14967D01*
X8685Y14997D01*
X8636Y15018D01*
X8583Y15029D01*
X8545Y15029D01*
X8545Y15790D01*
X8534Y15843D01*
X8514Y15892D01*
X8505Y15905D01*
X8505Y21129D01*
X8495Y21181D01*
X8475Y21231D01*
X8445Y21276D01*
X8407Y21314D01*
X8363Y21344D01*
X8313Y21365D01*
X8261Y21375D01*
X8207Y21376D01*
X8154Y21366D01*
X8104Y21346D01*
X8060Y21316D01*
X8021Y21279D01*
X7991Y21234D01*
X7970Y21185D01*
X7959Y21133D01*
X7958Y21079D01*
X7967Y21026D01*
X7987Y20976D01*
X8016Y20931D01*
X8054Y20892D01*
X8098Y20862D01*
X8147Y20840D01*
X8199Y20829D01*
X8253Y20828D01*
X8306Y20837D01*
X8356Y20856D01*
X8401Y20885D01*
X8440Y20922D01*
X8471Y20966D01*
X8493Y21015D01*
X8505Y21067D01*
X8505Y21129D01*
X8505Y15905D01*
X8484Y15937D01*
X8446Y15975D01*
X8402Y16005D01*
X8352Y16026D01*
X8300Y16037D01*
X8246Y16037D01*
X8194Y16027D01*
X8160Y16013D01*
X8166Y16040D01*
X8167Y16101D01*
X8156Y16154D01*
X8136Y16203D01*
X8106Y16248D01*
X8079Y16275D01*
X8097Y16301D01*
X8119Y16350D01*
X8131Y16402D01*
X8131Y16463D01*
X8121Y16516D01*
X8112Y16538D01*
X8123Y16533D01*
X8176Y16522D01*
X8229Y16521D01*
X8282Y16530D01*
X8332Y16549D01*
X8377Y16578D01*
X8416Y16615D01*
X8447Y16659D01*
X8469Y16708D01*
X8481Y16760D01*
X8482Y16822D01*
X8471Y16874D01*
X8451Y16924D01*
X8421Y16969D01*
X8383Y17007D01*
X8339Y17037D01*
X8289Y17057D01*
X8237Y17068D01*
X8183Y17069D01*
X8131Y17059D01*
X8081Y17038D01*
X8047Y17016D01*
X8047Y17190D01*
X8042Y17216D01*
X8031Y17241D01*
X8017Y17263D01*
X7998Y17282D01*
X7573Y17707D01*
X7572Y17707D01*
X7572Y22290D01*
X7562Y22343D01*
X7541Y22392D01*
X7512Y22437D01*
X7474Y22475D01*
X7429Y22505D01*
X7380Y22526D01*
X7327Y22537D01*
X7274Y22537D01*
X7221Y22527D01*
X7171Y22507D01*
X7126Y22478D01*
X7088Y22440D01*
X7058Y22396D01*
X7037Y22346D01*
X7025Y22294D01*
X7025Y22240D01*
X7034Y22187D01*
X7054Y22138D01*
X7083Y22092D01*
X7121Y22054D01*
X7165Y22023D01*
X7214Y22002D01*
X7266Y21990D01*
X7320Y21989D01*
X7373Y21998D01*
X7423Y22018D01*
X7468Y22047D01*
X7507Y22084D01*
X7538Y22127D01*
X7560Y22176D01*
X7571Y22229D01*
X7572Y22290D01*
X7572Y17707D01*
X7551Y17722D01*
X7526Y17732D01*
X7500Y17737D01*
X7474Y17737D01*
X7447Y17732D01*
X7423Y17722D01*
X7401Y17707D01*
X7382Y17689D01*
X7217Y17524D01*
X7217Y17885D01*
X7209Y17969D01*
X7185Y18051D01*
X7145Y18126D01*
X7092Y18192D01*
X7026Y18247D01*
X6952Y18287D01*
X6870Y18313D01*
X6786Y18322D01*
X6701Y18314D01*
X6619Y18291D01*
X6544Y18252D01*
X6477Y18199D01*
X6473Y18194D01*
X6444Y18165D01*
X6449Y18189D01*
X6450Y18251D01*
X6440Y18303D01*
X6419Y18353D01*
X6390Y18398D01*
X6352Y18436D01*
X6307Y18466D01*
X6258Y18487D01*
X6234Y18492D01*
X6234Y23310D01*
X6222Y23370D01*
X6198Y23427D01*
X6164Y23478D01*
X6121Y23521D01*
X6070Y23556D01*
X6014Y23579D01*
X5954Y23592D01*
X5892Y23592D01*
X5832Y23581D01*
X5775Y23558D01*
X5724Y23524D01*
X5680Y23481D01*
X5645Y23431D01*
X5621Y23374D01*
X5608Y23314D01*
X5607Y23253D01*
X5618Y23192D01*
X5641Y23135D01*
X5674Y23084D01*
X5717Y23040D01*
X5767Y23004D01*
X5824Y22980D01*
X5884Y22967D01*
X5945Y22965D01*
X6005Y22976D01*
X6063Y22998D01*
X6114Y23031D01*
X6159Y23074D01*
X6194Y23124D01*
X6219Y23180D01*
X6233Y23240D01*
X6234Y23310D01*
X6234Y18492D01*
X6205Y18497D01*
X6152Y18498D01*
X6099Y18488D01*
X6049Y18468D01*
X6013Y18444D01*
X6013Y20822D01*
X6001Y20882D01*
X5978Y20938D01*
X5944Y20990D01*
X5901Y21033D01*
X5850Y21067D01*
X5818Y21081D01*
X5837Y21108D01*
X5859Y21157D01*
X5871Y21209D01*
X5872Y21270D01*
X5861Y21323D01*
X5841Y21373D01*
X5811Y21417D01*
X5773Y21455D01*
X5729Y21485D01*
X5679Y21506D01*
X5627Y21517D01*
X5573Y21517D01*
X5520Y21507D01*
X5471Y21487D01*
X5426Y21458D01*
X5387Y21420D01*
X5357Y21376D01*
X5336Y21327D01*
X5325Y21274D01*
X5324Y21221D01*
X5334Y21168D01*
X5353Y21118D01*
X5382Y21073D01*
X5420Y21034D01*
X5464Y21004D01*
X5468Y21002D01*
X5459Y20993D01*
X5425Y20942D01*
X5401Y20886D01*
X5388Y20826D01*
X5387Y20765D01*
X5398Y20704D01*
X5421Y20647D01*
X5454Y20595D01*
X5496Y20551D01*
X5547Y20516D01*
X5603Y20492D01*
X5663Y20479D01*
X5724Y20477D01*
X5785Y20488D01*
X5842Y20510D01*
X5894Y20543D01*
X5938Y20585D01*
X5974Y20635D01*
X5999Y20692D01*
X6012Y20751D01*
X6013Y20822D01*
X6013Y18444D01*
X6004Y18438D01*
X5966Y18401D01*
X5936Y18356D01*
X5915Y18307D01*
X5903Y18255D01*
X5903Y18201D01*
X5912Y18148D01*
X5932Y18098D01*
X5961Y18053D01*
X5998Y18015D01*
X6043Y17984D01*
X6092Y17962D01*
X6144Y17951D01*
X6198Y17950D01*
X6245Y17958D01*
X6227Y17937D01*
X6187Y17862D01*
X6162Y17780D01*
X6154Y17696D01*
X6158Y17651D01*
X6136Y17651D01*
X6076Y17640D01*
X6019Y17617D01*
X5968Y17583D01*
X5924Y17540D01*
X5889Y17490D01*
X5865Y17433D01*
X5852Y17373D01*
X5851Y17312D01*
X5863Y17251D01*
X5885Y17194D01*
X5918Y17143D01*
X5961Y17099D01*
X6011Y17064D01*
X6068Y17039D01*
X6128Y17026D01*
X6189Y17025D01*
X6249Y17035D01*
X6307Y17057D01*
X6358Y17090D01*
X6403Y17133D01*
X6438Y17183D01*
X6463Y17239D01*
X6472Y17276D01*
X6500Y17267D01*
X6585Y17258D01*
X6669Y17266D01*
X6751Y17289D01*
X6827Y17329D01*
X6893Y17382D01*
X6898Y17386D01*
X7089Y17578D01*
X7143Y17644D01*
X7184Y17719D01*
X7209Y17800D01*
X7217Y17885D01*
X7217Y17524D01*
X6769Y17076D01*
X6754Y17053D01*
X6744Y17029D01*
X6738Y17003D01*
X6738Y16976D01*
X6743Y16950D01*
X6753Y16925D01*
X6768Y16903D01*
X6787Y16884D01*
X7212Y16459D01*
X7234Y16444D01*
X7258Y16434D01*
X7285Y16429D01*
X7311Y16429D01*
X7337Y16434D01*
X7362Y16444D01*
X7384Y16459D01*
X7403Y16477D01*
X8016Y17090D01*
X8031Y17113D01*
X8041Y17137D01*
X8047Y17163D01*
X8047Y17190D01*
X8047Y17016D01*
X8036Y17009D01*
X7998Y16972D01*
X7967Y16927D01*
X7946Y16878D01*
X7935Y16825D01*
X7934Y16772D01*
X7944Y16719D01*
X7954Y16693D01*
X7939Y16699D01*
X7887Y16710D01*
X7833Y16710D01*
X7780Y16700D01*
X7730Y16680D01*
X7685Y16651D01*
X7647Y16613D01*
X7617Y16569D01*
X7596Y16520D01*
X7585Y16467D01*
X7584Y16414D01*
X7593Y16361D01*
X7613Y16311D01*
X7642Y16266D01*
X7672Y16235D01*
X7652Y16207D01*
X7631Y16157D01*
X7620Y16105D01*
X7619Y16051D01*
X7629Y15999D01*
X7649Y15949D01*
X7678Y15904D01*
X7715Y15865D01*
X7759Y15834D01*
X7808Y15813D01*
X7861Y15801D01*
X7914Y15800D01*
X7967Y15809D01*
X8004Y15824D01*
X7998Y15794D01*
X7997Y15740D01*
X8007Y15687D01*
X8027Y15638D01*
X8056Y15592D01*
X8093Y15554D01*
X8137Y15523D01*
X8186Y15502D01*
X8239Y15490D01*
X8292Y15489D01*
X8345Y15498D01*
X8395Y15518D01*
X8440Y15547D01*
X8479Y15584D01*
X8510Y15627D01*
X8532Y15676D01*
X8544Y15729D01*
X8545Y15790D01*
X8545Y15029D01*
X8530Y15029D01*
X8477Y15019D01*
X8427Y14999D01*
X8382Y14970D01*
X8344Y14932D01*
X8314Y14888D01*
X8293Y14839D01*
X8281Y14786D01*
X8281Y14732D01*
X8290Y14680D01*
X8310Y14630D01*
X8339Y14585D01*
X8345Y14579D01*
X8328Y14562D01*
X8298Y14518D01*
X8277Y14468D01*
X8266Y14416D01*
X8265Y14362D01*
X8275Y14310D01*
X8294Y14260D01*
X8323Y14215D01*
X8361Y14176D01*
X8405Y14145D01*
X8454Y14124D01*
X8506Y14112D01*
X8560Y14111D01*
X8613Y14121D01*
X8663Y14140D01*
X8708Y14169D01*
X8747Y14206D01*
X8778Y14250D01*
X8800Y14299D01*
X8812Y14351D01*
X8813Y14412D01*
X8802Y14465D01*
X8782Y14514D01*
X8752Y14559D01*
X8749Y14562D01*
X8763Y14576D01*
X8794Y14620D01*
X8816Y14669D01*
X8827Y14721D01*
X8828Y14782D01*
X8828Y12648D01*
X8820Y12656D01*
X8776Y12686D01*
X8726Y12707D01*
X8674Y12718D01*
X8620Y12718D01*
X8568Y12708D01*
X8518Y12688D01*
X8473Y12659D01*
X8435Y12621D01*
X8404Y12577D01*
X8383Y12528D01*
X8372Y12475D01*
X8371Y12421D01*
X8381Y12369D01*
X8401Y12319D01*
X8430Y12274D01*
X8467Y12235D01*
X8511Y12204D01*
X8560Y12183D01*
X8613Y12171D01*
X8666Y12170D01*
X8719Y12180D01*
X8769Y12199D01*
X8814Y12228D01*
X8853Y12265D01*
X8884Y12309D01*
X8906Y12358D01*
X8918Y12410D01*
X8919Y12471D01*
X8919Y6480D01*
X8900Y6526D01*
X8870Y6571D01*
X8832Y6609D01*
X8788Y6639D01*
X8738Y6660D01*
X8686Y6671D01*
X8632Y6671D01*
X8579Y6661D01*
X8530Y6641D01*
X8485Y6611D01*
X8446Y6574D01*
X8416Y6530D01*
X8395Y6480D01*
X8384Y6428D01*
X8383Y6374D01*
X8393Y6321D01*
X8412Y6271D01*
X8442Y6226D01*
X8479Y6188D01*
X8523Y6157D01*
X8572Y6136D01*
X8624Y6124D01*
X8678Y6123D01*
X8731Y6132D01*
X8781Y6152D01*
X8826Y6180D01*
X8865Y6217D01*
X8896Y6261D01*
X8918Y6310D01*
X8930Y6363D01*
X8931Y6424D01*
X8931Y4372D01*
X8238Y4372D01*
X8238Y14967D01*
X8227Y15020D01*
X8207Y15070D01*
X8177Y15114D01*
X8139Y15152D01*
X8095Y15182D01*
X8045Y15203D01*
X7993Y15214D01*
X7939Y15214D01*
X7886Y15204D01*
X7837Y15184D01*
X7792Y15155D01*
X7753Y15117D01*
X7723Y15073D01*
X7702Y15024D01*
X7691Y14971D01*
X7690Y14917D01*
X7700Y14865D01*
X7720Y14815D01*
X7749Y14770D01*
X7786Y14731D01*
X7830Y14700D01*
X7879Y14679D01*
X7932Y14667D01*
X7985Y14666D01*
X8038Y14676D01*
X8088Y14695D01*
X8133Y14724D01*
X8172Y14761D01*
X8203Y14805D01*
X8225Y14854D01*
X8237Y14906D01*
X8238Y14967D01*
X8238Y4372D01*
X8179Y4372D01*
X8179Y12522D01*
X8168Y12575D01*
X8148Y12625D01*
X8118Y12669D01*
X8080Y12707D01*
X8036Y12737D01*
X7986Y12758D01*
X7934Y12769D01*
X7880Y12769D01*
X7827Y12759D01*
X7778Y12739D01*
X7733Y12710D01*
X7694Y12672D01*
X7664Y12628D01*
X7643Y12579D01*
X7632Y12526D01*
X7631Y12473D01*
X7641Y12420D01*
X7660Y12370D01*
X7690Y12325D01*
X7727Y12286D01*
X7771Y12256D01*
X7820Y12234D01*
X7872Y12223D01*
X7926Y12221D01*
X7979Y12231D01*
X8029Y12250D01*
X8074Y12279D01*
X8113Y12316D01*
X8144Y12360D01*
X8166Y12409D01*
X8178Y12461D01*
X8179Y12522D01*
X8179Y4372D01*
X8171Y4372D01*
X8171Y7503D01*
X8160Y7555D01*
X8140Y7605D01*
X8110Y7650D01*
X8072Y7688D01*
X8028Y7718D01*
X7982Y7737D01*
X7982Y9837D01*
X7971Y9890D01*
X7951Y9940D01*
X7921Y9984D01*
X7883Y10022D01*
X7839Y10052D01*
X7789Y10073D01*
X7737Y10084D01*
X7683Y10084D01*
X7671Y10082D01*
X7671Y11329D01*
X7660Y11382D01*
X7640Y11432D01*
X7610Y11476D01*
X7572Y11514D01*
X7528Y11545D01*
X7478Y11565D01*
X7426Y11576D01*
X7372Y11576D01*
X7320Y11566D01*
X7301Y11559D01*
X7301Y11983D01*
X7290Y12036D01*
X7270Y12085D01*
X7240Y12130D01*
X7202Y12168D01*
X7183Y12181D01*
X7183Y12652D01*
X7172Y12705D01*
X7152Y12755D01*
X7122Y12799D01*
X7084Y12837D01*
X7040Y12867D01*
X7005Y12882D01*
X7005Y13452D01*
X6995Y13504D01*
X6975Y13554D01*
X6945Y13598D01*
X6907Y13637D01*
X6872Y13660D01*
X6872Y14952D01*
X6861Y15004D01*
X6841Y15054D01*
X6811Y15098D01*
X6773Y15137D01*
X6769Y15139D01*
X6769Y15613D01*
X6759Y15666D01*
X6738Y15715D01*
X6709Y15760D01*
X6671Y15798D01*
X6626Y15828D01*
X6577Y15849D01*
X6524Y15860D01*
X6471Y15860D01*
X6418Y15850D01*
X6368Y15830D01*
X6323Y15800D01*
X6285Y15763D01*
X6255Y15719D01*
X6233Y15669D01*
X6222Y15617D01*
X6222Y15563D01*
X6231Y15510D01*
X6251Y15460D01*
X6280Y15415D01*
X6317Y15377D01*
X6361Y15346D01*
X6411Y15325D01*
X6463Y15313D01*
X6517Y15312D01*
X6570Y15321D01*
X6620Y15341D01*
X6665Y15369D01*
X6704Y15406D01*
X6735Y15450D01*
X6756Y15499D01*
X6768Y15552D01*
X6769Y15613D01*
X6769Y15139D01*
X6729Y15167D01*
X6679Y15187D01*
X6627Y15198D01*
X6573Y15199D01*
X6520Y15188D01*
X6471Y15168D01*
X6426Y15139D01*
X6387Y15101D01*
X6357Y15057D01*
X6336Y15008D01*
X6325Y14955D01*
X6324Y14902D01*
X6334Y14849D01*
X6353Y14799D01*
X6382Y14754D01*
X6420Y14715D01*
X6464Y14685D01*
X6513Y14663D01*
X6565Y14652D01*
X6619Y14651D01*
X6672Y14660D01*
X6722Y14679D01*
X6767Y14708D01*
X6806Y14745D01*
X6837Y14789D01*
X6859Y14838D01*
X6871Y14890D01*
X6872Y14952D01*
X6872Y13660D01*
X6863Y13667D01*
X6813Y13687D01*
X6761Y13698D01*
X6707Y13699D01*
X6654Y13688D01*
X6604Y13668D01*
X6560Y13639D01*
X6521Y13601D01*
X6491Y13557D01*
X6470Y13508D01*
X6459Y13455D01*
X6458Y13402D01*
X6467Y13349D01*
X6487Y13299D01*
X6516Y13254D01*
X6554Y13215D01*
X6598Y13185D01*
X6647Y13163D01*
X6699Y13152D01*
X6753Y13151D01*
X6806Y13160D01*
X6856Y13179D01*
X6901Y13208D01*
X6940Y13245D01*
X6971Y13289D01*
X6993Y13338D01*
X7005Y13390D01*
X7005Y13452D01*
X7005Y12882D01*
X6990Y12888D01*
X6938Y12899D01*
X6884Y12899D01*
X6831Y12889D01*
X6782Y12869D01*
X6737Y12840D01*
X6698Y12802D01*
X6668Y12758D01*
X6647Y12709D01*
X6636Y12656D01*
X6635Y12602D01*
X6645Y12550D01*
X6664Y12500D01*
X6693Y12455D01*
X6731Y12416D01*
X6775Y12385D01*
X6824Y12364D01*
X6876Y12352D01*
X6930Y12351D01*
X6983Y12361D01*
X7033Y12380D01*
X7078Y12409D01*
X7117Y12446D01*
X7148Y12490D01*
X7170Y12539D01*
X7182Y12591D01*
X7183Y12652D01*
X7183Y12181D01*
X7158Y12198D01*
X7108Y12219D01*
X7056Y12230D01*
X7002Y12230D01*
X6949Y12220D01*
X6900Y12200D01*
X6855Y12170D01*
X6816Y12133D01*
X6786Y12089D01*
X6765Y12039D01*
X6754Y11987D01*
X6753Y11933D01*
X6763Y11880D01*
X6783Y11831D01*
X6812Y11785D01*
X6849Y11747D01*
X6893Y11716D01*
X6942Y11695D01*
X6995Y11683D01*
X7048Y11682D01*
X7101Y11691D01*
X7151Y11711D01*
X7196Y11740D01*
X7235Y11777D01*
X7266Y11820D01*
X7288Y11869D01*
X7300Y11922D01*
X7301Y11983D01*
X7301Y11559D01*
X7270Y11546D01*
X7225Y11517D01*
X7187Y11479D01*
X7156Y11435D01*
X7135Y11386D01*
X7124Y11333D01*
X7123Y11280D01*
X7133Y11227D01*
X7153Y11177D01*
X7182Y11132D01*
X7219Y11093D01*
X7263Y11063D01*
X7312Y11041D01*
X7365Y11030D01*
X7418Y11029D01*
X7471Y11038D01*
X7521Y11057D01*
X7566Y11086D01*
X7605Y11123D01*
X7636Y11167D01*
X7658Y11216D01*
X7670Y11268D01*
X7671Y11329D01*
X7671Y10082D01*
X7631Y10074D01*
X7604Y10064D01*
X7604Y10448D01*
X7593Y10500D01*
X7573Y10550D01*
X7543Y10595D01*
X7505Y10633D01*
X7461Y10663D01*
X7412Y10683D01*
X7359Y10694D01*
X7305Y10695D01*
X7253Y10685D01*
X7203Y10664D01*
X7158Y10635D01*
X7120Y10597D01*
X7089Y10553D01*
X7068Y10504D01*
X7057Y10451D01*
X7056Y10398D01*
X7066Y10345D01*
X7086Y10295D01*
X7115Y10250D01*
X7152Y10211D01*
X7196Y10181D01*
X7245Y10159D01*
X7298Y10148D01*
X7351Y10147D01*
X7404Y10156D01*
X7454Y10175D01*
X7499Y10204D01*
X7538Y10241D01*
X7569Y10285D01*
X7591Y10334D01*
X7603Y10386D01*
X7604Y10448D01*
X7604Y10064D01*
X7581Y10054D01*
X7536Y10025D01*
X7498Y9987D01*
X7467Y9943D01*
X7446Y9894D01*
X7435Y9841D01*
X7434Y9788D01*
X7444Y9735D01*
X7464Y9685D01*
X7493Y9640D01*
X7530Y9601D01*
X7574Y9571D01*
X7623Y9549D01*
X7676Y9538D01*
X7729Y9536D01*
X7782Y9546D01*
X7832Y9565D01*
X7877Y9594D01*
X7916Y9631D01*
X7947Y9675D01*
X7969Y9724D01*
X7981Y9776D01*
X7982Y9837D01*
X7982Y7737D01*
X7978Y7739D01*
X7926Y7749D01*
X7872Y7750D01*
X7820Y7740D01*
X7770Y7720D01*
X7725Y7690D01*
X7687Y7653D01*
X7656Y7608D01*
X7635Y7559D01*
X7624Y7507D01*
X7623Y7453D01*
X7633Y7400D01*
X7653Y7350D01*
X7682Y7305D01*
X7719Y7266D01*
X7763Y7236D01*
X7812Y7214D01*
X7865Y7203D01*
X7918Y7202D01*
X7971Y7211D01*
X8021Y7230D01*
X8066Y7259D01*
X8105Y7296D01*
X8136Y7340D01*
X8158Y7389D01*
X8170Y7441D01*
X8171Y7503D01*
X8171Y4372D01*
X7864Y4372D01*
X7864Y6196D01*
X7853Y6248D01*
X7833Y6298D01*
X7803Y6343D01*
X7765Y6381D01*
X7721Y6411D01*
X7671Y6431D01*
X7619Y6442D01*
X7565Y6443D01*
X7512Y6433D01*
X7463Y6412D01*
X7418Y6383D01*
X7379Y6346D01*
X7349Y6301D01*
X7340Y6280D01*
X7340Y9739D01*
X7330Y9792D01*
X7309Y9841D01*
X7279Y9886D01*
X7242Y9924D01*
X7197Y9954D01*
X7148Y9975D01*
X7095Y9986D01*
X7042Y9986D01*
X6989Y9976D01*
X6939Y9956D01*
X6894Y9926D01*
X6856Y9889D01*
X6825Y9845D01*
X6804Y9795D01*
X6793Y9743D01*
X6792Y9689D01*
X6802Y9636D01*
X6822Y9586D01*
X6851Y9541D01*
X6888Y9503D01*
X6932Y9472D01*
X6981Y9451D01*
X7034Y9439D01*
X7088Y9438D01*
X7140Y9447D01*
X7190Y9467D01*
X7236Y9495D01*
X7275Y9532D01*
X7305Y9576D01*
X7327Y9625D01*
X7339Y9678D01*
X7340Y9739D01*
X7340Y6280D01*
X7328Y6252D01*
X7317Y6199D01*
X7316Y6146D01*
X7326Y6093D01*
X7346Y6043D01*
X7375Y5998D01*
X7412Y5959D01*
X7456Y5929D01*
X7505Y5907D01*
X7557Y5896D01*
X7611Y5895D01*
X7664Y5904D01*
X7714Y5923D01*
X7759Y5952D01*
X7798Y5989D01*
X7829Y6033D01*
X7851Y6082D01*
X7863Y6134D01*
X7864Y6196D01*
X7864Y4372D01*
X7204Y4372D01*
X6919Y4657D01*
X6919Y5865D01*
X6908Y5918D01*
X6888Y5967D01*
X6858Y6012D01*
X6820Y6050D01*
X6776Y6080D01*
X6726Y6101D01*
X6674Y6112D01*
X6620Y6112D01*
X6568Y6102D01*
X6518Y6082D01*
X6473Y6052D01*
X6435Y6015D01*
X6404Y5971D01*
X6383Y5921D01*
X6372Y5869D01*
X6371Y5815D01*
X6381Y5762D01*
X6401Y5712D01*
X6430Y5667D01*
X6467Y5629D01*
X6511Y5598D01*
X6560Y5577D01*
X6613Y5565D01*
X6666Y5564D01*
X6719Y5573D01*
X6769Y5593D01*
X6814Y5621D01*
X6853Y5658D01*
X6884Y5702D01*
X6906Y5751D01*
X6918Y5804D01*
X6919Y5865D01*
X6919Y4657D01*
X6351Y5225D01*
X6356Y5272D01*
X6348Y5356D01*
X6324Y5437D01*
X6285Y5511D01*
X6233Y5577D01*
X6168Y5631D01*
X6155Y5638D01*
X6155Y8361D01*
X6145Y8414D01*
X6124Y8463D01*
X6094Y8508D01*
X6057Y8546D01*
X6012Y8576D01*
X6010Y8577D01*
X6020Y8623D01*
X6021Y8684D01*
X6011Y8736D01*
X5990Y8786D01*
X5961Y8831D01*
X5923Y8869D01*
X5878Y8899D01*
X5829Y8920D01*
X5776Y8930D01*
X5723Y8931D01*
X5706Y8928D01*
X5706Y10381D01*
X5696Y10433D01*
X5675Y10483D01*
X5646Y10528D01*
X5608Y10566D01*
X5563Y10596D01*
X5514Y10616D01*
X5461Y10627D01*
X5408Y10628D01*
X5387Y10624D01*
X5387Y15062D01*
X5377Y15114D01*
X5356Y15164D01*
X5327Y15209D01*
X5289Y15247D01*
X5261Y15265D01*
X5261Y23440D01*
X5249Y23500D01*
X5226Y23557D01*
X5192Y23608D01*
X5149Y23651D01*
X5098Y23686D01*
X5041Y23709D01*
X4981Y23722D01*
X4920Y23722D01*
X4860Y23711D01*
X4803Y23688D01*
X4751Y23654D01*
X4707Y23611D01*
X4673Y23560D01*
X4649Y23504D01*
X4636Y23444D01*
X4635Y23383D01*
X4646Y23322D01*
X4669Y23265D01*
X4702Y23214D01*
X4744Y23169D01*
X4795Y23134D01*
X4851Y23110D01*
X4911Y23097D01*
X4972Y23095D01*
X5033Y23106D01*
X5090Y23128D01*
X5142Y23161D01*
X5186Y23203D01*
X5222Y23254D01*
X5247Y23310D01*
X5260Y23370D01*
X5261Y23440D01*
X5261Y15265D01*
X5244Y15277D01*
X5195Y15298D01*
X5142Y15308D01*
X5089Y15309D01*
X5036Y15299D01*
X5001Y15285D01*
X5001Y16991D01*
X4991Y17044D01*
X4971Y17093D01*
X4941Y17138D01*
X4903Y17176D01*
X4859Y17206D01*
X4818Y17223D01*
X4823Y17249D01*
X4824Y17310D01*
X4814Y17362D01*
X4793Y17412D01*
X4764Y17457D01*
X4726Y17495D01*
X4715Y17502D01*
X4743Y17529D01*
X4774Y17572D01*
X4796Y17621D01*
X4808Y17674D01*
X4809Y17735D01*
X4798Y17788D01*
X4778Y17837D01*
X4748Y17882D01*
X4710Y17920D01*
X4666Y17950D01*
X4616Y17971D01*
X4564Y17982D01*
X4510Y17982D01*
X4457Y17972D01*
X4408Y17952D01*
X4363Y17922D01*
X4355Y17915D01*
X4350Y17921D01*
X4313Y17959D01*
X4268Y17989D01*
X4219Y18010D01*
X4166Y18021D01*
X4112Y18021D01*
X4060Y18011D01*
X4029Y17999D01*
X4029Y21747D01*
X4019Y21799D01*
X3998Y21849D01*
X3968Y21894D01*
X3931Y21932D01*
X3886Y21962D01*
X3837Y21983D01*
X3784Y21993D01*
X3730Y21994D01*
X3678Y21984D01*
X3628Y21964D01*
X3583Y21934D01*
X3545Y21897D01*
X3514Y21852D01*
X3493Y21803D01*
X3482Y21751D01*
X3481Y21697D01*
X3491Y21644D01*
X3511Y21594D01*
X3540Y21549D01*
X3577Y21511D01*
X3621Y21480D01*
X3670Y21458D01*
X3723Y21447D01*
X3776Y21446D01*
X3829Y21455D01*
X3879Y21475D01*
X3925Y21503D01*
X3964Y21540D01*
X3994Y21584D01*
X4016Y21633D01*
X4028Y21686D01*
X4029Y21747D01*
X4029Y17999D01*
X4010Y17991D01*
X3965Y17962D01*
X3952Y17949D01*
X3945Y17961D01*
X3907Y17999D01*
X3863Y18029D01*
X3813Y18050D01*
X3761Y18060D01*
X3707Y18061D01*
X3675Y18055D01*
X3675Y21034D01*
X3664Y21087D01*
X3644Y21136D01*
X3614Y21181D01*
X3576Y21219D01*
X3532Y21249D01*
X3482Y21270D01*
X3430Y21281D01*
X3376Y21281D01*
X3323Y21271D01*
X3274Y21251D01*
X3229Y21222D01*
X3226Y21219D01*
X3198Y21247D01*
X3154Y21277D01*
X3104Y21298D01*
X3052Y21308D01*
X2998Y21309D01*
X2945Y21299D01*
X2896Y21279D01*
X2851Y21249D01*
X2813Y21212D01*
X2782Y21167D01*
X2761Y21118D01*
X2750Y21066D01*
X2749Y21012D01*
X2759Y20959D01*
X2779Y20909D01*
X2808Y20864D01*
X2845Y20826D01*
X2889Y20795D01*
X2938Y20773D01*
X2991Y20762D01*
X3044Y20761D01*
X3097Y20770D01*
X3147Y20790D01*
X3192Y20818D01*
X3198Y20824D01*
X3223Y20798D01*
X3267Y20767D01*
X3316Y20746D01*
X3369Y20734D01*
X3422Y20733D01*
X3475Y20743D01*
X3525Y20762D01*
X3570Y20791D01*
X3609Y20828D01*
X3640Y20872D01*
X3662Y20921D01*
X3674Y20973D01*
X3675Y21034D01*
X3675Y18055D01*
X3654Y18051D01*
X3604Y18031D01*
X3560Y18001D01*
X3521Y17964D01*
X3491Y17919D01*
X3470Y17870D01*
X3459Y17818D01*
X3458Y17764D01*
X3467Y17711D01*
X3487Y17661D01*
X3516Y17616D01*
X3554Y17578D01*
X3598Y17547D01*
X3647Y17525D01*
X3699Y17514D01*
X3753Y17513D01*
X3806Y17522D01*
X3856Y17541D01*
X3901Y17570D01*
X3917Y17585D01*
X3922Y17577D01*
X3959Y17538D01*
X4003Y17508D01*
X4052Y17486D01*
X4105Y17475D01*
X4158Y17473D01*
X4211Y17483D01*
X4261Y17502D01*
X4307Y17531D01*
X4317Y17541D01*
X4319Y17537D01*
X4357Y17499D01*
X4370Y17489D01*
X4340Y17460D01*
X4310Y17415D01*
X4289Y17366D01*
X4277Y17314D01*
X4277Y17260D01*
X4286Y17207D01*
X4306Y17157D01*
X4335Y17112D01*
X4372Y17074D01*
X4417Y17043D01*
X4461Y17024D01*
X4455Y16995D01*
X4454Y16941D01*
X4464Y16888D01*
X4483Y16838D01*
X4512Y16793D01*
X4550Y16755D01*
X4594Y16724D01*
X4643Y16703D01*
X4695Y16691D01*
X4749Y16690D01*
X4802Y16699D01*
X4852Y16719D01*
X4897Y16747D01*
X4936Y16784D01*
X4967Y16828D01*
X4989Y16877D01*
X5001Y16930D01*
X5001Y16991D01*
X5001Y15285D01*
X4986Y15279D01*
X4941Y15249D01*
X4903Y15212D01*
X4873Y15167D01*
X4852Y15118D01*
X4840Y15066D01*
X4840Y15012D01*
X4849Y14959D01*
X4858Y14938D01*
X4813Y14920D01*
X4768Y14891D01*
X4730Y14853D01*
X4700Y14809D01*
X4678Y14760D01*
X4667Y14707D01*
X4666Y14654D01*
X4676Y14601D01*
X4696Y14551D01*
X4725Y14506D01*
X4762Y14467D01*
X4806Y14437D01*
X4855Y14415D01*
X4908Y14404D01*
X4962Y14403D01*
X5014Y14412D01*
X5064Y14431D01*
X5110Y14460D01*
X5149Y14497D01*
X5180Y14541D01*
X5201Y14590D01*
X5213Y14642D01*
X5214Y14703D01*
X5204Y14756D01*
X5196Y14774D01*
X5238Y14790D01*
X5283Y14818D01*
X5322Y14855D01*
X5353Y14899D01*
X5375Y14948D01*
X5386Y15000D01*
X5387Y15062D01*
X5387Y10624D01*
X5355Y10618D01*
X5305Y10597D01*
X5260Y10568D01*
X5222Y10531D01*
X5192Y10486D01*
X5170Y10437D01*
X5159Y10384D01*
X5159Y10331D01*
X5168Y10278D01*
X5188Y10228D01*
X5217Y10183D01*
X5254Y10144D01*
X5298Y10114D01*
X5348Y10092D01*
X5400Y10081D01*
X5454Y10080D01*
X5507Y10089D01*
X5557Y10108D01*
X5602Y10137D01*
X5641Y10174D01*
X5672Y10218D01*
X5693Y10267D01*
X5705Y10319D01*
X5706Y10381D01*
X5706Y8928D01*
X5670Y8921D01*
X5620Y8901D01*
X5575Y8871D01*
X5537Y8834D01*
X5507Y8789D01*
X5485Y8740D01*
X5474Y8688D01*
X5474Y8634D01*
X5483Y8581D01*
X5503Y8531D01*
X5532Y8486D01*
X5569Y8448D01*
X5613Y8417D01*
X5619Y8415D01*
X5608Y8365D01*
X5607Y8311D01*
X5617Y8258D01*
X5637Y8208D01*
X5666Y8163D01*
X5703Y8125D01*
X5747Y8094D01*
X5796Y8073D01*
X5849Y8061D01*
X5902Y8060D01*
X5955Y8069D01*
X6005Y8089D01*
X6051Y8117D01*
X6090Y8154D01*
X6120Y8198D01*
X6142Y8247D01*
X6154Y8300D01*
X6155Y8361D01*
X6155Y5638D01*
X6095Y5671D01*
X6014Y5697D01*
X5931Y5706D01*
X5925Y5706D01*
X4994Y5706D01*
X4994Y14160D01*
X4983Y14213D01*
X4963Y14262D01*
X4933Y14307D01*
X4895Y14345D01*
X4851Y14375D01*
X4801Y14396D01*
X4749Y14407D01*
X4695Y14407D01*
X4642Y14397D01*
X4593Y14377D01*
X4548Y14348D01*
X4509Y14310D01*
X4479Y14266D01*
X4458Y14216D01*
X4447Y14164D01*
X4446Y14110D01*
X4456Y14058D01*
X4475Y14008D01*
X4504Y13963D01*
X4542Y13924D01*
X4586Y13893D01*
X4635Y13872D01*
X4687Y13860D01*
X4741Y13859D01*
X4794Y13869D01*
X4844Y13888D01*
X4889Y13917D01*
X4928Y13954D01*
X4959Y13998D01*
X4981Y14047D01*
X4993Y14099D01*
X4994Y14160D01*
X4994Y5706D01*
X4505Y5706D01*
X4505Y8814D01*
X4495Y8866D01*
X4475Y8916D01*
X4445Y8961D01*
X4407Y8999D01*
X4375Y9020D01*
X4375Y15849D01*
X4365Y15902D01*
X4345Y15951D01*
X4315Y15996D01*
X4277Y16034D01*
X4233Y16064D01*
X4183Y16085D01*
X4131Y16096D01*
X4077Y16096D01*
X4024Y16086D01*
X3974Y16066D01*
X3930Y16037D01*
X3891Y15999D01*
X3861Y15955D01*
X3840Y15905D01*
X3829Y15853D01*
X3828Y15799D01*
X3838Y15747D01*
X3857Y15697D01*
X3886Y15652D01*
X3924Y15613D01*
X3968Y15582D01*
X4017Y15561D01*
X4069Y15549D01*
X4123Y15548D01*
X4176Y15558D01*
X4226Y15577D01*
X4271Y15606D01*
X4310Y15643D01*
X4341Y15687D01*
X4363Y15736D01*
X4375Y15788D01*
X4375Y15849D01*
X4375Y9020D01*
X4363Y9029D01*
X4313Y9050D01*
X4261Y9060D01*
X4207Y9061D01*
X4154Y9051D01*
X4104Y9031D01*
X4060Y9001D01*
X4021Y8964D01*
X3991Y8919D01*
X3970Y8870D01*
X3966Y8853D01*
X3966Y14637D01*
X3956Y14689D01*
X3935Y14739D01*
X3905Y14784D01*
X3868Y14822D01*
X3823Y14852D01*
X3774Y14872D01*
X3721Y14883D01*
X3667Y14884D01*
X3615Y14873D01*
X3565Y14853D01*
X3520Y14824D01*
X3482Y14786D01*
X3451Y14742D01*
X3430Y14693D01*
X3419Y14640D01*
X3418Y14587D01*
X3428Y14534D01*
X3448Y14484D01*
X3477Y14439D01*
X3514Y14400D01*
X3558Y14370D01*
X3607Y14348D01*
X3660Y14337D01*
X3714Y14336D01*
X3766Y14345D01*
X3816Y14364D01*
X3862Y14393D01*
X3901Y14430D01*
X3931Y14474D01*
X3953Y14523D01*
X3965Y14575D01*
X3966Y14637D01*
X3966Y8853D01*
X3959Y8818D01*
X3958Y8764D01*
X3967Y8711D01*
X3987Y8661D01*
X4016Y8616D01*
X4054Y8578D01*
X4098Y8547D01*
X4147Y8525D01*
X4199Y8514D01*
X4253Y8513D01*
X4306Y8522D01*
X4356Y8541D01*
X4401Y8570D01*
X4440Y8607D01*
X4471Y8651D01*
X4493Y8700D01*
X4505Y8752D01*
X4505Y8814D01*
X4505Y5706D01*
X4064Y5706D01*
X4064Y7137D01*
X4054Y7189D01*
X4034Y7239D01*
X4004Y7284D01*
X3966Y7322D01*
X3922Y7352D01*
X3872Y7372D01*
X3820Y7383D01*
X3766Y7384D01*
X3713Y7373D01*
X3663Y7353D01*
X3619Y7324D01*
X3580Y7286D01*
X3550Y7242D01*
X3529Y7193D01*
X3518Y7140D01*
X3517Y7087D01*
X3527Y7034D01*
X3538Y7005D01*
X3508Y7025D01*
X3459Y7046D01*
X3406Y7056D01*
X3353Y7057D01*
X3300Y7047D01*
X3250Y7027D01*
X3205Y6997D01*
X3167Y6960D01*
X3137Y6915D01*
X3115Y6866D01*
X3104Y6814D01*
X3103Y6760D01*
X3113Y6707D01*
X3133Y6657D01*
X3162Y6612D01*
X3199Y6574D01*
X3243Y6543D01*
X3292Y6521D01*
X3345Y6510D01*
X3399Y6509D01*
X3451Y6518D01*
X3501Y6538D01*
X3547Y6566D01*
X3586Y6603D01*
X3617Y6647D01*
X3638Y6696D01*
X3650Y6749D01*
X3651Y6810D01*
X3641Y6862D01*
X3630Y6888D01*
X3657Y6870D01*
X3706Y6848D01*
X3758Y6837D01*
X3812Y6836D01*
X3865Y6845D01*
X3915Y6864D01*
X3960Y6893D01*
X3999Y6930D01*
X4030Y6974D01*
X4052Y7023D01*
X4064Y7075D01*
X4064Y7137D01*
X4064Y5706D01*
X3531Y5706D01*
X3491Y5702D01*
X3452Y5699D01*
X3450Y5698D01*
X3447Y5698D01*
X3409Y5686D01*
X3371Y5675D01*
X3369Y5674D01*
X3367Y5674D01*
X3332Y5655D01*
X3296Y5637D01*
X3294Y5635D01*
X3292Y5634D01*
X3262Y5609D01*
X3230Y5584D01*
X3227Y5581D01*
X3227Y5581D01*
X3227Y5581D01*
X3226Y5580D01*
X3017Y5371D01*
X3017Y20585D01*
X3007Y20638D01*
X2986Y20688D01*
X2957Y20732D01*
X2919Y20770D01*
X2874Y20800D01*
X2825Y20821D01*
X2772Y20832D01*
X2719Y20832D01*
X2666Y20822D01*
X2616Y20802D01*
X2571Y20773D01*
X2533Y20735D01*
X2503Y20691D01*
X2482Y20642D01*
X2470Y20589D01*
X2470Y20536D01*
X2479Y20483D01*
X2499Y20433D01*
X2528Y20388D01*
X2565Y20349D01*
X2609Y20319D01*
X2659Y20297D01*
X2711Y20286D01*
X2765Y20284D01*
X2818Y20294D01*
X2868Y20313D01*
X2913Y20342D01*
X2952Y20379D01*
X2983Y20423D01*
X3004Y20472D01*
X3016Y20524D01*
X3017Y20585D01*
X3017Y5371D01*
X2816Y5170D01*
X2816Y11170D01*
X2804Y11234D01*
X2779Y11294D01*
X2743Y11349D01*
X2697Y11395D01*
X2645Y11430D01*
X2663Y11454D01*
X2688Y11510D01*
X2701Y11570D01*
X2702Y11640D01*
X2690Y11701D01*
X2667Y11757D01*
X2633Y11809D01*
X2590Y11852D01*
X2539Y11886D01*
X2482Y11910D01*
X2422Y11923D01*
X2361Y11923D01*
X2300Y11911D01*
X2277Y11902D01*
X2277Y21684D01*
X2267Y21736D01*
X2246Y21786D01*
X2217Y21831D01*
X2194Y21853D01*
X2194Y22751D01*
X2184Y22803D01*
X2164Y22853D01*
X2134Y22898D01*
X2096Y22936D01*
X2052Y22966D01*
X2002Y22987D01*
X1949Y22997D01*
X1896Y22998D01*
X1843Y22988D01*
X1793Y22968D01*
X1748Y22938D01*
X1710Y22901D01*
X1680Y22856D01*
X1659Y22807D01*
X1648Y22755D01*
X1647Y22701D01*
X1656Y22648D01*
X1676Y22598D01*
X1705Y22553D01*
X1743Y22515D01*
X1787Y22484D01*
X1836Y22462D01*
X1888Y22451D01*
X1942Y22450D01*
X1995Y22459D01*
X2045Y22478D01*
X2090Y22507D01*
X2129Y22544D01*
X2160Y22588D01*
X2182Y22637D01*
X2194Y22689D01*
X2194Y22751D01*
X2194Y21853D01*
X2179Y21869D01*
X2134Y21899D01*
X2085Y21920D01*
X2032Y21930D01*
X1979Y21931D01*
X1926Y21921D01*
X1876Y21901D01*
X1831Y21871D01*
X1793Y21834D01*
X1763Y21789D01*
X1741Y21740D01*
X1730Y21688D01*
X1729Y21634D01*
X1731Y21626D01*
X1705Y21631D01*
X1652Y21632D01*
X1599Y21622D01*
X1549Y21601D01*
X1513Y21578D01*
X1513Y23126D01*
X1492Y23236D01*
X1449Y23339D01*
X1387Y23432D01*
X1309Y23511D01*
X1216Y23573D01*
X1113Y23616D01*
X1004Y23639D01*
X893Y23640D01*
X783Y23619D01*
X680Y23577D01*
X586Y23516D01*
X506Y23438D01*
X443Y23346D01*
X399Y23243D01*
X376Y23134D01*
X375Y23023D01*
X395Y22913D01*
X436Y22809D01*
X496Y22715D01*
X574Y22635D01*
X665Y22571D01*
X768Y22527D01*
X877Y22503D01*
X988Y22500D01*
X1098Y22520D01*
X1202Y22560D01*
X1296Y22620D01*
X1377Y22697D01*
X1441Y22788D01*
X1487Y22890D01*
X1512Y22999D01*
X1513Y23126D01*
X1513Y21578D01*
X1504Y21572D01*
X1466Y21534D01*
X1436Y21490D01*
X1415Y21441D01*
X1403Y21388D01*
X1403Y21335D01*
X1412Y21282D01*
X1432Y21232D01*
X1461Y21187D01*
X1498Y21148D01*
X1543Y21118D01*
X1592Y21096D01*
X1644Y21085D01*
X1698Y21084D01*
X1751Y21093D01*
X1801Y21112D01*
X1846Y21141D01*
X1885Y21178D01*
X1916Y21222D01*
X1938Y21271D01*
X1949Y21323D01*
X1950Y21385D01*
X1949Y21389D01*
X1971Y21384D01*
X2025Y21383D01*
X2077Y21392D01*
X2127Y21412D01*
X2173Y21440D01*
X2212Y21477D01*
X2243Y21521D01*
X2264Y21570D01*
X2276Y21623D01*
X2277Y21684D01*
X2277Y11902D01*
X2244Y11888D01*
X2192Y11855D01*
X2148Y11812D01*
X2114Y11761D01*
X2089Y11705D01*
X2077Y11645D01*
X2076Y11583D01*
X2087Y11523D01*
X2109Y11466D01*
X2088Y11464D01*
X2086Y11464D01*
X2084Y11464D01*
X2055Y11455D01*
X2026Y11446D01*
X2024Y11445D01*
X2022Y11445D01*
X1995Y11430D01*
X1968Y11416D01*
X1967Y11415D01*
X1965Y11414D01*
X1941Y11395D01*
X1917Y11376D01*
X1915Y11373D01*
X1915Y11373D01*
X1915Y11373D01*
X1914Y11373D01*
X1466Y10925D01*
X1466Y14770D01*
X1456Y14823D01*
X1435Y14873D01*
X1415Y14903D01*
X1415Y20940D01*
X1401Y21007D01*
X1375Y21071D01*
X1337Y21129D01*
X1288Y21178D01*
X1231Y21216D01*
X1167Y21243D01*
X1100Y21257D01*
X1030Y21258D01*
X963Y21245D01*
X898Y21219D01*
X841Y21181D01*
X791Y21133D01*
X752Y21076D01*
X725Y21012D01*
X711Y20944D01*
X710Y20875D01*
X722Y20807D01*
X748Y20743D01*
X785Y20685D01*
X833Y20635D01*
X890Y20596D01*
X953Y20568D01*
X1021Y20553D01*
X1090Y20552D01*
X1158Y20564D01*
X1222Y20589D01*
X1280Y20626D01*
X1331Y20674D01*
X1370Y20730D01*
X1398Y20793D01*
X1414Y20861D01*
X1415Y20940D01*
X1415Y14903D01*
X1405Y14917D01*
X1391Y14932D01*
X1391Y19723D01*
X1381Y19776D01*
X1360Y19825D01*
X1331Y19870D01*
X1293Y19908D01*
X1248Y19938D01*
X1199Y19959D01*
X1146Y19970D01*
X1093Y19970D01*
X1040Y19960D01*
X990Y19940D01*
X945Y19911D01*
X907Y19873D01*
X877Y19829D01*
X856Y19779D01*
X844Y19727D01*
X844Y19673D01*
X853Y19621D01*
X873Y19571D01*
X902Y19526D01*
X939Y19487D01*
X983Y19456D01*
X1033Y19435D01*
X1085Y19423D01*
X1139Y19422D01*
X1192Y19432D01*
X1242Y19451D01*
X1287Y19480D01*
X1326Y19517D01*
X1357Y19561D01*
X1379Y19610D01*
X1390Y19662D01*
X1391Y19723D01*
X1391Y14932D01*
X1368Y14955D01*
X1332Y14979D01*
X1332Y18306D01*
X1322Y18358D01*
X1301Y18408D01*
X1272Y18453D01*
X1234Y18491D01*
X1189Y18521D01*
X1140Y18542D01*
X1087Y18552D01*
X1034Y18553D01*
X981Y18543D01*
X931Y18523D01*
X886Y18493D01*
X848Y18456D01*
X818Y18411D01*
X796Y18362D01*
X785Y18310D01*
X785Y18256D01*
X794Y18203D01*
X814Y18153D01*
X843Y18108D01*
X880Y18070D01*
X924Y18039D01*
X974Y18018D01*
X1026Y18006D01*
X1080Y18005D01*
X1132Y18014D01*
X1183Y18034D01*
X1228Y18062D01*
X1267Y18099D01*
X1298Y18143D01*
X1319Y18192D01*
X1331Y18245D01*
X1332Y18306D01*
X1332Y14979D01*
X1323Y14985D01*
X1274Y15006D01*
X1221Y15017D01*
X1167Y15017D01*
X1115Y15007D01*
X1065Y14987D01*
X1020Y14958D01*
X982Y14920D01*
X951Y14876D01*
X930Y14827D01*
X919Y14774D01*
X918Y14721D01*
X928Y14668D01*
X948Y14618D01*
X977Y14573D01*
X1014Y14534D01*
X1058Y14504D01*
X1107Y14482D01*
X1160Y14471D01*
X1214Y14469D01*
X1266Y14479D01*
X1316Y14498D01*
X1362Y14527D01*
X1401Y14564D01*
X1431Y14608D01*
X1453Y14657D01*
X1465Y14709D01*
X1466Y14770D01*
X1466Y10925D01*
X883Y10342D01*
X883Y15605D01*
X873Y15658D01*
X852Y15707D01*
X823Y15752D01*
X785Y15790D01*
X741Y15820D01*
X691Y15841D01*
X638Y15852D01*
X585Y15852D01*
X532Y15842D01*
X482Y15822D01*
X437Y15793D01*
X399Y15755D01*
X369Y15711D01*
X348Y15661D01*
X337Y15609D01*
X336Y15555D01*
X345Y15502D01*
X365Y15453D01*
X394Y15407D01*
X432Y15369D01*
X476Y15338D01*
X525Y15317D01*
X577Y15305D01*
X631Y15304D01*
X684Y15313D01*
X734Y15333D01*
X779Y15362D01*
X818Y15399D01*
X849Y15442D01*
X871Y15491D01*
X883Y15544D01*
X883Y15605D01*
X883Y10342D01*
X485Y9943D01*
X465Y9920D01*
X445Y9896D01*
X445Y9895D01*
X444Y9893D01*
X429Y9866D01*
X414Y9839D01*
X414Y9838D01*
X413Y9836D01*
X404Y9807D01*
X395Y9777D01*
X394Y9776D01*
X394Y9774D01*
X391Y9743D01*
X387Y9713D01*
X387Y9709D01*
X387Y9709D01*
X387Y9709D01*
X387Y9708D01*
X387Y4168D01*
X387Y4137D01*
X387Y4134D01*
X387Y4043D01*
X394Y3978D01*
X412Y3916D01*
X443Y3859D01*
X484Y3808D01*
X534Y3767D01*
X591Y3736D01*
X653Y3717D01*
X718Y3710D01*
X782Y3716D01*
X845Y3734D01*
X902Y3764D01*
X953Y3805D01*
X994Y3855D01*
X1026Y3912D01*
X1045Y3974D01*
X1053Y4038D01*
X1053Y4043D01*
X1053Y4165D01*
X1053Y4196D01*
X1053Y4197D01*
X1053Y4198D01*
X1053Y7198D01*
X1096Y7179D01*
X1148Y7167D01*
X1202Y7166D01*
X1255Y7176D01*
X1305Y7195D01*
X1350Y7224D01*
X1389Y7261D01*
X1420Y7305D01*
X1441Y7354D01*
X1453Y7406D01*
X1454Y7467D01*
X1444Y7520D01*
X1423Y7570D01*
X1394Y7614D01*
X1356Y7652D01*
X1311Y7682D01*
X1262Y7703D01*
X1209Y7714D01*
X1156Y7714D01*
X1103Y7704D01*
X1053Y7684D01*
X1053Y7684D01*
X1053Y8551D01*
X1061Y8542D01*
X1106Y8511D01*
X1155Y8490D01*
X1207Y8478D01*
X1261Y8477D01*
X1314Y8487D01*
X1364Y8506D01*
X1409Y8535D01*
X1448Y8572D01*
X1479Y8616D01*
X1501Y8665D01*
X1512Y8717D01*
X1513Y8778D01*
X1503Y8831D01*
X1482Y8881D01*
X1453Y8925D01*
X1415Y8963D01*
X1370Y8993D01*
X1321Y9014D01*
X1268Y9025D01*
X1215Y9025D01*
X1162Y9015D01*
X1112Y8995D01*
X1067Y8966D01*
X1053Y8951D01*
X1053Y9570D01*
X2287Y10805D01*
X2480Y10805D01*
X2509Y10804D01*
X2574Y10815D01*
X2634Y10839D01*
X2690Y10874D01*
X2737Y10919D01*
X2774Y10972D01*
X2801Y11032D01*
X2815Y11095D01*
X2816Y11130D01*
X2816Y11135D01*
X2816Y11139D01*
X2816Y11170D01*
X2816Y5170D01*
X1974Y4328D01*
X1974Y6530D01*
X1963Y6583D01*
X1943Y6633D01*
X1913Y6677D01*
X1876Y6715D01*
X1831Y6745D01*
X1782Y6766D01*
X1750Y6773D01*
X1750Y9290D01*
X1739Y9343D01*
X1719Y9392D01*
X1689Y9437D01*
X1651Y9475D01*
X1607Y9505D01*
X1557Y9526D01*
X1505Y9537D01*
X1451Y9537D01*
X1398Y9527D01*
X1348Y9507D01*
X1304Y9478D01*
X1265Y9440D01*
X1235Y9396D01*
X1214Y9346D01*
X1203Y9294D01*
X1202Y9240D01*
X1212Y9187D01*
X1231Y9138D01*
X1260Y9092D01*
X1298Y9054D01*
X1342Y9023D01*
X1391Y9002D01*
X1443Y8990D01*
X1497Y8989D01*
X1550Y8998D01*
X1600Y9018D01*
X1645Y9047D01*
X1684Y9084D01*
X1715Y9127D01*
X1737Y9176D01*
X1749Y9229D01*
X1750Y9290D01*
X1750Y6773D01*
X1729Y6777D01*
X1675Y6777D01*
X1623Y6767D01*
X1573Y6747D01*
X1528Y6718D01*
X1490Y6680D01*
X1459Y6636D01*
X1438Y6587D01*
X1427Y6534D01*
X1426Y6480D01*
X1436Y6428D01*
X1456Y6378D01*
X1485Y6333D01*
X1522Y6294D01*
X1566Y6263D01*
X1615Y6242D01*
X1668Y6230D01*
X1721Y6229D01*
X1774Y6239D01*
X1824Y6258D01*
X1870Y6287D01*
X1908Y6324D01*
X1939Y6368D01*
X1961Y6417D01*
X1973Y6469D01*
X1974Y6530D01*
X1974Y4328D01*
X1174Y3528D01*
X1145Y3526D01*
X1142Y3525D01*
X1140Y3525D01*
X1102Y3513D01*
X1064Y3502D01*
X1062Y3501D01*
X1060Y3500D01*
X1024Y3482D01*
X989Y3463D01*
X987Y3462D01*
X985Y3461D01*
X954Y3436D01*
X923Y3411D01*
X920Y3408D01*
X920Y3408D01*
X920Y3408D01*
X919Y3407D01*
X868Y3356D01*
X653Y3356D01*
X622Y3353D01*
X592Y3350D01*
X590Y3350D01*
X588Y3349D01*
X559Y3341D01*
X529Y3332D01*
X528Y3331D01*
X526Y3331D01*
X499Y3316D01*
X472Y3302D01*
X470Y3301D01*
X469Y3300D01*
X445Y3281D01*
X421Y3262D01*
X419Y3259D01*
X419Y3259D01*
X419Y3259D01*
X418Y3258D01*
X259Y3099D01*
X236Y3077D01*
X199Y3023D01*
X173Y2963D01*
X159Y2899D01*
X159Y2834D01*
X170Y2770D01*
X194Y2709D01*
X230Y2654D01*
X275Y2607D01*
X329Y2570D01*
X388Y2544D01*
X452Y2530D01*
X517Y2528D01*
X582Y2540D01*
X642Y2563D01*
X697Y2598D01*
X745Y2643D01*
X747Y2647D01*
X791Y2690D01*
X874Y2690D01*
X903Y2667D01*
X977Y2626D01*
X1057Y2601D01*
X1141Y2592D01*
X1224Y2599D01*
X1305Y2623D01*
X1380Y2662D01*
X1396Y2675D01*
X1397Y2675D01*
X1437Y2678D01*
X1439Y2679D01*
X1442Y2679D01*
X1480Y2690D01*
X1518Y2702D01*
X1520Y2703D01*
X1522Y2703D01*
X1557Y2722D01*
X1593Y2740D01*
X1594Y2742D01*
X1596Y2743D01*
X1627Y2768D01*
X1658Y2793D01*
X1661Y2796D01*
X1662Y2796D01*
X1662Y2796D01*
X1663Y2797D01*
X2535Y3669D01*
X2525Y3625D01*
X2525Y3571D01*
X2534Y3518D01*
X2554Y3468D01*
X2583Y3423D01*
X2621Y3385D01*
X2665Y3354D01*
X2714Y3332D01*
X2766Y3321D01*
X2820Y3320D01*
X2873Y3329D01*
X2923Y3349D01*
X2935Y3356D01*
X2934Y3299D01*
X2951Y3204D01*
X2987Y3115D01*
X3039Y3034D01*
X3105Y2965D01*
X3184Y2910D01*
X3272Y2872D01*
X3366Y2851D01*
X3462Y2849D01*
X3557Y2866D01*
X3647Y2901D01*
X3728Y2952D01*
X3798Y3018D01*
X3853Y3097D01*
X3892Y3185D01*
X3913Y3278D01*
X3915Y3388D01*
X3896Y3483D01*
X3860Y3571D01*
X3822Y3628D01*
X3830Y3633D01*
X3869Y3670D01*
X3900Y3714D01*
X3922Y3763D01*
X3934Y3815D01*
X3935Y3877D01*
X3924Y3929D01*
X3904Y3979D01*
X3874Y4024D01*
X3836Y4062D01*
X3792Y4092D01*
X3742Y4113D01*
X3690Y4123D01*
X3636Y4124D01*
X3583Y4114D01*
X3534Y4094D01*
X3489Y4064D01*
X3450Y4027D01*
X3420Y3982D01*
X3399Y3933D01*
X3388Y3881D01*
X3387Y3831D01*
X3380Y3831D01*
X3286Y3813D01*
X3197Y3777D01*
X3116Y3724D01*
X3062Y3671D01*
X3062Y3673D01*
X3041Y3723D01*
X3012Y3768D01*
X2974Y3806D01*
X2929Y3836D01*
X2880Y3857D01*
X2827Y3867D01*
X2774Y3868D01*
X2724Y3858D01*
X3710Y4844D01*
X5791Y4844D01*
X6831Y3804D01*
X6855Y3784D01*
X6878Y3764D01*
X6880Y3764D01*
X6881Y3762D01*
X6908Y3748D01*
X6935Y3733D01*
X6937Y3733D01*
X6939Y3732D01*
X6968Y3723D01*
X6997Y3713D01*
X6999Y3713D01*
X7001Y3713D01*
X7031Y3710D01*
X7062Y3706D01*
X7065Y3706D01*
X7065Y3706D01*
X7065Y3706D01*
X7066Y3706D01*
X7098Y3706D01*
X7047Y3657D01*
X6993Y3577D01*
X6955Y3489D01*
X6935Y3395D01*
X6934Y3299D01*
X6951Y3204D01*
X6987Y3115D01*
X7039Y3034D01*
X7105Y2965D01*
X7184Y2910D01*
X7272Y2872D01*
X7366Y2851D01*
X7462Y2849D01*
X7557Y2866D01*
X7647Y2901D01*
X7728Y2952D01*
X7798Y3018D01*
X7853Y3097D01*
X7892Y3185D01*
X7913Y3278D01*
X7915Y3388D01*
X7896Y3483D01*
X7860Y3571D01*
X7806Y3652D01*
X7752Y3706D01*
X8098Y3706D01*
X8047Y3657D01*
X7993Y3577D01*
X7955Y3489D01*
X7935Y3395D01*
X7934Y3299D01*
X7951Y3204D01*
X7987Y3115D01*
X8039Y3034D01*
X8105Y2965D01*
X8184Y2910D01*
X8272Y2872D01*
X8366Y2851D01*
X8462Y2849D01*
X8557Y2866D01*
X8647Y2901D01*
X8728Y2952D01*
X8798Y3018D01*
X8853Y3097D01*
X8892Y3185D01*
X8913Y3278D01*
X8915Y3388D01*
X8896Y3483D01*
X8860Y3571D01*
X8806Y3652D01*
X8752Y3706D01*
X9098Y3706D01*
X9047Y3657D01*
X8993Y3577D01*
X8955Y3489D01*
X8935Y3395D01*
X8934Y3299D01*
X8951Y3204D01*
X8987Y3115D01*
X9039Y3034D01*
X9105Y2965D01*
X9184Y2910D01*
X9272Y2872D01*
X9366Y2851D01*
X9462Y2849D01*
X9557Y2866D01*
X9647Y2901D01*
X9728Y2952D01*
X9798Y3018D01*
X9853Y3097D01*
X9892Y3185D01*
X9913Y3278D01*
X9915Y3388D01*
X9896Y3483D01*
X9860Y3571D01*
X9806Y3652D01*
X9752Y3706D01*
X10098Y3706D01*
X10047Y3657D01*
X9993Y3577D01*
X9955Y3489D01*
X9935Y3395D01*
X9934Y3299D01*
X9951Y3204D01*
X9987Y3115D01*
X10039Y3034D01*
X10105Y2965D01*
X10184Y2910D01*
X10272Y2872D01*
X10366Y2851D01*
X10462Y2849D01*
X10557Y2866D01*
X10647Y2901D01*
X10728Y2952D01*
X10798Y3018D01*
X10853Y3097D01*
X10892Y3185D01*
X10913Y3278D01*
X10915Y3388D01*
X10896Y3483D01*
X10860Y3571D01*
X10806Y3652D01*
X10752Y3706D01*
X11098Y3706D01*
X11047Y3657D01*
X10993Y3577D01*
X10955Y3489D01*
X10935Y3395D01*
X10934Y3299D01*
X10951Y3204D01*
X10987Y3115D01*
X11039Y3034D01*
X11105Y2965D01*
X11184Y2910D01*
X11272Y2872D01*
X11366Y2851D01*
X11462Y2849D01*
X11557Y2866D01*
X11647Y2901D01*
X11728Y2952D01*
X11798Y3018D01*
X11853Y3097D01*
X11892Y3185D01*
X11913Y3278D01*
X11915Y3388D01*
X11896Y3483D01*
X11860Y3571D01*
X11806Y3652D01*
X11752Y3706D01*
X12098Y3706D01*
X12047Y3657D01*
X11993Y3577D01*
X11955Y3489D01*
X11935Y3395D01*
X11934Y3299D01*
X11951Y3204D01*
X11987Y3115D01*
X12039Y3034D01*
X12105Y2965D01*
X12184Y2910D01*
X12272Y2872D01*
X12366Y2851D01*
X12462Y2849D01*
X12557Y2866D01*
X12647Y2901D01*
X12728Y2952D01*
X12798Y3018D01*
X12853Y3097D01*
X12892Y3185D01*
X12913Y3278D01*
X12915Y3388D01*
X12896Y3483D01*
X12860Y3571D01*
X12806Y3652D01*
X12752Y3706D01*
X13098Y3706D01*
X13047Y3657D01*
X12993Y3577D01*
X12955Y3489D01*
X12935Y3395D01*
X12934Y3299D01*
X12951Y3204D01*
X12987Y3115D01*
X13039Y3034D01*
X13105Y2965D01*
X13184Y2910D01*
X13272Y2872D01*
X13366Y2851D01*
X13462Y2849D01*
X13557Y2866D01*
X13647Y2901D01*
X13728Y2952D01*
X13798Y3018D01*
X13853Y3097D01*
X13892Y3185D01*
X13913Y3278D01*
X13915Y3388D01*
X13896Y3483D01*
X13860Y3571D01*
X13806Y3652D01*
X13752Y3706D01*
X14098Y3706D01*
X14047Y3657D01*
X13993Y3577D01*
X13955Y3489D01*
X13935Y3395D01*
X13934Y3299D01*
X13951Y3204D01*
X13987Y3115D01*
X14039Y3034D01*
X14105Y2965D01*
X14184Y2910D01*
X14272Y2872D01*
X14366Y2851D01*
X14462Y2849D01*
X14557Y2866D01*
X14647Y2901D01*
X14728Y2952D01*
X14798Y3018D01*
X14853Y3097D01*
X14892Y3185D01*
X14913Y3278D01*
X14915Y3388D01*
X14896Y3483D01*
X14860Y3571D01*
X14806Y3652D01*
X14752Y3706D01*
X15100Y3706D01*
X15055Y3663D01*
X15001Y3583D01*
X14963Y3495D01*
X14943Y3401D01*
X14942Y3305D01*
X14959Y3210D01*
X14995Y3121D01*
X15047Y3040D01*
X15113Y2971D01*
X15192Y2916D01*
X15280Y2878D01*
X15374Y2857D01*
X15470Y2855D01*
X15565Y2872D01*
X15655Y2906D01*
X15736Y2958D01*
X15805Y3024D01*
X15861Y3103D01*
X15900Y3190D01*
X15921Y3284D01*
X15923Y3394D01*
X15904Y3488D01*
X15867Y3577D01*
X15814Y3657D01*
X15766Y3706D01*
X17000Y3706D01*
X17030Y3709D01*
X17061Y3712D01*
X17062Y3712D01*
X17064Y3713D01*
X17094Y3721D01*
X17123Y3730D01*
X17125Y3731D01*
X17126Y3731D01*
X17153Y3746D01*
X17181Y3760D01*
X17182Y3761D01*
X17184Y3762D01*
X17207Y3781D01*
X17231Y3800D01*
X17234Y3803D01*
X17234Y3803D01*
X17234Y3803D01*
X17235Y3804D01*
X17502Y4071D01*
X17522Y4095D01*
X17542Y4119D01*
X17543Y4120D01*
X17544Y4122D01*
X17558Y4149D01*
X17573Y4176D01*
X17574Y4177D01*
X17574Y4179D01*
X17583Y4208D01*
X17593Y4237D01*
X17593Y4239D01*
X17593Y4241D01*
X17596Y4271D01*
X17600Y4302D01*
X17600Y4305D01*
X17600Y4305D01*
X17600Y4305D01*
X17600Y4307D01*
X17600Y8244D01*
X17715Y8359D01*
X17735Y8382D01*
X17754Y8406D01*
X17755Y8408D01*
X17756Y8409D01*
X17771Y8436D01*
X17786Y8463D01*
X17786Y8465D01*
X17787Y8466D01*
X17796Y8496D01*
X17805Y8525D01*
X17805Y8527D01*
X17806Y8528D01*
X17809Y8559D01*
X17812Y8589D01*
X17812Y8593D01*
X17812Y8593D01*
X17812Y8593D01*
X17812Y8594D01*
X17812Y1294D01*
X17805Y1306D01*
X17726Y1385D01*
X17634Y1447D01*
X17612Y1456D01*
X17612Y3121D01*
X17600Y3181D01*
X17576Y3238D01*
X17542Y3289D01*
X17499Y3332D01*
X17448Y3367D01*
X17392Y3390D01*
X17332Y3403D01*
X17270Y3403D01*
X17210Y3392D01*
X17153Y3369D01*
X17102Y3335D01*
X17058Y3292D01*
X17023Y3242D01*
X16999Y3185D01*
X16986Y3125D01*
X16985Y3064D01*
X16996Y3003D01*
X17019Y2946D01*
X17052Y2895D01*
X17095Y2851D01*
X17145Y2816D01*
X17202Y2791D01*
X17261Y2778D01*
X17323Y2776D01*
X17383Y2787D01*
X17441Y2809D01*
X17492Y2842D01*
X17537Y2885D01*
X17572Y2935D01*
X17597Y2991D01*
X17611Y3051D01*
X17612Y3121D01*
X17612Y1456D01*
X17531Y1490D01*
X17421Y1513D01*
X17310Y1514D01*
X17200Y1493D01*
X17097Y1451D01*
X17004Y1390D01*
X16924Y1312D01*
X16861Y1220D01*
X16817Y1117D01*
X16794Y1008D01*
X16792Y897D01*
X16812Y787D01*
X16853Y683D01*
X16914Y589D01*
X16991Y509D01*
X17083Y445D01*
X17185Y401D01*
X17294Y377D01*
X17406Y374D01*
X17515Y394D01*
X17619Y434D01*
X17714Y494D01*
X17794Y571D01*
X17859Y662D01*
X17904Y764D01*
X17929Y873D01*
X17931Y1000D01*
X17931Y588D01*
X17343Y49D01*
X15923Y49D01*
X15923Y2390D01*
X15904Y2484D01*
X15867Y2573D01*
X15814Y2653D01*
X15747Y2722D01*
X15667Y2775D01*
X15578Y2813D01*
X15484Y2832D01*
X15388Y2833D01*
X15294Y2815D01*
X15204Y2779D01*
X15124Y2726D01*
X15055Y2659D01*
X15001Y2579D01*
X14963Y2491D01*
X14943Y2397D01*
X14942Y2301D01*
X14959Y2206D01*
X14995Y2117D01*
X15047Y2036D01*
X15113Y1967D01*
X15192Y1912D01*
X15280Y1874D01*
X15374Y1853D01*
X15470Y1851D01*
X15565Y1868D01*
X15655Y1902D01*
X15736Y1954D01*
X15805Y2020D01*
X15861Y2099D01*
X15900Y2187D01*
X15921Y2280D01*
X15923Y2390D01*
X15923Y49D01*
X14919Y49D01*
X14919Y2390D01*
X14900Y2484D01*
X14864Y2573D01*
X14810Y2653D01*
X14743Y2722D01*
X14663Y2775D01*
X14574Y2813D01*
X14480Y2832D01*
X14384Y2833D01*
X14290Y2815D01*
X14200Y2779D01*
X14120Y2726D01*
X14051Y2659D01*
X13997Y2579D01*
X13959Y2491D01*
X13939Y2397D01*
X13938Y2301D01*
X13955Y2206D01*
X13991Y2117D01*
X14043Y2036D01*
X14109Y1967D01*
X14188Y1912D01*
X14276Y1874D01*
X14370Y1853D01*
X14466Y1851D01*
X14561Y1868D01*
X14651Y1902D01*
X14732Y1954D01*
X14801Y2020D01*
X14857Y2099D01*
X14896Y2187D01*
X14917Y2280D01*
X14919Y2390D01*
X14919Y49D01*
X13915Y49D01*
X13915Y2388D01*
X13896Y2483D01*
X13860Y2571D01*
X13806Y2652D01*
X13739Y2720D01*
X13659Y2773D01*
X13570Y2811D01*
X13476Y2830D01*
X13380Y2831D01*
X13286Y2813D01*
X13197Y2777D01*
X13116Y2724D01*
X13047Y2657D01*
X12993Y2577D01*
X12955Y2489D01*
X12935Y2395D01*
X12934Y2299D01*
X12951Y2204D01*
X12987Y2115D01*
X13039Y2034D01*
X13105Y1965D01*
X13184Y1910D01*
X13272Y1872D01*
X13366Y1851D01*
X13462Y1849D01*
X13557Y1866D01*
X13647Y1901D01*
X13728Y1952D01*
X13798Y2018D01*
X13853Y2097D01*
X13892Y2185D01*
X13913Y2278D01*
X13915Y2388D01*
X13915Y49D01*
X12915Y49D01*
X12915Y2388D01*
X12896Y2483D01*
X12860Y2571D01*
X12806Y2652D01*
X12739Y2720D01*
X12659Y2773D01*
X12570Y2811D01*
X12476Y2830D01*
X12380Y2831D01*
X12286Y2813D01*
X12197Y2777D01*
X12116Y2724D01*
X12047Y2657D01*
X11993Y2577D01*
X11955Y2489D01*
X11935Y2395D01*
X11934Y2299D01*
X11951Y2204D01*
X11987Y2115D01*
X12039Y2034D01*
X12105Y1965D01*
X12184Y1910D01*
X12272Y1872D01*
X12366Y1851D01*
X12462Y1849D01*
X12557Y1866D01*
X12647Y1901D01*
X12728Y1952D01*
X12798Y2018D01*
X12853Y2097D01*
X12892Y2185D01*
X12913Y2278D01*
X12915Y2388D01*
X12915Y49D01*
X11915Y49D01*
X11915Y2388D01*
X11896Y2483D01*
X11860Y2571D01*
X11806Y2652D01*
X11739Y2720D01*
X11659Y2773D01*
X11570Y2811D01*
X11476Y2830D01*
X11380Y2831D01*
X11286Y2813D01*
X11197Y2777D01*
X11116Y2724D01*
X11047Y2657D01*
X10993Y2577D01*
X10955Y2489D01*
X10935Y2395D01*
X10934Y2299D01*
X10951Y2204D01*
X10987Y2115D01*
X11039Y2034D01*
X11105Y1965D01*
X11184Y1910D01*
X11272Y1872D01*
X11366Y1851D01*
X11462Y1849D01*
X11557Y1866D01*
X11647Y1901D01*
X11728Y1952D01*
X11798Y2018D01*
X11853Y2097D01*
X11892Y2185D01*
X11913Y2278D01*
X11915Y2388D01*
X11915Y49D01*
X10915Y49D01*
X10915Y2388D01*
X10896Y2483D01*
X10860Y2571D01*
X10806Y2652D01*
X10739Y2720D01*
X10659Y2773D01*
X10570Y2811D01*
X10476Y2830D01*
X10380Y2831D01*
X10286Y2813D01*
X10197Y2777D01*
X10116Y2724D01*
X10047Y2657D01*
X9993Y2577D01*
X9955Y2489D01*
X9935Y2395D01*
X9934Y2299D01*
X9951Y2204D01*
X9987Y2115D01*
X10039Y2034D01*
X10105Y1965D01*
X10184Y1910D01*
X10272Y1872D01*
X10366Y1851D01*
X10462Y1849D01*
X10557Y1866D01*
X10647Y1901D01*
X10728Y1952D01*
X10798Y2018D01*
X10853Y2097D01*
X10892Y2185D01*
X10913Y2278D01*
X10915Y2388D01*
X10915Y49D01*
X9915Y49D01*
X9915Y2388D01*
X9896Y2483D01*
X9860Y2571D01*
X9806Y2652D01*
X9739Y2720D01*
X9659Y2773D01*
X9570Y2811D01*
X9476Y2830D01*
X9380Y2831D01*
X9286Y2813D01*
X9197Y2777D01*
X9116Y2724D01*
X9047Y2657D01*
X8993Y2577D01*
X8955Y2489D01*
X8935Y2395D01*
X8934Y2299D01*
X8951Y2204D01*
X8987Y2115D01*
X9039Y2034D01*
X9105Y1965D01*
X9184Y1910D01*
X9272Y1872D01*
X9366Y1851D01*
X9462Y1849D01*
X9557Y1866D01*
X9647Y1901D01*
X9728Y1952D01*
X9798Y2018D01*
X9853Y2097D01*
X9892Y2185D01*
X9913Y2278D01*
X9915Y2388D01*
X9915Y49D01*
X8915Y49D01*
X8915Y2388D01*
X8896Y2483D01*
X8860Y2571D01*
X8806Y2652D01*
X8739Y2720D01*
X8659Y2773D01*
X8570Y2811D01*
X8476Y2830D01*
X8380Y2831D01*
X8286Y2813D01*
X8197Y2777D01*
X8116Y2724D01*
X8047Y2657D01*
X7993Y2577D01*
X7955Y2489D01*
X7935Y2395D01*
X7934Y2299D01*
X7951Y2204D01*
X7987Y2115D01*
X8039Y2034D01*
X8105Y1965D01*
X8184Y1910D01*
X8272Y1872D01*
X8366Y1851D01*
X8462Y1849D01*
X8557Y1866D01*
X8647Y1901D01*
X8728Y1952D01*
X8798Y2018D01*
X8853Y2097D01*
X8892Y2185D01*
X8913Y2278D01*
X8915Y2388D01*
X8915Y49D01*
X7915Y49D01*
X7915Y2388D01*
X7896Y2483D01*
X7860Y2571D01*
X7806Y2652D01*
X7739Y2720D01*
X7659Y2773D01*
X7570Y2811D01*
X7476Y2830D01*
X7380Y2831D01*
X7286Y2813D01*
X7197Y2777D01*
X7116Y2724D01*
X7047Y2657D01*
X6993Y2577D01*
X6955Y2489D01*
X6935Y2395D01*
X6934Y2299D01*
X6951Y2204D01*
X6987Y2115D01*
X7039Y2034D01*
X7105Y1965D01*
X7184Y1910D01*
X7272Y1872D01*
X7366Y1851D01*
X7462Y1849D01*
X7557Y1866D01*
X7647Y1901D01*
X7728Y1952D01*
X7798Y2018D01*
X7853Y2097D01*
X7892Y2185D01*
X7913Y2278D01*
X7915Y2388D01*
X7915Y49D01*
X6915Y49D01*
X6915Y2388D01*
X6915Y3388D01*
X6896Y3483D01*
X6860Y3571D01*
X6806Y3652D01*
X6739Y3720D01*
X6659Y3773D01*
X6570Y3811D01*
X6476Y3830D01*
X6380Y3831D01*
X6286Y3813D01*
X6197Y3777D01*
X6116Y3724D01*
X6047Y3657D01*
X5993Y3577D01*
X5955Y3489D01*
X5935Y3395D01*
X5934Y3299D01*
X5951Y3204D01*
X5987Y3115D01*
X6039Y3034D01*
X6105Y2965D01*
X6184Y2910D01*
X6272Y2872D01*
X6366Y2851D01*
X6462Y2849D01*
X6557Y2866D01*
X6647Y2901D01*
X6728Y2952D01*
X6798Y3018D01*
X6853Y3097D01*
X6892Y3185D01*
X6913Y3278D01*
X6915Y3388D01*
X6915Y2388D01*
X6896Y2483D01*
X6860Y2571D01*
X6806Y2652D01*
X6739Y2720D01*
X6659Y2773D01*
X6570Y2811D01*
X6476Y2830D01*
X6380Y2831D01*
X6286Y2813D01*
X6197Y2777D01*
X6116Y2724D01*
X6047Y2657D01*
X5993Y2577D01*
X5955Y2489D01*
X5935Y2395D01*
X5934Y2299D01*
X5951Y2204D01*
X5987Y2115D01*
X6039Y2034D01*
X6105Y1965D01*
X6184Y1910D01*
X6272Y1872D01*
X6366Y1851D01*
X6462Y1849D01*
X6557Y1866D01*
X6647Y1901D01*
X6728Y1952D01*
X6798Y2018D01*
X6853Y2097D01*
X6892Y2185D01*
X6913Y2278D01*
X6915Y2388D01*
X6915Y49D01*
X5915Y49D01*
X5915Y2388D01*
X5915Y3388D01*
X5896Y3483D01*
X5860Y3571D01*
X5806Y3652D01*
X5739Y3720D01*
X5659Y3773D01*
X5570Y3811D01*
X5476Y3830D01*
X5380Y3831D01*
X5286Y3813D01*
X5197Y3777D01*
X5116Y3724D01*
X5047Y3657D01*
X4993Y3577D01*
X4955Y3489D01*
X4935Y3395D01*
X4934Y3299D01*
X4951Y3204D01*
X4987Y3115D01*
X5039Y3034D01*
X5105Y2965D01*
X5184Y2910D01*
X5272Y2872D01*
X5366Y2851D01*
X5462Y2849D01*
X5557Y2866D01*
X5647Y2901D01*
X5728Y2952D01*
X5798Y3018D01*
X5853Y3097D01*
X5892Y3185D01*
X5913Y3278D01*
X5915Y3388D01*
X5915Y2388D01*
X5896Y2483D01*
X5860Y2571D01*
X5806Y2652D01*
X5739Y2720D01*
X5659Y2773D01*
X5570Y2811D01*
X5476Y2830D01*
X5380Y2831D01*
X5286Y2813D01*
X5197Y2777D01*
X5116Y2724D01*
X5047Y2657D01*
X4993Y2577D01*
X4955Y2489D01*
X4935Y2395D01*
X4934Y2299D01*
X4951Y2204D01*
X4987Y2115D01*
X5039Y2034D01*
X5105Y1965D01*
X5184Y1910D01*
X5272Y1872D01*
X5366Y1851D01*
X5462Y1849D01*
X5557Y1866D01*
X5647Y1901D01*
X5728Y1952D01*
X5798Y2018D01*
X5853Y2097D01*
X5892Y2185D01*
X5913Y2278D01*
X5915Y2388D01*
X5915Y49D01*
X4915Y49D01*
X4915Y2388D01*
X4915Y3388D01*
X4896Y3483D01*
X4860Y3571D01*
X4806Y3652D01*
X4739Y3720D01*
X4659Y3773D01*
X4570Y3811D01*
X4476Y3830D01*
X4380Y3831D01*
X4286Y3813D01*
X4197Y3777D01*
X4116Y3724D01*
X4047Y3657D01*
X3993Y3577D01*
X3955Y3489D01*
X3935Y3395D01*
X3934Y3299D01*
X3951Y3204D01*
X3987Y3115D01*
X4039Y3034D01*
X4105Y2965D01*
X4184Y2910D01*
X4272Y2872D01*
X4366Y2851D01*
X4462Y2849D01*
X4557Y2866D01*
X4647Y2901D01*
X4728Y2952D01*
X4798Y3018D01*
X4853Y3097D01*
X4892Y3185D01*
X4913Y3278D01*
X4915Y3388D01*
X4915Y2388D01*
X4896Y2483D01*
X4860Y2571D01*
X4806Y2652D01*
X4739Y2720D01*
X4659Y2773D01*
X4570Y2811D01*
X4476Y2830D01*
X4380Y2831D01*
X4286Y2813D01*
X4197Y2777D01*
X4116Y2724D01*
X4047Y2657D01*
X3993Y2577D01*
X3955Y2489D01*
X3935Y2395D01*
X3934Y2299D01*
X3951Y2204D01*
X3987Y2115D01*
X4039Y2034D01*
X4105Y1965D01*
X4184Y1910D01*
X4272Y1872D01*
X4366Y1851D01*
X4462Y1849D01*
X4557Y1866D01*
X4647Y1901D01*
X4728Y1952D01*
X4798Y2018D01*
X4853Y2097D01*
X4892Y2185D01*
X4913Y2278D01*
X4915Y2388D01*
X4915Y49D01*
X3915Y49D01*
X3915Y2388D01*
X3896Y2483D01*
X3860Y2571D01*
X3806Y2652D01*
X3739Y2720D01*
X3659Y2773D01*
X3570Y2811D01*
X3476Y2830D01*
X3380Y2831D01*
X3286Y2813D01*
X3197Y2777D01*
X3116Y2724D01*
X3047Y2657D01*
X2993Y2577D01*
X2955Y2489D01*
X2935Y2395D01*
X2934Y2299D01*
X2951Y2204D01*
X2987Y2115D01*
X3039Y2034D01*
X3105Y1965D01*
X3184Y1910D01*
X3272Y1872D01*
X3366Y1851D01*
X3462Y1849D01*
X3557Y1866D01*
X3647Y1901D01*
X3728Y1952D01*
X3798Y2018D01*
X3853Y2097D01*
X3892Y2185D01*
X3913Y2278D01*
X3915Y2388D01*
X3915Y49D01*
X3001Y49D01*
X3001Y718D01*
X2667Y718D01*
X2667Y874D01*
X1922Y874D01*
X1922Y718D01*
X1466Y718D01*
X1487Y764D01*
X1512Y873D01*
X1513Y1000D01*
X1492Y1110D01*
X1449Y1213D01*
X1387Y1306D01*
X1309Y1385D01*
X1216Y1447D01*
X1113Y1490D01*
X1004Y1513D01*
X893Y1514D01*
X783Y1493D01*
X680Y1451D01*
X586Y1390D01*
X506Y1312D01*
X443Y1220D01*
X399Y1117D01*
X376Y1008D01*
X375Y897D01*
X395Y787D01*
X436Y683D01*
X496Y589D01*
X574Y509D01*
X665Y445D01*
X768Y401D01*
X877Y377D01*
X988Y374D01*
X1098Y394D01*
X1202Y434D01*
X1250Y464D01*
X1250Y49D01*
X965Y49D01*
X49Y1004D01*
X49Y23049D01*
X1004Y23966D01*
X3338Y23966D01*
X3320Y23963D01*
X3263Y23940D01*
X3212Y23906D01*
X3168Y23863D01*
X3133Y23812D01*
X3109Y23756D01*
X3096Y23696D01*
X3096Y23635D01*
X3107Y23574D01*
X3129Y23517D01*
X3162Y23466D01*
X3205Y23421D01*
X3256Y23386D01*
X3272Y23379D01*
X3265Y23373D01*
X3235Y23329D01*
X3214Y23279D01*
X3203Y23227D01*
X3202Y23173D01*
X3212Y23121D01*
X3231Y23071D01*
X3260Y23026D01*
X3298Y22987D01*
X3342Y22956D01*
X3391Y22935D01*
X3443Y22923D01*
X3497Y22922D01*
X3550Y22932D01*
X3600Y22951D01*
X3645Y22980D01*
X3684Y23017D01*
X3715Y23061D01*
X3737Y23110D01*
X3749Y23162D01*
X3750Y23223D01*
X3739Y23276D01*
X3719Y23325D01*
X3689Y23370D01*
X3651Y23408D01*
X3620Y23429D01*
X3647Y23455D01*
X3682Y23506D01*
X3707Y23562D01*
X3721Y23621D01*
X3722Y23692D01*
X3710Y23752D01*
X3687Y23809D01*
X3653Y23860D01*
X3609Y23903D01*
X3559Y23938D01*
X3502Y23961D01*
X3479Y23966D01*
X17419Y23966D01*
X18257Y23090D01*
X18257Y887D01*
X18257Y887D01*
G37*
G54D11*
X18257Y887D02*
X17931Y588D01*
X17931Y1000D01*
X17931Y23126D01*
X17909Y23236D01*
X17866Y23339D01*
X17805Y23432D01*
X17726Y23511D01*
X17634Y23573D01*
X17531Y23616D01*
X17421Y23639D01*
X17310Y23640D01*
X17200Y23619D01*
X17097Y23577D01*
X17004Y23516D01*
X16924Y23438D01*
X16861Y23346D01*
X16817Y23243D01*
X16794Y23134D01*
X16792Y23023D01*
X16812Y22913D01*
X16853Y22809D01*
X16914Y22715D01*
X16991Y22635D01*
X17083Y22571D01*
X17185Y22527D01*
X17294Y22503D01*
X17406Y22500D01*
X17515Y22520D01*
X17619Y22560D01*
X17714Y22620D01*
X17794Y22697D01*
X17859Y22788D01*
X17904Y22890D01*
X17929Y22999D01*
X17931Y23126D01*
X17931Y1000D01*
X17909Y1110D01*
X17866Y1213D01*
X17812Y1294D01*
X17812Y8594D01*
X17812Y13665D01*
X17809Y13695D01*
X17807Y13726D01*
X17806Y13728D01*
X17806Y13729D01*
X17797Y13759D01*
X17789Y13788D01*
X17788Y13790D01*
X17787Y13792D01*
X17773Y13819D01*
X17759Y13846D01*
X17758Y13847D01*
X17757Y13849D01*
X17737Y13873D01*
X17718Y13897D01*
X17716Y13899D01*
X17716Y13899D01*
X17716Y13899D01*
X17715Y13900D01*
X17344Y14271D01*
X17344Y16507D01*
X17334Y16559D01*
X17313Y16609D01*
X17283Y16654D01*
X17246Y16692D01*
X17201Y16722D01*
X17152Y16742D01*
X17099Y16753D01*
X17045Y16754D01*
X16993Y16744D01*
X16943Y16723D01*
X16898Y16694D01*
X16860Y16657D01*
X16829Y16612D01*
X16808Y16563D01*
X16797Y16510D01*
X16796Y16457D01*
X16806Y16404D01*
X16826Y16354D01*
X16855Y16309D01*
X16892Y16270D01*
X16936Y16240D01*
X16985Y16218D01*
X17038Y16207D01*
X17091Y16206D01*
X17144Y16215D01*
X17194Y16234D01*
X17240Y16263D01*
X17278Y16300D01*
X17309Y16344D01*
X17331Y16393D01*
X17343Y16445D01*
X17344Y16507D01*
X17344Y14271D01*
X16865Y14750D01*
X16814Y14792D01*
X16757Y14822D01*
X16695Y14841D01*
X16631Y14848D01*
X16566Y14842D01*
X16504Y14823D01*
X16446Y14793D01*
X16396Y14752D01*
X16354Y14702D01*
X16323Y14645D01*
X16304Y14583D01*
X16297Y14519D01*
X16302Y14454D01*
X16321Y14392D01*
X16350Y14334D01*
X16391Y14283D01*
X16394Y14280D01*
X16940Y13734D01*
X16926Y13734D01*
X16869Y13723D01*
X16816Y13702D01*
X16768Y13670D01*
X16726Y13630D01*
X16694Y13582D01*
X16671Y13530D01*
X16659Y13473D01*
X16659Y13416D01*
X16669Y13359D01*
X16690Y13306D01*
X16721Y13257D01*
X16761Y13216D01*
X16808Y13183D01*
X16861Y13160D01*
X16917Y13148D01*
X16975Y13147D01*
X17032Y13157D01*
X17085Y13177D01*
X17134Y13208D01*
X17147Y13221D01*
X17147Y8732D01*
X17032Y8617D01*
X17012Y8593D01*
X16993Y8569D01*
X16992Y8568D01*
X16991Y8566D01*
X16976Y8539D01*
X16961Y8512D01*
X16961Y8511D01*
X16960Y8509D01*
X16951Y8480D01*
X16942Y8451D01*
X16942Y8449D01*
X16941Y8447D01*
X16938Y8417D01*
X16935Y8386D01*
X16935Y8383D01*
X16935Y8383D01*
X16935Y8382D01*
X16935Y8381D01*
X16935Y4444D01*
X16862Y4372D01*
X16446Y4372D01*
X16446Y12822D01*
X16436Y12874D01*
X16415Y12924D01*
X16386Y12969D01*
X16348Y13007D01*
X16303Y13037D01*
X16254Y13057D01*
X16201Y13068D01*
X16148Y13069D01*
X16104Y13060D01*
X16104Y17790D01*
X16093Y17843D01*
X16073Y17892D01*
X16043Y17937D01*
X16005Y17975D01*
X15961Y18005D01*
X15959Y18006D01*
X15968Y18011D01*
X16007Y18048D01*
X16038Y18092D01*
X16060Y18141D01*
X16071Y18193D01*
X16072Y18255D01*
X16062Y18307D01*
X16041Y18357D01*
X16012Y18402D01*
X15974Y18440D01*
X15950Y18456D01*
X15950Y22294D01*
X15940Y22347D01*
X15919Y22396D01*
X15890Y22441D01*
X15852Y22479D01*
X15807Y22509D01*
X15758Y22530D01*
X15705Y22541D01*
X15652Y22541D01*
X15599Y22531D01*
X15549Y22511D01*
X15504Y22481D01*
X15466Y22444D01*
X15436Y22400D01*
X15415Y22350D01*
X15403Y22298D01*
X15403Y22244D01*
X15412Y22191D01*
X15432Y22142D01*
X15461Y22096D01*
X15498Y22058D01*
X15543Y22027D01*
X15592Y22006D01*
X15644Y21994D01*
X15698Y21993D01*
X15751Y22002D01*
X15801Y22022D01*
X15846Y22051D01*
X15885Y22088D01*
X15916Y22131D01*
X15938Y22180D01*
X15949Y22233D01*
X15950Y22294D01*
X15950Y18456D01*
X15929Y18470D01*
X15880Y18490D01*
X15827Y18501D01*
X15774Y18502D01*
X15721Y18492D01*
X15671Y18472D01*
X15626Y18442D01*
X15588Y18405D01*
X15558Y18360D01*
X15537Y18311D01*
X15525Y18258D01*
X15525Y18205D01*
X15534Y18152D01*
X15554Y18102D01*
X15583Y18057D01*
X15621Y18018D01*
X15665Y17988D01*
X15670Y17985D01*
X15658Y17978D01*
X15620Y17940D01*
X15589Y17896D01*
X15568Y17846D01*
X15557Y17794D01*
X15556Y17740D01*
X15566Y17687D01*
X15586Y17638D01*
X15615Y17592D01*
X15652Y17554D01*
X15696Y17523D01*
X15745Y17502D01*
X15798Y17490D01*
X15851Y17489D01*
X15904Y17498D01*
X15954Y17518D01*
X15999Y17547D01*
X16038Y17584D01*
X16069Y17627D01*
X16091Y17676D01*
X16103Y17729D01*
X16104Y17790D01*
X16104Y13060D01*
X16095Y13059D01*
X16045Y13038D01*
X16000Y13009D01*
X15962Y12972D01*
X15932Y12927D01*
X15911Y12878D01*
X15899Y12825D01*
X15899Y12772D01*
X15908Y12719D01*
X15928Y12669D01*
X15957Y12624D01*
X15995Y12585D01*
X16039Y12555D01*
X16088Y12533D01*
X16140Y12522D01*
X16194Y12521D01*
X16247Y12530D01*
X16297Y12549D01*
X16342Y12578D01*
X16381Y12615D01*
X16412Y12659D01*
X16434Y12708D01*
X16446Y12760D01*
X16446Y12822D01*
X16446Y4372D01*
X16163Y4372D01*
X16163Y10213D01*
X16152Y10270D01*
X16143Y10290D01*
X16143Y11507D01*
X16133Y11559D01*
X16112Y11609D01*
X16083Y11654D01*
X16045Y11692D01*
X16026Y11705D01*
X16027Y11706D01*
X16057Y11750D01*
X16079Y11799D01*
X16091Y11851D01*
X16092Y11912D01*
X16082Y11965D01*
X16061Y12014D01*
X16031Y12059D01*
X15994Y12097D01*
X15949Y12127D01*
X15900Y12148D01*
X15847Y12159D01*
X15793Y12159D01*
X15741Y12149D01*
X15691Y12129D01*
X15646Y12100D01*
X15608Y12062D01*
X15577Y12018D01*
X15556Y11968D01*
X15545Y11916D01*
X15544Y11862D01*
X15554Y11810D01*
X15574Y11760D01*
X15603Y11715D01*
X15640Y11676D01*
X15663Y11660D01*
X15659Y11657D01*
X15629Y11612D01*
X15608Y11563D01*
X15596Y11510D01*
X15596Y11457D01*
X15605Y11404D01*
X15625Y11354D01*
X15654Y11309D01*
X15691Y11270D01*
X15735Y11240D01*
X15785Y11218D01*
X15837Y11207D01*
X15891Y11206D01*
X15944Y11215D01*
X15994Y11234D01*
X16039Y11263D01*
X16078Y11300D01*
X16109Y11344D01*
X16130Y11393D01*
X16142Y11445D01*
X16143Y11507D01*
X16143Y10290D01*
X16130Y10323D01*
X16098Y10371D01*
X16057Y10412D01*
X16010Y10444D01*
X15980Y10456D01*
X15998Y10482D01*
X16020Y10531D01*
X16032Y10583D01*
X16033Y10644D01*
X16023Y10697D01*
X16002Y10747D01*
X15972Y10791D01*
X15935Y10829D01*
X15890Y10859D01*
X15841Y10880D01*
X15788Y10891D01*
X15734Y10891D01*
X15682Y10881D01*
X15632Y10861D01*
X15587Y10832D01*
X15549Y10794D01*
X15518Y10750D01*
X15497Y10701D01*
X15486Y10648D01*
X15485Y10595D01*
X15495Y10542D01*
X15515Y10492D01*
X15544Y10447D01*
X15581Y10408D01*
X15625Y10378D01*
X15641Y10371D01*
X15611Y10327D01*
X15589Y10274D01*
X15577Y10217D01*
X15576Y10160D01*
X15586Y10103D01*
X15607Y10050D01*
X15629Y10017D01*
X15585Y9999D01*
X15540Y9970D01*
X15501Y9932D01*
X15471Y9888D01*
X15450Y9839D01*
X15450Y15845D01*
X15440Y15898D01*
X15431Y15920D01*
X15431Y18314D01*
X15420Y18366D01*
X15400Y18416D01*
X15370Y18461D01*
X15332Y18499D01*
X15288Y18529D01*
X15238Y18550D01*
X15186Y18560D01*
X15132Y18561D01*
X15092Y18553D01*
X15092Y21735D01*
X15082Y21788D01*
X15061Y21837D01*
X15031Y21882D01*
X14994Y21920D01*
X14949Y21950D01*
X14900Y21971D01*
X14847Y21982D01*
X14793Y21982D01*
X14769Y21977D01*
X14769Y22794D01*
X14759Y22847D01*
X14738Y22896D01*
X14709Y22941D01*
X14671Y22979D01*
X14626Y23009D01*
X14577Y23030D01*
X14524Y23041D01*
X14471Y23041D01*
X14418Y23031D01*
X14368Y23011D01*
X14323Y22981D01*
X14285Y22944D01*
X14255Y22900D01*
X14233Y22850D01*
X14222Y22798D01*
X14222Y22744D01*
X14231Y22691D01*
X14251Y22642D01*
X14280Y22596D01*
X14317Y22558D01*
X14361Y22527D01*
X14411Y22506D01*
X14463Y22494D01*
X14517Y22493D01*
X14570Y22502D01*
X14620Y22522D01*
X14665Y22551D01*
X14704Y22588D01*
X14735Y22631D01*
X14756Y22680D01*
X14768Y22733D01*
X14769Y22794D01*
X14769Y21977D01*
X14741Y21972D01*
X14691Y21952D01*
X14646Y21922D01*
X14608Y21885D01*
X14577Y21841D01*
X14556Y21791D01*
X14545Y21739D01*
X14544Y21685D01*
X14554Y21632D01*
X14574Y21582D01*
X14603Y21537D01*
X14640Y21499D01*
X14684Y21468D01*
X14733Y21447D01*
X14786Y21435D01*
X14839Y21434D01*
X14892Y21443D01*
X14942Y21463D01*
X14988Y21492D01*
X15027Y21529D01*
X15057Y21572D01*
X15079Y21621D01*
X15091Y21674D01*
X15092Y21735D01*
X15092Y18553D01*
X15079Y18551D01*
X15072Y18548D01*
X15072Y20770D01*
X15062Y20823D01*
X15041Y20873D01*
X15012Y20917D01*
X14974Y20955D01*
X14929Y20985D01*
X14880Y21006D01*
X14827Y21017D01*
X14774Y21017D01*
X14721Y21007D01*
X14671Y20987D01*
X14626Y20958D01*
X14588Y20920D01*
X14558Y20876D01*
X14537Y20827D01*
X14525Y20774D01*
X14525Y20721D01*
X14534Y20668D01*
X14554Y20618D01*
X14583Y20573D01*
X14621Y20534D01*
X14665Y20504D01*
X14714Y20482D01*
X14766Y20471D01*
X14820Y20469D01*
X14873Y20479D01*
X14923Y20498D01*
X14968Y20527D01*
X15007Y20564D01*
X15038Y20608D01*
X15060Y20657D01*
X15071Y20709D01*
X15072Y20770D01*
X15072Y18548D01*
X15030Y18531D01*
X14985Y18501D01*
X14946Y18464D01*
X14916Y18419D01*
X14895Y18370D01*
X14884Y18318D01*
X14883Y18264D01*
X14893Y18211D01*
X14912Y18161D01*
X14942Y18116D01*
X14979Y18078D01*
X15023Y18047D01*
X15072Y18025D01*
X15124Y18014D01*
X15178Y18013D01*
X15231Y18022D01*
X15281Y18041D01*
X15326Y18070D01*
X15365Y18107D01*
X15396Y18151D01*
X15418Y18200D01*
X15430Y18252D01*
X15431Y18314D01*
X15431Y15920D01*
X15419Y15947D01*
X15390Y15992D01*
X15352Y16030D01*
X15307Y16060D01*
X15258Y16081D01*
X15205Y16092D01*
X15152Y16092D01*
X15099Y16082D01*
X15084Y16076D01*
X15084Y17601D01*
X15074Y17654D01*
X15053Y17703D01*
X15024Y17748D01*
X14986Y17786D01*
X14941Y17816D01*
X14892Y17837D01*
X14839Y17848D01*
X14786Y17848D01*
X14733Y17838D01*
X14683Y17818D01*
X14638Y17789D01*
X14600Y17751D01*
X14570Y17707D01*
X14548Y17657D01*
X14537Y17605D01*
X14537Y17551D01*
X14546Y17499D01*
X14566Y17449D01*
X14595Y17404D01*
X14632Y17365D01*
X14676Y17334D01*
X14726Y17313D01*
X14778Y17301D01*
X14832Y17300D01*
X14884Y17309D01*
X14934Y17329D01*
X14980Y17358D01*
X15019Y17395D01*
X15050Y17438D01*
X15071Y17488D01*
X15083Y17540D01*
X15084Y17601D01*
X15084Y16076D01*
X15049Y16062D01*
X15004Y16033D01*
X14966Y15995D01*
X14936Y15951D01*
X14915Y15902D01*
X14903Y15849D01*
X14903Y15795D01*
X14912Y15743D01*
X14932Y15693D01*
X14961Y15648D01*
X14998Y15609D01*
X15043Y15578D01*
X15092Y15557D01*
X15144Y15545D01*
X15198Y15544D01*
X15251Y15554D01*
X15301Y15573D01*
X15346Y15602D01*
X15385Y15639D01*
X15416Y15683D01*
X15438Y15732D01*
X15449Y15784D01*
X15450Y15845D01*
X15450Y9839D01*
X15450Y9839D01*
X15439Y9786D01*
X15438Y9732D01*
X15448Y9680D01*
X15468Y9630D01*
X15497Y9585D01*
X15534Y9546D01*
X15578Y9515D01*
X15607Y9503D01*
X15577Y9459D01*
X15556Y9409D01*
X15545Y9357D01*
X15544Y9303D01*
X15554Y9250D01*
X15574Y9201D01*
X15603Y9155D01*
X15629Y9129D01*
X15620Y9125D01*
X15575Y9096D01*
X15537Y9058D01*
X15507Y9014D01*
X15485Y8965D01*
X15474Y8912D01*
X15474Y8858D01*
X15483Y8806D01*
X15503Y8756D01*
X15532Y8711D01*
X15569Y8672D01*
X15613Y8641D01*
X15663Y8620D01*
X15715Y8608D01*
X15769Y8607D01*
X15821Y8617D01*
X15871Y8636D01*
X15917Y8665D01*
X15956Y8702D01*
X15987Y8746D01*
X16008Y8795D01*
X16020Y8847D01*
X16021Y8908D01*
X16011Y8961D01*
X15990Y9010D01*
X15961Y9055D01*
X15937Y9079D01*
X15942Y9081D01*
X15988Y9110D01*
X16027Y9147D01*
X16057Y9190D01*
X16079Y9239D01*
X16091Y9292D01*
X16092Y9353D01*
X16082Y9406D01*
X16061Y9455D01*
X16031Y9500D01*
X15994Y9538D01*
X15949Y9568D01*
X15923Y9579D01*
X15951Y9620D01*
X15973Y9669D01*
X15985Y9721D01*
X15986Y9782D01*
X15975Y9835D01*
X15955Y9884D01*
X15945Y9900D01*
X15949Y9901D01*
X16002Y9921D01*
X16051Y9952D01*
X16093Y9992D01*
X16126Y10039D01*
X16149Y10092D01*
X16162Y10148D01*
X16163Y10213D01*
X16163Y4372D01*
X16139Y4372D01*
X16139Y7333D01*
X16129Y7386D01*
X16108Y7436D01*
X16079Y7480D01*
X16041Y7518D01*
X15996Y7548D01*
X15947Y7569D01*
X15894Y7580D01*
X15841Y7580D01*
X15788Y7570D01*
X15738Y7550D01*
X15693Y7521D01*
X15655Y7483D01*
X15625Y7439D01*
X15604Y7390D01*
X15592Y7337D01*
X15592Y7284D01*
X15601Y7231D01*
X15621Y7181D01*
X15650Y7136D01*
X15687Y7097D01*
X15732Y7067D01*
X15781Y7045D01*
X15833Y7034D01*
X15887Y7032D01*
X15940Y7042D01*
X15990Y7061D01*
X16035Y7090D01*
X16074Y7127D01*
X16105Y7171D01*
X16127Y7220D01*
X16138Y7272D01*
X16139Y7333D01*
X16139Y4372D01*
X15344Y4372D01*
X15344Y7802D01*
X15334Y7855D01*
X15313Y7904D01*
X15283Y7949D01*
X15246Y7987D01*
X15201Y8017D01*
X15152Y8038D01*
X15099Y8049D01*
X15045Y8049D01*
X14993Y8039D01*
X14943Y8019D01*
X14898Y7989D01*
X14860Y7952D01*
X14829Y7908D01*
X14808Y7858D01*
X14797Y7806D01*
X14796Y7752D01*
X14806Y7699D01*
X14826Y7649D01*
X14855Y7604D01*
X14892Y7566D01*
X14936Y7535D01*
X14985Y7514D01*
X15038Y7502D01*
X15091Y7501D01*
X15144Y7510D01*
X15194Y7530D01*
X15240Y7558D01*
X15278Y7595D01*
X15309Y7639D01*
X15331Y7688D01*
X15343Y7741D01*
X15344Y7802D01*
X15344Y4372D01*
X14395Y4372D01*
X14395Y8479D01*
X14385Y8532D01*
X14364Y8581D01*
X14335Y8626D01*
X14297Y8664D01*
X14252Y8694D01*
X14203Y8715D01*
X14150Y8726D01*
X14120Y8726D01*
X14120Y11054D01*
X14109Y11107D01*
X14089Y11156D01*
X14059Y11201D01*
X14021Y11239D01*
X13982Y11265D01*
X13982Y23325D01*
X13970Y23386D01*
X13946Y23442D01*
X13913Y23494D01*
X13869Y23537D01*
X13818Y23571D01*
X13762Y23595D01*
X13702Y23608D01*
X13640Y23608D01*
X13580Y23596D01*
X13523Y23573D01*
X13472Y23540D01*
X13428Y23497D01*
X13393Y23446D01*
X13369Y23390D01*
X13356Y23330D01*
X13355Y23268D01*
X13366Y23208D01*
X13389Y23151D01*
X13422Y23099D01*
X13465Y23055D01*
X13515Y23020D01*
X13572Y22996D01*
X13632Y22982D01*
X13693Y22981D01*
X13753Y22992D01*
X13811Y23014D01*
X13862Y23047D01*
X13907Y23089D01*
X13942Y23139D01*
X13967Y23196D01*
X13981Y23255D01*
X13982Y23325D01*
X13982Y11265D01*
X13977Y11269D01*
X13927Y11290D01*
X13923Y11291D01*
X13923Y18589D01*
X13912Y18642D01*
X13892Y18692D01*
X13862Y18736D01*
X13840Y18759D01*
X13840Y20168D01*
X13830Y20221D01*
X13809Y20270D01*
X13779Y20315D01*
X13742Y20353D01*
X13697Y20383D01*
X13648Y20404D01*
X13595Y20415D01*
X13572Y20415D01*
X13566Y20445D01*
X13545Y20495D01*
X13516Y20539D01*
X13478Y20577D01*
X13433Y20607D01*
X13384Y20628D01*
X13331Y20639D01*
X13278Y20639D01*
X13269Y20638D01*
X13269Y22538D01*
X13257Y22598D01*
X13234Y22655D01*
X13200Y22706D01*
X13157Y22750D01*
X13106Y22784D01*
X13049Y22808D01*
X12989Y22820D01*
X12928Y22821D01*
X12867Y22809D01*
X12810Y22786D01*
X12759Y22752D01*
X12715Y22710D01*
X12681Y22659D01*
X12656Y22602D01*
X12644Y22542D01*
X12643Y22481D01*
X12654Y22421D01*
X12676Y22364D01*
X12710Y22312D01*
X12752Y22268D01*
X12803Y22233D01*
X12859Y22208D01*
X12919Y22195D01*
X12980Y22194D01*
X13041Y22204D01*
X13098Y22227D01*
X13150Y22260D01*
X13194Y22302D01*
X13230Y22352D01*
X13255Y22408D01*
X13268Y22468D01*
X13269Y22538D01*
X13269Y20638D01*
X13225Y20629D01*
X13175Y20609D01*
X13130Y20580D01*
X13092Y20542D01*
X13062Y20498D01*
X13041Y20449D01*
X13029Y20396D01*
X13029Y20343D01*
X13038Y20290D01*
X13058Y20240D01*
X13087Y20195D01*
X13124Y20156D01*
X13169Y20126D01*
X13218Y20104D01*
X13270Y20093D01*
X13297Y20092D01*
X13302Y20065D01*
X13322Y20016D01*
X13351Y19970D01*
X13388Y19932D01*
X13432Y19901D01*
X13481Y19880D01*
X13534Y19868D01*
X13588Y19867D01*
X13640Y19876D01*
X13690Y19896D01*
X13736Y19925D01*
X13775Y19962D01*
X13805Y20005D01*
X13827Y20054D01*
X13839Y20107D01*
X13840Y20168D01*
X13840Y18759D01*
X13824Y18774D01*
X13780Y18804D01*
X13730Y18825D01*
X13678Y18836D01*
X13624Y18836D01*
X13571Y18826D01*
X13522Y18806D01*
X13477Y18777D01*
X13438Y18739D01*
X13408Y18695D01*
X13387Y18646D01*
X13376Y18593D01*
X13375Y18539D01*
X13385Y18487D01*
X13405Y18437D01*
X13434Y18392D01*
X13471Y18353D01*
X13515Y18322D01*
X13564Y18301D01*
X13617Y18289D01*
X13670Y18288D01*
X13723Y18298D01*
X13773Y18317D01*
X13818Y18346D01*
X13857Y18383D01*
X13888Y18427D01*
X13910Y18476D01*
X13922Y18528D01*
X13923Y18589D01*
X13923Y11291D01*
X13875Y11300D01*
X13821Y11301D01*
X13768Y11291D01*
X13719Y11271D01*
X13713Y11267D01*
X13725Y11319D01*
X13726Y11381D01*
X13715Y11433D01*
X13695Y11483D01*
X13665Y11528D01*
X13628Y11566D01*
X13583Y11596D01*
X13534Y11616D01*
X13481Y11627D01*
X13427Y11628D01*
X13375Y11618D01*
X13325Y11597D01*
X13280Y11568D01*
X13242Y11531D01*
X13211Y11486D01*
X13190Y11437D01*
X13179Y11384D01*
X13178Y11331D01*
X13188Y11278D01*
X13208Y11228D01*
X13237Y11183D01*
X13274Y11144D01*
X13318Y11114D01*
X13367Y11092D01*
X13420Y11081D01*
X13473Y11080D01*
X13526Y11089D01*
X13576Y11108D01*
X13586Y11114D01*
X13584Y11110D01*
X13573Y11058D01*
X13572Y11004D01*
X13582Y10951D01*
X13601Y10901D01*
X13630Y10856D01*
X13668Y10818D01*
X13712Y10787D01*
X13761Y10766D01*
X13813Y10754D01*
X13867Y10753D01*
X13920Y10762D01*
X13970Y10782D01*
X14015Y10810D01*
X14054Y10847D01*
X14085Y10891D01*
X14107Y10940D01*
X14119Y10993D01*
X14120Y11054D01*
X14120Y8726D01*
X14097Y8726D01*
X14044Y8716D01*
X13994Y8696D01*
X13949Y8667D01*
X13911Y8629D01*
X13881Y8585D01*
X13859Y8535D01*
X13848Y8483D01*
X13848Y8429D01*
X13857Y8376D01*
X13877Y8327D01*
X13906Y8281D01*
X13943Y8243D01*
X13987Y8212D01*
X14037Y8191D01*
X14089Y8179D01*
X14143Y8178D01*
X14195Y8187D01*
X14246Y8207D01*
X14291Y8236D01*
X14330Y8273D01*
X14361Y8316D01*
X14382Y8365D01*
X14394Y8418D01*
X14395Y8479D01*
X14395Y4372D01*
X13785Y4372D01*
X13785Y10483D01*
X13775Y10536D01*
X13754Y10585D01*
X13724Y10630D01*
X13687Y10668D01*
X13642Y10698D01*
X13593Y10719D01*
X13540Y10730D01*
X13496Y10730D01*
X13487Y10776D01*
X13467Y10825D01*
X13437Y10870D01*
X13399Y10908D01*
X13355Y10938D01*
X13305Y10959D01*
X13253Y10970D01*
X13199Y10970D01*
X13146Y10960D01*
X13097Y10940D01*
X13052Y10911D01*
X13013Y10873D01*
X12983Y10829D01*
X12962Y10779D01*
X12951Y10727D01*
X12950Y10673D01*
X12960Y10621D01*
X12979Y10571D01*
X13008Y10526D01*
X13046Y10487D01*
X13090Y10456D01*
X13139Y10435D01*
X13191Y10423D01*
X13239Y10422D01*
X13247Y10380D01*
X13267Y10331D01*
X13296Y10285D01*
X13333Y10247D01*
X13377Y10216D01*
X13426Y10195D01*
X13479Y10183D01*
X13532Y10182D01*
X13585Y10191D01*
X13635Y10211D01*
X13681Y10240D01*
X13719Y10277D01*
X13750Y10320D01*
X13772Y10369D01*
X13784Y10422D01*
X13785Y10483D01*
X13785Y4372D01*
X13383Y4372D01*
X13383Y8566D01*
X13373Y8618D01*
X13352Y8668D01*
X13323Y8713D01*
X13285Y8751D01*
X13241Y8781D01*
X13191Y8802D01*
X13138Y8812D01*
X13085Y8813D01*
X13032Y8803D01*
X12982Y8783D01*
X12937Y8753D01*
X12899Y8716D01*
X12869Y8671D01*
X12848Y8622D01*
X12837Y8570D01*
X12836Y8516D01*
X12845Y8463D01*
X12865Y8413D01*
X12894Y8368D01*
X12932Y8329D01*
X12976Y8299D01*
X13025Y8277D01*
X13077Y8266D01*
X13131Y8265D01*
X13184Y8274D01*
X13234Y8293D01*
X13279Y8322D01*
X13318Y8359D01*
X13349Y8403D01*
X13371Y8452D01*
X13383Y8504D01*
X13383Y8566D01*
X13383Y4372D01*
X12750Y4372D01*
X12750Y17751D01*
X12739Y17803D01*
X12719Y17853D01*
X12689Y17898D01*
X12651Y17936D01*
X12607Y17966D01*
X12557Y17987D01*
X12505Y17997D01*
X12505Y21038D01*
X12495Y21091D01*
X12475Y21140D01*
X12445Y21185D01*
X12407Y21223D01*
X12363Y21253D01*
X12313Y21274D01*
X12261Y21285D01*
X12207Y21285D01*
X12154Y21275D01*
X12104Y21255D01*
X12060Y21226D01*
X12021Y21188D01*
X11991Y21144D01*
X11970Y21094D01*
X11959Y21042D01*
X11958Y20988D01*
X11967Y20936D01*
X11987Y20886D01*
X12016Y20841D01*
X12054Y20802D01*
X12098Y20771D01*
X12147Y20750D01*
X12199Y20738D01*
X12253Y20737D01*
X12306Y20746D01*
X12356Y20766D01*
X12401Y20795D01*
X12440Y20832D01*
X12471Y20876D01*
X12493Y20925D01*
X12505Y20977D01*
X12505Y21038D01*
X12505Y17997D01*
X12505Y17997D01*
X12451Y17998D01*
X12398Y17988D01*
X12348Y17968D01*
X12304Y17938D01*
X12265Y17901D01*
X12235Y17856D01*
X12214Y17807D01*
X12203Y17755D01*
X12202Y17701D01*
X12212Y17648D01*
X12231Y17598D01*
X12260Y17553D01*
X12298Y17515D01*
X12342Y17484D01*
X12391Y17462D01*
X12443Y17451D01*
X12497Y17450D01*
X12550Y17459D01*
X12600Y17478D01*
X12645Y17507D01*
X12684Y17544D01*
X12715Y17588D01*
X12737Y17637D01*
X12749Y17689D01*
X12750Y17751D01*
X12750Y4372D01*
X12683Y4372D01*
X12683Y6133D01*
X12672Y6185D01*
X12652Y6235D01*
X12622Y6280D01*
X12584Y6318D01*
X12540Y6348D01*
X12490Y6368D01*
X12450Y6377D01*
X12450Y12637D01*
X12440Y12689D01*
X12419Y12739D01*
X12390Y12784D01*
X12352Y12822D01*
X12307Y12852D01*
X12258Y12872D01*
X12205Y12883D01*
X12152Y12884D01*
X12099Y12873D01*
X12049Y12853D01*
X12004Y12824D01*
X11966Y12786D01*
X11936Y12742D01*
X11915Y12693D01*
X11903Y12640D01*
X11903Y12587D01*
X11912Y12534D01*
X11932Y12484D01*
X11961Y12439D01*
X11998Y12400D01*
X12043Y12370D01*
X12092Y12348D01*
X12144Y12337D01*
X12198Y12336D01*
X12251Y12345D01*
X12301Y12364D01*
X12346Y12393D01*
X12385Y12430D01*
X12416Y12474D01*
X12438Y12523D01*
X12449Y12575D01*
X12450Y12637D01*
X12450Y6377D01*
X12438Y6379D01*
X12384Y6380D01*
X12331Y6370D01*
X12282Y6349D01*
X12237Y6320D01*
X12198Y6283D01*
X12168Y6238D01*
X12151Y6199D01*
X12151Y8432D01*
X12141Y8484D01*
X12120Y8534D01*
X12091Y8579D01*
X12084Y8585D01*
X12084Y9042D01*
X12074Y9095D01*
X12053Y9144D01*
X12024Y9189D01*
X11986Y9227D01*
X11966Y9240D01*
X11966Y11837D01*
X11956Y11890D01*
X11935Y11940D01*
X11905Y11984D01*
X11868Y12022D01*
X11823Y12052D01*
X11776Y12072D01*
X11779Y12074D01*
X11818Y12111D01*
X11849Y12155D01*
X11871Y12204D01*
X11883Y12256D01*
X11883Y12318D01*
X11873Y12370D01*
X11852Y12420D01*
X11823Y12465D01*
X11785Y12503D01*
X11741Y12533D01*
X11691Y12553D01*
X11638Y12564D01*
X11585Y12565D01*
X11561Y12560D01*
X11561Y19885D01*
X11553Y19924D01*
X11553Y21436D01*
X11542Y21488D01*
X11522Y21538D01*
X11492Y21583D01*
X11454Y21621D01*
X11410Y21651D01*
X11360Y21672D01*
X11308Y21682D01*
X11254Y21683D01*
X11201Y21673D01*
X11152Y21653D01*
X11107Y21623D01*
X11068Y21586D01*
X11038Y21541D01*
X11033Y21529D01*
X11033Y23160D01*
X11023Y23213D01*
X11002Y23262D01*
X10972Y23307D01*
X10935Y23345D01*
X10890Y23375D01*
X10841Y23396D01*
X10788Y23407D01*
X10734Y23407D01*
X10682Y23397D01*
X10632Y23377D01*
X10587Y23348D01*
X10549Y23310D01*
X10518Y23266D01*
X10497Y23216D01*
X10486Y23164D01*
X10485Y23110D01*
X10495Y23058D01*
X10515Y23008D01*
X10544Y22963D01*
X10581Y22924D01*
X10625Y22893D01*
X10674Y22872D01*
X10727Y22860D01*
X10780Y22859D01*
X10833Y22869D01*
X10883Y22888D01*
X10929Y22917D01*
X10967Y22954D01*
X10998Y22998D01*
X11020Y23047D01*
X11032Y23099D01*
X11033Y23160D01*
X11033Y21529D01*
X11017Y21492D01*
X11006Y21440D01*
X11005Y21386D01*
X11015Y21333D01*
X11034Y21283D01*
X11064Y21238D01*
X11101Y21200D01*
X11145Y21169D01*
X11194Y21147D01*
X11246Y21136D01*
X11300Y21135D01*
X11353Y21144D01*
X11403Y21164D01*
X11448Y21192D01*
X11487Y21229D01*
X11518Y21273D01*
X11540Y21322D01*
X11552Y21374D01*
X11553Y21436D01*
X11553Y19924D01*
X11550Y19937D01*
X11530Y19987D01*
X11500Y20032D01*
X11462Y20070D01*
X11418Y20100D01*
X11368Y20120D01*
X11316Y20131D01*
X11262Y20132D01*
X11209Y20122D01*
X11160Y20101D01*
X11115Y20072D01*
X11076Y20034D01*
X11046Y19990D01*
X11025Y19941D01*
X11014Y19888D01*
X11013Y19835D01*
X11023Y19782D01*
X11042Y19732D01*
X11045Y19729D01*
X11022Y19720D01*
X10977Y19690D01*
X10938Y19653D01*
X10908Y19608D01*
X10887Y19559D01*
X10876Y19507D01*
X10875Y19453D01*
X10885Y19400D01*
X10905Y19350D01*
X10934Y19305D01*
X10971Y19266D01*
X11015Y19236D01*
X11064Y19214D01*
X11117Y19203D01*
X11170Y19202D01*
X11223Y19211D01*
X11273Y19230D01*
X11318Y19259D01*
X11357Y19296D01*
X11388Y19340D01*
X11410Y19389D01*
X11422Y19441D01*
X11423Y19503D01*
X11412Y19555D01*
X11392Y19605D01*
X11392Y19605D01*
X11411Y19612D01*
X11456Y19641D01*
X11495Y19678D01*
X11526Y19722D01*
X11548Y19771D01*
X11560Y19823D01*
X11561Y19885D01*
X11561Y12560D01*
X11532Y12555D01*
X11501Y12542D01*
X11501Y13562D01*
X11491Y13614D01*
X11471Y13664D01*
X11442Y13706D01*
X11442Y16270D01*
X11432Y16323D01*
X11412Y16373D01*
X11382Y16417D01*
X11344Y16455D01*
X11300Y16485D01*
X11250Y16506D01*
X11198Y16517D01*
X11144Y16517D01*
X11091Y16507D01*
X11041Y16487D01*
X10997Y16458D01*
X10958Y16420D01*
X10928Y16376D01*
X10923Y16364D01*
X10923Y18629D01*
X10912Y18681D01*
X10892Y18731D01*
X10862Y18776D01*
X10824Y18814D01*
X10780Y18844D01*
X10730Y18865D01*
X10678Y18875D01*
X10624Y18876D01*
X10571Y18866D01*
X10522Y18846D01*
X10477Y18816D01*
X10438Y18779D01*
X10408Y18734D01*
X10387Y18685D01*
X10376Y18633D01*
X10375Y18579D01*
X10385Y18526D01*
X10405Y18476D01*
X10434Y18431D01*
X10471Y18392D01*
X10515Y18362D01*
X10564Y18340D01*
X10617Y18329D01*
X10670Y18328D01*
X10723Y18337D01*
X10773Y18356D01*
X10818Y18385D01*
X10857Y18422D01*
X10888Y18466D01*
X10910Y18515D01*
X10922Y18567D01*
X10923Y18629D01*
X10923Y16364D01*
X10907Y16327D01*
X10896Y16274D01*
X10895Y16221D01*
X10904Y16168D01*
X10924Y16118D01*
X10953Y16073D01*
X10991Y16034D01*
X11035Y16004D01*
X11084Y15982D01*
X11136Y15971D01*
X11190Y15969D01*
X11243Y15979D01*
X11293Y15998D01*
X11338Y16027D01*
X11377Y16064D01*
X11408Y16108D01*
X11430Y16157D01*
X11442Y16209D01*
X11442Y16270D01*
X11442Y13706D01*
X11441Y13709D01*
X11403Y13747D01*
X11359Y13777D01*
X11325Y13791D01*
X11335Y13835D01*
X11336Y13896D01*
X11326Y13949D01*
X11305Y13999D01*
X11276Y14043D01*
X11238Y14081D01*
X11215Y14097D01*
X11237Y14145D01*
X11249Y14197D01*
X11250Y14259D01*
X11239Y14311D01*
X11219Y14361D01*
X11189Y14406D01*
X11151Y14444D01*
X11107Y14474D01*
X11057Y14494D01*
X11005Y14505D01*
X10951Y14506D01*
X10898Y14496D01*
X10848Y14475D01*
X10804Y14446D01*
X10765Y14409D01*
X10735Y14364D01*
X10714Y14315D01*
X10703Y14262D01*
X10702Y14209D01*
X10712Y14156D01*
X10731Y14106D01*
X10760Y14061D01*
X10798Y14022D01*
X10823Y14005D01*
X10822Y14002D01*
X10800Y13953D01*
X10789Y13900D01*
X10789Y13847D01*
X10798Y13794D01*
X10818Y13744D01*
X10847Y13699D01*
X10884Y13660D01*
X10928Y13630D01*
X10965Y13614D01*
X10955Y13566D01*
X10954Y13512D01*
X10964Y13459D01*
X10983Y13409D01*
X11012Y13364D01*
X11050Y13326D01*
X11094Y13295D01*
X11143Y13273D01*
X11195Y13262D01*
X11249Y13261D01*
X11302Y13270D01*
X11352Y13290D01*
X11397Y13318D01*
X11436Y13355D01*
X11467Y13399D01*
X11489Y13448D01*
X11501Y13500D01*
X11501Y13562D01*
X11501Y12542D01*
X11482Y12534D01*
X11437Y12505D01*
X11399Y12468D01*
X11369Y12423D01*
X11348Y12375D01*
X11348Y12459D01*
X11338Y12512D01*
X11317Y12562D01*
X11287Y12606D01*
X11250Y12644D01*
X11205Y12674D01*
X11156Y12695D01*
X11103Y12706D01*
X11049Y12706D01*
X10997Y12696D01*
X10947Y12676D01*
X10902Y12647D01*
X10864Y12609D01*
X10833Y12565D01*
X10818Y12530D01*
X10782Y12546D01*
X10729Y12556D01*
X10675Y12557D01*
X10623Y12547D01*
X10588Y12533D01*
X10588Y17121D01*
X10578Y17173D01*
X10557Y17223D01*
X10528Y17268D01*
X10490Y17306D01*
X10445Y17336D01*
X10396Y17357D01*
X10343Y17367D01*
X10301Y17368D01*
X10301Y17688D01*
X10290Y17740D01*
X10270Y17790D01*
X10240Y17835D01*
X10202Y17873D01*
X10158Y17903D01*
X10108Y17924D01*
X10056Y17934D01*
X10002Y17935D01*
X9949Y17925D01*
X9900Y17905D01*
X9855Y17875D01*
X9832Y17853D01*
X9832Y20833D01*
X9822Y20886D01*
X9801Y20936D01*
X9772Y20980D01*
X9734Y21018D01*
X9689Y21048D01*
X9640Y21069D01*
X9596Y21078D01*
X9596Y22833D01*
X9584Y22894D01*
X9561Y22950D01*
X9527Y23001D01*
X9483Y23045D01*
X9433Y23079D01*
X9376Y23103D01*
X9316Y23115D01*
X9254Y23116D01*
X9194Y23104D01*
X9137Y23081D01*
X9086Y23048D01*
X9042Y23005D01*
X9007Y22954D01*
X8983Y22898D01*
X8970Y22838D01*
X8970Y22776D01*
X8981Y22716D01*
X9003Y22659D01*
X9036Y22607D01*
X9079Y22563D01*
X9130Y22528D01*
X9186Y22504D01*
X9246Y22490D01*
X9307Y22489D01*
X9368Y22500D01*
X9425Y22522D01*
X9477Y22555D01*
X9521Y22597D01*
X9556Y22647D01*
X9581Y22703D01*
X9595Y22763D01*
X9596Y22833D01*
X9596Y21078D01*
X9587Y21080D01*
X9534Y21080D01*
X9481Y21070D01*
X9431Y21050D01*
X9386Y21021D01*
X9348Y20983D01*
X9318Y20939D01*
X9296Y20890D01*
X9285Y20837D01*
X9285Y20784D01*
X9294Y20731D01*
X9314Y20681D01*
X9343Y20636D01*
X9380Y20597D01*
X9424Y20567D01*
X9474Y20545D01*
X9526Y20534D01*
X9580Y20532D01*
X9632Y20542D01*
X9683Y20561D01*
X9728Y20590D01*
X9767Y20627D01*
X9798Y20671D01*
X9819Y20720D01*
X9831Y20772D01*
X9832Y20833D01*
X9832Y17853D01*
X9816Y17838D01*
X9786Y17793D01*
X9765Y17744D01*
X9754Y17692D01*
X9753Y17638D01*
X9763Y17585D01*
X9783Y17535D01*
X9812Y17490D01*
X9849Y17452D01*
X9893Y17421D01*
X9942Y17399D01*
X9995Y17388D01*
X10048Y17387D01*
X10101Y17396D01*
X10151Y17416D01*
X10196Y17444D01*
X10235Y17481D01*
X10266Y17525D01*
X10288Y17574D01*
X10300Y17626D01*
X10301Y17688D01*
X10301Y17368D01*
X10290Y17368D01*
X10237Y17358D01*
X10187Y17338D01*
X10142Y17308D01*
X10104Y17271D01*
X10074Y17226D01*
X10052Y17177D01*
X10041Y17125D01*
X10040Y17071D01*
X10050Y17018D01*
X10070Y16968D01*
X10099Y16923D01*
X10136Y16885D01*
X10180Y16854D01*
X10229Y16832D01*
X10282Y16821D01*
X10336Y16820D01*
X10388Y16829D01*
X10438Y16849D01*
X10484Y16877D01*
X10523Y16914D01*
X10554Y16958D01*
X10575Y17007D01*
X10587Y17060D01*
X10588Y17121D01*
X10588Y12533D01*
X10573Y12527D01*
X10528Y12497D01*
X10490Y12460D01*
X10459Y12415D01*
X10438Y12366D01*
X10427Y12314D01*
X10426Y12260D01*
X10436Y12207D01*
X10456Y12157D01*
X10485Y12112D01*
X10522Y12074D01*
X10566Y12043D01*
X10615Y12021D01*
X10668Y12010D01*
X10721Y12009D01*
X10774Y12018D01*
X10824Y12038D01*
X10870Y12066D01*
X10908Y12103D01*
X10939Y12147D01*
X10956Y12185D01*
X10989Y12171D01*
X11042Y12160D01*
X11095Y12158D01*
X11148Y12168D01*
X11198Y12187D01*
X11244Y12216D01*
X11282Y12253D01*
X11313Y12297D01*
X11335Y12346D01*
X11347Y12398D01*
X11348Y12459D01*
X11348Y12375D01*
X11348Y12374D01*
X11337Y12321D01*
X11336Y12268D01*
X11345Y12215D01*
X11365Y12165D01*
X11394Y12120D01*
X11432Y12081D01*
X11476Y12051D01*
X11525Y12029D01*
X11527Y12029D01*
X11520Y12025D01*
X11482Y11987D01*
X11451Y11943D01*
X11430Y11894D01*
X11419Y11841D01*
X11418Y11788D01*
X11428Y11735D01*
X11448Y11685D01*
X11477Y11640D01*
X11514Y11601D01*
X11558Y11571D01*
X11607Y11549D01*
X11660Y11538D01*
X11714Y11536D01*
X11766Y11546D01*
X11816Y11565D01*
X11862Y11594D01*
X11901Y11631D01*
X11931Y11675D01*
X11953Y11724D01*
X11965Y11776D01*
X11966Y11837D01*
X11966Y9240D01*
X11941Y9257D01*
X11892Y9278D01*
X11839Y9289D01*
X11786Y9289D01*
X11733Y9279D01*
X11683Y9259D01*
X11638Y9230D01*
X11600Y9192D01*
X11570Y9148D01*
X11548Y9098D01*
X11537Y9046D01*
X11537Y8992D01*
X11546Y8939D01*
X11566Y8890D01*
X11595Y8844D01*
X11632Y8806D01*
X11676Y8775D01*
X11726Y8754D01*
X11778Y8742D01*
X11832Y8741D01*
X11884Y8750D01*
X11934Y8770D01*
X11980Y8799D01*
X12019Y8836D01*
X12050Y8879D01*
X12071Y8928D01*
X12083Y8981D01*
X12084Y9042D01*
X12084Y8585D01*
X12053Y8617D01*
X12008Y8647D01*
X11959Y8668D01*
X11906Y8678D01*
X11853Y8679D01*
X11800Y8669D01*
X11750Y8649D01*
X11705Y8619D01*
X11667Y8582D01*
X11637Y8537D01*
X11615Y8488D01*
X11604Y8436D01*
X11603Y8382D01*
X11613Y8329D01*
X11633Y8279D01*
X11662Y8234D01*
X11699Y8196D01*
X11743Y8165D01*
X11792Y8144D01*
X11845Y8132D01*
X11899Y8131D01*
X11951Y8140D01*
X12001Y8160D01*
X12047Y8188D01*
X12086Y8225D01*
X12117Y8269D01*
X12138Y8318D01*
X12150Y8371D01*
X12151Y8432D01*
X12151Y6199D01*
X12147Y6189D01*
X12136Y6136D01*
X12135Y6083D01*
X12145Y6030D01*
X12164Y5980D01*
X12193Y5935D01*
X12231Y5896D01*
X12275Y5866D01*
X12324Y5844D01*
X12376Y5833D01*
X12430Y5832D01*
X12483Y5841D01*
X12533Y5860D01*
X12578Y5889D01*
X12617Y5926D01*
X12648Y5970D01*
X12670Y6019D01*
X12682Y6071D01*
X12683Y6133D01*
X12683Y4372D01*
X11915Y4372D01*
X11915Y7861D01*
X11904Y7914D01*
X11884Y7963D01*
X11854Y8008D01*
X11816Y8046D01*
X11772Y8076D01*
X11723Y8097D01*
X11670Y8108D01*
X11616Y8108D01*
X11564Y8098D01*
X11514Y8078D01*
X11469Y8048D01*
X11431Y8011D01*
X11400Y7967D01*
X11379Y7917D01*
X11368Y7865D01*
X11367Y7811D01*
X11377Y7758D01*
X11397Y7708D01*
X11426Y7663D01*
X11463Y7625D01*
X11507Y7594D01*
X11556Y7573D01*
X11609Y7561D01*
X11662Y7560D01*
X11715Y7569D01*
X11765Y7589D01*
X11811Y7617D01*
X11849Y7654D01*
X11880Y7698D01*
X11902Y7747D01*
X11914Y7800D01*
X11915Y7861D01*
X11915Y4372D01*
X9915Y4372D01*
X9915Y6475D01*
X9911Y6495D01*
X9911Y16491D01*
X9901Y16544D01*
X9880Y16593D01*
X9850Y16638D01*
X9824Y16665D01*
X9825Y16667D01*
X9847Y16716D01*
X9859Y16768D01*
X9860Y16829D01*
X9849Y16882D01*
X9829Y16932D01*
X9799Y16976D01*
X9761Y17014D01*
X9717Y17045D01*
X9667Y17065D01*
X9615Y17076D01*
X9561Y17076D01*
X9508Y17066D01*
X9459Y17046D01*
X9414Y17017D01*
X9375Y16979D01*
X9345Y16935D01*
X9324Y16886D01*
X9313Y16833D01*
X9312Y16780D01*
X9322Y16727D01*
X9326Y16716D01*
X9316Y16718D01*
X9262Y16718D01*
X9209Y16708D01*
X9160Y16688D01*
X9115Y16659D01*
X9076Y16621D01*
X9046Y16577D01*
X9025Y16528D01*
X9014Y16475D01*
X9013Y16421D01*
X9023Y16369D01*
X9042Y16319D01*
X9071Y16274D01*
X9109Y16235D01*
X9153Y16204D01*
X9202Y16183D01*
X9254Y16171D01*
X9308Y16170D01*
X9361Y16180D01*
X9411Y16199D01*
X9456Y16228D01*
X9474Y16244D01*
X9503Y16224D01*
X9552Y16203D01*
X9605Y16191D01*
X9658Y16190D01*
X9711Y16199D01*
X9761Y16219D01*
X9807Y16247D01*
X9845Y16284D01*
X9876Y16328D01*
X9898Y16377D01*
X9910Y16430D01*
X9911Y16491D01*
X9911Y6495D01*
X9904Y6528D01*
X9884Y6577D01*
X9854Y6622D01*
X9816Y6660D01*
X9772Y6690D01*
X9723Y6711D01*
X9670Y6722D01*
X9616Y6722D01*
X9564Y6712D01*
X9541Y6703D01*
X9541Y12459D01*
X9530Y12512D01*
X9510Y12562D01*
X9480Y12606D01*
X9470Y12617D01*
X9470Y14007D01*
X9460Y14059D01*
X9439Y14109D01*
X9409Y14154D01*
X9372Y14192D01*
X9327Y14222D01*
X9278Y14242D01*
X9225Y14253D01*
X9171Y14254D01*
X9119Y14244D01*
X9069Y14223D01*
X9024Y14194D01*
X8986Y14157D01*
X8955Y14112D01*
X8934Y14063D01*
X8923Y14010D01*
X8922Y13957D01*
X8932Y13904D01*
X8952Y13854D01*
X8981Y13809D01*
X9018Y13770D01*
X9062Y13740D01*
X9111Y13718D01*
X9164Y13707D01*
X9217Y13706D01*
X9270Y13715D01*
X9320Y13734D01*
X9366Y13763D01*
X9404Y13800D01*
X9435Y13844D01*
X9457Y13893D01*
X9469Y13945D01*
X9470Y14007D01*
X9470Y12617D01*
X9442Y12644D01*
X9398Y12674D01*
X9349Y12695D01*
X9296Y12706D01*
X9242Y12706D01*
X9190Y12696D01*
X9140Y12676D01*
X9095Y12647D01*
X9057Y12609D01*
X9026Y12565D01*
X9005Y12516D01*
X8994Y12463D01*
X8993Y12410D01*
X9003Y12357D01*
X9023Y12307D01*
X9052Y12262D01*
X9089Y12223D01*
X9133Y12193D01*
X9182Y12171D01*
X9235Y12160D01*
X9288Y12158D01*
X9341Y12168D01*
X9391Y12187D01*
X9436Y12216D01*
X9475Y12253D01*
X9506Y12297D01*
X9528Y12346D01*
X9540Y12398D01*
X9541Y12459D01*
X9541Y6703D01*
X9514Y6692D01*
X9469Y6663D01*
X9431Y6625D01*
X9400Y6581D01*
X9379Y6531D01*
X9368Y6479D01*
X9367Y6425D01*
X9377Y6373D01*
X9397Y6323D01*
X9426Y6278D01*
X9463Y6239D01*
X9507Y6208D01*
X9556Y6187D01*
X9609Y6175D01*
X9662Y6174D01*
X9715Y6184D01*
X9765Y6203D01*
X9811Y6232D01*
X9849Y6269D01*
X9880Y6313D01*
X9902Y6362D01*
X9914Y6414D01*
X9915Y6475D01*
X9915Y4372D01*
X8931Y4372D01*
X8931Y6424D01*
X8920Y6477D01*
X8919Y6480D01*
X8919Y12471D01*
X8908Y12524D01*
X8888Y12573D01*
X8858Y12618D01*
X8828Y12648D01*
X8828Y14782D01*
X8818Y14835D01*
X8797Y14884D01*
X8768Y14929D01*
X8730Y14967D01*
X8685Y14997D01*
X8636Y15018D01*
X8583Y15029D01*
X8545Y15029D01*
X8545Y15790D01*
X8534Y15843D01*
X8514Y15892D01*
X8505Y15905D01*
X8505Y21129D01*
X8495Y21181D01*
X8475Y21231D01*
X8445Y21276D01*
X8407Y21314D01*
X8363Y21344D01*
X8313Y21365D01*
X8261Y21375D01*
X8207Y21376D01*
X8154Y21366D01*
X8104Y21346D01*
X8060Y21316D01*
X8021Y21279D01*
X7991Y21234D01*
X7970Y21185D01*
X7959Y21133D01*
X7958Y21079D01*
X7967Y21026D01*
X7987Y20976D01*
X8016Y20931D01*
X8054Y20892D01*
X8098Y20862D01*
X8147Y20840D01*
X8199Y20829D01*
X8253Y20828D01*
X8306Y20837D01*
X8356Y20856D01*
X8401Y20885D01*
X8440Y20922D01*
X8471Y20966D01*
X8493Y21015D01*
X8505Y21067D01*
X8505Y21129D01*
X8505Y15905D01*
X8484Y15937D01*
X8446Y15975D01*
X8402Y16005D01*
X8352Y16026D01*
X8300Y16037D01*
X8246Y16037D01*
X8194Y16027D01*
X8160Y16013D01*
X8166Y16040D01*
X8167Y16101D01*
X8156Y16154D01*
X8136Y16203D01*
X8106Y16248D01*
X8079Y16275D01*
X8097Y16301D01*
X8119Y16350D01*
X8131Y16402D01*
X8131Y16463D01*
X8121Y16516D01*
X8112Y16538D01*
X8123Y16533D01*
X8176Y16522D01*
X8229Y16521D01*
X8282Y16530D01*
X8332Y16549D01*
X8377Y16578D01*
X8416Y16615D01*
X8447Y16659D01*
X8469Y16708D01*
X8481Y16760D01*
X8482Y16822D01*
X8471Y16874D01*
X8451Y16924D01*
X8421Y16969D01*
X8383Y17007D01*
X8339Y17037D01*
X8289Y17057D01*
X8237Y17068D01*
X8183Y17069D01*
X8131Y17059D01*
X8081Y17038D01*
X8047Y17016D01*
X8047Y17190D01*
X8042Y17216D01*
X8031Y17241D01*
X8017Y17263D01*
X7998Y17282D01*
X7573Y17707D01*
X7572Y17707D01*
X7572Y22290D01*
X7562Y22343D01*
X7541Y22392D01*
X7512Y22437D01*
X7474Y22475D01*
X7429Y22505D01*
X7380Y22526D01*
X7327Y22537D01*
X7274Y22537D01*
X7221Y22527D01*
X7171Y22507D01*
X7126Y22478D01*
X7088Y22440D01*
X7058Y22396D01*
X7037Y22346D01*
X7025Y22294D01*
X7025Y22240D01*
X7034Y22187D01*
X7054Y22138D01*
X7083Y22092D01*
X7121Y22054D01*
X7165Y22023D01*
X7214Y22002D01*
X7266Y21990D01*
X7320Y21989D01*
X7373Y21998D01*
X7423Y22018D01*
X7468Y22047D01*
X7507Y22084D01*
X7538Y22127D01*
X7560Y22176D01*
X7571Y22229D01*
X7572Y22290D01*
X7572Y17707D01*
X7551Y17722D01*
X7526Y17732D01*
X7500Y17737D01*
X7474Y17737D01*
X7447Y17732D01*
X7423Y17722D01*
X7401Y17707D01*
X7382Y17689D01*
X7217Y17524D01*
X7217Y17885D01*
X7209Y17969D01*
X7185Y18051D01*
X7145Y18126D01*
X7092Y18192D01*
X7026Y18247D01*
X6952Y18287D01*
X6870Y18313D01*
X6786Y18322D01*
X6701Y18314D01*
X6619Y18291D01*
X6544Y18252D01*
X6477Y18199D01*
X6473Y18194D01*
X6444Y18165D01*
X6449Y18189D01*
X6450Y18251D01*
X6440Y18303D01*
X6419Y18353D01*
X6390Y18398D01*
X6352Y18436D01*
X6307Y18466D01*
X6258Y18487D01*
X6234Y18492D01*
X6234Y23310D01*
X6222Y23370D01*
X6198Y23427D01*
X6164Y23478D01*
X6121Y23521D01*
X6070Y23556D01*
X6014Y23579D01*
X5954Y23592D01*
X5892Y23592D01*
X5832Y23581D01*
X5775Y23558D01*
X5724Y23524D01*
X5680Y23481D01*
X5645Y23431D01*
X5621Y23374D01*
X5608Y23314D01*
X5607Y23253D01*
X5618Y23192D01*
X5641Y23135D01*
X5674Y23084D01*
X5717Y23040D01*
X5767Y23004D01*
X5824Y22980D01*
X5884Y22967D01*
X5945Y22965D01*
X6005Y22976D01*
X6063Y22998D01*
X6114Y23031D01*
X6159Y23074D01*
X6194Y23124D01*
X6219Y23180D01*
X6233Y23240D01*
X6234Y23310D01*
X6234Y18492D01*
X6205Y18497D01*
X6152Y18498D01*
X6099Y18488D01*
X6049Y18468D01*
X6013Y18444D01*
X6013Y20822D01*
X6001Y20882D01*
X5978Y20938D01*
X5944Y20990D01*
X5901Y21033D01*
X5850Y21067D01*
X5818Y21081D01*
X5837Y21108D01*
X5859Y21157D01*
X5871Y21209D01*
X5872Y21270D01*
X5861Y21323D01*
X5841Y21373D01*
X5811Y21417D01*
X5773Y21455D01*
X5729Y21485D01*
X5679Y21506D01*
X5627Y21517D01*
X5573Y21517D01*
X5520Y21507D01*
X5471Y21487D01*
X5426Y21458D01*
X5387Y21420D01*
X5357Y21376D01*
X5336Y21327D01*
X5325Y21274D01*
X5324Y21221D01*
X5334Y21168D01*
X5353Y21118D01*
X5382Y21073D01*
X5420Y21034D01*
X5464Y21004D01*
X5468Y21002D01*
X5459Y20993D01*
X5425Y20942D01*
X5401Y20886D01*
X5388Y20826D01*
X5387Y20765D01*
X5398Y20704D01*
X5421Y20647D01*
X5454Y20595D01*
X5496Y20551D01*
X5547Y20516D01*
X5603Y20492D01*
X5663Y20479D01*
X5724Y20477D01*
X5785Y20488D01*
X5842Y20510D01*
X5894Y20543D01*
X5938Y20585D01*
X5974Y20635D01*
X5999Y20692D01*
X6012Y20751D01*
X6013Y20822D01*
X6013Y18444D01*
X6004Y18438D01*
X5966Y18401D01*
X5936Y18356D01*
X5915Y18307D01*
X5903Y18255D01*
X5903Y18201D01*
X5912Y18148D01*
X5932Y18098D01*
X5961Y18053D01*
X5998Y18015D01*
X6043Y17984D01*
X6092Y17962D01*
X6144Y17951D01*
X6198Y17950D01*
X6245Y17958D01*
X6227Y17937D01*
X6187Y17862D01*
X6162Y17780D01*
X6154Y17696D01*
X6158Y17651D01*
X6136Y17651D01*
X6076Y17640D01*
X6019Y17617D01*
X5968Y17583D01*
X5924Y17540D01*
X5889Y17490D01*
X5865Y17433D01*
X5852Y17373D01*
X5851Y17312D01*
X5863Y17251D01*
X5885Y17194D01*
X5918Y17143D01*
X5961Y17099D01*
X6011Y17064D01*
X6068Y17039D01*
X6128Y17026D01*
X6189Y17025D01*
X6249Y17035D01*
X6307Y17057D01*
X6358Y17090D01*
X6403Y17133D01*
X6438Y17183D01*
X6463Y17239D01*
X6472Y17276D01*
X6500Y17267D01*
X6585Y17258D01*
X6669Y17266D01*
X6751Y17289D01*
X6827Y17329D01*
X6893Y17382D01*
X6898Y17386D01*
X7089Y17578D01*
X7143Y17644D01*
X7184Y17719D01*
X7209Y17800D01*
X7217Y17885D01*
X7217Y17524D01*
X6769Y17076D01*
X6754Y17053D01*
X6744Y17029D01*
X6738Y17003D01*
X6738Y16976D01*
X6743Y16950D01*
X6753Y16925D01*
X6768Y16903D01*
X6787Y16884D01*
X7212Y16459D01*
X7234Y16444D01*
X7258Y16434D01*
X7285Y16429D01*
X7311Y16429D01*
X7337Y16434D01*
X7362Y16444D01*
X7384Y16459D01*
X7403Y16477D01*
X8016Y17090D01*
X8031Y17113D01*
X8041Y17137D01*
X8047Y17163D01*
X8047Y17190D01*
X8047Y17016D01*
X8036Y17009D01*
X7998Y16972D01*
X7967Y16927D01*
X7946Y16878D01*
X7935Y16825D01*
X7934Y16772D01*
X7944Y16719D01*
X7954Y16693D01*
X7939Y16699D01*
X7887Y16710D01*
X7833Y16710D01*
X7780Y16700D01*
X7730Y16680D01*
X7685Y16651D01*
X7647Y16613D01*
X7617Y16569D01*
X7596Y16520D01*
X7585Y16467D01*
X7584Y16414D01*
X7593Y16361D01*
X7613Y16311D01*
X7642Y16266D01*
X7672Y16235D01*
X7652Y16207D01*
X7631Y16157D01*
X7620Y16105D01*
X7619Y16051D01*
X7629Y15999D01*
X7649Y15949D01*
X7678Y15904D01*
X7715Y15865D01*
X7759Y15834D01*
X7808Y15813D01*
X7861Y15801D01*
X7914Y15800D01*
X7967Y15809D01*
X8004Y15824D01*
X7998Y15794D01*
X7997Y15740D01*
X8007Y15687D01*
X8027Y15638D01*
X8056Y15592D01*
X8093Y15554D01*
X8137Y15523D01*
X8186Y15502D01*
X8239Y15490D01*
X8292Y15489D01*
X8345Y15498D01*
X8395Y15518D01*
X8440Y15547D01*
X8479Y15584D01*
X8510Y15627D01*
X8532Y15676D01*
X8544Y15729D01*
X8545Y15790D01*
X8545Y15029D01*
X8530Y15029D01*
X8477Y15019D01*
X8427Y14999D01*
X8382Y14970D01*
X8344Y14932D01*
X8314Y14888D01*
X8293Y14839D01*
X8281Y14786D01*
X8281Y14732D01*
X8290Y14680D01*
X8310Y14630D01*
X8339Y14585D01*
X8345Y14579D01*
X8328Y14562D01*
X8298Y14518D01*
X8277Y14468D01*
X8266Y14416D01*
X8265Y14362D01*
X8275Y14310D01*
X8294Y14260D01*
X8323Y14215D01*
X8361Y14176D01*
X8405Y14145D01*
X8454Y14124D01*
X8506Y14112D01*
X8560Y14111D01*
X8613Y14121D01*
X8663Y14140D01*
X8708Y14169D01*
X8747Y14206D01*
X8778Y14250D01*
X8800Y14299D01*
X8812Y14351D01*
X8813Y14412D01*
X8802Y14465D01*
X8782Y14514D01*
X8752Y14559D01*
X8749Y14562D01*
X8763Y14576D01*
X8794Y14620D01*
X8816Y14669D01*
X8827Y14721D01*
X8828Y14782D01*
X8828Y12648D01*
X8820Y12656D01*
X8776Y12686D01*
X8726Y12707D01*
X8674Y12718D01*
X8620Y12718D01*
X8568Y12708D01*
X8518Y12688D01*
X8473Y12659D01*
X8435Y12621D01*
X8404Y12577D01*
X8383Y12528D01*
X8372Y12475D01*
X8371Y12421D01*
X8381Y12369D01*
X8401Y12319D01*
X8430Y12274D01*
X8467Y12235D01*
X8511Y12204D01*
X8560Y12183D01*
X8613Y12171D01*
X8666Y12170D01*
X8719Y12180D01*
X8769Y12199D01*
X8814Y12228D01*
X8853Y12265D01*
X8884Y12309D01*
X8906Y12358D01*
X8918Y12410D01*
X8919Y12471D01*
X8919Y6480D01*
X8900Y6526D01*
X8870Y6571D01*
X8832Y6609D01*
X8788Y6639D01*
X8738Y6660D01*
X8686Y6671D01*
X8632Y6671D01*
X8579Y6661D01*
X8530Y6641D01*
X8485Y6611D01*
X8446Y6574D01*
X8416Y6530D01*
X8395Y6480D01*
X8384Y6428D01*
X8383Y6374D01*
X8393Y6321D01*
X8412Y6271D01*
X8442Y6226D01*
X8479Y6188D01*
X8523Y6157D01*
X8572Y6136D01*
X8624Y6124D01*
X8678Y6123D01*
X8731Y6132D01*
X8781Y6152D01*
X8826Y6180D01*
X8865Y6217D01*
X8896Y6261D01*
X8918Y6310D01*
X8930Y6363D01*
X8931Y6424D01*
X8931Y4372D01*
X8238Y4372D01*
X8238Y14967D01*
X8227Y15020D01*
X8207Y15070D01*
X8177Y15114D01*
X8139Y15152D01*
X8095Y15182D01*
X8045Y15203D01*
X7993Y15214D01*
X7939Y15214D01*
X7886Y15204D01*
X7837Y15184D01*
X7792Y15155D01*
X7753Y15117D01*
X7723Y15073D01*
X7702Y15024D01*
X7691Y14971D01*
X7690Y14917D01*
X7700Y14865D01*
X7720Y14815D01*
X7749Y14770D01*
X7786Y14731D01*
X7830Y14700D01*
X7879Y14679D01*
X7932Y14667D01*
X7985Y14666D01*
X8038Y14676D01*
X8088Y14695D01*
X8133Y14724D01*
X8172Y14761D01*
X8203Y14805D01*
X8225Y14854D01*
X8237Y14906D01*
X8238Y14967D01*
X8238Y4372D01*
X8179Y4372D01*
X8179Y12522D01*
X8168Y12575D01*
X8148Y12625D01*
X8118Y12669D01*
X8080Y12707D01*
X8036Y12737D01*
X7986Y12758D01*
X7934Y12769D01*
X7880Y12769D01*
X7827Y12759D01*
X7778Y12739D01*
X7733Y12710D01*
X7694Y12672D01*
X7664Y12628D01*
X7643Y12579D01*
X7632Y12526D01*
X7631Y12473D01*
X7641Y12420D01*
X7660Y12370D01*
X7690Y12325D01*
X7727Y12286D01*
X7771Y12256D01*
X7820Y12234D01*
X7872Y12223D01*
X7926Y12221D01*
X7979Y12231D01*
X8029Y12250D01*
X8074Y12279D01*
X8113Y12316D01*
X8144Y12360D01*
X8166Y12409D01*
X8178Y12461D01*
X8179Y12522D01*
X8179Y4372D01*
X8171Y4372D01*
X8171Y7503D01*
X8160Y7555D01*
X8140Y7605D01*
X8110Y7650D01*
X8072Y7688D01*
X8028Y7718D01*
X7982Y7737D01*
X7982Y9837D01*
X7971Y9890D01*
X7951Y9940D01*
X7921Y9984D01*
X7883Y10022D01*
X7839Y10052D01*
X7789Y10073D01*
X7737Y10084D01*
X7683Y10084D01*
X7671Y10082D01*
X7671Y11329D01*
X7660Y11382D01*
X7640Y11432D01*
X7610Y11476D01*
X7572Y11514D01*
X7528Y11545D01*
X7478Y11565D01*
X7426Y11576D01*
X7372Y11576D01*
X7320Y11566D01*
X7301Y11559D01*
X7301Y11983D01*
X7290Y12036D01*
X7270Y12085D01*
X7240Y12130D01*
X7202Y12168D01*
X7183Y12181D01*
X7183Y12652D01*
X7172Y12705D01*
X7152Y12755D01*
X7122Y12799D01*
X7084Y12837D01*
X7040Y12867D01*
X7005Y12882D01*
X7005Y13452D01*
X6995Y13504D01*
X6975Y13554D01*
X6945Y13598D01*
X6907Y13637D01*
X6872Y13660D01*
X6872Y14952D01*
X6861Y15004D01*
X6841Y15054D01*
X6811Y15098D01*
X6773Y15137D01*
X6769Y15139D01*
X6769Y15613D01*
X6759Y15666D01*
X6738Y15715D01*
X6709Y15760D01*
X6671Y15798D01*
X6626Y15828D01*
X6577Y15849D01*
X6524Y15860D01*
X6471Y15860D01*
X6418Y15850D01*
X6368Y15830D01*
X6323Y15800D01*
X6285Y15763D01*
X6255Y15719D01*
X6233Y15669D01*
X6222Y15617D01*
X6222Y15563D01*
X6231Y15510D01*
X6251Y15460D01*
X6280Y15415D01*
X6317Y15377D01*
X6361Y15346D01*
X6411Y15325D01*
X6463Y15313D01*
X6517Y15312D01*
X6570Y15321D01*
X6620Y15341D01*
X6665Y15369D01*
X6704Y15406D01*
X6735Y15450D01*
X6756Y15499D01*
X6768Y15552D01*
X6769Y15613D01*
X6769Y15139D01*
X6729Y15167D01*
X6679Y15187D01*
X6627Y15198D01*
X6573Y15199D01*
X6520Y15188D01*
X6471Y15168D01*
X6426Y15139D01*
X6387Y15101D01*
X6357Y15057D01*
X6336Y15008D01*
X6325Y14955D01*
X6324Y14902D01*
X6334Y14849D01*
X6353Y14799D01*
X6382Y14754D01*
X6420Y14715D01*
X6464Y14685D01*
X6513Y14663D01*
X6565Y14652D01*
X6619Y14651D01*
X6672Y14660D01*
X6722Y14679D01*
X6767Y14708D01*
X6806Y14745D01*
X6837Y14789D01*
X6859Y14838D01*
X6871Y14890D01*
X6872Y14952D01*
X6872Y13660D01*
X6863Y13667D01*
X6813Y13687D01*
X6761Y13698D01*
X6707Y13699D01*
X6654Y13688D01*
X6604Y13668D01*
X6560Y13639D01*
X6521Y13601D01*
X6491Y13557D01*
X6470Y13508D01*
X6459Y13455D01*
X6458Y13402D01*
X6467Y13349D01*
X6487Y13299D01*
X6516Y13254D01*
X6554Y13215D01*
X6598Y13185D01*
X6647Y13163D01*
X6699Y13152D01*
X6753Y13151D01*
X6806Y13160D01*
X6856Y13179D01*
X6901Y13208D01*
X6940Y13245D01*
X6971Y13289D01*
X6993Y13338D01*
X7005Y13390D01*
X7005Y13452D01*
X7005Y12882D01*
X6990Y12888D01*
X6938Y12899D01*
X6884Y12899D01*
X6831Y12889D01*
X6782Y12869D01*
X6737Y12840D01*
X6698Y12802D01*
X6668Y12758D01*
X6647Y12709D01*
X6636Y12656D01*
X6635Y12602D01*
X6645Y12550D01*
X6664Y12500D01*
X6693Y12455D01*
X6731Y12416D01*
X6775Y12385D01*
X6824Y12364D01*
X6876Y12352D01*
X6930Y12351D01*
X6983Y12361D01*
X7033Y12380D01*
X7078Y12409D01*
X7117Y12446D01*
X7148Y12490D01*
X7170Y12539D01*
X7182Y12591D01*
X7183Y12652D01*
X7183Y12181D01*
X7158Y12198D01*
X7108Y12219D01*
X7056Y12230D01*
X7002Y12230D01*
X6949Y12220D01*
X6900Y12200D01*
X6855Y12170D01*
X6816Y12133D01*
X6786Y12089D01*
X6765Y12039D01*
X6754Y11987D01*
X6753Y11933D01*
X6763Y11880D01*
X6783Y11831D01*
X6812Y11785D01*
X6849Y11747D01*
X6893Y11716D01*
X6942Y11695D01*
X6995Y11683D01*
X7048Y11682D01*
X7101Y11691D01*
X7151Y11711D01*
X7196Y11740D01*
X7235Y11777D01*
X7266Y11820D01*
X7288Y11869D01*
X7300Y11922D01*
X7301Y11983D01*
X7301Y11559D01*
X7270Y11546D01*
X7225Y11517D01*
X7187Y11479D01*
X7156Y11435D01*
X7135Y11386D01*
X7124Y11333D01*
X7123Y11280D01*
X7133Y11227D01*
X7153Y11177D01*
X7182Y11132D01*
X7219Y11093D01*
X7263Y11063D01*
X7312Y11041D01*
X7365Y11030D01*
X7418Y11029D01*
X7471Y11038D01*
X7521Y11057D01*
X7566Y11086D01*
X7605Y11123D01*
X7636Y11167D01*
X7658Y11216D01*
X7670Y11268D01*
X7671Y11329D01*
X7671Y10082D01*
X7631Y10074D01*
X7604Y10064D01*
X7604Y10448D01*
X7593Y10500D01*
X7573Y10550D01*
X7543Y10595D01*
X7505Y10633D01*
X7461Y10663D01*
X7412Y10683D01*
X7359Y10694D01*
X7305Y10695D01*
X7253Y10685D01*
X7203Y10664D01*
X7158Y10635D01*
X7120Y10597D01*
X7089Y10553D01*
X7068Y10504D01*
X7057Y10451D01*
X7056Y10398D01*
X7066Y10345D01*
X7086Y10295D01*
X7115Y10250D01*
X7152Y10211D01*
X7196Y10181D01*
X7245Y10159D01*
X7298Y10148D01*
X7351Y10147D01*
X7404Y10156D01*
X7454Y10175D01*
X7499Y10204D01*
X7538Y10241D01*
X7569Y10285D01*
X7591Y10334D01*
X7603Y10386D01*
X7604Y10448D01*
X7604Y10064D01*
X7581Y10054D01*
X7536Y10025D01*
X7498Y9987D01*
X7467Y9943D01*
X7446Y9894D01*
X7435Y9841D01*
X7434Y9788D01*
X7444Y9735D01*
X7464Y9685D01*
X7493Y9640D01*
X7530Y9601D01*
X7574Y9571D01*
X7623Y9549D01*
X7676Y9538D01*
X7729Y9536D01*
X7782Y9546D01*
X7832Y9565D01*
X7877Y9594D01*
X7916Y9631D01*
X7947Y9675D01*
X7969Y9724D01*
X7981Y9776D01*
X7982Y9837D01*
X7982Y7737D01*
X7978Y7739D01*
X7926Y7749D01*
X7872Y7750D01*
X7820Y7740D01*
X7770Y7720D01*
X7725Y7690D01*
X7687Y7653D01*
X7656Y7608D01*
X7635Y7559D01*
X7624Y7507D01*
X7623Y7453D01*
X7633Y7400D01*
X7653Y7350D01*
X7682Y7305D01*
X7719Y7266D01*
X7763Y7236D01*
X7812Y7214D01*
X7865Y7203D01*
X7918Y7202D01*
X7971Y7211D01*
X8021Y7230D01*
X8066Y7259D01*
X8105Y7296D01*
X8136Y7340D01*
X8158Y7389D01*
X8170Y7441D01*
X8171Y7503D01*
X8171Y4372D01*
X7864Y4372D01*
X7864Y6196D01*
X7853Y6248D01*
X7833Y6298D01*
X7803Y6343D01*
X7765Y6381D01*
X7721Y6411D01*
X7671Y6431D01*
X7619Y6442D01*
X7565Y6443D01*
X7512Y6433D01*
X7463Y6412D01*
X7418Y6383D01*
X7379Y6346D01*
X7349Y6301D01*
X7340Y6280D01*
X7340Y9739D01*
X7330Y9792D01*
X7309Y9841D01*
X7279Y9886D01*
X7242Y9924D01*
X7197Y9954D01*
X7148Y9975D01*
X7095Y9986D01*
X7042Y9986D01*
X6989Y9976D01*
X6939Y9956D01*
X6894Y9926D01*
X6856Y9889D01*
X6825Y9845D01*
X6804Y9795D01*
X6793Y9743D01*
X6792Y9689D01*
X6802Y9636D01*
X6822Y9586D01*
X6851Y9541D01*
X6888Y9503D01*
X6932Y9472D01*
X6981Y9451D01*
X7034Y9439D01*
X7088Y9438D01*
X7140Y9447D01*
X7190Y9467D01*
X7236Y9495D01*
X7275Y9532D01*
X7305Y9576D01*
X7327Y9625D01*
X7339Y9678D01*
X7340Y9739D01*
X7340Y6280D01*
X7328Y6252D01*
X7317Y6199D01*
X7316Y6146D01*
X7326Y6093D01*
X7346Y6043D01*
X7375Y5998D01*
X7412Y5959D01*
X7456Y5929D01*
X7505Y5907D01*
X7557Y5896D01*
X7611Y5895D01*
X7664Y5904D01*
X7714Y5923D01*
X7759Y5952D01*
X7798Y5989D01*
X7829Y6033D01*
X7851Y6082D01*
X7863Y6134D01*
X7864Y6196D01*
X7864Y4372D01*
X7204Y4372D01*
X6919Y4657D01*
X6919Y5865D01*
X6908Y5918D01*
X6888Y5967D01*
X6858Y6012D01*
X6820Y6050D01*
X6776Y6080D01*
X6726Y6101D01*
X6674Y6112D01*
X6620Y6112D01*
X6568Y6102D01*
X6518Y6082D01*
X6473Y6052D01*
X6435Y6015D01*
X6404Y5971D01*
X6383Y5921D01*
X6372Y5869D01*
X6371Y5815D01*
X6381Y5762D01*
X6401Y5712D01*
X6430Y5667D01*
X6467Y5629D01*
X6511Y5598D01*
X6560Y5577D01*
X6613Y5565D01*
X6666Y5564D01*
X6719Y5573D01*
X6769Y5593D01*
X6814Y5621D01*
X6853Y5658D01*
X6884Y5702D01*
X6906Y5751D01*
X6918Y5804D01*
X6919Y5865D01*
X6919Y4657D01*
X6351Y5225D01*
X6356Y5272D01*
X6348Y5356D01*
X6324Y5437D01*
X6285Y5511D01*
X6233Y5577D01*
X6168Y5631D01*
X6155Y5638D01*
X6155Y8361D01*
X6145Y8414D01*
X6124Y8463D01*
X6094Y8508D01*
X6057Y8546D01*
X6012Y8576D01*
X6010Y8577D01*
X6020Y8623D01*
X6021Y8684D01*
X6011Y8736D01*
X5990Y8786D01*
X5961Y8831D01*
X5923Y8869D01*
X5878Y8899D01*
X5829Y8920D01*
X5776Y8930D01*
X5723Y8931D01*
X5706Y8928D01*
X5706Y10381D01*
X5696Y10433D01*
X5675Y10483D01*
X5646Y10528D01*
X5608Y10566D01*
X5563Y10596D01*
X5514Y10616D01*
X5461Y10627D01*
X5408Y10628D01*
X5387Y10624D01*
X5387Y15062D01*
X5377Y15114D01*
X5356Y15164D01*
X5327Y15209D01*
X5289Y15247D01*
X5261Y15265D01*
X5261Y23440D01*
X5249Y23500D01*
X5226Y23557D01*
X5192Y23608D01*
X5149Y23651D01*
X5098Y23686D01*
X5041Y23709D01*
X4981Y23722D01*
X4920Y23722D01*
X4860Y23711D01*
X4803Y23688D01*
X4751Y23654D01*
X4707Y23611D01*
X4673Y23560D01*
X4649Y23504D01*
X4636Y23444D01*
X4635Y23383D01*
X4646Y23322D01*
X4669Y23265D01*
X4702Y23214D01*
X4744Y23169D01*
X4795Y23134D01*
X4851Y23110D01*
X4911Y23097D01*
X4972Y23095D01*
X5033Y23106D01*
X5090Y23128D01*
X5142Y23161D01*
X5186Y23203D01*
X5222Y23254D01*
X5247Y23310D01*
X5260Y23370D01*
X5261Y23440D01*
X5261Y15265D01*
X5244Y15277D01*
X5195Y15298D01*
X5142Y15308D01*
X5089Y15309D01*
X5036Y15299D01*
X5001Y15285D01*
X5001Y16991D01*
X4991Y17044D01*
X4971Y17093D01*
X4941Y17138D01*
X4903Y17176D01*
X4859Y17206D01*
X4818Y17223D01*
X4823Y17249D01*
X4824Y17310D01*
X4814Y17362D01*
X4793Y17412D01*
X4764Y17457D01*
X4726Y17495D01*
X4715Y17502D01*
X4743Y17529D01*
X4774Y17572D01*
X4796Y17621D01*
X4808Y17674D01*
X4809Y17735D01*
X4798Y17788D01*
X4778Y17837D01*
X4748Y17882D01*
X4710Y17920D01*
X4666Y17950D01*
X4616Y17971D01*
X4564Y17982D01*
X4510Y17982D01*
X4457Y17972D01*
X4408Y17952D01*
X4363Y17922D01*
X4355Y17915D01*
X4350Y17921D01*
X4313Y17959D01*
X4268Y17989D01*
X4219Y18010D01*
X4166Y18021D01*
X4112Y18021D01*
X4060Y18011D01*
X4029Y17999D01*
X4029Y21747D01*
X4019Y21799D01*
X3998Y21849D01*
X3968Y21894D01*
X3931Y21932D01*
X3886Y21962D01*
X3837Y21983D01*
X3784Y21993D01*
X3730Y21994D01*
X3678Y21984D01*
X3628Y21964D01*
X3583Y21934D01*
X3545Y21897D01*
X3514Y21852D01*
X3493Y21803D01*
X3482Y21751D01*
X3481Y21697D01*
X3491Y21644D01*
X3511Y21594D01*
X3540Y21549D01*
X3577Y21511D01*
X3621Y21480D01*
X3670Y21458D01*
X3723Y21447D01*
X3776Y21446D01*
X3829Y21455D01*
X3879Y21475D01*
X3925Y21503D01*
X3964Y21540D01*
X3994Y21584D01*
X4016Y21633D01*
X4028Y21686D01*
X4029Y21747D01*
X4029Y17999D01*
X4010Y17991D01*
X3965Y17962D01*
X3952Y17949D01*
X3945Y17961D01*
X3907Y17999D01*
X3863Y18029D01*
X3813Y18050D01*
X3761Y18060D01*
X3707Y18061D01*
X3675Y18055D01*
X3675Y21034D01*
X3664Y21087D01*
X3644Y21136D01*
X3614Y21181D01*
X3576Y21219D01*
X3532Y21249D01*
X3482Y21270D01*
X3430Y21281D01*
X3376Y21281D01*
X3323Y21271D01*
X3274Y21251D01*
X3229Y21222D01*
X3226Y21219D01*
X3198Y21247D01*
X3154Y21277D01*
X3104Y21298D01*
X3052Y21308D01*
X2998Y21309D01*
X2945Y21299D01*
X2896Y21279D01*
X2851Y21249D01*
X2813Y21212D01*
X2782Y21167D01*
X2761Y21118D01*
X2750Y21066D01*
X2749Y21012D01*
X2759Y20959D01*
X2779Y20909D01*
X2808Y20864D01*
X2845Y20826D01*
X2889Y20795D01*
X2938Y20773D01*
X2991Y20762D01*
X3044Y20761D01*
X3097Y20770D01*
X3147Y20790D01*
X3192Y20818D01*
X3198Y20824D01*
X3223Y20798D01*
X3267Y20767D01*
X3316Y20746D01*
X3369Y20734D01*
X3422Y20733D01*
X3475Y20743D01*
X3525Y20762D01*
X3570Y20791D01*
X3609Y20828D01*
X3640Y20872D01*
X3662Y20921D01*
X3674Y20973D01*
X3675Y21034D01*
X3675Y18055D01*
X3654Y18051D01*
X3604Y18031D01*
X3560Y18001D01*
X3521Y17964D01*
X3491Y17919D01*
X3470Y17870D01*
X3459Y17818D01*
X3458Y17764D01*
X3467Y17711D01*
X3487Y17661D01*
X3516Y17616D01*
X3554Y17578D01*
X3598Y17547D01*
X3647Y17525D01*
X3699Y17514D01*
X3753Y17513D01*
X3806Y17522D01*
X3856Y17541D01*
X3901Y17570D01*
X3917Y17585D01*
X3922Y17577D01*
X3959Y17538D01*
X4003Y17508D01*
X4052Y17486D01*
X4105Y17475D01*
X4158Y17473D01*
X4211Y17483D01*
X4261Y17502D01*
X4307Y17531D01*
X4317Y17541D01*
X4319Y17537D01*
X4357Y17499D01*
X4370Y17489D01*
X4340Y17460D01*
X4310Y17415D01*
X4289Y17366D01*
X4277Y17314D01*
X4277Y17260D01*
X4286Y17207D01*
X4306Y17157D01*
X4335Y17112D01*
X4372Y17074D01*
X4417Y17043D01*
X4461Y17024D01*
X4455Y16995D01*
X4454Y16941D01*
X4464Y16888D01*
X4483Y16838D01*
X4512Y16793D01*
X4550Y16755D01*
X4594Y16724D01*
X4643Y16703D01*
X4695Y16691D01*
X4749Y16690D01*
X4802Y16699D01*
X4852Y16719D01*
X4897Y16747D01*
X4936Y16784D01*
X4967Y16828D01*
X4989Y16877D01*
X5001Y16930D01*
X5001Y16991D01*
X5001Y15285D01*
X4986Y15279D01*
X4941Y15249D01*
X4903Y15212D01*
X4873Y15167D01*
X4852Y15118D01*
X4840Y15066D01*
X4840Y15012D01*
X4849Y14959D01*
X4858Y14938D01*
X4813Y14920D01*
X4768Y14891D01*
X4730Y14853D01*
X4700Y14809D01*
X4678Y14760D01*
X4667Y14707D01*
X4666Y14654D01*
X4676Y14601D01*
X4696Y14551D01*
X4725Y14506D01*
X4762Y14467D01*
X4806Y14437D01*
X4855Y14415D01*
X4908Y14404D01*
X4962Y14403D01*
X5014Y14412D01*
X5064Y14431D01*
X5110Y14460D01*
X5149Y14497D01*
X5180Y14541D01*
X5201Y14590D01*
X5213Y14642D01*
X5214Y14703D01*
X5204Y14756D01*
X5196Y14774D01*
X5238Y14790D01*
X5283Y14818D01*
X5322Y14855D01*
X5353Y14899D01*
X5375Y14948D01*
X5386Y15000D01*
X5387Y15062D01*
X5387Y10624D01*
X5355Y10618D01*
X5305Y10597D01*
X5260Y10568D01*
X5222Y10531D01*
X5192Y10486D01*
X5170Y10437D01*
X5159Y10384D01*
X5159Y10331D01*
X5168Y10278D01*
X5188Y10228D01*
X5217Y10183D01*
X5254Y10144D01*
X5298Y10114D01*
X5348Y10092D01*
X5400Y10081D01*
X5454Y10080D01*
X5507Y10089D01*
X5557Y10108D01*
X5602Y10137D01*
X5641Y10174D01*
X5672Y10218D01*
X5693Y10267D01*
X5705Y10319D01*
X5706Y10381D01*
X5706Y8928D01*
X5670Y8921D01*
X5620Y8901D01*
X5575Y8871D01*
X5537Y8834D01*
X5507Y8789D01*
X5485Y8740D01*
X5474Y8688D01*
X5474Y8634D01*
X5483Y8581D01*
X5503Y8531D01*
X5532Y8486D01*
X5569Y8448D01*
X5613Y8417D01*
X5619Y8415D01*
X5608Y8365D01*
X5607Y8311D01*
X5617Y8258D01*
X5637Y8208D01*
X5666Y8163D01*
X5703Y8125D01*
X5747Y8094D01*
X5796Y8073D01*
X5849Y8061D01*
X5902Y8060D01*
X5955Y8069D01*
X6005Y8089D01*
X6051Y8117D01*
X6090Y8154D01*
X6120Y8198D01*
X6142Y8247D01*
X6154Y8300D01*
X6155Y8361D01*
X6155Y5638D01*
X6095Y5671D01*
X6014Y5697D01*
X5931Y5706D01*
X5925Y5706D01*
X4994Y5706D01*
X4994Y14160D01*
X4983Y14213D01*
X4963Y14262D01*
X4933Y14307D01*
X4895Y14345D01*
X4851Y14375D01*
X4801Y14396D01*
X4749Y14407D01*
X4695Y14407D01*
X4642Y14397D01*
X4593Y14377D01*
X4548Y14348D01*
X4509Y14310D01*
X4479Y14266D01*
X4458Y14216D01*
X4447Y14164D01*
X4446Y14110D01*
X4456Y14058D01*
X4475Y14008D01*
X4504Y13963D01*
X4542Y13924D01*
X4586Y13893D01*
X4635Y13872D01*
X4687Y13860D01*
X4741Y13859D01*
X4794Y13869D01*
X4844Y13888D01*
X4889Y13917D01*
X4928Y13954D01*
X4959Y13998D01*
X4981Y14047D01*
X4993Y14099D01*
X4994Y14160D01*
X4994Y5706D01*
X4505Y5706D01*
X4505Y8814D01*
X4495Y8866D01*
X4475Y8916D01*
X4445Y8961D01*
X4407Y8999D01*
X4375Y9020D01*
X4375Y15849D01*
X4365Y15902D01*
X4345Y15951D01*
X4315Y15996D01*
X4277Y16034D01*
X4233Y16064D01*
X4183Y16085D01*
X4131Y16096D01*
X4077Y16096D01*
X4024Y16086D01*
X3974Y16066D01*
X3930Y16037D01*
X3891Y15999D01*
X3861Y15955D01*
X3840Y15905D01*
X3829Y15853D01*
X3828Y15799D01*
X3838Y15747D01*
X3857Y15697D01*
X3886Y15652D01*
X3924Y15613D01*
X3968Y15582D01*
X4017Y15561D01*
X4069Y15549D01*
X4123Y15548D01*
X4176Y15558D01*
X4226Y15577D01*
X4271Y15606D01*
X4310Y15643D01*
X4341Y15687D01*
X4363Y15736D01*
X4375Y15788D01*
X4375Y15849D01*
X4375Y9020D01*
X4363Y9029D01*
X4313Y9050D01*
X4261Y9060D01*
X4207Y9061D01*
X4154Y9051D01*
X4104Y9031D01*
X4060Y9001D01*
X4021Y8964D01*
X3991Y8919D01*
X3970Y8870D01*
X3966Y8853D01*
X3966Y14637D01*
X3956Y14689D01*
X3935Y14739D01*
X3905Y14784D01*
X3868Y14822D01*
X3823Y14852D01*
X3774Y14872D01*
X3721Y14883D01*
X3667Y14884D01*
X3615Y14873D01*
X3565Y14853D01*
X3520Y14824D01*
X3482Y14786D01*
X3451Y14742D01*
X3430Y14693D01*
X3419Y14640D01*
X3418Y14587D01*
X3428Y14534D01*
X3448Y14484D01*
X3477Y14439D01*
X3514Y14400D01*
X3558Y14370D01*
X3607Y14348D01*
X3660Y14337D01*
X3714Y14336D01*
X3766Y14345D01*
X3816Y14364D01*
X3862Y14393D01*
X3901Y14430D01*
X3931Y14474D01*
X3953Y14523D01*
X3965Y14575D01*
X3966Y14637D01*
X3966Y8853D01*
X3959Y8818D01*
X3958Y8764D01*
X3967Y8711D01*
X3987Y8661D01*
X4016Y8616D01*
X4054Y8578D01*
X4098Y8547D01*
X4147Y8525D01*
X4199Y8514D01*
X4253Y8513D01*
X4306Y8522D01*
X4356Y8541D01*
X4401Y8570D01*
X4440Y8607D01*
X4471Y8651D01*
X4493Y8700D01*
X4505Y8752D01*
X4505Y8814D01*
X4505Y5706D01*
X4064Y5706D01*
X4064Y7137D01*
X4054Y7189D01*
X4034Y7239D01*
X4004Y7284D01*
X3966Y7322D01*
X3922Y7352D01*
X3872Y7372D01*
X3820Y7383D01*
X3766Y7384D01*
X3713Y7373D01*
X3663Y7353D01*
X3619Y7324D01*
X3580Y7286D01*
X3550Y7242D01*
X3529Y7193D01*
X3518Y7140D01*
X3517Y7087D01*
X3527Y7034D01*
X3538Y7005D01*
X3508Y7025D01*
X3459Y7046D01*
X3406Y7056D01*
X3353Y7057D01*
X3300Y7047D01*
X3250Y7027D01*
X3205Y6997D01*
X3167Y6960D01*
X3137Y6915D01*
X3115Y6866D01*
X3104Y6814D01*
X3103Y6760D01*
X3113Y6707D01*
X3133Y6657D01*
X3162Y6612D01*
X3199Y6574D01*
X3243Y6543D01*
X3292Y6521D01*
X3345Y6510D01*
X3399Y6509D01*
X3451Y6518D01*
X3501Y6538D01*
X3547Y6566D01*
X3586Y6603D01*
X3617Y6647D01*
X3638Y6696D01*
X3650Y6749D01*
X3651Y6810D01*
X3641Y6862D01*
X3630Y6888D01*
X3657Y6870D01*
X3706Y6848D01*
X3758Y6837D01*
X3812Y6836D01*
X3865Y6845D01*
X3915Y6864D01*
X3960Y6893D01*
X3999Y6930D01*
X4030Y6974D01*
X4052Y7023D01*
X4064Y7075D01*
X4064Y7137D01*
X4064Y5706D01*
X3531Y5706D01*
X3491Y5702D01*
X3452Y5699D01*
X3450Y5698D01*
X3447Y5698D01*
X3409Y5686D01*
X3371Y5675D01*
X3369Y5674D01*
X3367Y5674D01*
X3332Y5655D01*
X3296Y5637D01*
X3294Y5635D01*
X3292Y5634D01*
X3262Y5609D01*
X3230Y5584D01*
X3227Y5581D01*
X3227Y5581D01*
X3227Y5581D01*
X3226Y5580D01*
X3017Y5371D01*
X3017Y20585D01*
X3007Y20638D01*
X2986Y20688D01*
X2957Y20732D01*
X2919Y20770D01*
X2874Y20800D01*
X2825Y20821D01*
X2772Y20832D01*
X2719Y20832D01*
X2666Y20822D01*
X2616Y20802D01*
X2571Y20773D01*
X2533Y20735D01*
X2503Y20691D01*
X2482Y20642D01*
X2470Y20589D01*
X2470Y20536D01*
X2479Y20483D01*
X2499Y20433D01*
X2528Y20388D01*
X2565Y20349D01*
X2609Y20319D01*
X2659Y20297D01*
X2711Y20286D01*
X2765Y20284D01*
X2818Y20294D01*
X2868Y20313D01*
X2913Y20342D01*
X2952Y20379D01*
X2983Y20423D01*
X3004Y20472D01*
X3016Y20524D01*
X3017Y20585D01*
X3017Y5371D01*
X2816Y5170D01*
X2816Y11170D01*
X2804Y11234D01*
X2779Y11294D01*
X2743Y11349D01*
X2697Y11395D01*
X2645Y11430D01*
X2663Y11454D01*
X2688Y11510D01*
X2701Y11570D01*
X2702Y11640D01*
X2690Y11701D01*
X2667Y11757D01*
X2633Y11809D01*
X2590Y11852D01*
X2539Y11886D01*
X2482Y11910D01*
X2422Y11923D01*
X2361Y11923D01*
X2300Y11911D01*
X2277Y11902D01*
X2277Y21684D01*
X2267Y21736D01*
X2246Y21786D01*
X2217Y21831D01*
X2194Y21853D01*
X2194Y22751D01*
X2184Y22803D01*
X2164Y22853D01*
X2134Y22898D01*
X2096Y22936D01*
X2052Y22966D01*
X2002Y22987D01*
X1949Y22997D01*
X1896Y22998D01*
X1843Y22988D01*
X1793Y22968D01*
X1748Y22938D01*
X1710Y22901D01*
X1680Y22856D01*
X1659Y22807D01*
X1648Y22755D01*
X1647Y22701D01*
X1656Y22648D01*
X1676Y22598D01*
X1705Y22553D01*
X1743Y22515D01*
X1787Y22484D01*
X1836Y22462D01*
X1888Y22451D01*
X1942Y22450D01*
X1995Y22459D01*
X2045Y22478D01*
X2090Y22507D01*
X2129Y22544D01*
X2160Y22588D01*
X2182Y22637D01*
X2194Y22689D01*
X2194Y22751D01*
X2194Y21853D01*
X2179Y21869D01*
X2134Y21899D01*
X2085Y21920D01*
X2032Y21930D01*
X1979Y21931D01*
X1926Y21921D01*
X1876Y21901D01*
X1831Y21871D01*
X1793Y21834D01*
X1763Y21789D01*
X1741Y21740D01*
X1730Y21688D01*
X1729Y21634D01*
X1731Y21626D01*
X1705Y21631D01*
X1652Y21632D01*
X1599Y21622D01*
X1549Y21601D01*
X1513Y21578D01*
X1513Y23126D01*
X1492Y23236D01*
X1449Y23339D01*
X1387Y23432D01*
X1309Y23511D01*
X1216Y23573D01*
X1113Y23616D01*
X1004Y23639D01*
X893Y23640D01*
X783Y23619D01*
X680Y23577D01*
X586Y23516D01*
X506Y23438D01*
X443Y23346D01*
X399Y23243D01*
X376Y23134D01*
X375Y23023D01*
X395Y22913D01*
X436Y22809D01*
X496Y22715D01*
X574Y22635D01*
X665Y22571D01*
X768Y22527D01*
X877Y22503D01*
X988Y22500D01*
X1098Y22520D01*
X1202Y22560D01*
X1296Y22620D01*
X1377Y22697D01*
X1441Y22788D01*
X1487Y22890D01*
X1512Y22999D01*
X1513Y23126D01*
X1513Y21578D01*
X1504Y21572D01*
X1466Y21534D01*
X1436Y21490D01*
X1415Y21441D01*
X1403Y21388D01*
X1403Y21335D01*
X1412Y21282D01*
X1432Y21232D01*
X1461Y21187D01*
X1498Y21148D01*
X1543Y21118D01*
X1592Y21096D01*
X1644Y21085D01*
X1698Y21084D01*
X1751Y21093D01*
X1801Y21112D01*
X1846Y21141D01*
X1885Y21178D01*
X1916Y21222D01*
X1938Y21271D01*
X1949Y21323D01*
X1950Y21385D01*
X1949Y21389D01*
X1971Y21384D01*
X2025Y21383D01*
X2077Y21392D01*
X2127Y21412D01*
X2173Y21440D01*
X2212Y21477D01*
X2243Y21521D01*
X2264Y21570D01*
X2276Y21623D01*
X2277Y21684D01*
X2277Y11902D01*
X2244Y11888D01*
X2192Y11855D01*
X2148Y11812D01*
X2114Y11761D01*
X2089Y11705D01*
X2077Y11645D01*
X2076Y11583D01*
X2087Y11523D01*
X2109Y11466D01*
X2088Y11464D01*
X2086Y11464D01*
X2084Y11464D01*
X2055Y11455D01*
X2026Y11446D01*
X2024Y11445D01*
X2022Y11445D01*
X1995Y11430D01*
X1968Y11416D01*
X1967Y11415D01*
X1965Y11414D01*
X1941Y11395D01*
X1917Y11376D01*
X1915Y11373D01*
X1915Y11373D01*
X1915Y11373D01*
X1914Y11373D01*
X1466Y10925D01*
X1466Y14770D01*
X1456Y14823D01*
X1435Y14873D01*
X1415Y14903D01*
X1415Y20940D01*
X1401Y21007D01*
X1375Y21071D01*
X1337Y21129D01*
X1288Y21178D01*
X1231Y21216D01*
X1167Y21243D01*
X1100Y21257D01*
X1030Y21258D01*
X963Y21245D01*
X898Y21219D01*
X841Y21181D01*
X791Y21133D01*
X752Y21076D01*
X725Y21012D01*
X711Y20944D01*
X710Y20875D01*
X722Y20807D01*
X748Y20743D01*
X785Y20685D01*
X833Y20635D01*
X890Y20596D01*
X953Y20568D01*
X1021Y20553D01*
X1090Y20552D01*
X1158Y20564D01*
X1222Y20589D01*
X1280Y20626D01*
X1331Y20674D01*
X1370Y20730D01*
X1398Y20793D01*
X1414Y20861D01*
X1415Y20940D01*
X1415Y14903D01*
X1405Y14917D01*
X1391Y14932D01*
X1391Y19723D01*
X1381Y19776D01*
X1360Y19825D01*
X1331Y19870D01*
X1293Y19908D01*
X1248Y19938D01*
X1199Y19959D01*
X1146Y19970D01*
X1093Y19970D01*
X1040Y19960D01*
X990Y19940D01*
X945Y19911D01*
X907Y19873D01*
X877Y19829D01*
X856Y19779D01*
X844Y19727D01*
X844Y19673D01*
X853Y19621D01*
X873Y19571D01*
X902Y19526D01*
X939Y19487D01*
X983Y19456D01*
X1033Y19435D01*
X1085Y19423D01*
X1139Y19422D01*
X1192Y19432D01*
X1242Y19451D01*
X1287Y19480D01*
X1326Y19517D01*
X1357Y19561D01*
X1379Y19610D01*
X1390Y19662D01*
X1391Y19723D01*
X1391Y14932D01*
X1368Y14955D01*
X1332Y14979D01*
X1332Y18306D01*
X1322Y18358D01*
X1301Y18408D01*
X1272Y18453D01*
X1234Y18491D01*
X1189Y18521D01*
X1140Y18542D01*
X1087Y18552D01*
X1034Y18553D01*
X981Y18543D01*
X931Y18523D01*
X886Y18493D01*
X848Y18456D01*
X818Y18411D01*
X796Y18362D01*
X785Y18310D01*
X785Y18256D01*
X794Y18203D01*
X814Y18153D01*
X843Y18108D01*
X880Y18070D01*
X924Y18039D01*
X974Y18018D01*
X1026Y18006D01*
X1080Y18005D01*
X1132Y18014D01*
X1183Y18034D01*
X1228Y18062D01*
X1267Y18099D01*
X1298Y18143D01*
X1319Y18192D01*
X1331Y18245D01*
X1332Y18306D01*
X1332Y14979D01*
X1323Y14985D01*
X1274Y15006D01*
X1221Y15017D01*
X1167Y15017D01*
X1115Y15007D01*
X1065Y14987D01*
X1020Y14958D01*
X982Y14920D01*
X951Y14876D01*
X930Y14827D01*
X919Y14774D01*
X918Y14721D01*
X928Y14668D01*
X948Y14618D01*
X977Y14573D01*
X1014Y14534D01*
X1058Y14504D01*
X1107Y14482D01*
X1160Y14471D01*
X1214Y14469D01*
X1266Y14479D01*
X1316Y14498D01*
X1362Y14527D01*
X1401Y14564D01*
X1431Y14608D01*
X1453Y14657D01*
X1465Y14709D01*
X1466Y14770D01*
X1466Y10925D01*
X883Y10342D01*
X883Y15605D01*
X873Y15658D01*
X852Y15707D01*
X823Y15752D01*
X785Y15790D01*
X741Y15820D01*
X691Y15841D01*
X638Y15852D01*
X585Y15852D01*
X532Y15842D01*
X482Y15822D01*
X437Y15793D01*
X399Y15755D01*
X369Y15711D01*
X348Y15661D01*
X337Y15609D01*
X336Y15555D01*
X345Y15502D01*
X365Y15453D01*
X394Y15407D01*
X432Y15369D01*
X476Y15338D01*
X525Y15317D01*
X577Y15305D01*
X631Y15304D01*
X684Y15313D01*
X734Y15333D01*
X779Y15362D01*
X818Y15399D01*
X849Y15442D01*
X871Y15491D01*
X883Y15544D01*
X883Y15605D01*
X883Y10342D01*
X485Y9943D01*
X465Y9920D01*
X445Y9896D01*
X445Y9895D01*
X444Y9893D01*
X429Y9866D01*
X414Y9839D01*
X414Y9838D01*
X413Y9836D01*
X404Y9807D01*
X395Y9777D01*
X394Y9776D01*
X394Y9774D01*
X391Y9743D01*
X387Y9713D01*
X387Y9709D01*
X387Y9709D01*
X387Y9709D01*
X387Y9708D01*
X387Y4168D01*
X387Y4137D01*
X387Y4134D01*
X387Y4043D01*
X394Y3978D01*
X412Y3916D01*
X443Y3859D01*
X484Y3808D01*
X534Y3767D01*
X591Y3736D01*
X653Y3717D01*
X718Y3710D01*
X782Y3716D01*
X845Y3734D01*
X902Y3764D01*
X953Y3805D01*
X994Y3855D01*
X1026Y3912D01*
X1045Y3974D01*
X1053Y4038D01*
X1053Y4043D01*
X1053Y4165D01*
X1053Y4196D01*
X1053Y4197D01*
X1053Y4198D01*
X1053Y7198D01*
X1096Y7179D01*
X1148Y7167D01*
X1202Y7166D01*
X1255Y7176D01*
X1305Y7195D01*
X1350Y7224D01*
X1389Y7261D01*
X1420Y7305D01*
X1441Y7354D01*
X1453Y7406D01*
X1454Y7467D01*
X1444Y7520D01*
X1423Y7570D01*
X1394Y7614D01*
X1356Y7652D01*
X1311Y7682D01*
X1262Y7703D01*
X1209Y7714D01*
X1156Y7714D01*
X1103Y7704D01*
X1053Y7684D01*
X1053Y7684D01*
X1053Y8551D01*
X1061Y8542D01*
X1106Y8511D01*
X1155Y8490D01*
X1207Y8478D01*
X1261Y8477D01*
X1314Y8487D01*
X1364Y8506D01*
X1409Y8535D01*
X1448Y8572D01*
X1479Y8616D01*
X1501Y8665D01*
X1512Y8717D01*
X1513Y8778D01*
X1503Y8831D01*
X1482Y8881D01*
X1453Y8925D01*
X1415Y8963D01*
X1370Y8993D01*
X1321Y9014D01*
X1268Y9025D01*
X1215Y9025D01*
X1162Y9015D01*
X1112Y8995D01*
X1067Y8966D01*
X1053Y8951D01*
X1053Y9570D01*
X2287Y10805D01*
X2480Y10805D01*
X2509Y10804D01*
X2574Y10815D01*
X2634Y10839D01*
X2690Y10874D01*
X2737Y10919D01*
X2774Y10972D01*
X2801Y11032D01*
X2815Y11095D01*
X2816Y11130D01*
X2816Y11135D01*
X2816Y11139D01*
X2816Y11170D01*
X2816Y5170D01*
X1974Y4328D01*
X1974Y6530D01*
X1963Y6583D01*
X1943Y6633D01*
X1913Y6677D01*
X1876Y6715D01*
X1831Y6745D01*
X1782Y6766D01*
X1750Y6773D01*
X1750Y9290D01*
X1739Y9343D01*
X1719Y9392D01*
X1689Y9437D01*
X1651Y9475D01*
X1607Y9505D01*
X1557Y9526D01*
X1505Y9537D01*
X1451Y9537D01*
X1398Y9527D01*
X1348Y9507D01*
X1304Y9478D01*
X1265Y9440D01*
X1235Y9396D01*
X1214Y9346D01*
X1203Y9294D01*
X1202Y9240D01*
X1212Y9187D01*
X1231Y9138D01*
X1260Y9092D01*
X1298Y9054D01*
X1342Y9023D01*
X1391Y9002D01*
X1443Y8990D01*
X1497Y8989D01*
X1550Y8998D01*
X1600Y9018D01*
X1645Y9047D01*
X1684Y9084D01*
X1715Y9127D01*
X1737Y9176D01*
X1749Y9229D01*
X1750Y9290D01*
X1750Y6773D01*
X1729Y6777D01*
X1675Y6777D01*
X1623Y6767D01*
X1573Y6747D01*
X1528Y6718D01*
X1490Y6680D01*
X1459Y6636D01*
X1438Y6587D01*
X1427Y6534D01*
X1426Y6480D01*
X1436Y6428D01*
X1456Y6378D01*
X1485Y6333D01*
X1522Y6294D01*
X1566Y6263D01*
X1615Y6242D01*
X1668Y6230D01*
X1721Y6229D01*
X1774Y6239D01*
X1824Y6258D01*
X1870Y6287D01*
X1908Y6324D01*
X1939Y6368D01*
X1961Y6417D01*
X1973Y6469D01*
X1974Y6530D01*
X1974Y4328D01*
X1174Y3528D01*
X1145Y3526D01*
X1142Y3525D01*
X1140Y3525D01*
X1102Y3513D01*
X1064Y3502D01*
X1062Y3501D01*
X1060Y3500D01*
X1024Y3482D01*
X989Y3463D01*
X987Y3462D01*
X985Y3461D01*
X954Y3436D01*
X923Y3411D01*
X920Y3408D01*
X920Y3408D01*
X920Y3408D01*
X919Y3407D01*
X868Y3356D01*
X653Y3356D01*
X622Y3353D01*
X592Y3350D01*
X590Y3350D01*
X588Y3349D01*
X559Y3341D01*
X529Y3332D01*
X528Y3331D01*
X526Y3331D01*
X499Y3316D01*
X472Y3302D01*
X470Y3301D01*
X469Y3300D01*
X445Y3281D01*
X421Y3262D01*
X419Y3259D01*
X419Y3259D01*
X419Y3259D01*
X418Y3258D01*
X259Y3099D01*
X236Y3077D01*
X199Y3023D01*
X173Y2963D01*
X159Y2899D01*
X159Y2834D01*
X170Y2770D01*
X194Y2709D01*
X230Y2654D01*
X275Y2607D01*
X329Y2570D01*
X388Y2544D01*
X452Y2530D01*
X517Y2528D01*
X582Y2540D01*
X642Y2563D01*
X697Y2598D01*
X745Y2643D01*
X747Y2647D01*
X791Y2690D01*
X874Y2690D01*
X903Y2667D01*
X977Y2626D01*
X1057Y2601D01*
X1141Y2592D01*
X1224Y2599D01*
X1305Y2623D01*
X1380Y2662D01*
X1396Y2675D01*
X1397Y2675D01*
X1437Y2678D01*
X1439Y2679D01*
X1442Y2679D01*
X1480Y2690D01*
X1518Y2702D01*
X1520Y2703D01*
X1522Y2703D01*
X1557Y2722D01*
X1593Y2740D01*
X1594Y2742D01*
X1596Y2743D01*
X1627Y2768D01*
X1658Y2793D01*
X1661Y2796D01*
X1662Y2796D01*
X1662Y2796D01*
X1663Y2797D01*
X2535Y3669D01*
X2525Y3625D01*
X2525Y3571D01*
X2534Y3518D01*
X2554Y3468D01*
X2583Y3423D01*
X2621Y3385D01*
X2665Y3354D01*
X2714Y3332D01*
X2766Y3321D01*
X2820Y3320D01*
X2873Y3329D01*
X2923Y3349D01*
X2935Y3356D01*
X2934Y3299D01*
X2951Y3204D01*
X2987Y3115D01*
X3039Y3034D01*
X3105Y2965D01*
X3184Y2910D01*
X3272Y2872D01*
X3366Y2851D01*
X3462Y2849D01*
X3557Y2866D01*
X3647Y2901D01*
X3728Y2952D01*
X3798Y3018D01*
X3853Y3097D01*
X3892Y3185D01*
X3913Y3278D01*
X3915Y3388D01*
X3896Y3483D01*
X3860Y3571D01*
X3822Y3628D01*
X3830Y3633D01*
X3869Y3670D01*
X3900Y3714D01*
X3922Y3763D01*
X3934Y3815D01*
X3935Y3877D01*
X3924Y3929D01*
X3904Y3979D01*
X3874Y4024D01*
X3836Y4062D01*
X3792Y4092D01*
X3742Y4113D01*
X3690Y4123D01*
X3636Y4124D01*
X3583Y4114D01*
X3534Y4094D01*
X3489Y4064D01*
X3450Y4027D01*
X3420Y3982D01*
X3399Y3933D01*
X3388Y3881D01*
X3387Y3831D01*
X3380Y3831D01*
X3286Y3813D01*
X3197Y3777D01*
X3116Y3724D01*
X3062Y3671D01*
X3062Y3673D01*
X3041Y3723D01*
X3012Y3768D01*
X2974Y3806D01*
X2929Y3836D01*
X2880Y3857D01*
X2827Y3867D01*
X2774Y3868D01*
X2724Y3858D01*
X3710Y4844D01*
X5791Y4844D01*
X6831Y3804D01*
X6855Y3784D01*
X6878Y3764D01*
X6880Y3764D01*
X6881Y3762D01*
X6908Y3748D01*
X6935Y3733D01*
X6937Y3733D01*
X6939Y3732D01*
X6968Y3723D01*
X6997Y3713D01*
X6999Y3713D01*
X7001Y3713D01*
X7031Y3710D01*
X7062Y3706D01*
X7065Y3706D01*
X7065Y3706D01*
X7065Y3706D01*
X7066Y3706D01*
X7098Y3706D01*
X7047Y3657D01*
X6993Y3577D01*
X6955Y3489D01*
X6935Y3395D01*
X6934Y3299D01*
X6951Y3204D01*
X6987Y3115D01*
X7039Y3034D01*
X7105Y2965D01*
X7184Y2910D01*
X7272Y2872D01*
X7366Y2851D01*
X7462Y2849D01*
X7557Y2866D01*
X7647Y2901D01*
X7728Y2952D01*
X7798Y3018D01*
X7853Y3097D01*
X7892Y3185D01*
X7913Y3278D01*
X7915Y3388D01*
X7896Y3483D01*
X7860Y3571D01*
X7806Y3652D01*
X7752Y3706D01*
X8098Y3706D01*
X8047Y3657D01*
X7993Y3577D01*
X7955Y3489D01*
X7935Y3395D01*
X7934Y3299D01*
X7951Y3204D01*
X7987Y3115D01*
X8039Y3034D01*
X8105Y2965D01*
X8184Y2910D01*
X8272Y2872D01*
X8366Y2851D01*
X8462Y2849D01*
X8557Y2866D01*
X8647Y2901D01*
X8728Y2952D01*
X8798Y3018D01*
X8853Y3097D01*
X8892Y3185D01*
X8913Y3278D01*
X8915Y3388D01*
X8896Y3483D01*
X8860Y3571D01*
X8806Y3652D01*
X8752Y3706D01*
X9098Y3706D01*
X9047Y3657D01*
X8993Y3577D01*
X8955Y3489D01*
X8935Y3395D01*
X8934Y3299D01*
X8951Y3204D01*
X8987Y3115D01*
X9039Y3034D01*
X9105Y2965D01*
X9184Y2910D01*
X9272Y2872D01*
X9366Y2851D01*
X9462Y2849D01*
X9557Y2866D01*
X9647Y2901D01*
X9728Y2952D01*
X9798Y3018D01*
X9853Y3097D01*
X9892Y3185D01*
X9913Y3278D01*
X9915Y3388D01*
X9896Y3483D01*
X9860Y3571D01*
X9806Y3652D01*
X9752Y3706D01*
X10098Y3706D01*
X10047Y3657D01*
X9993Y3577D01*
X9955Y3489D01*
X9935Y3395D01*
X9934Y3299D01*
X9951Y3204D01*
X9987Y3115D01*
X10039Y3034D01*
X10105Y2965D01*
X10184Y2910D01*
X10272Y2872D01*
X10366Y2851D01*
X10462Y2849D01*
X10557Y2866D01*
X10647Y2901D01*
X10728Y2952D01*
X10798Y3018D01*
X10853Y3097D01*
X10892Y3185D01*
X10913Y3278D01*
X10915Y3388D01*
X10896Y3483D01*
X10860Y3571D01*
X10806Y3652D01*
X10752Y3706D01*
X11098Y3706D01*
X11047Y3657D01*
X10993Y3577D01*
X10955Y3489D01*
X10935Y3395D01*
X10934Y3299D01*
X10951Y3204D01*
X10987Y3115D01*
X11039Y3034D01*
X11105Y2965D01*
X11184Y2910D01*
X11272Y2872D01*
X11366Y2851D01*
X11462Y2849D01*
X11557Y2866D01*
X11647Y2901D01*
X11728Y2952D01*
X11798Y3018D01*
X11853Y3097D01*
X11892Y3185D01*
X11913Y3278D01*
X11915Y3388D01*
X11896Y3483D01*
X11860Y3571D01*
X11806Y3652D01*
X11752Y3706D01*
X12098Y3706D01*
X12047Y3657D01*
X11993Y3577D01*
X11955Y3489D01*
X11935Y3395D01*
X11934Y3299D01*
X11951Y3204D01*
X11987Y3115D01*
X12039Y3034D01*
X12105Y2965D01*
X12184Y2910D01*
X12272Y2872D01*
X12366Y2851D01*
X12462Y2849D01*
X12557Y2866D01*
X12647Y2901D01*
X12728Y2952D01*
X12798Y3018D01*
X12853Y3097D01*
X12892Y3185D01*
X12913Y3278D01*
X12915Y3388D01*
X12896Y3483D01*
X12860Y3571D01*
X12806Y3652D01*
X12752Y3706D01*
X13098Y3706D01*
X13047Y3657D01*
X12993Y3577D01*
X12955Y3489D01*
X12935Y3395D01*
X12934Y3299D01*
X12951Y3204D01*
X12987Y3115D01*
X13039Y3034D01*
X13105Y2965D01*
X13184Y2910D01*
X13272Y2872D01*
X13366Y2851D01*
X13462Y2849D01*
X13557Y2866D01*
X13647Y2901D01*
X13728Y2952D01*
X13798Y3018D01*
X13853Y3097D01*
X13892Y3185D01*
X13913Y3278D01*
X13915Y3388D01*
X13896Y3483D01*
X13860Y3571D01*
X13806Y3652D01*
X13752Y3706D01*
X14098Y3706D01*
X14047Y3657D01*
X13993Y3577D01*
X13955Y3489D01*
X13935Y3395D01*
X13934Y3299D01*
X13951Y3204D01*
X13987Y3115D01*
X14039Y3034D01*
X14105Y2965D01*
X14184Y2910D01*
X14272Y2872D01*
X14366Y2851D01*
X14462Y2849D01*
X14557Y2866D01*
X14647Y2901D01*
X14728Y2952D01*
X14798Y3018D01*
X14853Y3097D01*
X14892Y3185D01*
X14913Y3278D01*
X14915Y3388D01*
X14896Y3483D01*
X14860Y3571D01*
X14806Y3652D01*
X14752Y3706D01*
X15100Y3706D01*
X15055Y3663D01*
X15001Y3583D01*
X14963Y3495D01*
X14943Y3401D01*
X14942Y3305D01*
X14959Y3210D01*
X14995Y3121D01*
X15047Y3040D01*
X15113Y2971D01*
X15192Y2916D01*
X15280Y2878D01*
X15374Y2857D01*
X15470Y2855D01*
X15565Y2872D01*
X15655Y2906D01*
X15736Y2958D01*
X15805Y3024D01*
X15861Y3103D01*
X15900Y3190D01*
X15921Y3284D01*
X15923Y3394D01*
X15904Y3488D01*
X15867Y3577D01*
X15814Y3657D01*
X15766Y3706D01*
X17000Y3706D01*
X17030Y3709D01*
X17061Y3712D01*
X17062Y3712D01*
X17064Y3713D01*
X17094Y3721D01*
X17123Y3730D01*
X17125Y3731D01*
X17126Y3731D01*
X17153Y3746D01*
X17181Y3760D01*
X17182Y3761D01*
X17184Y3762D01*
X17207Y3781D01*
X17231Y3800D01*
X17234Y3803D01*
X17234Y3803D01*
X17234Y3803D01*
X17235Y3804D01*
X17502Y4071D01*
X17522Y4095D01*
X17542Y4119D01*
X17543Y4120D01*
X17544Y4122D01*
X17558Y4149D01*
X17573Y4176D01*
X17574Y4177D01*
X17574Y4179D01*
X17583Y4208D01*
X17593Y4237D01*
X17593Y4239D01*
X17593Y4241D01*
X17596Y4271D01*
X17600Y4302D01*
X17600Y4305D01*
X17600Y4305D01*
X17600Y4305D01*
X17600Y4307D01*
X17600Y8244D01*
X17715Y8359D01*
X17735Y8382D01*
X17754Y8406D01*
X17755Y8408D01*
X17756Y8409D01*
X17771Y8436D01*
X17786Y8463D01*
X17786Y8465D01*
X17787Y8466D01*
X17796Y8496D01*
X17805Y8525D01*
X17805Y8527D01*
X17806Y8528D01*
X17809Y8559D01*
X17812Y8589D01*
X17812Y8593D01*
X17812Y8593D01*
X17812Y8593D01*
X17812Y8594D01*
X17812Y1294D01*
X17805Y1306D01*
X17726Y1385D01*
X17634Y1447D01*
X17612Y1456D01*
X17612Y3121D01*
X17600Y3181D01*
X17576Y3238D01*
X17542Y3289D01*
X17499Y3332D01*
X17448Y3367D01*
X17392Y3390D01*
X17332Y3403D01*
X17270Y3403D01*
X17210Y3392D01*
X17153Y3369D01*
X17102Y3335D01*
X17058Y3292D01*
X17023Y3242D01*
X16999Y3185D01*
X16986Y3125D01*
X16985Y3064D01*
X16996Y3003D01*
X17019Y2946D01*
X17052Y2895D01*
X17095Y2851D01*
X17145Y2816D01*
X17202Y2791D01*
X17261Y2778D01*
X17323Y2776D01*
X17383Y2787D01*
X17441Y2809D01*
X17492Y2842D01*
X17537Y2885D01*
X17572Y2935D01*
X17597Y2991D01*
X17611Y3051D01*
X17612Y3121D01*
X17612Y1456D01*
X17531Y1490D01*
X17421Y1513D01*
X17310Y1514D01*
X17200Y1493D01*
X17097Y1451D01*
X17004Y1390D01*
X16924Y1312D01*
X16861Y1220D01*
X16817Y1117D01*
X16794Y1008D01*
X16792Y897D01*
X16812Y787D01*
X16853Y683D01*
X16914Y589D01*
X16991Y509D01*
X17083Y445D01*
X17185Y401D01*
X17294Y377D01*
X17406Y374D01*
X17515Y394D01*
X17619Y434D01*
X17714Y494D01*
X17794Y571D01*
X17859Y662D01*
X17904Y764D01*
X17929Y873D01*
X17931Y1000D01*
X17931Y588D01*
X17343Y49D01*
X15923Y49D01*
X15923Y2390D01*
X15904Y2484D01*
X15867Y2573D01*
X15814Y2653D01*
X15747Y2722D01*
X15667Y2775D01*
X15578Y2813D01*
X15484Y2832D01*
X15388Y2833D01*
X15294Y2815D01*
X15204Y2779D01*
X15124Y2726D01*
X15055Y2659D01*
X15001Y2579D01*
X14963Y2491D01*
X14943Y2397D01*
X14942Y2301D01*
X14959Y2206D01*
X14995Y2117D01*
X15047Y2036D01*
X15113Y1967D01*
X15192Y1912D01*
X15280Y1874D01*
X15374Y1853D01*
X15470Y1851D01*
X15565Y1868D01*
X15655Y1902D01*
X15736Y1954D01*
X15805Y2020D01*
X15861Y2099D01*
X15900Y2187D01*
X15921Y2280D01*
X15923Y2390D01*
X15923Y49D01*
X14919Y49D01*
X14919Y2390D01*
X14900Y2484D01*
X14864Y2573D01*
X14810Y2653D01*
X14743Y2722D01*
X14663Y2775D01*
X14574Y2813D01*
X14480Y2832D01*
X14384Y2833D01*
X14290Y2815D01*
X14200Y2779D01*
X14120Y2726D01*
X14051Y2659D01*
X13997Y2579D01*
X13959Y2491D01*
X13939Y2397D01*
X13938Y2301D01*
X13955Y2206D01*
X13991Y2117D01*
X14043Y2036D01*
X14109Y1967D01*
X14188Y1912D01*
X14276Y1874D01*
X14370Y1853D01*
X14466Y1851D01*
X14561Y1868D01*
X14651Y1902D01*
X14732Y1954D01*
X14801Y2020D01*
X14857Y2099D01*
X14896Y2187D01*
X14917Y2280D01*
X14919Y2390D01*
X14919Y49D01*
X13915Y49D01*
X13915Y2388D01*
X13896Y2483D01*
X13860Y2571D01*
X13806Y2652D01*
X13739Y2720D01*
X13659Y2773D01*
X13570Y2811D01*
X13476Y2830D01*
X13380Y2831D01*
X13286Y2813D01*
X13197Y2777D01*
X13116Y2724D01*
X13047Y2657D01*
X12993Y2577D01*
X12955Y2489D01*
X12935Y2395D01*
X12934Y2299D01*
X12951Y2204D01*
X12987Y2115D01*
X13039Y2034D01*
X13105Y1965D01*
X13184Y1910D01*
X13272Y1872D01*
X13366Y1851D01*
X13462Y1849D01*
X13557Y1866D01*
X13647Y1901D01*
X13728Y1952D01*
X13798Y2018D01*
X13853Y2097D01*
X13892Y2185D01*
X13913Y2278D01*
X13915Y2388D01*
X13915Y49D01*
X12915Y49D01*
X12915Y2388D01*
X12896Y2483D01*
X12860Y2571D01*
X12806Y2652D01*
X12739Y2720D01*
X12659Y2773D01*
X12570Y2811D01*
X12476Y2830D01*
X12380Y2831D01*
X12286Y2813D01*
X12197Y2777D01*
X12116Y2724D01*
X12047Y2657D01*
X11993Y2577D01*
X11955Y2489D01*
X11935Y2395D01*
X11934Y2299D01*
X11951Y2204D01*
X11987Y2115D01*
X12039Y2034D01*
X12105Y1965D01*
X12184Y1910D01*
X12272Y1872D01*
X12366Y1851D01*
X12462Y1849D01*
X12557Y1866D01*
X12647Y1901D01*
X12728Y1952D01*
X12798Y2018D01*
X12853Y2097D01*
X12892Y2185D01*
X12913Y2278D01*
X12915Y2388D01*
X12915Y49D01*
X11915Y49D01*
X11915Y2388D01*
X11896Y2483D01*
X11860Y2571D01*
X11806Y2652D01*
X11739Y2720D01*
X11659Y2773D01*
X11570Y2811D01*
X11476Y2830D01*
X11380Y2831D01*
X11286Y2813D01*
X11197Y2777D01*
X11116Y2724D01*
X11047Y2657D01*
X10993Y2577D01*
X10955Y2489D01*
X10935Y2395D01*
X10934Y2299D01*
X10951Y2204D01*
X10987Y2115D01*
X11039Y2034D01*
X11105Y1965D01*
X11184Y1910D01*
X11272Y1872D01*
X11366Y1851D01*
X11462Y1849D01*
X11557Y1866D01*
X11647Y1901D01*
X11728Y1952D01*
X11798Y2018D01*
X11853Y2097D01*
X11892Y2185D01*
X11913Y2278D01*
X11915Y2388D01*
X11915Y49D01*
X10915Y49D01*
X10915Y2388D01*
X10896Y2483D01*
X10860Y2571D01*
X10806Y2652D01*
X10739Y2720D01*
X10659Y2773D01*
X10570Y2811D01*
X10476Y2830D01*
X10380Y2831D01*
X10286Y2813D01*
X10197Y2777D01*
X10116Y2724D01*
X10047Y2657D01*
X9993Y2577D01*
X9955Y2489D01*
X9935Y2395D01*
X9934Y2299D01*
X9951Y2204D01*
X9987Y2115D01*
X10039Y2034D01*
X10105Y1965D01*
X10184Y1910D01*
X10272Y1872D01*
X10366Y1851D01*
X10462Y1849D01*
X10557Y1866D01*
X10647Y1901D01*
X10728Y1952D01*
X10798Y2018D01*
X10853Y2097D01*
X10892Y2185D01*
X10913Y2278D01*
X10915Y2388D01*
X10915Y49D01*
X9915Y49D01*
X9915Y2388D01*
X9896Y2483D01*
X9860Y2571D01*
X9806Y2652D01*
X9739Y2720D01*
X9659Y2773D01*
X9570Y2811D01*
X9476Y2830D01*
X9380Y2831D01*
X9286Y2813D01*
X9197Y2777D01*
X9116Y2724D01*
X9047Y2657D01*
X8993Y2577D01*
X8955Y2489D01*
X8935Y2395D01*
X8934Y2299D01*
X8951Y2204D01*
X8987Y2115D01*
X9039Y2034D01*
X9105Y1965D01*
X9184Y1910D01*
X9272Y1872D01*
X9366Y1851D01*
X9462Y1849D01*
X9557Y1866D01*
X9647Y1901D01*
X9728Y1952D01*
X9798Y2018D01*
X9853Y2097D01*
X9892Y2185D01*
X9913Y2278D01*
X9915Y2388D01*
X9915Y49D01*
X8915Y49D01*
X8915Y2388D01*
X8896Y2483D01*
X8860Y2571D01*
X8806Y2652D01*
X8739Y2720D01*
X8659Y2773D01*
X8570Y2811D01*
X8476Y2830D01*
X8380Y2831D01*
X8286Y2813D01*
X8197Y2777D01*
X8116Y2724D01*
X8047Y2657D01*
X7993Y2577D01*
X7955Y2489D01*
X7935Y2395D01*
X7934Y2299D01*
X7951Y2204D01*
X7987Y2115D01*
X8039Y2034D01*
X8105Y1965D01*
X8184Y1910D01*
X8272Y1872D01*
X8366Y1851D01*
X8462Y1849D01*
X8557Y1866D01*
X8647Y1901D01*
X8728Y1952D01*
X8798Y2018D01*
X8853Y2097D01*
X8892Y2185D01*
X8913Y2278D01*
X8915Y2388D01*
X8915Y49D01*
X7915Y49D01*
X7915Y2388D01*
X7896Y2483D01*
X7860Y2571D01*
X7806Y2652D01*
X7739Y2720D01*
X7659Y2773D01*
X7570Y2811D01*
X7476Y2830D01*
X7380Y2831D01*
X7286Y2813D01*
X7197Y2777D01*
X7116Y2724D01*
X7047Y2657D01*
X6993Y2577D01*
X6955Y2489D01*
X6935Y2395D01*
X6934Y2299D01*
X6951Y2204D01*
X6987Y2115D01*
X7039Y2034D01*
X7105Y1965D01*
X7184Y1910D01*
X7272Y1872D01*
X7366Y1851D01*
X7462Y1849D01*
X7557Y1866D01*
X7647Y1901D01*
X7728Y1952D01*
X7798Y2018D01*
X7853Y2097D01*
X7892Y2185D01*
X7913Y2278D01*
X7915Y2388D01*
X7915Y49D01*
X6915Y49D01*
X6915Y2388D01*
X6915Y3388D01*
X6896Y3483D01*
X6860Y3571D01*
X6806Y3652D01*
X6739Y3720D01*
X6659Y3773D01*
X6570Y3811D01*
X6476Y3830D01*
X6380Y3831D01*
X6286Y3813D01*
X6197Y3777D01*
X6116Y3724D01*
X6047Y3657D01*
X5993Y3577D01*
X5955Y3489D01*
X5935Y3395D01*
X5934Y3299D01*
X5951Y3204D01*
X5987Y3115D01*
X6039Y3034D01*
X6105Y2965D01*
X6184Y2910D01*
X6272Y2872D01*
X6366Y2851D01*
X6462Y2849D01*
X6557Y2866D01*
X6647Y2901D01*
X6728Y2952D01*
X6798Y3018D01*
X6853Y3097D01*
X6892Y3185D01*
X6913Y3278D01*
X6915Y3388D01*
X6915Y2388D01*
X6896Y2483D01*
X6860Y2571D01*
X6806Y2652D01*
X6739Y2720D01*
X6659Y2773D01*
X6570Y2811D01*
X6476Y2830D01*
X6380Y2831D01*
X6286Y2813D01*
X6197Y2777D01*
X6116Y2724D01*
X6047Y2657D01*
X5993Y2577D01*
X5955Y2489D01*
X5935Y2395D01*
X5934Y2299D01*
X5951Y2204D01*
X5987Y2115D01*
X6039Y2034D01*
X6105Y1965D01*
X6184Y1910D01*
X6272Y1872D01*
X6366Y1851D01*
X6462Y1849D01*
X6557Y1866D01*
X6647Y1901D01*
X6728Y1952D01*
X6798Y2018D01*
X6853Y2097D01*
X6892Y2185D01*
X6913Y2278D01*
X6915Y2388D01*
X6915Y49D01*
X5915Y49D01*
X5915Y2388D01*
X5915Y3388D01*
X5896Y3483D01*
X5860Y3571D01*
X5806Y3652D01*
X5739Y3720D01*
X5659Y3773D01*
X5570Y3811D01*
X5476Y3830D01*
X5380Y3831D01*
X5286Y3813D01*
X5197Y3777D01*
X5116Y3724D01*
X5047Y3657D01*
X4993Y3577D01*
X4955Y3489D01*
X4935Y3395D01*
X4934Y3299D01*
X4951Y3204D01*
X4987Y3115D01*
X5039Y3034D01*
X5105Y2965D01*
X5184Y2910D01*
X5272Y2872D01*
X5366Y2851D01*
X5462Y2849D01*
X5557Y2866D01*
X5647Y2901D01*
X5728Y2952D01*
X5798Y3018D01*
X5853Y3097D01*
X5892Y3185D01*
X5913Y3278D01*
X5915Y3388D01*
X5915Y2388D01*
X5896Y2483D01*
X5860Y2571D01*
X5806Y2652D01*
X5739Y2720D01*
X5659Y2773D01*
X5570Y2811D01*
X5476Y2830D01*
X5380Y2831D01*
X5286Y2813D01*
X5197Y2777D01*
X5116Y2724D01*
X5047Y2657D01*
X4993Y2577D01*
X4955Y2489D01*
X4935Y2395D01*
X4934Y2299D01*
X4951Y2204D01*
X4987Y2115D01*
X5039Y2034D01*
X5105Y1965D01*
X5184Y1910D01*
X5272Y1872D01*
X5366Y1851D01*
X5462Y1849D01*
X5557Y1866D01*
X5647Y1901D01*
X5728Y1952D01*
X5798Y2018D01*
X5853Y2097D01*
X5892Y2185D01*
X5913Y2278D01*
X5915Y2388D01*
X5915Y49D01*
X4915Y49D01*
X4915Y2388D01*
X4915Y3388D01*
X4896Y3483D01*
X4860Y3571D01*
X4806Y3652D01*
X4739Y3720D01*
X4659Y3773D01*
X4570Y3811D01*
X4476Y3830D01*
X4380Y3831D01*
X4286Y3813D01*
X4197Y3777D01*
X4116Y3724D01*
X4047Y3657D01*
X3993Y3577D01*
X3955Y3489D01*
X3935Y3395D01*
X3934Y3299D01*
X3951Y3204D01*
X3987Y3115D01*
X4039Y3034D01*
X4105Y2965D01*
X4184Y2910D01*
X4272Y2872D01*
X4366Y2851D01*
X4462Y2849D01*
X4557Y2866D01*
X4647Y2901D01*
X4728Y2952D01*
X4798Y3018D01*
X4853Y3097D01*
X4892Y3185D01*
X4913Y3278D01*
X4915Y3388D01*
X4915Y2388D01*
X4896Y2483D01*
X4860Y2571D01*
X4806Y2652D01*
X4739Y2720D01*
X4659Y2773D01*
X4570Y2811D01*
X4476Y2830D01*
X4380Y2831D01*
X4286Y2813D01*
X4197Y2777D01*
X4116Y2724D01*
X4047Y2657D01*
X3993Y2577D01*
X3955Y2489D01*
X3935Y2395D01*
X3934Y2299D01*
X3951Y2204D01*
X3987Y2115D01*
X4039Y2034D01*
X4105Y1965D01*
X4184Y1910D01*
X4272Y1872D01*
X4366Y1851D01*
X4462Y1849D01*
X4557Y1866D01*
X4647Y1901D01*
X4728Y1952D01*
X4798Y2018D01*
X4853Y2097D01*
X4892Y2185D01*
X4913Y2278D01*
X4915Y2388D01*
X4915Y49D01*
X3915Y49D01*
X3915Y2388D01*
X3896Y2483D01*
X3860Y2571D01*
X3806Y2652D01*
X3739Y2720D01*
X3659Y2773D01*
X3570Y2811D01*
X3476Y2830D01*
X3380Y2831D01*
X3286Y2813D01*
X3197Y2777D01*
X3116Y2724D01*
X3047Y2657D01*
X2993Y2577D01*
X2955Y2489D01*
X2935Y2395D01*
X2934Y2299D01*
X2951Y2204D01*
X2987Y2115D01*
X3039Y2034D01*
X3105Y1965D01*
X3184Y1910D01*
X3272Y1872D01*
X3366Y1851D01*
X3462Y1849D01*
X3557Y1866D01*
X3647Y1901D01*
X3728Y1952D01*
X3798Y2018D01*
X3853Y2097D01*
X3892Y2185D01*
X3913Y2278D01*
X3915Y2388D01*
X3915Y49D01*
X3001Y49D01*
X3001Y718D01*
X2667Y718D01*
X2667Y874D01*
X1922Y874D01*
X1922Y718D01*
X1466Y718D01*
X1487Y764D01*
X1512Y873D01*
X1513Y1000D01*
X1492Y1110D01*
X1449Y1213D01*
X1387Y1306D01*
X1309Y1385D01*
X1216Y1447D01*
X1113Y1490D01*
X1004Y1513D01*
X893Y1514D01*
X783Y1493D01*
X680Y1451D01*
X586Y1390D01*
X506Y1312D01*
X443Y1220D01*
X399Y1117D01*
X376Y1008D01*
X375Y897D01*
X395Y787D01*
X436Y683D01*
X496Y589D01*
X574Y509D01*
X665Y445D01*
X768Y401D01*
X877Y377D01*
X988Y374D01*
X1098Y394D01*
X1202Y434D01*
X1250Y464D01*
X1250Y49D01*
X965Y49D01*
X49Y1004D01*
X49Y23049D01*
X1004Y23966D01*
X3338Y23966D01*
X3320Y23963D01*
X3263Y23940D01*
X3212Y23906D01*
X3168Y23863D01*
X3133Y23812D01*
X3109Y23756D01*
X3096Y23696D01*
X3096Y23635D01*
X3107Y23574D01*
X3129Y23517D01*
X3162Y23466D01*
X3205Y23421D01*
X3256Y23386D01*
X3272Y23379D01*
X3265Y23373D01*
X3235Y23329D01*
X3214Y23279D01*
X3203Y23227D01*
X3202Y23173D01*
X3212Y23121D01*
X3231Y23071D01*
X3260Y23026D01*
X3298Y22987D01*
X3342Y22956D01*
X3391Y22935D01*
X3443Y22923D01*
X3497Y22922D01*
X3550Y22932D01*
X3600Y22951D01*
X3645Y22980D01*
X3684Y23017D01*
X3715Y23061D01*
X3737Y23110D01*
X3749Y23162D01*
X3750Y23223D01*
X3739Y23276D01*
X3719Y23325D01*
X3689Y23370D01*
X3651Y23408D01*
X3620Y23429D01*
X3647Y23455D01*
X3682Y23506D01*
X3707Y23562D01*
X3721Y23621D01*
X3722Y23692D01*
X3710Y23752D01*
X3687Y23809D01*
X3653Y23860D01*
X3609Y23903D01*
X3559Y23938D01*
X3502Y23961D01*
X3479Y23966D01*
X17419Y23966D01*
X18257Y23090D01*
X18257Y887D01*
M02*
