G04 (created by PCBNEW (2013-may-18)-stable) date Čt 25. září 2014, 17:16:29 CEST*
%MOIN*%
G04 Gerber Fmt 3.4, Leading zero omitted, Abs format*
%FSLAX34Y34*%
G01*
G70*
G90*
G04 APERTURE LIST*
%ADD10C,0.00590551*%
%ADD11C,0.00826772*%
%ADD12C,0.011811*%
%ADD13C,0.00787402*%
%ADD14C,0.00757874*%
%ADD15C,0.00984252*%
%ADD16C,0.0001*%
%ADD17C,0.0590551*%
%ADD18C,0.0165354*%
%ADD19C,0.008*%
%ADD20C,0.0079*%
%ADD21C,0.00748031*%
%ADD22R,0.0185039X0.0315*%
%ADD23C,0.06*%
%ADD24C,0.0708661*%
%ADD25R,0.0708661X0.0787*%
%ADD26C,0.0866142*%
%ADD27R,0.0512X0.0118*%
%ADD28R,0.0118X0.0512*%
%ADD29R,0.0236X0.0394*%
%ADD30R,0.019685X0.023622*%
%ADD31R,0.0354X0.0394*%
%ADD32R,0.0394X0.0354*%
%ADD33R,0.0629921X0.0314961*%
%ADD34R,0.11811X0.0826772*%
%ADD35R,0.0826772X0.11811*%
%ADD36R,0.0314961X0.0629921*%
%ADD37R,0.0472X0.0236*%
%ADD38R,0.0747X0.0747*%
%ADD39R,0.0531X0.0157*%
%ADD40R,0.053X0.0157*%
%ADD41R,0.059X0.0472*%
%ADD42R,0.059X0.0473*%
%ADD43R,0.026X0.016*%
%ADD44O,0.00787402X0.0295276*%
%ADD45O,0.0295276X0.00787402*%
%ADD46R,0.0413386X0.0551181*%
G04 APERTURE END LIST*
G54D10*
G54D11*
X13368Y18037D02*
X13591Y18037D01*
X13368Y17703D01*
X13591Y17703D01*
X11484Y17976D02*
X11484Y17817D01*
X11372Y18151D02*
X11484Y17976D01*
X11595Y18151D01*
X12187Y18805D02*
X12410Y18470D01*
X12410Y18805D02*
X12187Y18470D01*
G54D12*
X13268Y17460D02*
G75*
G03X13268Y17460I-362J0D01*
G74*
G01*
G54D13*
X13016Y17460D02*
G75*
G03X13016Y17460I-111J0D01*
G74*
G01*
X12993Y17460D02*
G75*
G03X12993Y17460I-88J0D01*
G74*
G01*
X12961Y17460D02*
G75*
G03X12961Y17460I-55J0D01*
G74*
G01*
G54D12*
X11409Y17460D02*
X11763Y17814D01*
X11409Y17460D02*
X11763Y17106D01*
X12905Y17460D02*
X11409Y17460D01*
X12905Y18956D02*
X13259Y18602D01*
X12905Y18956D02*
X12551Y18602D01*
X12905Y17460D02*
X12905Y18956D01*
G54D14*
X14369Y13805D02*
X14369Y13704D01*
X14528Y13704D02*
X14225Y13704D01*
X14225Y13848D01*
X14528Y14007D02*
X14513Y13978D01*
X14484Y13963D01*
X14225Y13963D01*
X14528Y14122D02*
X14326Y14122D01*
X14225Y14122D02*
X14239Y14108D01*
X14253Y14122D01*
X14239Y14137D01*
X14225Y14122D01*
X14253Y14122D01*
X14326Y14396D02*
X14571Y14396D01*
X14600Y14382D01*
X14614Y14368D01*
X14629Y14339D01*
X14629Y14295D01*
X14614Y14267D01*
X14513Y14396D02*
X14528Y14368D01*
X14528Y14310D01*
X14513Y14281D01*
X14499Y14267D01*
X14470Y14252D01*
X14383Y14252D01*
X14354Y14267D01*
X14340Y14281D01*
X14326Y14310D01*
X14326Y14368D01*
X14340Y14396D01*
X14528Y14541D02*
X14225Y14541D01*
X14528Y14671D02*
X14369Y14671D01*
X14340Y14656D01*
X14326Y14627D01*
X14326Y14584D01*
X14340Y14555D01*
X14354Y14541D01*
X14326Y14772D02*
X14326Y14887D01*
X14225Y14815D02*
X14484Y14815D01*
X14513Y14830D01*
X14528Y14858D01*
X14528Y14887D01*
X14528Y15349D02*
X14225Y15349D01*
X14513Y15349D02*
X14528Y15320D01*
X14528Y15263D01*
X14513Y15234D01*
X14499Y15219D01*
X14470Y15205D01*
X14383Y15205D01*
X14354Y15219D01*
X14340Y15234D01*
X14326Y15263D01*
X14326Y15320D01*
X14340Y15349D01*
X14528Y15494D02*
X14326Y15494D01*
X14225Y15494D02*
X14239Y15479D01*
X14253Y15494D01*
X14239Y15508D01*
X14225Y15494D01*
X14253Y15494D01*
X14528Y15638D02*
X14326Y15638D01*
X14383Y15638D02*
X14354Y15652D01*
X14340Y15667D01*
X14326Y15696D01*
X14326Y15725D01*
X14513Y15941D02*
X14528Y15912D01*
X14528Y15854D01*
X14513Y15826D01*
X14484Y15811D01*
X14369Y15811D01*
X14340Y15826D01*
X14326Y15854D01*
X14326Y15912D01*
X14340Y15941D01*
X14369Y15956D01*
X14398Y15956D01*
X14427Y15811D01*
X14513Y16215D02*
X14528Y16187D01*
X14528Y16129D01*
X14513Y16100D01*
X14499Y16085D01*
X14470Y16071D01*
X14383Y16071D01*
X14354Y16085D01*
X14340Y16100D01*
X14326Y16129D01*
X14326Y16187D01*
X14340Y16215D01*
X14326Y16302D02*
X14326Y16417D01*
X14225Y16345D02*
X14484Y16345D01*
X14513Y16360D01*
X14528Y16389D01*
X14528Y16417D01*
X14528Y16519D02*
X14326Y16519D01*
X14225Y16519D02*
X14239Y16504D01*
X14253Y16519D01*
X14239Y16533D01*
X14225Y16519D01*
X14253Y16519D01*
X14528Y16706D02*
X14513Y16677D01*
X14499Y16663D01*
X14470Y16648D01*
X14383Y16648D01*
X14354Y16663D01*
X14340Y16677D01*
X14326Y16706D01*
X14326Y16750D01*
X14340Y16778D01*
X14354Y16793D01*
X14383Y16807D01*
X14470Y16807D01*
X14499Y16793D01*
X14513Y16778D01*
X14528Y16750D01*
X14528Y16706D01*
X14326Y16937D02*
X14528Y16937D01*
X14354Y16937D02*
X14340Y16952D01*
X14326Y16980D01*
X14326Y17024D01*
X14340Y17053D01*
X14369Y17067D01*
X14528Y17067D01*
G54D10*
X-196Y944D02*
G75*
G03X944Y-196I1141J0D01*
G74*
G01*
X944Y24212D02*
X17362Y24212D01*
X-196Y944D02*
X-196Y23070D01*
X17362Y-196D02*
X944Y-196D01*
X18503Y23070D02*
X18503Y944D01*
X17362Y-196D02*
G75*
G03X18503Y944I0J1141D01*
G74*
G01*
X944Y24212D02*
G75*
G03X-196Y23070I0J-1141D01*
G74*
G01*
X18503Y23070D02*
G75*
G03X17362Y24212I-1141J0D01*
G74*
G01*
G54D15*
X3443Y4528D02*
X3183Y4788D01*
X3402Y4528D02*
X3202Y4723D01*
X3163Y5018D02*
X4033Y5018D01*
X4033Y5018D02*
X4033Y4508D01*
X4033Y4508D02*
X3163Y4508D01*
X3163Y4508D02*
X3163Y5018D01*
G54D16*
G36*
X14105Y13696D02*
X14104Y13693D01*
X14103Y13691D01*
X14103Y13691D01*
X14093Y13684D01*
X14088Y13683D01*
X14085Y13688D01*
X14075Y13704D01*
X14059Y13730D01*
X14038Y13764D01*
X14012Y13807D01*
X13981Y13858D01*
X13946Y13915D01*
X13908Y13979D01*
X13866Y14049D01*
X13821Y14123D01*
X13774Y14202D01*
X13724Y14285D01*
X13686Y14349D01*
X13635Y14434D01*
X13586Y14515D01*
X13539Y14593D01*
X13495Y14667D01*
X13454Y14735D01*
X13416Y14797D01*
X13382Y14853D01*
X13352Y14902D01*
X13327Y14943D01*
X13308Y14975D01*
X13293Y14999D01*
X13285Y15012D01*
X13282Y15015D01*
X13279Y15010D01*
X13269Y14994D01*
X13253Y14969D01*
X13231Y14935D01*
X13204Y14892D01*
X13173Y14842D01*
X13137Y14785D01*
X13097Y14722D01*
X13054Y14653D01*
X13007Y14579D01*
X12958Y14501D01*
X12907Y14419D01*
X12863Y14349D01*
X12810Y14265D01*
X12760Y14183D01*
X12711Y14106D01*
X12665Y14033D01*
X12623Y13965D01*
X12584Y13903D01*
X12549Y13847D01*
X12518Y13798D01*
X12492Y13757D01*
X12472Y13724D01*
X12457Y13701D01*
X12448Y13687D01*
X12445Y13683D01*
X12439Y13685D01*
X12433Y13687D01*
X12423Y13693D01*
X12421Y13698D01*
X12423Y13704D01*
X12428Y13723D01*
X12436Y13753D01*
X12447Y13794D01*
X12461Y13845D01*
X12477Y13906D01*
X12496Y13976D01*
X12518Y14055D01*
X12542Y14143D01*
X12568Y14238D01*
X12595Y14340D01*
X12625Y14448D01*
X12656Y14563D01*
X12689Y14683D01*
X12724Y14809D01*
X12759Y14939D01*
X12796Y15072D01*
X12833Y15210D01*
X12851Y15274D01*
X12900Y15453D01*
X12947Y15622D01*
X12990Y15781D01*
X13031Y15930D01*
X13069Y16067D01*
X13104Y16194D01*
X13136Y16309D01*
X13165Y16414D01*
X13191Y16507D01*
X13214Y16588D01*
X13234Y16658D01*
X13251Y16717D01*
X13264Y16764D01*
X13273Y16798D01*
X13280Y16821D01*
X13284Y16831D01*
X13285Y16831D01*
X13287Y16824D01*
X13292Y16805D01*
X13300Y16775D01*
X13311Y16734D01*
X13325Y16682D01*
X13341Y16620D01*
X13360Y16550D01*
X13381Y16470D01*
X13405Y16383D01*
X13430Y16287D01*
X13457Y16185D01*
X13486Y16076D01*
X13516Y15961D01*
X13548Y15840D01*
X13581Y15714D01*
X13616Y15584D01*
X13651Y15450D01*
X13688Y15313D01*
X13702Y15259D01*
X13745Y15095D01*
X13786Y14942D01*
X13823Y14800D01*
X13858Y14669D01*
X13889Y14549D01*
X13918Y14440D01*
X13945Y14340D01*
X13968Y14249D01*
X13990Y14167D01*
X14009Y14094D01*
X14026Y14028D01*
X14041Y13970D01*
X14054Y13919D01*
X14065Y13875D01*
X14075Y13837D01*
X14083Y13804D01*
X14089Y13777D01*
X14094Y13754D01*
X14098Y13736D01*
X14101Y13721D01*
X14103Y13710D01*
X14104Y13702D01*
X14105Y13696D01*
X14105Y13696D01*
X14105Y13696D01*
G37*
G36*
X4994Y18403D02*
X4994Y18380D01*
X4991Y18361D01*
X4985Y18345D01*
X4975Y18330D01*
X4967Y18321D01*
X4949Y18307D01*
X4933Y18299D01*
X4928Y18298D01*
X4928Y18394D01*
X4927Y18412D01*
X4922Y18428D01*
X4915Y18441D01*
X4906Y18450D01*
X4905Y18450D01*
X4890Y18454D01*
X4876Y18453D01*
X4862Y18447D01*
X4852Y18437D01*
X4851Y18435D01*
X4845Y18419D01*
X4843Y18401D01*
X4844Y18383D01*
X4848Y18366D01*
X4855Y18353D01*
X4860Y18348D01*
X4873Y18341D01*
X4887Y18339D01*
X4901Y18342D01*
X4912Y18349D01*
X4920Y18361D01*
X4926Y18377D01*
X4928Y18394D01*
X4928Y18298D01*
X4917Y18295D01*
X4898Y18292D01*
X4878Y18292D01*
X4861Y18293D01*
X4857Y18293D01*
X4834Y18301D01*
X4813Y18313D01*
X4797Y18329D01*
X4787Y18343D01*
X4779Y18365D01*
X4776Y18388D01*
X4776Y18412D01*
X4781Y18435D01*
X4790Y18456D01*
X4803Y18472D01*
X4806Y18475D01*
X4821Y18486D01*
X4839Y18494D01*
X4859Y18499D01*
X4878Y18500D01*
X4907Y18499D01*
X4932Y18494D01*
X4953Y18484D01*
X4970Y18469D01*
X4982Y18452D01*
X4987Y18442D01*
X4991Y18433D01*
X4992Y18422D01*
X4994Y18408D01*
X4994Y18403D01*
X4994Y18403D01*
X4994Y18403D01*
G37*
G36*
X5502Y18379D02*
X5435Y18379D01*
X5435Y18422D01*
X5434Y18427D01*
X5431Y18435D01*
X5431Y18437D01*
X5423Y18448D01*
X5412Y18455D01*
X5398Y18458D01*
X5385Y18456D01*
X5372Y18451D01*
X5362Y18441D01*
X5358Y18433D01*
X5355Y18426D01*
X5353Y18421D01*
X5353Y18420D01*
X5356Y18420D01*
X5364Y18419D01*
X5377Y18419D01*
X5392Y18419D01*
X5394Y18419D01*
X5413Y18419D01*
X5426Y18420D01*
X5434Y18421D01*
X5435Y18422D01*
X5435Y18379D01*
X5427Y18379D01*
X5403Y18379D01*
X5384Y18379D01*
X5370Y18378D01*
X5360Y18377D01*
X5355Y18376D01*
X5353Y18373D01*
X5353Y18369D01*
X5356Y18364D01*
X5358Y18359D01*
X5366Y18348D01*
X5378Y18341D01*
X5394Y18337D01*
X5409Y18336D01*
X5437Y18339D01*
X5462Y18346D01*
X5478Y18353D01*
X5491Y18359D01*
X5491Y18334D01*
X5491Y18308D01*
X5474Y18302D01*
X5442Y18295D01*
X5409Y18291D01*
X5379Y18293D01*
X5366Y18295D01*
X5341Y18303D01*
X5320Y18316D01*
X5305Y18333D01*
X5294Y18355D01*
X5288Y18380D01*
X5287Y18397D01*
X5290Y18425D01*
X5298Y18448D01*
X5311Y18468D01*
X5330Y18483D01*
X5343Y18491D01*
X5352Y18495D01*
X5361Y18497D01*
X5371Y18499D01*
X5384Y18499D01*
X5396Y18499D01*
X5418Y18498D01*
X5436Y18496D01*
X5450Y18490D01*
X5463Y18482D01*
X5472Y18473D01*
X5486Y18456D01*
X5495Y18437D01*
X5500Y18414D01*
X5500Y18405D01*
X5502Y18379D01*
X5502Y18379D01*
X5502Y18379D01*
G37*
G36*
X6160Y18297D02*
X6127Y18297D01*
X6094Y18297D01*
X6094Y18311D01*
X6094Y18325D01*
X6093Y18324D01*
X6093Y18388D01*
X6092Y18405D01*
X6090Y18422D01*
X6085Y18435D01*
X6077Y18444D01*
X6066Y18451D01*
X6053Y18455D01*
X6051Y18455D01*
X6039Y18452D01*
X6028Y18445D01*
X6019Y18436D01*
X6016Y18427D01*
X6013Y18413D01*
X6012Y18397D01*
X6012Y18382D01*
X6014Y18369D01*
X6014Y18368D01*
X6022Y18355D01*
X6033Y18345D01*
X6045Y18340D01*
X6059Y18340D01*
X6072Y18344D01*
X6077Y18349D01*
X6084Y18358D01*
X6089Y18370D01*
X6090Y18373D01*
X6093Y18388D01*
X6093Y18324D01*
X6081Y18312D01*
X6063Y18299D01*
X6043Y18292D01*
X6021Y18291D01*
X6008Y18294D01*
X5990Y18301D01*
X5974Y18314D01*
X5961Y18330D01*
X5952Y18350D01*
X5946Y18372D01*
X5943Y18395D01*
X5945Y18418D01*
X5951Y18441D01*
X5961Y18461D01*
X5969Y18473D01*
X5986Y18488D01*
X6003Y18497D01*
X6024Y18501D01*
X6029Y18501D01*
X6049Y18499D01*
X6065Y18493D01*
X6081Y18482D01*
X6082Y18481D01*
X6094Y18471D01*
X6094Y18522D01*
X6094Y18573D01*
X6127Y18573D01*
X6160Y18573D01*
X6160Y18435D01*
X6160Y18297D01*
X6160Y18297D01*
X6160Y18297D01*
G37*
G36*
X6647Y18297D02*
X6614Y18297D01*
X6581Y18297D01*
X6581Y18310D01*
X6581Y18324D01*
X6581Y18381D01*
X6581Y18382D01*
X6578Y18384D01*
X6570Y18385D01*
X6559Y18386D01*
X6547Y18386D01*
X6535Y18384D01*
X6526Y18382D01*
X6522Y18381D01*
X6513Y18374D01*
X6509Y18365D01*
X6508Y18357D01*
X6511Y18348D01*
X6519Y18341D01*
X6529Y18337D01*
X6542Y18336D01*
X6554Y18339D01*
X6564Y18345D01*
X6572Y18355D01*
X6578Y18368D01*
X6581Y18381D01*
X6581Y18324D01*
X6566Y18310D01*
X6547Y18298D01*
X6526Y18292D01*
X6503Y18292D01*
X6493Y18293D01*
X6474Y18301D01*
X6460Y18313D01*
X6449Y18329D01*
X6444Y18347D01*
X6443Y18366D01*
X6448Y18385D01*
X6449Y18388D01*
X6459Y18401D01*
X6473Y18412D01*
X6492Y18419D01*
X6516Y18423D01*
X6546Y18425D01*
X6550Y18425D01*
X6581Y18425D01*
X6579Y18434D01*
X6576Y18442D01*
X6574Y18447D01*
X6566Y18452D01*
X6553Y18456D01*
X6537Y18457D01*
X6519Y18457D01*
X6501Y18455D01*
X6484Y18451D01*
X6476Y18448D01*
X6459Y18442D01*
X6459Y18466D01*
X6459Y18491D01*
X6471Y18494D01*
X6479Y18496D01*
X6492Y18497D01*
X6508Y18499D01*
X6526Y18500D01*
X6527Y18500D01*
X6553Y18500D01*
X6575Y18499D01*
X6592Y18495D01*
X6606Y18490D01*
X6618Y18481D01*
X6619Y18480D01*
X6627Y18473D01*
X6633Y18466D01*
X6637Y18457D01*
X6641Y18447D01*
X6643Y18434D01*
X6644Y18417D01*
X6645Y18395D01*
X6646Y18368D01*
X6647Y18297D01*
X6647Y18297D01*
X6647Y18297D01*
G37*
G36*
X7126Y18464D02*
X7126Y18452D01*
X7125Y18443D01*
X7124Y18439D01*
X7124Y18439D01*
X7099Y18450D01*
X7077Y18454D01*
X7058Y18453D01*
X7045Y18448D01*
X7032Y18438D01*
X7023Y18425D01*
X7019Y18408D01*
X7018Y18395D01*
X7020Y18376D01*
X7027Y18361D01*
X7038Y18350D01*
X7041Y18347D01*
X7054Y18342D01*
X7070Y18340D01*
X7087Y18340D01*
X7104Y18344D01*
X7109Y18346D01*
X7118Y18350D01*
X7124Y18352D01*
X7125Y18353D01*
X7126Y18350D01*
X7126Y18342D01*
X7126Y18330D01*
X7126Y18327D01*
X7125Y18302D01*
X7110Y18298D01*
X7093Y18294D01*
X7074Y18292D01*
X7054Y18292D01*
X7036Y18293D01*
X7034Y18293D01*
X7010Y18301D01*
X6988Y18313D01*
X6970Y18330D01*
X6958Y18349D01*
X6955Y18358D01*
X6952Y18368D01*
X6951Y18380D01*
X6951Y18397D01*
X6951Y18413D01*
X6952Y18424D01*
X6954Y18433D01*
X6957Y18441D01*
X6960Y18447D01*
X6974Y18468D01*
X6994Y18484D01*
X7008Y18492D01*
X7016Y18495D01*
X7025Y18497D01*
X7036Y18498D01*
X7051Y18499D01*
X7063Y18499D01*
X7083Y18499D01*
X7100Y18498D01*
X7112Y18495D01*
X7114Y18495D01*
X7126Y18491D01*
X7126Y18464D01*
X7126Y18464D01*
X7126Y18464D01*
G37*
G36*
X7381Y18379D02*
X7314Y18379D01*
X7314Y18422D01*
X7311Y18432D01*
X7305Y18442D01*
X7298Y18451D01*
X7294Y18453D01*
X7279Y18458D01*
X7264Y18456D01*
X7250Y18450D01*
X7239Y18439D01*
X7233Y18426D01*
X7233Y18423D01*
X7233Y18421D01*
X7236Y18420D01*
X7243Y18419D01*
X7253Y18419D01*
X7270Y18419D01*
X7272Y18419D01*
X7291Y18419D01*
X7304Y18420D01*
X7312Y18421D01*
X7314Y18422D01*
X7314Y18379D01*
X7306Y18379D01*
X7231Y18379D01*
X7233Y18370D01*
X7238Y18356D01*
X7246Y18346D01*
X7258Y18340D01*
X7274Y18337D01*
X7295Y18337D01*
X7312Y18338D01*
X7325Y18340D01*
X7336Y18344D01*
X7348Y18349D01*
X7370Y18359D01*
X7370Y18334D01*
X7370Y18308D01*
X7352Y18302D01*
X7317Y18294D01*
X7283Y18291D01*
X7251Y18294D01*
X7245Y18295D01*
X7219Y18303D01*
X7199Y18316D01*
X7183Y18333D01*
X7173Y18354D01*
X7167Y18379D01*
X7166Y18388D01*
X7167Y18413D01*
X7171Y18435D01*
X7179Y18453D01*
X7191Y18468D01*
X7205Y18481D01*
X7220Y18490D01*
X7237Y18496D01*
X7257Y18499D01*
X7274Y18499D01*
X7297Y18498D01*
X7314Y18496D01*
X7328Y18490D01*
X7341Y18482D01*
X7351Y18473D01*
X7365Y18456D01*
X7373Y18437D01*
X7378Y18414D01*
X7379Y18405D01*
X7381Y18379D01*
X7381Y18379D01*
X7381Y18379D01*
G37*
G36*
X7630Y18297D02*
X7597Y18297D01*
X7564Y18297D01*
X7564Y18310D01*
X7564Y18324D01*
X7562Y18322D01*
X7562Y18399D01*
X7560Y18420D01*
X7554Y18436D01*
X7544Y18447D01*
X7530Y18452D01*
X7521Y18453D01*
X7506Y18451D01*
X7495Y18444D01*
X7487Y18431D01*
X7483Y18413D01*
X7482Y18395D01*
X7483Y18374D01*
X7488Y18358D01*
X7497Y18347D01*
X7510Y18341D01*
X7523Y18340D01*
X7538Y18342D01*
X7545Y18346D01*
X7554Y18358D01*
X7560Y18374D01*
X7562Y18397D01*
X7562Y18399D01*
X7562Y18322D01*
X7549Y18311D01*
X7531Y18299D01*
X7511Y18292D01*
X7491Y18291D01*
X7478Y18293D01*
X7458Y18303D01*
X7440Y18318D01*
X7426Y18337D01*
X7420Y18351D01*
X7416Y18367D01*
X7414Y18387D01*
X7414Y18408D01*
X7416Y18427D01*
X7420Y18443D01*
X7421Y18446D01*
X7433Y18466D01*
X7445Y18481D01*
X7461Y18492D01*
X7463Y18492D01*
X7484Y18500D01*
X7506Y18501D01*
X7528Y18495D01*
X7548Y18484D01*
X7553Y18480D01*
X7564Y18471D01*
X7564Y18522D01*
X7564Y18573D01*
X7597Y18573D01*
X7630Y18573D01*
X7630Y18435D01*
X7630Y18297D01*
X7630Y18297D01*
X7630Y18297D01*
G37*
G36*
X8031Y18310D02*
X8014Y18304D01*
X7982Y18295D01*
X7951Y18291D01*
X7918Y18293D01*
X7913Y18294D01*
X7886Y18302D01*
X7862Y18315D01*
X7840Y18333D01*
X7822Y18355D01*
X7815Y18369D01*
X7811Y18377D01*
X7808Y18385D01*
X7807Y18393D01*
X7806Y18404D01*
X7806Y18419D01*
X7806Y18429D01*
X7806Y18447D01*
X7807Y18461D01*
X7808Y18471D01*
X7811Y18480D01*
X7814Y18488D01*
X7826Y18512D01*
X7845Y18532D01*
X7868Y18549D01*
X7875Y18552D01*
X7887Y18558D01*
X7897Y18562D01*
X7907Y18564D01*
X7919Y18565D01*
X7935Y18566D01*
X7965Y18566D01*
X7990Y18563D01*
X8011Y18557D01*
X8019Y18553D01*
X8031Y18547D01*
X8031Y18521D01*
X8031Y18508D01*
X8031Y18499D01*
X8030Y18495D01*
X8030Y18494D01*
X8027Y18496D01*
X8019Y18499D01*
X8008Y18504D01*
X8006Y18505D01*
X7994Y18510D01*
X7983Y18514D01*
X7972Y18515D01*
X7958Y18516D01*
X7956Y18516D01*
X7941Y18515D01*
X7930Y18514D01*
X7922Y18512D01*
X7914Y18508D01*
X7898Y18495D01*
X7886Y18479D01*
X7880Y18459D01*
X7877Y18434D01*
X7877Y18422D01*
X7880Y18398D01*
X7887Y18379D01*
X7898Y18364D01*
X7910Y18354D01*
X7917Y18349D01*
X7924Y18347D01*
X7932Y18345D01*
X7943Y18345D01*
X7955Y18345D01*
X7969Y18345D01*
X7979Y18345D01*
X7988Y18347D01*
X7997Y18350D01*
X8009Y18355D01*
X8024Y18363D01*
X8029Y18365D01*
X8030Y18363D01*
X8031Y18355D01*
X8031Y18344D01*
X8031Y18338D01*
X8031Y18310D01*
X8031Y18310D01*
X8031Y18310D01*
G37*
G36*
X8288Y18403D02*
X8287Y18378D01*
X8283Y18357D01*
X8275Y18340D01*
X8262Y18324D01*
X8260Y18321D01*
X8243Y18307D01*
X8227Y18299D01*
X8220Y18297D01*
X8220Y18396D01*
X8218Y18418D01*
X8213Y18435D01*
X8203Y18447D01*
X8190Y18454D01*
X8179Y18455D01*
X8164Y18452D01*
X8152Y18443D01*
X8143Y18430D01*
X8138Y18413D01*
X8137Y18399D01*
X8139Y18376D01*
X8144Y18359D01*
X8154Y18347D01*
X8167Y18341D01*
X8179Y18340D01*
X8190Y18341D01*
X8200Y18344D01*
X8202Y18345D01*
X8211Y18354D01*
X8217Y18368D01*
X8220Y18386D01*
X8220Y18396D01*
X8220Y18297D01*
X8207Y18294D01*
X8185Y18292D01*
X8162Y18292D01*
X8147Y18295D01*
X8128Y18300D01*
X8113Y18308D01*
X8100Y18319D01*
X8097Y18322D01*
X8082Y18341D01*
X8073Y18363D01*
X8069Y18386D01*
X8069Y18410D01*
X8074Y18433D01*
X8083Y18454D01*
X8097Y18472D01*
X8107Y18481D01*
X8128Y18492D01*
X8152Y18499D01*
X8179Y18501D01*
X8209Y18498D01*
X8233Y18491D01*
X8254Y18479D01*
X8270Y18462D01*
X8280Y18441D01*
X8287Y18416D01*
X8288Y18403D01*
X8288Y18403D01*
X8288Y18403D01*
G37*
G36*
X9153Y18380D02*
X9150Y18361D01*
X9144Y18345D01*
X9134Y18330D01*
X9126Y18321D01*
X9108Y18307D01*
X9093Y18299D01*
X9087Y18298D01*
X9087Y18394D01*
X9086Y18412D01*
X9082Y18428D01*
X9075Y18441D01*
X9065Y18450D01*
X9065Y18450D01*
X9050Y18454D01*
X9035Y18453D01*
X9022Y18447D01*
X9012Y18437D01*
X9010Y18435D01*
X9005Y18419D01*
X9003Y18401D01*
X9004Y18383D01*
X9008Y18366D01*
X9015Y18353D01*
X9020Y18348D01*
X9032Y18341D01*
X9047Y18339D01*
X9061Y18342D01*
X9071Y18349D01*
X9080Y18361D01*
X9085Y18377D01*
X9087Y18394D01*
X9087Y18298D01*
X9077Y18295D01*
X9057Y18292D01*
X9038Y18292D01*
X9021Y18293D01*
X9017Y18293D01*
X8993Y18301D01*
X8973Y18313D01*
X8956Y18329D01*
X8946Y18343D01*
X8939Y18365D01*
X8935Y18388D01*
X8936Y18412D01*
X8941Y18435D01*
X8950Y18456D01*
X8963Y18472D01*
X8965Y18475D01*
X8981Y18486D01*
X8998Y18494D01*
X9018Y18499D01*
X9037Y18500D01*
X9067Y18499D01*
X9092Y18494D01*
X9113Y18484D01*
X9130Y18469D01*
X9142Y18452D01*
X9147Y18442D01*
X9150Y18433D01*
X9152Y18422D01*
X9153Y18408D01*
X9153Y18403D01*
X9153Y18380D01*
X9153Y18380D01*
X9153Y18380D01*
G37*
G36*
X9651Y18379D02*
X9585Y18379D01*
X9585Y18424D01*
X9582Y18435D01*
X9574Y18446D01*
X9563Y18454D01*
X9550Y18458D01*
X9547Y18458D01*
X9531Y18456D01*
X9519Y18448D01*
X9509Y18434D01*
X9506Y18427D01*
X9503Y18419D01*
X9544Y18419D01*
X9561Y18419D01*
X9573Y18419D01*
X9580Y18420D01*
X9584Y18421D01*
X9585Y18423D01*
X9585Y18424D01*
X9585Y18379D01*
X9577Y18379D01*
X9550Y18379D01*
X9529Y18379D01*
X9515Y18378D01*
X9506Y18377D01*
X9503Y18376D01*
X9503Y18375D01*
X9505Y18367D01*
X9511Y18357D01*
X9518Y18347D01*
X9524Y18342D01*
X9532Y18339D01*
X9542Y18337D01*
X9556Y18336D01*
X9560Y18336D01*
X9578Y18337D01*
X9595Y18340D01*
X9614Y18346D01*
X9635Y18354D01*
X9638Y18355D01*
X9640Y18353D01*
X9641Y18347D01*
X9641Y18336D01*
X9641Y18332D01*
X9641Y18308D01*
X9624Y18302D01*
X9590Y18295D01*
X9558Y18291D01*
X9528Y18292D01*
X9519Y18294D01*
X9494Y18302D01*
X9473Y18314D01*
X9456Y18332D01*
X9445Y18353D01*
X9438Y18378D01*
X9437Y18397D01*
X9440Y18423D01*
X9448Y18447D01*
X9461Y18467D01*
X9478Y18483D01*
X9494Y18491D01*
X9514Y18497D01*
X9537Y18500D01*
X9561Y18500D01*
X9582Y18497D01*
X9590Y18494D01*
X9611Y18483D01*
X9629Y18467D01*
X9641Y18446D01*
X9649Y18423D01*
X9651Y18400D01*
X9651Y18379D01*
X9651Y18379D01*
X9651Y18379D01*
G37*
G36*
X4558Y18430D02*
X4558Y18413D01*
X4557Y18400D01*
X4556Y18391D01*
X4554Y18383D01*
X4551Y18374D01*
X4549Y18370D01*
X4536Y18349D01*
X4518Y18330D01*
X4498Y18315D01*
X4494Y18313D01*
X4488Y18311D01*
X4488Y18430D01*
X4486Y18454D01*
X4479Y18474D01*
X4468Y18489D01*
X4452Y18500D01*
X4431Y18507D01*
X4406Y18510D01*
X4379Y18512D01*
X4379Y18430D01*
X4379Y18349D01*
X4408Y18350D01*
X4428Y18352D01*
X4443Y18356D01*
X4450Y18359D01*
X4466Y18370D01*
X4478Y18385D01*
X4485Y18403D01*
X4488Y18426D01*
X4488Y18430D01*
X4488Y18311D01*
X4480Y18307D01*
X4462Y18303D01*
X4440Y18300D01*
X4413Y18298D01*
X4380Y18297D01*
X4370Y18297D01*
X4310Y18297D01*
X4310Y18431D01*
X4310Y18564D01*
X4381Y18563D01*
X4408Y18562D01*
X4429Y18561D01*
X4445Y18560D01*
X4457Y18558D01*
X4467Y18556D01*
X4471Y18555D01*
X4498Y18544D01*
X4520Y18528D01*
X4538Y18508D01*
X4549Y18488D01*
X4553Y18480D01*
X4556Y18472D01*
X4557Y18463D01*
X4558Y18451D01*
X4558Y18435D01*
X4558Y18430D01*
X4558Y18430D01*
X4558Y18430D01*
G37*
G36*
X4760Y18456D02*
X4760Y18448D01*
X4759Y18444D01*
X4757Y18443D01*
X4755Y18443D01*
X4749Y18445D01*
X4738Y18446D01*
X4729Y18447D01*
X4711Y18446D01*
X4697Y18441D01*
X4687Y18430D01*
X4681Y18421D01*
X4679Y18415D01*
X4677Y18408D01*
X4676Y18399D01*
X4675Y18387D01*
X4675Y18370D01*
X4675Y18352D01*
X4675Y18297D01*
X4642Y18297D01*
X4609Y18297D01*
X4609Y18397D01*
X4609Y18498D01*
X4642Y18498D01*
X4675Y18498D01*
X4675Y18483D01*
X4675Y18468D01*
X4688Y18481D01*
X4704Y18493D01*
X4721Y18499D01*
X4742Y18500D01*
X4742Y18500D01*
X4759Y18499D01*
X4760Y18470D01*
X4760Y18456D01*
X4760Y18456D01*
X4760Y18456D01*
G37*
G36*
X5245Y18297D02*
X5212Y18297D01*
X5179Y18297D01*
X5178Y18352D01*
X5178Y18381D01*
X5177Y18403D01*
X5175Y18421D01*
X5173Y18433D01*
X5169Y18442D01*
X5163Y18448D01*
X5156Y18451D01*
X5147Y18452D01*
X5146Y18452D01*
X5132Y18449D01*
X5121Y18441D01*
X5112Y18427D01*
X5110Y18421D01*
X5109Y18414D01*
X5107Y18406D01*
X5107Y18394D01*
X5106Y18377D01*
X5106Y18355D01*
X5106Y18297D01*
X5073Y18297D01*
X5040Y18297D01*
X5040Y18397D01*
X5040Y18498D01*
X5073Y18498D01*
X5106Y18498D01*
X5106Y18484D01*
X5106Y18471D01*
X5117Y18480D01*
X5135Y18491D01*
X5155Y18499D01*
X5176Y18501D01*
X5195Y18499D01*
X5203Y18496D01*
X5215Y18489D01*
X5226Y18477D01*
X5235Y18463D01*
X5238Y18456D01*
X5239Y18449D01*
X5240Y18436D01*
X5242Y18419D01*
X5243Y18399D01*
X5243Y18376D01*
X5244Y18370D01*
X5245Y18297D01*
X5245Y18297D01*
X5245Y18297D01*
G37*
G36*
X5925Y18300D02*
X5923Y18298D01*
X5918Y18297D01*
X5909Y18297D01*
X5895Y18297D01*
X5891Y18298D01*
X5856Y18298D01*
X5848Y18322D01*
X5840Y18346D01*
X5820Y18346D01*
X5820Y18398D01*
X5819Y18402D01*
X5817Y18411D01*
X5812Y18424D01*
X5807Y18439D01*
X5803Y18449D01*
X5786Y18498D01*
X5769Y18448D01*
X5763Y18431D01*
X5758Y18416D01*
X5754Y18405D01*
X5752Y18398D01*
X5751Y18396D01*
X5754Y18396D01*
X5763Y18396D01*
X5775Y18396D01*
X5786Y18396D01*
X5800Y18396D01*
X5811Y18396D01*
X5819Y18397D01*
X5820Y18398D01*
X5820Y18346D01*
X5786Y18345D01*
X5733Y18345D01*
X5725Y18321D01*
X5717Y18297D01*
X5681Y18297D01*
X5646Y18297D01*
X5650Y18306D01*
X5651Y18311D01*
X5655Y18321D01*
X5661Y18337D01*
X5668Y18356D01*
X5676Y18378D01*
X5686Y18403D01*
X5696Y18430D01*
X5697Y18433D01*
X5707Y18460D01*
X5716Y18485D01*
X5724Y18507D01*
X5731Y18526D01*
X5737Y18542D01*
X5741Y18552D01*
X5743Y18557D01*
X5743Y18558D01*
X5745Y18560D01*
X5748Y18562D01*
X5754Y18563D01*
X5764Y18563D01*
X5778Y18563D01*
X5787Y18563D01*
X5829Y18562D01*
X5876Y18435D01*
X5886Y18407D01*
X5895Y18382D01*
X5904Y18358D01*
X5911Y18338D01*
X5917Y18322D01*
X5922Y18310D01*
X5924Y18303D01*
X5924Y18302D01*
X5925Y18300D01*
X5925Y18300D01*
X5925Y18300D01*
G37*
G36*
X6422Y18496D02*
X6383Y18397D01*
X6344Y18298D01*
X6309Y18298D01*
X6272Y18297D01*
X6234Y18395D01*
X6225Y18419D01*
X6216Y18441D01*
X6209Y18460D01*
X6203Y18476D01*
X6198Y18487D01*
X6196Y18494D01*
X6196Y18495D01*
X6199Y18496D01*
X6207Y18497D01*
X6219Y18497D01*
X6227Y18497D01*
X6259Y18496D01*
X6282Y18433D01*
X6289Y18414D01*
X6295Y18397D01*
X6300Y18382D01*
X6304Y18372D01*
X6306Y18366D01*
X6306Y18366D01*
X6308Y18367D01*
X6311Y18374D01*
X6316Y18386D01*
X6322Y18401D01*
X6329Y18420D01*
X6332Y18428D01*
X6340Y18448D01*
X6346Y18465D01*
X6351Y18480D01*
X6356Y18490D01*
X6358Y18496D01*
X6358Y18497D01*
X6362Y18497D01*
X6370Y18497D01*
X6383Y18497D01*
X6391Y18497D01*
X6422Y18496D01*
X6422Y18496D01*
X6422Y18496D01*
G37*
G36*
X6907Y18297D02*
X6874Y18297D01*
X6841Y18297D01*
X6840Y18366D01*
X6840Y18389D01*
X6839Y18406D01*
X6839Y18419D01*
X6838Y18427D01*
X6837Y18433D01*
X6835Y18438D01*
X6833Y18441D01*
X6831Y18443D01*
X6821Y18450D01*
X6808Y18451D01*
X6795Y18448D01*
X6784Y18441D01*
X6776Y18431D01*
X6774Y18426D01*
X6772Y18419D01*
X6771Y18410D01*
X6770Y18397D01*
X6769Y18379D01*
X6769Y18358D01*
X6768Y18297D01*
X6735Y18297D01*
X6703Y18297D01*
X6703Y18396D01*
X6704Y18496D01*
X6736Y18497D01*
X6768Y18498D01*
X6768Y18484D01*
X6768Y18471D01*
X6779Y18480D01*
X6799Y18493D01*
X6821Y18500D01*
X6835Y18501D01*
X6855Y18499D01*
X6871Y18493D01*
X6884Y18482D01*
X6890Y18475D01*
X6895Y18468D01*
X6899Y18460D01*
X6901Y18451D01*
X6903Y18438D01*
X6905Y18422D01*
X6905Y18401D01*
X6906Y18375D01*
X6906Y18372D01*
X6907Y18297D01*
X6907Y18297D01*
X6907Y18297D01*
G37*
G36*
X8535Y18297D02*
X8504Y18297D01*
X8472Y18297D01*
X8472Y18342D01*
X8472Y18372D01*
X8471Y18395D01*
X8470Y18414D01*
X8468Y18428D01*
X8465Y18437D01*
X8461Y18443D01*
X8460Y18445D01*
X8449Y18450D01*
X8436Y18451D01*
X8424Y18448D01*
X8420Y18446D01*
X8413Y18440D01*
X8408Y18433D01*
X8405Y18424D01*
X8402Y18411D01*
X8401Y18394D01*
X8400Y18372D01*
X8400Y18355D01*
X8400Y18297D01*
X8367Y18297D01*
X8334Y18297D01*
X8334Y18397D01*
X8334Y18498D01*
X8367Y18498D01*
X8400Y18498D01*
X8400Y18484D01*
X8400Y18471D01*
X8413Y18482D01*
X8431Y18494D01*
X8452Y18500D01*
X8476Y18500D01*
X8495Y18496D01*
X8512Y18486D01*
X8524Y18471D01*
X8527Y18466D01*
X8529Y18461D01*
X8531Y18456D01*
X8532Y18449D01*
X8533Y18440D01*
X8533Y18427D01*
X8534Y18410D01*
X8534Y18388D01*
X8534Y18375D01*
X8535Y18297D01*
X8535Y18297D01*
X8535Y18297D01*
G37*
G36*
X8733Y18452D02*
X8700Y18452D01*
X8667Y18452D01*
X8667Y18403D01*
X8667Y18385D01*
X8667Y18370D01*
X8668Y18358D01*
X8669Y18351D01*
X8670Y18350D01*
X8674Y18347D01*
X8683Y18345D01*
X8698Y18343D01*
X8699Y18343D01*
X8726Y18342D01*
X8726Y18319D01*
X8726Y18297D01*
X8687Y18297D01*
X8665Y18298D01*
X8648Y18299D01*
X8636Y18302D01*
X8635Y18302D01*
X8620Y18310D01*
X8609Y18324D01*
X8604Y18335D01*
X8603Y18343D01*
X8602Y18356D01*
X8601Y18372D01*
X8601Y18390D01*
X8601Y18400D01*
X8601Y18452D01*
X8584Y18452D01*
X8568Y18452D01*
X8568Y18475D01*
X8568Y18498D01*
X8584Y18498D01*
X8601Y18498D01*
X8601Y18526D01*
X8601Y18554D01*
X8634Y18554D01*
X8667Y18554D01*
X8667Y18526D01*
X8667Y18498D01*
X8699Y18497D01*
X8731Y18496D01*
X8732Y18474D01*
X8733Y18452D01*
X8733Y18452D01*
X8733Y18452D01*
G37*
G36*
X8920Y18456D02*
X8920Y18448D01*
X8919Y18444D01*
X8917Y18443D01*
X8914Y18443D01*
X8908Y18445D01*
X8898Y18446D01*
X8889Y18447D01*
X8871Y18446D01*
X8857Y18441D01*
X8846Y18430D01*
X8841Y18421D01*
X8839Y18415D01*
X8837Y18408D01*
X8836Y18399D01*
X8835Y18387D01*
X8835Y18370D01*
X8835Y18352D01*
X8835Y18297D01*
X8802Y18297D01*
X8769Y18297D01*
X8769Y18397D01*
X8769Y18498D01*
X8802Y18498D01*
X8835Y18498D01*
X8835Y18483D01*
X8835Y18468D01*
X8847Y18481D01*
X8863Y18493D01*
X8881Y18499D01*
X8902Y18500D01*
X8902Y18500D01*
X8918Y18499D01*
X8919Y18470D01*
X8920Y18456D01*
X8920Y18456D01*
X8920Y18456D01*
G37*
G36*
X9266Y18297D02*
X9233Y18297D01*
X9200Y18297D01*
X9200Y18435D01*
X9200Y18573D01*
X9233Y18573D01*
X9266Y18573D01*
X9266Y18435D01*
X9266Y18297D01*
X9266Y18297D01*
X9266Y18297D01*
G37*
G36*
X9391Y18297D02*
X9358Y18297D01*
X9325Y18297D01*
X9325Y18435D01*
X9325Y18573D01*
X9358Y18573D01*
X9391Y18573D01*
X9391Y18435D01*
X9391Y18297D01*
X9391Y18297D01*
X9391Y18297D01*
G37*
G36*
X9848Y18471D02*
X9848Y18457D01*
X9848Y18448D01*
X9847Y18444D01*
X9845Y18443D01*
X9843Y18443D01*
X9830Y18446D01*
X9816Y18447D01*
X9801Y18446D01*
X9790Y18443D01*
X9789Y18443D01*
X9781Y18438D01*
X9775Y18431D01*
X9770Y18423D01*
X9767Y18411D01*
X9765Y18396D01*
X9764Y18375D01*
X9763Y18354D01*
X9762Y18297D01*
X9731Y18297D01*
X9700Y18297D01*
X9700Y18397D01*
X9700Y18498D01*
X9731Y18498D01*
X9763Y18498D01*
X9763Y18482D01*
X9763Y18467D01*
X9775Y18479D01*
X9792Y18492D01*
X9811Y18499D01*
X9830Y18501D01*
X9848Y18501D01*
X9848Y18471D01*
X9848Y18471D01*
X9848Y18471D01*
G37*
G36*
X5524Y19061D02*
X5523Y19047D01*
X5518Y19029D01*
X5514Y19017D01*
X5506Y19000D01*
X5496Y18985D01*
X5483Y18970D01*
X5467Y18957D01*
X5447Y18943D01*
X5422Y18930D01*
X5392Y18915D01*
X5360Y18901D01*
X5341Y18893D01*
X5323Y18884D01*
X5306Y18877D01*
X5294Y18871D01*
X5287Y18868D01*
X5255Y18848D01*
X5225Y18823D01*
X5197Y18792D01*
X5196Y18791D01*
X5178Y18769D01*
X5158Y18747D01*
X5138Y18726D01*
X5118Y18707D01*
X5099Y18691D01*
X5083Y18679D01*
X5072Y18672D01*
X5049Y18661D01*
X5027Y18653D01*
X5005Y18647D01*
X4985Y18643D01*
X4968Y18642D01*
X4955Y18644D01*
X4952Y18645D01*
X4942Y18654D01*
X4936Y18667D01*
X4934Y18684D01*
X4935Y18703D01*
X4941Y18723D01*
X4950Y18743D01*
X4952Y18747D01*
X4969Y18769D01*
X4990Y18789D01*
X5017Y18808D01*
X5048Y18825D01*
X5081Y18839D01*
X5117Y18851D01*
X5155Y18859D01*
X5160Y18860D01*
X5172Y18862D01*
X5182Y18864D01*
X5188Y18866D01*
X5188Y18866D01*
X5187Y18869D01*
X5182Y18875D01*
X5173Y18884D01*
X5160Y18898D01*
X5142Y18916D01*
X5120Y18938D01*
X5093Y18964D01*
X5090Y18966D01*
X4988Y19063D01*
X4880Y19063D01*
X4772Y19062D01*
X4668Y18964D01*
X4647Y18944D01*
X4627Y18924D01*
X4608Y18907D01*
X4593Y18891D01*
X4580Y18879D01*
X4571Y18870D01*
X4566Y18865D01*
X4565Y18863D01*
X4568Y18861D01*
X4576Y18857D01*
X4588Y18852D01*
X4601Y18846D01*
X4628Y18835D01*
X4649Y18824D01*
X4667Y18814D01*
X4682Y18804D01*
X4696Y18792D01*
X4709Y18779D01*
X4718Y18770D01*
X4738Y18745D01*
X4753Y18721D01*
X4764Y18699D01*
X4769Y18679D01*
X4769Y18661D01*
X4764Y18647D01*
X4757Y18638D01*
X4751Y18633D01*
X4744Y18630D01*
X4734Y18630D01*
X4727Y18630D01*
X4715Y18630D01*
X4707Y18630D01*
X4703Y18631D01*
X4698Y18632D01*
X4689Y18635D01*
X4678Y18638D01*
X4676Y18639D01*
X4662Y18644D01*
X4651Y18649D01*
X4640Y18657D01*
X4631Y18665D01*
X4619Y18676D01*
X4608Y18688D01*
X4597Y18700D01*
X4586Y18714D01*
X4573Y18732D01*
X4558Y18753D01*
X4548Y18769D01*
X4536Y18786D01*
X4525Y18802D01*
X4515Y18816D01*
X4508Y18827D01*
X4504Y18832D01*
X4487Y18850D01*
X4465Y18869D01*
X4440Y18887D01*
X4419Y18899D01*
X4381Y18921D01*
X4349Y18941D01*
X4322Y18959D01*
X4300Y18976D01*
X4283Y18992D01*
X4271Y19005D01*
X4261Y19020D01*
X4251Y19036D01*
X4242Y19054D01*
X4234Y19070D01*
X4229Y19084D01*
X4228Y19091D01*
X4229Y19106D01*
X4236Y19118D01*
X4247Y19127D01*
X4263Y19133D01*
X4282Y19135D01*
X4303Y19133D01*
X4317Y19130D01*
X4347Y19119D01*
X4375Y19102D01*
X4402Y19079D01*
X4426Y19051D01*
X4448Y19019D01*
X4467Y18981D01*
X4481Y18947D01*
X4487Y18929D01*
X4494Y18915D01*
X4500Y18904D01*
X4506Y18900D01*
X4507Y18899D01*
X4510Y18901D01*
X4517Y18908D01*
X4528Y18918D01*
X4542Y18931D01*
X4559Y18947D01*
X4578Y18965D01*
X4599Y18985D01*
X4615Y19000D01*
X4721Y19099D01*
X4721Y19186D01*
X4721Y19273D01*
X4612Y19377D01*
X4590Y19398D01*
X4569Y19418D01*
X4550Y19436D01*
X4533Y19451D01*
X4519Y19464D01*
X4509Y19473D01*
X4503Y19479D01*
X4500Y19481D01*
X4498Y19478D01*
X4492Y19472D01*
X4483Y19462D01*
X4474Y19450D01*
X4454Y19426D01*
X4433Y19403D01*
X4413Y19382D01*
X4393Y19364D01*
X4376Y19350D01*
X4368Y19344D01*
X4354Y19336D01*
X4337Y19327D01*
X4320Y19320D01*
X4314Y19317D01*
X4286Y19309D01*
X4263Y19304D01*
X4245Y19304D01*
X4231Y19309D01*
X4222Y19318D01*
X4216Y19331D01*
X4215Y19349D01*
X4215Y19354D01*
X4219Y19380D01*
X4230Y19404D01*
X4246Y19428D01*
X4268Y19449D01*
X4294Y19469D01*
X4325Y19486D01*
X4360Y19501D01*
X4399Y19513D01*
X4432Y19520D01*
X4448Y19523D01*
X4464Y19527D01*
X4476Y19531D01*
X4482Y19533D01*
X4494Y19541D01*
X4508Y19553D01*
X4523Y19570D01*
X4539Y19589D01*
X4554Y19611D01*
X4555Y19613D01*
X4570Y19636D01*
X4583Y19655D01*
X4595Y19670D01*
X4606Y19683D01*
X4618Y19694D01*
X4631Y19704D01*
X4637Y19708D01*
X4665Y19725D01*
X4692Y19739D01*
X4718Y19749D01*
X4741Y19754D01*
X4762Y19756D01*
X4779Y19753D01*
X4792Y19746D01*
X4797Y19742D01*
X4802Y19730D01*
X4803Y19715D01*
X4800Y19697D01*
X4794Y19678D01*
X4785Y19658D01*
X4779Y19648D01*
X4768Y19635D01*
X4752Y19621D01*
X4730Y19607D01*
X4703Y19592D01*
X4670Y19576D01*
X4639Y19562D01*
X4612Y19551D01*
X4591Y19542D01*
X4575Y19534D01*
X4564Y19529D01*
X4557Y19525D01*
X4554Y19522D01*
X4554Y19520D01*
X4556Y19518D01*
X4563Y19511D01*
X4574Y19500D01*
X4588Y19487D01*
X4604Y19470D01*
X4623Y19452D01*
X4644Y19432D01*
X4659Y19419D01*
X4762Y19320D01*
X4877Y19320D01*
X4991Y19319D01*
X5096Y19419D01*
X5117Y19440D01*
X5138Y19459D01*
X5156Y19477D01*
X5171Y19492D01*
X5184Y19504D01*
X5193Y19514D01*
X5199Y19519D01*
X5199Y19520D01*
X5197Y19522D01*
X5189Y19527D01*
X5177Y19533D01*
X5163Y19542D01*
X5151Y19548D01*
X5114Y19569D01*
X5084Y19589D01*
X5058Y19608D01*
X5036Y19627D01*
X5018Y19646D01*
X5003Y19667D01*
X4990Y19689D01*
X4982Y19708D01*
X4976Y19726D01*
X4975Y19741D01*
X4978Y19753D01*
X4984Y19760D01*
X4998Y19771D01*
X5017Y19776D01*
X5038Y19776D01*
X5063Y19772D01*
X5089Y19763D01*
X5098Y19758D01*
X5123Y19743D01*
X5147Y19722D01*
X5169Y19696D01*
X5190Y19666D01*
X5209Y19632D01*
X5225Y19596D01*
X5231Y19578D01*
X5237Y19563D01*
X5245Y19550D01*
X5254Y19538D01*
X5267Y19528D01*
X5284Y19517D01*
X5305Y19506D01*
X5332Y19494D01*
X5344Y19489D01*
X5367Y19479D01*
X5386Y19470D01*
X5402Y19462D01*
X5414Y19455D01*
X5425Y19447D01*
X5436Y19438D01*
X5448Y19427D01*
X5448Y19427D01*
X5469Y19405D01*
X5487Y19382D01*
X5500Y19359D01*
X5510Y19338D01*
X5516Y19318D01*
X5517Y19301D01*
X5514Y19292D01*
X5508Y19281D01*
X5499Y19274D01*
X5486Y19271D01*
X5475Y19270D01*
X5456Y19271D01*
X5436Y19275D01*
X5417Y19281D01*
X5404Y19286D01*
X5386Y19298D01*
X5366Y19316D01*
X5344Y19341D01*
X5321Y19371D01*
X5298Y19405D01*
X5287Y19421D01*
X5277Y19436D01*
X5268Y19450D01*
X5261Y19460D01*
X5260Y19460D01*
X5247Y19477D01*
X5139Y19374D01*
X5031Y19272D01*
X5031Y19189D01*
X5031Y19107D01*
X5136Y19008D01*
X5158Y18988D01*
X5178Y18968D01*
X5197Y18951D01*
X5213Y18936D01*
X5226Y18923D01*
X5236Y18914D01*
X5242Y18909D01*
X5243Y18908D01*
X5246Y18910D01*
X5252Y18917D01*
X5259Y18928D01*
X5268Y18941D01*
X5270Y18944D01*
X5286Y18968D01*
X5300Y18988D01*
X5311Y19004D01*
X5321Y19016D01*
X5331Y19026D01*
X5340Y19033D01*
X5342Y19034D01*
X5365Y19050D01*
X5390Y19065D01*
X5415Y19077D01*
X5440Y19086D01*
X5461Y19091D01*
X5467Y19092D01*
X5484Y19092D01*
X5496Y19091D01*
X5506Y19087D01*
X5514Y19081D01*
X5521Y19072D01*
X5524Y19061D01*
X5524Y19061D01*
X5524Y19061D01*
G37*
G36*
X8933Y18908D02*
X8933Y18904D01*
X8931Y18894D01*
X8928Y18880D01*
X8925Y18861D01*
X8921Y18840D01*
X8917Y18816D01*
X8916Y18811D01*
X8899Y18717D01*
X8872Y18708D01*
X8843Y18697D01*
X8809Y18688D01*
X8774Y18679D01*
X8742Y18671D01*
X8729Y18669D01*
X8713Y18666D01*
X8692Y18664D01*
X8670Y18662D01*
X8648Y18661D01*
X8626Y18660D01*
X8608Y18660D01*
X8594Y18660D01*
X8589Y18661D01*
X8566Y18664D01*
X8547Y18667D01*
X8532Y18670D01*
X8519Y18673D01*
X8506Y18677D01*
X8504Y18678D01*
X8461Y18694D01*
X8422Y18716D01*
X8387Y18744D01*
X8357Y18775D01*
X8330Y18811D01*
X8309Y18852D01*
X8293Y18895D01*
X8289Y18907D01*
X8286Y18920D01*
X8284Y18933D01*
X8282Y18946D01*
X8281Y18960D01*
X8280Y18979D01*
X8279Y19003D01*
X8279Y19004D01*
X8277Y19066D01*
X8385Y19066D01*
X8492Y19066D01*
X8492Y19041D01*
X8495Y19000D01*
X8502Y18962D01*
X8514Y18928D01*
X8531Y18898D01*
X8552Y18873D01*
X8577Y18853D01*
X8606Y18838D01*
X8638Y18829D01*
X8674Y18825D01*
X8713Y18826D01*
X8728Y18828D01*
X8745Y18831D01*
X8765Y18836D01*
X8782Y18840D01*
X8787Y18842D01*
X8800Y18846D01*
X8818Y18854D01*
X8838Y18863D01*
X8859Y18873D01*
X8880Y18883D01*
X8899Y18893D01*
X8914Y18901D01*
X8919Y18904D01*
X8928Y18909D01*
X8933Y18909D01*
X8933Y18908D01*
X8933Y18908D01*
X8933Y18908D01*
G37*
G36*
X9908Y19064D02*
X9907Y19058D01*
X9904Y19048D01*
X9900Y19034D01*
X9896Y19020D01*
X9891Y19005D01*
X9886Y18991D01*
X9883Y18981D01*
X9859Y18927D01*
X9831Y18878D01*
X9798Y18832D01*
X9761Y18792D01*
X9724Y18757D01*
X9686Y18729D01*
X9646Y18706D01*
X9603Y18688D01*
X9556Y18674D01*
X9523Y18667D01*
X9506Y18665D01*
X9485Y18663D01*
X9461Y18661D01*
X9436Y18661D01*
X9412Y18660D01*
X9391Y18661D01*
X9375Y18662D01*
X9374Y18662D01*
X9332Y18670D01*
X9291Y18682D01*
X9252Y18699D01*
X9218Y18719D01*
X9212Y18723D01*
X9195Y18736D01*
X9176Y18754D01*
X9158Y18773D01*
X9142Y18792D01*
X9133Y18805D01*
X9113Y18840D01*
X9098Y18879D01*
X9086Y18922D01*
X9079Y18966D01*
X9076Y19011D01*
X9077Y19038D01*
X9079Y19066D01*
X9186Y19066D01*
X9292Y19066D01*
X9292Y19042D01*
X9294Y19008D01*
X9298Y18974D01*
X9305Y18942D01*
X9315Y18914D01*
X9320Y18902D01*
X9330Y18886D01*
X9344Y18870D01*
X9359Y18855D01*
X9375Y18844D01*
X9377Y18842D01*
X9403Y18832D01*
X9432Y18825D01*
X9462Y18824D01*
X9464Y18825D01*
X9501Y18830D01*
X9535Y18840D01*
X9566Y18856D01*
X9593Y18878D01*
X9618Y18905D01*
X9641Y18938D01*
X9653Y18960D01*
X9660Y18975D01*
X9667Y18992D01*
X9674Y19010D01*
X9681Y19027D01*
X9686Y19042D01*
X9689Y19054D01*
X9690Y19061D01*
X9691Y19063D01*
X9694Y19064D01*
X9699Y19064D01*
X9707Y19065D01*
X9719Y19066D01*
X9735Y19066D01*
X9756Y19066D01*
X9783Y19066D01*
X9799Y19066D01*
X9825Y19066D01*
X9849Y19066D01*
X9869Y19065D01*
X9886Y19065D01*
X9899Y19065D01*
X9906Y19064D01*
X9908Y19064D01*
X9908Y19064D01*
X9908Y19064D01*
G37*
G36*
X6532Y19066D02*
X6530Y19055D01*
X6526Y19040D01*
X6519Y19021D01*
X6512Y18999D01*
X6503Y18977D01*
X6495Y18957D01*
X6489Y18944D01*
X6461Y18896D01*
X6430Y18852D01*
X6395Y18812D01*
X6356Y18777D01*
X6313Y18748D01*
X6269Y18724D01*
X6262Y18721D01*
X6241Y18713D01*
X6218Y18705D01*
X6193Y18699D01*
X6167Y18693D01*
X6137Y18689D01*
X6104Y18685D01*
X6068Y18681D01*
X6027Y18679D01*
X5982Y18677D01*
X5931Y18676D01*
X5875Y18676D01*
X5834Y18675D01*
X5801Y18675D01*
X5774Y18676D01*
X5753Y18676D01*
X5737Y18676D01*
X5725Y18677D01*
X5717Y18678D01*
X5713Y18678D01*
X5712Y18679D01*
X5712Y18683D01*
X5714Y18693D01*
X5717Y18708D01*
X5720Y18728D01*
X5724Y18752D01*
X5729Y18780D01*
X5735Y18810D01*
X5740Y18843D01*
X5746Y18874D01*
X5780Y19064D01*
X5882Y19065D01*
X5912Y19066D01*
X5936Y19066D01*
X5954Y19065D01*
X5968Y19065D01*
X5977Y19064D01*
X5983Y19064D01*
X5985Y19062D01*
X5985Y19062D01*
X5984Y19058D01*
X5983Y19048D01*
X5980Y19033D01*
X5977Y19016D01*
X5973Y18994D01*
X5969Y18970D01*
X5967Y18958D01*
X5962Y18933D01*
X5958Y18910D01*
X5955Y18890D01*
X5952Y18873D01*
X5950Y18861D01*
X5949Y18854D01*
X5949Y18852D01*
X5949Y18850D01*
X5952Y18848D01*
X5959Y18847D01*
X5970Y18847D01*
X5979Y18847D01*
X6008Y18847D01*
X6037Y18849D01*
X6065Y18851D01*
X6090Y18855D01*
X6110Y18859D01*
X6115Y18860D01*
X6155Y18873D01*
X6191Y18892D01*
X6225Y18917D01*
X6254Y18946D01*
X6279Y18980D01*
X6299Y19017D01*
X6309Y19043D01*
X6316Y19064D01*
X6424Y19065D01*
X6532Y19066D01*
X6532Y19066D01*
X6532Y19066D01*
G37*
G36*
X7328Y18675D02*
X7225Y18675D01*
X7123Y18675D01*
X7118Y18693D01*
X7116Y18700D01*
X7113Y18713D01*
X7108Y18730D01*
X7102Y18751D01*
X7095Y18775D01*
X7088Y18800D01*
X7084Y18817D01*
X7074Y18852D01*
X7067Y18882D01*
X7059Y18906D01*
X7052Y18925D01*
X7046Y18941D01*
X7040Y18954D01*
X7034Y18964D01*
X7028Y18972D01*
X7021Y18980D01*
X7018Y18983D01*
X7009Y18991D01*
X6999Y18997D01*
X6989Y19001D01*
X6976Y19004D01*
X6959Y19005D01*
X6937Y19007D01*
X6929Y19007D01*
X6881Y19009D01*
X6877Y18986D01*
X6876Y18978D01*
X6873Y18964D01*
X6870Y18946D01*
X6866Y18923D01*
X6862Y18897D01*
X6856Y18869D01*
X6851Y18838D01*
X6848Y18820D01*
X6822Y18677D01*
X6720Y18676D01*
X6694Y18676D01*
X6671Y18676D01*
X6651Y18676D01*
X6635Y18677D01*
X6624Y18677D01*
X6618Y18678D01*
X6617Y18678D01*
X6617Y18682D01*
X6619Y18691D01*
X6622Y18706D01*
X6625Y18725D01*
X6629Y18747D01*
X6633Y18773D01*
X6638Y18801D01*
X6643Y18830D01*
X6649Y18861D01*
X6654Y18891D01*
X6660Y18921D01*
X6665Y18950D01*
X6669Y18977D01*
X6674Y19001D01*
X6678Y19022D01*
X6681Y19038D01*
X6683Y19051D01*
X6684Y19058D01*
X6684Y19059D01*
X6686Y19066D01*
X6936Y19066D01*
X7186Y19066D01*
X7200Y19051D01*
X7212Y19037D01*
X7224Y19019D01*
X7235Y18996D01*
X7244Y18976D01*
X7246Y18970D01*
X7250Y18958D01*
X7254Y18942D01*
X7260Y18922D01*
X7267Y18899D01*
X7274Y18874D01*
X7281Y18847D01*
X7289Y18820D01*
X7296Y18793D01*
X7304Y18767D01*
X7310Y18742D01*
X7316Y18721D01*
X7321Y18702D01*
X7324Y18689D01*
X7326Y18684D01*
X7328Y18675D01*
X7328Y18675D01*
X7328Y18675D01*
G37*
G36*
X8186Y18677D02*
X8183Y18677D01*
X8174Y18676D01*
X8160Y18676D01*
X8142Y18676D01*
X8121Y18676D01*
X8097Y18676D01*
X8088Y18676D01*
X7990Y18677D01*
X7979Y18756D01*
X7967Y18835D01*
X7809Y18836D01*
X7651Y18837D01*
X7612Y18756D01*
X7573Y18675D01*
X7468Y18675D01*
X7438Y18675D01*
X7414Y18676D01*
X7396Y18676D01*
X7382Y18676D01*
X7373Y18677D01*
X7367Y18678D01*
X7364Y18679D01*
X7364Y18680D01*
X7365Y18683D01*
X7370Y18692D01*
X7377Y18706D01*
X7386Y18724D01*
X7397Y18746D01*
X7410Y18772D01*
X7424Y18800D01*
X7440Y18831D01*
X7457Y18863D01*
X7463Y18876D01*
X7561Y19066D01*
X7663Y19066D01*
X7765Y19066D01*
X7747Y19030D01*
X7728Y18995D01*
X7834Y18995D01*
X7863Y18995D01*
X7886Y18995D01*
X7904Y18995D01*
X7918Y18995D01*
X7927Y18996D01*
X7933Y18996D01*
X7937Y18997D01*
X7939Y18999D01*
X7939Y19000D01*
X7939Y19000D01*
X7939Y19007D01*
X7937Y19018D01*
X7935Y19030D01*
X7933Y19045D01*
X7931Y19057D01*
X7930Y19066D01*
X8026Y19066D01*
X8123Y19066D01*
X8125Y19057D01*
X8126Y19052D01*
X8127Y19042D01*
X8130Y19027D01*
X8133Y19008D01*
X8137Y18985D01*
X8141Y18959D01*
X8146Y18931D01*
X8150Y18901D01*
X8155Y18870D01*
X8160Y18840D01*
X8165Y18810D01*
X8170Y18782D01*
X8174Y18755D01*
X8178Y18731D01*
X8181Y18711D01*
X8183Y18695D01*
X8185Y18683D01*
X8186Y18678D01*
X8186Y18677D01*
X8186Y18677D01*
X8186Y18677D01*
G37*
G36*
X6545Y19158D02*
X6437Y19158D01*
X6329Y19158D01*
X6328Y19185D01*
X6325Y19224D01*
X6316Y19259D01*
X6303Y19289D01*
X6285Y19315D01*
X6276Y19325D01*
X6257Y19341D01*
X6236Y19355D01*
X6212Y19365D01*
X6184Y19372D01*
X6151Y19376D01*
X6114Y19379D01*
X6097Y19379D01*
X6042Y19379D01*
X6023Y19268D01*
X6003Y19158D01*
X5900Y19158D01*
X5875Y19158D01*
X5852Y19159D01*
X5832Y19159D01*
X5816Y19159D01*
X5804Y19160D01*
X5798Y19161D01*
X5797Y19161D01*
X5798Y19165D01*
X5800Y19175D01*
X5802Y19189D01*
X5805Y19208D01*
X5809Y19231D01*
X5814Y19257D01*
X5819Y19285D01*
X5824Y19314D01*
X5829Y19345D01*
X5835Y19376D01*
X5840Y19406D01*
X5845Y19435D01*
X5850Y19462D01*
X5854Y19486D01*
X5858Y19507D01*
X5861Y19524D01*
X5864Y19536D01*
X5865Y19543D01*
X5865Y19544D01*
X5866Y19546D01*
X5868Y19547D01*
X5871Y19548D01*
X5877Y19548D01*
X5885Y19549D01*
X5896Y19549D01*
X5911Y19550D01*
X5931Y19550D01*
X5955Y19550D01*
X5985Y19550D01*
X6017Y19550D01*
X6067Y19550D01*
X6110Y19549D01*
X6148Y19549D01*
X6181Y19547D01*
X6210Y19546D01*
X6236Y19544D01*
X6259Y19541D01*
X6279Y19538D01*
X6298Y19534D01*
X6316Y19529D01*
X6334Y19524D01*
X6335Y19523D01*
X6377Y19507D01*
X6413Y19485D01*
X6445Y19460D01*
X6473Y19429D01*
X6496Y19393D01*
X6505Y19377D01*
X6521Y19340D01*
X6533Y19303D01*
X6541Y19263D01*
X6544Y19220D01*
X6545Y19197D01*
X6545Y19158D01*
X6545Y19158D01*
X6545Y19158D01*
G37*
G36*
X7339Y19325D02*
X7339Y19319D01*
X7334Y19275D01*
X7324Y19235D01*
X7309Y19198D01*
X7294Y19173D01*
X7284Y19158D01*
X7133Y19158D01*
X7133Y19297D01*
X7133Y19302D01*
X7132Y19317D01*
X7131Y19327D01*
X7128Y19337D01*
X7124Y19346D01*
X7117Y19357D01*
X7110Y19365D01*
X7100Y19371D01*
X7095Y19374D01*
X7076Y19384D01*
X7012Y19384D01*
X6948Y19384D01*
X6929Y19278D01*
X6925Y19253D01*
X6920Y19229D01*
X6917Y19208D01*
X6914Y19191D01*
X6911Y19178D01*
X6910Y19171D01*
X6910Y19169D01*
X6913Y19167D01*
X6922Y19166D01*
X6934Y19165D01*
X6950Y19165D01*
X6968Y19165D01*
X6986Y19165D01*
X7004Y19165D01*
X7020Y19166D01*
X7033Y19168D01*
X7043Y19169D01*
X7043Y19169D01*
X7070Y19179D01*
X7092Y19194D01*
X7109Y19213D01*
X7122Y19237D01*
X7130Y19265D01*
X7133Y19297D01*
X7133Y19158D01*
X6994Y19158D01*
X6951Y19158D01*
X6909Y19158D01*
X6870Y19158D01*
X6835Y19159D01*
X6802Y19159D01*
X6773Y19159D01*
X6749Y19159D01*
X6729Y19159D01*
X6714Y19160D01*
X6705Y19160D01*
X6703Y19160D01*
X6703Y19164D01*
X6705Y19173D01*
X6707Y19188D01*
X6711Y19207D01*
X6714Y19230D01*
X6719Y19255D01*
X6724Y19283D01*
X6729Y19313D01*
X6734Y19343D01*
X6740Y19374D01*
X6745Y19404D01*
X6750Y19433D01*
X6755Y19460D01*
X6760Y19485D01*
X6763Y19506D01*
X6767Y19523D01*
X6769Y19536D01*
X6770Y19543D01*
X6770Y19544D01*
X6771Y19545D01*
X6773Y19547D01*
X6776Y19547D01*
X6781Y19548D01*
X6789Y19549D01*
X6799Y19549D01*
X6813Y19549D01*
X6832Y19550D01*
X6854Y19550D01*
X6883Y19550D01*
X6916Y19550D01*
X6947Y19550D01*
X6990Y19550D01*
X7027Y19550D01*
X7058Y19549D01*
X7084Y19549D01*
X7106Y19548D01*
X7125Y19547D01*
X7141Y19546D01*
X7155Y19544D01*
X7167Y19542D01*
X7178Y19540D01*
X7189Y19537D01*
X7200Y19533D01*
X7204Y19532D01*
X7230Y19522D01*
X7251Y19511D01*
X7270Y19497D01*
X7285Y19484D01*
X7306Y19459D01*
X7322Y19431D01*
X7333Y19400D01*
X7338Y19364D01*
X7339Y19325D01*
X7339Y19325D01*
X7339Y19325D01*
G37*
G36*
X8107Y19158D02*
X8012Y19158D01*
X7987Y19158D01*
X7965Y19159D01*
X7946Y19159D01*
X7931Y19160D01*
X7921Y19160D01*
X7916Y19161D01*
X7916Y19161D01*
X7916Y19166D01*
X7914Y19175D01*
X7913Y19189D01*
X7910Y19206D01*
X7907Y19225D01*
X7904Y19245D01*
X7901Y19265D01*
X7899Y19283D01*
X7896Y19300D01*
X7894Y19313D01*
X7893Y19322D01*
X7892Y19325D01*
X7890Y19322D01*
X7886Y19315D01*
X7880Y19302D01*
X7872Y19286D01*
X7863Y19267D01*
X7852Y19246D01*
X7850Y19242D01*
X7810Y19158D01*
X7710Y19158D01*
X7680Y19158D01*
X7657Y19158D01*
X7639Y19159D01*
X7626Y19159D01*
X7617Y19160D01*
X7613Y19161D01*
X7611Y19162D01*
X7611Y19162D01*
X7613Y19166D01*
X7617Y19175D01*
X7624Y19189D01*
X7634Y19207D01*
X7645Y19229D01*
X7658Y19254D01*
X7672Y19282D01*
X7688Y19313D01*
X7705Y19345D01*
X7711Y19357D01*
X7809Y19548D01*
X7928Y19548D01*
X8046Y19548D01*
X8076Y19361D01*
X8082Y19326D01*
X8087Y19293D01*
X8092Y19263D01*
X8096Y19236D01*
X8100Y19212D01*
X8103Y19193D01*
X8105Y19178D01*
X8107Y19169D01*
X8107Y19166D01*
X8107Y19158D01*
X8107Y19158D01*
X8107Y19158D01*
G37*
G36*
X9027Y19496D02*
X9027Y19495D01*
X9026Y19490D01*
X9024Y19480D01*
X9021Y19465D01*
X9018Y19446D01*
X9014Y19425D01*
X9011Y19407D01*
X9006Y19384D01*
X9003Y19364D01*
X8999Y19347D01*
X8997Y19333D01*
X8995Y19325D01*
X8995Y19322D01*
X8992Y19323D01*
X8985Y19327D01*
X8976Y19334D01*
X8970Y19338D01*
X8944Y19355D01*
X8916Y19370D01*
X8887Y19383D01*
X8861Y19392D01*
X8859Y19392D01*
X8840Y19396D01*
X8817Y19399D01*
X8791Y19400D01*
X8766Y19400D01*
X8742Y19399D01*
X8722Y19396D01*
X8716Y19394D01*
X8681Y19382D01*
X8647Y19363D01*
X8615Y19339D01*
X8586Y19311D01*
X8576Y19299D01*
X8561Y19279D01*
X8547Y19255D01*
X8533Y19229D01*
X8522Y19205D01*
X8514Y19183D01*
X8513Y19180D01*
X8507Y19158D01*
X8401Y19158D01*
X8371Y19158D01*
X8348Y19158D01*
X8329Y19159D01*
X8316Y19159D01*
X8306Y19160D01*
X8300Y19160D01*
X8296Y19161D01*
X8295Y19162D01*
X8295Y19163D01*
X8296Y19170D01*
X8299Y19182D01*
X8304Y19197D01*
X8310Y19215D01*
X8317Y19233D01*
X8324Y19251D01*
X8331Y19268D01*
X8335Y19277D01*
X8361Y19326D01*
X8394Y19373D01*
X8431Y19417D01*
X8441Y19427D01*
X8483Y19465D01*
X8527Y19496D01*
X8574Y19522D01*
X8624Y19542D01*
X8677Y19557D01*
X8686Y19559D01*
X8706Y19562D01*
X8732Y19564D01*
X8760Y19565D01*
X8790Y19565D01*
X8818Y19564D01*
X8844Y19562D01*
X8866Y19558D01*
X8871Y19557D01*
X8910Y19547D01*
X8949Y19535D01*
X8985Y19521D01*
X8998Y19515D01*
X9012Y19508D01*
X9021Y19503D01*
X9026Y19499D01*
X9027Y19496D01*
X9027Y19496D01*
X9027Y19496D01*
G37*
G36*
X9922Y19160D02*
X9815Y19159D01*
X9708Y19158D01*
X9706Y19203D01*
X9704Y19234D01*
X9701Y19259D01*
X9696Y19281D01*
X9690Y19301D01*
X9682Y19319D01*
X9665Y19346D01*
X9645Y19368D01*
X9620Y19384D01*
X9592Y19395D01*
X9561Y19401D01*
X9527Y19401D01*
X9494Y19396D01*
X9462Y19385D01*
X9433Y19368D01*
X9405Y19344D01*
X9402Y19341D01*
X9373Y19308D01*
X9348Y19270D01*
X9328Y19228D01*
X9315Y19192D01*
X9304Y19158D01*
X9198Y19158D01*
X9168Y19158D01*
X9145Y19158D01*
X9127Y19159D01*
X9113Y19159D01*
X9104Y19159D01*
X9098Y19160D01*
X9094Y19161D01*
X9092Y19162D01*
X9092Y19164D01*
X9092Y19164D01*
X9094Y19170D01*
X9097Y19180D01*
X9100Y19191D01*
X9115Y19242D01*
X9137Y19292D01*
X9163Y19339D01*
X9193Y19384D01*
X9227Y19425D01*
X9265Y19461D01*
X9305Y19493D01*
X9306Y19494D01*
X9347Y19517D01*
X9391Y19536D01*
X9440Y19551D01*
X9492Y19561D01*
X9546Y19565D01*
X9549Y19565D01*
X9592Y19566D01*
X9631Y19563D01*
X9667Y19557D01*
X9701Y19547D01*
X9734Y19534D01*
X9741Y19530D01*
X9781Y19507D01*
X9816Y19480D01*
X9847Y19447D01*
X9873Y19411D01*
X9894Y19370D01*
X9910Y19327D01*
X9913Y19315D01*
X9916Y19300D01*
X9919Y19288D01*
X9920Y19276D01*
X9921Y19262D01*
X9922Y19245D01*
X9922Y19224D01*
X9922Y19219D01*
X9922Y19160D01*
X9922Y19160D01*
X9922Y19160D01*
G37*
G54D17*
X1417Y23070D02*
G75*
G03X1417Y23070I-472J0D01*
G74*
G01*
X1417Y944D02*
G75*
G03X1417Y944I-472J0D01*
G74*
G01*
X17834Y944D02*
G75*
G03X17834Y944I-472J0D01*
G74*
G01*
X17834Y23070D02*
G75*
G03X17834Y23070I-472J0D01*
G74*
G01*
G54D18*
X6751Y12559D02*
X6948Y12756D01*
X6948Y12756D02*
X12066Y12756D01*
X12066Y12756D02*
X12263Y12559D01*
X12263Y12559D02*
X12263Y7441D01*
X12263Y7441D02*
X12066Y7244D01*
X12066Y7244D02*
X6948Y7244D01*
X6948Y7244D02*
X6751Y7441D01*
X6751Y7441D02*
X6751Y12559D01*
X7260Y12397D02*
G75*
G03X7260Y12397I-150J0D01*
G74*
G01*
G54D15*
X3090Y23030D02*
X3345Y22775D01*
X3150Y23030D02*
X3345Y22835D01*
X2755Y22480D02*
X2755Y22220D01*
X2380Y22480D02*
X2380Y22220D01*
X3130Y22480D02*
X3130Y22220D01*
X2755Y23030D02*
X2755Y23290D01*
X2380Y23030D02*
X2380Y23290D01*
X3130Y23030D02*
X3130Y23290D01*
X3345Y22480D02*
X2165Y22480D01*
X2165Y22480D02*
X2165Y23030D01*
X2165Y23030D02*
X3345Y23030D01*
X3345Y23030D02*
X3345Y22480D01*
X14570Y8507D02*
X15200Y8507D01*
X15200Y8507D02*
X15200Y8192D01*
X15200Y8192D02*
X14570Y8192D01*
X14570Y8192D02*
X14570Y8507D01*
X14606Y9488D02*
X15236Y9488D01*
X15236Y9488D02*
X15236Y9173D01*
X15236Y9173D02*
X14606Y9173D01*
X14606Y9173D02*
X14606Y9488D01*
G54D13*
X3006Y21274D02*
X3286Y21274D01*
X3286Y21274D02*
X3286Y21864D01*
X3286Y21864D02*
X3006Y21864D01*
X2406Y21274D02*
X2146Y21274D01*
X2146Y21274D02*
X2146Y21864D01*
X2146Y21864D02*
X2416Y21864D01*
X11678Y21717D02*
X11398Y21717D01*
X11398Y21717D02*
X11398Y21127D01*
X11398Y21127D02*
X11678Y21127D01*
X12278Y21717D02*
X12538Y21717D01*
X12538Y21717D02*
X12538Y21127D01*
X12538Y21127D02*
X12268Y21127D01*
X16196Y6166D02*
X16196Y5886D01*
X16196Y5886D02*
X16786Y5886D01*
X16786Y5886D02*
X16786Y6166D01*
X16196Y6766D02*
X16196Y7026D01*
X16196Y7026D02*
X16786Y7026D01*
X16786Y7026D02*
X16786Y6756D01*
X3164Y13440D02*
X3444Y13440D01*
X3444Y13440D02*
X3444Y14030D01*
X3444Y14030D02*
X3164Y14030D01*
X2564Y13440D02*
X2304Y13440D01*
X2304Y13440D02*
X2304Y14030D01*
X2304Y14030D02*
X2574Y14030D01*
X3164Y14109D02*
X3444Y14109D01*
X3444Y14109D02*
X3444Y14699D01*
X3444Y14699D02*
X3164Y14699D01*
X2564Y14109D02*
X2304Y14109D01*
X2304Y14109D02*
X2304Y14699D01*
X2304Y14699D02*
X2574Y14699D01*
X3124Y18479D02*
X3404Y18479D01*
X3404Y18479D02*
X3404Y19069D01*
X3404Y19069D02*
X3124Y19069D01*
X2524Y18479D02*
X2264Y18479D01*
X2264Y18479D02*
X2264Y19069D01*
X2264Y19069D02*
X2534Y19069D01*
X3085Y17731D02*
X3365Y17731D01*
X3365Y17731D02*
X3365Y18321D01*
X3365Y18321D02*
X3085Y18321D01*
X2485Y17731D02*
X2225Y17731D01*
X2225Y17731D02*
X2225Y18321D01*
X2225Y18321D02*
X2495Y18321D01*
X13833Y8922D02*
X13833Y8642D01*
X13833Y8642D02*
X14423Y8642D01*
X14423Y8642D02*
X14423Y8922D01*
X13833Y9522D02*
X13833Y9782D01*
X13833Y9782D02*
X14423Y9782D01*
X14423Y9782D02*
X14423Y9512D01*
X4729Y4640D02*
X4729Y4920D01*
X4729Y4920D02*
X4139Y4920D01*
X4139Y4920D02*
X4139Y4640D01*
X4729Y4040D02*
X4729Y3780D01*
X4729Y3780D02*
X4139Y3780D01*
X4139Y3780D02*
X4139Y4050D01*
X14729Y4640D02*
X14729Y4920D01*
X14729Y4920D02*
X14139Y4920D01*
X14139Y4920D02*
X14139Y4640D01*
X14729Y4040D02*
X14729Y3780D01*
X14729Y3780D02*
X14139Y3780D01*
X14139Y3780D02*
X14139Y4050D01*
X13725Y4640D02*
X13725Y4920D01*
X13725Y4920D02*
X13135Y4920D01*
X13135Y4920D02*
X13135Y4640D01*
X13725Y4040D02*
X13725Y3780D01*
X13725Y3780D02*
X13135Y3780D01*
X13135Y3780D02*
X13135Y4050D01*
X12721Y4640D02*
X12721Y4920D01*
X12721Y4920D02*
X12131Y4920D01*
X12131Y4920D02*
X12131Y4640D01*
X12721Y4040D02*
X12721Y3780D01*
X12721Y3780D02*
X12131Y3780D01*
X12131Y3780D02*
X12131Y4050D01*
X10733Y4640D02*
X10733Y4920D01*
X10733Y4920D02*
X10143Y4920D01*
X10143Y4920D02*
X10143Y4640D01*
X10733Y4040D02*
X10733Y3780D01*
X10733Y3780D02*
X10143Y3780D01*
X10143Y3780D02*
X10143Y4050D01*
X11717Y4640D02*
X11717Y4920D01*
X11717Y4920D02*
X11127Y4920D01*
X11127Y4920D02*
X11127Y4640D01*
X11717Y4040D02*
X11717Y3780D01*
X11717Y3780D02*
X11127Y3780D01*
X11127Y3780D02*
X11127Y4050D01*
X9729Y4640D02*
X9729Y4920D01*
X9729Y4920D02*
X9139Y4920D01*
X9139Y4920D02*
X9139Y4640D01*
X9729Y4040D02*
X9729Y3780D01*
X9729Y3780D02*
X9139Y3780D01*
X9139Y3780D02*
X9139Y4050D01*
X8725Y4640D02*
X8725Y4920D01*
X8725Y4920D02*
X8135Y4920D01*
X8135Y4920D02*
X8135Y4640D01*
X8725Y4040D02*
X8725Y3780D01*
X8725Y3780D02*
X8135Y3780D01*
X8135Y3780D02*
X8135Y4050D01*
X7721Y4640D02*
X7721Y4920D01*
X7721Y4920D02*
X7131Y4920D01*
X7131Y4920D02*
X7131Y4640D01*
X7721Y4040D02*
X7721Y3780D01*
X7721Y3780D02*
X7131Y3780D01*
X7131Y3780D02*
X7131Y4050D01*
X6717Y4640D02*
X6717Y4920D01*
X6717Y4920D02*
X6127Y4920D01*
X6127Y4920D02*
X6127Y4640D01*
X6717Y4040D02*
X6717Y3780D01*
X6717Y3780D02*
X6127Y3780D01*
X6127Y3780D02*
X6127Y4050D01*
X5713Y4640D02*
X5713Y4920D01*
X5713Y4920D02*
X5123Y4920D01*
X5123Y4920D02*
X5123Y4640D01*
X5713Y4040D02*
X5713Y3780D01*
X5713Y3780D02*
X5123Y3780D01*
X5123Y3780D02*
X5123Y4050D01*
X10880Y21117D02*
X11160Y21117D01*
X11160Y21117D02*
X11160Y21707D01*
X11160Y21707D02*
X10880Y21707D01*
X10280Y21117D02*
X10020Y21117D01*
X10020Y21117D02*
X10020Y21707D01*
X10020Y21707D02*
X10290Y21707D01*
X3164Y14778D02*
X3444Y14778D01*
X3444Y14778D02*
X3444Y15368D01*
X3444Y15368D02*
X3164Y15368D01*
X2564Y14778D02*
X2304Y14778D01*
X2304Y14778D02*
X2304Y15368D01*
X2304Y15368D02*
X2574Y15368D01*
X3203Y15408D02*
X3483Y15408D01*
X3483Y15408D02*
X3483Y15998D01*
X3483Y15998D02*
X3203Y15998D01*
X2603Y15408D02*
X2343Y15408D01*
X2343Y15408D02*
X2343Y15998D01*
X2343Y15998D02*
X2613Y15998D01*
X14306Y5772D02*
X14306Y5492D01*
X14306Y5492D02*
X14896Y5492D01*
X14896Y5492D02*
X14896Y5772D01*
X14306Y6372D02*
X14306Y6632D01*
X14306Y6632D02*
X14896Y6632D01*
X14896Y6632D02*
X14896Y6362D01*
X14936Y5772D02*
X14936Y5492D01*
X14936Y5492D02*
X15526Y5492D01*
X15526Y5492D02*
X15526Y5772D01*
X14936Y6372D02*
X14936Y6632D01*
X14936Y6632D02*
X15526Y6632D01*
X15526Y6632D02*
X15526Y6362D01*
X15526Y5772D02*
X15526Y5492D01*
X15526Y5492D02*
X16116Y5492D01*
X16116Y5492D02*
X16116Y5772D01*
X15526Y6372D02*
X15526Y6632D01*
X15526Y6632D02*
X16116Y6632D01*
X16116Y6632D02*
X16116Y6362D01*
X9620Y21117D02*
X9900Y21117D01*
X9900Y21117D02*
X9900Y21707D01*
X9900Y21707D02*
X9620Y21707D01*
X9020Y21117D02*
X8760Y21117D01*
X8760Y21117D02*
X8760Y21707D01*
X8760Y21707D02*
X9030Y21707D01*
X15733Y4620D02*
X15733Y4900D01*
X15733Y4900D02*
X15143Y4900D01*
X15143Y4900D02*
X15143Y4620D01*
X15733Y4020D02*
X15733Y3760D01*
X15733Y3760D02*
X15143Y3760D01*
X15143Y3760D02*
X15143Y4030D01*
X3124Y19148D02*
X3404Y19148D01*
X3404Y19148D02*
X3404Y19738D01*
X3404Y19738D02*
X3124Y19738D01*
X2524Y19148D02*
X2264Y19148D01*
X2264Y19148D02*
X2264Y19738D01*
X2264Y19738D02*
X2534Y19738D01*
X3124Y19818D02*
X3404Y19818D01*
X3404Y19818D02*
X3404Y20408D01*
X3404Y20408D02*
X3124Y20408D01*
X2524Y19818D02*
X2264Y19818D01*
X2264Y19818D02*
X2264Y20408D01*
X2264Y20408D02*
X2534Y20408D01*
X16012Y8352D02*
X16012Y8632D01*
X16012Y8632D02*
X15422Y8632D01*
X15422Y8632D02*
X15422Y8352D01*
X16012Y7752D02*
X16012Y7492D01*
X16012Y7492D02*
X15422Y7492D01*
X15422Y7492D02*
X15422Y7762D01*
X2691Y9030D02*
X2971Y9030D01*
X2971Y9030D02*
X2971Y9620D01*
X2971Y9620D02*
X2691Y9620D01*
X2091Y9030D02*
X1831Y9030D01*
X1831Y9030D02*
X1831Y9620D01*
X1831Y9620D02*
X2101Y9620D01*
X2643Y8174D02*
X2363Y8174D01*
X2363Y8174D02*
X2363Y7584D01*
X2363Y7584D02*
X2643Y7584D01*
X3243Y8174D02*
X3503Y8174D01*
X3503Y8174D02*
X3503Y7584D01*
X3503Y7584D02*
X3233Y7584D01*
X3006Y8223D02*
X3286Y8223D01*
X3286Y8223D02*
X3286Y8813D01*
X3286Y8813D02*
X3006Y8813D01*
X2406Y8223D02*
X2146Y8223D01*
X2146Y8223D02*
X2146Y8813D01*
X2146Y8813D02*
X2416Y8813D01*
X2948Y9237D02*
X2948Y8957D01*
X2948Y8957D02*
X3538Y8957D01*
X3538Y8957D02*
X3538Y9237D01*
X2948Y9837D02*
X2948Y10097D01*
X2948Y10097D02*
X3538Y10097D01*
X3538Y10097D02*
X3538Y9827D01*
X1992Y5959D02*
X1992Y6239D01*
X1992Y6239D02*
X1402Y6239D01*
X1402Y6239D02*
X1402Y5959D01*
X1992Y5359D02*
X1992Y5099D01*
X1992Y5099D02*
X1402Y5099D01*
X1402Y5099D02*
X1402Y5369D01*
X2662Y5959D02*
X2662Y6239D01*
X2662Y6239D02*
X2072Y6239D01*
X2072Y6239D02*
X2072Y5959D01*
X2662Y5359D02*
X2662Y5099D01*
X2662Y5099D02*
X2072Y5099D01*
X2072Y5099D02*
X2072Y5369D01*
X13922Y11756D02*
X13642Y11756D01*
X13642Y11756D02*
X13642Y11166D01*
X13642Y11166D02*
X13922Y11166D01*
X14522Y11756D02*
X14782Y11756D01*
X14782Y11756D02*
X14782Y11166D01*
X14782Y11166D02*
X14512Y11166D01*
X13922Y12465D02*
X13642Y12465D01*
X13642Y12465D02*
X13642Y11875D01*
X13642Y11875D02*
X13922Y11875D01*
X14522Y12465D02*
X14782Y12465D01*
X14782Y12465D02*
X14782Y11875D01*
X14782Y11875D02*
X14512Y11875D01*
G54D15*
X1062Y11102D02*
X1062Y10433D01*
X1062Y10433D02*
X-39Y10433D01*
X-39Y10433D02*
X-39Y11102D01*
X1062Y16220D02*
X1062Y16889D01*
X1062Y16889D02*
X-39Y16889D01*
X-39Y16889D02*
X-39Y16220D01*
X1456Y16220D02*
X1456Y11102D01*
X1456Y11102D02*
X-196Y11102D01*
X-196Y11102D02*
X-196Y16220D01*
X-196Y16220D02*
X1456Y16220D01*
X1062Y21496D02*
X1062Y22165D01*
X1062Y22165D02*
X-39Y22165D01*
X-39Y22165D02*
X-39Y21496D01*
X1062Y17854D02*
X1062Y17185D01*
X1062Y17185D02*
X-39Y17185D01*
X-39Y17185D02*
X-39Y17854D01*
X1456Y21496D02*
X1456Y17854D01*
X1456Y17854D02*
X-196Y17854D01*
X-196Y17854D02*
X-196Y21496D01*
X-196Y21496D02*
X1456Y21496D01*
X17244Y2559D02*
X17244Y1889D01*
X17244Y1889D02*
X18346Y1889D01*
X18346Y1889D02*
X18346Y2559D01*
X17244Y6200D02*
X17244Y6870D01*
X17244Y6870D02*
X18346Y6870D01*
X18346Y6870D02*
X18346Y6200D01*
X16850Y2559D02*
X16850Y6200D01*
X16850Y6200D02*
X18503Y6200D01*
X18503Y6200D02*
X18503Y2559D01*
X18503Y2559D02*
X16850Y2559D01*
X17244Y15413D02*
X17244Y14744D01*
X17244Y14744D02*
X18346Y14744D01*
X18346Y14744D02*
X18346Y15413D01*
X17244Y18070D02*
X17244Y18740D01*
X17244Y18740D02*
X18346Y18740D01*
X18346Y18740D02*
X18346Y18070D01*
X16850Y15413D02*
X16850Y18070D01*
X16850Y18070D02*
X18503Y18070D01*
X18503Y18070D02*
X18503Y15413D01*
X18503Y15413D02*
X16850Y15413D01*
X15807Y22952D02*
X16476Y22952D01*
X16476Y22952D02*
X16476Y24055D01*
X16476Y24055D02*
X15807Y24055D01*
X13149Y22952D02*
X12480Y22952D01*
X12480Y22952D02*
X12480Y24055D01*
X12480Y24055D02*
X13149Y24055D01*
X15807Y22559D02*
X13149Y22559D01*
X13149Y22559D02*
X13149Y24212D01*
X13149Y24212D02*
X15807Y24212D01*
X15807Y24212D02*
X15807Y22559D01*
X1062Y9468D02*
X1062Y10137D01*
X1062Y10137D02*
X-39Y10137D01*
X-39Y10137D02*
X-39Y9468D01*
X1062Y6811D02*
X1062Y6141D01*
X1062Y6141D02*
X-39Y6141D01*
X-39Y6141D02*
X-39Y6811D01*
X1456Y9468D02*
X1456Y6811D01*
X1456Y6811D02*
X-196Y6811D01*
X-196Y6811D02*
X-196Y9468D01*
X-196Y9468D02*
X1456Y9468D01*
X1062Y5177D02*
X1062Y5846D01*
X1062Y5846D02*
X-39Y5846D01*
X-39Y5846D02*
X-39Y5177D01*
X1062Y2519D02*
X1062Y1850D01*
X1062Y1850D02*
X-39Y1850D01*
X-39Y1850D02*
X-39Y2519D01*
X1456Y5177D02*
X1456Y2519D01*
X1456Y2519D02*
X-196Y2519D01*
X-196Y2519D02*
X-196Y5177D01*
X-196Y5177D02*
X1456Y5177D01*
X11515Y22952D02*
X12185Y22952D01*
X12185Y22952D02*
X12185Y24055D01*
X12185Y24055D02*
X11515Y24055D01*
X8858Y22952D02*
X8188Y22952D01*
X8188Y22952D02*
X8188Y24055D01*
X8188Y24055D02*
X8858Y24055D01*
X11515Y22559D02*
X8858Y22559D01*
X8858Y22559D02*
X8858Y24212D01*
X8858Y24212D02*
X11515Y24212D01*
X11515Y24212D02*
X11515Y22559D01*
X7224Y22952D02*
X7893Y22952D01*
X7893Y22952D02*
X7893Y24055D01*
X7893Y24055D02*
X7224Y24055D01*
X4566Y22952D02*
X3897Y22952D01*
X3897Y22952D02*
X3897Y24055D01*
X3897Y24055D02*
X4566Y24055D01*
X7224Y22559D02*
X4566Y22559D01*
X4566Y22559D02*
X4566Y24212D01*
X4566Y24212D02*
X7224Y24212D01*
X7224Y24212D02*
X7224Y22559D01*
X17263Y7854D02*
X17263Y7185D01*
X17263Y7185D02*
X18366Y7185D01*
X18366Y7185D02*
X18366Y7854D01*
X17263Y9527D02*
X17263Y10196D01*
X17263Y10196D02*
X18366Y10196D01*
X18366Y10196D02*
X18366Y9527D01*
X16850Y7854D02*
X16850Y9527D01*
X16850Y9527D02*
X18503Y9527D01*
X18503Y9527D02*
X18503Y7854D01*
X18503Y7854D02*
X16850Y7854D01*
G54D19*
X15443Y18601D02*
G75*
G03X15443Y18601I-70J0D01*
G74*
G01*
X13758Y18602D02*
X15372Y18602D01*
X15372Y18602D02*
X15372Y20590D01*
X15372Y20590D02*
X13758Y20590D01*
X13758Y20590D02*
X13758Y18602D01*
G54D20*
X18503Y10865D02*
X18503Y14173D01*
X18543Y10865D02*
X18543Y14173D01*
X18543Y14173D02*
X18464Y14173D01*
X18464Y14173D02*
X18464Y10865D01*
X18464Y10865D02*
X18543Y10865D01*
X18543Y10984D02*
X16574Y10984D01*
X16574Y10984D02*
X16574Y14054D01*
X16574Y14054D02*
X18543Y14054D01*
G54D19*
X1968Y2323D02*
X1968Y2657D01*
X1968Y2657D02*
X2756Y2657D01*
X2756Y2657D02*
X2756Y2323D01*
X1968Y1555D02*
X1968Y1201D01*
X1968Y1201D02*
X2756Y1201D01*
X2756Y1201D02*
X2756Y1535D01*
X15606Y10192D02*
X15606Y9858D01*
X15606Y9858D02*
X14818Y9858D01*
X14818Y9858D02*
X14818Y10192D01*
X15606Y10960D02*
X15606Y11314D01*
X15606Y11314D02*
X14818Y11314D01*
X14818Y11314D02*
X14818Y10980D01*
G54D13*
X10948Y17425D02*
X10948Y17661D01*
X10948Y17661D02*
X10437Y17661D01*
X10437Y17661D02*
X10437Y17425D01*
X10948Y16834D02*
X10948Y16598D01*
X10948Y16598D02*
X10437Y16598D01*
X10437Y16598D02*
X10437Y16834D01*
X15964Y19468D02*
X15964Y19704D01*
X15964Y19704D02*
X15452Y19704D01*
X15452Y19704D02*
X15452Y19468D01*
X15964Y18877D02*
X15964Y18641D01*
X15964Y18641D02*
X15452Y18641D01*
X15452Y18641D02*
X15452Y18877D01*
X2677Y9625D02*
X2913Y9625D01*
X2913Y9625D02*
X2913Y10137D01*
X2913Y10137D02*
X2677Y10137D01*
X2086Y9625D02*
X1850Y9625D01*
X1850Y9625D02*
X1850Y10137D01*
X1850Y10137D02*
X2086Y10137D01*
X9165Y18248D02*
X8929Y18248D01*
X8929Y18248D02*
X8929Y17736D01*
X8929Y17736D02*
X9165Y17736D01*
X9755Y18248D02*
X9992Y18248D01*
X9992Y18248D02*
X9992Y17736D01*
X9992Y17736D02*
X9755Y17736D01*
X12775Y6377D02*
X13011Y6377D01*
X13011Y6377D02*
X13011Y6889D01*
X13011Y6889D02*
X12775Y6889D01*
X12185Y6377D02*
X11948Y6377D01*
X11948Y6377D02*
X11948Y6889D01*
X11948Y6889D02*
X12185Y6889D01*
X2854Y23484D02*
X3090Y23484D01*
X3090Y23484D02*
X3090Y23996D01*
X3090Y23996D02*
X2854Y23996D01*
X2263Y23484D02*
X2027Y23484D01*
X2027Y23484D02*
X2027Y23996D01*
X2027Y23996D02*
X2263Y23996D01*
X5413Y9507D02*
X5649Y9507D01*
X5649Y9507D02*
X5649Y10019D01*
X5649Y10019D02*
X5413Y10019D01*
X4822Y9507D02*
X4586Y9507D01*
X4586Y9507D02*
X4586Y10019D01*
X4586Y10019D02*
X4822Y10019D01*
X6161Y13307D02*
X5925Y13307D01*
X5925Y13307D02*
X5925Y12795D01*
X5925Y12795D02*
X6161Y12795D01*
X6751Y13307D02*
X6988Y13307D01*
X6988Y13307D02*
X6988Y12795D01*
X6988Y12795D02*
X6751Y12795D01*
X13090Y12637D02*
X13326Y12637D01*
X13326Y12637D02*
X13326Y13149D01*
X13326Y13149D02*
X13090Y13149D01*
X12500Y12637D02*
X12263Y12637D01*
X12263Y12637D02*
X12263Y13149D01*
X12263Y13149D02*
X12500Y13149D01*
X2637Y7480D02*
X2401Y7480D01*
X2401Y7480D02*
X2401Y6968D01*
X2401Y6968D02*
X2637Y6968D01*
X3228Y7480D02*
X3464Y7480D01*
X3464Y7480D02*
X3464Y6968D01*
X3464Y6968D02*
X3228Y6968D01*
X12061Y21865D02*
X12341Y21865D01*
X12341Y21865D02*
X12341Y22455D01*
X12341Y22455D02*
X12061Y22455D01*
X11461Y21865D02*
X11201Y21865D01*
X11201Y21865D02*
X11201Y22455D01*
X11201Y22455D02*
X11471Y22455D01*
X15528Y16975D02*
X15528Y17255D01*
X15528Y17255D02*
X14938Y17255D01*
X14938Y17255D02*
X14938Y16975D01*
X15528Y16375D02*
X15528Y16115D01*
X15528Y16115D02*
X14938Y16115D01*
X14938Y16115D02*
X14938Y16385D01*
X4565Y11451D02*
X4845Y11451D01*
X4845Y11451D02*
X4845Y12041D01*
X4845Y12041D02*
X4565Y12041D01*
X3965Y11451D02*
X3705Y11451D01*
X3705Y11451D02*
X3705Y12041D01*
X3705Y12041D02*
X3975Y12041D01*
X4561Y10766D02*
X4841Y10766D01*
X4841Y10766D02*
X4841Y11356D01*
X4841Y11356D02*
X4561Y11356D01*
X3961Y10766D02*
X3701Y10766D01*
X3701Y10766D02*
X3701Y11356D01*
X3701Y11356D02*
X3971Y11356D01*
X4573Y10070D02*
X4853Y10070D01*
X4853Y10070D02*
X4853Y10660D01*
X4853Y10660D02*
X4573Y10660D01*
X3973Y10070D02*
X3713Y10070D01*
X3713Y10070D02*
X3713Y10660D01*
X3713Y10660D02*
X3983Y10660D01*
X7992Y21606D02*
X7933Y21527D01*
X8070Y21625D02*
X7893Y21409D01*
X8248Y20759D02*
X7893Y20759D01*
X8248Y21625D02*
X7893Y21625D01*
X8247Y21627D02*
X8247Y20757D01*
X7894Y20757D02*
X7894Y21627D01*
X6269Y21709D02*
X5989Y21709D01*
X5989Y21709D02*
X5989Y21119D01*
X5989Y21119D02*
X6269Y21119D01*
X6869Y21709D02*
X7129Y21709D01*
X7129Y21709D02*
X7129Y21119D01*
X7129Y21119D02*
X6859Y21119D01*
X7581Y19841D02*
X7861Y19841D01*
X7861Y19841D02*
X7861Y20431D01*
X7861Y20431D02*
X7581Y20431D01*
X6981Y19841D02*
X6721Y19841D01*
X6721Y19841D02*
X6721Y20431D01*
X6721Y20431D02*
X6991Y20431D01*
X6472Y21023D02*
X6236Y21023D01*
X6236Y21023D02*
X6236Y20511D01*
X6236Y20511D02*
X6472Y20511D01*
X7062Y21023D02*
X7299Y21023D01*
X7299Y21023D02*
X7299Y20511D01*
X7299Y20511D02*
X7062Y20511D01*
X10448Y15649D02*
X10448Y15413D01*
X10448Y15413D02*
X10960Y15413D01*
X10960Y15413D02*
X10960Y15649D01*
X10448Y16240D02*
X10448Y16476D01*
X10448Y16476D02*
X10960Y16476D01*
X10960Y16476D02*
X10960Y16240D01*
X8716Y15846D02*
X8578Y15964D01*
X8578Y15964D02*
X8618Y15846D01*
X8814Y15807D02*
X8539Y16082D01*
X8716Y15807D02*
X8539Y15807D01*
X8539Y15807D02*
X8539Y16161D01*
X10271Y17539D02*
X8539Y17539D01*
X8539Y17539D02*
X8539Y16161D01*
X8716Y15807D02*
X10271Y15807D01*
X10271Y15807D02*
X10271Y17539D01*
X9996Y17263D02*
X9996Y17165D01*
X9996Y17263D02*
X9897Y17263D01*
X8814Y17263D02*
X8814Y17165D01*
X8814Y17263D02*
X8913Y17263D01*
X8814Y16082D02*
X8814Y16181D01*
X8814Y16082D02*
X8913Y16082D01*
X9897Y16082D02*
X9996Y16082D01*
X9996Y16082D02*
X9996Y16181D01*
X12004Y19876D02*
X12004Y20156D01*
X12004Y20156D02*
X11414Y20156D01*
X11414Y20156D02*
X11414Y19876D01*
X12004Y19276D02*
X12004Y19016D01*
X12004Y19016D02*
X11414Y19016D01*
X11414Y19016D02*
X11414Y19286D01*
G54D15*
X18248Y20704D02*
X18503Y20704D01*
X18503Y20704D02*
X18503Y21374D01*
X18503Y21374D02*
X18248Y21374D01*
X17106Y21728D02*
X18248Y21728D01*
X17106Y20350D02*
X18248Y20350D01*
X18248Y20350D02*
X18248Y21728D01*
X17106Y20350D02*
X17106Y21728D01*
G54D13*
X2488Y4137D02*
X2488Y3901D01*
X2488Y3901D02*
X3000Y3901D01*
X3000Y3901D02*
X3000Y4137D01*
X2488Y4728D02*
X2488Y4964D01*
X2488Y4964D02*
X3000Y4964D01*
X3000Y4964D02*
X3000Y4728D01*
X14607Y10770D02*
X14607Y11050D01*
X14607Y11050D02*
X14017Y11050D01*
X14017Y11050D02*
X14017Y10770D01*
X14607Y10170D02*
X14607Y9910D01*
X14607Y9910D02*
X14017Y9910D01*
X14017Y9910D02*
X14017Y10180D01*
G54D21*
X3246Y5782D02*
X3246Y5537D01*
X3261Y5508D01*
X3275Y5494D01*
X3304Y5479D01*
X3362Y5479D01*
X3391Y5494D01*
X3405Y5508D01*
X3419Y5537D01*
X3419Y5782D01*
X3723Y5479D02*
X3549Y5479D01*
X3636Y5479D02*
X3636Y5782D01*
X3607Y5739D01*
X3578Y5710D01*
X3549Y5696D01*
X4011Y5479D02*
X3838Y5479D01*
X3925Y5479D02*
X3925Y5782D01*
X3896Y5739D01*
X3867Y5710D01*
X3838Y5696D01*
X8654Y459D02*
X8654Y763D01*
X8769Y763D01*
X8798Y748D01*
X8812Y734D01*
X8827Y705D01*
X8827Y662D01*
X8812Y633D01*
X8798Y618D01*
X8769Y604D01*
X8654Y604D01*
X9116Y459D02*
X8942Y459D01*
X9029Y459D02*
X9029Y763D01*
X9000Y719D01*
X8971Y690D01*
X8942Y676D01*
X6280Y7223D02*
X6280Y6978D01*
X6295Y6949D01*
X6309Y6935D01*
X6338Y6920D01*
X6396Y6920D01*
X6425Y6935D01*
X6439Y6949D01*
X6454Y6978D01*
X6454Y7223D01*
X6569Y7223D02*
X6771Y7223D01*
X6641Y6920D01*
X3438Y22163D02*
X3481Y22148D01*
X3553Y22148D01*
X3582Y22163D01*
X3597Y22177D01*
X3611Y22206D01*
X3611Y22235D01*
X3597Y22264D01*
X3582Y22278D01*
X3553Y22293D01*
X3496Y22307D01*
X3467Y22322D01*
X3452Y22336D01*
X3438Y22365D01*
X3438Y22394D01*
X3452Y22423D01*
X3467Y22437D01*
X3496Y22452D01*
X3568Y22452D01*
X3611Y22437D01*
X3712Y22452D02*
X3784Y22148D01*
X3842Y22365D01*
X3900Y22148D01*
X3972Y22452D01*
X4246Y22148D02*
X4073Y22148D01*
X4160Y22148D02*
X4160Y22452D01*
X4131Y22408D01*
X4102Y22379D01*
X4073Y22365D01*
X14207Y7864D02*
X14178Y7878D01*
X14149Y7907D01*
X14106Y7950D01*
X14077Y7965D01*
X14048Y7965D01*
X14062Y7893D02*
X14034Y7907D01*
X14005Y7936D01*
X13990Y7994D01*
X13990Y8095D01*
X14005Y8152D01*
X14034Y8181D01*
X14062Y8196D01*
X14120Y8196D01*
X14149Y8181D01*
X14178Y8152D01*
X14192Y8095D01*
X14192Y7994D01*
X14178Y7936D01*
X14149Y7907D01*
X14120Y7893D01*
X14062Y7893D01*
X14293Y8196D02*
X14481Y8196D01*
X14380Y8080D01*
X14423Y8080D01*
X14452Y8066D01*
X14467Y8051D01*
X14481Y8022D01*
X14481Y7950D01*
X14467Y7921D01*
X14452Y7907D01*
X14423Y7893D01*
X14337Y7893D01*
X14308Y7907D01*
X14293Y7921D01*
X16034Y9427D02*
X16005Y9441D01*
X15976Y9470D01*
X15933Y9513D01*
X15904Y9528D01*
X15875Y9528D01*
X15889Y9456D02*
X15860Y9470D01*
X15832Y9499D01*
X15817Y9557D01*
X15817Y9658D01*
X15832Y9715D01*
X15860Y9744D01*
X15889Y9759D01*
X15947Y9759D01*
X15976Y9744D01*
X16005Y9715D01*
X16019Y9658D01*
X16019Y9557D01*
X16005Y9499D01*
X15976Y9470D01*
X15947Y9456D01*
X15889Y9456D01*
X16135Y9730D02*
X16149Y9744D01*
X16178Y9759D01*
X16250Y9759D01*
X16279Y9744D01*
X16293Y9730D01*
X16308Y9701D01*
X16308Y9672D01*
X16293Y9629D01*
X16120Y9456D01*
X16308Y9456D01*
X3576Y21215D02*
X3475Y21360D01*
X3403Y21215D02*
X3403Y21519D01*
X3519Y21519D01*
X3547Y21504D01*
X3562Y21490D01*
X3576Y21461D01*
X3576Y21417D01*
X3562Y21389D01*
X3547Y21374D01*
X3519Y21360D01*
X3403Y21360D01*
X3677Y21519D02*
X3865Y21519D01*
X3764Y21403D01*
X3807Y21403D01*
X3836Y21389D01*
X3851Y21374D01*
X3865Y21345D01*
X3865Y21273D01*
X3851Y21244D01*
X3836Y21230D01*
X3807Y21215D01*
X3721Y21215D01*
X3692Y21230D01*
X3677Y21244D01*
X3980Y21490D02*
X3995Y21504D01*
X4024Y21519D01*
X4096Y21519D01*
X4125Y21504D01*
X4139Y21490D01*
X4154Y21461D01*
X4154Y21432D01*
X4139Y21389D01*
X3966Y21215D01*
X4154Y21215D01*
X12832Y21160D02*
X12731Y21305D01*
X12659Y21160D02*
X12659Y21463D01*
X12774Y21463D01*
X12803Y21449D01*
X12818Y21435D01*
X12832Y21406D01*
X12832Y21362D01*
X12818Y21333D01*
X12803Y21319D01*
X12774Y21305D01*
X12659Y21305D01*
X13106Y21463D02*
X12962Y21463D01*
X12948Y21319D01*
X12962Y21333D01*
X12991Y21348D01*
X13063Y21348D01*
X13092Y21333D01*
X13106Y21319D01*
X13121Y21290D01*
X13121Y21218D01*
X13106Y21189D01*
X13092Y21175D01*
X13063Y21160D01*
X12991Y21160D01*
X12962Y21175D01*
X12948Y21189D01*
X13265Y21160D02*
X13323Y21160D01*
X13352Y21175D01*
X13366Y21189D01*
X13395Y21232D01*
X13410Y21290D01*
X13410Y21406D01*
X13395Y21435D01*
X13381Y21449D01*
X13352Y21463D01*
X13294Y21463D01*
X13265Y21449D01*
X13251Y21435D01*
X13236Y21406D01*
X13236Y21333D01*
X13251Y21305D01*
X13265Y21290D01*
X13294Y21276D01*
X13352Y21276D01*
X13381Y21290D01*
X13395Y21305D01*
X13410Y21333D01*
X16756Y7297D02*
X16612Y7196D01*
X16756Y7124D02*
X16453Y7124D01*
X16453Y7239D01*
X16467Y7268D01*
X16482Y7282D01*
X16511Y7297D01*
X16554Y7297D01*
X16583Y7282D01*
X16597Y7268D01*
X16612Y7239D01*
X16612Y7124D01*
X16554Y7557D02*
X16756Y7557D01*
X16438Y7484D02*
X16655Y7412D01*
X16655Y7600D01*
X16583Y7759D02*
X16568Y7730D01*
X16554Y7715D01*
X16525Y7701D01*
X16511Y7701D01*
X16482Y7715D01*
X16467Y7730D01*
X16453Y7759D01*
X16453Y7816D01*
X16467Y7845D01*
X16482Y7860D01*
X16511Y7874D01*
X16525Y7874D01*
X16554Y7860D01*
X16568Y7845D01*
X16583Y7816D01*
X16583Y7759D01*
X16597Y7730D01*
X16612Y7715D01*
X16641Y7701D01*
X16698Y7701D01*
X16727Y7715D01*
X16742Y7730D01*
X16756Y7759D01*
X16756Y7816D01*
X16742Y7845D01*
X16727Y7860D01*
X16698Y7874D01*
X16641Y7874D01*
X16612Y7860D01*
X16597Y7845D01*
X16583Y7816D01*
X3757Y13562D02*
X3656Y13706D01*
X3584Y13562D02*
X3584Y13865D01*
X3700Y13865D01*
X3729Y13851D01*
X3743Y13836D01*
X3757Y13807D01*
X3757Y13764D01*
X3743Y13735D01*
X3729Y13721D01*
X3700Y13706D01*
X3584Y13706D01*
X3873Y13836D02*
X3887Y13851D01*
X3916Y13865D01*
X3988Y13865D01*
X4017Y13851D01*
X4032Y13836D01*
X4046Y13807D01*
X4046Y13778D01*
X4032Y13735D01*
X3858Y13562D01*
X4046Y13562D01*
X4219Y13735D02*
X4190Y13750D01*
X4176Y13764D01*
X4162Y13793D01*
X4162Y13807D01*
X4176Y13836D01*
X4190Y13851D01*
X4219Y13865D01*
X4277Y13865D01*
X4306Y13851D01*
X4320Y13836D01*
X4335Y13807D01*
X4335Y13793D01*
X4320Y13764D01*
X4306Y13750D01*
X4277Y13735D01*
X4219Y13735D01*
X4190Y13721D01*
X4176Y13706D01*
X4162Y13677D01*
X4162Y13620D01*
X4176Y13591D01*
X4190Y13576D01*
X4219Y13562D01*
X4277Y13562D01*
X4306Y13576D01*
X4320Y13591D01*
X4335Y13620D01*
X4335Y13677D01*
X4320Y13706D01*
X4306Y13721D01*
X4277Y13735D01*
X3702Y14148D02*
X3601Y14293D01*
X3529Y14148D02*
X3529Y14452D01*
X3645Y14452D01*
X3673Y14437D01*
X3688Y14423D01*
X3702Y14394D01*
X3702Y14351D01*
X3688Y14322D01*
X3673Y14307D01*
X3645Y14293D01*
X3529Y14293D01*
X3818Y14423D02*
X3832Y14437D01*
X3861Y14452D01*
X3933Y14452D01*
X3962Y14437D01*
X3977Y14423D01*
X3991Y14394D01*
X3991Y14365D01*
X3977Y14322D01*
X3803Y14148D01*
X3991Y14148D01*
X4092Y14452D02*
X4294Y14452D01*
X4164Y14148D01*
X3858Y18348D02*
X3714Y18247D01*
X3858Y18175D02*
X3555Y18175D01*
X3555Y18290D01*
X3570Y18319D01*
X3584Y18333D01*
X3613Y18348D01*
X3656Y18348D01*
X3685Y18333D01*
X3700Y18319D01*
X3714Y18290D01*
X3714Y18175D01*
X3584Y18463D02*
X3570Y18478D01*
X3555Y18507D01*
X3555Y18579D01*
X3570Y18608D01*
X3584Y18622D01*
X3613Y18637D01*
X3642Y18637D01*
X3685Y18622D01*
X3858Y18449D01*
X3858Y18637D01*
X3555Y18896D02*
X3555Y18839D01*
X3570Y18810D01*
X3584Y18795D01*
X3627Y18767D01*
X3685Y18752D01*
X3801Y18752D01*
X3830Y18767D01*
X3844Y18781D01*
X3858Y18810D01*
X3858Y18868D01*
X3844Y18896D01*
X3830Y18911D01*
X3801Y18925D01*
X3729Y18925D01*
X3700Y18911D01*
X3685Y18896D01*
X3671Y18868D01*
X3671Y18810D01*
X3685Y18781D01*
X3700Y18767D01*
X3729Y18752D01*
X2588Y17298D02*
X2487Y17442D01*
X2415Y17298D02*
X2415Y17601D01*
X2530Y17601D01*
X2559Y17587D01*
X2574Y17572D01*
X2588Y17543D01*
X2588Y17500D01*
X2574Y17471D01*
X2559Y17457D01*
X2530Y17442D01*
X2415Y17442D01*
X2704Y17572D02*
X2718Y17587D01*
X2747Y17601D01*
X2819Y17601D01*
X2848Y17587D01*
X2862Y17572D01*
X2877Y17543D01*
X2877Y17515D01*
X2862Y17471D01*
X2689Y17298D01*
X2877Y17298D01*
X3151Y17601D02*
X3007Y17601D01*
X2992Y17457D01*
X3007Y17471D01*
X3036Y17486D01*
X3108Y17486D01*
X3137Y17471D01*
X3151Y17457D01*
X3166Y17428D01*
X3166Y17356D01*
X3151Y17327D01*
X3137Y17312D01*
X3108Y17298D01*
X3036Y17298D01*
X3007Y17312D01*
X2992Y17327D01*
X13713Y8954D02*
X13568Y8853D01*
X13713Y8781D02*
X13410Y8781D01*
X13410Y8896D01*
X13424Y8925D01*
X13438Y8940D01*
X13467Y8954D01*
X13511Y8954D01*
X13540Y8940D01*
X13554Y8925D01*
X13568Y8896D01*
X13568Y8781D01*
X13511Y9214D02*
X13713Y9214D01*
X13395Y9142D02*
X13612Y9070D01*
X13612Y9257D01*
X13511Y9503D02*
X13713Y9503D01*
X13395Y9431D02*
X13612Y9358D01*
X13612Y9546D01*
X4630Y5312D02*
X4486Y5211D01*
X4630Y5139D02*
X4327Y5139D01*
X4327Y5255D01*
X4341Y5284D01*
X4356Y5298D01*
X4385Y5312D01*
X4428Y5312D01*
X4457Y5298D01*
X4471Y5284D01*
X4486Y5255D01*
X4486Y5139D01*
X4630Y5601D02*
X4630Y5428D01*
X4630Y5515D02*
X4327Y5515D01*
X4370Y5486D01*
X4399Y5457D01*
X4414Y5428D01*
X4428Y5861D02*
X4630Y5861D01*
X4312Y5789D02*
X4529Y5717D01*
X4529Y5904D01*
X15110Y4307D02*
X14966Y4206D01*
X15110Y4134D02*
X14807Y4134D01*
X14807Y4250D01*
X14822Y4278D01*
X14836Y4293D01*
X14865Y4307D01*
X14908Y4307D01*
X14937Y4293D01*
X14952Y4278D01*
X14966Y4250D01*
X14966Y4134D01*
X14908Y4567D02*
X15110Y4567D01*
X14793Y4495D02*
X15009Y4423D01*
X15009Y4610D01*
X13591Y5244D02*
X13446Y5143D01*
X13591Y5071D02*
X13288Y5071D01*
X13288Y5187D01*
X13302Y5215D01*
X13316Y5230D01*
X13345Y5244D01*
X13389Y5244D01*
X13417Y5230D01*
X13432Y5215D01*
X13446Y5187D01*
X13446Y5071D01*
X13288Y5519D02*
X13288Y5374D01*
X13432Y5360D01*
X13417Y5374D01*
X13403Y5403D01*
X13403Y5475D01*
X13417Y5504D01*
X13432Y5519D01*
X13461Y5533D01*
X13533Y5533D01*
X13562Y5519D01*
X13576Y5504D01*
X13591Y5475D01*
X13591Y5403D01*
X13576Y5374D01*
X13562Y5360D01*
X12583Y5229D02*
X12438Y5127D01*
X12583Y5055D02*
X12280Y5055D01*
X12280Y5171D01*
X12294Y5200D01*
X12309Y5214D01*
X12337Y5229D01*
X12381Y5229D01*
X12410Y5214D01*
X12424Y5200D01*
X12438Y5171D01*
X12438Y5055D01*
X12280Y5488D02*
X12280Y5431D01*
X12294Y5402D01*
X12309Y5387D01*
X12352Y5358D01*
X12410Y5344D01*
X12525Y5344D01*
X12554Y5358D01*
X12568Y5373D01*
X12583Y5402D01*
X12583Y5459D01*
X12568Y5488D01*
X12554Y5503D01*
X12525Y5517D01*
X12453Y5517D01*
X12424Y5503D01*
X12410Y5488D01*
X12395Y5459D01*
X12395Y5402D01*
X12410Y5373D01*
X12424Y5358D01*
X12453Y5344D01*
X10614Y5240D02*
X10470Y5139D01*
X10614Y5067D02*
X10311Y5067D01*
X10311Y5183D01*
X10326Y5211D01*
X10340Y5226D01*
X10369Y5240D01*
X10412Y5240D01*
X10441Y5226D01*
X10456Y5211D01*
X10470Y5183D01*
X10470Y5067D01*
X10441Y5414D02*
X10427Y5385D01*
X10412Y5370D01*
X10383Y5356D01*
X10369Y5356D01*
X10340Y5370D01*
X10326Y5385D01*
X10311Y5414D01*
X10311Y5471D01*
X10326Y5500D01*
X10340Y5515D01*
X10369Y5529D01*
X10383Y5529D01*
X10412Y5515D01*
X10427Y5500D01*
X10441Y5471D01*
X10441Y5414D01*
X10456Y5385D01*
X10470Y5370D01*
X10499Y5356D01*
X10557Y5356D01*
X10585Y5370D01*
X10600Y5385D01*
X10614Y5414D01*
X10614Y5471D01*
X10600Y5500D01*
X10585Y5515D01*
X10557Y5529D01*
X10499Y5529D01*
X10470Y5515D01*
X10456Y5500D01*
X10441Y5471D01*
X11583Y5236D02*
X11438Y5135D01*
X11583Y5063D02*
X11280Y5063D01*
X11280Y5179D01*
X11294Y5208D01*
X11309Y5222D01*
X11337Y5236D01*
X11381Y5236D01*
X11410Y5222D01*
X11424Y5208D01*
X11438Y5179D01*
X11438Y5063D01*
X11280Y5337D02*
X11280Y5540D01*
X11583Y5410D01*
X10087Y4303D02*
X9942Y4202D01*
X10087Y4130D02*
X9784Y4130D01*
X9784Y4246D01*
X9798Y4274D01*
X9812Y4289D01*
X9841Y4303D01*
X9885Y4303D01*
X9914Y4289D01*
X9928Y4274D01*
X9942Y4246D01*
X9942Y4130D01*
X10087Y4448D02*
X10087Y4505D01*
X10072Y4534D01*
X10058Y4549D01*
X10015Y4578D01*
X9957Y4592D01*
X9841Y4592D01*
X9812Y4578D01*
X9798Y4563D01*
X9784Y4534D01*
X9784Y4477D01*
X9798Y4448D01*
X9812Y4433D01*
X9841Y4419D01*
X9914Y4419D01*
X9942Y4433D01*
X9957Y4448D01*
X9971Y4477D01*
X9971Y4534D01*
X9957Y4563D01*
X9942Y4578D01*
X9914Y4592D01*
X9083Y4139D02*
X8938Y4038D01*
X9083Y3966D02*
X8780Y3966D01*
X8780Y4082D01*
X8794Y4110D01*
X8809Y4125D01*
X8837Y4139D01*
X8881Y4139D01*
X8910Y4125D01*
X8924Y4110D01*
X8938Y4082D01*
X8938Y3966D01*
X9083Y4428D02*
X9083Y4255D01*
X9083Y4341D02*
X8780Y4341D01*
X8823Y4312D01*
X8852Y4284D01*
X8866Y4255D01*
X8780Y4616D02*
X8780Y4645D01*
X8794Y4673D01*
X8809Y4688D01*
X8837Y4702D01*
X8895Y4717D01*
X8967Y4717D01*
X9025Y4702D01*
X9054Y4688D01*
X9068Y4673D01*
X9083Y4645D01*
X9083Y4616D01*
X9068Y4587D01*
X9054Y4572D01*
X9025Y4558D01*
X8967Y4543D01*
X8895Y4543D01*
X8837Y4558D01*
X8809Y4572D01*
X8794Y4587D01*
X8780Y4616D01*
X7579Y5206D02*
X7435Y5105D01*
X7579Y5033D02*
X7276Y5033D01*
X7276Y5148D01*
X7290Y5177D01*
X7305Y5192D01*
X7333Y5206D01*
X7377Y5206D01*
X7406Y5192D01*
X7420Y5177D01*
X7435Y5148D01*
X7435Y5033D01*
X7579Y5495D02*
X7579Y5322D01*
X7579Y5408D02*
X7276Y5408D01*
X7319Y5379D01*
X7348Y5351D01*
X7362Y5322D01*
X7579Y5784D02*
X7579Y5610D01*
X7579Y5697D02*
X7276Y5697D01*
X7319Y5668D01*
X7348Y5639D01*
X7362Y5610D01*
X6445Y5238D02*
X6301Y5137D01*
X6445Y5064D02*
X6142Y5064D01*
X6142Y5180D01*
X6156Y5209D01*
X6171Y5223D01*
X6200Y5238D01*
X6243Y5238D01*
X6272Y5223D01*
X6286Y5209D01*
X6301Y5180D01*
X6301Y5064D01*
X6445Y5526D02*
X6445Y5353D01*
X6445Y5440D02*
X6142Y5440D01*
X6185Y5411D01*
X6214Y5382D01*
X6229Y5353D01*
X6171Y5642D02*
X6156Y5656D01*
X6142Y5685D01*
X6142Y5757D01*
X6156Y5786D01*
X6171Y5801D01*
X6200Y5815D01*
X6229Y5815D01*
X6272Y5801D01*
X6445Y5627D01*
X6445Y5815D01*
X5606Y5210D02*
X5462Y5109D01*
X5606Y5037D02*
X5303Y5037D01*
X5303Y5152D01*
X5318Y5181D01*
X5332Y5196D01*
X5361Y5210D01*
X5404Y5210D01*
X5433Y5196D01*
X5448Y5181D01*
X5462Y5152D01*
X5462Y5037D01*
X5606Y5499D02*
X5606Y5326D01*
X5606Y5412D02*
X5303Y5412D01*
X5347Y5383D01*
X5375Y5354D01*
X5390Y5326D01*
X5303Y5600D02*
X5303Y5788D01*
X5419Y5687D01*
X5419Y5730D01*
X5433Y5759D01*
X5448Y5773D01*
X5477Y5788D01*
X5549Y5788D01*
X5578Y5773D01*
X5592Y5759D01*
X5606Y5730D01*
X5606Y5643D01*
X5592Y5614D01*
X5578Y5600D01*
X10403Y20735D02*
X10302Y20879D01*
X10230Y20735D02*
X10230Y21038D01*
X10345Y21038D01*
X10374Y21024D01*
X10389Y21009D01*
X10403Y20980D01*
X10403Y20937D01*
X10389Y20908D01*
X10374Y20894D01*
X10345Y20879D01*
X10230Y20879D01*
X10677Y21038D02*
X10533Y21038D01*
X10519Y20894D01*
X10533Y20908D01*
X10562Y20923D01*
X10634Y20923D01*
X10663Y20908D01*
X10677Y20894D01*
X10692Y20865D01*
X10692Y20793D01*
X10677Y20764D01*
X10663Y20750D01*
X10634Y20735D01*
X10562Y20735D01*
X10533Y20750D01*
X10519Y20764D01*
X10865Y20908D02*
X10836Y20923D01*
X10822Y20937D01*
X10807Y20966D01*
X10807Y20980D01*
X10822Y21009D01*
X10836Y21024D01*
X10865Y21038D01*
X10923Y21038D01*
X10952Y21024D01*
X10966Y21009D01*
X10980Y20980D01*
X10980Y20966D01*
X10966Y20937D01*
X10952Y20923D01*
X10923Y20908D01*
X10865Y20908D01*
X10836Y20894D01*
X10822Y20879D01*
X10807Y20851D01*
X10807Y20793D01*
X10822Y20764D01*
X10836Y20750D01*
X10865Y20735D01*
X10923Y20735D01*
X10952Y20750D01*
X10966Y20764D01*
X10980Y20793D01*
X10980Y20851D01*
X10966Y20879D01*
X10952Y20894D01*
X10923Y20908D01*
X3738Y14877D02*
X3637Y15021D01*
X3564Y14877D02*
X3564Y15180D01*
X3680Y15180D01*
X3709Y15166D01*
X3723Y15151D01*
X3738Y15122D01*
X3738Y15079D01*
X3723Y15050D01*
X3709Y15036D01*
X3680Y15021D01*
X3564Y15021D01*
X3998Y15079D02*
X3998Y14877D01*
X3925Y15194D02*
X3853Y14978D01*
X4041Y14978D01*
X4127Y15180D02*
X4315Y15180D01*
X4214Y15064D01*
X4257Y15064D01*
X4286Y15050D01*
X4301Y15036D01*
X4315Y15007D01*
X4315Y14935D01*
X4301Y14906D01*
X4286Y14891D01*
X4257Y14877D01*
X4171Y14877D01*
X4142Y14891D01*
X4127Y14906D01*
X2545Y16101D02*
X2444Y16246D01*
X2372Y16101D02*
X2372Y16404D01*
X2487Y16404D01*
X2516Y16390D01*
X2530Y16375D01*
X2545Y16347D01*
X2545Y16303D01*
X2530Y16274D01*
X2516Y16260D01*
X2487Y16246D01*
X2372Y16246D01*
X2805Y16303D02*
X2805Y16101D01*
X2732Y16419D02*
X2660Y16202D01*
X2848Y16202D01*
X2949Y16375D02*
X2963Y16390D01*
X2992Y16404D01*
X3064Y16404D01*
X3093Y16390D01*
X3108Y16375D01*
X3122Y16347D01*
X3122Y16318D01*
X3108Y16274D01*
X2935Y16101D01*
X3122Y16101D01*
X14106Y5860D02*
X13962Y5759D01*
X14106Y5687D02*
X13803Y5687D01*
X13803Y5802D01*
X13818Y5831D01*
X13832Y5845D01*
X13861Y5860D01*
X13904Y5860D01*
X13933Y5845D01*
X13948Y5831D01*
X13962Y5802D01*
X13962Y5687D01*
X13803Y6134D02*
X13803Y5990D01*
X13948Y5975D01*
X13933Y5990D01*
X13919Y6019D01*
X13919Y6091D01*
X13933Y6120D01*
X13948Y6134D01*
X13977Y6148D01*
X14049Y6148D01*
X14078Y6134D01*
X14092Y6120D01*
X14106Y6091D01*
X14106Y6019D01*
X14092Y5990D01*
X14078Y5975D01*
X14106Y6437D02*
X14106Y6264D01*
X14106Y6351D02*
X13803Y6351D01*
X13847Y6322D01*
X13875Y6293D01*
X13890Y6264D01*
X14962Y5074D02*
X14861Y5218D01*
X14789Y5074D02*
X14789Y5377D01*
X14904Y5377D01*
X14933Y5362D01*
X14948Y5348D01*
X14962Y5319D01*
X14962Y5276D01*
X14948Y5247D01*
X14933Y5232D01*
X14904Y5218D01*
X14789Y5218D01*
X15236Y5377D02*
X15092Y5377D01*
X15078Y5232D01*
X15092Y5247D01*
X15121Y5261D01*
X15193Y5261D01*
X15222Y5247D01*
X15236Y5232D01*
X15251Y5204D01*
X15251Y5131D01*
X15236Y5103D01*
X15222Y5088D01*
X15193Y5074D01*
X15121Y5074D01*
X15092Y5088D01*
X15078Y5103D01*
X15438Y5377D02*
X15467Y5377D01*
X15496Y5362D01*
X15511Y5348D01*
X15525Y5319D01*
X15540Y5261D01*
X15540Y5189D01*
X15525Y5131D01*
X15511Y5103D01*
X15496Y5088D01*
X15467Y5074D01*
X15438Y5074D01*
X15410Y5088D01*
X15395Y5103D01*
X15381Y5131D01*
X15366Y5189D01*
X15366Y5261D01*
X15381Y5319D01*
X15395Y5348D01*
X15410Y5362D01*
X15438Y5377D01*
X15478Y6715D02*
X15377Y6860D01*
X15305Y6715D02*
X15305Y7019D01*
X15420Y7019D01*
X15449Y7004D01*
X15463Y6990D01*
X15478Y6961D01*
X15478Y6917D01*
X15463Y6889D01*
X15449Y6874D01*
X15420Y6860D01*
X15305Y6860D01*
X15738Y6917D02*
X15738Y6715D01*
X15666Y7033D02*
X15593Y6816D01*
X15781Y6816D01*
X15911Y6715D02*
X15969Y6715D01*
X15998Y6730D01*
X16012Y6744D01*
X16041Y6788D01*
X16055Y6845D01*
X16055Y6961D01*
X16041Y6990D01*
X16026Y7004D01*
X15998Y7019D01*
X15940Y7019D01*
X15911Y7004D01*
X15896Y6990D01*
X15882Y6961D01*
X15882Y6889D01*
X15896Y6860D01*
X15911Y6845D01*
X15940Y6831D01*
X15998Y6831D01*
X16026Y6845D01*
X16041Y6860D01*
X16055Y6889D01*
X9134Y20446D02*
X8990Y20345D01*
X9134Y20273D02*
X8831Y20273D01*
X8831Y20389D01*
X8845Y20417D01*
X8860Y20432D01*
X8889Y20446D01*
X8932Y20446D01*
X8961Y20432D01*
X8975Y20417D01*
X8990Y20389D01*
X8990Y20273D01*
X8831Y20547D02*
X8831Y20735D01*
X8946Y20634D01*
X8946Y20677D01*
X8961Y20706D01*
X8975Y20721D01*
X9004Y20735D01*
X9076Y20735D01*
X9105Y20721D01*
X9120Y20706D01*
X9134Y20677D01*
X9134Y20591D01*
X9120Y20562D01*
X9105Y20547D01*
X9134Y21024D02*
X9134Y20851D01*
X9134Y20937D02*
X8831Y20937D01*
X8874Y20908D01*
X8903Y20879D01*
X8917Y20851D01*
X16099Y4248D02*
X15954Y4147D01*
X16099Y4075D02*
X15795Y4075D01*
X15795Y4190D01*
X15810Y4219D01*
X15824Y4234D01*
X15853Y4248D01*
X15896Y4248D01*
X15925Y4234D01*
X15940Y4219D01*
X15954Y4190D01*
X15954Y4075D01*
X15795Y4349D02*
X15795Y4537D01*
X15911Y4436D01*
X15911Y4479D01*
X15925Y4508D01*
X15940Y4522D01*
X15969Y4537D01*
X16041Y4537D01*
X16070Y4522D01*
X16084Y4508D01*
X16099Y4479D01*
X16099Y4393D01*
X16084Y4364D01*
X16070Y4349D01*
X3851Y19293D02*
X3706Y19192D01*
X3851Y19120D02*
X3547Y19120D01*
X3547Y19235D01*
X3562Y19264D01*
X3576Y19278D01*
X3605Y19293D01*
X3648Y19293D01*
X3677Y19278D01*
X3692Y19264D01*
X3706Y19235D01*
X3706Y19120D01*
X3648Y19553D02*
X3851Y19553D01*
X3533Y19480D02*
X3750Y19408D01*
X3750Y19596D01*
X3851Y19870D02*
X3851Y19697D01*
X3851Y19784D02*
X3547Y19784D01*
X3591Y19755D01*
X3620Y19726D01*
X3634Y19697D01*
X3206Y20495D02*
X3105Y20639D01*
X3033Y20495D02*
X3033Y20798D01*
X3148Y20798D01*
X3177Y20784D01*
X3192Y20769D01*
X3206Y20740D01*
X3206Y20697D01*
X3192Y20668D01*
X3177Y20654D01*
X3148Y20639D01*
X3033Y20639D01*
X3466Y20697D02*
X3466Y20495D01*
X3394Y20812D02*
X3322Y20596D01*
X3509Y20596D01*
X3683Y20798D02*
X3711Y20798D01*
X3740Y20784D01*
X3755Y20769D01*
X3769Y20740D01*
X3784Y20683D01*
X3784Y20610D01*
X3769Y20553D01*
X3755Y20524D01*
X3740Y20509D01*
X3711Y20495D01*
X3683Y20495D01*
X3654Y20509D01*
X3639Y20524D01*
X3625Y20553D01*
X3610Y20610D01*
X3610Y20683D01*
X3625Y20740D01*
X3639Y20769D01*
X3654Y20784D01*
X3683Y20798D01*
X14773Y7251D02*
X14672Y7395D01*
X14600Y7251D02*
X14600Y7554D01*
X14715Y7554D01*
X14744Y7540D01*
X14759Y7525D01*
X14773Y7496D01*
X14773Y7453D01*
X14759Y7424D01*
X14744Y7410D01*
X14715Y7395D01*
X14600Y7395D01*
X15033Y7453D02*
X15033Y7251D01*
X14961Y7568D02*
X14889Y7352D01*
X15076Y7352D01*
X15322Y7554D02*
X15264Y7554D01*
X15235Y7540D01*
X15221Y7525D01*
X15192Y7482D01*
X15177Y7424D01*
X15177Y7309D01*
X15192Y7280D01*
X15206Y7265D01*
X15235Y7251D01*
X15293Y7251D01*
X15322Y7265D01*
X15336Y7280D01*
X15351Y7309D01*
X15351Y7381D01*
X15336Y7410D01*
X15322Y7424D01*
X15293Y7438D01*
X15235Y7438D01*
X15206Y7424D01*
X15192Y7410D01*
X15177Y7381D01*
X3832Y9070D02*
X3731Y9214D01*
X3659Y9070D02*
X3659Y9373D01*
X3774Y9373D01*
X3803Y9358D01*
X3818Y9344D01*
X3832Y9315D01*
X3832Y9272D01*
X3818Y9243D01*
X3803Y9229D01*
X3774Y9214D01*
X3659Y9214D01*
X4121Y9070D02*
X3948Y9070D01*
X4034Y9070D02*
X4034Y9373D01*
X4005Y9330D01*
X3977Y9301D01*
X3948Y9286D01*
X4265Y9070D02*
X4323Y9070D01*
X4352Y9084D01*
X4366Y9099D01*
X4395Y9142D01*
X4410Y9200D01*
X4410Y9315D01*
X4395Y9344D01*
X4381Y9358D01*
X4352Y9373D01*
X4294Y9373D01*
X4265Y9358D01*
X4251Y9344D01*
X4236Y9315D01*
X4236Y9243D01*
X4251Y9214D01*
X4265Y9200D01*
X4294Y9185D01*
X4352Y9185D01*
X4381Y9200D01*
X4395Y9214D01*
X4410Y9243D01*
X3852Y7491D02*
X3751Y7635D01*
X3679Y7491D02*
X3679Y7794D01*
X3794Y7794D01*
X3823Y7780D01*
X3837Y7765D01*
X3852Y7736D01*
X3852Y7693D01*
X3837Y7664D01*
X3823Y7650D01*
X3794Y7635D01*
X3679Y7635D01*
X3967Y7765D02*
X3982Y7780D01*
X4011Y7794D01*
X4083Y7794D01*
X4112Y7780D01*
X4126Y7765D01*
X4141Y7736D01*
X4141Y7708D01*
X4126Y7664D01*
X3953Y7491D01*
X4141Y7491D01*
X4285Y7491D02*
X4343Y7491D01*
X4372Y7505D01*
X4386Y7520D01*
X4415Y7563D01*
X4429Y7621D01*
X4429Y7736D01*
X4415Y7765D01*
X4400Y7780D01*
X4372Y7794D01*
X4314Y7794D01*
X4285Y7780D01*
X4270Y7765D01*
X4256Y7736D01*
X4256Y7664D01*
X4270Y7635D01*
X4285Y7621D01*
X4314Y7606D01*
X4372Y7606D01*
X4400Y7621D01*
X4415Y7635D01*
X4429Y7664D01*
X3588Y8436D02*
X3487Y8580D01*
X3415Y8436D02*
X3415Y8739D01*
X3530Y8739D01*
X3559Y8725D01*
X3574Y8710D01*
X3588Y8681D01*
X3588Y8638D01*
X3574Y8609D01*
X3559Y8595D01*
X3530Y8580D01*
X3415Y8580D01*
X3704Y8710D02*
X3718Y8725D01*
X3747Y8739D01*
X3819Y8739D01*
X3848Y8725D01*
X3862Y8710D01*
X3877Y8681D01*
X3877Y8652D01*
X3862Y8609D01*
X3689Y8436D01*
X3877Y8436D01*
X4064Y8739D02*
X4093Y8739D01*
X4122Y8725D01*
X4137Y8710D01*
X4151Y8681D01*
X4166Y8624D01*
X4166Y8551D01*
X4151Y8494D01*
X4137Y8465D01*
X4122Y8450D01*
X4093Y8436D01*
X4064Y8436D01*
X4036Y8450D01*
X4021Y8465D01*
X4007Y8494D01*
X3992Y8551D01*
X3992Y8624D01*
X4007Y8681D01*
X4021Y8710D01*
X4036Y8725D01*
X4064Y8739D01*
X3461Y10415D02*
X3316Y10314D01*
X3461Y10242D02*
X3158Y10242D01*
X3158Y10357D01*
X3172Y10386D01*
X3187Y10400D01*
X3215Y10415D01*
X3259Y10415D01*
X3288Y10400D01*
X3302Y10386D01*
X3316Y10357D01*
X3316Y10242D01*
X3158Y10516D02*
X3158Y10704D01*
X3273Y10603D01*
X3273Y10646D01*
X3288Y10675D01*
X3302Y10689D01*
X3331Y10704D01*
X3403Y10704D01*
X3432Y10689D01*
X3446Y10675D01*
X3461Y10646D01*
X3461Y10559D01*
X3446Y10530D01*
X3432Y10516D01*
X3158Y10891D02*
X3158Y10920D01*
X3172Y10949D01*
X3187Y10963D01*
X3215Y10978D01*
X3273Y10992D01*
X3345Y10992D01*
X3403Y10978D01*
X3432Y10963D01*
X3446Y10949D01*
X3461Y10920D01*
X3461Y10891D01*
X3446Y10862D01*
X3432Y10848D01*
X3403Y10833D01*
X3345Y10819D01*
X3273Y10819D01*
X3215Y10833D01*
X3187Y10848D01*
X3172Y10862D01*
X3158Y10891D01*
X2087Y6508D02*
X1942Y6407D01*
X2087Y6335D02*
X1784Y6335D01*
X1784Y6450D01*
X1798Y6479D01*
X1812Y6494D01*
X1841Y6508D01*
X1885Y6508D01*
X1914Y6494D01*
X1928Y6479D01*
X1942Y6450D01*
X1942Y6335D01*
X1812Y6624D02*
X1798Y6638D01*
X1784Y6667D01*
X1784Y6739D01*
X1798Y6768D01*
X1812Y6782D01*
X1841Y6797D01*
X1870Y6797D01*
X1914Y6782D01*
X2087Y6609D01*
X2087Y6797D01*
X3047Y5921D02*
X2903Y5820D01*
X3047Y5748D02*
X2744Y5748D01*
X2744Y5864D01*
X2759Y5893D01*
X2773Y5907D01*
X2802Y5921D01*
X2845Y5921D01*
X2874Y5907D01*
X2889Y5893D01*
X2903Y5864D01*
X2903Y5748D01*
X3047Y6210D02*
X3047Y6037D01*
X3047Y6124D02*
X2744Y6124D01*
X2788Y6095D01*
X2816Y6066D01*
X2831Y6037D01*
X13323Y11395D02*
X13179Y11294D01*
X13323Y11222D02*
X13020Y11222D01*
X13020Y11337D01*
X13034Y11366D01*
X13049Y11381D01*
X13078Y11395D01*
X13121Y11395D01*
X13150Y11381D01*
X13164Y11366D01*
X13179Y11337D01*
X13179Y11222D01*
X13323Y11684D02*
X13323Y11511D01*
X13323Y11597D02*
X13020Y11597D01*
X13063Y11568D01*
X13092Y11540D01*
X13106Y11511D01*
X13020Y11958D02*
X13020Y11814D01*
X13164Y11799D01*
X13150Y11814D01*
X13135Y11843D01*
X13135Y11915D01*
X13150Y11944D01*
X13164Y11958D01*
X13193Y11973D01*
X13265Y11973D01*
X13294Y11958D01*
X13309Y11944D01*
X13323Y11915D01*
X13323Y11843D01*
X13309Y11814D01*
X13294Y11799D01*
X14005Y12550D02*
X13904Y12694D01*
X13832Y12550D02*
X13832Y12853D01*
X13948Y12853D01*
X13977Y12839D01*
X13991Y12824D01*
X14005Y12795D01*
X14005Y12752D01*
X13991Y12723D01*
X13977Y12709D01*
X13948Y12694D01*
X13832Y12694D01*
X14294Y12550D02*
X14121Y12550D01*
X14208Y12550D02*
X14208Y12853D01*
X14179Y12810D01*
X14150Y12781D01*
X14121Y12767D01*
X14554Y12853D02*
X14496Y12853D01*
X14467Y12839D01*
X14453Y12824D01*
X14424Y12781D01*
X14410Y12723D01*
X14410Y12608D01*
X14424Y12579D01*
X14438Y12564D01*
X14467Y12550D01*
X14525Y12550D01*
X14554Y12564D01*
X14568Y12579D01*
X14583Y12608D01*
X14583Y12680D01*
X14568Y12709D01*
X14554Y12723D01*
X14525Y12738D01*
X14467Y12738D01*
X14438Y12723D01*
X14424Y12709D01*
X14410Y12680D01*
X1878Y16013D02*
X1575Y16013D01*
X1575Y16129D01*
X1589Y16158D01*
X1604Y16172D01*
X1633Y16187D01*
X1676Y16187D01*
X1705Y16172D01*
X1719Y16158D01*
X1734Y16129D01*
X1734Y16013D01*
X1878Y16475D02*
X1878Y16302D01*
X1878Y16389D02*
X1575Y16389D01*
X1618Y16360D01*
X1647Y16331D01*
X1662Y16302D01*
X1878Y16764D02*
X1878Y16591D01*
X1878Y16677D02*
X1575Y16677D01*
X1618Y16648D01*
X1647Y16620D01*
X1662Y16591D01*
X1862Y17563D02*
X1559Y17563D01*
X1559Y17679D01*
X1574Y17708D01*
X1588Y17722D01*
X1617Y17736D01*
X1660Y17736D01*
X1689Y17722D01*
X1704Y17708D01*
X1718Y17679D01*
X1718Y17563D01*
X1559Y17996D02*
X1559Y17938D01*
X1574Y17910D01*
X1588Y17895D01*
X1631Y17866D01*
X1689Y17852D01*
X1805Y17852D01*
X1833Y17866D01*
X1848Y17881D01*
X1862Y17910D01*
X1862Y17967D01*
X1848Y17996D01*
X1833Y18011D01*
X1805Y18025D01*
X1732Y18025D01*
X1704Y18011D01*
X1689Y17996D01*
X1675Y17967D01*
X1675Y17910D01*
X1689Y17881D01*
X1704Y17866D01*
X1732Y17852D01*
X16799Y1702D02*
X16496Y1702D01*
X16496Y1818D01*
X16511Y1847D01*
X16525Y1861D01*
X16554Y1875D01*
X16597Y1875D01*
X16626Y1861D01*
X16641Y1847D01*
X16655Y1818D01*
X16655Y1702D01*
X16799Y2164D02*
X16799Y1991D01*
X16799Y2078D02*
X16496Y2078D01*
X16540Y2049D01*
X16568Y2020D01*
X16583Y1991D01*
X16496Y2265D02*
X16496Y2453D01*
X16612Y2352D01*
X16612Y2395D01*
X16626Y2424D01*
X16641Y2438D01*
X16669Y2453D01*
X16742Y2453D01*
X16770Y2438D01*
X16785Y2424D01*
X16799Y2395D01*
X16799Y2309D01*
X16785Y2280D01*
X16770Y2265D01*
X16831Y14886D02*
X16528Y14886D01*
X16528Y15001D01*
X16542Y15030D01*
X16557Y15045D01*
X16585Y15059D01*
X16629Y15059D01*
X16658Y15045D01*
X16672Y15030D01*
X16687Y15001D01*
X16687Y14886D01*
X16831Y15204D02*
X16831Y15261D01*
X16816Y15290D01*
X16802Y15305D01*
X16759Y15333D01*
X16701Y15348D01*
X16585Y15348D01*
X16557Y15333D01*
X16542Y15319D01*
X16528Y15290D01*
X16528Y15232D01*
X16542Y15204D01*
X16557Y15189D01*
X16585Y15175D01*
X16658Y15175D01*
X16687Y15189D01*
X16701Y15204D01*
X16715Y15232D01*
X16715Y15290D01*
X16701Y15319D01*
X16687Y15333D01*
X16658Y15348D01*
X15945Y22294D02*
X15945Y22597D01*
X16061Y22597D01*
X16089Y22583D01*
X16104Y22568D01*
X16118Y22540D01*
X16118Y22496D01*
X16104Y22467D01*
X16089Y22453D01*
X16061Y22438D01*
X15945Y22438D01*
X16234Y22568D02*
X16248Y22583D01*
X16277Y22597D01*
X16349Y22597D01*
X16378Y22583D01*
X16393Y22568D01*
X16407Y22540D01*
X16407Y22511D01*
X16393Y22467D01*
X16219Y22294D01*
X16407Y22294D01*
X1673Y9622D02*
X1370Y9622D01*
X1370Y9738D01*
X1385Y9767D01*
X1399Y9781D01*
X1428Y9795D01*
X1471Y9795D01*
X1500Y9781D01*
X1515Y9767D01*
X1529Y9738D01*
X1529Y9622D01*
X1370Y10070D02*
X1370Y9925D01*
X1515Y9911D01*
X1500Y9925D01*
X1486Y9954D01*
X1486Y10026D01*
X1500Y10055D01*
X1515Y10070D01*
X1543Y10084D01*
X1616Y10084D01*
X1645Y10070D01*
X1659Y10055D01*
X1673Y10026D01*
X1673Y9954D01*
X1659Y9925D01*
X1645Y9911D01*
X1634Y1941D02*
X1331Y1941D01*
X1331Y2057D01*
X1345Y2085D01*
X1360Y2100D01*
X1389Y2114D01*
X1432Y2114D01*
X1461Y2100D01*
X1475Y2085D01*
X1490Y2057D01*
X1490Y1941D01*
X1331Y2215D02*
X1331Y2403D01*
X1446Y2302D01*
X1446Y2345D01*
X1461Y2374D01*
X1475Y2389D01*
X1504Y2403D01*
X1576Y2403D01*
X1605Y2389D01*
X1620Y2374D01*
X1634Y2345D01*
X1634Y2259D01*
X1620Y2230D01*
X1605Y2215D01*
X8614Y22133D02*
X8614Y22436D01*
X8730Y22436D01*
X8759Y22421D01*
X8773Y22407D01*
X8788Y22378D01*
X8788Y22335D01*
X8773Y22306D01*
X8759Y22291D01*
X8730Y22277D01*
X8614Y22277D01*
X8889Y22436D02*
X9091Y22436D01*
X8961Y22133D01*
X7343Y22345D02*
X7343Y22648D01*
X7458Y22648D01*
X7487Y22634D01*
X7501Y22620D01*
X7516Y22591D01*
X7516Y22547D01*
X7501Y22519D01*
X7487Y22504D01*
X7458Y22490D01*
X7343Y22490D01*
X7689Y22519D02*
X7660Y22533D01*
X7646Y22547D01*
X7631Y22576D01*
X7631Y22591D01*
X7646Y22620D01*
X7660Y22634D01*
X7689Y22648D01*
X7747Y22648D01*
X7776Y22634D01*
X7790Y22620D01*
X7805Y22591D01*
X7805Y22576D01*
X7790Y22547D01*
X7776Y22533D01*
X7747Y22519D01*
X7689Y22519D01*
X7660Y22504D01*
X7646Y22490D01*
X7631Y22461D01*
X7631Y22403D01*
X7646Y22374D01*
X7660Y22360D01*
X7689Y22345D01*
X7747Y22345D01*
X7776Y22360D01*
X7790Y22374D01*
X7805Y22403D01*
X7805Y22461D01*
X7790Y22490D01*
X7776Y22504D01*
X7747Y22519D01*
X16736Y9281D02*
X16433Y9281D01*
X16433Y9396D01*
X16448Y9425D01*
X16462Y9440D01*
X16491Y9454D01*
X16534Y9454D01*
X16563Y9440D01*
X16578Y9425D01*
X16592Y9396D01*
X16592Y9281D01*
X16736Y9743D02*
X16736Y9570D01*
X16736Y9656D02*
X16433Y9656D01*
X16477Y9627D01*
X16505Y9599D01*
X16520Y9570D01*
X16462Y9858D02*
X16448Y9873D01*
X16433Y9902D01*
X16433Y9974D01*
X16448Y10003D01*
X16462Y10017D01*
X16491Y10032D01*
X16520Y10032D01*
X16563Y10017D01*
X16736Y9844D01*
X16736Y10032D01*
X14115Y18487D02*
X14115Y18242D01*
X14129Y18213D01*
X14144Y18198D01*
X14173Y18184D01*
X14230Y18184D01*
X14259Y18198D01*
X14274Y18213D01*
X14288Y18242D01*
X14288Y18487D01*
X14447Y18184D02*
X14505Y18184D01*
X14534Y18198D01*
X14548Y18213D01*
X14577Y18256D01*
X14591Y18314D01*
X14591Y18429D01*
X14577Y18458D01*
X14562Y18473D01*
X14534Y18487D01*
X14476Y18487D01*
X14447Y18473D01*
X14433Y18458D01*
X14418Y18429D01*
X14418Y18357D01*
X14433Y18328D01*
X14447Y18314D01*
X14476Y18299D01*
X14534Y18299D01*
X14562Y18314D01*
X14577Y18328D01*
X14591Y18357D01*
X16921Y10402D02*
X16618Y10402D01*
X16618Y10517D01*
X16633Y10546D01*
X16647Y10561D01*
X16676Y10575D01*
X16719Y10575D01*
X16748Y10561D01*
X16763Y10546D01*
X16777Y10517D01*
X16777Y10402D01*
X16719Y10835D02*
X16921Y10835D01*
X16604Y10763D02*
X16820Y10690D01*
X16820Y10878D01*
X2389Y803D02*
X2403Y789D01*
X2417Y746D01*
X2417Y717D01*
X2403Y673D01*
X2374Y645D01*
X2345Y630D01*
X2288Y616D01*
X2244Y616D01*
X2187Y630D01*
X2158Y645D01*
X2129Y673D01*
X2114Y717D01*
X2114Y746D01*
X2129Y789D01*
X2143Y803D01*
X2143Y919D02*
X2129Y933D01*
X2114Y962D01*
X2114Y1034D01*
X2129Y1063D01*
X2143Y1078D01*
X2172Y1092D01*
X2201Y1092D01*
X2244Y1078D01*
X2417Y904D01*
X2417Y1092D01*
X16267Y10411D02*
X16281Y10396D01*
X16295Y10353D01*
X16295Y10324D01*
X16281Y10281D01*
X16252Y10252D01*
X16223Y10238D01*
X16166Y10223D01*
X16122Y10223D01*
X16064Y10238D01*
X16036Y10252D01*
X16007Y10281D01*
X15992Y10324D01*
X15992Y10353D01*
X16007Y10396D01*
X16021Y10411D01*
X16295Y10700D02*
X16295Y10526D01*
X16295Y10613D02*
X15992Y10613D01*
X16036Y10584D01*
X16064Y10555D01*
X16079Y10526D01*
X15992Y10959D02*
X15992Y10902D01*
X16007Y10873D01*
X16021Y10858D01*
X16064Y10830D01*
X16122Y10815D01*
X16238Y10815D01*
X16267Y10830D01*
X16281Y10844D01*
X16295Y10873D01*
X16295Y10931D01*
X16281Y10959D01*
X16267Y10974D01*
X16238Y10988D01*
X16166Y10988D01*
X16137Y10974D01*
X16122Y10959D01*
X16108Y10931D01*
X16108Y10873D01*
X16122Y10844D01*
X16137Y10830D01*
X16166Y10815D01*
X11273Y16622D02*
X11259Y16608D01*
X11215Y16593D01*
X11187Y16593D01*
X11143Y16608D01*
X11114Y16637D01*
X11100Y16666D01*
X11085Y16723D01*
X11085Y16767D01*
X11100Y16824D01*
X11114Y16853D01*
X11143Y16882D01*
X11187Y16896D01*
X11215Y16896D01*
X11259Y16882D01*
X11273Y16868D01*
X11533Y16795D02*
X11533Y16593D01*
X11461Y16911D02*
X11389Y16694D01*
X11576Y16694D01*
X11677Y16868D02*
X11692Y16882D01*
X11721Y16896D01*
X11793Y16896D01*
X11822Y16882D01*
X11836Y16868D01*
X11851Y16839D01*
X11851Y16810D01*
X11836Y16767D01*
X11663Y16593D01*
X11851Y16593D01*
X16385Y19029D02*
X16399Y19015D01*
X16414Y18971D01*
X16414Y18942D01*
X16399Y18899D01*
X16370Y18870D01*
X16341Y18856D01*
X16284Y18841D01*
X16240Y18841D01*
X16183Y18856D01*
X16154Y18870D01*
X16125Y18899D01*
X16110Y18942D01*
X16110Y18971D01*
X16125Y19015D01*
X16139Y19029D01*
X16211Y19289D02*
X16414Y19289D01*
X16096Y19217D02*
X16312Y19145D01*
X16312Y19332D01*
X16110Y19505D02*
X16110Y19534D01*
X16125Y19563D01*
X16139Y19578D01*
X16168Y19592D01*
X16226Y19606D01*
X16298Y19606D01*
X16356Y19592D01*
X16385Y19578D01*
X16399Y19563D01*
X16414Y19534D01*
X16414Y19505D01*
X16399Y19477D01*
X16385Y19462D01*
X16356Y19448D01*
X16298Y19433D01*
X16226Y19433D01*
X16168Y19448D01*
X16139Y19462D01*
X16125Y19477D01*
X16110Y19505D01*
X2387Y10370D02*
X2373Y10356D01*
X2330Y10341D01*
X2301Y10341D01*
X2257Y10356D01*
X2229Y10385D01*
X2214Y10414D01*
X2200Y10471D01*
X2200Y10515D01*
X2214Y10572D01*
X2229Y10601D01*
X2257Y10630D01*
X2301Y10645D01*
X2330Y10645D01*
X2373Y10630D01*
X2387Y10616D01*
X2676Y10341D02*
X2503Y10341D01*
X2589Y10341D02*
X2589Y10645D01*
X2561Y10601D01*
X2532Y10572D01*
X2503Y10558D01*
X2864Y10645D02*
X2893Y10645D01*
X2921Y10630D01*
X2936Y10616D01*
X2950Y10587D01*
X2965Y10529D01*
X2965Y10457D01*
X2950Y10399D01*
X2936Y10370D01*
X2921Y10356D01*
X2893Y10341D01*
X2864Y10341D01*
X2835Y10356D01*
X2820Y10370D01*
X2806Y10399D01*
X2791Y10457D01*
X2791Y10529D01*
X2806Y10587D01*
X2820Y10616D01*
X2835Y10630D01*
X2864Y10645D01*
X10312Y18130D02*
X10298Y18116D01*
X10255Y18101D01*
X10226Y18101D01*
X10183Y18116D01*
X10154Y18145D01*
X10139Y18173D01*
X10125Y18231D01*
X10125Y18274D01*
X10139Y18332D01*
X10154Y18361D01*
X10183Y18390D01*
X10226Y18404D01*
X10255Y18404D01*
X10298Y18390D01*
X10312Y18375D01*
X10572Y18303D02*
X10572Y18101D01*
X10500Y18419D02*
X10428Y18202D01*
X10616Y18202D01*
X10861Y18404D02*
X10803Y18404D01*
X10774Y18390D01*
X10760Y18375D01*
X10731Y18332D01*
X10717Y18274D01*
X10717Y18159D01*
X10731Y18130D01*
X10746Y18116D01*
X10774Y18101D01*
X10832Y18101D01*
X10861Y18116D01*
X10875Y18130D01*
X10890Y18159D01*
X10890Y18231D01*
X10875Y18260D01*
X10861Y18274D01*
X10832Y18289D01*
X10774Y18289D01*
X10746Y18274D01*
X10731Y18260D01*
X10717Y18231D01*
X11277Y6142D02*
X11263Y6127D01*
X11219Y6113D01*
X11190Y6113D01*
X11147Y6127D01*
X11118Y6156D01*
X11104Y6185D01*
X11089Y6243D01*
X11089Y6286D01*
X11104Y6344D01*
X11118Y6373D01*
X11147Y6402D01*
X11190Y6416D01*
X11219Y6416D01*
X11263Y6402D01*
X11277Y6387D01*
X11378Y6416D02*
X11566Y6416D01*
X11465Y6301D01*
X11508Y6301D01*
X11537Y6286D01*
X11551Y6272D01*
X11566Y6243D01*
X11566Y6171D01*
X11551Y6142D01*
X11537Y6127D01*
X11508Y6113D01*
X11421Y6113D01*
X11393Y6127D01*
X11378Y6142D01*
X11753Y6416D02*
X11782Y6416D01*
X11811Y6402D01*
X11826Y6387D01*
X11840Y6358D01*
X11854Y6301D01*
X11854Y6229D01*
X11840Y6171D01*
X11826Y6142D01*
X11811Y6127D01*
X11782Y6113D01*
X11753Y6113D01*
X11725Y6127D01*
X11710Y6142D01*
X11696Y6171D01*
X11681Y6229D01*
X11681Y6301D01*
X11696Y6358D01*
X11710Y6387D01*
X11725Y6402D01*
X11753Y6416D01*
X1959Y23438D02*
X1974Y23424D01*
X1988Y23381D01*
X1988Y23352D01*
X1974Y23309D01*
X1945Y23280D01*
X1916Y23265D01*
X1858Y23251D01*
X1815Y23251D01*
X1757Y23265D01*
X1729Y23280D01*
X1700Y23309D01*
X1685Y23352D01*
X1685Y23381D01*
X1700Y23424D01*
X1714Y23438D01*
X1988Y23727D02*
X1988Y23554D01*
X1988Y23641D02*
X1685Y23641D01*
X1729Y23612D01*
X1757Y23583D01*
X1772Y23554D01*
X1786Y23987D02*
X1988Y23987D01*
X1671Y23915D02*
X1887Y23843D01*
X1887Y24030D01*
X4887Y9130D02*
X4873Y9116D01*
X4830Y9101D01*
X4801Y9101D01*
X4757Y9116D01*
X4729Y9145D01*
X4714Y9173D01*
X4700Y9231D01*
X4700Y9274D01*
X4714Y9332D01*
X4729Y9361D01*
X4757Y9390D01*
X4801Y9404D01*
X4830Y9404D01*
X4873Y9390D01*
X4887Y9375D01*
X5176Y9101D02*
X5003Y9101D01*
X5089Y9101D02*
X5089Y9404D01*
X5061Y9361D01*
X5032Y9332D01*
X5003Y9318D01*
X5291Y9375D02*
X5306Y9390D01*
X5335Y9404D01*
X5407Y9404D01*
X5436Y9390D01*
X5450Y9375D01*
X5465Y9347D01*
X5465Y9318D01*
X5450Y9274D01*
X5277Y9101D01*
X5465Y9101D01*
X5923Y13492D02*
X5908Y13478D01*
X5865Y13463D01*
X5836Y13463D01*
X5793Y13478D01*
X5764Y13507D01*
X5750Y13536D01*
X5735Y13593D01*
X5735Y13637D01*
X5750Y13694D01*
X5764Y13723D01*
X5793Y13752D01*
X5836Y13767D01*
X5865Y13767D01*
X5908Y13752D01*
X5923Y13738D01*
X6038Y13738D02*
X6053Y13752D01*
X6082Y13767D01*
X6154Y13767D01*
X6183Y13752D01*
X6197Y13738D01*
X6211Y13709D01*
X6211Y13680D01*
X6197Y13637D01*
X6024Y13463D01*
X6211Y13463D01*
X6385Y13637D02*
X6356Y13651D01*
X6341Y13666D01*
X6327Y13694D01*
X6327Y13709D01*
X6341Y13738D01*
X6356Y13752D01*
X6385Y13767D01*
X6442Y13767D01*
X6471Y13752D01*
X6486Y13738D01*
X6500Y13709D01*
X6500Y13694D01*
X6486Y13666D01*
X6471Y13651D01*
X6442Y13637D01*
X6385Y13637D01*
X6356Y13622D01*
X6341Y13608D01*
X6327Y13579D01*
X6327Y13521D01*
X6341Y13492D01*
X6356Y13478D01*
X6385Y13463D01*
X6442Y13463D01*
X6471Y13478D01*
X6486Y13492D01*
X6500Y13521D01*
X6500Y13579D01*
X6486Y13608D01*
X6471Y13622D01*
X6442Y13637D01*
X12714Y13268D02*
X12700Y13253D01*
X12656Y13239D01*
X12627Y13239D01*
X12584Y13253D01*
X12555Y13282D01*
X12541Y13311D01*
X12526Y13369D01*
X12526Y13412D01*
X12541Y13470D01*
X12555Y13499D01*
X12584Y13528D01*
X12627Y13542D01*
X12656Y13542D01*
X12700Y13528D01*
X12714Y13513D01*
X12830Y13513D02*
X12844Y13528D01*
X12873Y13542D01*
X12945Y13542D01*
X12974Y13528D01*
X12988Y13513D01*
X13003Y13484D01*
X13003Y13456D01*
X12988Y13412D01*
X12815Y13239D01*
X13003Y13239D01*
X13147Y13239D02*
X13205Y13239D01*
X13234Y13253D01*
X13248Y13268D01*
X13277Y13311D01*
X13291Y13369D01*
X13291Y13484D01*
X13277Y13513D01*
X13263Y13528D01*
X13234Y13542D01*
X13176Y13542D01*
X13147Y13528D01*
X13133Y13513D01*
X13118Y13484D01*
X13118Y13412D01*
X13133Y13383D01*
X13147Y13369D01*
X13176Y13354D01*
X13234Y13354D01*
X13263Y13369D01*
X13277Y13383D01*
X13291Y13412D01*
X2886Y6599D02*
X2872Y6584D01*
X2828Y6570D01*
X2799Y6570D01*
X2756Y6584D01*
X2727Y6613D01*
X2713Y6642D01*
X2698Y6700D01*
X2698Y6743D01*
X2713Y6801D01*
X2727Y6830D01*
X2756Y6858D01*
X2799Y6873D01*
X2828Y6873D01*
X2872Y6858D01*
X2886Y6844D01*
X3059Y6743D02*
X3030Y6757D01*
X3016Y6772D01*
X3001Y6801D01*
X3001Y6815D01*
X3016Y6844D01*
X3030Y6858D01*
X3059Y6873D01*
X3117Y6873D01*
X3146Y6858D01*
X3160Y6844D01*
X3175Y6815D01*
X3175Y6801D01*
X3160Y6772D01*
X3146Y6757D01*
X3117Y6743D01*
X3059Y6743D01*
X3030Y6729D01*
X3016Y6714D01*
X3001Y6685D01*
X3001Y6627D01*
X3016Y6599D01*
X3030Y6584D01*
X3059Y6570D01*
X3117Y6570D01*
X3146Y6584D01*
X3160Y6599D01*
X3175Y6627D01*
X3175Y6685D01*
X3160Y6714D01*
X3146Y6729D01*
X3117Y6743D01*
X12620Y21900D02*
X12519Y22045D01*
X12446Y21900D02*
X12446Y22204D01*
X12562Y22204D01*
X12591Y22189D01*
X12605Y22175D01*
X12620Y22146D01*
X12620Y22103D01*
X12605Y22074D01*
X12591Y22059D01*
X12562Y22045D01*
X12446Y22045D01*
X12879Y22204D02*
X12822Y22204D01*
X12793Y22189D01*
X12778Y22175D01*
X12750Y22131D01*
X12735Y22074D01*
X12735Y21958D01*
X12750Y21929D01*
X12764Y21915D01*
X12793Y21900D01*
X12851Y21900D01*
X12879Y21915D01*
X12894Y21929D01*
X12908Y21958D01*
X12908Y22030D01*
X12894Y22059D01*
X12879Y22074D01*
X12851Y22088D01*
X12793Y22088D01*
X12764Y22074D01*
X12750Y22059D01*
X12735Y22030D01*
X13096Y22204D02*
X13125Y22204D01*
X13154Y22189D01*
X13168Y22175D01*
X13183Y22146D01*
X13197Y22088D01*
X13197Y22016D01*
X13183Y21958D01*
X13168Y21929D01*
X13154Y21915D01*
X13125Y21900D01*
X13096Y21900D01*
X13067Y21915D01*
X13053Y21929D01*
X13038Y21958D01*
X13024Y22016D01*
X13024Y22088D01*
X13038Y22146D01*
X13053Y22175D01*
X13067Y22189D01*
X13096Y22204D01*
X15933Y16509D02*
X15789Y16408D01*
X15933Y16336D02*
X15630Y16336D01*
X15630Y16452D01*
X15645Y16480D01*
X15659Y16495D01*
X15688Y16509D01*
X15731Y16509D01*
X15760Y16495D01*
X15774Y16480D01*
X15789Y16452D01*
X15789Y16336D01*
X15630Y16769D02*
X15630Y16711D01*
X15645Y16683D01*
X15659Y16668D01*
X15702Y16639D01*
X15760Y16625D01*
X15875Y16625D01*
X15904Y16639D01*
X15919Y16654D01*
X15933Y16683D01*
X15933Y16740D01*
X15919Y16769D01*
X15904Y16784D01*
X15875Y16798D01*
X15803Y16798D01*
X15774Y16784D01*
X15760Y16769D01*
X15746Y16740D01*
X15746Y16683D01*
X15760Y16654D01*
X15774Y16639D01*
X15803Y16625D01*
X15933Y17087D02*
X15933Y16914D01*
X15933Y17000D02*
X15630Y17000D01*
X15673Y16971D01*
X15702Y16942D01*
X15717Y16914D01*
X5124Y11522D02*
X5022Y11667D01*
X4950Y11522D02*
X4950Y11826D01*
X5066Y11826D01*
X5095Y11811D01*
X5109Y11797D01*
X5124Y11768D01*
X5124Y11725D01*
X5109Y11696D01*
X5095Y11681D01*
X5066Y11667D01*
X4950Y11667D01*
X5383Y11826D02*
X5326Y11826D01*
X5297Y11811D01*
X5282Y11797D01*
X5253Y11753D01*
X5239Y11696D01*
X5239Y11580D01*
X5253Y11551D01*
X5268Y11537D01*
X5297Y11522D01*
X5354Y11522D01*
X5383Y11537D01*
X5398Y11551D01*
X5412Y11580D01*
X5412Y11652D01*
X5398Y11681D01*
X5383Y11696D01*
X5354Y11710D01*
X5297Y11710D01*
X5268Y11696D01*
X5253Y11681D01*
X5239Y11652D01*
X5513Y11826D02*
X5701Y11826D01*
X5600Y11710D01*
X5643Y11710D01*
X5672Y11696D01*
X5687Y11681D01*
X5701Y11652D01*
X5701Y11580D01*
X5687Y11551D01*
X5672Y11537D01*
X5643Y11522D01*
X5557Y11522D01*
X5528Y11537D01*
X5513Y11551D01*
X5124Y10861D02*
X5022Y11005D01*
X4950Y10861D02*
X4950Y11164D01*
X5066Y11164D01*
X5095Y11150D01*
X5109Y11135D01*
X5124Y11106D01*
X5124Y11063D01*
X5109Y11034D01*
X5095Y11020D01*
X5066Y11005D01*
X4950Y11005D01*
X5383Y11164D02*
X5326Y11164D01*
X5297Y11150D01*
X5282Y11135D01*
X5253Y11092D01*
X5239Y11034D01*
X5239Y10919D01*
X5253Y10890D01*
X5268Y10875D01*
X5297Y10861D01*
X5354Y10861D01*
X5383Y10875D01*
X5398Y10890D01*
X5412Y10919D01*
X5412Y10991D01*
X5398Y11020D01*
X5383Y11034D01*
X5354Y11049D01*
X5297Y11049D01*
X5268Y11034D01*
X5253Y11020D01*
X5239Y10991D01*
X5672Y11063D02*
X5672Y10861D01*
X5600Y11179D02*
X5528Y10962D01*
X5715Y10962D01*
X5139Y10412D02*
X5038Y10557D01*
X4966Y10412D02*
X4966Y10715D01*
X5082Y10715D01*
X5110Y10701D01*
X5125Y10687D01*
X5139Y10658D01*
X5139Y10614D01*
X5125Y10585D01*
X5110Y10571D01*
X5082Y10557D01*
X4966Y10557D01*
X5399Y10715D02*
X5341Y10715D01*
X5312Y10701D01*
X5298Y10687D01*
X5269Y10643D01*
X5255Y10585D01*
X5255Y10470D01*
X5269Y10441D01*
X5284Y10427D01*
X5312Y10412D01*
X5370Y10412D01*
X5399Y10427D01*
X5414Y10441D01*
X5428Y10470D01*
X5428Y10542D01*
X5414Y10571D01*
X5399Y10585D01*
X5370Y10600D01*
X5312Y10600D01*
X5284Y10585D01*
X5269Y10571D01*
X5255Y10542D01*
X5702Y10715D02*
X5558Y10715D01*
X5543Y10571D01*
X5558Y10585D01*
X5587Y10600D01*
X5659Y10600D01*
X5688Y10585D01*
X5702Y10571D01*
X5717Y10542D01*
X5717Y10470D01*
X5702Y10441D01*
X5688Y10427D01*
X5659Y10412D01*
X5587Y10412D01*
X5558Y10427D01*
X5543Y10441D01*
X7965Y21719D02*
X8210Y21719D01*
X8239Y21733D01*
X8253Y21748D01*
X8268Y21776D01*
X8268Y21834D01*
X8253Y21863D01*
X8239Y21877D01*
X8210Y21892D01*
X7965Y21892D01*
X8268Y22195D02*
X8268Y22022D01*
X8268Y22108D02*
X7965Y22108D01*
X8008Y22080D01*
X8037Y22051D01*
X8051Y22022D01*
X7994Y22311D02*
X7979Y22325D01*
X7965Y22354D01*
X7965Y22426D01*
X7979Y22455D01*
X7994Y22469D01*
X8022Y22484D01*
X8051Y22484D01*
X8095Y22469D01*
X8268Y22296D01*
X8268Y22484D01*
X5277Y21436D02*
X5176Y21580D01*
X5104Y21436D02*
X5104Y21739D01*
X5219Y21739D01*
X5248Y21725D01*
X5263Y21710D01*
X5277Y21681D01*
X5277Y21638D01*
X5263Y21609D01*
X5248Y21595D01*
X5219Y21580D01*
X5104Y21580D01*
X5537Y21739D02*
X5479Y21739D01*
X5450Y21725D01*
X5436Y21710D01*
X5407Y21667D01*
X5393Y21609D01*
X5393Y21494D01*
X5407Y21465D01*
X5421Y21450D01*
X5450Y21436D01*
X5508Y21436D01*
X5537Y21450D01*
X5551Y21465D01*
X5566Y21494D01*
X5566Y21566D01*
X5551Y21595D01*
X5537Y21609D01*
X5508Y21624D01*
X5450Y21624D01*
X5421Y21609D01*
X5407Y21595D01*
X5393Y21566D01*
X5739Y21609D02*
X5710Y21624D01*
X5696Y21638D01*
X5681Y21667D01*
X5681Y21681D01*
X5696Y21710D01*
X5710Y21725D01*
X5739Y21739D01*
X5797Y21739D01*
X5826Y21725D01*
X5840Y21710D01*
X5854Y21681D01*
X5854Y21667D01*
X5840Y21638D01*
X5826Y21624D01*
X5797Y21609D01*
X5739Y21609D01*
X5710Y21595D01*
X5696Y21580D01*
X5681Y21551D01*
X5681Y21494D01*
X5696Y21465D01*
X5710Y21450D01*
X5739Y21436D01*
X5797Y21436D01*
X5826Y21450D01*
X5840Y21465D01*
X5854Y21494D01*
X5854Y21551D01*
X5840Y21580D01*
X5826Y21595D01*
X5797Y21609D01*
X6005Y19794D02*
X5904Y19938D01*
X5832Y19794D02*
X5832Y20097D01*
X5948Y20097D01*
X5977Y20083D01*
X5991Y20068D01*
X6005Y20040D01*
X6005Y19996D01*
X5991Y19967D01*
X5977Y19953D01*
X5948Y19938D01*
X5832Y19938D01*
X6265Y20097D02*
X6208Y20097D01*
X6179Y20083D01*
X6164Y20068D01*
X6135Y20025D01*
X6121Y19967D01*
X6121Y19852D01*
X6135Y19823D01*
X6150Y19809D01*
X6179Y19794D01*
X6236Y19794D01*
X6265Y19809D01*
X6280Y19823D01*
X6294Y19852D01*
X6294Y19924D01*
X6280Y19953D01*
X6265Y19967D01*
X6236Y19982D01*
X6179Y19982D01*
X6150Y19967D01*
X6135Y19953D01*
X6121Y19924D01*
X6438Y19794D02*
X6496Y19794D01*
X6525Y19809D01*
X6540Y19823D01*
X6568Y19866D01*
X6583Y19924D01*
X6583Y20040D01*
X6568Y20068D01*
X6554Y20083D01*
X6525Y20097D01*
X6467Y20097D01*
X6438Y20083D01*
X6424Y20068D01*
X6410Y20040D01*
X6410Y19967D01*
X6424Y19938D01*
X6438Y19924D01*
X6467Y19910D01*
X6525Y19910D01*
X6554Y19924D01*
X6568Y19938D01*
X6583Y19967D01*
X5529Y20268D02*
X5515Y20253D01*
X5471Y20239D01*
X5442Y20239D01*
X5399Y20253D01*
X5370Y20282D01*
X5356Y20311D01*
X5341Y20369D01*
X5341Y20412D01*
X5356Y20470D01*
X5370Y20499D01*
X5399Y20528D01*
X5442Y20542D01*
X5471Y20542D01*
X5515Y20528D01*
X5529Y20513D01*
X5789Y20441D02*
X5789Y20239D01*
X5717Y20557D02*
X5645Y20340D01*
X5832Y20340D01*
X5919Y20542D02*
X6121Y20542D01*
X5991Y20239D01*
X9765Y15248D02*
X9751Y15234D01*
X9708Y15219D01*
X9679Y15219D01*
X9635Y15234D01*
X9606Y15263D01*
X9592Y15291D01*
X9578Y15349D01*
X9578Y15393D01*
X9592Y15450D01*
X9606Y15479D01*
X9635Y15508D01*
X9679Y15522D01*
X9708Y15522D01*
X9751Y15508D01*
X9765Y15494D01*
X10025Y15421D02*
X10025Y15219D01*
X9953Y15537D02*
X9881Y15320D01*
X10068Y15320D01*
X10198Y15219D02*
X10256Y15219D01*
X10285Y15234D01*
X10299Y15248D01*
X10328Y15291D01*
X10343Y15349D01*
X10343Y15465D01*
X10328Y15494D01*
X10314Y15508D01*
X10285Y15522D01*
X10227Y15522D01*
X10198Y15508D01*
X10184Y15494D01*
X10169Y15465D01*
X10169Y15393D01*
X10184Y15364D01*
X10198Y15349D01*
X10227Y15335D01*
X10285Y15335D01*
X10314Y15349D01*
X10328Y15364D01*
X10343Y15393D01*
X7699Y17995D02*
X7699Y17750D01*
X7713Y17721D01*
X7728Y17706D01*
X7757Y17692D01*
X7814Y17692D01*
X7843Y17706D01*
X7858Y17721D01*
X7872Y17750D01*
X7872Y17995D01*
X8175Y17692D02*
X8002Y17692D01*
X8089Y17692D02*
X8089Y17995D01*
X8060Y17952D01*
X8031Y17923D01*
X8002Y17908D01*
X8276Y17995D02*
X8464Y17995D01*
X8363Y17879D01*
X8406Y17879D01*
X8435Y17865D01*
X8450Y17851D01*
X8464Y17822D01*
X8464Y17750D01*
X8450Y17721D01*
X8435Y17706D01*
X8406Y17692D01*
X8320Y17692D01*
X8291Y17706D01*
X8276Y17721D01*
X12441Y19375D02*
X12297Y19274D01*
X12441Y19202D02*
X12138Y19202D01*
X12138Y19318D01*
X12152Y19347D01*
X12167Y19361D01*
X12196Y19375D01*
X12239Y19375D01*
X12268Y19361D01*
X12282Y19347D01*
X12297Y19318D01*
X12297Y19202D01*
X12138Y19635D02*
X12138Y19578D01*
X12152Y19549D01*
X12167Y19534D01*
X12210Y19505D01*
X12268Y19491D01*
X12383Y19491D01*
X12412Y19505D01*
X12427Y19520D01*
X12441Y19549D01*
X12441Y19606D01*
X12427Y19635D01*
X12412Y19650D01*
X12383Y19664D01*
X12311Y19664D01*
X12282Y19650D01*
X12268Y19635D01*
X12253Y19606D01*
X12253Y19549D01*
X12268Y19520D01*
X12282Y19505D01*
X12311Y19491D01*
X12167Y19780D02*
X12152Y19794D01*
X12138Y19823D01*
X12138Y19895D01*
X12152Y19924D01*
X12167Y19938D01*
X12196Y19953D01*
X12225Y19953D01*
X12268Y19938D01*
X12441Y19765D01*
X12441Y19953D01*
X16879Y20650D02*
X16894Y20694D01*
X16894Y20766D01*
X16879Y20795D01*
X16865Y20809D01*
X16836Y20824D01*
X16807Y20824D01*
X16778Y20809D01*
X16764Y20795D01*
X16750Y20766D01*
X16735Y20708D01*
X16721Y20679D01*
X16706Y20665D01*
X16677Y20650D01*
X16648Y20650D01*
X16620Y20665D01*
X16605Y20679D01*
X16591Y20708D01*
X16591Y20780D01*
X16605Y20824D01*
X16591Y20925D02*
X16894Y20997D01*
X16677Y21055D01*
X16894Y21112D01*
X16591Y21185D01*
X16620Y21286D02*
X16605Y21300D01*
X16591Y21329D01*
X16591Y21401D01*
X16605Y21430D01*
X16620Y21444D01*
X16648Y21459D01*
X16677Y21459D01*
X16721Y21444D01*
X16894Y21271D01*
X16894Y21459D01*
X2471Y3372D02*
X2486Y3357D01*
X2500Y3314D01*
X2500Y3285D01*
X2486Y3242D01*
X2457Y3213D01*
X2428Y3198D01*
X2370Y3184D01*
X2327Y3184D01*
X2269Y3198D01*
X2240Y3213D01*
X2211Y3242D01*
X2197Y3285D01*
X2197Y3314D01*
X2211Y3357D01*
X2226Y3372D01*
X2298Y3631D02*
X2500Y3631D01*
X2183Y3559D02*
X2399Y3487D01*
X2399Y3675D01*
X2197Y3761D02*
X2197Y3949D01*
X2312Y3848D01*
X2312Y3891D01*
X2327Y3920D01*
X2341Y3935D01*
X2370Y3949D01*
X2442Y3949D01*
X2471Y3935D01*
X2486Y3920D01*
X2500Y3891D01*
X2500Y3805D01*
X2486Y3776D01*
X2471Y3761D01*
X13921Y10218D02*
X13777Y10117D01*
X13921Y10045D02*
X13618Y10045D01*
X13618Y10160D01*
X13633Y10189D01*
X13647Y10204D01*
X13676Y10218D01*
X13719Y10218D01*
X13748Y10204D01*
X13763Y10189D01*
X13777Y10160D01*
X13777Y10045D01*
X13921Y10507D02*
X13921Y10333D01*
X13921Y10420D02*
X13618Y10420D01*
X13662Y10391D01*
X13690Y10362D01*
X13705Y10333D01*
X13748Y10680D02*
X13734Y10651D01*
X13719Y10637D01*
X13690Y10622D01*
X13676Y10622D01*
X13647Y10637D01*
X13633Y10651D01*
X13618Y10680D01*
X13618Y10738D01*
X13633Y10767D01*
X13647Y10781D01*
X13676Y10795D01*
X13690Y10795D01*
X13719Y10781D01*
X13734Y10767D01*
X13748Y10738D01*
X13748Y10680D01*
X13763Y10651D01*
X13777Y10637D01*
X13806Y10622D01*
X13864Y10622D01*
X13893Y10637D01*
X13907Y10651D01*
X13921Y10680D01*
X13921Y10738D01*
X13907Y10767D01*
X13893Y10781D01*
X13864Y10795D01*
X13806Y10795D01*
X13777Y10781D01*
X13763Y10767D01*
X13748Y10738D01*
%LPC*%
G54D22*
X3342Y4369D03*
X3854Y4369D03*
X3598Y4369D03*
X3854Y5157D03*
X3342Y5157D03*
G54D10*
G36*
X7911Y17177D02*
X7298Y16565D01*
X6874Y16989D01*
X7486Y17601D01*
X7911Y17177D01*
X7911Y17177D01*
G37*
G54D23*
X6591Y17696D02*
X6779Y17884D01*
G54D24*
X15433Y3346D03*
X15433Y2342D03*
X15433Y1338D03*
G54D25*
X3425Y1340D03*
G54D24*
X3425Y2340D03*
X4425Y1340D03*
X4425Y2340D03*
X5425Y1340D03*
X5425Y2340D03*
X6425Y1340D03*
X6425Y2340D03*
X7425Y1340D03*
X7425Y2340D03*
X8425Y1340D03*
X8425Y2340D03*
X9425Y1340D03*
X9425Y2340D03*
X10425Y1340D03*
X10425Y2340D03*
X11425Y1340D03*
X11425Y2340D03*
X12425Y1340D03*
X12425Y2340D03*
X3425Y3340D03*
X4425Y3340D03*
X5425Y3340D03*
X6425Y3340D03*
X7425Y3340D03*
X8425Y3340D03*
X9425Y3340D03*
X10425Y3340D03*
X11425Y3340D03*
X12425Y3340D03*
X13425Y1340D03*
X13425Y2340D03*
X13425Y3340D03*
X14425Y1340D03*
X14429Y2342D03*
X14425Y3340D03*
G54D26*
X944Y23070D03*
X944Y944D03*
X17362Y944D03*
X17362Y23070D03*
G54D27*
X6485Y11772D03*
X6485Y11575D03*
X6485Y11378D03*
X6485Y11181D03*
X6485Y10984D03*
X6485Y12362D03*
X6485Y12165D03*
X6485Y11969D03*
X6485Y9213D03*
X6485Y9016D03*
X6485Y8819D03*
X6485Y8622D03*
X6485Y8425D03*
X6485Y8228D03*
X6485Y8031D03*
X6485Y7835D03*
G54D28*
X8523Y6978D03*
X8720Y6978D03*
X8916Y6978D03*
X9113Y6978D03*
X9310Y6978D03*
X9507Y6978D03*
X9704Y6978D03*
X9901Y6978D03*
X11672Y6978D03*
X11869Y6978D03*
G54D27*
X12529Y7638D03*
X12529Y7835D03*
X12529Y8031D03*
X12529Y8228D03*
X12529Y8425D03*
X12529Y8622D03*
X6485Y10787D03*
X6485Y10591D03*
X6485Y10394D03*
X6485Y7638D03*
G54D28*
X7145Y6978D03*
X7342Y6978D03*
X10098Y6978D03*
X10294Y6978D03*
X10491Y6978D03*
G54D27*
X12529Y8819D03*
X12529Y9016D03*
X12529Y9213D03*
X6485Y10197D03*
X6485Y10000D03*
X6485Y9803D03*
X6485Y9606D03*
X6485Y9409D03*
G54D28*
X7538Y6978D03*
X7735Y6978D03*
X7932Y6978D03*
X8129Y6978D03*
X8326Y6978D03*
X10688Y6978D03*
X10885Y6978D03*
X11082Y6978D03*
X11279Y6978D03*
X11476Y6978D03*
G54D27*
X12529Y9409D03*
X12529Y9606D03*
X12529Y9803D03*
X12529Y10000D03*
X12529Y10197D03*
X12529Y10394D03*
X12529Y10591D03*
X12529Y10787D03*
X12529Y10984D03*
X12529Y11181D03*
X12529Y11378D03*
X12529Y11575D03*
X12529Y11772D03*
X12529Y11969D03*
X12529Y12165D03*
X12529Y12362D03*
G54D28*
X11869Y13022D03*
X11672Y13022D03*
X11476Y13022D03*
X11279Y13022D03*
X11082Y13022D03*
X10885Y13022D03*
X10688Y13022D03*
X10491Y13022D03*
X10294Y13022D03*
X10098Y13022D03*
X9901Y13022D03*
X9704Y13022D03*
X9507Y13022D03*
X9310Y13022D03*
X9113Y13022D03*
X8916Y13022D03*
X8720Y13022D03*
X8523Y13022D03*
X8326Y13022D03*
X8129Y13022D03*
X7932Y13022D03*
X7735Y13022D03*
X7538Y13022D03*
X7342Y13022D03*
X7145Y13022D03*
G54D29*
X3130Y23171D03*
X2380Y23171D03*
X2755Y23171D03*
X2380Y22339D03*
X3130Y22339D03*
X2755Y22339D03*
G54D30*
X14688Y8094D03*
X15082Y8094D03*
X14885Y8606D03*
X14724Y9074D03*
X15118Y9074D03*
X14921Y9586D03*
G54D31*
X2420Y21574D03*
X3012Y21574D03*
X12264Y21417D03*
X11672Y21417D03*
G54D32*
X16496Y6752D03*
X16496Y6160D03*
G54D31*
X2578Y13740D03*
X3170Y13740D03*
X2578Y14409D03*
X3170Y14409D03*
X2538Y18779D03*
X3130Y18779D03*
X2499Y18031D03*
X3091Y18031D03*
G54D32*
X14133Y9508D03*
X14133Y8916D03*
X4429Y4054D03*
X4429Y4646D03*
X14429Y4054D03*
X14429Y4646D03*
X13425Y4054D03*
X13425Y4646D03*
X12421Y4054D03*
X12421Y4646D03*
X10433Y4054D03*
X10433Y4646D03*
X11417Y4054D03*
X11417Y4646D03*
X9429Y4054D03*
X9429Y4646D03*
X8425Y4054D03*
X8425Y4646D03*
X7421Y4054D03*
X7421Y4646D03*
X6417Y4054D03*
X6417Y4646D03*
X5413Y4054D03*
X5413Y4646D03*
G54D31*
X10294Y21417D03*
X10886Y21417D03*
X2578Y15078D03*
X3170Y15078D03*
X2617Y15708D03*
X3209Y15708D03*
G54D32*
X14606Y6358D03*
X14606Y5766D03*
X15236Y6358D03*
X15236Y5766D03*
X15826Y6358D03*
X15826Y5766D03*
G54D31*
X9034Y21417D03*
X9626Y21417D03*
G54D32*
X15433Y4034D03*
X15433Y4626D03*
G54D31*
X2538Y19448D03*
X3130Y19448D03*
X2538Y20118D03*
X3130Y20118D03*
G54D32*
X15712Y7766D03*
X15712Y8358D03*
G54D31*
X2105Y9330D03*
X2697Y9330D03*
X3229Y7874D03*
X2637Y7874D03*
X2420Y8523D03*
X3012Y8523D03*
G54D32*
X3248Y9823D03*
X3248Y9231D03*
X1692Y5373D03*
X1692Y5965D03*
X2362Y5373D03*
X2362Y5965D03*
G54D31*
X14508Y11456D03*
X13916Y11456D03*
X14508Y12165D03*
X13916Y12165D03*
G54D33*
X1771Y15629D03*
X1771Y15137D03*
X1771Y14645D03*
X1771Y14153D03*
X1771Y13661D03*
X1771Y13169D03*
X1771Y12677D03*
X1771Y12185D03*
X1771Y11692D03*
G54D34*
X629Y16633D03*
X629Y10688D03*
X629Y21909D03*
X629Y17440D03*
G54D33*
X1771Y20905D03*
X1771Y20413D03*
X1771Y19921D03*
X1771Y19429D03*
X1771Y18937D03*
X1771Y18444D03*
G54D34*
X17677Y2145D03*
X17677Y6614D03*
G54D33*
X16535Y3149D03*
X16535Y3641D03*
X16535Y4133D03*
X16535Y4625D03*
X16535Y5118D03*
X16535Y5610D03*
G54D34*
X17677Y15000D03*
X17677Y18484D03*
G54D33*
X16535Y16003D03*
X16535Y16496D03*
X16535Y16988D03*
X16535Y17480D03*
G54D35*
X16220Y23385D03*
X12736Y23385D03*
G54D36*
X15216Y22244D03*
X14724Y22244D03*
X14232Y22244D03*
X13740Y22244D03*
G54D34*
X629Y9881D03*
X629Y6397D03*
G54D33*
X1771Y8877D03*
X1771Y8385D03*
X1771Y7893D03*
X1771Y7401D03*
G54D34*
X629Y5590D03*
X629Y2106D03*
G54D33*
X1771Y4586D03*
X1771Y4094D03*
X1771Y3602D03*
X1771Y3110D03*
G54D35*
X11929Y23385D03*
X8444Y23385D03*
G54D36*
X10925Y22244D03*
X10433Y22244D03*
X9940Y22244D03*
X9448Y22244D03*
G54D35*
X7637Y23385D03*
X4153Y23385D03*
G54D36*
X6633Y22244D03*
X6141Y22244D03*
X5649Y22244D03*
X5157Y22244D03*
G54D33*
X16535Y8444D03*
X16535Y8937D03*
G54D34*
X17677Y7440D03*
X17677Y9940D03*
G54D37*
X15018Y18858D03*
X15018Y19350D03*
X15018Y19842D03*
X15018Y20334D03*
X14112Y20334D03*
X14112Y19842D03*
X14112Y19350D03*
X14112Y18858D03*
G54D38*
X17716Y12047D03*
X17716Y12991D03*
X17716Y14074D03*
X17716Y10964D03*
G54D39*
X16663Y12007D03*
G54D40*
X16663Y12264D03*
X16663Y12519D03*
X16663Y12774D03*
X16663Y13031D03*
G54D41*
X2362Y2323D03*
G54D42*
X2362Y1535D03*
G54D41*
X15212Y10192D03*
G54D42*
X15212Y10980D03*
G54D32*
X10692Y16833D03*
X10692Y17425D03*
X15708Y18877D03*
X15708Y19469D03*
G54D31*
X2085Y9881D03*
X2677Y9881D03*
X9756Y17992D03*
X9164Y17992D03*
X12184Y6633D03*
X12776Y6633D03*
X2263Y23740D03*
X2855Y23740D03*
X4822Y9763D03*
X5414Y9763D03*
X6752Y13051D03*
X6160Y13051D03*
X12499Y12893D03*
X13091Y12893D03*
X3229Y7224D03*
X2637Y7224D03*
X11475Y22165D03*
X12067Y22165D03*
G54D32*
X15228Y16389D03*
X15228Y16981D03*
G54D31*
X3979Y11751D03*
X4571Y11751D03*
X3975Y11066D03*
X4567Y11066D03*
X3987Y10370D03*
X4579Y10370D03*
G54D43*
X7670Y21452D03*
X7670Y20932D03*
X7670Y21192D03*
X8470Y20932D03*
X8470Y21452D03*
X8470Y21192D03*
G54D31*
X6855Y21409D03*
X6263Y21409D03*
X6995Y20141D03*
X7587Y20141D03*
X7063Y20767D03*
X6471Y20767D03*
G54D32*
X10704Y16240D03*
X10704Y15648D03*
G54D44*
X9011Y16070D03*
X9169Y16070D03*
X9326Y16070D03*
X9484Y16070D03*
X9641Y16070D03*
X9799Y16070D03*
G54D45*
X10007Y16279D03*
X10007Y16437D03*
X10007Y16594D03*
X10007Y16751D03*
X10007Y16909D03*
X10007Y17066D03*
G54D44*
X9799Y17275D03*
X9641Y17275D03*
X9484Y17275D03*
X9326Y17275D03*
X9169Y17275D03*
X9011Y17275D03*
G54D45*
X8803Y17066D03*
X8803Y16909D03*
X8803Y16751D03*
X8803Y16594D03*
X8803Y16437D03*
X8803Y16279D03*
G54D32*
X11704Y19290D03*
X11704Y19882D03*
G54D46*
X17972Y21748D03*
X17972Y20330D03*
X17381Y21748D03*
X17381Y20330D03*
G54D32*
X2744Y4729D03*
X2744Y4137D03*
X14307Y10184D03*
X14307Y10776D03*
M02*
