M48
INCH,TZ
T1C0.012
T2C0.016
T3C0.020
T4C0.024
T5C0.028
T6C0.039
%
G90
G05
T1
X000610Y015579
X001059Y018280
X001118Y019697
X001181Y007441
X001193Y015429
X001193Y014744
X001240Y008752
X001476Y009264
X001551Y017055
X001602Y022547
X001677Y021358
X001701Y006504
X001921Y022724
X002004Y021657
X002126Y010382
X002744Y020559
X002799Y003594
X002894Y013079
X003024Y021035
X003378Y006783
X003402Y021008
X003476Y023197
X003539Y012437
X003661Y003850
X003693Y014610
X003732Y017787
X003756Y021720
X003791Y007110
X003819Y009724
X003937Y007992
X004102Y015823
X004138Y017748
X004232Y008787
X004520Y022252
X004535Y017709
X004551Y017283
X004657Y008445
X004720Y014134
X004728Y016965
X004894Y007646
X004941Y014677
X005114Y015035
X005260Y015929
X005272Y013858
X005287Y018547
X005433Y010354
X005598Y021244
X005748Y008657
X005768Y011169
X005882Y008335
X005945Y004228
X005984Y010709
X006177Y018224
X006193Y016161
X006378Y012756
X006496Y015587
X006520Y018705
X006598Y014925
X006646Y005839
X006732Y013425
X006902Y022752
X006909Y012626
X007028Y011957
X007047Y007638
X007067Y009713
X007106Y006213
X007165Y008819
X007244Y013543
X007268Y021303
X007299Y022264
X007331Y010421
X007398Y011303
X007591Y006169
X007709Y009811
X007858Y016437
X007894Y016075
X007898Y007476
X007906Y012496
X007965Y014941
X008024Y004492
X008209Y016795
X008232Y021102
X008272Y015764
X008539Y014386
X008555Y014756
X008646Y012445
X008657Y006398
X008705Y017949
X008898Y008307
X009197Y013980
X009201Y011240
X009268Y012433
X009287Y016445
X009559Y020807
X009587Y016803
X009614Y007681
X009638Y016465
X009642Y006449
X010028Y017661
X010142Y022929
X010315Y017094
X010354Y008772
X010650Y018602
X010701Y012283
X010760Y023134
X010976Y014232
X011063Y013870
X011075Y012433
X011150Y019476
X011157Y020382
X011169Y016244
X011228Y013535
X011260Y010433
X011280Y021409
X011287Y019858
X011602Y018768
X011610Y012291
X011642Y007835
X011693Y011811
X011811Y009016
X011878Y008406
X012177Y012610
X012232Y021012
X012409Y006106
X012476Y017724
X012713Y006941
X012972Y014138
X013098Y012496
X013110Y008539
X013224Y010697
X013303Y020366
X013453Y011354
X013512Y010457
X013567Y020142
X013650Y018563
X013846Y011028
X013854Y013260
X014122Y008453
X014496Y022768
X014799Y020744
X014811Y017575
X014819Y021709
X015071Y007776
X015157Y018287
X015177Y015819
X015354Y013248
X015453Y009201
X015677Y022268
X015713Y009756
X015748Y008882
X015760Y010618
X015799Y018228
X015819Y011886
X015819Y009327
X015831Y017764
X015866Y007307
X015870Y011480
X016173Y012795
X016421Y015591
X016531Y008079
X017059Y009268
X017071Y016480
X018043Y019772
T2
X015870Y011051
X015870Y010185
X016953Y013441
T3
X001142Y012264
X002343Y020598
X002390Y011610
X003409Y023661
X004949Y023409
X005701Y020791
X005921Y023280
X006165Y017339
X009283Y022803
X009709Y008961
X010594Y017862
X012957Y022508
X013669Y023295
X015693Y020047
X016366Y013559
X016630Y014516
X017268Y004307
X017299Y003091
X017480Y003705
T4
X000492Y002862
X000720Y004165
X002484Y011138
X002638Y003150
X003780Y005866
X005925Y005276
X011287Y015748
X012902Y016378
T5
X001063Y020906
X014016Y021437
T6
X003425Y003341
X003425Y002341
X003425Y001341
X004425Y003341
X004425Y002341
X004425Y001341
X005425Y003341
X005425Y002341
X005425Y001341
X006425Y003341
X006425Y002341
X006425Y001341
X006686Y017791
X007393Y017083
X007425Y003341
X007425Y002341
X007425Y001341
X008425Y003341
X008425Y002341
X008425Y001341
X009425Y003341
X009425Y002341
X009425Y001341
X010425Y003341
X010425Y002341
X010425Y001341
X011425Y003341
X011425Y002341
X011425Y001341
X012425Y003341
X012425Y002341
X012425Y001341
X013425Y003341
X013425Y002341
X013425Y001341
X014425Y003341
X014425Y001341
X014429Y002343
X015433Y003346
X015433Y002343
X015433Y001339
T0
M30
