G04 (created by PCBNEW (2013-may-18)-stable) date St 19. únor 2014, 18:08:51 CET*
%MOIN*%
G04 Gerber Fmt 3.4, Leading zero omitted, Abs format*
%FSLAX34Y34*%
G01*
G70*
G90*
G04 APERTURE LIST*
%ADD10C,0.00590551*%
%ADD11C,0.00984252*%
%ADD12C,0.06*%
%ADD13C,0.0708661*%
%ADD14R,0.0708661X0.0787*%
%ADD15C,0.0275591*%
%ADD16C,0.0393701*%
%ADD17C,0.0354331*%
%ADD18C,0.0314961*%
%ADD19C,0.0433071*%
%ADD20C,0.0472441*%
%ADD21C,0.0393701*%
G04 APERTURE END LIST*
G54D10*
G54D11*
X2164Y549D02*
X2407Y549D01*
X2276Y399D01*
X2332Y399D01*
X2370Y380D01*
X2389Y361D01*
X2407Y324D01*
X2407Y230D01*
X2389Y193D01*
X2370Y174D01*
X2332Y155D01*
X2220Y155D01*
X2182Y174D01*
X2164Y193D01*
G54D10*
X-196Y944D02*
G75*
G03X944Y-196I1141J0D01*
G74*
G01*
X944Y24212D02*
X17362Y24212D01*
X-196Y944D02*
X-196Y23070D01*
X17362Y-196D02*
X944Y-196D01*
X18503Y23070D02*
X18503Y944D01*
X17362Y-196D02*
G75*
G03X18503Y944I0J1141D01*
G74*
G01*
X944Y24212D02*
G75*
G03X-196Y23070I0J-1141D01*
G74*
G01*
X18503Y23070D02*
G75*
G03X17362Y24212I-1141J0D01*
G74*
G01*
G36*
X7911Y17177D02*
X7298Y16565D01*
X6874Y16989D01*
X7486Y17601D01*
X7911Y17177D01*
X7911Y17177D01*
G37*
G54D12*
X6591Y17696D02*
X6779Y17884D01*
G54D13*
X15433Y3346D03*
X15433Y2342D03*
X15433Y1338D03*
G54D14*
X3425Y1340D03*
G54D13*
X3425Y2340D03*
X4425Y1340D03*
X4425Y2340D03*
X5425Y1340D03*
X5425Y2340D03*
X6425Y1340D03*
X6425Y2340D03*
X7425Y1340D03*
X7425Y2340D03*
X8425Y1340D03*
X8425Y2340D03*
X9425Y1340D03*
X9425Y2340D03*
X10425Y1340D03*
X10425Y2340D03*
X11425Y1340D03*
X11425Y2340D03*
X12425Y1340D03*
X12425Y2340D03*
X3425Y3340D03*
X4425Y3340D03*
X5425Y3340D03*
X6425Y3340D03*
X7425Y3340D03*
X8425Y3340D03*
X9425Y3340D03*
X10425Y3340D03*
X11425Y3340D03*
X12425Y3340D03*
X13425Y1340D03*
X13425Y2340D03*
X13425Y3340D03*
X14425Y1340D03*
X14429Y2342D03*
X14425Y3340D03*
G54D15*
X15177Y15818D03*
X11287Y19858D03*
X11169Y16244D03*
X8271Y15763D03*
X10027Y17661D03*
X8232Y21102D03*
G54D16*
X2484Y11137D03*
X1070Y3692D03*
G54D17*
X5700Y20791D03*
X4948Y23409D03*
X3409Y23661D03*
G54D15*
X6732Y13425D03*
G54D17*
X6165Y17338D03*
G54D15*
X2744Y20559D03*
X11279Y21409D03*
X6177Y18224D03*
X1921Y22724D03*
X12177Y12610D03*
G54D18*
X15870Y10185D03*
G54D15*
X14122Y8452D03*
X15070Y7775D03*
X5433Y10354D03*
X5748Y8657D03*
X7590Y6169D03*
X2799Y3594D03*
X12409Y6106D03*
X5881Y8334D03*
X15157Y18287D03*
G54D19*
X1062Y20905D03*
G54D17*
X12956Y22507D03*
X2389Y11610D03*
X5921Y23279D03*
X9283Y22803D03*
X13669Y23295D03*
X17299Y3090D03*
G54D16*
X748Y2874D03*
G54D20*
X16740Y14476D03*
G54D15*
X3791Y7110D03*
X4232Y8787D03*
X15830Y17763D03*
X11062Y13870D03*
X15799Y18228D03*
X10976Y14232D03*
X9559Y20807D03*
X4940Y14677D03*
X5114Y15035D03*
X12232Y21011D03*
X4720Y14133D03*
X6909Y12625D03*
X7027Y11956D03*
X7066Y9712D03*
X17070Y16480D03*
X10649Y18602D03*
X8023Y4492D03*
G54D17*
X15692Y20047D03*
G54D15*
X11157Y20381D03*
X11602Y18767D03*
G54D16*
X11287Y15748D03*
G54D15*
X8704Y17948D03*
X7267Y21303D03*
X5944Y4228D03*
X10141Y22929D03*
X6901Y22751D03*
X4519Y22251D03*
G54D17*
X10594Y17862D03*
G54D19*
X14015Y21437D03*
G54D16*
X12901Y16377D03*
G54D15*
X7244Y13543D03*
X17059Y9267D03*
G54D17*
X1141Y12263D03*
X2342Y20598D03*
G54D15*
X6519Y18704D03*
X1551Y17055D03*
X1192Y15429D03*
X5287Y18547D03*
X5259Y15929D03*
X6192Y16161D03*
X3539Y12437D03*
X5271Y13858D03*
X2893Y13078D03*
X6377Y12755D03*
X1602Y22547D03*
X5767Y11169D03*
X18043Y19771D03*
X16421Y15590D03*
X12972Y14137D03*
G54D17*
X16366Y13559D03*
G54D15*
X16531Y8078D03*
X15354Y13248D03*
X13854Y13259D03*
X15452Y9200D03*
G54D18*
X15870Y11051D03*
G54D15*
X8897Y8307D03*
X9200Y11240D03*
X2125Y10381D03*
X3937Y7992D03*
X3818Y9724D03*
G54D16*
X3779Y5866D03*
X2637Y3149D03*
G54D15*
X11259Y10433D03*
X13098Y12496D03*
X7047Y7637D03*
G54D17*
X9708Y8960D03*
G54D15*
X9614Y7681D03*
X10354Y8771D03*
X4657Y8444D03*
X4893Y7645D03*
X7165Y8818D03*
X5984Y10708D03*
X12712Y6940D03*
X7106Y6212D03*
X14496Y22767D03*
X4102Y15822D03*
X10759Y23133D03*
X4728Y16964D03*
X7299Y22263D03*
X4551Y17283D03*
X3755Y21720D03*
X4535Y17708D03*
X8208Y16795D03*
X9637Y16464D03*
X9267Y12433D03*
X10314Y17094D03*
X9287Y16444D03*
X7905Y12496D03*
X14799Y20744D03*
X14811Y17574D03*
X11692Y11811D03*
X8657Y6397D03*
X7330Y10421D03*
X7708Y9811D03*
X5598Y21244D03*
X2003Y21657D03*
X1181Y7440D03*
X1240Y8751D03*
X1192Y14744D03*
X1059Y18279D03*
X610Y15578D03*
X1118Y19696D03*
X15677Y22267D03*
X14818Y21708D03*
X11641Y7834D03*
X15866Y7307D03*
X7397Y11303D03*
X9641Y6448D03*
X8645Y12444D03*
X3692Y14610D03*
X1677Y21358D03*
X3476Y23196D03*
X3023Y21035D03*
X3732Y17787D03*
X3401Y21007D03*
X4137Y17748D03*
X15759Y10618D03*
X11228Y13535D03*
X15712Y9755D03*
X10700Y12283D03*
X15870Y11480D03*
X13511Y10456D03*
X15818Y11885D03*
X13224Y10696D03*
X15748Y8881D03*
X11610Y12291D03*
X15818Y9326D03*
X11074Y12433D03*
X1700Y6503D03*
X6645Y5838D03*
X11149Y19476D03*
X9586Y16803D03*
X13566Y20141D03*
X8555Y14755D03*
X13303Y20366D03*
X12476Y17724D03*
X7893Y16074D03*
X6598Y14925D03*
X8539Y14385D03*
X13649Y18562D03*
X7858Y16437D03*
X6496Y15586D03*
X7964Y14940D03*
X9196Y13980D03*
X13846Y11027D03*
G54D18*
X16952Y13440D03*
G54D15*
X16173Y12795D03*
X13452Y11354D03*
X1476Y9263D03*
X11811Y9015D03*
X11877Y8405D03*
X13110Y8539D03*
G54D21*
X2149Y11137D02*
X2484Y11137D01*
X720Y9708D02*
X2149Y11137D01*
X720Y4043D02*
X720Y9708D01*
X1070Y3692D02*
X720Y4043D01*
G54D10*
G36*
X18257Y887D02*
X17982Y635D01*
X17982Y1005D01*
X17982Y23131D01*
X17958Y23250D01*
X17912Y23363D01*
X17845Y23464D01*
X17759Y23550D01*
X17658Y23618D01*
X17546Y23666D01*
X17427Y23690D01*
X17305Y23691D01*
X17186Y23668D01*
X17073Y23623D01*
X16971Y23556D01*
X16884Y23471D01*
X16816Y23371D01*
X16768Y23259D01*
X16743Y23140D01*
X16741Y23018D01*
X16763Y22899D01*
X16808Y22786D01*
X16873Y22683D01*
X16958Y22596D01*
X17058Y22526D01*
X17169Y22478D01*
X17288Y22452D01*
X17410Y22449D01*
X17529Y22470D01*
X17643Y22514D01*
X17745Y22579D01*
X17833Y22663D01*
X17903Y22763D01*
X17953Y22874D01*
X17980Y22992D01*
X17982Y23131D01*
X17982Y1005D01*
X17958Y1124D01*
X17912Y1237D01*
X17845Y1338D01*
X17759Y1424D01*
X17663Y1489D01*
X17663Y3126D01*
X17649Y3196D01*
X17622Y3262D01*
X17582Y3321D01*
X17532Y3372D01*
X17473Y3412D01*
X17407Y3440D01*
X17395Y3442D01*
X17395Y16512D01*
X17383Y16574D01*
X17359Y16633D01*
X17323Y16686D01*
X17278Y16731D01*
X17226Y16767D01*
X17167Y16792D01*
X17104Y16804D01*
X17041Y16805D01*
X16978Y16793D01*
X16919Y16769D01*
X16866Y16734D01*
X16820Y16690D01*
X16784Y16637D01*
X16759Y16579D01*
X16746Y16516D01*
X16745Y16453D01*
X16757Y16390D01*
X16780Y16331D01*
X16815Y16277D01*
X16859Y16231D01*
X16911Y16195D01*
X16970Y16169D01*
X17032Y16156D01*
X17095Y16154D01*
X17158Y16165D01*
X17218Y16188D01*
X17271Y16223D01*
X17317Y16267D01*
X17354Y16319D01*
X17380Y16377D01*
X17394Y16439D01*
X17395Y16512D01*
X17395Y3442D01*
X17337Y3454D01*
X17297Y3454D01*
X17297Y13474D01*
X17284Y13540D01*
X17258Y13603D01*
X17221Y13659D01*
X17173Y13707D01*
X17163Y13714D01*
X17163Y14517D01*
X17147Y14599D01*
X17115Y14676D01*
X17069Y14745D01*
X17011Y14804D01*
X16942Y14850D01*
X16865Y14882D01*
X16784Y14899D01*
X16701Y14899D01*
X16620Y14884D01*
X16543Y14853D01*
X16473Y14807D01*
X16414Y14749D01*
X16367Y14681D01*
X16334Y14604D01*
X16317Y14523D01*
X16316Y14440D01*
X16331Y14359D01*
X16361Y14281D01*
X16406Y14212D01*
X16464Y14152D01*
X16532Y14105D01*
X16608Y14071D01*
X16689Y14054D01*
X16772Y14052D01*
X16854Y14066D01*
X16931Y14096D01*
X17001Y14141D01*
X17062Y14198D01*
X17109Y14266D01*
X17143Y14342D01*
X17162Y14423D01*
X17163Y14517D01*
X17163Y13714D01*
X17117Y13745D01*
X17055Y13771D01*
X16988Y13785D01*
X16921Y13785D01*
X16855Y13773D01*
X16792Y13747D01*
X16735Y13710D01*
X16687Y13663D01*
X16649Y13607D01*
X16622Y13545D01*
X16608Y13479D01*
X16607Y13411D01*
X16620Y13345D01*
X16644Y13282D01*
X16681Y13225D01*
X16728Y13177D01*
X16783Y13138D01*
X16845Y13111D01*
X16911Y13097D01*
X16979Y13095D01*
X17045Y13107D01*
X17108Y13131D01*
X17165Y13168D01*
X17214Y13214D01*
X17253Y13269D01*
X17281Y13331D01*
X17296Y13397D01*
X17297Y13474D01*
X17297Y3454D01*
X17266Y3454D01*
X17195Y3441D01*
X17129Y3414D01*
X17069Y3375D01*
X17018Y3325D01*
X16978Y3266D01*
X16950Y3201D01*
X16935Y3131D01*
X16934Y3059D01*
X16947Y2989D01*
X16973Y2923D01*
X17012Y2863D01*
X17062Y2811D01*
X17120Y2771D01*
X17186Y2742D01*
X17255Y2727D01*
X17327Y2725D01*
X17397Y2738D01*
X17464Y2763D01*
X17524Y2802D01*
X17576Y2851D01*
X17617Y2909D01*
X17646Y2975D01*
X17662Y3044D01*
X17663Y3126D01*
X17663Y1489D01*
X17658Y1492D01*
X17546Y1540D01*
X17427Y1564D01*
X17305Y1565D01*
X17186Y1542D01*
X17073Y1497D01*
X16971Y1430D01*
X16884Y1345D01*
X16816Y1245D01*
X16768Y1133D01*
X16743Y1014D01*
X16741Y892D01*
X16763Y773D01*
X16808Y660D01*
X16873Y557D01*
X16958Y470D01*
X17058Y400D01*
X17169Y352D01*
X17288Y326D01*
X17410Y323D01*
X17529Y344D01*
X17643Y388D01*
X17745Y453D01*
X17833Y537D01*
X17903Y637D01*
X17953Y748D01*
X17980Y866D01*
X17982Y1005D01*
X17982Y635D01*
X17343Y49D01*
X16498Y49D01*
X16498Y12827D01*
X16485Y12889D01*
X16461Y12948D01*
X16426Y13001D01*
X16381Y13046D01*
X16328Y13082D01*
X16269Y13107D01*
X16207Y13119D01*
X16155Y13120D01*
X16155Y17795D01*
X16143Y17858D01*
X16118Y17917D01*
X16083Y17970D01*
X16042Y18011D01*
X16046Y18015D01*
X16082Y18067D01*
X16108Y18125D01*
X16123Y18187D01*
X16124Y18260D01*
X16111Y18322D01*
X16087Y18381D01*
X16052Y18434D01*
X16007Y18479D01*
X16001Y18483D01*
X16001Y22299D01*
X15989Y22362D01*
X15965Y22420D01*
X15930Y22473D01*
X15885Y22519D01*
X15832Y22554D01*
X15773Y22579D01*
X15711Y22592D01*
X15647Y22592D01*
X15585Y22580D01*
X15525Y22556D01*
X15472Y22522D01*
X15427Y22477D01*
X15391Y22424D01*
X15366Y22366D01*
X15352Y22304D01*
X15351Y22240D01*
X15363Y22177D01*
X15386Y22118D01*
X15421Y22064D01*
X15465Y22019D01*
X15517Y21982D01*
X15576Y21957D01*
X15638Y21943D01*
X15702Y21942D01*
X15764Y21953D01*
X15824Y21976D01*
X15878Y22010D01*
X15924Y22054D01*
X15960Y22106D01*
X15986Y22164D01*
X16000Y22226D01*
X16001Y22299D01*
X16001Y18483D01*
X15954Y18515D01*
X15895Y18540D01*
X15833Y18552D01*
X15769Y18553D01*
X15707Y18541D01*
X15648Y18517D01*
X15594Y18482D01*
X15549Y18438D01*
X15513Y18385D01*
X15488Y18327D01*
X15482Y18298D01*
X15482Y18319D01*
X15469Y18381D01*
X15445Y18440D01*
X15410Y18493D01*
X15365Y18538D01*
X15312Y18574D01*
X15253Y18599D01*
X15191Y18611D01*
X15143Y18612D01*
X15143Y21740D01*
X15131Y21802D01*
X15107Y21861D01*
X15071Y21914D01*
X15026Y21960D01*
X14974Y21995D01*
X14915Y22020D01*
X14853Y22033D01*
X14820Y22033D01*
X14820Y22799D01*
X14808Y22862D01*
X14784Y22920D01*
X14748Y22973D01*
X14704Y23019D01*
X14651Y23054D01*
X14592Y23079D01*
X14530Y23092D01*
X14466Y23092D01*
X14403Y23080D01*
X14344Y23056D01*
X14291Y23022D01*
X14246Y22977D01*
X14210Y22924D01*
X14184Y22866D01*
X14171Y22804D01*
X14170Y22740D01*
X14182Y22677D01*
X14205Y22618D01*
X14240Y22564D01*
X14284Y22519D01*
X14336Y22482D01*
X14395Y22457D01*
X14457Y22443D01*
X14521Y22442D01*
X14583Y22453D01*
X14643Y22476D01*
X14696Y22510D01*
X14743Y22554D01*
X14779Y22606D01*
X14805Y22664D01*
X14819Y22726D01*
X14820Y22799D01*
X14820Y22033D01*
X14789Y22033D01*
X14726Y22021D01*
X14667Y21997D01*
X14614Y21963D01*
X14568Y21918D01*
X14532Y21865D01*
X14507Y21807D01*
X14494Y21745D01*
X14493Y21681D01*
X14505Y21618D01*
X14528Y21559D01*
X14563Y21505D01*
X14607Y21460D01*
X14659Y21423D01*
X14718Y21398D01*
X14780Y21384D01*
X14843Y21383D01*
X14906Y21394D01*
X14966Y21417D01*
X15019Y21451D01*
X15065Y21495D01*
X15102Y21547D01*
X15128Y21605D01*
X15142Y21667D01*
X15143Y21740D01*
X15143Y18612D01*
X15127Y18612D01*
X15124Y18611D01*
X15124Y20775D01*
X15111Y20838D01*
X15087Y20897D01*
X15052Y20950D01*
X15007Y20995D01*
X14954Y21031D01*
X14895Y21055D01*
X14833Y21068D01*
X14769Y21069D01*
X14707Y21057D01*
X14648Y21033D01*
X14594Y20998D01*
X14549Y20953D01*
X14513Y20901D01*
X14488Y20842D01*
X14474Y20780D01*
X14473Y20716D01*
X14485Y20654D01*
X14508Y20594D01*
X14543Y20541D01*
X14587Y20495D01*
X14639Y20459D01*
X14698Y20433D01*
X14760Y20420D01*
X14824Y20418D01*
X14886Y20429D01*
X14946Y20452D01*
X15000Y20486D01*
X15046Y20530D01*
X15082Y20582D01*
X15108Y20641D01*
X15123Y20703D01*
X15124Y20775D01*
X15124Y18611D01*
X15065Y18600D01*
X15006Y18576D01*
X14952Y18541D01*
X14907Y18497D01*
X14871Y18444D01*
X14846Y18386D01*
X14833Y18323D01*
X14832Y18260D01*
X14843Y18197D01*
X14867Y18138D01*
X14901Y18084D01*
X14945Y18038D01*
X14998Y18002D01*
X15056Y17977D01*
X15118Y17963D01*
X15182Y17961D01*
X15245Y17973D01*
X15304Y17996D01*
X15358Y18030D01*
X15404Y18074D01*
X15441Y18126D01*
X15467Y18184D01*
X15474Y18215D01*
X15473Y18201D01*
X15485Y18138D01*
X15508Y18079D01*
X15543Y18025D01*
X15587Y17980D01*
X15580Y17973D01*
X15544Y17921D01*
X15519Y17862D01*
X15506Y17800D01*
X15505Y17736D01*
X15516Y17673D01*
X15540Y17614D01*
X15574Y17561D01*
X15619Y17515D01*
X15671Y17478D01*
X15729Y17453D01*
X15792Y17439D01*
X15855Y17438D01*
X15918Y17449D01*
X15977Y17472D01*
X16031Y17506D01*
X16077Y17550D01*
X16114Y17602D01*
X16140Y17660D01*
X16154Y17722D01*
X16155Y17795D01*
X16155Y13120D01*
X16143Y13120D01*
X16081Y13108D01*
X16022Y13084D01*
X15968Y13049D01*
X15923Y13005D01*
X15887Y12952D01*
X15862Y12893D01*
X15848Y12831D01*
X15847Y12767D01*
X15859Y12705D01*
X15882Y12646D01*
X15917Y12592D01*
X15961Y12546D01*
X16014Y12510D01*
X16072Y12484D01*
X16134Y12471D01*
X16198Y12469D01*
X16260Y12480D01*
X16320Y12503D01*
X16374Y12538D01*
X16420Y12582D01*
X16457Y12634D01*
X16482Y12692D01*
X16497Y12754D01*
X16498Y12827D01*
X16498Y49D01*
X16214Y49D01*
X16214Y10218D01*
X16201Y10285D01*
X16194Y10301D01*
X16194Y11512D01*
X16182Y11574D01*
X16158Y11633D01*
X16123Y11686D01*
X16095Y11714D01*
X16102Y11724D01*
X16128Y11782D01*
X16142Y11844D01*
X16143Y11917D01*
X16131Y11980D01*
X16107Y12039D01*
X16071Y12092D01*
X16026Y12137D01*
X15974Y12172D01*
X15915Y12197D01*
X15853Y12210D01*
X15789Y12210D01*
X15726Y12198D01*
X15667Y12175D01*
X15614Y12140D01*
X15568Y12095D01*
X15532Y12043D01*
X15507Y11984D01*
X15501Y11957D01*
X15501Y15850D01*
X15489Y15913D01*
X15465Y15972D01*
X15430Y16025D01*
X15385Y16070D01*
X15332Y16105D01*
X15273Y16130D01*
X15211Y16143D01*
X15147Y16143D01*
X15135Y16141D01*
X15135Y17606D01*
X15123Y17669D01*
X15099Y17728D01*
X15063Y17781D01*
X15019Y17826D01*
X14966Y17861D01*
X14907Y17886D01*
X14845Y17899D01*
X14781Y17899D01*
X14718Y17887D01*
X14659Y17864D01*
X14606Y17829D01*
X14561Y17784D01*
X14525Y17732D01*
X14499Y17673D01*
X14486Y17611D01*
X14485Y17547D01*
X14497Y17484D01*
X14520Y17425D01*
X14555Y17372D01*
X14599Y17326D01*
X14651Y17289D01*
X14710Y17264D01*
X14772Y17250D01*
X14836Y17249D01*
X14898Y17260D01*
X14958Y17283D01*
X15011Y17317D01*
X15058Y17361D01*
X15094Y17413D01*
X15120Y17471D01*
X15134Y17533D01*
X15135Y17606D01*
X15135Y16141D01*
X15085Y16131D01*
X15025Y16108D01*
X14972Y16073D01*
X14927Y16028D01*
X14891Y15976D01*
X14866Y15917D01*
X14852Y15855D01*
X14851Y15791D01*
X14863Y15728D01*
X14886Y15669D01*
X14921Y15616D01*
X14965Y15570D01*
X15017Y15533D01*
X15076Y15508D01*
X15138Y15494D01*
X15202Y15493D01*
X15264Y15504D01*
X15324Y15527D01*
X15378Y15561D01*
X15424Y15605D01*
X15460Y15657D01*
X15486Y15715D01*
X15500Y15777D01*
X15501Y15850D01*
X15501Y11957D01*
X15494Y11922D01*
X15493Y11858D01*
X15505Y11795D01*
X15528Y11736D01*
X15563Y11683D01*
X15593Y11651D01*
X15584Y11637D01*
X15558Y11579D01*
X15545Y11516D01*
X15544Y11453D01*
X15556Y11390D01*
X15579Y11331D01*
X15614Y11277D01*
X15658Y11231D01*
X15710Y11195D01*
X15769Y11169D01*
X15831Y11156D01*
X15895Y11154D01*
X15957Y11165D01*
X16017Y11188D01*
X16071Y11223D01*
X16117Y11267D01*
X16153Y11319D01*
X16179Y11377D01*
X16193Y11439D01*
X16194Y11512D01*
X16194Y10301D01*
X16175Y10347D01*
X16138Y10403D01*
X16090Y10451D01*
X16052Y10477D01*
X16069Y10515D01*
X16083Y10577D01*
X16084Y10649D01*
X16072Y10712D01*
X16048Y10771D01*
X16012Y10824D01*
X15967Y10869D01*
X15915Y10905D01*
X15856Y10929D01*
X15793Y10942D01*
X15730Y10943D01*
X15667Y10931D01*
X15608Y10907D01*
X15555Y10872D01*
X15509Y10827D01*
X15473Y10775D01*
X15448Y10716D01*
X15435Y10654D01*
X15434Y10590D01*
X15446Y10528D01*
X15469Y10468D01*
X15504Y10415D01*
X15548Y10369D01*
X15569Y10355D01*
X15566Y10351D01*
X15540Y10289D01*
X15526Y10223D01*
X15525Y10156D01*
X15537Y10089D01*
X15556Y10041D01*
X15508Y10010D01*
X15462Y9965D01*
X15426Y9913D01*
X15401Y9854D01*
X15388Y9792D01*
X15387Y9728D01*
X15398Y9665D01*
X15422Y9606D01*
X15456Y9553D01*
X15501Y9507D01*
X15533Y9484D01*
X15532Y9484D01*
X15507Y9425D01*
X15494Y9363D01*
X15493Y9299D01*
X15505Y9236D01*
X15528Y9177D01*
X15551Y9141D01*
X15543Y9136D01*
X15498Y9091D01*
X15462Y9039D01*
X15436Y8980D01*
X15423Y8918D01*
X15422Y8854D01*
X15434Y8791D01*
X15457Y8732D01*
X15492Y8679D01*
X15536Y8633D01*
X15588Y8596D01*
X15647Y8571D01*
X15709Y8557D01*
X15773Y8556D01*
X15835Y8567D01*
X15895Y8590D01*
X15948Y8624D01*
X15995Y8668D01*
X16031Y8720D01*
X16057Y8778D01*
X16071Y8840D01*
X16072Y8913D01*
X16060Y8976D01*
X16036Y9035D01*
X16015Y9066D01*
X16019Y9069D01*
X16065Y9113D01*
X16102Y9165D01*
X16128Y9223D01*
X16142Y9285D01*
X16143Y9358D01*
X16131Y9421D01*
X16107Y9479D01*
X16071Y9533D01*
X16026Y9578D01*
X15997Y9597D01*
X16022Y9652D01*
X16036Y9715D01*
X16037Y9787D01*
X16025Y9850D01*
X16016Y9872D01*
X16026Y9876D01*
X16083Y9912D01*
X16132Y9958D01*
X16171Y10014D01*
X16198Y10075D01*
X16213Y10141D01*
X16214Y10218D01*
X16214Y49D01*
X16190Y49D01*
X16190Y7338D01*
X16178Y7401D01*
X16154Y7460D01*
X16119Y7513D01*
X16074Y7558D01*
X16021Y7594D01*
X15962Y7618D01*
X15900Y7631D01*
X15836Y7632D01*
X15773Y7620D01*
X15714Y7596D01*
X15661Y7561D01*
X15616Y7516D01*
X15580Y7464D01*
X15555Y7405D01*
X15541Y7343D01*
X15540Y7279D01*
X15552Y7217D01*
X15575Y7157D01*
X15610Y7104D01*
X15654Y7058D01*
X15706Y7022D01*
X15765Y6996D01*
X15827Y6983D01*
X15891Y6981D01*
X15953Y6992D01*
X16013Y7015D01*
X16067Y7049D01*
X16113Y7093D01*
X16149Y7145D01*
X16175Y7204D01*
X16189Y7266D01*
X16190Y7338D01*
X16190Y49D01*
X15974Y49D01*
X15974Y2395D01*
X15953Y2499D01*
X15913Y2597D01*
X15854Y2686D01*
X15779Y2761D01*
X15691Y2821D01*
X15635Y2844D01*
X15678Y2860D01*
X15767Y2917D01*
X15844Y2991D01*
X15906Y3077D01*
X15949Y3174D01*
X15972Y3278D01*
X15974Y3399D01*
X15953Y3503D01*
X15913Y3601D01*
X15854Y3690D01*
X15779Y3765D01*
X15691Y3824D01*
X15593Y3866D01*
X15489Y3887D01*
X15395Y3888D01*
X15395Y7807D01*
X15383Y7869D01*
X15359Y7928D01*
X15323Y7981D01*
X15278Y8027D01*
X15226Y8062D01*
X15167Y8087D01*
X15104Y8100D01*
X15041Y8100D01*
X14978Y8088D01*
X14919Y8064D01*
X14866Y8029D01*
X14820Y7985D01*
X14784Y7932D01*
X14759Y7874D01*
X14746Y7811D01*
X14745Y7748D01*
X14757Y7685D01*
X14780Y7626D01*
X14815Y7572D01*
X14859Y7527D01*
X14911Y7490D01*
X14970Y7465D01*
X15032Y7451D01*
X15095Y7450D01*
X15158Y7461D01*
X15218Y7484D01*
X15271Y7518D01*
X15317Y7562D01*
X15354Y7614D01*
X15380Y7672D01*
X15394Y7734D01*
X15395Y7807D01*
X15395Y3888D01*
X15383Y3888D01*
X15279Y3868D01*
X15181Y3828D01*
X15092Y3770D01*
X15016Y3696D01*
X14956Y3608D01*
X14927Y3541D01*
X14905Y3596D01*
X14846Y3684D01*
X14771Y3759D01*
X14683Y3819D01*
X14586Y3860D01*
X14482Y3881D01*
X14446Y3881D01*
X14446Y8484D01*
X14434Y8547D01*
X14410Y8605D01*
X14374Y8659D01*
X14330Y8704D01*
X14277Y8739D01*
X14218Y8764D01*
X14171Y8774D01*
X14171Y11059D01*
X14158Y11121D01*
X14134Y11180D01*
X14099Y11233D01*
X14054Y11279D01*
X14033Y11293D01*
X14033Y23330D01*
X14019Y23401D01*
X13992Y23467D01*
X13952Y23526D01*
X13902Y23577D01*
X13843Y23617D01*
X13777Y23644D01*
X13707Y23659D01*
X13636Y23659D01*
X13565Y23646D01*
X13499Y23619D01*
X13439Y23580D01*
X13388Y23530D01*
X13348Y23471D01*
X13320Y23405D01*
X13305Y23336D01*
X13304Y23264D01*
X13317Y23194D01*
X13343Y23128D01*
X13382Y23067D01*
X13432Y23016D01*
X13490Y22975D01*
X13556Y22947D01*
X13625Y22931D01*
X13697Y22930D01*
X13767Y22942D01*
X13834Y22968D01*
X13894Y23006D01*
X13946Y23056D01*
X13987Y23114D01*
X14016Y23179D01*
X14032Y23249D01*
X14033Y23330D01*
X14033Y11293D01*
X14001Y11314D01*
X13974Y11326D01*
X13974Y18594D01*
X13962Y18657D01*
X13937Y18716D01*
X13902Y18769D01*
X13891Y18780D01*
X13891Y20173D01*
X13879Y20236D01*
X13855Y20294D01*
X13819Y20348D01*
X13774Y20393D01*
X13722Y20428D01*
X13663Y20453D01*
X13614Y20463D01*
X13591Y20519D01*
X13556Y20572D01*
X13511Y20617D01*
X13458Y20653D01*
X13399Y20677D01*
X13337Y20690D01*
X13320Y20690D01*
X13320Y22543D01*
X13307Y22613D01*
X13279Y22679D01*
X13240Y22739D01*
X13189Y22789D01*
X13130Y22829D01*
X13064Y22857D01*
X12994Y22871D01*
X12923Y22872D01*
X12853Y22858D01*
X12787Y22832D01*
X12727Y22793D01*
X12676Y22743D01*
X12636Y22684D01*
X12607Y22618D01*
X12593Y22548D01*
X12592Y22477D01*
X12604Y22407D01*
X12631Y22340D01*
X12669Y22280D01*
X12719Y22229D01*
X12778Y22188D01*
X12843Y22159D01*
X12913Y22144D01*
X12984Y22143D01*
X13055Y22155D01*
X13121Y22181D01*
X13181Y22219D01*
X13233Y22268D01*
X13274Y22327D01*
X13303Y22392D01*
X13319Y22462D01*
X13320Y22543D01*
X13320Y20690D01*
X13273Y20691D01*
X13211Y20679D01*
X13151Y20655D01*
X13098Y20620D01*
X13053Y20575D01*
X13017Y20523D01*
X12992Y20464D01*
X12978Y20402D01*
X12977Y20338D01*
X12989Y20276D01*
X13012Y20216D01*
X13047Y20163D01*
X13091Y20117D01*
X13143Y20081D01*
X13202Y20055D01*
X13256Y20043D01*
X13276Y19992D01*
X13311Y19939D01*
X13355Y19893D01*
X13407Y19856D01*
X13466Y19831D01*
X13528Y19817D01*
X13591Y19816D01*
X13654Y19827D01*
X13714Y19850D01*
X13767Y19884D01*
X13813Y19928D01*
X13850Y19980D01*
X13876Y20038D01*
X13890Y20100D01*
X13891Y20173D01*
X13891Y18780D01*
X13857Y18814D01*
X13804Y18850D01*
X13746Y18874D01*
X13683Y18887D01*
X13620Y18888D01*
X13557Y18876D01*
X13498Y18852D01*
X13445Y18817D01*
X13399Y18772D01*
X13363Y18720D01*
X13338Y18661D01*
X13325Y18599D01*
X13324Y18535D01*
X13335Y18473D01*
X13359Y18413D01*
X13393Y18360D01*
X13438Y18314D01*
X13490Y18278D01*
X13548Y18252D01*
X13610Y18238D01*
X13674Y18237D01*
X13737Y18248D01*
X13796Y18271D01*
X13850Y18305D01*
X13896Y18349D01*
X13933Y18401D01*
X13959Y18459D01*
X13973Y18522D01*
X13974Y18594D01*
X13974Y11326D01*
X13942Y11339D01*
X13880Y11352D01*
X13816Y11352D01*
X13776Y11344D01*
X13777Y11386D01*
X13765Y11448D01*
X13740Y11507D01*
X13705Y11560D01*
X13660Y11605D01*
X13607Y11641D01*
X13549Y11666D01*
X13486Y11678D01*
X13423Y11679D01*
X13360Y11667D01*
X13301Y11643D01*
X13248Y11608D01*
X13202Y11564D01*
X13166Y11511D01*
X13141Y11453D01*
X13128Y11390D01*
X13127Y11327D01*
X13139Y11264D01*
X13162Y11205D01*
X13196Y11151D01*
X13241Y11105D01*
X13293Y11069D01*
X13351Y11043D01*
X13414Y11030D01*
X13477Y11028D01*
X13521Y11036D01*
X13521Y11000D01*
X13532Y10937D01*
X13556Y10878D01*
X13590Y10824D01*
X13634Y10779D01*
X13687Y10742D01*
X13745Y10717D01*
X13807Y10703D01*
X13871Y10702D01*
X13934Y10713D01*
X13993Y10736D01*
X14047Y10770D01*
X14093Y10814D01*
X14130Y10866D01*
X14156Y10924D01*
X14170Y10986D01*
X14171Y11059D01*
X14171Y8774D01*
X14156Y8777D01*
X14092Y8777D01*
X14029Y8765D01*
X13970Y8741D01*
X13917Y8707D01*
X13872Y8662D01*
X13836Y8610D01*
X13836Y10488D01*
X13824Y10551D01*
X13799Y10609D01*
X13764Y10662D01*
X13719Y10708D01*
X13667Y10743D01*
X13608Y10768D01*
X13545Y10781D01*
X13538Y10781D01*
X13536Y10791D01*
X13512Y10850D01*
X13477Y10903D01*
X13432Y10948D01*
X13379Y10983D01*
X13320Y11008D01*
X13258Y11021D01*
X13194Y11021D01*
X13132Y11009D01*
X13073Y10986D01*
X13019Y10951D01*
X12974Y10906D01*
X12938Y10854D01*
X12913Y10795D01*
X12900Y10733D01*
X12899Y10669D01*
X12910Y10606D01*
X12934Y10547D01*
X12968Y10494D01*
X13012Y10448D01*
X13065Y10411D01*
X13123Y10386D01*
X13185Y10372D01*
X13197Y10372D01*
X13198Y10366D01*
X13221Y10307D01*
X13256Y10253D01*
X13300Y10208D01*
X13352Y10171D01*
X13410Y10146D01*
X13473Y10132D01*
X13536Y10131D01*
X13599Y10142D01*
X13658Y10165D01*
X13712Y10199D01*
X13758Y10243D01*
X13795Y10295D01*
X13821Y10353D01*
X13835Y10415D01*
X13836Y10488D01*
X13836Y8610D01*
X13836Y8609D01*
X13810Y8551D01*
X13797Y8489D01*
X13796Y8425D01*
X13808Y8362D01*
X13831Y8303D01*
X13866Y8250D01*
X13910Y8204D01*
X13962Y8167D01*
X14021Y8142D01*
X14083Y8128D01*
X14147Y8127D01*
X14209Y8138D01*
X14269Y8161D01*
X14322Y8195D01*
X14369Y8239D01*
X14405Y8291D01*
X14431Y8349D01*
X14445Y8411D01*
X14446Y8484D01*
X14446Y3881D01*
X14375Y3882D01*
X14271Y3862D01*
X14173Y3822D01*
X14084Y3764D01*
X14008Y3690D01*
X13948Y3602D01*
X13925Y3548D01*
X13905Y3596D01*
X13846Y3684D01*
X13771Y3759D01*
X13683Y3819D01*
X13586Y3860D01*
X13482Y3881D01*
X13435Y3882D01*
X13435Y8571D01*
X13422Y8633D01*
X13398Y8692D01*
X13363Y8745D01*
X13318Y8790D01*
X13265Y8826D01*
X13206Y8851D01*
X13144Y8863D01*
X13080Y8864D01*
X13018Y8852D01*
X12959Y8828D01*
X12905Y8793D01*
X12860Y8749D01*
X12824Y8696D01*
X12801Y8642D01*
X12801Y17756D01*
X12788Y17818D01*
X12764Y17877D01*
X12729Y17930D01*
X12684Y17975D01*
X12631Y18011D01*
X12572Y18036D01*
X12557Y18039D01*
X12557Y21043D01*
X12544Y21106D01*
X12520Y21165D01*
X12485Y21218D01*
X12440Y21263D01*
X12387Y21298D01*
X12328Y21323D01*
X12266Y21336D01*
X12202Y21336D01*
X12140Y21324D01*
X12081Y21301D01*
X12027Y21266D01*
X11982Y21221D01*
X11946Y21169D01*
X11921Y21110D01*
X11907Y21048D01*
X11907Y20984D01*
X11918Y20921D01*
X11942Y20862D01*
X11976Y20809D01*
X12020Y20763D01*
X12073Y20726D01*
X12131Y20701D01*
X12193Y20687D01*
X12257Y20686D01*
X12320Y20697D01*
X12379Y20720D01*
X12433Y20754D01*
X12479Y20798D01*
X12516Y20850D01*
X12541Y20908D01*
X12556Y20970D01*
X12557Y21043D01*
X12557Y18039D01*
X12510Y18048D01*
X12446Y18049D01*
X12384Y18037D01*
X12325Y18013D01*
X12271Y17978D01*
X12226Y17934D01*
X12190Y17881D01*
X12165Y17823D01*
X12152Y17760D01*
X12151Y17697D01*
X12162Y17634D01*
X12186Y17575D01*
X12220Y17521D01*
X12264Y17475D01*
X12317Y17439D01*
X12375Y17414D01*
X12437Y17400D01*
X12501Y17398D01*
X12564Y17410D01*
X12623Y17433D01*
X12677Y17467D01*
X12723Y17511D01*
X12760Y17563D01*
X12786Y17621D01*
X12800Y17683D01*
X12801Y17756D01*
X12801Y8642D01*
X12799Y8638D01*
X12785Y8575D01*
X12785Y8512D01*
X12796Y8449D01*
X12819Y8390D01*
X12854Y8336D01*
X12898Y8290D01*
X12951Y8254D01*
X13009Y8228D01*
X13071Y8215D01*
X13135Y8213D01*
X13198Y8225D01*
X13257Y8248D01*
X13311Y8282D01*
X13357Y8326D01*
X13394Y8378D01*
X13419Y8436D01*
X13434Y8498D01*
X13435Y8571D01*
X13435Y3882D01*
X13375Y3882D01*
X13271Y3862D01*
X13173Y3822D01*
X13084Y3764D01*
X13008Y3690D01*
X12948Y3602D01*
X12925Y3548D01*
X12905Y3596D01*
X12846Y3684D01*
X12771Y3759D01*
X12734Y3785D01*
X12734Y6138D01*
X12721Y6200D01*
X12697Y6259D01*
X12662Y6312D01*
X12617Y6357D01*
X12564Y6393D01*
X12505Y6418D01*
X12501Y6418D01*
X12501Y12642D01*
X12489Y12704D01*
X12465Y12763D01*
X12430Y12816D01*
X12385Y12861D01*
X12332Y12897D01*
X12273Y12922D01*
X12211Y12934D01*
X12147Y12935D01*
X12085Y12923D01*
X12025Y12899D01*
X11972Y12864D01*
X11927Y12820D01*
X11891Y12767D01*
X11866Y12708D01*
X11852Y12646D01*
X11851Y12582D01*
X11863Y12520D01*
X11886Y12463D01*
X11863Y12497D01*
X11818Y12542D01*
X11765Y12578D01*
X11706Y12603D01*
X11644Y12615D01*
X11612Y12616D01*
X11612Y19890D01*
X11604Y19929D01*
X11604Y21441D01*
X11591Y21503D01*
X11567Y21562D01*
X11532Y21615D01*
X11487Y21660D01*
X11434Y21696D01*
X11376Y21721D01*
X11313Y21734D01*
X11249Y21734D01*
X11187Y21722D01*
X11128Y21698D01*
X11084Y21670D01*
X11084Y23165D01*
X11072Y23228D01*
X11048Y23287D01*
X11012Y23340D01*
X10967Y23385D01*
X10915Y23420D01*
X10856Y23445D01*
X10793Y23458D01*
X10730Y23458D01*
X10667Y23446D01*
X10608Y23423D01*
X10555Y23388D01*
X10509Y23343D01*
X10473Y23291D01*
X10448Y23232D01*
X10435Y23170D01*
X10434Y23106D01*
X10446Y23043D01*
X10469Y22984D01*
X10504Y22931D01*
X10548Y22885D01*
X10600Y22848D01*
X10658Y22823D01*
X10721Y22809D01*
X10784Y22808D01*
X10847Y22819D01*
X10906Y22842D01*
X10960Y22876D01*
X11006Y22920D01*
X11043Y22972D01*
X11069Y23030D01*
X11083Y23092D01*
X11084Y23165D01*
X11084Y21670D01*
X11075Y21663D01*
X11029Y21619D01*
X10993Y21566D01*
X10968Y21508D01*
X10955Y21445D01*
X10954Y21382D01*
X10965Y21319D01*
X10989Y21260D01*
X11023Y21206D01*
X11067Y21160D01*
X11120Y21124D01*
X11178Y21099D01*
X11240Y21085D01*
X11304Y21084D01*
X11367Y21095D01*
X11426Y21118D01*
X11480Y21152D01*
X11526Y21196D01*
X11563Y21248D01*
X11589Y21306D01*
X11603Y21368D01*
X11604Y21441D01*
X11604Y19929D01*
X11599Y19952D01*
X11575Y20011D01*
X11540Y20064D01*
X11495Y20109D01*
X11442Y20145D01*
X11383Y20170D01*
X11321Y20182D01*
X11257Y20183D01*
X11195Y20171D01*
X11136Y20147D01*
X11082Y20112D01*
X11037Y20068D01*
X11001Y20015D01*
X10976Y19956D01*
X10963Y19894D01*
X10962Y19830D01*
X10973Y19768D01*
X10979Y19753D01*
X10945Y19730D01*
X10899Y19686D01*
X10863Y19633D01*
X10838Y19575D01*
X10825Y19512D01*
X10824Y19449D01*
X10835Y19386D01*
X10859Y19327D01*
X10893Y19273D01*
X10938Y19227D01*
X10990Y19191D01*
X11048Y19165D01*
X11110Y19152D01*
X11174Y19150D01*
X11237Y19162D01*
X11296Y19185D01*
X11350Y19219D01*
X11396Y19263D01*
X11433Y19315D01*
X11459Y19373D01*
X11473Y19435D01*
X11474Y19508D01*
X11462Y19570D01*
X11457Y19581D01*
X11488Y19601D01*
X11534Y19645D01*
X11571Y19697D01*
X11597Y19755D01*
X11611Y19817D01*
X11612Y19890D01*
X11612Y12616D01*
X11580Y12616D01*
X11553Y12611D01*
X11553Y13567D01*
X11540Y13629D01*
X11516Y13688D01*
X11494Y13722D01*
X11494Y16275D01*
X11481Y16338D01*
X11457Y16397D01*
X11422Y16450D01*
X11377Y16495D01*
X11324Y16531D01*
X11265Y16555D01*
X11203Y16568D01*
X11139Y16569D01*
X11077Y16557D01*
X11018Y16533D01*
X10974Y16504D01*
X10974Y18634D01*
X10962Y18696D01*
X10937Y18755D01*
X10902Y18808D01*
X10857Y18853D01*
X10804Y18889D01*
X10746Y18914D01*
X10683Y18926D01*
X10620Y18927D01*
X10557Y18915D01*
X10498Y18891D01*
X10445Y18856D01*
X10399Y18812D01*
X10363Y18759D01*
X10338Y18701D01*
X10325Y18638D01*
X10324Y18575D01*
X10335Y18512D01*
X10359Y18453D01*
X10393Y18399D01*
X10438Y18353D01*
X10490Y18317D01*
X10548Y18291D01*
X10610Y18278D01*
X10674Y18276D01*
X10737Y18288D01*
X10796Y18311D01*
X10850Y18345D01*
X10896Y18389D01*
X10933Y18441D01*
X10959Y18499D01*
X10973Y18561D01*
X10974Y18634D01*
X10974Y16504D01*
X10964Y16498D01*
X10919Y16453D01*
X10883Y16401D01*
X10858Y16342D01*
X10844Y16280D01*
X10844Y16216D01*
X10855Y16154D01*
X10879Y16094D01*
X10913Y16041D01*
X10957Y15995D01*
X11010Y15959D01*
X11068Y15933D01*
X11130Y15920D01*
X11194Y15918D01*
X11257Y15929D01*
X11316Y15952D01*
X11370Y15986D01*
X11416Y16030D01*
X11453Y16082D01*
X11478Y16141D01*
X11493Y16203D01*
X11494Y16275D01*
X11494Y13722D01*
X11481Y13741D01*
X11436Y13786D01*
X11385Y13821D01*
X11386Y13829D01*
X11387Y13901D01*
X11375Y13964D01*
X11351Y14023D01*
X11315Y14076D01*
X11279Y14113D01*
X11286Y14129D01*
X11300Y14191D01*
X11301Y14264D01*
X11288Y14326D01*
X11264Y14385D01*
X11229Y14438D01*
X11184Y14483D01*
X11131Y14519D01*
X11072Y14544D01*
X11010Y14556D01*
X10946Y14557D01*
X10884Y14545D01*
X10825Y14521D01*
X10771Y14486D01*
X10726Y14442D01*
X10690Y14389D01*
X10665Y14330D01*
X10652Y14268D01*
X10651Y14204D01*
X10662Y14142D01*
X10686Y14083D01*
X10720Y14029D01*
X10760Y13988D01*
X10751Y13968D01*
X10738Y13906D01*
X10737Y13842D01*
X10749Y13780D01*
X10772Y13720D01*
X10807Y13667D01*
X10851Y13621D01*
X10903Y13585D01*
X10906Y13583D01*
X10904Y13571D01*
X10903Y13508D01*
X10914Y13445D01*
X10938Y13386D01*
X10972Y13332D01*
X11016Y13286D01*
X11069Y13250D01*
X11127Y13225D01*
X11189Y13211D01*
X11253Y13210D01*
X11316Y13221D01*
X11375Y13244D01*
X11429Y13278D01*
X11475Y13322D01*
X11512Y13374D01*
X11538Y13432D01*
X11552Y13494D01*
X11553Y13567D01*
X11553Y12611D01*
X11518Y12604D01*
X11459Y12580D01*
X11405Y12545D01*
X11387Y12527D01*
X11362Y12586D01*
X11327Y12639D01*
X11282Y12684D01*
X11230Y12720D01*
X11171Y12744D01*
X11108Y12757D01*
X11045Y12758D01*
X10982Y12746D01*
X10923Y12722D01*
X10870Y12687D01*
X10824Y12642D01*
X10792Y12596D01*
X10734Y12608D01*
X10671Y12608D01*
X10639Y12602D01*
X10639Y17126D01*
X10627Y17188D01*
X10603Y17247D01*
X10567Y17300D01*
X10522Y17345D01*
X10470Y17381D01*
X10411Y17406D01*
X10349Y17419D01*
X10285Y17419D01*
X10234Y17409D01*
X10274Y17448D01*
X10311Y17500D01*
X10337Y17558D01*
X10351Y17620D01*
X10352Y17693D01*
X10340Y17755D01*
X10315Y17814D01*
X10280Y17867D01*
X10235Y17912D01*
X10182Y17948D01*
X10124Y17973D01*
X10061Y17986D01*
X9997Y17986D01*
X9935Y17974D01*
X9883Y17953D01*
X9883Y20838D01*
X9871Y20901D01*
X9847Y20960D01*
X9811Y21013D01*
X9767Y21058D01*
X9714Y21094D01*
X9655Y21118D01*
X9647Y21120D01*
X9647Y22838D01*
X9633Y22908D01*
X9606Y22974D01*
X9567Y23034D01*
X9516Y23085D01*
X9457Y23125D01*
X9391Y23152D01*
X9321Y23167D01*
X9250Y23167D01*
X9180Y23154D01*
X9113Y23127D01*
X9054Y23088D01*
X9003Y23038D01*
X8962Y22979D01*
X8934Y22913D01*
X8919Y22843D01*
X8918Y22772D01*
X8931Y22702D01*
X8957Y22635D01*
X8996Y22575D01*
X9046Y22524D01*
X9104Y22483D01*
X9170Y22455D01*
X9240Y22439D01*
X9311Y22438D01*
X9381Y22450D01*
X9448Y22476D01*
X9508Y22514D01*
X9560Y22564D01*
X9601Y22622D01*
X9630Y22687D01*
X9646Y22757D01*
X9647Y22838D01*
X9647Y21120D01*
X9593Y21131D01*
X9529Y21132D01*
X9466Y21120D01*
X9407Y21096D01*
X9354Y21061D01*
X9309Y21016D01*
X9273Y20964D01*
X9247Y20905D01*
X9234Y20843D01*
X9233Y20779D01*
X9245Y20717D01*
X9268Y20657D01*
X9303Y20604D01*
X9347Y20558D01*
X9399Y20522D01*
X9458Y20496D01*
X9520Y20483D01*
X9584Y20481D01*
X9646Y20492D01*
X9706Y20515D01*
X9759Y20549D01*
X9806Y20593D01*
X9842Y20645D01*
X9868Y20704D01*
X9882Y20766D01*
X9883Y20838D01*
X9883Y17953D01*
X9876Y17950D01*
X9823Y17915D01*
X9777Y17871D01*
X9741Y17818D01*
X9716Y17760D01*
X9703Y17697D01*
X9702Y17634D01*
X9713Y17571D01*
X9737Y17512D01*
X9771Y17458D01*
X9816Y17412D01*
X9868Y17376D01*
X9926Y17351D01*
X9988Y17337D01*
X10052Y17336D01*
X10107Y17345D01*
X10064Y17304D01*
X10028Y17251D01*
X10003Y17193D01*
X9990Y17130D01*
X9989Y17067D01*
X10001Y17004D01*
X10024Y16945D01*
X10059Y16891D01*
X10103Y16845D01*
X10155Y16809D01*
X10214Y16784D01*
X10276Y16770D01*
X10339Y16769D01*
X10402Y16780D01*
X10462Y16803D01*
X10515Y16837D01*
X10562Y16881D01*
X10598Y16933D01*
X10624Y16991D01*
X10638Y17053D01*
X10639Y17126D01*
X10639Y12602D01*
X10608Y12596D01*
X10549Y12572D01*
X10496Y12537D01*
X10450Y12493D01*
X10414Y12440D01*
X10389Y12382D01*
X10376Y12319D01*
X10375Y12256D01*
X10387Y12193D01*
X10410Y12134D01*
X10445Y12080D01*
X10489Y12034D01*
X10541Y11998D01*
X10599Y11973D01*
X10662Y11959D01*
X10725Y11958D01*
X10788Y11969D01*
X10847Y11992D01*
X10901Y12026D01*
X10947Y12070D01*
X10983Y12120D01*
X11036Y12108D01*
X11099Y12107D01*
X11162Y12118D01*
X11221Y12141D01*
X11275Y12175D01*
X11298Y12197D01*
X11319Y12142D01*
X11354Y12088D01*
X11398Y12042D01*
X11438Y12014D01*
X11406Y11968D01*
X11381Y11909D01*
X11368Y11847D01*
X11367Y11783D01*
X11379Y11721D01*
X11402Y11661D01*
X11437Y11608D01*
X11481Y11562D01*
X11533Y11526D01*
X11592Y11500D01*
X11654Y11486D01*
X11717Y11485D01*
X11780Y11496D01*
X11840Y11519D01*
X11893Y11553D01*
X11939Y11597D01*
X11976Y11649D01*
X12002Y11708D01*
X12016Y11770D01*
X12017Y11842D01*
X12005Y11905D01*
X11981Y11964D01*
X11945Y12017D01*
X11900Y12062D01*
X11863Y12087D01*
X11894Y12130D01*
X11919Y12188D01*
X11934Y12250D01*
X11935Y12323D01*
X11922Y12385D01*
X11900Y12440D01*
X11921Y12407D01*
X11965Y12361D01*
X12017Y12325D01*
X12076Y12299D01*
X12138Y12286D01*
X12202Y12284D01*
X12264Y12295D01*
X12324Y12318D01*
X12378Y12353D01*
X12424Y12396D01*
X12460Y12449D01*
X12486Y12507D01*
X12500Y12569D01*
X12501Y12642D01*
X12501Y6418D01*
X12443Y6430D01*
X12379Y6431D01*
X12317Y6419D01*
X12258Y6395D01*
X12204Y6360D01*
X12202Y6358D01*
X12202Y8437D01*
X12190Y8499D01*
X12166Y8558D01*
X12130Y8611D01*
X12085Y8656D01*
X12033Y8692D01*
X11974Y8717D01*
X11951Y8721D01*
X11958Y8724D01*
X12011Y8758D01*
X12058Y8802D01*
X12094Y8854D01*
X12120Y8912D01*
X12134Y8974D01*
X12135Y9047D01*
X12123Y9110D01*
X12099Y9168D01*
X12063Y9222D01*
X12019Y9267D01*
X11966Y9302D01*
X11907Y9327D01*
X11845Y9340D01*
X11781Y9340D01*
X11718Y9328D01*
X11659Y9304D01*
X11606Y9270D01*
X11561Y9225D01*
X11525Y9172D01*
X11499Y9114D01*
X11486Y9052D01*
X11485Y8988D01*
X11497Y8925D01*
X11520Y8866D01*
X11555Y8813D01*
X11599Y8767D01*
X11651Y8730D01*
X11710Y8705D01*
X11737Y8699D01*
X11726Y8694D01*
X11673Y8659D01*
X11627Y8615D01*
X11591Y8562D01*
X11566Y8504D01*
X11553Y8441D01*
X11552Y8378D01*
X11564Y8315D01*
X11587Y8256D01*
X11622Y8202D01*
X11664Y8159D01*
X11612Y8159D01*
X11549Y8147D01*
X11490Y8123D01*
X11437Y8089D01*
X11391Y8044D01*
X11355Y7991D01*
X11330Y7933D01*
X11317Y7871D01*
X11316Y7807D01*
X11328Y7744D01*
X11351Y7685D01*
X11385Y7631D01*
X11430Y7586D01*
X11482Y7549D01*
X11540Y7524D01*
X11603Y7510D01*
X11666Y7509D01*
X11729Y7520D01*
X11788Y7543D01*
X11842Y7577D01*
X11888Y7621D01*
X11925Y7673D01*
X11951Y7731D01*
X11965Y7793D01*
X11966Y7866D01*
X11954Y7928D01*
X11929Y7987D01*
X11894Y8040D01*
X11854Y8081D01*
X11902Y8080D01*
X11965Y8091D01*
X12025Y8114D01*
X12078Y8148D01*
X12125Y8192D01*
X12161Y8244D01*
X12187Y8302D01*
X12201Y8364D01*
X12202Y8437D01*
X12202Y6358D01*
X12159Y6316D01*
X12123Y6263D01*
X12098Y6204D01*
X12085Y6142D01*
X12084Y6078D01*
X12095Y6016D01*
X12119Y5957D01*
X12153Y5903D01*
X12197Y5857D01*
X12250Y5821D01*
X12308Y5795D01*
X12370Y5782D01*
X12434Y5780D01*
X12497Y5791D01*
X12556Y5814D01*
X12610Y5849D01*
X12656Y5893D01*
X12693Y5945D01*
X12719Y6003D01*
X12733Y6065D01*
X12734Y6138D01*
X12734Y3785D01*
X12683Y3819D01*
X12586Y3860D01*
X12482Y3881D01*
X12375Y3882D01*
X12271Y3862D01*
X12173Y3822D01*
X12084Y3764D01*
X12008Y3690D01*
X11948Y3602D01*
X11925Y3548D01*
X11905Y3596D01*
X11846Y3684D01*
X11771Y3759D01*
X11683Y3819D01*
X11586Y3860D01*
X11482Y3881D01*
X11375Y3882D01*
X11271Y3862D01*
X11173Y3822D01*
X11084Y3764D01*
X11008Y3690D01*
X10948Y3602D01*
X10925Y3548D01*
X10905Y3596D01*
X10846Y3684D01*
X10771Y3759D01*
X10683Y3819D01*
X10586Y3860D01*
X10482Y3881D01*
X10375Y3882D01*
X10271Y3862D01*
X10173Y3822D01*
X10084Y3764D01*
X10008Y3690D01*
X9966Y3629D01*
X9966Y6480D01*
X9962Y6500D01*
X9962Y16496D01*
X9950Y16558D01*
X9925Y16617D01*
X9890Y16670D01*
X9885Y16676D01*
X9896Y16700D01*
X9910Y16762D01*
X9911Y16834D01*
X9899Y16897D01*
X9874Y16956D01*
X9839Y17009D01*
X9794Y17054D01*
X9741Y17090D01*
X9683Y17114D01*
X9620Y17127D01*
X9557Y17128D01*
X9494Y17116D01*
X9435Y17092D01*
X9382Y17057D01*
X9336Y17012D01*
X9300Y16960D01*
X9275Y16901D01*
X9262Y16839D01*
X9261Y16775D01*
X9262Y16769D01*
X9257Y16769D01*
X9195Y16757D01*
X9136Y16734D01*
X9082Y16699D01*
X9037Y16654D01*
X9001Y16602D01*
X8976Y16543D01*
X8963Y16481D01*
X8962Y16417D01*
X8973Y16354D01*
X8997Y16295D01*
X9031Y16242D01*
X9075Y16196D01*
X9128Y16159D01*
X9186Y16134D01*
X9248Y16120D01*
X9312Y16119D01*
X9375Y16130D01*
X9434Y16153D01*
X9477Y16180D01*
X9478Y16179D01*
X9536Y16154D01*
X9599Y16140D01*
X9662Y16139D01*
X9725Y16150D01*
X9784Y16173D01*
X9838Y16207D01*
X9884Y16251D01*
X9921Y16303D01*
X9947Y16361D01*
X9961Y16423D01*
X9962Y16496D01*
X9962Y6500D01*
X9954Y6543D01*
X9929Y6602D01*
X9894Y6655D01*
X9849Y6700D01*
X9796Y6735D01*
X9738Y6760D01*
X9675Y6773D01*
X9612Y6773D01*
X9592Y6770D01*
X9592Y12464D01*
X9580Y12527D01*
X9555Y12586D01*
X9521Y12637D01*
X9521Y14012D01*
X9509Y14074D01*
X9485Y14133D01*
X9449Y14186D01*
X9404Y14231D01*
X9352Y14267D01*
X9293Y14292D01*
X9230Y14304D01*
X9167Y14305D01*
X9104Y14293D01*
X9045Y14269D01*
X8992Y14234D01*
X8946Y14190D01*
X8910Y14137D01*
X8885Y14079D01*
X8879Y14051D01*
X8879Y14787D01*
X8867Y14850D01*
X8843Y14909D01*
X8808Y14962D01*
X8763Y15007D01*
X8710Y15043D01*
X8651Y15067D01*
X8596Y15079D01*
X8596Y15795D01*
X8584Y15858D01*
X8559Y15917D01*
X8557Y15921D01*
X8557Y21134D01*
X8544Y21196D01*
X8520Y21255D01*
X8485Y21308D01*
X8440Y21353D01*
X8387Y21389D01*
X8328Y21414D01*
X8266Y21426D01*
X8202Y21427D01*
X8140Y21415D01*
X8081Y21391D01*
X8027Y21356D01*
X7982Y21312D01*
X7946Y21259D01*
X7921Y21201D01*
X7907Y21138D01*
X7907Y21075D01*
X7918Y21012D01*
X7942Y20953D01*
X7976Y20899D01*
X8020Y20853D01*
X8073Y20817D01*
X8131Y20791D01*
X8193Y20778D01*
X8257Y20776D01*
X8320Y20788D01*
X8379Y20811D01*
X8433Y20845D01*
X8479Y20889D01*
X8516Y20941D01*
X8541Y20999D01*
X8556Y21061D01*
X8557Y21134D01*
X8557Y15921D01*
X8524Y15970D01*
X8479Y16015D01*
X8426Y16050D01*
X8368Y16075D01*
X8305Y16088D01*
X8242Y16088D01*
X8218Y16084D01*
X8218Y16106D01*
X8206Y16169D01*
X8181Y16228D01*
X8146Y16281D01*
X8145Y16282D01*
X8167Y16333D01*
X8182Y16396D01*
X8183Y16468D01*
X8182Y16470D01*
X8233Y16469D01*
X8296Y16480D01*
X8355Y16503D01*
X8409Y16538D01*
X8455Y16582D01*
X8492Y16634D01*
X8518Y16692D01*
X8532Y16754D01*
X8533Y16827D01*
X8521Y16889D01*
X8496Y16948D01*
X8461Y17001D01*
X8416Y17046D01*
X8363Y17082D01*
X8305Y17107D01*
X8242Y17119D01*
X8179Y17120D01*
X8116Y17108D01*
X8078Y17093D01*
X8090Y17122D01*
X8098Y17158D01*
X8098Y17195D01*
X8091Y17231D01*
X8077Y17265D01*
X8057Y17295D01*
X8031Y17321D01*
X7624Y17729D01*
X7624Y22295D01*
X7611Y22358D01*
X7587Y22417D01*
X7552Y22470D01*
X7507Y22515D01*
X7454Y22550D01*
X7395Y22575D01*
X7333Y22588D01*
X7269Y22588D01*
X7207Y22576D01*
X7148Y22553D01*
X7094Y22518D01*
X7049Y22473D01*
X7013Y22421D01*
X6988Y22362D01*
X6974Y22300D01*
X6973Y22236D01*
X6985Y22173D01*
X7008Y22114D01*
X7043Y22061D01*
X7087Y22015D01*
X7139Y21978D01*
X7198Y21953D01*
X7260Y21939D01*
X7324Y21938D01*
X7386Y21949D01*
X7446Y21972D01*
X7500Y22006D01*
X7546Y22050D01*
X7582Y22102D01*
X7608Y22160D01*
X7623Y22222D01*
X7624Y22295D01*
X7624Y17729D01*
X7606Y17746D01*
X7575Y17767D01*
X7541Y17781D01*
X7505Y17788D01*
X7469Y17788D01*
X7433Y17781D01*
X7399Y17767D01*
X7368Y17747D01*
X7342Y17722D01*
X7268Y17648D01*
X7268Y17885D01*
X7260Y17979D01*
X7232Y18070D01*
X7188Y18154D01*
X7128Y18228D01*
X7055Y18289D01*
X6972Y18335D01*
X6881Y18363D01*
X6787Y18373D01*
X6692Y18365D01*
X6601Y18338D01*
X6516Y18295D01*
X6497Y18279D01*
X6489Y18318D01*
X6465Y18377D01*
X6430Y18430D01*
X6385Y18475D01*
X6332Y18511D01*
X6285Y18531D01*
X6285Y23315D01*
X6271Y23385D01*
X6244Y23451D01*
X6204Y23510D01*
X6154Y23561D01*
X6095Y23601D01*
X6029Y23629D01*
X5959Y23643D01*
X5888Y23643D01*
X5817Y23630D01*
X5751Y23603D01*
X5691Y23564D01*
X5640Y23514D01*
X5600Y23455D01*
X5572Y23390D01*
X5557Y23320D01*
X5556Y23248D01*
X5569Y23178D01*
X5595Y23112D01*
X5634Y23052D01*
X5684Y23000D01*
X5742Y22960D01*
X5808Y22931D01*
X5877Y22916D01*
X5949Y22914D01*
X6019Y22927D01*
X6086Y22952D01*
X6146Y22991D01*
X6198Y23040D01*
X6239Y23098D01*
X6268Y23164D01*
X6284Y23233D01*
X6285Y23315D01*
X6285Y18531D01*
X6273Y18536D01*
X6211Y18548D01*
X6147Y18549D01*
X6085Y18537D01*
X6064Y18529D01*
X6064Y20827D01*
X6051Y20897D01*
X6023Y20963D01*
X5984Y21022D01*
X5934Y21073D01*
X5890Y21102D01*
X5908Y21141D01*
X5922Y21203D01*
X5923Y21275D01*
X5910Y21338D01*
X5886Y21397D01*
X5851Y21450D01*
X5806Y21495D01*
X5753Y21531D01*
X5694Y21555D01*
X5632Y21568D01*
X5568Y21569D01*
X5506Y21557D01*
X5447Y21533D01*
X5393Y21498D01*
X5348Y21453D01*
X5313Y21402D01*
X5313Y23445D01*
X5299Y23515D01*
X5271Y23581D01*
X5232Y23640D01*
X5182Y23691D01*
X5122Y23731D01*
X5057Y23759D01*
X4987Y23773D01*
X4915Y23773D01*
X4845Y23760D01*
X4779Y23733D01*
X4719Y23694D01*
X4668Y23644D01*
X4628Y23585D01*
X4600Y23520D01*
X4585Y23450D01*
X4584Y23378D01*
X4597Y23308D01*
X4623Y23242D01*
X4662Y23182D01*
X4711Y23130D01*
X4770Y23090D01*
X4835Y23061D01*
X4905Y23046D01*
X4976Y23044D01*
X5047Y23056D01*
X5113Y23082D01*
X5174Y23121D01*
X5225Y23170D01*
X5266Y23228D01*
X5296Y23293D01*
X5311Y23363D01*
X5313Y23445D01*
X5313Y21402D01*
X5312Y21401D01*
X5287Y21342D01*
X5274Y21280D01*
X5273Y21216D01*
X5284Y21154D01*
X5308Y21094D01*
X5342Y21041D01*
X5386Y20995D01*
X5395Y20989D01*
X5380Y20967D01*
X5351Y20901D01*
X5337Y20832D01*
X5336Y20760D01*
X5349Y20690D01*
X5375Y20624D01*
X5414Y20564D01*
X5463Y20512D01*
X5522Y20471D01*
X5587Y20443D01*
X5657Y20427D01*
X5728Y20426D01*
X5799Y20438D01*
X5865Y20464D01*
X5926Y20502D01*
X5977Y20552D01*
X6018Y20610D01*
X6048Y20675D01*
X6063Y20745D01*
X6064Y20827D01*
X6064Y18529D01*
X6025Y18513D01*
X5972Y18478D01*
X5927Y18434D01*
X5891Y18381D01*
X5866Y18323D01*
X5852Y18260D01*
X5851Y18197D01*
X5863Y18134D01*
X5886Y18075D01*
X5921Y18021D01*
X5965Y17975D01*
X6017Y17939D01*
X6076Y17914D01*
X6138Y17900D01*
X6149Y17900D01*
X6140Y17881D01*
X6112Y17790D01*
X6102Y17697D01*
X6062Y17689D01*
X5995Y17662D01*
X5936Y17623D01*
X5885Y17573D01*
X5844Y17514D01*
X5816Y17449D01*
X5801Y17379D01*
X5800Y17307D01*
X5813Y17237D01*
X5839Y17171D01*
X5878Y17111D01*
X5928Y17059D01*
X5986Y17019D01*
X6052Y16990D01*
X6122Y16975D01*
X6193Y16973D01*
X6263Y16986D01*
X6330Y17011D01*
X6390Y17050D01*
X6442Y17099D01*
X6483Y17157D01*
X6509Y17215D01*
X6584Y17207D01*
X6679Y17215D01*
X6770Y17242D01*
X6854Y17285D01*
X6929Y17345D01*
X6934Y17350D01*
X7126Y17542D01*
X7186Y17615D01*
X7231Y17699D01*
X7259Y17790D01*
X7268Y17885D01*
X7268Y17648D01*
X6729Y17108D01*
X6709Y17078D01*
X6694Y17044D01*
X6687Y17008D01*
X6687Y16971D01*
X6694Y16935D01*
X6708Y16901D01*
X6728Y16871D01*
X6754Y16845D01*
X7179Y16419D01*
X7210Y16399D01*
X7243Y16385D01*
X7279Y16378D01*
X7316Y16378D01*
X7352Y16385D01*
X7386Y16398D01*
X7417Y16419D01*
X7443Y16444D01*
X7557Y16558D01*
X7547Y16535D01*
X7533Y16473D01*
X7533Y16409D01*
X7544Y16347D01*
X7567Y16287D01*
X7602Y16234D01*
X7606Y16229D01*
X7582Y16173D01*
X7569Y16111D01*
X7568Y16047D01*
X7579Y15984D01*
X7603Y15925D01*
X7637Y15872D01*
X7682Y15826D01*
X7734Y15789D01*
X7792Y15764D01*
X7855Y15750D01*
X7918Y15749D01*
X7946Y15754D01*
X7946Y15736D01*
X7957Y15673D01*
X7981Y15614D01*
X8015Y15561D01*
X8060Y15515D01*
X8112Y15478D01*
X8170Y15453D01*
X8233Y15439D01*
X8296Y15438D01*
X8359Y15449D01*
X8418Y15472D01*
X8472Y15506D01*
X8518Y15550D01*
X8555Y15602D01*
X8581Y15660D01*
X8595Y15722D01*
X8596Y15795D01*
X8596Y15079D01*
X8589Y15080D01*
X8525Y15080D01*
X8462Y15069D01*
X8403Y15045D01*
X8350Y15010D01*
X8305Y14965D01*
X8288Y14942D01*
X8289Y14972D01*
X8277Y15035D01*
X8252Y15094D01*
X8217Y15147D01*
X8172Y15192D01*
X8119Y15228D01*
X8061Y15252D01*
X7998Y15265D01*
X7934Y15265D01*
X7872Y15254D01*
X7813Y15230D01*
X7760Y15195D01*
X7714Y15150D01*
X7678Y15098D01*
X7653Y15039D01*
X7640Y14977D01*
X7639Y14913D01*
X7650Y14850D01*
X7674Y14791D01*
X7708Y14738D01*
X7753Y14692D01*
X7805Y14656D01*
X7863Y14630D01*
X7925Y14616D01*
X7989Y14615D01*
X8052Y14626D01*
X8111Y14649D01*
X8165Y14683D01*
X8211Y14727D01*
X8230Y14754D01*
X8229Y14728D01*
X8241Y14665D01*
X8264Y14606D01*
X8280Y14582D01*
X8253Y14543D01*
X8228Y14484D01*
X8215Y14422D01*
X8214Y14358D01*
X8225Y14295D01*
X8249Y14236D01*
X8283Y14183D01*
X8327Y14137D01*
X8380Y14100D01*
X8438Y14075D01*
X8500Y14061D01*
X8564Y14060D01*
X8627Y14071D01*
X8686Y14094D01*
X8740Y14128D01*
X8786Y14172D01*
X8823Y14224D01*
X8849Y14282D01*
X8863Y14344D01*
X8864Y14417D01*
X8851Y14480D01*
X8827Y14539D01*
X8814Y14559D01*
X8838Y14594D01*
X8864Y14652D01*
X8878Y14715D01*
X8879Y14787D01*
X8879Y14051D01*
X8872Y14016D01*
X8871Y13953D01*
X8883Y13890D01*
X8906Y13831D01*
X8941Y13777D01*
X8985Y13731D01*
X9037Y13695D01*
X9095Y13669D01*
X9158Y13656D01*
X9221Y13654D01*
X9284Y13665D01*
X9344Y13688D01*
X9397Y13723D01*
X9443Y13767D01*
X9480Y13819D01*
X9506Y13877D01*
X9520Y13939D01*
X9521Y14012D01*
X9521Y12637D01*
X9520Y12639D01*
X9475Y12684D01*
X9422Y12720D01*
X9364Y12744D01*
X9301Y12757D01*
X9238Y12758D01*
X9175Y12746D01*
X9116Y12722D01*
X9063Y12687D01*
X9017Y12642D01*
X8981Y12590D01*
X8958Y12536D01*
X8958Y12539D01*
X8933Y12598D01*
X8898Y12651D01*
X8853Y12696D01*
X8800Y12731D01*
X8742Y12756D01*
X8679Y12769D01*
X8616Y12769D01*
X8553Y12757D01*
X8494Y12734D01*
X8441Y12699D01*
X8395Y12654D01*
X8359Y12602D01*
X8334Y12543D01*
X8321Y12481D01*
X8320Y12417D01*
X8331Y12354D01*
X8355Y12295D01*
X8389Y12242D01*
X8434Y12196D01*
X8486Y12159D01*
X8544Y12134D01*
X8607Y12120D01*
X8670Y12119D01*
X8733Y12130D01*
X8792Y12153D01*
X8846Y12187D01*
X8892Y12231D01*
X8929Y12283D01*
X8954Y12340D01*
X8977Y12283D01*
X9011Y12230D01*
X9056Y12184D01*
X9108Y12148D01*
X9166Y12122D01*
X9229Y12108D01*
X9292Y12107D01*
X9355Y12118D01*
X9414Y12141D01*
X9468Y12175D01*
X9514Y12219D01*
X9551Y12271D01*
X9577Y12330D01*
X9591Y12392D01*
X9592Y12464D01*
X9592Y6770D01*
X9549Y6761D01*
X9490Y6738D01*
X9437Y6703D01*
X9391Y6658D01*
X9355Y6606D01*
X9330Y6547D01*
X9317Y6485D01*
X9316Y6421D01*
X9328Y6358D01*
X9351Y6299D01*
X9385Y6246D01*
X9430Y6200D01*
X9482Y6163D01*
X9540Y6138D01*
X9603Y6124D01*
X9666Y6123D01*
X9729Y6134D01*
X9788Y6157D01*
X9842Y6191D01*
X9888Y6235D01*
X9925Y6287D01*
X9951Y6345D01*
X9965Y6407D01*
X9966Y6480D01*
X9966Y3629D01*
X9948Y3602D01*
X9925Y3548D01*
X9905Y3596D01*
X9846Y3684D01*
X9771Y3759D01*
X9683Y3819D01*
X9586Y3860D01*
X9482Y3881D01*
X9375Y3882D01*
X9271Y3862D01*
X9173Y3822D01*
X9084Y3764D01*
X9008Y3690D01*
X8982Y3652D01*
X8982Y6429D01*
X8969Y6491D01*
X8945Y6550D01*
X8910Y6603D01*
X8865Y6649D01*
X8812Y6684D01*
X8753Y6709D01*
X8691Y6722D01*
X8627Y6722D01*
X8565Y6710D01*
X8506Y6686D01*
X8452Y6651D01*
X8407Y6607D01*
X8371Y6554D01*
X8346Y6496D01*
X8333Y6434D01*
X8332Y6370D01*
X8343Y6307D01*
X8367Y6248D01*
X8401Y6194D01*
X8445Y6149D01*
X8498Y6112D01*
X8556Y6087D01*
X8618Y6073D01*
X8682Y6072D01*
X8745Y6083D01*
X8804Y6106D01*
X8858Y6140D01*
X8904Y6184D01*
X8941Y6236D01*
X8967Y6294D01*
X8981Y6356D01*
X8982Y6429D01*
X8982Y3652D01*
X8948Y3602D01*
X8925Y3548D01*
X8905Y3596D01*
X8846Y3684D01*
X8771Y3759D01*
X8683Y3819D01*
X8586Y3860D01*
X8482Y3881D01*
X8375Y3882D01*
X8271Y3862D01*
X8230Y3845D01*
X8230Y12527D01*
X8217Y12590D01*
X8193Y12649D01*
X8158Y12702D01*
X8113Y12747D01*
X8060Y12783D01*
X8002Y12807D01*
X7939Y12820D01*
X7875Y12821D01*
X7813Y12809D01*
X7754Y12785D01*
X7701Y12750D01*
X7655Y12705D01*
X7619Y12653D01*
X7594Y12594D01*
X7581Y12532D01*
X7580Y12468D01*
X7591Y12406D01*
X7615Y12346D01*
X7649Y12293D01*
X7693Y12247D01*
X7746Y12211D01*
X7804Y12185D01*
X7866Y12171D01*
X7930Y12170D01*
X7993Y12181D01*
X8052Y12204D01*
X8106Y12238D01*
X8152Y12282D01*
X8189Y12334D01*
X8215Y12393D01*
X8229Y12455D01*
X8230Y12527D01*
X8230Y3845D01*
X8173Y3822D01*
X8084Y3764D01*
X8033Y3714D01*
X8033Y9842D01*
X8021Y9905D01*
X7996Y9964D01*
X7961Y10017D01*
X7916Y10062D01*
X7863Y10098D01*
X7805Y10122D01*
X7742Y10135D01*
X7722Y10135D01*
X7722Y11334D01*
X7710Y11397D01*
X7685Y11456D01*
X7650Y11509D01*
X7605Y11554D01*
X7552Y11590D01*
X7494Y11614D01*
X7431Y11627D01*
X7368Y11628D01*
X7352Y11625D01*
X7352Y11988D01*
X7340Y12051D01*
X7315Y12109D01*
X7280Y12162D01*
X7235Y12208D01*
X7234Y12209D01*
X7234Y12657D01*
X7221Y12720D01*
X7197Y12779D01*
X7162Y12832D01*
X7117Y12877D01*
X7064Y12913D01*
X7057Y12916D01*
X7057Y13457D01*
X7044Y13519D01*
X7020Y13578D01*
X6985Y13631D01*
X6940Y13676D01*
X6923Y13688D01*
X6923Y14957D01*
X6910Y15019D01*
X6886Y15078D01*
X6851Y15131D01*
X6820Y15162D01*
X6820Y15618D01*
X6808Y15680D01*
X6784Y15739D01*
X6748Y15792D01*
X6704Y15838D01*
X6651Y15873D01*
X6592Y15898D01*
X6530Y15911D01*
X6466Y15911D01*
X6403Y15899D01*
X6344Y15875D01*
X6291Y15840D01*
X6246Y15796D01*
X6210Y15743D01*
X6184Y15685D01*
X6171Y15622D01*
X6170Y15559D01*
X6182Y15496D01*
X6205Y15437D01*
X6240Y15383D01*
X6284Y15338D01*
X6336Y15301D01*
X6395Y15276D01*
X6457Y15262D01*
X6521Y15261D01*
X6583Y15272D01*
X6643Y15295D01*
X6696Y15329D01*
X6743Y15373D01*
X6779Y15425D01*
X6805Y15483D01*
X6819Y15545D01*
X6820Y15618D01*
X6820Y15162D01*
X6806Y15176D01*
X6753Y15212D01*
X6694Y15236D01*
X6632Y15249D01*
X6568Y15250D01*
X6506Y15238D01*
X6447Y15214D01*
X6393Y15179D01*
X6348Y15134D01*
X6312Y15082D01*
X6287Y15023D01*
X6274Y14961D01*
X6273Y14897D01*
X6284Y14835D01*
X6308Y14776D01*
X6342Y14722D01*
X6386Y14676D01*
X6439Y14640D01*
X6497Y14614D01*
X6559Y14601D01*
X6623Y14599D01*
X6686Y14610D01*
X6745Y14633D01*
X6799Y14668D01*
X6845Y14711D01*
X6882Y14763D01*
X6908Y14822D01*
X6922Y14884D01*
X6923Y14957D01*
X6923Y13688D01*
X6887Y13712D01*
X6828Y13736D01*
X6766Y13749D01*
X6702Y13750D01*
X6640Y13738D01*
X6581Y13714D01*
X6527Y13679D01*
X6482Y13634D01*
X6446Y13582D01*
X6421Y13523D01*
X6407Y13461D01*
X6407Y13397D01*
X6418Y13335D01*
X6442Y13276D01*
X6476Y13222D01*
X6520Y13176D01*
X6573Y13140D01*
X6631Y13114D01*
X6693Y13101D01*
X6757Y13099D01*
X6820Y13110D01*
X6879Y13133D01*
X6933Y13168D01*
X6979Y13211D01*
X7016Y13263D01*
X7041Y13322D01*
X7056Y13384D01*
X7057Y13457D01*
X7057Y12916D01*
X7005Y12937D01*
X6943Y12950D01*
X6879Y12951D01*
X6817Y12939D01*
X6758Y12915D01*
X6704Y12880D01*
X6659Y12835D01*
X6623Y12783D01*
X6598Y12724D01*
X6585Y12662D01*
X6584Y12598D01*
X6595Y12536D01*
X6619Y12476D01*
X6653Y12423D01*
X6697Y12377D01*
X6750Y12341D01*
X6808Y12315D01*
X6870Y12301D01*
X6934Y12300D01*
X6997Y12311D01*
X7056Y12334D01*
X7110Y12368D01*
X7156Y12412D01*
X7193Y12464D01*
X7219Y12522D01*
X7233Y12585D01*
X7234Y12657D01*
X7234Y12209D01*
X7182Y12243D01*
X7124Y12268D01*
X7061Y12281D01*
X6997Y12281D01*
X6935Y12269D01*
X6876Y12245D01*
X6823Y12211D01*
X6777Y12166D01*
X6741Y12113D01*
X6716Y12055D01*
X6703Y11993D01*
X6702Y11929D01*
X6713Y11866D01*
X6737Y11807D01*
X6771Y11753D01*
X6816Y11708D01*
X6868Y11671D01*
X6926Y11646D01*
X6988Y11632D01*
X7052Y11631D01*
X7115Y11642D01*
X7174Y11665D01*
X7228Y11699D01*
X7274Y11743D01*
X7311Y11795D01*
X7337Y11853D01*
X7351Y11915D01*
X7352Y11988D01*
X7352Y11625D01*
X7305Y11616D01*
X7246Y11592D01*
X7193Y11557D01*
X7147Y11512D01*
X7111Y11460D01*
X7086Y11401D01*
X7073Y11339D01*
X7072Y11275D01*
X7083Y11213D01*
X7107Y11153D01*
X7141Y11100D01*
X7186Y11054D01*
X7238Y11018D01*
X7296Y10992D01*
X7358Y10979D01*
X7422Y10977D01*
X7485Y10988D01*
X7544Y11011D01*
X7598Y11045D01*
X7644Y11089D01*
X7681Y11141D01*
X7707Y11200D01*
X7721Y11262D01*
X7722Y11334D01*
X7722Y10135D01*
X7679Y10136D01*
X7655Y10131D01*
X7655Y10453D01*
X7643Y10515D01*
X7618Y10574D01*
X7583Y10627D01*
X7538Y10672D01*
X7485Y10708D01*
X7427Y10733D01*
X7364Y10745D01*
X7301Y10746D01*
X7238Y10734D01*
X7179Y10710D01*
X7126Y10675D01*
X7080Y10631D01*
X7044Y10578D01*
X7019Y10519D01*
X7006Y10457D01*
X7005Y10393D01*
X7016Y10331D01*
X7040Y10272D01*
X7074Y10218D01*
X7119Y10172D01*
X7171Y10136D01*
X7229Y10110D01*
X7292Y10097D01*
X7355Y10095D01*
X7418Y10106D01*
X7477Y10129D01*
X7531Y10164D01*
X7577Y10208D01*
X7614Y10260D01*
X7640Y10318D01*
X7654Y10380D01*
X7655Y10453D01*
X7655Y10131D01*
X7616Y10124D01*
X7557Y10100D01*
X7504Y10065D01*
X7458Y10020D01*
X7422Y9968D01*
X7397Y9909D01*
X7384Y9847D01*
X7383Y9786D01*
X7379Y9806D01*
X7355Y9865D01*
X7319Y9918D01*
X7274Y9964D01*
X7222Y9999D01*
X7163Y10024D01*
X7101Y10037D01*
X7037Y10037D01*
X6974Y10025D01*
X6915Y10001D01*
X6862Y9966D01*
X6816Y9922D01*
X6780Y9869D01*
X6755Y9811D01*
X6742Y9748D01*
X6741Y9685D01*
X6753Y9622D01*
X6776Y9563D01*
X6811Y9509D01*
X6855Y9464D01*
X6907Y9427D01*
X6966Y9402D01*
X7028Y9388D01*
X7091Y9387D01*
X7154Y9398D01*
X7214Y9421D01*
X7267Y9455D01*
X7313Y9499D01*
X7350Y9551D01*
X7376Y9609D01*
X7390Y9671D01*
X7391Y9738D01*
X7394Y9721D01*
X7418Y9661D01*
X7452Y9608D01*
X7497Y9562D01*
X7549Y9526D01*
X7607Y9500D01*
X7670Y9486D01*
X7733Y9485D01*
X7796Y9496D01*
X7855Y9519D01*
X7909Y9553D01*
X7955Y9597D01*
X7992Y9649D01*
X8018Y9708D01*
X8032Y9770D01*
X8033Y9842D01*
X8033Y3714D01*
X8008Y3690D01*
X7948Y3602D01*
X7925Y3548D01*
X7915Y3572D01*
X7915Y6201D01*
X7902Y6263D01*
X7878Y6322D01*
X7843Y6375D01*
X7798Y6420D01*
X7745Y6456D01*
X7687Y6481D01*
X7624Y6493D01*
X7560Y6494D01*
X7498Y6482D01*
X7439Y6458D01*
X7386Y6423D01*
X7340Y6379D01*
X7304Y6326D01*
X7279Y6267D01*
X7266Y6205D01*
X7265Y6141D01*
X7276Y6079D01*
X7300Y6020D01*
X7334Y5966D01*
X7379Y5920D01*
X7431Y5884D01*
X7489Y5858D01*
X7551Y5845D01*
X7615Y5843D01*
X7678Y5854D01*
X7737Y5877D01*
X7791Y5912D01*
X7837Y5956D01*
X7874Y6008D01*
X7900Y6066D01*
X7914Y6128D01*
X7915Y6201D01*
X7915Y3572D01*
X7905Y3596D01*
X7846Y3684D01*
X7771Y3759D01*
X7683Y3819D01*
X7586Y3860D01*
X7482Y3881D01*
X7375Y3882D01*
X7271Y3862D01*
X7173Y3822D01*
X7084Y3764D01*
X7008Y3690D01*
X6970Y3634D01*
X6970Y5870D01*
X6958Y5932D01*
X6933Y5991D01*
X6898Y6044D01*
X6853Y6090D01*
X6800Y6125D01*
X6742Y6150D01*
X6679Y6163D01*
X6616Y6163D01*
X6553Y6151D01*
X6494Y6127D01*
X6441Y6092D01*
X6395Y6048D01*
X6359Y5995D01*
X6334Y5937D01*
X6321Y5874D01*
X6320Y5811D01*
X6331Y5748D01*
X6355Y5689D01*
X6389Y5635D01*
X6434Y5590D01*
X6486Y5553D01*
X6544Y5528D01*
X6607Y5514D01*
X6670Y5513D01*
X6733Y5524D01*
X6792Y5547D01*
X6846Y5581D01*
X6892Y5625D01*
X6929Y5677D01*
X6955Y5735D01*
X6969Y5797D01*
X6970Y5870D01*
X6970Y3634D01*
X6948Y3602D01*
X6925Y3548D01*
X6905Y3596D01*
X6846Y3684D01*
X6771Y3759D01*
X6683Y3819D01*
X6586Y3860D01*
X6482Y3881D01*
X6375Y3882D01*
X6271Y3862D01*
X6206Y3836D01*
X6206Y8366D01*
X6194Y8428D01*
X6170Y8487D01*
X6134Y8540D01*
X6089Y8586D01*
X6068Y8600D01*
X6071Y8616D01*
X6072Y8689D01*
X6060Y8751D01*
X6036Y8810D01*
X6000Y8863D01*
X5956Y8908D01*
X5903Y8944D01*
X5844Y8969D01*
X5782Y8982D01*
X5757Y8982D01*
X5757Y10386D01*
X5745Y10448D01*
X5721Y10507D01*
X5685Y10560D01*
X5641Y10605D01*
X5588Y10641D01*
X5529Y10666D01*
X5467Y10678D01*
X5438Y10679D01*
X5438Y15067D01*
X5426Y15129D01*
X5402Y15188D01*
X5367Y15241D01*
X5322Y15286D01*
X5269Y15322D01*
X5210Y15347D01*
X5148Y15360D01*
X5084Y15360D01*
X5053Y15354D01*
X5053Y16996D01*
X5040Y17058D01*
X5016Y17117D01*
X4981Y17170D01*
X4936Y17216D01*
X4883Y17251D01*
X4875Y17255D01*
X4875Y17315D01*
X4863Y17377D01*
X4839Y17436D01*
X4804Y17489D01*
X4789Y17504D01*
X4819Y17547D01*
X4845Y17605D01*
X4859Y17667D01*
X4860Y17740D01*
X4847Y17802D01*
X4823Y17861D01*
X4788Y17914D01*
X4743Y17960D01*
X4690Y17995D01*
X4631Y18020D01*
X4569Y18033D01*
X4505Y18033D01*
X4443Y18021D01*
X4384Y17997D01*
X4361Y17983D01*
X4345Y17999D01*
X4293Y18035D01*
X4234Y18059D01*
X4171Y18072D01*
X4108Y18073D01*
X4080Y18067D01*
X4080Y21752D01*
X4068Y21814D01*
X4044Y21873D01*
X4008Y21926D01*
X3963Y21971D01*
X3911Y22007D01*
X3852Y22032D01*
X3790Y22045D01*
X3726Y22045D01*
X3663Y22033D01*
X3604Y22009D01*
X3551Y21974D01*
X3505Y21930D01*
X3469Y21877D01*
X3444Y21819D01*
X3431Y21756D01*
X3430Y21693D01*
X3442Y21630D01*
X3465Y21571D01*
X3500Y21517D01*
X3544Y21471D01*
X3596Y21435D01*
X3655Y21410D01*
X3717Y21396D01*
X3780Y21395D01*
X3843Y21406D01*
X3903Y21429D01*
X3956Y21463D01*
X4002Y21507D01*
X4039Y21559D01*
X4065Y21617D01*
X4079Y21679D01*
X4080Y21752D01*
X4080Y18067D01*
X4045Y18061D01*
X3986Y18037D01*
X3959Y18019D01*
X3940Y18038D01*
X3887Y18074D01*
X3828Y18099D01*
X3766Y18111D01*
X3726Y18112D01*
X3726Y21039D01*
X3714Y21102D01*
X3689Y21161D01*
X3654Y21214D01*
X3609Y21259D01*
X3556Y21294D01*
X3498Y21319D01*
X3435Y21332D01*
X3371Y21332D01*
X3309Y21320D01*
X3250Y21297D01*
X3232Y21285D01*
X3231Y21286D01*
X3178Y21322D01*
X3120Y21347D01*
X3057Y21360D01*
X2994Y21360D01*
X2931Y21348D01*
X2872Y21324D01*
X2819Y21289D01*
X2773Y21245D01*
X2737Y21192D01*
X2712Y21134D01*
X2699Y21071D01*
X2698Y21008D01*
X2709Y20945D01*
X2733Y20886D01*
X2734Y20883D01*
X2714Y20884D01*
X2651Y20872D01*
X2592Y20848D01*
X2539Y20813D01*
X2494Y20768D01*
X2458Y20716D01*
X2432Y20657D01*
X2419Y20595D01*
X2418Y20531D01*
X2430Y20469D01*
X2453Y20409D01*
X2488Y20356D01*
X2532Y20310D01*
X2584Y20274D01*
X2643Y20248D01*
X2705Y20234D01*
X2769Y20233D01*
X2831Y20244D01*
X2891Y20267D01*
X2945Y20301D01*
X2991Y20345D01*
X3027Y20397D01*
X3053Y20456D01*
X3067Y20518D01*
X3068Y20590D01*
X3056Y20653D01*
X3033Y20710D01*
X3048Y20710D01*
X3111Y20721D01*
X3170Y20744D01*
X3192Y20757D01*
X3242Y20722D01*
X3300Y20697D01*
X3362Y20683D01*
X3426Y20682D01*
X3489Y20693D01*
X3548Y20716D01*
X3602Y20750D01*
X3648Y20794D01*
X3685Y20846D01*
X3711Y20904D01*
X3725Y20966D01*
X3726Y21039D01*
X3726Y18112D01*
X3702Y18112D01*
X3640Y18100D01*
X3581Y18076D01*
X3527Y18041D01*
X3482Y17997D01*
X3446Y17944D01*
X3421Y17886D01*
X3407Y17823D01*
X3407Y17760D01*
X3418Y17697D01*
X3442Y17638D01*
X3476Y17584D01*
X3520Y17538D01*
X3573Y17502D01*
X3631Y17477D01*
X3693Y17463D01*
X3757Y17461D01*
X3820Y17473D01*
X3879Y17496D01*
X3910Y17515D01*
X3926Y17499D01*
X3978Y17463D01*
X4036Y17437D01*
X4099Y17423D01*
X4162Y17422D01*
X4225Y17433D01*
X4272Y17452D01*
X4265Y17440D01*
X4240Y17382D01*
X4226Y17319D01*
X4225Y17256D01*
X4237Y17193D01*
X4260Y17134D01*
X4295Y17080D01*
X4339Y17034D01*
X4391Y16998D01*
X4403Y16993D01*
X4403Y16937D01*
X4414Y16874D01*
X4438Y16815D01*
X4472Y16761D01*
X4516Y16716D01*
X4569Y16679D01*
X4627Y16654D01*
X4689Y16640D01*
X4753Y16639D01*
X4816Y16650D01*
X4875Y16673D01*
X4929Y16707D01*
X4975Y16751D01*
X5012Y16803D01*
X5038Y16861D01*
X5052Y16923D01*
X5053Y16996D01*
X5053Y15354D01*
X5022Y15348D01*
X4962Y15324D01*
X4909Y15289D01*
X4864Y15245D01*
X4828Y15192D01*
X4803Y15134D01*
X4789Y15071D01*
X4788Y15008D01*
X4796Y14968D01*
X4789Y14966D01*
X4736Y14931D01*
X4690Y14886D01*
X4654Y14834D01*
X4629Y14775D01*
X4616Y14713D01*
X4615Y14649D01*
X4627Y14587D01*
X4650Y14527D01*
X4685Y14474D01*
X4700Y14458D01*
X4690Y14458D01*
X4628Y14446D01*
X4569Y14423D01*
X4515Y14388D01*
X4470Y14343D01*
X4434Y14291D01*
X4427Y14274D01*
X4427Y15854D01*
X4414Y15917D01*
X4390Y15976D01*
X4355Y16029D01*
X4310Y16074D01*
X4257Y16109D01*
X4198Y16134D01*
X4136Y16147D01*
X4072Y16147D01*
X4010Y16135D01*
X3951Y16112D01*
X3897Y16077D01*
X3852Y16032D01*
X3816Y15980D01*
X3791Y15921D01*
X3778Y15859D01*
X3777Y15795D01*
X3788Y15732D01*
X3812Y15673D01*
X3846Y15620D01*
X3890Y15574D01*
X3943Y15537D01*
X4001Y15512D01*
X4063Y15498D01*
X4127Y15497D01*
X4190Y15508D01*
X4249Y15531D01*
X4303Y15565D01*
X4349Y15609D01*
X4386Y15661D01*
X4412Y15719D01*
X4426Y15781D01*
X4427Y15854D01*
X4427Y14274D01*
X4409Y14232D01*
X4396Y14170D01*
X4395Y14106D01*
X4406Y14043D01*
X4430Y13984D01*
X4464Y13931D01*
X4508Y13885D01*
X4561Y13848D01*
X4619Y13823D01*
X4681Y13809D01*
X4745Y13808D01*
X4808Y13819D01*
X4867Y13842D01*
X4921Y13876D01*
X4967Y13920D01*
X5004Y13972D01*
X5030Y14030D01*
X5044Y14092D01*
X5045Y14165D01*
X5032Y14228D01*
X5008Y14287D01*
X4973Y14340D01*
X4961Y14351D01*
X4965Y14351D01*
X5028Y14362D01*
X5088Y14385D01*
X5141Y14419D01*
X5188Y14463D01*
X5224Y14515D01*
X5250Y14574D01*
X5264Y14636D01*
X5265Y14709D01*
X5258Y14743D01*
X5261Y14744D01*
X5315Y14778D01*
X5361Y14822D01*
X5397Y14874D01*
X5423Y14932D01*
X5437Y14994D01*
X5438Y15067D01*
X5438Y10679D01*
X5403Y10679D01*
X5340Y10667D01*
X5281Y10643D01*
X5228Y10608D01*
X5183Y10564D01*
X5147Y10511D01*
X5121Y10453D01*
X5108Y10390D01*
X5107Y10327D01*
X5119Y10264D01*
X5142Y10205D01*
X5177Y10151D01*
X5221Y10105D01*
X5273Y10069D01*
X5332Y10043D01*
X5394Y10030D01*
X5458Y10028D01*
X5520Y10039D01*
X5580Y10063D01*
X5634Y10097D01*
X5680Y10141D01*
X5716Y10193D01*
X5742Y10251D01*
X5756Y10313D01*
X5757Y10386D01*
X5757Y8982D01*
X5718Y8982D01*
X5655Y8970D01*
X5596Y8946D01*
X5543Y8911D01*
X5498Y8867D01*
X5462Y8814D01*
X5436Y8756D01*
X5423Y8693D01*
X5422Y8630D01*
X5434Y8567D01*
X5457Y8508D01*
X5492Y8454D01*
X5536Y8408D01*
X5561Y8391D01*
X5557Y8371D01*
X5556Y8307D01*
X5568Y8244D01*
X5591Y8185D01*
X5626Y8131D01*
X5670Y8086D01*
X5722Y8049D01*
X5781Y8024D01*
X5843Y8010D01*
X5906Y8009D01*
X5969Y8020D01*
X6029Y8043D01*
X6082Y8077D01*
X6128Y8121D01*
X6165Y8173D01*
X6191Y8231D01*
X6205Y8293D01*
X6206Y8366D01*
X6206Y3836D01*
X6173Y3822D01*
X6084Y3764D01*
X6008Y3690D01*
X5948Y3602D01*
X5925Y3548D01*
X5905Y3596D01*
X5846Y3684D01*
X5771Y3759D01*
X5683Y3819D01*
X5586Y3860D01*
X5482Y3881D01*
X5375Y3882D01*
X5271Y3862D01*
X5173Y3822D01*
X5084Y3764D01*
X5008Y3690D01*
X4948Y3602D01*
X4925Y3548D01*
X4905Y3596D01*
X4846Y3684D01*
X4771Y3759D01*
X4683Y3819D01*
X4586Y3860D01*
X4557Y3866D01*
X4557Y8819D01*
X4544Y8881D01*
X4520Y8940D01*
X4485Y8993D01*
X4440Y9038D01*
X4387Y9074D01*
X4328Y9099D01*
X4266Y9111D01*
X4202Y9112D01*
X4140Y9100D01*
X4081Y9076D01*
X4027Y9041D01*
X4017Y9031D01*
X4017Y14642D01*
X4005Y14704D01*
X3981Y14763D01*
X3945Y14816D01*
X3900Y14861D01*
X3848Y14897D01*
X3789Y14922D01*
X3727Y14934D01*
X3663Y14935D01*
X3600Y14923D01*
X3541Y14899D01*
X3488Y14864D01*
X3442Y14820D01*
X3406Y14767D01*
X3381Y14708D01*
X3368Y14646D01*
X3367Y14582D01*
X3379Y14520D01*
X3402Y14461D01*
X3437Y14407D01*
X3481Y14361D01*
X3533Y14325D01*
X3592Y14299D01*
X3654Y14286D01*
X3717Y14284D01*
X3780Y14295D01*
X3840Y14318D01*
X3893Y14353D01*
X3939Y14396D01*
X3976Y14449D01*
X4002Y14507D01*
X4016Y14569D01*
X4017Y14642D01*
X4017Y9031D01*
X3982Y8997D01*
X3946Y8944D01*
X3921Y8886D01*
X3907Y8823D01*
X3907Y8760D01*
X3918Y8697D01*
X3942Y8638D01*
X3976Y8584D01*
X4020Y8538D01*
X4073Y8502D01*
X4131Y8477D01*
X4193Y8463D01*
X4257Y8461D01*
X4320Y8473D01*
X4379Y8496D01*
X4433Y8530D01*
X4479Y8574D01*
X4516Y8626D01*
X4541Y8684D01*
X4556Y8746D01*
X4557Y8819D01*
X4557Y3866D01*
X4482Y3881D01*
X4375Y3882D01*
X4271Y3862D01*
X4173Y3822D01*
X4116Y3785D01*
X4116Y7142D01*
X4103Y7204D01*
X4079Y7263D01*
X4044Y7316D01*
X3999Y7361D01*
X3946Y7397D01*
X3887Y7422D01*
X3825Y7434D01*
X3761Y7435D01*
X3699Y7423D01*
X3640Y7399D01*
X3586Y7364D01*
X3541Y7320D01*
X3505Y7267D01*
X3480Y7208D01*
X3466Y7146D01*
X3466Y7082D01*
X3477Y7020D01*
X3501Y6961D01*
X3535Y6907D01*
X3579Y6861D01*
X3632Y6825D01*
X3690Y6799D01*
X3752Y6786D01*
X3816Y6784D01*
X3879Y6795D01*
X3938Y6818D01*
X3992Y6853D01*
X4038Y6896D01*
X4075Y6949D01*
X4101Y7007D01*
X4115Y7069D01*
X4116Y7142D01*
X4116Y3785D01*
X4084Y3764D01*
X4008Y3690D01*
X3948Y3602D01*
X3925Y3548D01*
X3905Y3596D01*
X3846Y3684D01*
X3771Y3759D01*
X3683Y3819D01*
X3586Y3860D01*
X3482Y3881D01*
X3375Y3882D01*
X3271Y3862D01*
X3173Y3822D01*
X3084Y3764D01*
X3079Y3759D01*
X3052Y3800D01*
X3007Y3845D01*
X2954Y3881D01*
X2895Y3906D01*
X2868Y3911D01*
X2868Y11175D01*
X2853Y11249D01*
X2824Y11318D01*
X2783Y11381D01*
X2730Y11434D01*
X2714Y11445D01*
X2736Y11494D01*
X2752Y11564D01*
X2753Y11645D01*
X2740Y11716D01*
X2712Y11782D01*
X2673Y11841D01*
X2623Y11892D01*
X2563Y11932D01*
X2497Y11959D01*
X2428Y11974D01*
X2356Y11974D01*
X2328Y11969D01*
X2328Y21689D01*
X2316Y21751D01*
X2292Y21810D01*
X2256Y21863D01*
X2246Y21874D01*
X2246Y22756D01*
X2233Y22818D01*
X2209Y22877D01*
X2174Y22930D01*
X2129Y22975D01*
X2076Y23011D01*
X2017Y23036D01*
X1955Y23048D01*
X1891Y23049D01*
X1829Y23037D01*
X1770Y23013D01*
X1716Y22978D01*
X1671Y22934D01*
X1635Y22881D01*
X1610Y22823D01*
X1596Y22760D01*
X1596Y22697D01*
X1607Y22634D01*
X1630Y22575D01*
X1665Y22521D01*
X1709Y22475D01*
X1762Y22439D01*
X1820Y22414D01*
X1882Y22400D01*
X1946Y22398D01*
X2009Y22410D01*
X2068Y22433D01*
X2122Y22467D01*
X2168Y22511D01*
X2205Y22563D01*
X2230Y22621D01*
X2245Y22683D01*
X2246Y22756D01*
X2246Y21874D01*
X2211Y21908D01*
X2159Y21944D01*
X2100Y21969D01*
X2038Y21982D01*
X1974Y21982D01*
X1911Y21970D01*
X1852Y21946D01*
X1799Y21911D01*
X1753Y21867D01*
X1717Y21814D01*
X1692Y21756D01*
X1679Y21693D01*
X1679Y21683D01*
X1647Y21683D01*
X1585Y21671D01*
X1525Y21647D01*
X1472Y21612D01*
X1427Y21568D01*
X1391Y21515D01*
X1366Y21456D01*
X1352Y21394D01*
X1351Y21330D01*
X1363Y21268D01*
X1386Y21209D01*
X1421Y21155D01*
X1465Y21109D01*
X1517Y21073D01*
X1576Y21047D01*
X1638Y21034D01*
X1702Y21032D01*
X1764Y21043D01*
X1824Y21066D01*
X1878Y21101D01*
X1924Y21145D01*
X1960Y21197D01*
X1986Y21255D01*
X2000Y21317D01*
X2001Y21332D01*
X2028Y21332D01*
X2091Y21343D01*
X2151Y21366D01*
X2204Y21400D01*
X2251Y21444D01*
X2287Y21496D01*
X2313Y21554D01*
X2327Y21616D01*
X2328Y21689D01*
X2328Y11969D01*
X2286Y11961D01*
X2220Y11934D01*
X2160Y11895D01*
X2109Y11845D01*
X2069Y11786D01*
X2040Y11720D01*
X2026Y11651D01*
X2025Y11579D01*
X2038Y11509D01*
X2040Y11503D01*
X2007Y11494D01*
X2005Y11493D01*
X2003Y11492D01*
X1972Y11476D01*
X1940Y11459D01*
X1938Y11458D01*
X1937Y11457D01*
X1909Y11435D01*
X1881Y11412D01*
X1879Y11410D01*
X1879Y11410D01*
X1879Y11410D01*
X1878Y11409D01*
X1517Y11048D01*
X1517Y14775D01*
X1505Y14838D01*
X1481Y14897D01*
X1466Y14919D01*
X1466Y20945D01*
X1451Y21022D01*
X1421Y21095D01*
X1377Y21161D01*
X1321Y21217D01*
X1255Y21262D01*
X1182Y21292D01*
X1105Y21308D01*
X1026Y21309D01*
X948Y21294D01*
X875Y21264D01*
X808Y21221D01*
X752Y21166D01*
X707Y21100D01*
X676Y21028D01*
X660Y20950D01*
X658Y20871D01*
X673Y20793D01*
X702Y20720D01*
X745Y20653D01*
X800Y20596D01*
X865Y20551D01*
X937Y20519D01*
X1014Y20502D01*
X1094Y20501D01*
X1172Y20514D01*
X1245Y20543D01*
X1312Y20585D01*
X1369Y20640D01*
X1415Y20705D01*
X1447Y20777D01*
X1465Y20854D01*
X1466Y20945D01*
X1466Y14919D01*
X1445Y14950D01*
X1442Y14953D01*
X1442Y19728D01*
X1430Y19791D01*
X1406Y19850D01*
X1371Y19903D01*
X1326Y19948D01*
X1273Y19983D01*
X1214Y20008D01*
X1152Y20021D01*
X1088Y20021D01*
X1025Y20009D01*
X966Y19986D01*
X913Y19951D01*
X868Y19906D01*
X832Y19854D01*
X807Y19795D01*
X793Y19733D01*
X792Y19669D01*
X804Y19606D01*
X827Y19547D01*
X862Y19494D01*
X906Y19448D01*
X958Y19411D01*
X1017Y19386D01*
X1079Y19372D01*
X1143Y19371D01*
X1205Y19382D01*
X1265Y19405D01*
X1319Y19439D01*
X1365Y19483D01*
X1401Y19535D01*
X1427Y19593D01*
X1441Y19655D01*
X1442Y19728D01*
X1442Y14953D01*
X1400Y14995D01*
X1383Y15007D01*
X1383Y18311D01*
X1371Y18373D01*
X1347Y18432D01*
X1311Y18485D01*
X1267Y18531D01*
X1214Y18566D01*
X1155Y18591D01*
X1093Y18604D01*
X1029Y18604D01*
X966Y18592D01*
X907Y18568D01*
X854Y18533D01*
X809Y18489D01*
X773Y18436D01*
X747Y18378D01*
X734Y18315D01*
X733Y18252D01*
X745Y18189D01*
X768Y18130D01*
X803Y18076D01*
X847Y18030D01*
X899Y17994D01*
X958Y17969D01*
X1020Y17955D01*
X1084Y17954D01*
X1146Y17965D01*
X1206Y17988D01*
X1259Y18022D01*
X1306Y18066D01*
X1342Y18118D01*
X1368Y18176D01*
X1382Y18238D01*
X1383Y18311D01*
X1383Y15007D01*
X1348Y15031D01*
X1289Y15055D01*
X1227Y15068D01*
X1163Y15069D01*
X1100Y15057D01*
X1041Y15033D01*
X988Y14998D01*
X942Y14953D01*
X935Y14942D01*
X935Y15610D01*
X922Y15673D01*
X898Y15731D01*
X863Y15785D01*
X818Y15830D01*
X765Y15865D01*
X706Y15890D01*
X644Y15903D01*
X580Y15903D01*
X518Y15891D01*
X459Y15867D01*
X405Y15833D01*
X360Y15788D01*
X324Y15735D01*
X299Y15677D01*
X285Y15615D01*
X285Y15551D01*
X296Y15488D01*
X319Y15429D01*
X354Y15376D01*
X398Y15330D01*
X451Y15293D01*
X509Y15268D01*
X571Y15254D01*
X635Y15253D01*
X698Y15264D01*
X757Y15287D01*
X811Y15321D01*
X857Y15365D01*
X894Y15417D01*
X919Y15475D01*
X934Y15537D01*
X935Y15610D01*
X935Y14942D01*
X906Y14901D01*
X881Y14842D01*
X868Y14780D01*
X867Y14716D01*
X879Y14654D01*
X902Y14594D01*
X937Y14541D01*
X981Y14495D01*
X1033Y14459D01*
X1092Y14433D01*
X1154Y14420D01*
X1217Y14418D01*
X1280Y14429D01*
X1340Y14452D01*
X1393Y14486D01*
X1439Y14530D01*
X1476Y14582D01*
X1502Y14641D01*
X1516Y14703D01*
X1517Y14775D01*
X1517Y11048D01*
X449Y9980D01*
X426Y9952D01*
X403Y9925D01*
X402Y9923D01*
X401Y9922D01*
X384Y9890D01*
X367Y9859D01*
X367Y9857D01*
X366Y9856D01*
X355Y9822D01*
X345Y9788D01*
X344Y9786D01*
X344Y9784D01*
X340Y9749D01*
X336Y9714D01*
X336Y9710D01*
X336Y9710D01*
X336Y9709D01*
X336Y9708D01*
X336Y4043D01*
X340Y4008D01*
X343Y3972D01*
X343Y3970D01*
X343Y3968D01*
X354Y3934D01*
X364Y3900D01*
X364Y3898D01*
X365Y3897D01*
X382Y3865D01*
X398Y3834D01*
X399Y3832D01*
X400Y3830D01*
X423Y3803D01*
X445Y3775D01*
X448Y3772D01*
X448Y3772D01*
X448Y3772D01*
X449Y3771D01*
X796Y3424D01*
X820Y3399D01*
X882Y3356D01*
X951Y3326D01*
X1025Y3309D01*
X1100Y3308D01*
X1174Y3321D01*
X1244Y3348D01*
X1308Y3388D01*
X1362Y3440D01*
X1406Y3502D01*
X1436Y3571D01*
X1453Y3644D01*
X1454Y3683D01*
X1454Y3688D01*
X1454Y3694D01*
X1454Y3730D01*
X1440Y3804D01*
X1411Y3873D01*
X1369Y3936D01*
X1316Y3990D01*
X1316Y3990D01*
X1104Y4202D01*
X1104Y7125D01*
X1142Y7116D01*
X1206Y7115D01*
X1268Y7126D01*
X1328Y7149D01*
X1382Y7183D01*
X1428Y7227D01*
X1464Y7279D01*
X1490Y7337D01*
X1504Y7400D01*
X1505Y7472D01*
X1493Y7535D01*
X1469Y7594D01*
X1434Y7647D01*
X1389Y7692D01*
X1336Y7728D01*
X1277Y7752D01*
X1215Y7765D01*
X1151Y7765D01*
X1104Y7756D01*
X1104Y8456D01*
X1139Y8441D01*
X1201Y8427D01*
X1265Y8426D01*
X1327Y8437D01*
X1387Y8460D01*
X1441Y8494D01*
X1487Y8538D01*
X1523Y8590D01*
X1549Y8648D01*
X1563Y8711D01*
X1564Y8783D01*
X1552Y8846D01*
X1528Y8905D01*
X1505Y8939D01*
X1564Y8949D01*
X1623Y8972D01*
X1677Y9006D01*
X1723Y9050D01*
X1760Y9102D01*
X1786Y9160D01*
X1800Y9222D01*
X1801Y9295D01*
X1788Y9358D01*
X1764Y9417D01*
X1729Y9470D01*
X1684Y9515D01*
X1631Y9550D01*
X1572Y9575D01*
X1510Y9588D01*
X1446Y9588D01*
X1384Y9576D01*
X1325Y9553D01*
X1271Y9518D01*
X1226Y9473D01*
X1190Y9421D01*
X1165Y9362D01*
X1152Y9300D01*
X1151Y9236D01*
X1162Y9173D01*
X1186Y9114D01*
X1210Y9076D01*
X1148Y9065D01*
X1104Y9047D01*
X1104Y9549D01*
X2308Y10753D01*
X2479Y10753D01*
X2513Y10753D01*
X2587Y10766D01*
X2658Y10793D01*
X2721Y10833D01*
X2776Y10885D01*
X2819Y10947D01*
X2850Y11016D01*
X2866Y11089D01*
X2867Y11129D01*
X2868Y11135D01*
X2867Y11140D01*
X2868Y11175D01*
X2868Y3911D01*
X2833Y3919D01*
X2769Y3919D01*
X2707Y3907D01*
X2648Y3883D01*
X2594Y3848D01*
X2549Y3804D01*
X2513Y3751D01*
X2488Y3693D01*
X2474Y3630D01*
X2473Y3567D01*
X2485Y3504D01*
X2508Y3445D01*
X2543Y3391D01*
X2587Y3345D01*
X2639Y3309D01*
X2698Y3284D01*
X2760Y3270D01*
X2824Y3269D01*
X2885Y3279D01*
X2902Y3190D01*
X2941Y3092D01*
X2998Y3002D01*
X3072Y2926D01*
X3159Y2865D01*
X3217Y2840D01*
X3173Y2822D01*
X3084Y2764D01*
X3008Y2690D01*
X2948Y2602D01*
X2906Y2505D01*
X2884Y2401D01*
X2883Y2295D01*
X2902Y2190D01*
X2941Y2092D01*
X2998Y2002D01*
X3072Y1926D01*
X3159Y1865D01*
X3257Y1823D01*
X3360Y1800D01*
X3466Y1798D01*
X3571Y1816D01*
X3670Y1855D01*
X3760Y1912D01*
X3836Y1985D01*
X3898Y2072D01*
X3925Y2132D01*
X3941Y2092D01*
X3998Y2002D01*
X4072Y1926D01*
X4159Y1865D01*
X4257Y1823D01*
X4360Y1800D01*
X4466Y1798D01*
X4571Y1816D01*
X4670Y1855D01*
X4760Y1912D01*
X4836Y1985D01*
X4898Y2072D01*
X4925Y2132D01*
X4941Y2092D01*
X4998Y2002D01*
X5072Y1926D01*
X5159Y1865D01*
X5257Y1823D01*
X5360Y1800D01*
X5466Y1798D01*
X5571Y1816D01*
X5670Y1855D01*
X5760Y1912D01*
X5836Y1985D01*
X5898Y2072D01*
X5925Y2132D01*
X5941Y2092D01*
X5998Y2002D01*
X6072Y1926D01*
X6159Y1865D01*
X6257Y1823D01*
X6360Y1800D01*
X6466Y1798D01*
X6571Y1816D01*
X6670Y1855D01*
X6760Y1912D01*
X6836Y1985D01*
X6898Y2072D01*
X6925Y2132D01*
X6941Y2092D01*
X6998Y2002D01*
X7072Y1926D01*
X7159Y1865D01*
X7257Y1823D01*
X7360Y1800D01*
X7466Y1798D01*
X7571Y1816D01*
X7670Y1855D01*
X7760Y1912D01*
X7836Y1985D01*
X7898Y2072D01*
X7925Y2132D01*
X7941Y2092D01*
X7998Y2002D01*
X8072Y1926D01*
X8159Y1865D01*
X8257Y1823D01*
X8360Y1800D01*
X8466Y1798D01*
X8571Y1816D01*
X8670Y1855D01*
X8760Y1912D01*
X8836Y1985D01*
X8898Y2072D01*
X8925Y2132D01*
X8941Y2092D01*
X8998Y2002D01*
X9072Y1926D01*
X9159Y1865D01*
X9257Y1823D01*
X9360Y1800D01*
X9466Y1798D01*
X9571Y1816D01*
X9670Y1855D01*
X9760Y1912D01*
X9836Y1985D01*
X9898Y2072D01*
X9925Y2132D01*
X9941Y2092D01*
X9998Y2002D01*
X10072Y1926D01*
X10159Y1865D01*
X10257Y1823D01*
X10360Y1800D01*
X10466Y1798D01*
X10571Y1816D01*
X10670Y1855D01*
X10760Y1912D01*
X10836Y1985D01*
X10898Y2072D01*
X10925Y2132D01*
X10941Y2092D01*
X10998Y2002D01*
X11072Y1926D01*
X11159Y1865D01*
X11257Y1823D01*
X11360Y1800D01*
X11466Y1798D01*
X11571Y1816D01*
X11670Y1855D01*
X11760Y1912D01*
X11836Y1985D01*
X11898Y2072D01*
X11925Y2132D01*
X11941Y2092D01*
X11998Y2002D01*
X12072Y1926D01*
X12159Y1865D01*
X12257Y1823D01*
X12360Y1800D01*
X12466Y1798D01*
X12571Y1816D01*
X12670Y1855D01*
X12760Y1912D01*
X12836Y1985D01*
X12898Y2072D01*
X12925Y2132D01*
X12941Y2092D01*
X12998Y2002D01*
X13072Y1926D01*
X13159Y1865D01*
X13257Y1823D01*
X13360Y1800D01*
X13466Y1798D01*
X13571Y1816D01*
X13670Y1855D01*
X13760Y1912D01*
X13836Y1985D01*
X13898Y2072D01*
X13927Y2138D01*
X13945Y2093D01*
X14002Y2004D01*
X14076Y1928D01*
X14163Y1867D01*
X14261Y1825D01*
X14364Y1802D01*
X14470Y1800D01*
X14575Y1818D01*
X14674Y1856D01*
X14764Y1913D01*
X14840Y1987D01*
X14902Y2073D01*
X14931Y2139D01*
X14949Y2093D01*
X15006Y2004D01*
X15080Y1928D01*
X15167Y1867D01*
X15264Y1825D01*
X15368Y1802D01*
X15474Y1800D01*
X15579Y1818D01*
X15678Y1856D01*
X15767Y1913D01*
X15844Y1987D01*
X15906Y2073D01*
X15949Y2170D01*
X15972Y2274D01*
X15974Y2395D01*
X15974Y49D01*
X3001Y49D01*
X3001Y718D01*
X2718Y718D01*
X2718Y925D01*
X2025Y925D01*
X2025Y6535D01*
X2013Y6598D01*
X1988Y6657D01*
X1953Y6710D01*
X1908Y6755D01*
X1856Y6791D01*
X1797Y6815D01*
X1734Y6828D01*
X1671Y6828D01*
X1608Y6817D01*
X1549Y6793D01*
X1496Y6758D01*
X1450Y6713D01*
X1414Y6661D01*
X1389Y6602D01*
X1376Y6540D01*
X1375Y6476D01*
X1387Y6413D01*
X1410Y6354D01*
X1445Y6301D01*
X1489Y6255D01*
X1541Y6219D01*
X1599Y6193D01*
X1662Y6179D01*
X1725Y6178D01*
X1788Y6189D01*
X1847Y6212D01*
X1901Y6246D01*
X1947Y6290D01*
X1984Y6342D01*
X2010Y6400D01*
X2024Y6463D01*
X2025Y6535D01*
X2025Y925D01*
X1871Y925D01*
X1871Y718D01*
X1522Y718D01*
X1536Y748D01*
X1563Y866D01*
X1564Y1005D01*
X1541Y1124D01*
X1495Y1237D01*
X1427Y1338D01*
X1342Y1424D01*
X1241Y1492D01*
X1131Y1538D01*
X1131Y2911D01*
X1117Y2985D01*
X1088Y3055D01*
X1046Y3117D01*
X993Y3171D01*
X931Y3213D01*
X862Y3242D01*
X788Y3257D01*
X713Y3258D01*
X639Y3244D01*
X569Y3215D01*
X506Y3174D01*
X452Y3121D01*
X410Y3059D01*
X380Y2990D01*
X364Y2917D01*
X363Y2841D01*
X377Y2767D01*
X404Y2697D01*
X445Y2634D01*
X498Y2580D01*
X559Y2537D01*
X628Y2507D01*
X702Y2491D01*
X777Y2489D01*
X851Y2502D01*
X921Y2529D01*
X985Y2570D01*
X1040Y2621D01*
X1083Y2683D01*
X1114Y2752D01*
X1130Y2825D01*
X1131Y2911D01*
X1131Y1538D01*
X1129Y1540D01*
X1010Y1564D01*
X888Y1565D01*
X768Y1542D01*
X656Y1497D01*
X554Y1430D01*
X467Y1345D01*
X398Y1245D01*
X350Y1133D01*
X325Y1014D01*
X323Y892D01*
X345Y773D01*
X390Y660D01*
X413Y624D01*
X49Y1004D01*
X49Y23049D01*
X427Y23413D01*
X398Y23371D01*
X350Y23259D01*
X325Y23140D01*
X323Y23018D01*
X345Y22899D01*
X390Y22786D01*
X456Y22683D01*
X541Y22596D01*
X640Y22526D01*
X752Y22478D01*
X871Y22452D01*
X992Y22449D01*
X1112Y22470D01*
X1225Y22514D01*
X1328Y22579D01*
X1416Y22663D01*
X1486Y22763D01*
X1536Y22874D01*
X1563Y22992D01*
X1564Y23131D01*
X1541Y23250D01*
X1495Y23363D01*
X1427Y23464D01*
X1342Y23550D01*
X1241Y23618D01*
X1129Y23666D01*
X1010Y23690D01*
X888Y23691D01*
X768Y23668D01*
X656Y23623D01*
X624Y23602D01*
X1004Y23966D01*
X3210Y23966D01*
X3180Y23946D01*
X3129Y23896D01*
X3088Y23837D01*
X3060Y23772D01*
X3045Y23702D01*
X3044Y23630D01*
X3057Y23560D01*
X3083Y23494D01*
X3122Y23434D01*
X3172Y23382D01*
X3197Y23364D01*
X3190Y23354D01*
X3165Y23295D01*
X3152Y23233D01*
X3151Y23169D01*
X3162Y23106D01*
X3186Y23047D01*
X3220Y22994D01*
X3264Y22948D01*
X3317Y22911D01*
X3375Y22886D01*
X3437Y22872D01*
X3501Y22871D01*
X3564Y22882D01*
X3623Y22905D01*
X3677Y22939D01*
X3723Y22983D01*
X3760Y23035D01*
X3786Y23093D01*
X3800Y23155D01*
X3801Y23228D01*
X3788Y23291D01*
X3764Y23350D01*
X3729Y23403D01*
X3696Y23436D01*
X3727Y23480D01*
X3756Y23545D01*
X3772Y23615D01*
X3773Y23697D01*
X3759Y23767D01*
X3732Y23833D01*
X3693Y23892D01*
X3642Y23943D01*
X3608Y23966D01*
X17419Y23966D01*
X18257Y23090D01*
X18257Y887D01*
X18257Y887D01*
G37*
G54D11*
X18257Y887D02*
X17982Y635D01*
X17982Y1005D01*
X17982Y23131D01*
X17958Y23250D01*
X17912Y23363D01*
X17845Y23464D01*
X17759Y23550D01*
X17658Y23618D01*
X17546Y23666D01*
X17427Y23690D01*
X17305Y23691D01*
X17186Y23668D01*
X17073Y23623D01*
X16971Y23556D01*
X16884Y23471D01*
X16816Y23371D01*
X16768Y23259D01*
X16743Y23140D01*
X16741Y23018D01*
X16763Y22899D01*
X16808Y22786D01*
X16873Y22683D01*
X16958Y22596D01*
X17058Y22526D01*
X17169Y22478D01*
X17288Y22452D01*
X17410Y22449D01*
X17529Y22470D01*
X17643Y22514D01*
X17745Y22579D01*
X17833Y22663D01*
X17903Y22763D01*
X17953Y22874D01*
X17980Y22992D01*
X17982Y23131D01*
X17982Y1005D01*
X17958Y1124D01*
X17912Y1237D01*
X17845Y1338D01*
X17759Y1424D01*
X17663Y1489D01*
X17663Y3126D01*
X17649Y3196D01*
X17622Y3262D01*
X17582Y3321D01*
X17532Y3372D01*
X17473Y3412D01*
X17407Y3440D01*
X17395Y3442D01*
X17395Y16512D01*
X17383Y16574D01*
X17359Y16633D01*
X17323Y16686D01*
X17278Y16731D01*
X17226Y16767D01*
X17167Y16792D01*
X17104Y16804D01*
X17041Y16805D01*
X16978Y16793D01*
X16919Y16769D01*
X16866Y16734D01*
X16820Y16690D01*
X16784Y16637D01*
X16759Y16579D01*
X16746Y16516D01*
X16745Y16453D01*
X16757Y16390D01*
X16780Y16331D01*
X16815Y16277D01*
X16859Y16231D01*
X16911Y16195D01*
X16970Y16169D01*
X17032Y16156D01*
X17095Y16154D01*
X17158Y16165D01*
X17218Y16188D01*
X17271Y16223D01*
X17317Y16267D01*
X17354Y16319D01*
X17380Y16377D01*
X17394Y16439D01*
X17395Y16512D01*
X17395Y3442D01*
X17337Y3454D01*
X17297Y3454D01*
X17297Y13474D01*
X17284Y13540D01*
X17258Y13603D01*
X17221Y13659D01*
X17173Y13707D01*
X17163Y13714D01*
X17163Y14517D01*
X17147Y14599D01*
X17115Y14676D01*
X17069Y14745D01*
X17011Y14804D01*
X16942Y14850D01*
X16865Y14882D01*
X16784Y14899D01*
X16701Y14899D01*
X16620Y14884D01*
X16543Y14853D01*
X16473Y14807D01*
X16414Y14749D01*
X16367Y14681D01*
X16334Y14604D01*
X16317Y14523D01*
X16316Y14440D01*
X16331Y14359D01*
X16361Y14281D01*
X16406Y14212D01*
X16464Y14152D01*
X16532Y14105D01*
X16608Y14071D01*
X16689Y14054D01*
X16772Y14052D01*
X16854Y14066D01*
X16931Y14096D01*
X17001Y14141D01*
X17062Y14198D01*
X17109Y14266D01*
X17143Y14342D01*
X17162Y14423D01*
X17163Y14517D01*
X17163Y13714D01*
X17117Y13745D01*
X17055Y13771D01*
X16988Y13785D01*
X16921Y13785D01*
X16855Y13773D01*
X16792Y13747D01*
X16735Y13710D01*
X16687Y13663D01*
X16649Y13607D01*
X16622Y13545D01*
X16608Y13479D01*
X16607Y13411D01*
X16620Y13345D01*
X16644Y13282D01*
X16681Y13225D01*
X16728Y13177D01*
X16783Y13138D01*
X16845Y13111D01*
X16911Y13097D01*
X16979Y13095D01*
X17045Y13107D01*
X17108Y13131D01*
X17165Y13168D01*
X17214Y13214D01*
X17253Y13269D01*
X17281Y13331D01*
X17296Y13397D01*
X17297Y13474D01*
X17297Y3454D01*
X17266Y3454D01*
X17195Y3441D01*
X17129Y3414D01*
X17069Y3375D01*
X17018Y3325D01*
X16978Y3266D01*
X16950Y3201D01*
X16935Y3131D01*
X16934Y3059D01*
X16947Y2989D01*
X16973Y2923D01*
X17012Y2863D01*
X17062Y2811D01*
X17120Y2771D01*
X17186Y2742D01*
X17255Y2727D01*
X17327Y2725D01*
X17397Y2738D01*
X17464Y2763D01*
X17524Y2802D01*
X17576Y2851D01*
X17617Y2909D01*
X17646Y2975D01*
X17662Y3044D01*
X17663Y3126D01*
X17663Y1489D01*
X17658Y1492D01*
X17546Y1540D01*
X17427Y1564D01*
X17305Y1565D01*
X17186Y1542D01*
X17073Y1497D01*
X16971Y1430D01*
X16884Y1345D01*
X16816Y1245D01*
X16768Y1133D01*
X16743Y1014D01*
X16741Y892D01*
X16763Y773D01*
X16808Y660D01*
X16873Y557D01*
X16958Y470D01*
X17058Y400D01*
X17169Y352D01*
X17288Y326D01*
X17410Y323D01*
X17529Y344D01*
X17643Y388D01*
X17745Y453D01*
X17833Y537D01*
X17903Y637D01*
X17953Y748D01*
X17980Y866D01*
X17982Y1005D01*
X17982Y635D01*
X17343Y49D01*
X16498Y49D01*
X16498Y12827D01*
X16485Y12889D01*
X16461Y12948D01*
X16426Y13001D01*
X16381Y13046D01*
X16328Y13082D01*
X16269Y13107D01*
X16207Y13119D01*
X16155Y13120D01*
X16155Y17795D01*
X16143Y17858D01*
X16118Y17917D01*
X16083Y17970D01*
X16042Y18011D01*
X16046Y18015D01*
X16082Y18067D01*
X16108Y18125D01*
X16123Y18187D01*
X16124Y18260D01*
X16111Y18322D01*
X16087Y18381D01*
X16052Y18434D01*
X16007Y18479D01*
X16001Y18483D01*
X16001Y22299D01*
X15989Y22362D01*
X15965Y22420D01*
X15930Y22473D01*
X15885Y22519D01*
X15832Y22554D01*
X15773Y22579D01*
X15711Y22592D01*
X15647Y22592D01*
X15585Y22580D01*
X15525Y22556D01*
X15472Y22522D01*
X15427Y22477D01*
X15391Y22424D01*
X15366Y22366D01*
X15352Y22304D01*
X15351Y22240D01*
X15363Y22177D01*
X15386Y22118D01*
X15421Y22064D01*
X15465Y22019D01*
X15517Y21982D01*
X15576Y21957D01*
X15638Y21943D01*
X15702Y21942D01*
X15764Y21953D01*
X15824Y21976D01*
X15878Y22010D01*
X15924Y22054D01*
X15960Y22106D01*
X15986Y22164D01*
X16000Y22226D01*
X16001Y22299D01*
X16001Y18483D01*
X15954Y18515D01*
X15895Y18540D01*
X15833Y18552D01*
X15769Y18553D01*
X15707Y18541D01*
X15648Y18517D01*
X15594Y18482D01*
X15549Y18438D01*
X15513Y18385D01*
X15488Y18327D01*
X15482Y18298D01*
X15482Y18319D01*
X15469Y18381D01*
X15445Y18440D01*
X15410Y18493D01*
X15365Y18538D01*
X15312Y18574D01*
X15253Y18599D01*
X15191Y18611D01*
X15143Y18612D01*
X15143Y21740D01*
X15131Y21802D01*
X15107Y21861D01*
X15071Y21914D01*
X15026Y21960D01*
X14974Y21995D01*
X14915Y22020D01*
X14853Y22033D01*
X14820Y22033D01*
X14820Y22799D01*
X14808Y22862D01*
X14784Y22920D01*
X14748Y22973D01*
X14704Y23019D01*
X14651Y23054D01*
X14592Y23079D01*
X14530Y23092D01*
X14466Y23092D01*
X14403Y23080D01*
X14344Y23056D01*
X14291Y23022D01*
X14246Y22977D01*
X14210Y22924D01*
X14184Y22866D01*
X14171Y22804D01*
X14170Y22740D01*
X14182Y22677D01*
X14205Y22618D01*
X14240Y22564D01*
X14284Y22519D01*
X14336Y22482D01*
X14395Y22457D01*
X14457Y22443D01*
X14521Y22442D01*
X14583Y22453D01*
X14643Y22476D01*
X14696Y22510D01*
X14743Y22554D01*
X14779Y22606D01*
X14805Y22664D01*
X14819Y22726D01*
X14820Y22799D01*
X14820Y22033D01*
X14789Y22033D01*
X14726Y22021D01*
X14667Y21997D01*
X14614Y21963D01*
X14568Y21918D01*
X14532Y21865D01*
X14507Y21807D01*
X14494Y21745D01*
X14493Y21681D01*
X14505Y21618D01*
X14528Y21559D01*
X14563Y21505D01*
X14607Y21460D01*
X14659Y21423D01*
X14718Y21398D01*
X14780Y21384D01*
X14843Y21383D01*
X14906Y21394D01*
X14966Y21417D01*
X15019Y21451D01*
X15065Y21495D01*
X15102Y21547D01*
X15128Y21605D01*
X15142Y21667D01*
X15143Y21740D01*
X15143Y18612D01*
X15127Y18612D01*
X15124Y18611D01*
X15124Y20775D01*
X15111Y20838D01*
X15087Y20897D01*
X15052Y20950D01*
X15007Y20995D01*
X14954Y21031D01*
X14895Y21055D01*
X14833Y21068D01*
X14769Y21069D01*
X14707Y21057D01*
X14648Y21033D01*
X14594Y20998D01*
X14549Y20953D01*
X14513Y20901D01*
X14488Y20842D01*
X14474Y20780D01*
X14473Y20716D01*
X14485Y20654D01*
X14508Y20594D01*
X14543Y20541D01*
X14587Y20495D01*
X14639Y20459D01*
X14698Y20433D01*
X14760Y20420D01*
X14824Y20418D01*
X14886Y20429D01*
X14946Y20452D01*
X15000Y20486D01*
X15046Y20530D01*
X15082Y20582D01*
X15108Y20641D01*
X15123Y20703D01*
X15124Y20775D01*
X15124Y18611D01*
X15065Y18600D01*
X15006Y18576D01*
X14952Y18541D01*
X14907Y18497D01*
X14871Y18444D01*
X14846Y18386D01*
X14833Y18323D01*
X14832Y18260D01*
X14843Y18197D01*
X14867Y18138D01*
X14901Y18084D01*
X14945Y18038D01*
X14998Y18002D01*
X15056Y17977D01*
X15118Y17963D01*
X15182Y17961D01*
X15245Y17973D01*
X15304Y17996D01*
X15358Y18030D01*
X15404Y18074D01*
X15441Y18126D01*
X15467Y18184D01*
X15474Y18215D01*
X15473Y18201D01*
X15485Y18138D01*
X15508Y18079D01*
X15543Y18025D01*
X15587Y17980D01*
X15580Y17973D01*
X15544Y17921D01*
X15519Y17862D01*
X15506Y17800D01*
X15505Y17736D01*
X15516Y17673D01*
X15540Y17614D01*
X15574Y17561D01*
X15619Y17515D01*
X15671Y17478D01*
X15729Y17453D01*
X15792Y17439D01*
X15855Y17438D01*
X15918Y17449D01*
X15977Y17472D01*
X16031Y17506D01*
X16077Y17550D01*
X16114Y17602D01*
X16140Y17660D01*
X16154Y17722D01*
X16155Y17795D01*
X16155Y13120D01*
X16143Y13120D01*
X16081Y13108D01*
X16022Y13084D01*
X15968Y13049D01*
X15923Y13005D01*
X15887Y12952D01*
X15862Y12893D01*
X15848Y12831D01*
X15847Y12767D01*
X15859Y12705D01*
X15882Y12646D01*
X15917Y12592D01*
X15961Y12546D01*
X16014Y12510D01*
X16072Y12484D01*
X16134Y12471D01*
X16198Y12469D01*
X16260Y12480D01*
X16320Y12503D01*
X16374Y12538D01*
X16420Y12582D01*
X16457Y12634D01*
X16482Y12692D01*
X16497Y12754D01*
X16498Y12827D01*
X16498Y49D01*
X16214Y49D01*
X16214Y10218D01*
X16201Y10285D01*
X16194Y10301D01*
X16194Y11512D01*
X16182Y11574D01*
X16158Y11633D01*
X16123Y11686D01*
X16095Y11714D01*
X16102Y11724D01*
X16128Y11782D01*
X16142Y11844D01*
X16143Y11917D01*
X16131Y11980D01*
X16107Y12039D01*
X16071Y12092D01*
X16026Y12137D01*
X15974Y12172D01*
X15915Y12197D01*
X15853Y12210D01*
X15789Y12210D01*
X15726Y12198D01*
X15667Y12175D01*
X15614Y12140D01*
X15568Y12095D01*
X15532Y12043D01*
X15507Y11984D01*
X15501Y11957D01*
X15501Y15850D01*
X15489Y15913D01*
X15465Y15972D01*
X15430Y16025D01*
X15385Y16070D01*
X15332Y16105D01*
X15273Y16130D01*
X15211Y16143D01*
X15147Y16143D01*
X15135Y16141D01*
X15135Y17606D01*
X15123Y17669D01*
X15099Y17728D01*
X15063Y17781D01*
X15019Y17826D01*
X14966Y17861D01*
X14907Y17886D01*
X14845Y17899D01*
X14781Y17899D01*
X14718Y17887D01*
X14659Y17864D01*
X14606Y17829D01*
X14561Y17784D01*
X14525Y17732D01*
X14499Y17673D01*
X14486Y17611D01*
X14485Y17547D01*
X14497Y17484D01*
X14520Y17425D01*
X14555Y17372D01*
X14599Y17326D01*
X14651Y17289D01*
X14710Y17264D01*
X14772Y17250D01*
X14836Y17249D01*
X14898Y17260D01*
X14958Y17283D01*
X15011Y17317D01*
X15058Y17361D01*
X15094Y17413D01*
X15120Y17471D01*
X15134Y17533D01*
X15135Y17606D01*
X15135Y16141D01*
X15085Y16131D01*
X15025Y16108D01*
X14972Y16073D01*
X14927Y16028D01*
X14891Y15976D01*
X14866Y15917D01*
X14852Y15855D01*
X14851Y15791D01*
X14863Y15728D01*
X14886Y15669D01*
X14921Y15616D01*
X14965Y15570D01*
X15017Y15533D01*
X15076Y15508D01*
X15138Y15494D01*
X15202Y15493D01*
X15264Y15504D01*
X15324Y15527D01*
X15378Y15561D01*
X15424Y15605D01*
X15460Y15657D01*
X15486Y15715D01*
X15500Y15777D01*
X15501Y15850D01*
X15501Y11957D01*
X15494Y11922D01*
X15493Y11858D01*
X15505Y11795D01*
X15528Y11736D01*
X15563Y11683D01*
X15593Y11651D01*
X15584Y11637D01*
X15558Y11579D01*
X15545Y11516D01*
X15544Y11453D01*
X15556Y11390D01*
X15579Y11331D01*
X15614Y11277D01*
X15658Y11231D01*
X15710Y11195D01*
X15769Y11169D01*
X15831Y11156D01*
X15895Y11154D01*
X15957Y11165D01*
X16017Y11188D01*
X16071Y11223D01*
X16117Y11267D01*
X16153Y11319D01*
X16179Y11377D01*
X16193Y11439D01*
X16194Y11512D01*
X16194Y10301D01*
X16175Y10347D01*
X16138Y10403D01*
X16090Y10451D01*
X16052Y10477D01*
X16069Y10515D01*
X16083Y10577D01*
X16084Y10649D01*
X16072Y10712D01*
X16048Y10771D01*
X16012Y10824D01*
X15967Y10869D01*
X15915Y10905D01*
X15856Y10929D01*
X15793Y10942D01*
X15730Y10943D01*
X15667Y10931D01*
X15608Y10907D01*
X15555Y10872D01*
X15509Y10827D01*
X15473Y10775D01*
X15448Y10716D01*
X15435Y10654D01*
X15434Y10590D01*
X15446Y10528D01*
X15469Y10468D01*
X15504Y10415D01*
X15548Y10369D01*
X15569Y10355D01*
X15566Y10351D01*
X15540Y10289D01*
X15526Y10223D01*
X15525Y10156D01*
X15537Y10089D01*
X15556Y10041D01*
X15508Y10010D01*
X15462Y9965D01*
X15426Y9913D01*
X15401Y9854D01*
X15388Y9792D01*
X15387Y9728D01*
X15398Y9665D01*
X15422Y9606D01*
X15456Y9553D01*
X15501Y9507D01*
X15533Y9484D01*
X15532Y9484D01*
X15507Y9425D01*
X15494Y9363D01*
X15493Y9299D01*
X15505Y9236D01*
X15528Y9177D01*
X15551Y9141D01*
X15543Y9136D01*
X15498Y9091D01*
X15462Y9039D01*
X15436Y8980D01*
X15423Y8918D01*
X15422Y8854D01*
X15434Y8791D01*
X15457Y8732D01*
X15492Y8679D01*
X15536Y8633D01*
X15588Y8596D01*
X15647Y8571D01*
X15709Y8557D01*
X15773Y8556D01*
X15835Y8567D01*
X15895Y8590D01*
X15948Y8624D01*
X15995Y8668D01*
X16031Y8720D01*
X16057Y8778D01*
X16071Y8840D01*
X16072Y8913D01*
X16060Y8976D01*
X16036Y9035D01*
X16015Y9066D01*
X16019Y9069D01*
X16065Y9113D01*
X16102Y9165D01*
X16128Y9223D01*
X16142Y9285D01*
X16143Y9358D01*
X16131Y9421D01*
X16107Y9479D01*
X16071Y9533D01*
X16026Y9578D01*
X15997Y9597D01*
X16022Y9652D01*
X16036Y9715D01*
X16037Y9787D01*
X16025Y9850D01*
X16016Y9872D01*
X16026Y9876D01*
X16083Y9912D01*
X16132Y9958D01*
X16171Y10014D01*
X16198Y10075D01*
X16213Y10141D01*
X16214Y10218D01*
X16214Y49D01*
X16190Y49D01*
X16190Y7338D01*
X16178Y7401D01*
X16154Y7460D01*
X16119Y7513D01*
X16074Y7558D01*
X16021Y7594D01*
X15962Y7618D01*
X15900Y7631D01*
X15836Y7632D01*
X15773Y7620D01*
X15714Y7596D01*
X15661Y7561D01*
X15616Y7516D01*
X15580Y7464D01*
X15555Y7405D01*
X15541Y7343D01*
X15540Y7279D01*
X15552Y7217D01*
X15575Y7157D01*
X15610Y7104D01*
X15654Y7058D01*
X15706Y7022D01*
X15765Y6996D01*
X15827Y6983D01*
X15891Y6981D01*
X15953Y6992D01*
X16013Y7015D01*
X16067Y7049D01*
X16113Y7093D01*
X16149Y7145D01*
X16175Y7204D01*
X16189Y7266D01*
X16190Y7338D01*
X16190Y49D01*
X15974Y49D01*
X15974Y2395D01*
X15953Y2499D01*
X15913Y2597D01*
X15854Y2686D01*
X15779Y2761D01*
X15691Y2821D01*
X15635Y2844D01*
X15678Y2860D01*
X15767Y2917D01*
X15844Y2991D01*
X15906Y3077D01*
X15949Y3174D01*
X15972Y3278D01*
X15974Y3399D01*
X15953Y3503D01*
X15913Y3601D01*
X15854Y3690D01*
X15779Y3765D01*
X15691Y3824D01*
X15593Y3866D01*
X15489Y3887D01*
X15395Y3888D01*
X15395Y7807D01*
X15383Y7869D01*
X15359Y7928D01*
X15323Y7981D01*
X15278Y8027D01*
X15226Y8062D01*
X15167Y8087D01*
X15104Y8100D01*
X15041Y8100D01*
X14978Y8088D01*
X14919Y8064D01*
X14866Y8029D01*
X14820Y7985D01*
X14784Y7932D01*
X14759Y7874D01*
X14746Y7811D01*
X14745Y7748D01*
X14757Y7685D01*
X14780Y7626D01*
X14815Y7572D01*
X14859Y7527D01*
X14911Y7490D01*
X14970Y7465D01*
X15032Y7451D01*
X15095Y7450D01*
X15158Y7461D01*
X15218Y7484D01*
X15271Y7518D01*
X15317Y7562D01*
X15354Y7614D01*
X15380Y7672D01*
X15394Y7734D01*
X15395Y7807D01*
X15395Y3888D01*
X15383Y3888D01*
X15279Y3868D01*
X15181Y3828D01*
X15092Y3770D01*
X15016Y3696D01*
X14956Y3608D01*
X14927Y3541D01*
X14905Y3596D01*
X14846Y3684D01*
X14771Y3759D01*
X14683Y3819D01*
X14586Y3860D01*
X14482Y3881D01*
X14446Y3881D01*
X14446Y8484D01*
X14434Y8547D01*
X14410Y8605D01*
X14374Y8659D01*
X14330Y8704D01*
X14277Y8739D01*
X14218Y8764D01*
X14171Y8774D01*
X14171Y11059D01*
X14158Y11121D01*
X14134Y11180D01*
X14099Y11233D01*
X14054Y11279D01*
X14033Y11293D01*
X14033Y23330D01*
X14019Y23401D01*
X13992Y23467D01*
X13952Y23526D01*
X13902Y23577D01*
X13843Y23617D01*
X13777Y23644D01*
X13707Y23659D01*
X13636Y23659D01*
X13565Y23646D01*
X13499Y23619D01*
X13439Y23580D01*
X13388Y23530D01*
X13348Y23471D01*
X13320Y23405D01*
X13305Y23336D01*
X13304Y23264D01*
X13317Y23194D01*
X13343Y23128D01*
X13382Y23067D01*
X13432Y23016D01*
X13490Y22975D01*
X13556Y22947D01*
X13625Y22931D01*
X13697Y22930D01*
X13767Y22942D01*
X13834Y22968D01*
X13894Y23006D01*
X13946Y23056D01*
X13987Y23114D01*
X14016Y23179D01*
X14032Y23249D01*
X14033Y23330D01*
X14033Y11293D01*
X14001Y11314D01*
X13974Y11326D01*
X13974Y18594D01*
X13962Y18657D01*
X13937Y18716D01*
X13902Y18769D01*
X13891Y18780D01*
X13891Y20173D01*
X13879Y20236D01*
X13855Y20294D01*
X13819Y20348D01*
X13774Y20393D01*
X13722Y20428D01*
X13663Y20453D01*
X13614Y20463D01*
X13591Y20519D01*
X13556Y20572D01*
X13511Y20617D01*
X13458Y20653D01*
X13399Y20677D01*
X13337Y20690D01*
X13320Y20690D01*
X13320Y22543D01*
X13307Y22613D01*
X13279Y22679D01*
X13240Y22739D01*
X13189Y22789D01*
X13130Y22829D01*
X13064Y22857D01*
X12994Y22871D01*
X12923Y22872D01*
X12853Y22858D01*
X12787Y22832D01*
X12727Y22793D01*
X12676Y22743D01*
X12636Y22684D01*
X12607Y22618D01*
X12593Y22548D01*
X12592Y22477D01*
X12604Y22407D01*
X12631Y22340D01*
X12669Y22280D01*
X12719Y22229D01*
X12778Y22188D01*
X12843Y22159D01*
X12913Y22144D01*
X12984Y22143D01*
X13055Y22155D01*
X13121Y22181D01*
X13181Y22219D01*
X13233Y22268D01*
X13274Y22327D01*
X13303Y22392D01*
X13319Y22462D01*
X13320Y22543D01*
X13320Y20690D01*
X13273Y20691D01*
X13211Y20679D01*
X13151Y20655D01*
X13098Y20620D01*
X13053Y20575D01*
X13017Y20523D01*
X12992Y20464D01*
X12978Y20402D01*
X12977Y20338D01*
X12989Y20276D01*
X13012Y20216D01*
X13047Y20163D01*
X13091Y20117D01*
X13143Y20081D01*
X13202Y20055D01*
X13256Y20043D01*
X13276Y19992D01*
X13311Y19939D01*
X13355Y19893D01*
X13407Y19856D01*
X13466Y19831D01*
X13528Y19817D01*
X13591Y19816D01*
X13654Y19827D01*
X13714Y19850D01*
X13767Y19884D01*
X13813Y19928D01*
X13850Y19980D01*
X13876Y20038D01*
X13890Y20100D01*
X13891Y20173D01*
X13891Y18780D01*
X13857Y18814D01*
X13804Y18850D01*
X13746Y18874D01*
X13683Y18887D01*
X13620Y18888D01*
X13557Y18876D01*
X13498Y18852D01*
X13445Y18817D01*
X13399Y18772D01*
X13363Y18720D01*
X13338Y18661D01*
X13325Y18599D01*
X13324Y18535D01*
X13335Y18473D01*
X13359Y18413D01*
X13393Y18360D01*
X13438Y18314D01*
X13490Y18278D01*
X13548Y18252D01*
X13610Y18238D01*
X13674Y18237D01*
X13737Y18248D01*
X13796Y18271D01*
X13850Y18305D01*
X13896Y18349D01*
X13933Y18401D01*
X13959Y18459D01*
X13973Y18522D01*
X13974Y18594D01*
X13974Y11326D01*
X13942Y11339D01*
X13880Y11352D01*
X13816Y11352D01*
X13776Y11344D01*
X13777Y11386D01*
X13765Y11448D01*
X13740Y11507D01*
X13705Y11560D01*
X13660Y11605D01*
X13607Y11641D01*
X13549Y11666D01*
X13486Y11678D01*
X13423Y11679D01*
X13360Y11667D01*
X13301Y11643D01*
X13248Y11608D01*
X13202Y11564D01*
X13166Y11511D01*
X13141Y11453D01*
X13128Y11390D01*
X13127Y11327D01*
X13139Y11264D01*
X13162Y11205D01*
X13196Y11151D01*
X13241Y11105D01*
X13293Y11069D01*
X13351Y11043D01*
X13414Y11030D01*
X13477Y11028D01*
X13521Y11036D01*
X13521Y11000D01*
X13532Y10937D01*
X13556Y10878D01*
X13590Y10824D01*
X13634Y10779D01*
X13687Y10742D01*
X13745Y10717D01*
X13807Y10703D01*
X13871Y10702D01*
X13934Y10713D01*
X13993Y10736D01*
X14047Y10770D01*
X14093Y10814D01*
X14130Y10866D01*
X14156Y10924D01*
X14170Y10986D01*
X14171Y11059D01*
X14171Y8774D01*
X14156Y8777D01*
X14092Y8777D01*
X14029Y8765D01*
X13970Y8741D01*
X13917Y8707D01*
X13872Y8662D01*
X13836Y8610D01*
X13836Y10488D01*
X13824Y10551D01*
X13799Y10609D01*
X13764Y10662D01*
X13719Y10708D01*
X13667Y10743D01*
X13608Y10768D01*
X13545Y10781D01*
X13538Y10781D01*
X13536Y10791D01*
X13512Y10850D01*
X13477Y10903D01*
X13432Y10948D01*
X13379Y10983D01*
X13320Y11008D01*
X13258Y11021D01*
X13194Y11021D01*
X13132Y11009D01*
X13073Y10986D01*
X13019Y10951D01*
X12974Y10906D01*
X12938Y10854D01*
X12913Y10795D01*
X12900Y10733D01*
X12899Y10669D01*
X12910Y10606D01*
X12934Y10547D01*
X12968Y10494D01*
X13012Y10448D01*
X13065Y10411D01*
X13123Y10386D01*
X13185Y10372D01*
X13197Y10372D01*
X13198Y10366D01*
X13221Y10307D01*
X13256Y10253D01*
X13300Y10208D01*
X13352Y10171D01*
X13410Y10146D01*
X13473Y10132D01*
X13536Y10131D01*
X13599Y10142D01*
X13658Y10165D01*
X13712Y10199D01*
X13758Y10243D01*
X13795Y10295D01*
X13821Y10353D01*
X13835Y10415D01*
X13836Y10488D01*
X13836Y8610D01*
X13836Y8609D01*
X13810Y8551D01*
X13797Y8489D01*
X13796Y8425D01*
X13808Y8362D01*
X13831Y8303D01*
X13866Y8250D01*
X13910Y8204D01*
X13962Y8167D01*
X14021Y8142D01*
X14083Y8128D01*
X14147Y8127D01*
X14209Y8138D01*
X14269Y8161D01*
X14322Y8195D01*
X14369Y8239D01*
X14405Y8291D01*
X14431Y8349D01*
X14445Y8411D01*
X14446Y8484D01*
X14446Y3881D01*
X14375Y3882D01*
X14271Y3862D01*
X14173Y3822D01*
X14084Y3764D01*
X14008Y3690D01*
X13948Y3602D01*
X13925Y3548D01*
X13905Y3596D01*
X13846Y3684D01*
X13771Y3759D01*
X13683Y3819D01*
X13586Y3860D01*
X13482Y3881D01*
X13435Y3882D01*
X13435Y8571D01*
X13422Y8633D01*
X13398Y8692D01*
X13363Y8745D01*
X13318Y8790D01*
X13265Y8826D01*
X13206Y8851D01*
X13144Y8863D01*
X13080Y8864D01*
X13018Y8852D01*
X12959Y8828D01*
X12905Y8793D01*
X12860Y8749D01*
X12824Y8696D01*
X12801Y8642D01*
X12801Y17756D01*
X12788Y17818D01*
X12764Y17877D01*
X12729Y17930D01*
X12684Y17975D01*
X12631Y18011D01*
X12572Y18036D01*
X12557Y18039D01*
X12557Y21043D01*
X12544Y21106D01*
X12520Y21165D01*
X12485Y21218D01*
X12440Y21263D01*
X12387Y21298D01*
X12328Y21323D01*
X12266Y21336D01*
X12202Y21336D01*
X12140Y21324D01*
X12081Y21301D01*
X12027Y21266D01*
X11982Y21221D01*
X11946Y21169D01*
X11921Y21110D01*
X11907Y21048D01*
X11907Y20984D01*
X11918Y20921D01*
X11942Y20862D01*
X11976Y20809D01*
X12020Y20763D01*
X12073Y20726D01*
X12131Y20701D01*
X12193Y20687D01*
X12257Y20686D01*
X12320Y20697D01*
X12379Y20720D01*
X12433Y20754D01*
X12479Y20798D01*
X12516Y20850D01*
X12541Y20908D01*
X12556Y20970D01*
X12557Y21043D01*
X12557Y18039D01*
X12510Y18048D01*
X12446Y18049D01*
X12384Y18037D01*
X12325Y18013D01*
X12271Y17978D01*
X12226Y17934D01*
X12190Y17881D01*
X12165Y17823D01*
X12152Y17760D01*
X12151Y17697D01*
X12162Y17634D01*
X12186Y17575D01*
X12220Y17521D01*
X12264Y17475D01*
X12317Y17439D01*
X12375Y17414D01*
X12437Y17400D01*
X12501Y17398D01*
X12564Y17410D01*
X12623Y17433D01*
X12677Y17467D01*
X12723Y17511D01*
X12760Y17563D01*
X12786Y17621D01*
X12800Y17683D01*
X12801Y17756D01*
X12801Y8642D01*
X12799Y8638D01*
X12785Y8575D01*
X12785Y8512D01*
X12796Y8449D01*
X12819Y8390D01*
X12854Y8336D01*
X12898Y8290D01*
X12951Y8254D01*
X13009Y8228D01*
X13071Y8215D01*
X13135Y8213D01*
X13198Y8225D01*
X13257Y8248D01*
X13311Y8282D01*
X13357Y8326D01*
X13394Y8378D01*
X13419Y8436D01*
X13434Y8498D01*
X13435Y8571D01*
X13435Y3882D01*
X13375Y3882D01*
X13271Y3862D01*
X13173Y3822D01*
X13084Y3764D01*
X13008Y3690D01*
X12948Y3602D01*
X12925Y3548D01*
X12905Y3596D01*
X12846Y3684D01*
X12771Y3759D01*
X12734Y3785D01*
X12734Y6138D01*
X12721Y6200D01*
X12697Y6259D01*
X12662Y6312D01*
X12617Y6357D01*
X12564Y6393D01*
X12505Y6418D01*
X12501Y6418D01*
X12501Y12642D01*
X12489Y12704D01*
X12465Y12763D01*
X12430Y12816D01*
X12385Y12861D01*
X12332Y12897D01*
X12273Y12922D01*
X12211Y12934D01*
X12147Y12935D01*
X12085Y12923D01*
X12025Y12899D01*
X11972Y12864D01*
X11927Y12820D01*
X11891Y12767D01*
X11866Y12708D01*
X11852Y12646D01*
X11851Y12582D01*
X11863Y12520D01*
X11886Y12463D01*
X11863Y12497D01*
X11818Y12542D01*
X11765Y12578D01*
X11706Y12603D01*
X11644Y12615D01*
X11612Y12616D01*
X11612Y19890D01*
X11604Y19929D01*
X11604Y21441D01*
X11591Y21503D01*
X11567Y21562D01*
X11532Y21615D01*
X11487Y21660D01*
X11434Y21696D01*
X11376Y21721D01*
X11313Y21734D01*
X11249Y21734D01*
X11187Y21722D01*
X11128Y21698D01*
X11084Y21670D01*
X11084Y23165D01*
X11072Y23228D01*
X11048Y23287D01*
X11012Y23340D01*
X10967Y23385D01*
X10915Y23420D01*
X10856Y23445D01*
X10793Y23458D01*
X10730Y23458D01*
X10667Y23446D01*
X10608Y23423D01*
X10555Y23388D01*
X10509Y23343D01*
X10473Y23291D01*
X10448Y23232D01*
X10435Y23170D01*
X10434Y23106D01*
X10446Y23043D01*
X10469Y22984D01*
X10504Y22931D01*
X10548Y22885D01*
X10600Y22848D01*
X10658Y22823D01*
X10721Y22809D01*
X10784Y22808D01*
X10847Y22819D01*
X10906Y22842D01*
X10960Y22876D01*
X11006Y22920D01*
X11043Y22972D01*
X11069Y23030D01*
X11083Y23092D01*
X11084Y23165D01*
X11084Y21670D01*
X11075Y21663D01*
X11029Y21619D01*
X10993Y21566D01*
X10968Y21508D01*
X10955Y21445D01*
X10954Y21382D01*
X10965Y21319D01*
X10989Y21260D01*
X11023Y21206D01*
X11067Y21160D01*
X11120Y21124D01*
X11178Y21099D01*
X11240Y21085D01*
X11304Y21084D01*
X11367Y21095D01*
X11426Y21118D01*
X11480Y21152D01*
X11526Y21196D01*
X11563Y21248D01*
X11589Y21306D01*
X11603Y21368D01*
X11604Y21441D01*
X11604Y19929D01*
X11599Y19952D01*
X11575Y20011D01*
X11540Y20064D01*
X11495Y20109D01*
X11442Y20145D01*
X11383Y20170D01*
X11321Y20182D01*
X11257Y20183D01*
X11195Y20171D01*
X11136Y20147D01*
X11082Y20112D01*
X11037Y20068D01*
X11001Y20015D01*
X10976Y19956D01*
X10963Y19894D01*
X10962Y19830D01*
X10973Y19768D01*
X10979Y19753D01*
X10945Y19730D01*
X10899Y19686D01*
X10863Y19633D01*
X10838Y19575D01*
X10825Y19512D01*
X10824Y19449D01*
X10835Y19386D01*
X10859Y19327D01*
X10893Y19273D01*
X10938Y19227D01*
X10990Y19191D01*
X11048Y19165D01*
X11110Y19152D01*
X11174Y19150D01*
X11237Y19162D01*
X11296Y19185D01*
X11350Y19219D01*
X11396Y19263D01*
X11433Y19315D01*
X11459Y19373D01*
X11473Y19435D01*
X11474Y19508D01*
X11462Y19570D01*
X11457Y19581D01*
X11488Y19601D01*
X11534Y19645D01*
X11571Y19697D01*
X11597Y19755D01*
X11611Y19817D01*
X11612Y19890D01*
X11612Y12616D01*
X11580Y12616D01*
X11553Y12611D01*
X11553Y13567D01*
X11540Y13629D01*
X11516Y13688D01*
X11494Y13722D01*
X11494Y16275D01*
X11481Y16338D01*
X11457Y16397D01*
X11422Y16450D01*
X11377Y16495D01*
X11324Y16531D01*
X11265Y16555D01*
X11203Y16568D01*
X11139Y16569D01*
X11077Y16557D01*
X11018Y16533D01*
X10974Y16504D01*
X10974Y18634D01*
X10962Y18696D01*
X10937Y18755D01*
X10902Y18808D01*
X10857Y18853D01*
X10804Y18889D01*
X10746Y18914D01*
X10683Y18926D01*
X10620Y18927D01*
X10557Y18915D01*
X10498Y18891D01*
X10445Y18856D01*
X10399Y18812D01*
X10363Y18759D01*
X10338Y18701D01*
X10325Y18638D01*
X10324Y18575D01*
X10335Y18512D01*
X10359Y18453D01*
X10393Y18399D01*
X10438Y18353D01*
X10490Y18317D01*
X10548Y18291D01*
X10610Y18278D01*
X10674Y18276D01*
X10737Y18288D01*
X10796Y18311D01*
X10850Y18345D01*
X10896Y18389D01*
X10933Y18441D01*
X10959Y18499D01*
X10973Y18561D01*
X10974Y18634D01*
X10974Y16504D01*
X10964Y16498D01*
X10919Y16453D01*
X10883Y16401D01*
X10858Y16342D01*
X10844Y16280D01*
X10844Y16216D01*
X10855Y16154D01*
X10879Y16094D01*
X10913Y16041D01*
X10957Y15995D01*
X11010Y15959D01*
X11068Y15933D01*
X11130Y15920D01*
X11194Y15918D01*
X11257Y15929D01*
X11316Y15952D01*
X11370Y15986D01*
X11416Y16030D01*
X11453Y16082D01*
X11478Y16141D01*
X11493Y16203D01*
X11494Y16275D01*
X11494Y13722D01*
X11481Y13741D01*
X11436Y13786D01*
X11385Y13821D01*
X11386Y13829D01*
X11387Y13901D01*
X11375Y13964D01*
X11351Y14023D01*
X11315Y14076D01*
X11279Y14113D01*
X11286Y14129D01*
X11300Y14191D01*
X11301Y14264D01*
X11288Y14326D01*
X11264Y14385D01*
X11229Y14438D01*
X11184Y14483D01*
X11131Y14519D01*
X11072Y14544D01*
X11010Y14556D01*
X10946Y14557D01*
X10884Y14545D01*
X10825Y14521D01*
X10771Y14486D01*
X10726Y14442D01*
X10690Y14389D01*
X10665Y14330D01*
X10652Y14268D01*
X10651Y14204D01*
X10662Y14142D01*
X10686Y14083D01*
X10720Y14029D01*
X10760Y13988D01*
X10751Y13968D01*
X10738Y13906D01*
X10737Y13842D01*
X10749Y13780D01*
X10772Y13720D01*
X10807Y13667D01*
X10851Y13621D01*
X10903Y13585D01*
X10906Y13583D01*
X10904Y13571D01*
X10903Y13508D01*
X10914Y13445D01*
X10938Y13386D01*
X10972Y13332D01*
X11016Y13286D01*
X11069Y13250D01*
X11127Y13225D01*
X11189Y13211D01*
X11253Y13210D01*
X11316Y13221D01*
X11375Y13244D01*
X11429Y13278D01*
X11475Y13322D01*
X11512Y13374D01*
X11538Y13432D01*
X11552Y13494D01*
X11553Y13567D01*
X11553Y12611D01*
X11518Y12604D01*
X11459Y12580D01*
X11405Y12545D01*
X11387Y12527D01*
X11362Y12586D01*
X11327Y12639D01*
X11282Y12684D01*
X11230Y12720D01*
X11171Y12744D01*
X11108Y12757D01*
X11045Y12758D01*
X10982Y12746D01*
X10923Y12722D01*
X10870Y12687D01*
X10824Y12642D01*
X10792Y12596D01*
X10734Y12608D01*
X10671Y12608D01*
X10639Y12602D01*
X10639Y17126D01*
X10627Y17188D01*
X10603Y17247D01*
X10567Y17300D01*
X10522Y17345D01*
X10470Y17381D01*
X10411Y17406D01*
X10349Y17419D01*
X10285Y17419D01*
X10234Y17409D01*
X10274Y17448D01*
X10311Y17500D01*
X10337Y17558D01*
X10351Y17620D01*
X10352Y17693D01*
X10340Y17755D01*
X10315Y17814D01*
X10280Y17867D01*
X10235Y17912D01*
X10182Y17948D01*
X10124Y17973D01*
X10061Y17986D01*
X9997Y17986D01*
X9935Y17974D01*
X9883Y17953D01*
X9883Y20838D01*
X9871Y20901D01*
X9847Y20960D01*
X9811Y21013D01*
X9767Y21058D01*
X9714Y21094D01*
X9655Y21118D01*
X9647Y21120D01*
X9647Y22838D01*
X9633Y22908D01*
X9606Y22974D01*
X9567Y23034D01*
X9516Y23085D01*
X9457Y23125D01*
X9391Y23152D01*
X9321Y23167D01*
X9250Y23167D01*
X9180Y23154D01*
X9113Y23127D01*
X9054Y23088D01*
X9003Y23038D01*
X8962Y22979D01*
X8934Y22913D01*
X8919Y22843D01*
X8918Y22772D01*
X8931Y22702D01*
X8957Y22635D01*
X8996Y22575D01*
X9046Y22524D01*
X9104Y22483D01*
X9170Y22455D01*
X9240Y22439D01*
X9311Y22438D01*
X9381Y22450D01*
X9448Y22476D01*
X9508Y22514D01*
X9560Y22564D01*
X9601Y22622D01*
X9630Y22687D01*
X9646Y22757D01*
X9647Y22838D01*
X9647Y21120D01*
X9593Y21131D01*
X9529Y21132D01*
X9466Y21120D01*
X9407Y21096D01*
X9354Y21061D01*
X9309Y21016D01*
X9273Y20964D01*
X9247Y20905D01*
X9234Y20843D01*
X9233Y20779D01*
X9245Y20717D01*
X9268Y20657D01*
X9303Y20604D01*
X9347Y20558D01*
X9399Y20522D01*
X9458Y20496D01*
X9520Y20483D01*
X9584Y20481D01*
X9646Y20492D01*
X9706Y20515D01*
X9759Y20549D01*
X9806Y20593D01*
X9842Y20645D01*
X9868Y20704D01*
X9882Y20766D01*
X9883Y20838D01*
X9883Y17953D01*
X9876Y17950D01*
X9823Y17915D01*
X9777Y17871D01*
X9741Y17818D01*
X9716Y17760D01*
X9703Y17697D01*
X9702Y17634D01*
X9713Y17571D01*
X9737Y17512D01*
X9771Y17458D01*
X9816Y17412D01*
X9868Y17376D01*
X9926Y17351D01*
X9988Y17337D01*
X10052Y17336D01*
X10107Y17345D01*
X10064Y17304D01*
X10028Y17251D01*
X10003Y17193D01*
X9990Y17130D01*
X9989Y17067D01*
X10001Y17004D01*
X10024Y16945D01*
X10059Y16891D01*
X10103Y16845D01*
X10155Y16809D01*
X10214Y16784D01*
X10276Y16770D01*
X10339Y16769D01*
X10402Y16780D01*
X10462Y16803D01*
X10515Y16837D01*
X10562Y16881D01*
X10598Y16933D01*
X10624Y16991D01*
X10638Y17053D01*
X10639Y17126D01*
X10639Y12602D01*
X10608Y12596D01*
X10549Y12572D01*
X10496Y12537D01*
X10450Y12493D01*
X10414Y12440D01*
X10389Y12382D01*
X10376Y12319D01*
X10375Y12256D01*
X10387Y12193D01*
X10410Y12134D01*
X10445Y12080D01*
X10489Y12034D01*
X10541Y11998D01*
X10599Y11973D01*
X10662Y11959D01*
X10725Y11958D01*
X10788Y11969D01*
X10847Y11992D01*
X10901Y12026D01*
X10947Y12070D01*
X10983Y12120D01*
X11036Y12108D01*
X11099Y12107D01*
X11162Y12118D01*
X11221Y12141D01*
X11275Y12175D01*
X11298Y12197D01*
X11319Y12142D01*
X11354Y12088D01*
X11398Y12042D01*
X11438Y12014D01*
X11406Y11968D01*
X11381Y11909D01*
X11368Y11847D01*
X11367Y11783D01*
X11379Y11721D01*
X11402Y11661D01*
X11437Y11608D01*
X11481Y11562D01*
X11533Y11526D01*
X11592Y11500D01*
X11654Y11486D01*
X11717Y11485D01*
X11780Y11496D01*
X11840Y11519D01*
X11893Y11553D01*
X11939Y11597D01*
X11976Y11649D01*
X12002Y11708D01*
X12016Y11770D01*
X12017Y11842D01*
X12005Y11905D01*
X11981Y11964D01*
X11945Y12017D01*
X11900Y12062D01*
X11863Y12087D01*
X11894Y12130D01*
X11919Y12188D01*
X11934Y12250D01*
X11935Y12323D01*
X11922Y12385D01*
X11900Y12440D01*
X11921Y12407D01*
X11965Y12361D01*
X12017Y12325D01*
X12076Y12299D01*
X12138Y12286D01*
X12202Y12284D01*
X12264Y12295D01*
X12324Y12318D01*
X12378Y12353D01*
X12424Y12396D01*
X12460Y12449D01*
X12486Y12507D01*
X12500Y12569D01*
X12501Y12642D01*
X12501Y6418D01*
X12443Y6430D01*
X12379Y6431D01*
X12317Y6419D01*
X12258Y6395D01*
X12204Y6360D01*
X12202Y6358D01*
X12202Y8437D01*
X12190Y8499D01*
X12166Y8558D01*
X12130Y8611D01*
X12085Y8656D01*
X12033Y8692D01*
X11974Y8717D01*
X11951Y8721D01*
X11958Y8724D01*
X12011Y8758D01*
X12058Y8802D01*
X12094Y8854D01*
X12120Y8912D01*
X12134Y8974D01*
X12135Y9047D01*
X12123Y9110D01*
X12099Y9168D01*
X12063Y9222D01*
X12019Y9267D01*
X11966Y9302D01*
X11907Y9327D01*
X11845Y9340D01*
X11781Y9340D01*
X11718Y9328D01*
X11659Y9304D01*
X11606Y9270D01*
X11561Y9225D01*
X11525Y9172D01*
X11499Y9114D01*
X11486Y9052D01*
X11485Y8988D01*
X11497Y8925D01*
X11520Y8866D01*
X11555Y8813D01*
X11599Y8767D01*
X11651Y8730D01*
X11710Y8705D01*
X11737Y8699D01*
X11726Y8694D01*
X11673Y8659D01*
X11627Y8615D01*
X11591Y8562D01*
X11566Y8504D01*
X11553Y8441D01*
X11552Y8378D01*
X11564Y8315D01*
X11587Y8256D01*
X11622Y8202D01*
X11664Y8159D01*
X11612Y8159D01*
X11549Y8147D01*
X11490Y8123D01*
X11437Y8089D01*
X11391Y8044D01*
X11355Y7991D01*
X11330Y7933D01*
X11317Y7871D01*
X11316Y7807D01*
X11328Y7744D01*
X11351Y7685D01*
X11385Y7631D01*
X11430Y7586D01*
X11482Y7549D01*
X11540Y7524D01*
X11603Y7510D01*
X11666Y7509D01*
X11729Y7520D01*
X11788Y7543D01*
X11842Y7577D01*
X11888Y7621D01*
X11925Y7673D01*
X11951Y7731D01*
X11965Y7793D01*
X11966Y7866D01*
X11954Y7928D01*
X11929Y7987D01*
X11894Y8040D01*
X11854Y8081D01*
X11902Y8080D01*
X11965Y8091D01*
X12025Y8114D01*
X12078Y8148D01*
X12125Y8192D01*
X12161Y8244D01*
X12187Y8302D01*
X12201Y8364D01*
X12202Y8437D01*
X12202Y6358D01*
X12159Y6316D01*
X12123Y6263D01*
X12098Y6204D01*
X12085Y6142D01*
X12084Y6078D01*
X12095Y6016D01*
X12119Y5957D01*
X12153Y5903D01*
X12197Y5857D01*
X12250Y5821D01*
X12308Y5795D01*
X12370Y5782D01*
X12434Y5780D01*
X12497Y5791D01*
X12556Y5814D01*
X12610Y5849D01*
X12656Y5893D01*
X12693Y5945D01*
X12719Y6003D01*
X12733Y6065D01*
X12734Y6138D01*
X12734Y3785D01*
X12683Y3819D01*
X12586Y3860D01*
X12482Y3881D01*
X12375Y3882D01*
X12271Y3862D01*
X12173Y3822D01*
X12084Y3764D01*
X12008Y3690D01*
X11948Y3602D01*
X11925Y3548D01*
X11905Y3596D01*
X11846Y3684D01*
X11771Y3759D01*
X11683Y3819D01*
X11586Y3860D01*
X11482Y3881D01*
X11375Y3882D01*
X11271Y3862D01*
X11173Y3822D01*
X11084Y3764D01*
X11008Y3690D01*
X10948Y3602D01*
X10925Y3548D01*
X10905Y3596D01*
X10846Y3684D01*
X10771Y3759D01*
X10683Y3819D01*
X10586Y3860D01*
X10482Y3881D01*
X10375Y3882D01*
X10271Y3862D01*
X10173Y3822D01*
X10084Y3764D01*
X10008Y3690D01*
X9966Y3629D01*
X9966Y6480D01*
X9962Y6500D01*
X9962Y16496D01*
X9950Y16558D01*
X9925Y16617D01*
X9890Y16670D01*
X9885Y16676D01*
X9896Y16700D01*
X9910Y16762D01*
X9911Y16834D01*
X9899Y16897D01*
X9874Y16956D01*
X9839Y17009D01*
X9794Y17054D01*
X9741Y17090D01*
X9683Y17114D01*
X9620Y17127D01*
X9557Y17128D01*
X9494Y17116D01*
X9435Y17092D01*
X9382Y17057D01*
X9336Y17012D01*
X9300Y16960D01*
X9275Y16901D01*
X9262Y16839D01*
X9261Y16775D01*
X9262Y16769D01*
X9257Y16769D01*
X9195Y16757D01*
X9136Y16734D01*
X9082Y16699D01*
X9037Y16654D01*
X9001Y16602D01*
X8976Y16543D01*
X8963Y16481D01*
X8962Y16417D01*
X8973Y16354D01*
X8997Y16295D01*
X9031Y16242D01*
X9075Y16196D01*
X9128Y16159D01*
X9186Y16134D01*
X9248Y16120D01*
X9312Y16119D01*
X9375Y16130D01*
X9434Y16153D01*
X9477Y16180D01*
X9478Y16179D01*
X9536Y16154D01*
X9599Y16140D01*
X9662Y16139D01*
X9725Y16150D01*
X9784Y16173D01*
X9838Y16207D01*
X9884Y16251D01*
X9921Y16303D01*
X9947Y16361D01*
X9961Y16423D01*
X9962Y16496D01*
X9962Y6500D01*
X9954Y6543D01*
X9929Y6602D01*
X9894Y6655D01*
X9849Y6700D01*
X9796Y6735D01*
X9738Y6760D01*
X9675Y6773D01*
X9612Y6773D01*
X9592Y6770D01*
X9592Y12464D01*
X9580Y12527D01*
X9555Y12586D01*
X9521Y12637D01*
X9521Y14012D01*
X9509Y14074D01*
X9485Y14133D01*
X9449Y14186D01*
X9404Y14231D01*
X9352Y14267D01*
X9293Y14292D01*
X9230Y14304D01*
X9167Y14305D01*
X9104Y14293D01*
X9045Y14269D01*
X8992Y14234D01*
X8946Y14190D01*
X8910Y14137D01*
X8885Y14079D01*
X8879Y14051D01*
X8879Y14787D01*
X8867Y14850D01*
X8843Y14909D01*
X8808Y14962D01*
X8763Y15007D01*
X8710Y15043D01*
X8651Y15067D01*
X8596Y15079D01*
X8596Y15795D01*
X8584Y15858D01*
X8559Y15917D01*
X8557Y15921D01*
X8557Y21134D01*
X8544Y21196D01*
X8520Y21255D01*
X8485Y21308D01*
X8440Y21353D01*
X8387Y21389D01*
X8328Y21414D01*
X8266Y21426D01*
X8202Y21427D01*
X8140Y21415D01*
X8081Y21391D01*
X8027Y21356D01*
X7982Y21312D01*
X7946Y21259D01*
X7921Y21201D01*
X7907Y21138D01*
X7907Y21075D01*
X7918Y21012D01*
X7942Y20953D01*
X7976Y20899D01*
X8020Y20853D01*
X8073Y20817D01*
X8131Y20791D01*
X8193Y20778D01*
X8257Y20776D01*
X8320Y20788D01*
X8379Y20811D01*
X8433Y20845D01*
X8479Y20889D01*
X8516Y20941D01*
X8541Y20999D01*
X8556Y21061D01*
X8557Y21134D01*
X8557Y15921D01*
X8524Y15970D01*
X8479Y16015D01*
X8426Y16050D01*
X8368Y16075D01*
X8305Y16088D01*
X8242Y16088D01*
X8218Y16084D01*
X8218Y16106D01*
X8206Y16169D01*
X8181Y16228D01*
X8146Y16281D01*
X8145Y16282D01*
X8167Y16333D01*
X8182Y16396D01*
X8183Y16468D01*
X8182Y16470D01*
X8233Y16469D01*
X8296Y16480D01*
X8355Y16503D01*
X8409Y16538D01*
X8455Y16582D01*
X8492Y16634D01*
X8518Y16692D01*
X8532Y16754D01*
X8533Y16827D01*
X8521Y16889D01*
X8496Y16948D01*
X8461Y17001D01*
X8416Y17046D01*
X8363Y17082D01*
X8305Y17107D01*
X8242Y17119D01*
X8179Y17120D01*
X8116Y17108D01*
X8078Y17093D01*
X8090Y17122D01*
X8098Y17158D01*
X8098Y17195D01*
X8091Y17231D01*
X8077Y17265D01*
X8057Y17295D01*
X8031Y17321D01*
X7624Y17729D01*
X7624Y22295D01*
X7611Y22358D01*
X7587Y22417D01*
X7552Y22470D01*
X7507Y22515D01*
X7454Y22550D01*
X7395Y22575D01*
X7333Y22588D01*
X7269Y22588D01*
X7207Y22576D01*
X7148Y22553D01*
X7094Y22518D01*
X7049Y22473D01*
X7013Y22421D01*
X6988Y22362D01*
X6974Y22300D01*
X6973Y22236D01*
X6985Y22173D01*
X7008Y22114D01*
X7043Y22061D01*
X7087Y22015D01*
X7139Y21978D01*
X7198Y21953D01*
X7260Y21939D01*
X7324Y21938D01*
X7386Y21949D01*
X7446Y21972D01*
X7500Y22006D01*
X7546Y22050D01*
X7582Y22102D01*
X7608Y22160D01*
X7623Y22222D01*
X7624Y22295D01*
X7624Y17729D01*
X7606Y17746D01*
X7575Y17767D01*
X7541Y17781D01*
X7505Y17788D01*
X7469Y17788D01*
X7433Y17781D01*
X7399Y17767D01*
X7368Y17747D01*
X7342Y17722D01*
X7268Y17648D01*
X7268Y17885D01*
X7260Y17979D01*
X7232Y18070D01*
X7188Y18154D01*
X7128Y18228D01*
X7055Y18289D01*
X6972Y18335D01*
X6881Y18363D01*
X6787Y18373D01*
X6692Y18365D01*
X6601Y18338D01*
X6516Y18295D01*
X6497Y18279D01*
X6489Y18318D01*
X6465Y18377D01*
X6430Y18430D01*
X6385Y18475D01*
X6332Y18511D01*
X6285Y18531D01*
X6285Y23315D01*
X6271Y23385D01*
X6244Y23451D01*
X6204Y23510D01*
X6154Y23561D01*
X6095Y23601D01*
X6029Y23629D01*
X5959Y23643D01*
X5888Y23643D01*
X5817Y23630D01*
X5751Y23603D01*
X5691Y23564D01*
X5640Y23514D01*
X5600Y23455D01*
X5572Y23390D01*
X5557Y23320D01*
X5556Y23248D01*
X5569Y23178D01*
X5595Y23112D01*
X5634Y23052D01*
X5684Y23000D01*
X5742Y22960D01*
X5808Y22931D01*
X5877Y22916D01*
X5949Y22914D01*
X6019Y22927D01*
X6086Y22952D01*
X6146Y22991D01*
X6198Y23040D01*
X6239Y23098D01*
X6268Y23164D01*
X6284Y23233D01*
X6285Y23315D01*
X6285Y18531D01*
X6273Y18536D01*
X6211Y18548D01*
X6147Y18549D01*
X6085Y18537D01*
X6064Y18529D01*
X6064Y20827D01*
X6051Y20897D01*
X6023Y20963D01*
X5984Y21022D01*
X5934Y21073D01*
X5890Y21102D01*
X5908Y21141D01*
X5922Y21203D01*
X5923Y21275D01*
X5910Y21338D01*
X5886Y21397D01*
X5851Y21450D01*
X5806Y21495D01*
X5753Y21531D01*
X5694Y21555D01*
X5632Y21568D01*
X5568Y21569D01*
X5506Y21557D01*
X5447Y21533D01*
X5393Y21498D01*
X5348Y21453D01*
X5313Y21402D01*
X5313Y23445D01*
X5299Y23515D01*
X5271Y23581D01*
X5232Y23640D01*
X5182Y23691D01*
X5122Y23731D01*
X5057Y23759D01*
X4987Y23773D01*
X4915Y23773D01*
X4845Y23760D01*
X4779Y23733D01*
X4719Y23694D01*
X4668Y23644D01*
X4628Y23585D01*
X4600Y23520D01*
X4585Y23450D01*
X4584Y23378D01*
X4597Y23308D01*
X4623Y23242D01*
X4662Y23182D01*
X4711Y23130D01*
X4770Y23090D01*
X4835Y23061D01*
X4905Y23046D01*
X4976Y23044D01*
X5047Y23056D01*
X5113Y23082D01*
X5174Y23121D01*
X5225Y23170D01*
X5266Y23228D01*
X5296Y23293D01*
X5311Y23363D01*
X5313Y23445D01*
X5313Y21402D01*
X5312Y21401D01*
X5287Y21342D01*
X5274Y21280D01*
X5273Y21216D01*
X5284Y21154D01*
X5308Y21094D01*
X5342Y21041D01*
X5386Y20995D01*
X5395Y20989D01*
X5380Y20967D01*
X5351Y20901D01*
X5337Y20832D01*
X5336Y20760D01*
X5349Y20690D01*
X5375Y20624D01*
X5414Y20564D01*
X5463Y20512D01*
X5522Y20471D01*
X5587Y20443D01*
X5657Y20427D01*
X5728Y20426D01*
X5799Y20438D01*
X5865Y20464D01*
X5926Y20502D01*
X5977Y20552D01*
X6018Y20610D01*
X6048Y20675D01*
X6063Y20745D01*
X6064Y20827D01*
X6064Y18529D01*
X6025Y18513D01*
X5972Y18478D01*
X5927Y18434D01*
X5891Y18381D01*
X5866Y18323D01*
X5852Y18260D01*
X5851Y18197D01*
X5863Y18134D01*
X5886Y18075D01*
X5921Y18021D01*
X5965Y17975D01*
X6017Y17939D01*
X6076Y17914D01*
X6138Y17900D01*
X6149Y17900D01*
X6140Y17881D01*
X6112Y17790D01*
X6102Y17697D01*
X6062Y17689D01*
X5995Y17662D01*
X5936Y17623D01*
X5885Y17573D01*
X5844Y17514D01*
X5816Y17449D01*
X5801Y17379D01*
X5800Y17307D01*
X5813Y17237D01*
X5839Y17171D01*
X5878Y17111D01*
X5928Y17059D01*
X5986Y17019D01*
X6052Y16990D01*
X6122Y16975D01*
X6193Y16973D01*
X6263Y16986D01*
X6330Y17011D01*
X6390Y17050D01*
X6442Y17099D01*
X6483Y17157D01*
X6509Y17215D01*
X6584Y17207D01*
X6679Y17215D01*
X6770Y17242D01*
X6854Y17285D01*
X6929Y17345D01*
X6934Y17350D01*
X7126Y17542D01*
X7186Y17615D01*
X7231Y17699D01*
X7259Y17790D01*
X7268Y17885D01*
X7268Y17648D01*
X6729Y17108D01*
X6709Y17078D01*
X6694Y17044D01*
X6687Y17008D01*
X6687Y16971D01*
X6694Y16935D01*
X6708Y16901D01*
X6728Y16871D01*
X6754Y16845D01*
X7179Y16419D01*
X7210Y16399D01*
X7243Y16385D01*
X7279Y16378D01*
X7316Y16378D01*
X7352Y16385D01*
X7386Y16398D01*
X7417Y16419D01*
X7443Y16444D01*
X7557Y16558D01*
X7547Y16535D01*
X7533Y16473D01*
X7533Y16409D01*
X7544Y16347D01*
X7567Y16287D01*
X7602Y16234D01*
X7606Y16229D01*
X7582Y16173D01*
X7569Y16111D01*
X7568Y16047D01*
X7579Y15984D01*
X7603Y15925D01*
X7637Y15872D01*
X7682Y15826D01*
X7734Y15789D01*
X7792Y15764D01*
X7855Y15750D01*
X7918Y15749D01*
X7946Y15754D01*
X7946Y15736D01*
X7957Y15673D01*
X7981Y15614D01*
X8015Y15561D01*
X8060Y15515D01*
X8112Y15478D01*
X8170Y15453D01*
X8233Y15439D01*
X8296Y15438D01*
X8359Y15449D01*
X8418Y15472D01*
X8472Y15506D01*
X8518Y15550D01*
X8555Y15602D01*
X8581Y15660D01*
X8595Y15722D01*
X8596Y15795D01*
X8596Y15079D01*
X8589Y15080D01*
X8525Y15080D01*
X8462Y15069D01*
X8403Y15045D01*
X8350Y15010D01*
X8305Y14965D01*
X8288Y14942D01*
X8289Y14972D01*
X8277Y15035D01*
X8252Y15094D01*
X8217Y15147D01*
X8172Y15192D01*
X8119Y15228D01*
X8061Y15252D01*
X7998Y15265D01*
X7934Y15265D01*
X7872Y15254D01*
X7813Y15230D01*
X7760Y15195D01*
X7714Y15150D01*
X7678Y15098D01*
X7653Y15039D01*
X7640Y14977D01*
X7639Y14913D01*
X7650Y14850D01*
X7674Y14791D01*
X7708Y14738D01*
X7753Y14692D01*
X7805Y14656D01*
X7863Y14630D01*
X7925Y14616D01*
X7989Y14615D01*
X8052Y14626D01*
X8111Y14649D01*
X8165Y14683D01*
X8211Y14727D01*
X8230Y14754D01*
X8229Y14728D01*
X8241Y14665D01*
X8264Y14606D01*
X8280Y14582D01*
X8253Y14543D01*
X8228Y14484D01*
X8215Y14422D01*
X8214Y14358D01*
X8225Y14295D01*
X8249Y14236D01*
X8283Y14183D01*
X8327Y14137D01*
X8380Y14100D01*
X8438Y14075D01*
X8500Y14061D01*
X8564Y14060D01*
X8627Y14071D01*
X8686Y14094D01*
X8740Y14128D01*
X8786Y14172D01*
X8823Y14224D01*
X8849Y14282D01*
X8863Y14344D01*
X8864Y14417D01*
X8851Y14480D01*
X8827Y14539D01*
X8814Y14559D01*
X8838Y14594D01*
X8864Y14652D01*
X8878Y14715D01*
X8879Y14787D01*
X8879Y14051D01*
X8872Y14016D01*
X8871Y13953D01*
X8883Y13890D01*
X8906Y13831D01*
X8941Y13777D01*
X8985Y13731D01*
X9037Y13695D01*
X9095Y13669D01*
X9158Y13656D01*
X9221Y13654D01*
X9284Y13665D01*
X9344Y13688D01*
X9397Y13723D01*
X9443Y13767D01*
X9480Y13819D01*
X9506Y13877D01*
X9520Y13939D01*
X9521Y14012D01*
X9521Y12637D01*
X9520Y12639D01*
X9475Y12684D01*
X9422Y12720D01*
X9364Y12744D01*
X9301Y12757D01*
X9238Y12758D01*
X9175Y12746D01*
X9116Y12722D01*
X9063Y12687D01*
X9017Y12642D01*
X8981Y12590D01*
X8958Y12536D01*
X8958Y12539D01*
X8933Y12598D01*
X8898Y12651D01*
X8853Y12696D01*
X8800Y12731D01*
X8742Y12756D01*
X8679Y12769D01*
X8616Y12769D01*
X8553Y12757D01*
X8494Y12734D01*
X8441Y12699D01*
X8395Y12654D01*
X8359Y12602D01*
X8334Y12543D01*
X8321Y12481D01*
X8320Y12417D01*
X8331Y12354D01*
X8355Y12295D01*
X8389Y12242D01*
X8434Y12196D01*
X8486Y12159D01*
X8544Y12134D01*
X8607Y12120D01*
X8670Y12119D01*
X8733Y12130D01*
X8792Y12153D01*
X8846Y12187D01*
X8892Y12231D01*
X8929Y12283D01*
X8954Y12340D01*
X8977Y12283D01*
X9011Y12230D01*
X9056Y12184D01*
X9108Y12148D01*
X9166Y12122D01*
X9229Y12108D01*
X9292Y12107D01*
X9355Y12118D01*
X9414Y12141D01*
X9468Y12175D01*
X9514Y12219D01*
X9551Y12271D01*
X9577Y12330D01*
X9591Y12392D01*
X9592Y12464D01*
X9592Y6770D01*
X9549Y6761D01*
X9490Y6738D01*
X9437Y6703D01*
X9391Y6658D01*
X9355Y6606D01*
X9330Y6547D01*
X9317Y6485D01*
X9316Y6421D01*
X9328Y6358D01*
X9351Y6299D01*
X9385Y6246D01*
X9430Y6200D01*
X9482Y6163D01*
X9540Y6138D01*
X9603Y6124D01*
X9666Y6123D01*
X9729Y6134D01*
X9788Y6157D01*
X9842Y6191D01*
X9888Y6235D01*
X9925Y6287D01*
X9951Y6345D01*
X9965Y6407D01*
X9966Y6480D01*
X9966Y3629D01*
X9948Y3602D01*
X9925Y3548D01*
X9905Y3596D01*
X9846Y3684D01*
X9771Y3759D01*
X9683Y3819D01*
X9586Y3860D01*
X9482Y3881D01*
X9375Y3882D01*
X9271Y3862D01*
X9173Y3822D01*
X9084Y3764D01*
X9008Y3690D01*
X8982Y3652D01*
X8982Y6429D01*
X8969Y6491D01*
X8945Y6550D01*
X8910Y6603D01*
X8865Y6649D01*
X8812Y6684D01*
X8753Y6709D01*
X8691Y6722D01*
X8627Y6722D01*
X8565Y6710D01*
X8506Y6686D01*
X8452Y6651D01*
X8407Y6607D01*
X8371Y6554D01*
X8346Y6496D01*
X8333Y6434D01*
X8332Y6370D01*
X8343Y6307D01*
X8367Y6248D01*
X8401Y6194D01*
X8445Y6149D01*
X8498Y6112D01*
X8556Y6087D01*
X8618Y6073D01*
X8682Y6072D01*
X8745Y6083D01*
X8804Y6106D01*
X8858Y6140D01*
X8904Y6184D01*
X8941Y6236D01*
X8967Y6294D01*
X8981Y6356D01*
X8982Y6429D01*
X8982Y3652D01*
X8948Y3602D01*
X8925Y3548D01*
X8905Y3596D01*
X8846Y3684D01*
X8771Y3759D01*
X8683Y3819D01*
X8586Y3860D01*
X8482Y3881D01*
X8375Y3882D01*
X8271Y3862D01*
X8230Y3845D01*
X8230Y12527D01*
X8217Y12590D01*
X8193Y12649D01*
X8158Y12702D01*
X8113Y12747D01*
X8060Y12783D01*
X8002Y12807D01*
X7939Y12820D01*
X7875Y12821D01*
X7813Y12809D01*
X7754Y12785D01*
X7701Y12750D01*
X7655Y12705D01*
X7619Y12653D01*
X7594Y12594D01*
X7581Y12532D01*
X7580Y12468D01*
X7591Y12406D01*
X7615Y12346D01*
X7649Y12293D01*
X7693Y12247D01*
X7746Y12211D01*
X7804Y12185D01*
X7866Y12171D01*
X7930Y12170D01*
X7993Y12181D01*
X8052Y12204D01*
X8106Y12238D01*
X8152Y12282D01*
X8189Y12334D01*
X8215Y12393D01*
X8229Y12455D01*
X8230Y12527D01*
X8230Y3845D01*
X8173Y3822D01*
X8084Y3764D01*
X8033Y3714D01*
X8033Y9842D01*
X8021Y9905D01*
X7996Y9964D01*
X7961Y10017D01*
X7916Y10062D01*
X7863Y10098D01*
X7805Y10122D01*
X7742Y10135D01*
X7722Y10135D01*
X7722Y11334D01*
X7710Y11397D01*
X7685Y11456D01*
X7650Y11509D01*
X7605Y11554D01*
X7552Y11590D01*
X7494Y11614D01*
X7431Y11627D01*
X7368Y11628D01*
X7352Y11625D01*
X7352Y11988D01*
X7340Y12051D01*
X7315Y12109D01*
X7280Y12162D01*
X7235Y12208D01*
X7234Y12209D01*
X7234Y12657D01*
X7221Y12720D01*
X7197Y12779D01*
X7162Y12832D01*
X7117Y12877D01*
X7064Y12913D01*
X7057Y12916D01*
X7057Y13457D01*
X7044Y13519D01*
X7020Y13578D01*
X6985Y13631D01*
X6940Y13676D01*
X6923Y13688D01*
X6923Y14957D01*
X6910Y15019D01*
X6886Y15078D01*
X6851Y15131D01*
X6820Y15162D01*
X6820Y15618D01*
X6808Y15680D01*
X6784Y15739D01*
X6748Y15792D01*
X6704Y15838D01*
X6651Y15873D01*
X6592Y15898D01*
X6530Y15911D01*
X6466Y15911D01*
X6403Y15899D01*
X6344Y15875D01*
X6291Y15840D01*
X6246Y15796D01*
X6210Y15743D01*
X6184Y15685D01*
X6171Y15622D01*
X6170Y15559D01*
X6182Y15496D01*
X6205Y15437D01*
X6240Y15383D01*
X6284Y15338D01*
X6336Y15301D01*
X6395Y15276D01*
X6457Y15262D01*
X6521Y15261D01*
X6583Y15272D01*
X6643Y15295D01*
X6696Y15329D01*
X6743Y15373D01*
X6779Y15425D01*
X6805Y15483D01*
X6819Y15545D01*
X6820Y15618D01*
X6820Y15162D01*
X6806Y15176D01*
X6753Y15212D01*
X6694Y15236D01*
X6632Y15249D01*
X6568Y15250D01*
X6506Y15238D01*
X6447Y15214D01*
X6393Y15179D01*
X6348Y15134D01*
X6312Y15082D01*
X6287Y15023D01*
X6274Y14961D01*
X6273Y14897D01*
X6284Y14835D01*
X6308Y14776D01*
X6342Y14722D01*
X6386Y14676D01*
X6439Y14640D01*
X6497Y14614D01*
X6559Y14601D01*
X6623Y14599D01*
X6686Y14610D01*
X6745Y14633D01*
X6799Y14668D01*
X6845Y14711D01*
X6882Y14763D01*
X6908Y14822D01*
X6922Y14884D01*
X6923Y14957D01*
X6923Y13688D01*
X6887Y13712D01*
X6828Y13736D01*
X6766Y13749D01*
X6702Y13750D01*
X6640Y13738D01*
X6581Y13714D01*
X6527Y13679D01*
X6482Y13634D01*
X6446Y13582D01*
X6421Y13523D01*
X6407Y13461D01*
X6407Y13397D01*
X6418Y13335D01*
X6442Y13276D01*
X6476Y13222D01*
X6520Y13176D01*
X6573Y13140D01*
X6631Y13114D01*
X6693Y13101D01*
X6757Y13099D01*
X6820Y13110D01*
X6879Y13133D01*
X6933Y13168D01*
X6979Y13211D01*
X7016Y13263D01*
X7041Y13322D01*
X7056Y13384D01*
X7057Y13457D01*
X7057Y12916D01*
X7005Y12937D01*
X6943Y12950D01*
X6879Y12951D01*
X6817Y12939D01*
X6758Y12915D01*
X6704Y12880D01*
X6659Y12835D01*
X6623Y12783D01*
X6598Y12724D01*
X6585Y12662D01*
X6584Y12598D01*
X6595Y12536D01*
X6619Y12476D01*
X6653Y12423D01*
X6697Y12377D01*
X6750Y12341D01*
X6808Y12315D01*
X6870Y12301D01*
X6934Y12300D01*
X6997Y12311D01*
X7056Y12334D01*
X7110Y12368D01*
X7156Y12412D01*
X7193Y12464D01*
X7219Y12522D01*
X7233Y12585D01*
X7234Y12657D01*
X7234Y12209D01*
X7182Y12243D01*
X7124Y12268D01*
X7061Y12281D01*
X6997Y12281D01*
X6935Y12269D01*
X6876Y12245D01*
X6823Y12211D01*
X6777Y12166D01*
X6741Y12113D01*
X6716Y12055D01*
X6703Y11993D01*
X6702Y11929D01*
X6713Y11866D01*
X6737Y11807D01*
X6771Y11753D01*
X6816Y11708D01*
X6868Y11671D01*
X6926Y11646D01*
X6988Y11632D01*
X7052Y11631D01*
X7115Y11642D01*
X7174Y11665D01*
X7228Y11699D01*
X7274Y11743D01*
X7311Y11795D01*
X7337Y11853D01*
X7351Y11915D01*
X7352Y11988D01*
X7352Y11625D01*
X7305Y11616D01*
X7246Y11592D01*
X7193Y11557D01*
X7147Y11512D01*
X7111Y11460D01*
X7086Y11401D01*
X7073Y11339D01*
X7072Y11275D01*
X7083Y11213D01*
X7107Y11153D01*
X7141Y11100D01*
X7186Y11054D01*
X7238Y11018D01*
X7296Y10992D01*
X7358Y10979D01*
X7422Y10977D01*
X7485Y10988D01*
X7544Y11011D01*
X7598Y11045D01*
X7644Y11089D01*
X7681Y11141D01*
X7707Y11200D01*
X7721Y11262D01*
X7722Y11334D01*
X7722Y10135D01*
X7679Y10136D01*
X7655Y10131D01*
X7655Y10453D01*
X7643Y10515D01*
X7618Y10574D01*
X7583Y10627D01*
X7538Y10672D01*
X7485Y10708D01*
X7427Y10733D01*
X7364Y10745D01*
X7301Y10746D01*
X7238Y10734D01*
X7179Y10710D01*
X7126Y10675D01*
X7080Y10631D01*
X7044Y10578D01*
X7019Y10519D01*
X7006Y10457D01*
X7005Y10393D01*
X7016Y10331D01*
X7040Y10272D01*
X7074Y10218D01*
X7119Y10172D01*
X7171Y10136D01*
X7229Y10110D01*
X7292Y10097D01*
X7355Y10095D01*
X7418Y10106D01*
X7477Y10129D01*
X7531Y10164D01*
X7577Y10208D01*
X7614Y10260D01*
X7640Y10318D01*
X7654Y10380D01*
X7655Y10453D01*
X7655Y10131D01*
X7616Y10124D01*
X7557Y10100D01*
X7504Y10065D01*
X7458Y10020D01*
X7422Y9968D01*
X7397Y9909D01*
X7384Y9847D01*
X7383Y9786D01*
X7379Y9806D01*
X7355Y9865D01*
X7319Y9918D01*
X7274Y9964D01*
X7222Y9999D01*
X7163Y10024D01*
X7101Y10037D01*
X7037Y10037D01*
X6974Y10025D01*
X6915Y10001D01*
X6862Y9966D01*
X6816Y9922D01*
X6780Y9869D01*
X6755Y9811D01*
X6742Y9748D01*
X6741Y9685D01*
X6753Y9622D01*
X6776Y9563D01*
X6811Y9509D01*
X6855Y9464D01*
X6907Y9427D01*
X6966Y9402D01*
X7028Y9388D01*
X7091Y9387D01*
X7154Y9398D01*
X7214Y9421D01*
X7267Y9455D01*
X7313Y9499D01*
X7350Y9551D01*
X7376Y9609D01*
X7390Y9671D01*
X7391Y9738D01*
X7394Y9721D01*
X7418Y9661D01*
X7452Y9608D01*
X7497Y9562D01*
X7549Y9526D01*
X7607Y9500D01*
X7670Y9486D01*
X7733Y9485D01*
X7796Y9496D01*
X7855Y9519D01*
X7909Y9553D01*
X7955Y9597D01*
X7992Y9649D01*
X8018Y9708D01*
X8032Y9770D01*
X8033Y9842D01*
X8033Y3714D01*
X8008Y3690D01*
X7948Y3602D01*
X7925Y3548D01*
X7915Y3572D01*
X7915Y6201D01*
X7902Y6263D01*
X7878Y6322D01*
X7843Y6375D01*
X7798Y6420D01*
X7745Y6456D01*
X7687Y6481D01*
X7624Y6493D01*
X7560Y6494D01*
X7498Y6482D01*
X7439Y6458D01*
X7386Y6423D01*
X7340Y6379D01*
X7304Y6326D01*
X7279Y6267D01*
X7266Y6205D01*
X7265Y6141D01*
X7276Y6079D01*
X7300Y6020D01*
X7334Y5966D01*
X7379Y5920D01*
X7431Y5884D01*
X7489Y5858D01*
X7551Y5845D01*
X7615Y5843D01*
X7678Y5854D01*
X7737Y5877D01*
X7791Y5912D01*
X7837Y5956D01*
X7874Y6008D01*
X7900Y6066D01*
X7914Y6128D01*
X7915Y6201D01*
X7915Y3572D01*
X7905Y3596D01*
X7846Y3684D01*
X7771Y3759D01*
X7683Y3819D01*
X7586Y3860D01*
X7482Y3881D01*
X7375Y3882D01*
X7271Y3862D01*
X7173Y3822D01*
X7084Y3764D01*
X7008Y3690D01*
X6970Y3634D01*
X6970Y5870D01*
X6958Y5932D01*
X6933Y5991D01*
X6898Y6044D01*
X6853Y6090D01*
X6800Y6125D01*
X6742Y6150D01*
X6679Y6163D01*
X6616Y6163D01*
X6553Y6151D01*
X6494Y6127D01*
X6441Y6092D01*
X6395Y6048D01*
X6359Y5995D01*
X6334Y5937D01*
X6321Y5874D01*
X6320Y5811D01*
X6331Y5748D01*
X6355Y5689D01*
X6389Y5635D01*
X6434Y5590D01*
X6486Y5553D01*
X6544Y5528D01*
X6607Y5514D01*
X6670Y5513D01*
X6733Y5524D01*
X6792Y5547D01*
X6846Y5581D01*
X6892Y5625D01*
X6929Y5677D01*
X6955Y5735D01*
X6969Y5797D01*
X6970Y5870D01*
X6970Y3634D01*
X6948Y3602D01*
X6925Y3548D01*
X6905Y3596D01*
X6846Y3684D01*
X6771Y3759D01*
X6683Y3819D01*
X6586Y3860D01*
X6482Y3881D01*
X6375Y3882D01*
X6271Y3862D01*
X6206Y3836D01*
X6206Y8366D01*
X6194Y8428D01*
X6170Y8487D01*
X6134Y8540D01*
X6089Y8586D01*
X6068Y8600D01*
X6071Y8616D01*
X6072Y8689D01*
X6060Y8751D01*
X6036Y8810D01*
X6000Y8863D01*
X5956Y8908D01*
X5903Y8944D01*
X5844Y8969D01*
X5782Y8982D01*
X5757Y8982D01*
X5757Y10386D01*
X5745Y10448D01*
X5721Y10507D01*
X5685Y10560D01*
X5641Y10605D01*
X5588Y10641D01*
X5529Y10666D01*
X5467Y10678D01*
X5438Y10679D01*
X5438Y15067D01*
X5426Y15129D01*
X5402Y15188D01*
X5367Y15241D01*
X5322Y15286D01*
X5269Y15322D01*
X5210Y15347D01*
X5148Y15360D01*
X5084Y15360D01*
X5053Y15354D01*
X5053Y16996D01*
X5040Y17058D01*
X5016Y17117D01*
X4981Y17170D01*
X4936Y17216D01*
X4883Y17251D01*
X4875Y17255D01*
X4875Y17315D01*
X4863Y17377D01*
X4839Y17436D01*
X4804Y17489D01*
X4789Y17504D01*
X4819Y17547D01*
X4845Y17605D01*
X4859Y17667D01*
X4860Y17740D01*
X4847Y17802D01*
X4823Y17861D01*
X4788Y17914D01*
X4743Y17960D01*
X4690Y17995D01*
X4631Y18020D01*
X4569Y18033D01*
X4505Y18033D01*
X4443Y18021D01*
X4384Y17997D01*
X4361Y17983D01*
X4345Y17999D01*
X4293Y18035D01*
X4234Y18059D01*
X4171Y18072D01*
X4108Y18073D01*
X4080Y18067D01*
X4080Y21752D01*
X4068Y21814D01*
X4044Y21873D01*
X4008Y21926D01*
X3963Y21971D01*
X3911Y22007D01*
X3852Y22032D01*
X3790Y22045D01*
X3726Y22045D01*
X3663Y22033D01*
X3604Y22009D01*
X3551Y21974D01*
X3505Y21930D01*
X3469Y21877D01*
X3444Y21819D01*
X3431Y21756D01*
X3430Y21693D01*
X3442Y21630D01*
X3465Y21571D01*
X3500Y21517D01*
X3544Y21471D01*
X3596Y21435D01*
X3655Y21410D01*
X3717Y21396D01*
X3780Y21395D01*
X3843Y21406D01*
X3903Y21429D01*
X3956Y21463D01*
X4002Y21507D01*
X4039Y21559D01*
X4065Y21617D01*
X4079Y21679D01*
X4080Y21752D01*
X4080Y18067D01*
X4045Y18061D01*
X3986Y18037D01*
X3959Y18019D01*
X3940Y18038D01*
X3887Y18074D01*
X3828Y18099D01*
X3766Y18111D01*
X3726Y18112D01*
X3726Y21039D01*
X3714Y21102D01*
X3689Y21161D01*
X3654Y21214D01*
X3609Y21259D01*
X3556Y21294D01*
X3498Y21319D01*
X3435Y21332D01*
X3371Y21332D01*
X3309Y21320D01*
X3250Y21297D01*
X3232Y21285D01*
X3231Y21286D01*
X3178Y21322D01*
X3120Y21347D01*
X3057Y21360D01*
X2994Y21360D01*
X2931Y21348D01*
X2872Y21324D01*
X2819Y21289D01*
X2773Y21245D01*
X2737Y21192D01*
X2712Y21134D01*
X2699Y21071D01*
X2698Y21008D01*
X2709Y20945D01*
X2733Y20886D01*
X2734Y20883D01*
X2714Y20884D01*
X2651Y20872D01*
X2592Y20848D01*
X2539Y20813D01*
X2494Y20768D01*
X2458Y20716D01*
X2432Y20657D01*
X2419Y20595D01*
X2418Y20531D01*
X2430Y20469D01*
X2453Y20409D01*
X2488Y20356D01*
X2532Y20310D01*
X2584Y20274D01*
X2643Y20248D01*
X2705Y20234D01*
X2769Y20233D01*
X2831Y20244D01*
X2891Y20267D01*
X2945Y20301D01*
X2991Y20345D01*
X3027Y20397D01*
X3053Y20456D01*
X3067Y20518D01*
X3068Y20590D01*
X3056Y20653D01*
X3033Y20710D01*
X3048Y20710D01*
X3111Y20721D01*
X3170Y20744D01*
X3192Y20757D01*
X3242Y20722D01*
X3300Y20697D01*
X3362Y20683D01*
X3426Y20682D01*
X3489Y20693D01*
X3548Y20716D01*
X3602Y20750D01*
X3648Y20794D01*
X3685Y20846D01*
X3711Y20904D01*
X3725Y20966D01*
X3726Y21039D01*
X3726Y18112D01*
X3702Y18112D01*
X3640Y18100D01*
X3581Y18076D01*
X3527Y18041D01*
X3482Y17997D01*
X3446Y17944D01*
X3421Y17886D01*
X3407Y17823D01*
X3407Y17760D01*
X3418Y17697D01*
X3442Y17638D01*
X3476Y17584D01*
X3520Y17538D01*
X3573Y17502D01*
X3631Y17477D01*
X3693Y17463D01*
X3757Y17461D01*
X3820Y17473D01*
X3879Y17496D01*
X3910Y17515D01*
X3926Y17499D01*
X3978Y17463D01*
X4036Y17437D01*
X4099Y17423D01*
X4162Y17422D01*
X4225Y17433D01*
X4272Y17452D01*
X4265Y17440D01*
X4240Y17382D01*
X4226Y17319D01*
X4225Y17256D01*
X4237Y17193D01*
X4260Y17134D01*
X4295Y17080D01*
X4339Y17034D01*
X4391Y16998D01*
X4403Y16993D01*
X4403Y16937D01*
X4414Y16874D01*
X4438Y16815D01*
X4472Y16761D01*
X4516Y16716D01*
X4569Y16679D01*
X4627Y16654D01*
X4689Y16640D01*
X4753Y16639D01*
X4816Y16650D01*
X4875Y16673D01*
X4929Y16707D01*
X4975Y16751D01*
X5012Y16803D01*
X5038Y16861D01*
X5052Y16923D01*
X5053Y16996D01*
X5053Y15354D01*
X5022Y15348D01*
X4962Y15324D01*
X4909Y15289D01*
X4864Y15245D01*
X4828Y15192D01*
X4803Y15134D01*
X4789Y15071D01*
X4788Y15008D01*
X4796Y14968D01*
X4789Y14966D01*
X4736Y14931D01*
X4690Y14886D01*
X4654Y14834D01*
X4629Y14775D01*
X4616Y14713D01*
X4615Y14649D01*
X4627Y14587D01*
X4650Y14527D01*
X4685Y14474D01*
X4700Y14458D01*
X4690Y14458D01*
X4628Y14446D01*
X4569Y14423D01*
X4515Y14388D01*
X4470Y14343D01*
X4434Y14291D01*
X4427Y14274D01*
X4427Y15854D01*
X4414Y15917D01*
X4390Y15976D01*
X4355Y16029D01*
X4310Y16074D01*
X4257Y16109D01*
X4198Y16134D01*
X4136Y16147D01*
X4072Y16147D01*
X4010Y16135D01*
X3951Y16112D01*
X3897Y16077D01*
X3852Y16032D01*
X3816Y15980D01*
X3791Y15921D01*
X3778Y15859D01*
X3777Y15795D01*
X3788Y15732D01*
X3812Y15673D01*
X3846Y15620D01*
X3890Y15574D01*
X3943Y15537D01*
X4001Y15512D01*
X4063Y15498D01*
X4127Y15497D01*
X4190Y15508D01*
X4249Y15531D01*
X4303Y15565D01*
X4349Y15609D01*
X4386Y15661D01*
X4412Y15719D01*
X4426Y15781D01*
X4427Y15854D01*
X4427Y14274D01*
X4409Y14232D01*
X4396Y14170D01*
X4395Y14106D01*
X4406Y14043D01*
X4430Y13984D01*
X4464Y13931D01*
X4508Y13885D01*
X4561Y13848D01*
X4619Y13823D01*
X4681Y13809D01*
X4745Y13808D01*
X4808Y13819D01*
X4867Y13842D01*
X4921Y13876D01*
X4967Y13920D01*
X5004Y13972D01*
X5030Y14030D01*
X5044Y14092D01*
X5045Y14165D01*
X5032Y14228D01*
X5008Y14287D01*
X4973Y14340D01*
X4961Y14351D01*
X4965Y14351D01*
X5028Y14362D01*
X5088Y14385D01*
X5141Y14419D01*
X5188Y14463D01*
X5224Y14515D01*
X5250Y14574D01*
X5264Y14636D01*
X5265Y14709D01*
X5258Y14743D01*
X5261Y14744D01*
X5315Y14778D01*
X5361Y14822D01*
X5397Y14874D01*
X5423Y14932D01*
X5437Y14994D01*
X5438Y15067D01*
X5438Y10679D01*
X5403Y10679D01*
X5340Y10667D01*
X5281Y10643D01*
X5228Y10608D01*
X5183Y10564D01*
X5147Y10511D01*
X5121Y10453D01*
X5108Y10390D01*
X5107Y10327D01*
X5119Y10264D01*
X5142Y10205D01*
X5177Y10151D01*
X5221Y10105D01*
X5273Y10069D01*
X5332Y10043D01*
X5394Y10030D01*
X5458Y10028D01*
X5520Y10039D01*
X5580Y10063D01*
X5634Y10097D01*
X5680Y10141D01*
X5716Y10193D01*
X5742Y10251D01*
X5756Y10313D01*
X5757Y10386D01*
X5757Y8982D01*
X5718Y8982D01*
X5655Y8970D01*
X5596Y8946D01*
X5543Y8911D01*
X5498Y8867D01*
X5462Y8814D01*
X5436Y8756D01*
X5423Y8693D01*
X5422Y8630D01*
X5434Y8567D01*
X5457Y8508D01*
X5492Y8454D01*
X5536Y8408D01*
X5561Y8391D01*
X5557Y8371D01*
X5556Y8307D01*
X5568Y8244D01*
X5591Y8185D01*
X5626Y8131D01*
X5670Y8086D01*
X5722Y8049D01*
X5781Y8024D01*
X5843Y8010D01*
X5906Y8009D01*
X5969Y8020D01*
X6029Y8043D01*
X6082Y8077D01*
X6128Y8121D01*
X6165Y8173D01*
X6191Y8231D01*
X6205Y8293D01*
X6206Y8366D01*
X6206Y3836D01*
X6173Y3822D01*
X6084Y3764D01*
X6008Y3690D01*
X5948Y3602D01*
X5925Y3548D01*
X5905Y3596D01*
X5846Y3684D01*
X5771Y3759D01*
X5683Y3819D01*
X5586Y3860D01*
X5482Y3881D01*
X5375Y3882D01*
X5271Y3862D01*
X5173Y3822D01*
X5084Y3764D01*
X5008Y3690D01*
X4948Y3602D01*
X4925Y3548D01*
X4905Y3596D01*
X4846Y3684D01*
X4771Y3759D01*
X4683Y3819D01*
X4586Y3860D01*
X4557Y3866D01*
X4557Y8819D01*
X4544Y8881D01*
X4520Y8940D01*
X4485Y8993D01*
X4440Y9038D01*
X4387Y9074D01*
X4328Y9099D01*
X4266Y9111D01*
X4202Y9112D01*
X4140Y9100D01*
X4081Y9076D01*
X4027Y9041D01*
X4017Y9031D01*
X4017Y14642D01*
X4005Y14704D01*
X3981Y14763D01*
X3945Y14816D01*
X3900Y14861D01*
X3848Y14897D01*
X3789Y14922D01*
X3727Y14934D01*
X3663Y14935D01*
X3600Y14923D01*
X3541Y14899D01*
X3488Y14864D01*
X3442Y14820D01*
X3406Y14767D01*
X3381Y14708D01*
X3368Y14646D01*
X3367Y14582D01*
X3379Y14520D01*
X3402Y14461D01*
X3437Y14407D01*
X3481Y14361D01*
X3533Y14325D01*
X3592Y14299D01*
X3654Y14286D01*
X3717Y14284D01*
X3780Y14295D01*
X3840Y14318D01*
X3893Y14353D01*
X3939Y14396D01*
X3976Y14449D01*
X4002Y14507D01*
X4016Y14569D01*
X4017Y14642D01*
X4017Y9031D01*
X3982Y8997D01*
X3946Y8944D01*
X3921Y8886D01*
X3907Y8823D01*
X3907Y8760D01*
X3918Y8697D01*
X3942Y8638D01*
X3976Y8584D01*
X4020Y8538D01*
X4073Y8502D01*
X4131Y8477D01*
X4193Y8463D01*
X4257Y8461D01*
X4320Y8473D01*
X4379Y8496D01*
X4433Y8530D01*
X4479Y8574D01*
X4516Y8626D01*
X4541Y8684D01*
X4556Y8746D01*
X4557Y8819D01*
X4557Y3866D01*
X4482Y3881D01*
X4375Y3882D01*
X4271Y3862D01*
X4173Y3822D01*
X4116Y3785D01*
X4116Y7142D01*
X4103Y7204D01*
X4079Y7263D01*
X4044Y7316D01*
X3999Y7361D01*
X3946Y7397D01*
X3887Y7422D01*
X3825Y7434D01*
X3761Y7435D01*
X3699Y7423D01*
X3640Y7399D01*
X3586Y7364D01*
X3541Y7320D01*
X3505Y7267D01*
X3480Y7208D01*
X3466Y7146D01*
X3466Y7082D01*
X3477Y7020D01*
X3501Y6961D01*
X3535Y6907D01*
X3579Y6861D01*
X3632Y6825D01*
X3690Y6799D01*
X3752Y6786D01*
X3816Y6784D01*
X3879Y6795D01*
X3938Y6818D01*
X3992Y6853D01*
X4038Y6896D01*
X4075Y6949D01*
X4101Y7007D01*
X4115Y7069D01*
X4116Y7142D01*
X4116Y3785D01*
X4084Y3764D01*
X4008Y3690D01*
X3948Y3602D01*
X3925Y3548D01*
X3905Y3596D01*
X3846Y3684D01*
X3771Y3759D01*
X3683Y3819D01*
X3586Y3860D01*
X3482Y3881D01*
X3375Y3882D01*
X3271Y3862D01*
X3173Y3822D01*
X3084Y3764D01*
X3079Y3759D01*
X3052Y3800D01*
X3007Y3845D01*
X2954Y3881D01*
X2895Y3906D01*
X2868Y3911D01*
X2868Y11175D01*
X2853Y11249D01*
X2824Y11318D01*
X2783Y11381D01*
X2730Y11434D01*
X2714Y11445D01*
X2736Y11494D01*
X2752Y11564D01*
X2753Y11645D01*
X2740Y11716D01*
X2712Y11782D01*
X2673Y11841D01*
X2623Y11892D01*
X2563Y11932D01*
X2497Y11959D01*
X2428Y11974D01*
X2356Y11974D01*
X2328Y11969D01*
X2328Y21689D01*
X2316Y21751D01*
X2292Y21810D01*
X2256Y21863D01*
X2246Y21874D01*
X2246Y22756D01*
X2233Y22818D01*
X2209Y22877D01*
X2174Y22930D01*
X2129Y22975D01*
X2076Y23011D01*
X2017Y23036D01*
X1955Y23048D01*
X1891Y23049D01*
X1829Y23037D01*
X1770Y23013D01*
X1716Y22978D01*
X1671Y22934D01*
X1635Y22881D01*
X1610Y22823D01*
X1596Y22760D01*
X1596Y22697D01*
X1607Y22634D01*
X1630Y22575D01*
X1665Y22521D01*
X1709Y22475D01*
X1762Y22439D01*
X1820Y22414D01*
X1882Y22400D01*
X1946Y22398D01*
X2009Y22410D01*
X2068Y22433D01*
X2122Y22467D01*
X2168Y22511D01*
X2205Y22563D01*
X2230Y22621D01*
X2245Y22683D01*
X2246Y22756D01*
X2246Y21874D01*
X2211Y21908D01*
X2159Y21944D01*
X2100Y21969D01*
X2038Y21982D01*
X1974Y21982D01*
X1911Y21970D01*
X1852Y21946D01*
X1799Y21911D01*
X1753Y21867D01*
X1717Y21814D01*
X1692Y21756D01*
X1679Y21693D01*
X1679Y21683D01*
X1647Y21683D01*
X1585Y21671D01*
X1525Y21647D01*
X1472Y21612D01*
X1427Y21568D01*
X1391Y21515D01*
X1366Y21456D01*
X1352Y21394D01*
X1351Y21330D01*
X1363Y21268D01*
X1386Y21209D01*
X1421Y21155D01*
X1465Y21109D01*
X1517Y21073D01*
X1576Y21047D01*
X1638Y21034D01*
X1702Y21032D01*
X1764Y21043D01*
X1824Y21066D01*
X1878Y21101D01*
X1924Y21145D01*
X1960Y21197D01*
X1986Y21255D01*
X2000Y21317D01*
X2001Y21332D01*
X2028Y21332D01*
X2091Y21343D01*
X2151Y21366D01*
X2204Y21400D01*
X2251Y21444D01*
X2287Y21496D01*
X2313Y21554D01*
X2327Y21616D01*
X2328Y21689D01*
X2328Y11969D01*
X2286Y11961D01*
X2220Y11934D01*
X2160Y11895D01*
X2109Y11845D01*
X2069Y11786D01*
X2040Y11720D01*
X2026Y11651D01*
X2025Y11579D01*
X2038Y11509D01*
X2040Y11503D01*
X2007Y11494D01*
X2005Y11493D01*
X2003Y11492D01*
X1972Y11476D01*
X1940Y11459D01*
X1938Y11458D01*
X1937Y11457D01*
X1909Y11435D01*
X1881Y11412D01*
X1879Y11410D01*
X1879Y11410D01*
X1879Y11410D01*
X1878Y11409D01*
X1517Y11048D01*
X1517Y14775D01*
X1505Y14838D01*
X1481Y14897D01*
X1466Y14919D01*
X1466Y20945D01*
X1451Y21022D01*
X1421Y21095D01*
X1377Y21161D01*
X1321Y21217D01*
X1255Y21262D01*
X1182Y21292D01*
X1105Y21308D01*
X1026Y21309D01*
X948Y21294D01*
X875Y21264D01*
X808Y21221D01*
X752Y21166D01*
X707Y21100D01*
X676Y21028D01*
X660Y20950D01*
X658Y20871D01*
X673Y20793D01*
X702Y20720D01*
X745Y20653D01*
X800Y20596D01*
X865Y20551D01*
X937Y20519D01*
X1014Y20502D01*
X1094Y20501D01*
X1172Y20514D01*
X1245Y20543D01*
X1312Y20585D01*
X1369Y20640D01*
X1415Y20705D01*
X1447Y20777D01*
X1465Y20854D01*
X1466Y20945D01*
X1466Y14919D01*
X1445Y14950D01*
X1442Y14953D01*
X1442Y19728D01*
X1430Y19791D01*
X1406Y19850D01*
X1371Y19903D01*
X1326Y19948D01*
X1273Y19983D01*
X1214Y20008D01*
X1152Y20021D01*
X1088Y20021D01*
X1025Y20009D01*
X966Y19986D01*
X913Y19951D01*
X868Y19906D01*
X832Y19854D01*
X807Y19795D01*
X793Y19733D01*
X792Y19669D01*
X804Y19606D01*
X827Y19547D01*
X862Y19494D01*
X906Y19448D01*
X958Y19411D01*
X1017Y19386D01*
X1079Y19372D01*
X1143Y19371D01*
X1205Y19382D01*
X1265Y19405D01*
X1319Y19439D01*
X1365Y19483D01*
X1401Y19535D01*
X1427Y19593D01*
X1441Y19655D01*
X1442Y19728D01*
X1442Y14953D01*
X1400Y14995D01*
X1383Y15007D01*
X1383Y18311D01*
X1371Y18373D01*
X1347Y18432D01*
X1311Y18485D01*
X1267Y18531D01*
X1214Y18566D01*
X1155Y18591D01*
X1093Y18604D01*
X1029Y18604D01*
X966Y18592D01*
X907Y18568D01*
X854Y18533D01*
X809Y18489D01*
X773Y18436D01*
X747Y18378D01*
X734Y18315D01*
X733Y18252D01*
X745Y18189D01*
X768Y18130D01*
X803Y18076D01*
X847Y18030D01*
X899Y17994D01*
X958Y17969D01*
X1020Y17955D01*
X1084Y17954D01*
X1146Y17965D01*
X1206Y17988D01*
X1259Y18022D01*
X1306Y18066D01*
X1342Y18118D01*
X1368Y18176D01*
X1382Y18238D01*
X1383Y18311D01*
X1383Y15007D01*
X1348Y15031D01*
X1289Y15055D01*
X1227Y15068D01*
X1163Y15069D01*
X1100Y15057D01*
X1041Y15033D01*
X988Y14998D01*
X942Y14953D01*
X935Y14942D01*
X935Y15610D01*
X922Y15673D01*
X898Y15731D01*
X863Y15785D01*
X818Y15830D01*
X765Y15865D01*
X706Y15890D01*
X644Y15903D01*
X580Y15903D01*
X518Y15891D01*
X459Y15867D01*
X405Y15833D01*
X360Y15788D01*
X324Y15735D01*
X299Y15677D01*
X285Y15615D01*
X285Y15551D01*
X296Y15488D01*
X319Y15429D01*
X354Y15376D01*
X398Y15330D01*
X451Y15293D01*
X509Y15268D01*
X571Y15254D01*
X635Y15253D01*
X698Y15264D01*
X757Y15287D01*
X811Y15321D01*
X857Y15365D01*
X894Y15417D01*
X919Y15475D01*
X934Y15537D01*
X935Y15610D01*
X935Y14942D01*
X906Y14901D01*
X881Y14842D01*
X868Y14780D01*
X867Y14716D01*
X879Y14654D01*
X902Y14594D01*
X937Y14541D01*
X981Y14495D01*
X1033Y14459D01*
X1092Y14433D01*
X1154Y14420D01*
X1217Y14418D01*
X1280Y14429D01*
X1340Y14452D01*
X1393Y14486D01*
X1439Y14530D01*
X1476Y14582D01*
X1502Y14641D01*
X1516Y14703D01*
X1517Y14775D01*
X1517Y11048D01*
X449Y9980D01*
X426Y9952D01*
X403Y9925D01*
X402Y9923D01*
X401Y9922D01*
X384Y9890D01*
X367Y9859D01*
X367Y9857D01*
X366Y9856D01*
X355Y9822D01*
X345Y9788D01*
X344Y9786D01*
X344Y9784D01*
X340Y9749D01*
X336Y9714D01*
X336Y9710D01*
X336Y9710D01*
X336Y9709D01*
X336Y9708D01*
X336Y4043D01*
X340Y4008D01*
X343Y3972D01*
X343Y3970D01*
X343Y3968D01*
X354Y3934D01*
X364Y3900D01*
X364Y3898D01*
X365Y3897D01*
X382Y3865D01*
X398Y3834D01*
X399Y3832D01*
X400Y3830D01*
X423Y3803D01*
X445Y3775D01*
X448Y3772D01*
X448Y3772D01*
X448Y3772D01*
X449Y3771D01*
X796Y3424D01*
X820Y3399D01*
X882Y3356D01*
X951Y3326D01*
X1025Y3309D01*
X1100Y3308D01*
X1174Y3321D01*
X1244Y3348D01*
X1308Y3388D01*
X1362Y3440D01*
X1406Y3502D01*
X1436Y3571D01*
X1453Y3644D01*
X1454Y3683D01*
X1454Y3688D01*
X1454Y3694D01*
X1454Y3730D01*
X1440Y3804D01*
X1411Y3873D01*
X1369Y3936D01*
X1316Y3990D01*
X1316Y3990D01*
X1104Y4202D01*
X1104Y7125D01*
X1142Y7116D01*
X1206Y7115D01*
X1268Y7126D01*
X1328Y7149D01*
X1382Y7183D01*
X1428Y7227D01*
X1464Y7279D01*
X1490Y7337D01*
X1504Y7400D01*
X1505Y7472D01*
X1493Y7535D01*
X1469Y7594D01*
X1434Y7647D01*
X1389Y7692D01*
X1336Y7728D01*
X1277Y7752D01*
X1215Y7765D01*
X1151Y7765D01*
X1104Y7756D01*
X1104Y8456D01*
X1139Y8441D01*
X1201Y8427D01*
X1265Y8426D01*
X1327Y8437D01*
X1387Y8460D01*
X1441Y8494D01*
X1487Y8538D01*
X1523Y8590D01*
X1549Y8648D01*
X1563Y8711D01*
X1564Y8783D01*
X1552Y8846D01*
X1528Y8905D01*
X1505Y8939D01*
X1564Y8949D01*
X1623Y8972D01*
X1677Y9006D01*
X1723Y9050D01*
X1760Y9102D01*
X1786Y9160D01*
X1800Y9222D01*
X1801Y9295D01*
X1788Y9358D01*
X1764Y9417D01*
X1729Y9470D01*
X1684Y9515D01*
X1631Y9550D01*
X1572Y9575D01*
X1510Y9588D01*
X1446Y9588D01*
X1384Y9576D01*
X1325Y9553D01*
X1271Y9518D01*
X1226Y9473D01*
X1190Y9421D01*
X1165Y9362D01*
X1152Y9300D01*
X1151Y9236D01*
X1162Y9173D01*
X1186Y9114D01*
X1210Y9076D01*
X1148Y9065D01*
X1104Y9047D01*
X1104Y9549D01*
X2308Y10753D01*
X2479Y10753D01*
X2513Y10753D01*
X2587Y10766D01*
X2658Y10793D01*
X2721Y10833D01*
X2776Y10885D01*
X2819Y10947D01*
X2850Y11016D01*
X2866Y11089D01*
X2867Y11129D01*
X2868Y11135D01*
X2867Y11140D01*
X2868Y11175D01*
X2868Y3911D01*
X2833Y3919D01*
X2769Y3919D01*
X2707Y3907D01*
X2648Y3883D01*
X2594Y3848D01*
X2549Y3804D01*
X2513Y3751D01*
X2488Y3693D01*
X2474Y3630D01*
X2473Y3567D01*
X2485Y3504D01*
X2508Y3445D01*
X2543Y3391D01*
X2587Y3345D01*
X2639Y3309D01*
X2698Y3284D01*
X2760Y3270D01*
X2824Y3269D01*
X2885Y3279D01*
X2902Y3190D01*
X2941Y3092D01*
X2998Y3002D01*
X3072Y2926D01*
X3159Y2865D01*
X3217Y2840D01*
X3173Y2822D01*
X3084Y2764D01*
X3008Y2690D01*
X2948Y2602D01*
X2906Y2505D01*
X2884Y2401D01*
X2883Y2295D01*
X2902Y2190D01*
X2941Y2092D01*
X2998Y2002D01*
X3072Y1926D01*
X3159Y1865D01*
X3257Y1823D01*
X3360Y1800D01*
X3466Y1798D01*
X3571Y1816D01*
X3670Y1855D01*
X3760Y1912D01*
X3836Y1985D01*
X3898Y2072D01*
X3925Y2132D01*
X3941Y2092D01*
X3998Y2002D01*
X4072Y1926D01*
X4159Y1865D01*
X4257Y1823D01*
X4360Y1800D01*
X4466Y1798D01*
X4571Y1816D01*
X4670Y1855D01*
X4760Y1912D01*
X4836Y1985D01*
X4898Y2072D01*
X4925Y2132D01*
X4941Y2092D01*
X4998Y2002D01*
X5072Y1926D01*
X5159Y1865D01*
X5257Y1823D01*
X5360Y1800D01*
X5466Y1798D01*
X5571Y1816D01*
X5670Y1855D01*
X5760Y1912D01*
X5836Y1985D01*
X5898Y2072D01*
X5925Y2132D01*
X5941Y2092D01*
X5998Y2002D01*
X6072Y1926D01*
X6159Y1865D01*
X6257Y1823D01*
X6360Y1800D01*
X6466Y1798D01*
X6571Y1816D01*
X6670Y1855D01*
X6760Y1912D01*
X6836Y1985D01*
X6898Y2072D01*
X6925Y2132D01*
X6941Y2092D01*
X6998Y2002D01*
X7072Y1926D01*
X7159Y1865D01*
X7257Y1823D01*
X7360Y1800D01*
X7466Y1798D01*
X7571Y1816D01*
X7670Y1855D01*
X7760Y1912D01*
X7836Y1985D01*
X7898Y2072D01*
X7925Y2132D01*
X7941Y2092D01*
X7998Y2002D01*
X8072Y1926D01*
X8159Y1865D01*
X8257Y1823D01*
X8360Y1800D01*
X8466Y1798D01*
X8571Y1816D01*
X8670Y1855D01*
X8760Y1912D01*
X8836Y1985D01*
X8898Y2072D01*
X8925Y2132D01*
X8941Y2092D01*
X8998Y2002D01*
X9072Y1926D01*
X9159Y1865D01*
X9257Y1823D01*
X9360Y1800D01*
X9466Y1798D01*
X9571Y1816D01*
X9670Y1855D01*
X9760Y1912D01*
X9836Y1985D01*
X9898Y2072D01*
X9925Y2132D01*
X9941Y2092D01*
X9998Y2002D01*
X10072Y1926D01*
X10159Y1865D01*
X10257Y1823D01*
X10360Y1800D01*
X10466Y1798D01*
X10571Y1816D01*
X10670Y1855D01*
X10760Y1912D01*
X10836Y1985D01*
X10898Y2072D01*
X10925Y2132D01*
X10941Y2092D01*
X10998Y2002D01*
X11072Y1926D01*
X11159Y1865D01*
X11257Y1823D01*
X11360Y1800D01*
X11466Y1798D01*
X11571Y1816D01*
X11670Y1855D01*
X11760Y1912D01*
X11836Y1985D01*
X11898Y2072D01*
X11925Y2132D01*
X11941Y2092D01*
X11998Y2002D01*
X12072Y1926D01*
X12159Y1865D01*
X12257Y1823D01*
X12360Y1800D01*
X12466Y1798D01*
X12571Y1816D01*
X12670Y1855D01*
X12760Y1912D01*
X12836Y1985D01*
X12898Y2072D01*
X12925Y2132D01*
X12941Y2092D01*
X12998Y2002D01*
X13072Y1926D01*
X13159Y1865D01*
X13257Y1823D01*
X13360Y1800D01*
X13466Y1798D01*
X13571Y1816D01*
X13670Y1855D01*
X13760Y1912D01*
X13836Y1985D01*
X13898Y2072D01*
X13927Y2138D01*
X13945Y2093D01*
X14002Y2004D01*
X14076Y1928D01*
X14163Y1867D01*
X14261Y1825D01*
X14364Y1802D01*
X14470Y1800D01*
X14575Y1818D01*
X14674Y1856D01*
X14764Y1913D01*
X14840Y1987D01*
X14902Y2073D01*
X14931Y2139D01*
X14949Y2093D01*
X15006Y2004D01*
X15080Y1928D01*
X15167Y1867D01*
X15264Y1825D01*
X15368Y1802D01*
X15474Y1800D01*
X15579Y1818D01*
X15678Y1856D01*
X15767Y1913D01*
X15844Y1987D01*
X15906Y2073D01*
X15949Y2170D01*
X15972Y2274D01*
X15974Y2395D01*
X15974Y49D01*
X3001Y49D01*
X3001Y718D01*
X2718Y718D01*
X2718Y925D01*
X2025Y925D01*
X2025Y6535D01*
X2013Y6598D01*
X1988Y6657D01*
X1953Y6710D01*
X1908Y6755D01*
X1856Y6791D01*
X1797Y6815D01*
X1734Y6828D01*
X1671Y6828D01*
X1608Y6817D01*
X1549Y6793D01*
X1496Y6758D01*
X1450Y6713D01*
X1414Y6661D01*
X1389Y6602D01*
X1376Y6540D01*
X1375Y6476D01*
X1387Y6413D01*
X1410Y6354D01*
X1445Y6301D01*
X1489Y6255D01*
X1541Y6219D01*
X1599Y6193D01*
X1662Y6179D01*
X1725Y6178D01*
X1788Y6189D01*
X1847Y6212D01*
X1901Y6246D01*
X1947Y6290D01*
X1984Y6342D01*
X2010Y6400D01*
X2024Y6463D01*
X2025Y6535D01*
X2025Y925D01*
X1871Y925D01*
X1871Y718D01*
X1522Y718D01*
X1536Y748D01*
X1563Y866D01*
X1564Y1005D01*
X1541Y1124D01*
X1495Y1237D01*
X1427Y1338D01*
X1342Y1424D01*
X1241Y1492D01*
X1131Y1538D01*
X1131Y2911D01*
X1117Y2985D01*
X1088Y3055D01*
X1046Y3117D01*
X993Y3171D01*
X931Y3213D01*
X862Y3242D01*
X788Y3257D01*
X713Y3258D01*
X639Y3244D01*
X569Y3215D01*
X506Y3174D01*
X452Y3121D01*
X410Y3059D01*
X380Y2990D01*
X364Y2917D01*
X363Y2841D01*
X377Y2767D01*
X404Y2697D01*
X445Y2634D01*
X498Y2580D01*
X559Y2537D01*
X628Y2507D01*
X702Y2491D01*
X777Y2489D01*
X851Y2502D01*
X921Y2529D01*
X985Y2570D01*
X1040Y2621D01*
X1083Y2683D01*
X1114Y2752D01*
X1130Y2825D01*
X1131Y2911D01*
X1131Y1538D01*
X1129Y1540D01*
X1010Y1564D01*
X888Y1565D01*
X768Y1542D01*
X656Y1497D01*
X554Y1430D01*
X467Y1345D01*
X398Y1245D01*
X350Y1133D01*
X325Y1014D01*
X323Y892D01*
X345Y773D01*
X390Y660D01*
X413Y624D01*
X49Y1004D01*
X49Y23049D01*
X427Y23413D01*
X398Y23371D01*
X350Y23259D01*
X325Y23140D01*
X323Y23018D01*
X345Y22899D01*
X390Y22786D01*
X456Y22683D01*
X541Y22596D01*
X640Y22526D01*
X752Y22478D01*
X871Y22452D01*
X992Y22449D01*
X1112Y22470D01*
X1225Y22514D01*
X1328Y22579D01*
X1416Y22663D01*
X1486Y22763D01*
X1536Y22874D01*
X1563Y22992D01*
X1564Y23131D01*
X1541Y23250D01*
X1495Y23363D01*
X1427Y23464D01*
X1342Y23550D01*
X1241Y23618D01*
X1129Y23666D01*
X1010Y23690D01*
X888Y23691D01*
X768Y23668D01*
X656Y23623D01*
X624Y23602D01*
X1004Y23966D01*
X3210Y23966D01*
X3180Y23946D01*
X3129Y23896D01*
X3088Y23837D01*
X3060Y23772D01*
X3045Y23702D01*
X3044Y23630D01*
X3057Y23560D01*
X3083Y23494D01*
X3122Y23434D01*
X3172Y23382D01*
X3197Y23364D01*
X3190Y23354D01*
X3165Y23295D01*
X3152Y23233D01*
X3151Y23169D01*
X3162Y23106D01*
X3186Y23047D01*
X3220Y22994D01*
X3264Y22948D01*
X3317Y22911D01*
X3375Y22886D01*
X3437Y22872D01*
X3501Y22871D01*
X3564Y22882D01*
X3623Y22905D01*
X3677Y22939D01*
X3723Y22983D01*
X3760Y23035D01*
X3786Y23093D01*
X3800Y23155D01*
X3801Y23228D01*
X3788Y23291D01*
X3764Y23350D01*
X3729Y23403D01*
X3696Y23436D01*
X3727Y23480D01*
X3756Y23545D01*
X3772Y23615D01*
X3773Y23697D01*
X3759Y23767D01*
X3732Y23833D01*
X3693Y23892D01*
X3642Y23943D01*
X3608Y23966D01*
X17419Y23966D01*
X18257Y23090D01*
X18257Y887D01*
M02*
