G04 (created by PCBNEW (2013-may-18)-stable) date St 19. únor 2014, 18:08:51 CET*
%MOIN*%
G04 Gerber Fmt 3.4, Leading zero omitted, Abs format*
%FSLAX34Y34*%
G01*
G70*
G90*
G04 APERTURE LIST*
%ADD10C,0.00590551*%
%ADD11C,0.00984252*%
%ADD12C,0.06*%
%ADD13C,0.0708661*%
%ADD14R,0.0708661X0.0787*%
%ADD15R,0.0512X0.0118*%
%ADD16R,0.0118X0.0512*%
%ADD17R,0.0236X0.0394*%
%ADD18R,0.019685X0.023622*%
%ADD19R,0.0354X0.0394*%
%ADD20R,0.0394X0.0354*%
%ADD21R,0.0629921X0.0314961*%
%ADD22R,0.11811X0.0826772*%
%ADD23R,0.0826772X0.11811*%
%ADD24R,0.0314961X0.0629921*%
%ADD25R,0.0472X0.0236*%
%ADD26R,0.0747X0.0747*%
%ADD27R,0.0531X0.0157*%
%ADD28R,0.053X0.0157*%
%ADD29R,0.059X0.0472*%
%ADD30R,0.059X0.0473*%
%ADD31R,0.026X0.016*%
%ADD32O,0.00787402X0.0295276*%
%ADD33O,0.0295276X0.00787402*%
%ADD34R,0.0413386X0.0551181*%
%ADD35C,0.0275591*%
%ADD36C,0.0393701*%
%ADD37C,0.0354331*%
%ADD38C,0.0314961*%
%ADD39C,0.0433071*%
%ADD40C,0.0472441*%
%ADD41C,0.00787402*%
%ADD42C,0.011811*%
%ADD43C,0.019685*%
%ADD44C,0.015748*%
%ADD45C,0.0275591*%
%ADD46C,0.0393701*%
G04 APERTURE END LIST*
G54D10*
G54D11*
X1643Y167D02*
X1419Y167D01*
X1531Y167D02*
X1531Y561D01*
X1494Y504D01*
X1456Y467D01*
X1419Y448D01*
G54D10*
X-196Y944D02*
G75*
G03X944Y-196I1141J0D01*
G74*
G01*
X944Y24212D02*
X17362Y24212D01*
X-196Y944D02*
X-196Y23070D01*
X17362Y-196D02*
X944Y-196D01*
X18503Y23070D02*
X18503Y944D01*
X17362Y-196D02*
G75*
G03X18503Y944I0J1141D01*
G74*
G01*
X944Y24212D02*
G75*
G03X-196Y23070I0J-1141D01*
G74*
G01*
X18503Y23070D02*
G75*
G03X17362Y24212I-1141J0D01*
G74*
G01*
G36*
X7911Y17177D02*
X7298Y16565D01*
X6874Y16989D01*
X7486Y17601D01*
X7911Y17177D01*
X7911Y17177D01*
G37*
G54D12*
X6591Y17696D02*
X6779Y17884D01*
G54D13*
X15433Y3346D03*
X15433Y2342D03*
X15433Y1338D03*
G54D14*
X3425Y1340D03*
G54D13*
X3425Y2340D03*
X4425Y1340D03*
X4425Y2340D03*
X5425Y1340D03*
X5425Y2340D03*
X6425Y1340D03*
X6425Y2340D03*
X7425Y1340D03*
X7425Y2340D03*
X8425Y1340D03*
X8425Y2340D03*
X9425Y1340D03*
X9425Y2340D03*
X10425Y1340D03*
X10425Y2340D03*
X11425Y1340D03*
X11425Y2340D03*
X12425Y1340D03*
X12425Y2340D03*
X3425Y3340D03*
X4425Y3340D03*
X5425Y3340D03*
X6425Y3340D03*
X7425Y3340D03*
X8425Y3340D03*
X9425Y3340D03*
X10425Y3340D03*
X11425Y3340D03*
X12425Y3340D03*
X13425Y1340D03*
X13425Y2340D03*
X13425Y3340D03*
X14425Y1340D03*
X14429Y2342D03*
X14425Y3340D03*
G54D15*
X6485Y11772D03*
X6485Y11575D03*
X6485Y11378D03*
X6485Y11181D03*
X6485Y10984D03*
X6485Y12362D03*
X6485Y12165D03*
X6485Y11969D03*
X6485Y9213D03*
X6485Y9016D03*
X6485Y8819D03*
X6485Y8622D03*
X6485Y8425D03*
X6485Y8228D03*
X6485Y8031D03*
X6485Y7835D03*
G54D16*
X8523Y6978D03*
X8720Y6978D03*
X8916Y6978D03*
X9113Y6978D03*
X9310Y6978D03*
X9507Y6978D03*
X9704Y6978D03*
X9901Y6978D03*
X11672Y6978D03*
X11869Y6978D03*
G54D15*
X12529Y7638D03*
X12529Y7835D03*
X12529Y8031D03*
X12529Y8228D03*
X12529Y8425D03*
X12529Y8622D03*
X6485Y10787D03*
X6485Y10591D03*
X6485Y10394D03*
X6485Y7638D03*
G54D16*
X7145Y6978D03*
X7342Y6978D03*
X10098Y6978D03*
X10294Y6978D03*
X10491Y6978D03*
G54D15*
X12529Y8819D03*
X12529Y9016D03*
X12529Y9213D03*
X6485Y10197D03*
X6485Y10000D03*
X6485Y9803D03*
X6485Y9606D03*
X6485Y9409D03*
G54D16*
X7538Y6978D03*
X7735Y6978D03*
X7932Y6978D03*
X8129Y6978D03*
X8326Y6978D03*
X10688Y6978D03*
X10885Y6978D03*
X11082Y6978D03*
X11279Y6978D03*
X11476Y6978D03*
G54D15*
X12529Y9409D03*
X12529Y9606D03*
X12529Y9803D03*
X12529Y10000D03*
X12529Y10197D03*
X12529Y10394D03*
X12529Y10591D03*
X12529Y10787D03*
X12529Y10984D03*
X12529Y11181D03*
X12529Y11378D03*
X12529Y11575D03*
X12529Y11772D03*
X12529Y11969D03*
X12529Y12165D03*
X12529Y12362D03*
G54D16*
X11869Y13022D03*
X11672Y13022D03*
X11476Y13022D03*
X11279Y13022D03*
X11082Y13022D03*
X10885Y13022D03*
X10688Y13022D03*
X10491Y13022D03*
X10294Y13022D03*
X10098Y13022D03*
X9901Y13022D03*
X9704Y13022D03*
X9507Y13022D03*
X9310Y13022D03*
X9113Y13022D03*
X8916Y13022D03*
X8720Y13022D03*
X8523Y13022D03*
X8326Y13022D03*
X8129Y13022D03*
X7932Y13022D03*
X7735Y13022D03*
X7538Y13022D03*
X7342Y13022D03*
X7145Y13022D03*
G54D17*
X3130Y23171D03*
X2380Y23171D03*
X2755Y23171D03*
X2380Y22339D03*
X3130Y22339D03*
X2755Y22339D03*
G54D18*
X3405Y4055D03*
X3799Y4055D03*
X3602Y4566D03*
X14688Y8094D03*
X15082Y8094D03*
X14885Y8606D03*
X14724Y9074D03*
X15118Y9074D03*
X14921Y9586D03*
G54D19*
X2420Y21574D03*
X3012Y21574D03*
X12264Y21417D03*
X11672Y21417D03*
G54D20*
X16496Y6752D03*
X16496Y6160D03*
G54D19*
X2578Y13740D03*
X3170Y13740D03*
X2578Y14409D03*
X3170Y14409D03*
X2538Y18779D03*
X3130Y18779D03*
X2499Y18031D03*
X3091Y18031D03*
G54D20*
X14133Y9508D03*
X14133Y8916D03*
X4429Y4054D03*
X4429Y4646D03*
X14429Y4054D03*
X14429Y4646D03*
X13425Y4054D03*
X13425Y4646D03*
X12421Y4054D03*
X12421Y4646D03*
X10433Y4054D03*
X10433Y4646D03*
X11417Y4054D03*
X11417Y4646D03*
X9429Y4054D03*
X9429Y4646D03*
X8425Y4054D03*
X8425Y4646D03*
X7421Y4054D03*
X7421Y4646D03*
X6417Y4054D03*
X6417Y4646D03*
X5413Y4054D03*
X5413Y4646D03*
G54D19*
X10294Y21417D03*
X10886Y21417D03*
X2578Y15078D03*
X3170Y15078D03*
X2617Y15708D03*
X3209Y15708D03*
G54D20*
X14606Y6358D03*
X14606Y5766D03*
X15236Y6358D03*
X15236Y5766D03*
X15826Y6358D03*
X15826Y5766D03*
X2775Y4587D03*
X2775Y3995D03*
G54D19*
X9034Y21417D03*
X9626Y21417D03*
G54D20*
X15433Y4034D03*
X15433Y4626D03*
G54D19*
X2538Y19448D03*
X3130Y19448D03*
X2538Y20118D03*
X3130Y20118D03*
G54D20*
X15712Y7766D03*
X15712Y8358D03*
G54D19*
X2105Y9330D03*
X2697Y9330D03*
X3229Y7874D03*
X2637Y7874D03*
X2420Y8523D03*
X3012Y8523D03*
G54D20*
X3248Y9823D03*
X3248Y9231D03*
X1692Y5373D03*
X1692Y5965D03*
X2362Y5373D03*
X2362Y5965D03*
G54D19*
X14508Y11456D03*
X13916Y11456D03*
X14508Y12165D03*
X13916Y12165D03*
G54D21*
X1771Y15629D03*
X1771Y15137D03*
X1771Y14645D03*
X1771Y14153D03*
X1771Y13661D03*
X1771Y13169D03*
X1771Y12677D03*
X1771Y12185D03*
X1771Y11692D03*
G54D22*
X629Y16633D03*
X629Y10688D03*
X629Y21909D03*
X629Y17440D03*
G54D21*
X1771Y20905D03*
X1771Y20413D03*
X1771Y19921D03*
X1771Y19429D03*
X1771Y18937D03*
X1771Y18444D03*
G54D22*
X17677Y2145D03*
X17677Y6614D03*
G54D21*
X16535Y3149D03*
X16535Y3641D03*
X16535Y4133D03*
X16535Y4625D03*
X16535Y5118D03*
X16535Y5610D03*
G54D22*
X17677Y15000D03*
X17677Y18484D03*
G54D21*
X16535Y16003D03*
X16535Y16496D03*
X16535Y16988D03*
X16535Y17480D03*
G54D23*
X16220Y23385D03*
X12736Y23385D03*
G54D24*
X15216Y22244D03*
X14724Y22244D03*
X14232Y22244D03*
X13740Y22244D03*
G54D22*
X629Y9881D03*
X629Y6397D03*
G54D21*
X1771Y8877D03*
X1771Y8385D03*
X1771Y7893D03*
X1771Y7401D03*
G54D22*
X629Y5590D03*
X629Y2106D03*
G54D21*
X1771Y4586D03*
X1771Y4094D03*
X1771Y3602D03*
X1771Y3110D03*
G54D23*
X11929Y23385D03*
X8444Y23385D03*
G54D24*
X10925Y22244D03*
X10433Y22244D03*
X9940Y22244D03*
X9448Y22244D03*
G54D23*
X7637Y23385D03*
X4153Y23385D03*
G54D24*
X6633Y22244D03*
X6141Y22244D03*
X5649Y22244D03*
X5157Y22244D03*
G54D21*
X16535Y8444D03*
X16535Y8937D03*
G54D22*
X17677Y7440D03*
X17677Y9940D03*
G54D25*
X15018Y18858D03*
X15018Y19350D03*
X15018Y19842D03*
X15018Y20334D03*
X14112Y20334D03*
X14112Y19842D03*
X14112Y19350D03*
X14112Y18858D03*
G54D26*
X17716Y12047D03*
X17716Y12991D03*
X17716Y14074D03*
X17716Y10964D03*
G54D27*
X16663Y12007D03*
G54D28*
X16663Y12264D03*
X16663Y12519D03*
X16663Y12774D03*
X16663Y13031D03*
G54D29*
X2362Y2323D03*
G54D30*
X2362Y1535D03*
G54D29*
X15212Y10192D03*
G54D30*
X15212Y10980D03*
G54D20*
X10692Y16833D03*
X10692Y17425D03*
X15708Y18877D03*
X15708Y19469D03*
G54D19*
X2085Y9881D03*
X2677Y9881D03*
X9756Y17992D03*
X9164Y17992D03*
X12184Y6633D03*
X12776Y6633D03*
X2263Y23740D03*
X2855Y23740D03*
X4822Y9763D03*
X5414Y9763D03*
X6752Y13051D03*
X6160Y13051D03*
X12499Y12893D03*
X13091Y12893D03*
X3229Y7224D03*
X2637Y7224D03*
X11475Y22165D03*
X12067Y22165D03*
G54D20*
X15228Y16389D03*
X15228Y16981D03*
G54D19*
X3979Y11751D03*
X4571Y11751D03*
X3975Y11066D03*
X4567Y11066D03*
X3987Y10370D03*
X4579Y10370D03*
G54D31*
X7670Y21452D03*
X7670Y20932D03*
X7670Y21192D03*
X8470Y20932D03*
X8470Y21452D03*
X8470Y21192D03*
G54D19*
X6855Y21409D03*
X6263Y21409D03*
X6995Y20141D03*
X7587Y20141D03*
X7063Y20767D03*
X6471Y20767D03*
G54D20*
X10704Y16240D03*
X10704Y15648D03*
G54D32*
X9011Y16070D03*
X9169Y16070D03*
X9326Y16070D03*
X9484Y16070D03*
X9641Y16070D03*
X9799Y16070D03*
G54D33*
X10007Y16279D03*
X10007Y16437D03*
X10007Y16594D03*
X10007Y16751D03*
X10007Y16909D03*
X10007Y17066D03*
G54D32*
X9799Y17275D03*
X9641Y17275D03*
X9484Y17275D03*
X9326Y17275D03*
X9169Y17275D03*
X9011Y17275D03*
G54D33*
X8803Y17066D03*
X8803Y16909D03*
X8803Y16751D03*
X8803Y16594D03*
X8803Y16437D03*
X8803Y16279D03*
G54D20*
X11704Y19290D03*
X11704Y19882D03*
G54D34*
X17972Y21748D03*
X17972Y20330D03*
X17381Y21748D03*
X17381Y20330D03*
G54D35*
X15177Y15818D03*
X11287Y19858D03*
X11169Y16244D03*
X8271Y15763D03*
X10027Y17661D03*
X8232Y21102D03*
G54D36*
X2484Y11137D03*
X1070Y3692D03*
G54D37*
X5700Y20791D03*
X4948Y23409D03*
X3409Y23661D03*
G54D35*
X6732Y13425D03*
G54D37*
X6165Y17338D03*
G54D35*
X2744Y20559D03*
X11279Y21409D03*
X6177Y18224D03*
X1921Y22724D03*
X12177Y12610D03*
G54D38*
X15870Y10185D03*
G54D35*
X14122Y8452D03*
X15070Y7775D03*
X5433Y10354D03*
X5748Y8657D03*
X7590Y6169D03*
X2799Y3594D03*
X12409Y6106D03*
X5881Y8334D03*
X15157Y18287D03*
G54D39*
X1062Y20905D03*
G54D37*
X12956Y22507D03*
X2389Y11610D03*
X5921Y23279D03*
X9283Y22803D03*
X13669Y23295D03*
X17299Y3090D03*
G54D36*
X748Y2874D03*
G54D40*
X16740Y14476D03*
G54D35*
X3791Y7110D03*
X4232Y8787D03*
X15830Y17763D03*
X11062Y13870D03*
X15799Y18228D03*
X10976Y14232D03*
X9559Y20807D03*
X4940Y14677D03*
X5114Y15035D03*
X12232Y21011D03*
X4720Y14133D03*
X6909Y12625D03*
X7027Y11956D03*
X7066Y9712D03*
X17070Y16480D03*
X10649Y18602D03*
X8023Y4492D03*
G54D37*
X15692Y20047D03*
G54D35*
X11157Y20381D03*
X11602Y18767D03*
G54D36*
X11287Y15748D03*
G54D35*
X8704Y17948D03*
X7267Y21303D03*
X5944Y4228D03*
X10141Y22929D03*
X6901Y22751D03*
X4519Y22251D03*
G54D37*
X10594Y17862D03*
G54D39*
X14015Y21437D03*
G54D36*
X12901Y16377D03*
G54D35*
X7244Y13543D03*
X17059Y9267D03*
G54D37*
X1141Y12263D03*
X2342Y20598D03*
G54D35*
X6519Y18704D03*
X1551Y17055D03*
X1192Y15429D03*
X5287Y18547D03*
X5259Y15929D03*
X6192Y16161D03*
X3539Y12437D03*
X5271Y13858D03*
X2893Y13078D03*
X6377Y12755D03*
X1602Y22547D03*
X5767Y11169D03*
X18043Y19771D03*
X16421Y15590D03*
X12972Y14137D03*
G54D37*
X16366Y13559D03*
G54D35*
X16531Y8078D03*
X15354Y13248D03*
X13854Y13259D03*
X15452Y9200D03*
G54D38*
X15870Y11051D03*
G54D35*
X8897Y8307D03*
X9200Y11240D03*
X2125Y10381D03*
X3937Y7992D03*
X3818Y9724D03*
G54D36*
X3779Y5866D03*
X2637Y3149D03*
G54D35*
X11259Y10433D03*
X13098Y12496D03*
X7047Y7637D03*
G54D37*
X9708Y8960D03*
G54D35*
X9614Y7681D03*
X10354Y8771D03*
X4657Y8444D03*
X4893Y7645D03*
X7165Y8818D03*
X5984Y10708D03*
X12712Y6940D03*
X7106Y6212D03*
X14496Y22767D03*
X4102Y15822D03*
X10759Y23133D03*
X4728Y16964D03*
X7299Y22263D03*
X4551Y17283D03*
X3755Y21720D03*
X4535Y17708D03*
X8208Y16795D03*
X9637Y16464D03*
X9267Y12433D03*
X10314Y17094D03*
X9287Y16444D03*
X7905Y12496D03*
X14799Y20744D03*
X14811Y17574D03*
X11692Y11811D03*
X8657Y6397D03*
X7330Y10421D03*
X7708Y9811D03*
X5598Y21244D03*
X2003Y21657D03*
X1181Y7440D03*
X1240Y8751D03*
X1192Y14744D03*
X1059Y18279D03*
X610Y15578D03*
X1118Y19696D03*
X15677Y22267D03*
X14818Y21708D03*
X11641Y7834D03*
X15866Y7307D03*
X7397Y11303D03*
X9641Y6448D03*
X8645Y12444D03*
X3692Y14610D03*
X1677Y21358D03*
X3476Y23196D03*
X3023Y21035D03*
X3732Y17787D03*
X3401Y21007D03*
X4137Y17748D03*
X15759Y10618D03*
X11228Y13535D03*
X15712Y9755D03*
X10700Y12283D03*
X15870Y11480D03*
X13511Y10456D03*
X15818Y11885D03*
X13224Y10696D03*
X15748Y8881D03*
X11610Y12291D03*
X15818Y9326D03*
X11074Y12433D03*
X1700Y6503D03*
X6645Y5838D03*
X11149Y19476D03*
X9586Y16803D03*
X13566Y20141D03*
X8555Y14755D03*
X13303Y20366D03*
X12476Y17724D03*
X7893Y16074D03*
X6598Y14925D03*
X8539Y14385D03*
X13649Y18562D03*
X7858Y16437D03*
X6496Y15586D03*
X7964Y14940D03*
X9196Y13980D03*
X13846Y11027D03*
G54D38*
X16952Y13440D03*
G54D35*
X16173Y12795D03*
X13452Y11354D03*
X1476Y9263D03*
X11811Y9015D03*
X11877Y8405D03*
X13110Y8539D03*
G54D11*
X15228Y16389D02*
X15228Y15870D01*
X15228Y15870D02*
X15177Y15818D01*
X11704Y19882D02*
X11311Y19882D01*
X11311Y19882D02*
X11287Y19858D01*
G54D41*
X10704Y16240D02*
X10546Y16240D01*
X10350Y16437D02*
X10007Y16437D01*
X10546Y16240D02*
X10350Y16437D01*
X10704Y16240D02*
X11166Y16240D01*
X11166Y16240D02*
X11169Y16244D01*
X9011Y16070D02*
X8578Y16070D01*
X8578Y16070D02*
X8271Y15763D01*
X9756Y17622D02*
X9988Y17622D01*
X9988Y17622D02*
X10027Y17661D01*
X9756Y17992D02*
X9756Y17622D01*
X9756Y17622D02*
X9756Y17542D01*
X9799Y17500D02*
X9799Y17275D01*
X9756Y17542D02*
X9799Y17500D01*
G54D42*
X8322Y21192D02*
X8232Y21102D01*
X8322Y21192D02*
X8470Y21192D01*
X8470Y21192D02*
X8470Y20932D01*
G54D43*
X3130Y19448D02*
X3130Y20118D01*
X3130Y20118D02*
X3811Y20799D01*
X3811Y20799D02*
X5700Y20791D01*
X2855Y23740D02*
X3330Y23740D01*
X4948Y23409D02*
X4948Y23413D01*
X3330Y23740D02*
X3409Y23661D01*
X6752Y13404D02*
X6732Y13425D01*
X6752Y13404D02*
X6752Y13051D01*
G54D42*
X3130Y20118D02*
X3130Y20172D01*
X3130Y20172D02*
X2744Y20559D01*
X10886Y21417D02*
X11271Y21417D01*
X11287Y21417D02*
X11672Y21417D01*
X11279Y21409D02*
X11287Y21417D01*
X11271Y21417D02*
X11279Y21409D01*
X2755Y23171D02*
X2755Y22917D01*
X2562Y22724D02*
X1921Y22724D01*
X2755Y22917D02*
X2562Y22724D01*
X2755Y23171D02*
X2755Y23429D01*
X2855Y23528D02*
X2855Y23740D01*
X2755Y23429D02*
X2855Y23528D01*
X12499Y12893D02*
X12460Y12893D01*
X12460Y12893D02*
X12177Y12610D01*
G54D43*
X15212Y10192D02*
X15862Y10192D01*
X15862Y10192D02*
X15870Y10185D01*
G54D42*
X14133Y8916D02*
X14133Y8464D01*
X14133Y8464D02*
X14122Y8452D01*
X15082Y8094D02*
X15082Y7787D01*
X15082Y7787D02*
X15070Y7775D01*
G54D43*
X5866Y10394D02*
X5826Y10354D01*
X5826Y10354D02*
X5433Y10354D01*
G54D42*
X6485Y10394D02*
X5866Y10394D01*
X6485Y8819D02*
X6165Y8819D01*
X6003Y8657D02*
X5748Y8657D01*
X6165Y8819D02*
X6003Y8657D01*
X7538Y6220D02*
X7590Y6169D01*
X7538Y6978D02*
X7538Y6220D01*
X2775Y3995D02*
X2775Y3618D01*
X2775Y3618D02*
X2799Y3594D01*
G54D44*
X12184Y6633D02*
X12184Y6331D01*
X12184Y6331D02*
X12409Y6106D01*
G54D42*
X6485Y8425D02*
X6485Y8228D01*
X6485Y8228D02*
X6484Y8229D01*
X6484Y8229D02*
X6484Y8338D01*
G54D45*
X6484Y8338D02*
X6480Y8334D01*
X6480Y8334D02*
X5881Y8334D01*
G54D42*
X7145Y13022D02*
X7096Y13022D01*
G54D43*
X7096Y13022D02*
X7066Y13051D01*
X7066Y13051D02*
X6752Y13051D01*
G54D44*
X12499Y12893D02*
X12499Y12436D01*
G54D42*
X12496Y12395D02*
X12529Y12362D01*
X12496Y12433D02*
X12496Y12395D01*
G54D44*
X12499Y12436D02*
X12496Y12433D01*
G54D42*
X11869Y6978D02*
X11869Y6948D01*
X11869Y6948D02*
X12184Y6633D01*
G54D43*
X15018Y18516D02*
X15018Y18858D01*
X15157Y18287D02*
X15018Y18516D01*
X15708Y18877D02*
X15037Y18877D01*
X15037Y18877D02*
X15018Y18858D01*
G54D45*
X1771Y20905D02*
X1062Y20905D01*
X2307Y11692D02*
X1771Y11692D01*
X2389Y11610D02*
X2307Y11692D01*
G54D43*
X9448Y22637D02*
X9448Y22244D01*
X9283Y22803D02*
X9448Y22637D01*
G54D45*
X13740Y23224D02*
X13740Y22244D01*
X13669Y23295D02*
X13740Y23224D01*
X17299Y3090D02*
X17240Y3149D01*
X17240Y3149D02*
X16535Y3149D01*
G54D46*
X2125Y2755D02*
X1456Y2755D01*
X1338Y2874D02*
X748Y2874D01*
X1456Y2755D02*
X1338Y2874D01*
G54D43*
X2362Y2323D02*
X2362Y2519D01*
X2362Y2519D02*
X2125Y2755D01*
X2125Y2755D02*
X1771Y3110D01*
G54D46*
X3425Y2340D02*
X2379Y2340D01*
X2379Y2340D02*
X2362Y2323D01*
G54D41*
X6485Y9016D02*
X5913Y9016D01*
X4511Y7830D02*
X3791Y7110D01*
X5110Y8429D02*
X4511Y7830D01*
X5610Y8929D02*
X5110Y8429D01*
X5826Y8929D02*
X5610Y8929D01*
X5913Y9016D02*
X5826Y8929D01*
X6485Y9213D02*
X5848Y9213D01*
X4692Y9133D02*
X4232Y8787D01*
X5768Y9133D02*
X4692Y9133D01*
X5848Y9213D02*
X5768Y9133D01*
X6485Y9409D02*
X5826Y9409D01*
X3366Y8523D02*
X3012Y8523D01*
X4129Y9287D02*
X3366Y8523D01*
X5705Y9287D02*
X4129Y9287D01*
X5826Y9409D02*
X5705Y9287D01*
G54D42*
X2637Y7874D02*
X2637Y8030D01*
X3012Y8406D02*
X3012Y8523D01*
X2637Y8030D02*
X3012Y8406D01*
X2637Y7224D02*
X2637Y7874D01*
G54D41*
X6485Y9606D02*
X5806Y9606D01*
X3700Y9231D02*
X3248Y9231D01*
X3909Y9440D02*
X3700Y9231D01*
X5641Y9440D02*
X3909Y9440D01*
X5806Y9606D02*
X5641Y9440D01*
G54D42*
X2697Y9330D02*
X3148Y9330D01*
X3148Y9330D02*
X3248Y9231D01*
X2697Y9330D02*
X2697Y9862D01*
X2697Y9862D02*
X2677Y9881D01*
X10885Y13022D02*
X10885Y13692D01*
X10885Y13692D02*
X11062Y13870D01*
X10688Y13022D02*
X10688Y13944D01*
X10688Y13944D02*
X10976Y14232D01*
X6485Y11575D02*
X5712Y11575D01*
X4870Y10370D02*
X4579Y10370D01*
X5039Y10539D02*
X4870Y10370D01*
X5039Y10901D02*
X5039Y10539D01*
X5712Y11575D02*
X5039Y10901D01*
X6485Y11772D02*
X5331Y11772D01*
X4843Y11342D02*
X4567Y11066D01*
X4901Y11342D02*
X4843Y11342D01*
X5331Y11772D02*
X4901Y11342D01*
X6485Y11969D02*
X5126Y11969D01*
X4909Y11751D02*
X4571Y11751D01*
X5126Y11969D02*
X4909Y11751D01*
X8129Y13022D02*
X8129Y13839D01*
X3295Y14409D02*
X3170Y14409D01*
X3783Y13921D02*
X3295Y14409D01*
X3783Y13559D02*
X3783Y13921D01*
X3976Y13366D02*
X3783Y13559D01*
X5404Y13366D02*
X3976Y13366D01*
X6270Y14232D02*
X5404Y13366D01*
X7737Y14232D02*
X6270Y14232D01*
X8129Y13839D02*
X7737Y14232D01*
X7932Y13022D02*
X7932Y13763D01*
X3170Y13408D02*
X3170Y13740D01*
X3405Y13173D02*
X3170Y13408D01*
X5484Y13173D02*
X3405Y13173D01*
X6350Y14039D02*
X5484Y13173D01*
X7657Y14039D02*
X6350Y14039D01*
X7932Y13763D02*
X7657Y14039D01*
X14606Y6358D02*
X13900Y6358D01*
X12621Y7638D02*
X12529Y7638D01*
X13900Y6358D02*
X12621Y7638D01*
X15826Y6358D02*
X15826Y6507D01*
X12529Y8027D02*
X12529Y8031D01*
X13094Y8027D02*
X12529Y8027D01*
X13913Y7208D02*
X13094Y8027D01*
X15125Y7208D02*
X13913Y7208D01*
X15826Y6507D02*
X15125Y7208D01*
X16496Y6752D02*
X15940Y6752D01*
X13216Y8228D02*
X12529Y8228D01*
X14027Y7417D02*
X13216Y8228D01*
X15275Y7417D02*
X14027Y7417D01*
X15940Y6752D02*
X15275Y7417D01*
X15236Y6358D02*
X15236Y6456D01*
X12952Y7835D02*
X12529Y7835D01*
X13842Y6944D02*
X12952Y7835D01*
X14748Y6944D02*
X13842Y6944D01*
X15236Y6456D02*
X14748Y6944D01*
X8523Y13022D02*
X8523Y13413D01*
X4137Y15078D02*
X3170Y15078D01*
X4822Y14393D02*
X4137Y15078D01*
X5169Y14393D02*
X4822Y14393D01*
X5200Y14425D02*
X5169Y14393D01*
X7817Y14425D02*
X5200Y14425D01*
X8322Y13919D02*
X7817Y14425D01*
X8322Y13614D02*
X8322Y13919D01*
X8523Y13413D02*
X8322Y13614D01*
X8720Y13022D02*
X8720Y13495D01*
X3272Y15645D02*
X3209Y15708D01*
X3511Y15645D02*
X3272Y15645D01*
X3720Y15437D02*
X3511Y15645D01*
X5291Y15437D02*
X3720Y15437D01*
X6110Y14618D02*
X5291Y15437D01*
X7897Y14618D02*
X6110Y14618D01*
X8515Y13999D02*
X7897Y14618D01*
X8515Y13700D02*
X8515Y13999D01*
X8720Y13495D02*
X8515Y13700D01*
X9626Y21417D02*
X10294Y21417D01*
X9626Y20874D02*
X9626Y21417D01*
X9559Y20807D02*
X9626Y20874D01*
X12232Y21011D02*
X12232Y21385D01*
X12067Y21826D02*
X12067Y22165D01*
X12220Y21673D02*
X12067Y21826D01*
X12220Y21396D02*
X12220Y21673D01*
X12232Y21385D02*
X12220Y21396D01*
X12232Y21011D02*
X12264Y21044D01*
X7538Y13022D02*
X7538Y12660D01*
X7503Y12625D02*
X6909Y12625D01*
X7538Y12660D02*
X7503Y12625D01*
X6485Y12362D02*
X6826Y12362D01*
X7027Y12161D02*
X7027Y11956D01*
X6826Y12362D02*
X7027Y12161D01*
X16535Y16496D02*
X17055Y16496D01*
X6976Y9803D02*
X6485Y9803D01*
X7066Y9712D02*
X6976Y9803D01*
X17055Y16496D02*
X17070Y16480D01*
X5414Y9763D02*
X5614Y9763D01*
X5653Y9803D02*
X6485Y9803D01*
X5614Y9763D02*
X5653Y9803D01*
X11869Y13022D02*
X12053Y13022D01*
X16118Y17480D02*
X16535Y17480D01*
X15818Y17181D02*
X16118Y17480D01*
X15818Y13236D02*
X15818Y17181D01*
X15433Y12850D02*
X15818Y13236D01*
X13763Y12850D02*
X15433Y12850D01*
X13377Y13236D02*
X13763Y12850D01*
X12267Y13236D02*
X13377Y13236D01*
X12053Y13022D02*
X12267Y13236D01*
X12529Y11772D02*
X12866Y11772D01*
X16188Y16988D02*
X16535Y16988D01*
X16047Y16846D02*
X16188Y16988D01*
X16047Y13122D02*
X16047Y16846D01*
X15562Y12637D02*
X16047Y13122D01*
X13732Y12637D02*
X15562Y12637D01*
X12866Y11772D02*
X13732Y12637D01*
G54D11*
X11704Y19290D02*
X11337Y19290D01*
X11337Y19290D02*
X10649Y18602D01*
X10098Y13022D02*
X10098Y14110D01*
X11732Y17519D02*
X10649Y18602D01*
X11732Y15744D02*
X11732Y17519D01*
X10098Y14110D02*
X11732Y15744D01*
G54D44*
X15018Y19842D02*
X15487Y19842D01*
G54D43*
X15589Y19350D02*
X15692Y19453D01*
X15692Y19453D02*
X15692Y20047D01*
X15589Y19350D02*
X15018Y19350D01*
G54D44*
X15487Y19842D02*
X15692Y20047D01*
G54D11*
X17972Y21748D02*
X17972Y20330D01*
X17972Y20330D02*
X18043Y20259D01*
X18043Y20259D02*
X18043Y19771D01*
X11157Y20381D02*
X11153Y20381D01*
X11602Y18767D02*
X11598Y18767D01*
G54D41*
X10704Y15648D02*
X11188Y15648D01*
X11188Y15648D02*
X11287Y15748D01*
X8803Y16909D02*
X8527Y16909D01*
X8610Y17275D02*
X9011Y17275D01*
X8452Y17118D02*
X8610Y17275D01*
X8452Y16984D02*
X8452Y17118D01*
X8527Y16909D02*
X8452Y16984D01*
X9011Y17275D02*
X9011Y17389D01*
X8748Y17992D02*
X8704Y17948D01*
X8748Y17992D02*
X9164Y17992D01*
X8704Y17696D02*
X8704Y17948D01*
X9011Y17389D02*
X8704Y17696D01*
G54D42*
X7275Y21295D02*
X7275Y21283D01*
X7267Y21303D02*
X7275Y21295D01*
X7670Y21192D02*
X7366Y21192D01*
X7149Y21409D02*
X6855Y21409D01*
X7366Y21192D02*
X7275Y21283D01*
X7275Y21283D02*
X7149Y21409D01*
X6855Y21409D02*
X6855Y21684D01*
X6633Y21905D02*
X6633Y22244D01*
X6855Y21684D02*
X6633Y21905D01*
X9940Y22728D02*
X10141Y22929D01*
X9940Y22728D02*
X9940Y22244D01*
X6633Y22484D02*
X6901Y22751D01*
X6633Y22484D02*
X6633Y22244D01*
X4527Y22244D02*
X4519Y22251D01*
X5157Y22244D02*
X4527Y22244D01*
X10692Y17425D02*
X10692Y17763D01*
X10692Y17763D02*
X10594Y17862D01*
G54D43*
X14232Y22244D02*
X14232Y21653D01*
X14232Y21653D02*
X14015Y21437D01*
G54D42*
X7342Y13444D02*
X7244Y13543D01*
X7342Y13444D02*
X7342Y13022D01*
G54D45*
X1771Y12185D02*
X1220Y12185D01*
X1220Y12185D02*
X1141Y12263D01*
G54D43*
X2177Y20413D02*
X2342Y20598D01*
X2177Y20413D02*
X1771Y20413D01*
G54D42*
X6523Y18700D02*
X6519Y18704D01*
X5259Y15929D02*
X5263Y15929D01*
X6192Y16161D02*
X6196Y16161D01*
X5263Y13866D02*
X5259Y13866D01*
X5271Y13858D02*
X5263Y13866D01*
X6160Y12973D02*
X6377Y12755D01*
X6160Y12973D02*
X6160Y13051D01*
X2380Y23171D02*
X1841Y23171D01*
X1602Y22933D02*
X1602Y22547D01*
X1841Y23171D02*
X1602Y22933D01*
X2380Y23171D02*
X2380Y23315D01*
X2263Y23433D02*
X2263Y23740D01*
X2380Y23315D02*
X2263Y23433D01*
X18043Y19771D02*
X18039Y19775D01*
G54D44*
X16535Y15704D02*
X16535Y16003D01*
X16421Y15590D02*
X16535Y15704D01*
G54D43*
X16663Y13261D02*
X16366Y13559D01*
X16663Y13261D02*
X16663Y13031D01*
G54D42*
X16535Y8082D02*
X16531Y8078D01*
X16535Y8082D02*
X16535Y8444D01*
G54D45*
X15350Y13244D02*
X15350Y13240D01*
X15354Y13248D02*
X15350Y13244D01*
X16535Y3641D02*
X16185Y3641D01*
X16003Y1909D02*
X15433Y1338D01*
X16003Y3460D02*
X16003Y1909D01*
X16185Y3641D02*
X16003Y3460D01*
G54D42*
X15118Y9074D02*
X15326Y9074D01*
X15326Y9074D02*
X15452Y9200D01*
G54D45*
X15212Y10980D02*
X15799Y10980D01*
X15799Y10980D02*
X15870Y11051D01*
G54D43*
X9196Y11244D02*
X9196Y11275D01*
X9200Y11240D02*
X9196Y11244D01*
G54D42*
X2085Y9881D02*
X2085Y10341D01*
X2085Y10341D02*
X2125Y10381D01*
X3229Y7874D02*
X3818Y7874D01*
X3818Y7874D02*
X3937Y7992D01*
X3818Y9724D02*
X4782Y9724D01*
X4782Y9724D02*
X4822Y9763D01*
X3248Y9823D02*
X3719Y9823D01*
X3719Y9823D02*
X3818Y9724D01*
X3229Y7224D02*
X3229Y7874D01*
G54D43*
X1771Y3602D02*
X2185Y3602D01*
X2185Y3602D02*
X2637Y3149D01*
G54D46*
X2362Y1535D02*
X3230Y1535D01*
X3230Y1535D02*
X3425Y1340D01*
G54D42*
X12529Y12165D02*
X12873Y12165D01*
X13091Y12503D02*
X13098Y12496D01*
X13091Y12503D02*
X13091Y12893D01*
X13098Y12389D02*
X13098Y12496D01*
X12873Y12165D02*
X13098Y12389D01*
X9310Y7377D02*
X9614Y7681D01*
X9310Y6978D02*
X9310Y7377D01*
X3799Y4055D02*
X3799Y3885D01*
X3925Y1840D02*
X3425Y1340D01*
X3925Y3759D02*
X3925Y1840D01*
X3799Y3885D02*
X3925Y3759D01*
G54D43*
X4665Y8452D02*
X4665Y8468D01*
X4657Y8444D02*
X4665Y8452D01*
G54D42*
X6485Y8622D02*
X6968Y8622D01*
X6968Y8622D02*
X7165Y8818D01*
X6485Y10591D02*
X6101Y10591D01*
X6101Y10591D02*
X5984Y10708D01*
X12776Y6633D02*
X12776Y6877D01*
X12776Y6877D02*
X12712Y6940D01*
X7342Y6978D02*
X7342Y6449D01*
X7342Y6449D02*
X7106Y6212D01*
X9704Y13022D02*
X9704Y13862D01*
X3091Y17298D02*
X3091Y18031D01*
X3870Y16519D02*
X3091Y17298D01*
X5251Y16519D02*
X3870Y16519D01*
X5905Y15866D02*
X5251Y16519D01*
X7330Y15866D02*
X5905Y15866D01*
X7889Y15307D02*
X7330Y15866D01*
X8421Y15307D02*
X7889Y15307D01*
X9129Y14598D02*
X8421Y15307D01*
X9129Y14437D02*
X9129Y14598D01*
X9704Y13862D02*
X9129Y14437D01*
X9901Y13022D02*
X9901Y13937D01*
X4291Y18779D02*
X3130Y18779D01*
X4897Y18173D02*
X4291Y18779D01*
X4897Y17397D02*
X4897Y18173D01*
X5389Y16905D02*
X4897Y17397D01*
X6645Y16905D02*
X5389Y16905D01*
X7275Y16275D02*
X6645Y16905D01*
X7275Y16194D02*
X7275Y16275D01*
X7969Y15500D02*
X7275Y16194D01*
X8501Y15500D02*
X7969Y15500D01*
X9322Y14678D02*
X8501Y15500D01*
X9322Y14516D02*
X9322Y14678D01*
X9901Y13937D02*
X9322Y14516D01*
X4728Y16964D02*
X4724Y16964D01*
X4535Y17708D02*
X4527Y17716D01*
G54D41*
X8409Y16594D02*
X8803Y16594D01*
X8208Y16795D02*
X8409Y16594D01*
G54D42*
X9507Y13022D02*
X9507Y12673D01*
X9637Y16464D02*
X9642Y16468D01*
X9507Y12673D02*
X9267Y12433D01*
G54D41*
X10007Y17066D02*
X10287Y17066D01*
X10287Y17066D02*
X10314Y17094D01*
G54D42*
X7735Y13022D02*
X7735Y12665D01*
X9287Y16444D02*
X9299Y16456D01*
X7735Y12665D02*
X7905Y12496D01*
G54D11*
X14811Y17574D02*
X14917Y17574D01*
X15228Y17263D02*
X15228Y16981D01*
X14917Y17574D02*
X15228Y17263D01*
G54D42*
X10294Y13022D02*
X10294Y13995D01*
X15018Y20524D02*
X15018Y20334D01*
X14799Y20744D02*
X15018Y20524D01*
X14811Y16035D02*
X14811Y17574D01*
X14177Y15401D02*
X14811Y16035D01*
X11700Y15401D02*
X14177Y15401D01*
X10294Y13995D02*
X11700Y15401D01*
X12529Y11969D02*
X11850Y11969D01*
X11850Y11969D02*
X11692Y11811D01*
G54D41*
X10007Y16751D02*
X10610Y16751D01*
X10610Y16751D02*
X10692Y16833D01*
G54D42*
X8720Y6461D02*
X8720Y6978D01*
X8657Y6397D02*
X8720Y6461D01*
X6485Y10197D02*
X7106Y10197D01*
X7106Y10197D02*
X7330Y10421D01*
X6485Y10000D02*
X7519Y10000D01*
X7519Y10000D02*
X7708Y9811D01*
X3975Y11066D02*
X3975Y11170D01*
X2232Y13169D02*
X1771Y13169D01*
X2377Y13023D02*
X2232Y13169D01*
X2377Y12767D02*
X2377Y13023D01*
X3975Y11170D02*
X2377Y12767D01*
X9034Y21417D02*
X9034Y21499D01*
X10433Y21893D02*
X10433Y22244D01*
X10314Y21775D02*
X10433Y21893D01*
X9311Y21775D02*
X10314Y21775D01*
X9034Y21499D02*
X9311Y21775D01*
X11475Y22165D02*
X11003Y22165D01*
X11003Y22165D02*
X10925Y22244D01*
X6995Y20141D02*
X6425Y20141D01*
X5720Y21244D02*
X5598Y21244D01*
X6043Y20921D02*
X5720Y21244D01*
X6043Y20523D02*
X6043Y20921D01*
X6425Y20141D02*
X6043Y20523D01*
X3130Y22339D02*
X3817Y22339D01*
X4913Y21244D02*
X5598Y21244D01*
X3817Y22339D02*
X4913Y21244D01*
X7587Y20141D02*
X7700Y20141D01*
G54D41*
X7964Y21003D02*
X7964Y21452D01*
X7976Y20992D02*
X7964Y21003D01*
G54D42*
X7976Y20417D02*
X7976Y20992D01*
X7700Y20141D02*
X7976Y20417D01*
X7670Y21452D02*
X7964Y21452D01*
X7964Y21452D02*
X8470Y21452D01*
X2086Y21574D02*
X2420Y21574D01*
X2003Y21657D02*
X2086Y21574D01*
X2420Y21574D02*
X2380Y21614D01*
X2380Y21614D02*
X2380Y22339D01*
X2755Y22339D02*
X2755Y22476D01*
X6141Y22586D02*
X6141Y22244D01*
X5937Y22791D02*
X6141Y22586D01*
X4885Y22791D02*
X5937Y22791D01*
X4633Y22539D02*
X4885Y22791D01*
X3780Y22539D02*
X4633Y22539D01*
X3646Y22673D02*
X3780Y22539D01*
X2952Y22673D02*
X3646Y22673D01*
X2755Y22476D02*
X2952Y22673D01*
X3405Y4055D02*
X3405Y3360D01*
X3405Y3360D02*
X3425Y3340D01*
X6471Y20767D02*
X6471Y20929D01*
X6263Y21138D02*
X6263Y21409D01*
X6471Y20929D02*
X6263Y21138D01*
X6263Y21409D02*
X6157Y21409D01*
X5649Y21917D02*
X5649Y22244D01*
X6157Y21409D02*
X5649Y21917D01*
X7063Y20767D02*
X7208Y20767D01*
X7373Y20932D02*
X7670Y20932D01*
X7208Y20767D02*
X7373Y20932D01*
X1771Y8877D02*
X1771Y8996D01*
X1771Y8996D02*
X2105Y9330D01*
X1771Y8385D02*
X2282Y8385D01*
X2282Y8385D02*
X2420Y8523D01*
X3987Y10370D02*
X3964Y10370D01*
X2066Y12677D02*
X1771Y12677D01*
X3318Y11425D02*
X2066Y12677D01*
X3318Y11015D02*
X3318Y11425D01*
X3964Y10370D02*
X3318Y11015D01*
X3979Y11751D02*
X3799Y11751D01*
X2082Y13661D02*
X1771Y13661D01*
X2614Y13129D02*
X2082Y13661D01*
X2614Y12937D02*
X2614Y13129D01*
X3799Y11751D02*
X2614Y12937D01*
X1771Y15137D02*
X2208Y15137D01*
X2267Y15078D02*
X2578Y15078D01*
X2208Y15137D02*
X2267Y15078D01*
X2617Y15708D02*
X2354Y15708D01*
X2275Y15629D02*
X1771Y15629D01*
X2354Y15708D02*
X2275Y15629D01*
X1220Y7401D02*
X1771Y7401D01*
X1181Y7440D02*
X1220Y7401D01*
X1240Y7893D02*
X1771Y7893D01*
X1181Y7952D02*
X1240Y7893D01*
X1240Y8751D02*
X1181Y7952D01*
X1771Y19429D02*
X1437Y19429D01*
X1291Y14645D02*
X1771Y14645D01*
X1192Y14744D02*
X1291Y14645D01*
X1059Y19051D02*
X1059Y18279D01*
X1437Y19429D02*
X1059Y19051D01*
X1771Y14645D02*
X2141Y14645D01*
X2141Y14645D02*
X2377Y14409D01*
X2377Y14409D02*
X2578Y14409D01*
X2538Y19448D02*
X1791Y19448D01*
X1791Y19448D02*
X1771Y19429D01*
X1771Y19921D02*
X1342Y19921D01*
X944Y14153D02*
X1771Y14153D01*
X614Y14484D02*
X944Y14153D01*
X614Y15574D02*
X614Y14484D01*
X610Y15578D02*
X614Y15574D01*
X1342Y19921D02*
X1118Y19696D01*
X2578Y13740D02*
X2468Y13740D01*
X2468Y13740D02*
X2251Y13956D01*
X2251Y13956D02*
X2251Y14118D01*
X2251Y14118D02*
X2216Y14153D01*
X2216Y14153D02*
X1771Y14153D01*
X2538Y20118D02*
X2409Y20118D01*
X2212Y19921D02*
X1771Y19921D01*
X2409Y20118D02*
X2212Y19921D01*
X2499Y18031D02*
X2185Y18031D01*
X2185Y18031D02*
X1771Y18444D01*
X2538Y18779D02*
X2370Y18779D01*
X2212Y18937D02*
X1771Y18937D01*
X2370Y18779D02*
X2212Y18937D01*
X16663Y12519D02*
X15755Y12519D01*
X15401Y12165D02*
X14508Y12165D01*
X15755Y12519D02*
X15401Y12165D01*
X16663Y12264D02*
X15800Y12264D01*
X15090Y11456D02*
X14508Y11456D01*
X15460Y11826D02*
X15090Y11456D01*
X15460Y11925D02*
X15460Y11826D01*
X15800Y12264D02*
X15460Y11925D01*
X1771Y4586D02*
X1771Y4606D01*
X2125Y5137D02*
X2362Y5373D01*
X2125Y4960D02*
X2125Y5137D01*
X1771Y4606D02*
X2125Y4960D01*
X1771Y4094D02*
X1377Y4094D01*
X1692Y5078D02*
X1692Y5373D01*
X1574Y4960D02*
X1692Y5078D01*
X1417Y4960D02*
X1574Y4960D01*
X1141Y4685D02*
X1417Y4960D01*
X1141Y4330D02*
X1141Y4685D01*
X1377Y4094D02*
X1141Y4330D01*
X15653Y22244D02*
X15216Y22244D01*
X15677Y22267D02*
X15653Y22244D01*
X14724Y21803D02*
X14724Y22244D01*
X14818Y21708D02*
X14724Y21803D01*
X4429Y4054D02*
X4429Y3344D01*
X4429Y3344D02*
X4425Y3340D01*
X16535Y4133D02*
X16283Y4133D01*
X14606Y5492D02*
X14606Y5766D01*
X14948Y5149D02*
X14606Y5492D01*
X15531Y5149D02*
X14948Y5149D01*
X15854Y4826D02*
X15531Y5149D01*
X15854Y4562D02*
X15854Y4826D01*
X16283Y4133D02*
X15854Y4562D01*
X11672Y6978D02*
X11672Y7374D01*
G54D44*
X11708Y7834D02*
X11641Y7834D01*
X11672Y7374D02*
X11708Y7834D01*
G54D42*
X7421Y4054D02*
X7421Y3344D01*
X7421Y3344D02*
X7425Y3340D01*
X6417Y4054D02*
X6417Y3348D01*
X6417Y3348D02*
X6425Y3340D01*
X5413Y4054D02*
X5413Y3352D01*
X5413Y3352D02*
X5425Y3340D01*
X15433Y4034D02*
X15433Y3346D01*
X14429Y4054D02*
X14429Y3344D01*
X14429Y3344D02*
X14425Y3340D01*
X11417Y4054D02*
X11417Y3348D01*
X11417Y3348D02*
X11425Y3340D01*
X13425Y4054D02*
X13425Y3340D01*
X12421Y4054D02*
X12421Y3344D01*
X12421Y3344D02*
X12425Y3340D01*
X10433Y4054D02*
X10433Y3348D01*
X10433Y3348D02*
X10425Y3340D01*
X9429Y4054D02*
X9429Y3344D01*
X9429Y3344D02*
X9425Y3340D01*
X8425Y4054D02*
X8425Y3340D01*
X15712Y8358D02*
X15740Y8358D01*
X16358Y8759D02*
X16535Y8937D01*
X16141Y8759D02*
X16358Y8759D01*
X15740Y8358D02*
X16141Y8759D01*
X15866Y7307D02*
X15712Y7460D01*
X15712Y7766D02*
X15712Y7460D01*
X15712Y7766D02*
X15603Y7766D01*
X14724Y8728D02*
X14724Y9074D01*
X14846Y8606D02*
X14724Y8728D01*
X15118Y8606D02*
X14846Y8606D01*
X15334Y8389D02*
X15118Y8606D01*
X15334Y8035D02*
X15334Y8389D01*
X15603Y7766D02*
X15334Y8035D01*
X16535Y5610D02*
X16535Y6121D01*
X16535Y6121D02*
X16496Y6160D01*
X16535Y5118D02*
X16291Y5118D01*
X15826Y5582D02*
X15826Y5766D01*
X16291Y5118D02*
X15826Y5582D01*
X16535Y4625D02*
X16358Y4625D01*
X15617Y5385D02*
X15236Y5766D01*
X15750Y5385D02*
X15617Y5385D01*
X15952Y5184D02*
X15750Y5385D01*
X15952Y5032D02*
X15952Y5184D01*
X16358Y4625D02*
X15952Y5032D01*
X6485Y11378D02*
X7322Y11378D01*
X7322Y11378D02*
X7397Y11303D01*
X9507Y6978D02*
X9507Y6582D01*
X9507Y6582D02*
X9641Y6448D01*
G54D11*
X17381Y20330D02*
X17381Y21748D01*
X11672Y13022D02*
X11672Y13605D01*
X17381Y19606D02*
X17381Y20330D01*
X16307Y18531D02*
X17381Y19606D01*
X15606Y18531D02*
X16307Y18531D01*
X15472Y18397D02*
X15606Y18531D01*
X15472Y17610D02*
X15472Y18397D01*
X15633Y17448D02*
X15472Y17610D01*
X15633Y15866D02*
X15633Y17448D01*
X14559Y14791D02*
X15633Y15866D01*
X12858Y14791D02*
X14559Y14791D01*
X11672Y13605D02*
X12858Y14791D01*
G54D42*
X8326Y13022D02*
X8326Y12677D01*
X8559Y12444D02*
X8645Y12444D01*
X8326Y12677D02*
X8559Y12444D01*
X3476Y23196D02*
X3451Y23171D01*
X3451Y23171D02*
X3130Y23171D01*
X3012Y21046D02*
X3012Y21574D01*
X3023Y21035D02*
X3012Y21046D01*
X4429Y4646D02*
X4429Y5074D01*
X6295Y7447D02*
X6485Y7638D01*
X6295Y6940D02*
X6295Y7447D01*
X4429Y5074D02*
X6295Y6940D01*
X13425Y4646D02*
X13180Y4646D01*
X10881Y6978D02*
X10885Y6978D01*
X10881Y6523D02*
X10881Y6978D01*
X12224Y5181D02*
X10881Y6523D01*
X12645Y5181D02*
X12224Y5181D01*
X13180Y4646D02*
X12645Y5181D01*
G54D11*
X12529Y9409D02*
X12083Y9409D01*
X11279Y7357D02*
X11279Y6978D01*
X11208Y7429D02*
X11279Y7357D01*
X11208Y9118D02*
X11208Y7429D01*
X11531Y9440D02*
X11208Y9118D01*
X12051Y9440D02*
X11531Y9440D01*
X12083Y9409D02*
X12051Y9440D01*
G54D42*
X14429Y4646D02*
X14188Y4646D01*
X11279Y6398D02*
X11279Y6978D01*
X12274Y5404D02*
X11279Y6398D01*
X12713Y5404D02*
X12274Y5404D01*
X13039Y5078D02*
X12713Y5404D01*
X13755Y5078D02*
X13039Y5078D01*
X14188Y4646D02*
X13755Y5078D01*
G54D11*
X11476Y6978D02*
X11476Y7605D01*
X12050Y9213D02*
X12529Y9213D01*
X11996Y9267D02*
X12050Y9213D01*
X11629Y9267D02*
X11996Y9267D01*
X11389Y9027D02*
X11629Y9267D01*
X11389Y7692D02*
X11389Y9027D01*
X11476Y7605D02*
X11389Y7692D01*
G54D42*
X11476Y6978D02*
X11476Y6509D01*
X15062Y4626D02*
X15433Y4626D01*
X14641Y5047D02*
X15062Y4626D01*
X14389Y5047D02*
X14641Y5047D01*
X14153Y5283D02*
X14389Y5047D01*
X13177Y5283D02*
X14153Y5283D01*
X12850Y5610D02*
X13177Y5283D01*
X12376Y5610D02*
X12850Y5610D01*
X11476Y6509D02*
X12376Y5610D01*
X5413Y4646D02*
X5413Y5492D01*
X6899Y6978D02*
X7145Y6978D01*
X5413Y5492D02*
X6899Y6978D01*
X6417Y4646D02*
X6417Y4803D01*
X8129Y6598D02*
X8129Y6978D01*
X8090Y6559D02*
X8129Y6598D01*
X8090Y5759D02*
X8090Y6559D01*
X8023Y5692D02*
X8090Y5759D01*
X8023Y5681D02*
X8023Y5692D01*
X7893Y5551D02*
X8023Y5681D01*
X7165Y5551D02*
X7893Y5551D01*
X6417Y4803D02*
X7165Y5551D01*
X7421Y4646D02*
X7421Y4799D01*
X8322Y6978D02*
X8326Y6978D01*
X8322Y5700D02*
X8322Y6978D01*
X7421Y4799D02*
X8322Y5700D01*
X8916Y6978D02*
X8916Y6358D01*
X9251Y5473D02*
X8425Y4646D01*
X9251Y6023D02*
X9251Y5473D01*
X8916Y6358D02*
X9251Y6023D01*
X9113Y6978D02*
X9113Y6460D01*
X9429Y6145D02*
X9429Y4646D01*
X9113Y6460D02*
X9429Y6145D01*
X10433Y4646D02*
X10433Y5755D01*
X9901Y6287D02*
X9901Y6978D01*
X10433Y5755D02*
X9901Y6287D01*
X11417Y4646D02*
X11417Y5094D01*
X10294Y6216D02*
X10294Y6978D01*
X11417Y5094D02*
X10294Y6216D01*
X12421Y4646D02*
X12421Y4649D01*
X10688Y6381D02*
X10688Y6978D01*
X12421Y4649D02*
X10688Y6381D01*
X2775Y4587D02*
X3581Y4587D01*
X3581Y4587D02*
X3602Y4566D01*
X3602Y4566D02*
X3622Y4566D01*
X6063Y7835D02*
X6485Y7835D01*
X5905Y7677D02*
X6063Y7835D01*
X5905Y6850D02*
X5905Y7677D01*
X3622Y4566D02*
X5905Y6850D01*
X11082Y13022D02*
X11082Y13389D01*
X11082Y13389D02*
X11228Y13535D01*
X10491Y13022D02*
X10491Y12492D01*
X10491Y12492D02*
X10700Y12283D01*
X12529Y10394D02*
X13449Y10394D01*
X13449Y10394D02*
X13511Y10456D01*
X12529Y10591D02*
X13118Y10591D01*
X13118Y10591D02*
X13224Y10696D01*
X11476Y13022D02*
X11476Y12424D01*
X11476Y12424D02*
X11610Y12291D01*
X11279Y13022D02*
X11279Y12638D01*
X11279Y12638D02*
X11074Y12433D01*
X2362Y5965D02*
X3170Y5965D01*
X6485Y8027D02*
X6485Y8031D01*
X5901Y8027D02*
X6485Y8027D01*
X5669Y7795D02*
X5901Y8027D01*
X5669Y7047D02*
X5669Y7795D01*
X5039Y6417D02*
X5669Y7047D01*
X3622Y6417D02*
X5039Y6417D01*
X3170Y5965D02*
X3622Y6417D01*
X7735Y6978D02*
X7735Y6445D01*
X7735Y6445D02*
X7885Y6295D01*
X1692Y6496D02*
X1692Y5965D01*
X1700Y6503D02*
X1692Y6496D01*
X7685Y5838D02*
X6645Y5838D01*
X7885Y6039D02*
X7685Y5838D01*
X7885Y6295D02*
X7885Y6039D01*
G54D41*
X10007Y16594D02*
X9850Y16594D01*
X9641Y16803D02*
X9586Y16803D01*
X9850Y16594D02*
X9641Y16803D01*
X13570Y20137D02*
X13570Y19842D01*
X13566Y20141D02*
X13570Y20137D01*
G54D42*
X9113Y13022D02*
X9113Y13648D01*
X8901Y14409D02*
X8555Y14755D01*
X8901Y13860D02*
X8901Y14409D01*
X9113Y13648D02*
X8901Y13860D01*
G54D41*
X14112Y19842D02*
X13570Y19842D01*
G54D11*
X13515Y19350D02*
X13515Y19610D01*
X13303Y19822D02*
X13303Y20366D01*
X13515Y19610D02*
X13303Y19822D01*
G54D42*
X12476Y17724D02*
X12476Y17751D01*
X13511Y19350D02*
X13515Y19350D01*
X13515Y19350D02*
X14112Y19350D01*
X13334Y19173D02*
X13511Y19350D01*
X13334Y18610D02*
X13334Y19173D01*
X12476Y17751D02*
X13334Y18610D01*
G54D41*
X7893Y16074D02*
X8334Y16074D01*
X8539Y16279D02*
X8803Y16279D01*
X8334Y16074D02*
X8539Y16279D01*
G54D42*
X8916Y13022D02*
X8916Y13572D01*
X8708Y14216D02*
X8539Y14385D01*
X8708Y13780D02*
X8708Y14216D01*
X8916Y13572D02*
X8708Y13780D01*
G54D41*
X7858Y16437D02*
X8803Y16437D01*
X13649Y18562D02*
X14102Y18562D01*
X14165Y18805D02*
X14112Y18858D01*
X14165Y18625D02*
X14165Y18805D01*
X14102Y18562D02*
X14165Y18625D01*
X13649Y18562D02*
X13645Y18566D01*
G54D42*
X7858Y16437D02*
X7858Y16437D01*
X9310Y13022D02*
X9310Y13866D01*
X7318Y15586D02*
X6496Y15586D01*
X7964Y14940D02*
X7318Y15586D01*
X9310Y13866D02*
X9196Y13980D01*
X14133Y9508D02*
X13715Y9508D01*
X13027Y10197D02*
X12529Y10197D01*
X13715Y9508D02*
X13027Y10197D01*
X14133Y9508D02*
X14595Y9508D01*
X14673Y9586D02*
X14921Y9586D01*
X14595Y9508D02*
X14673Y9586D01*
X14688Y8094D02*
X13893Y8094D01*
X12529Y10004D02*
X12529Y10000D01*
X12947Y10004D02*
X12529Y10004D01*
X13420Y9530D02*
X12947Y10004D01*
X13420Y8567D02*
X13420Y9530D01*
X13893Y8094D02*
X13420Y8567D01*
X12529Y11378D02*
X13060Y11378D01*
X13711Y11661D02*
X13916Y11456D01*
X13343Y11661D02*
X13711Y11661D01*
X13060Y11378D02*
X13343Y11661D01*
X13916Y12165D02*
X13574Y12165D01*
X12984Y11575D02*
X12529Y11575D01*
X13574Y12165D02*
X12984Y11575D01*
X13802Y10984D02*
X12529Y10984D01*
X13846Y11027D02*
X13802Y10984D01*
G54D43*
X16663Y12007D02*
X17062Y12007D01*
X17153Y13240D02*
X16952Y13440D01*
X17153Y12098D02*
X17153Y13240D01*
X17062Y12007D02*
X17153Y12098D01*
G54D42*
X12529Y11181D02*
X13279Y11181D01*
X16193Y12774D02*
X16663Y12774D01*
X16173Y12795D02*
X16193Y12774D01*
X13279Y11181D02*
X13452Y11354D01*
X12529Y9016D02*
X11811Y9016D01*
X11811Y9016D02*
X11811Y9015D01*
X12529Y8622D02*
X12094Y8622D01*
X12094Y8622D02*
X11877Y8405D01*
X12529Y8425D02*
X12995Y8425D01*
X12995Y8425D02*
X13110Y8539D01*
M02*
