G04 (created by PCBNEW (2013-may-18)-stable) date St 19. únor 2014, 18:08:51 CET*
%MOIN*%
G04 Gerber Fmt 3.4, Leading zero omitted, Abs format*
%FSLAX34Y34*%
G01*
G70*
G90*
G04 APERTURE LIST*
%ADD10C,0.00590551*%
%ADD11C,0.00787402*%
%ADD12C,0.06*%
%ADD13R,0.0335X0.0335*%
%ADD14C,0.0708661*%
%ADD15R,0.0708661X0.0787*%
%ADD16R,0.0394X0.0354*%
%ADD17C,0.0866142*%
%ADD18R,0.0669X0.0334*%
%ADD19R,0.0394X0.0272*%
%ADD20R,0.0512X0.0709*%
%ADD21R,0.1496X0.0709*%
%ADD22R,0.0236X0.0394*%
%ADD23R,0.0236X0.0787*%
%ADD24R,0.0787X0.0236*%
%ADD25R,0.0472X0.059*%
%ADD26R,0.0354X0.0394*%
%ADD27R,0.059X0.0314*%
%ADD28R,0.0551X0.0708*%
%ADD29R,0.0748X0.0551*%
%ADD30R,0.0118X0.0512*%
%ADD31R,0.0512X0.0118*%
%ADD32R,0.0590551X0.0393701*%
%ADD33R,0.0314X0.0314*%
%ADD34R,0.0998882X0.0723291*%
%ADD35R,0.0723291X0.0998882*%
%ADD36R,0.0473X0.059*%
%ADD37R,0.059X0.0472*%
%ADD38R,0.059X0.0473*%
%ADD39C,0.019685*%
%ADD40R,0.0315X0.0275*%
%ADD41R,0.019685X0.023622*%
%ADD42R,0.023622X0.019685*%
G04 APERTURE END LIST*
G54D10*
G54D11*
X17965Y4010D02*
X17965Y4220D01*
X17965Y4160D02*
X17950Y4190D01*
X17935Y4205D01*
X17905Y4220D01*
X17875Y4220D01*
X17650Y4025D02*
X17680Y4010D01*
X17740Y4010D01*
X17770Y4025D01*
X17785Y4055D01*
X17785Y4175D01*
X17770Y4205D01*
X17740Y4220D01*
X17680Y4220D01*
X17650Y4205D01*
X17635Y4175D01*
X17635Y4145D01*
X17785Y4115D01*
X17530Y4220D02*
X17455Y4010D01*
X17380Y4220D01*
X17260Y4040D02*
X17245Y4025D01*
X17260Y4010D01*
X17275Y4025D01*
X17260Y4040D01*
X17260Y4010D01*
X16705Y4010D02*
X16885Y4010D01*
X16795Y4010D02*
X16795Y4325D01*
X16825Y4280D01*
X16855Y4250D01*
X16885Y4235D01*
X16570Y4040D02*
X16555Y4025D01*
X16570Y4010D01*
X16585Y4025D01*
X16570Y4040D01*
X16570Y4010D01*
X16360Y4325D02*
X16330Y4325D01*
X16300Y4310D01*
X16285Y4295D01*
X16270Y4265D01*
X16255Y4205D01*
X16255Y4130D01*
X16270Y4070D01*
X16285Y4040D01*
X16300Y4025D01*
X16330Y4010D01*
X16360Y4010D01*
X16390Y4025D01*
X16405Y4040D01*
X16420Y4070D01*
X16435Y4130D01*
X16435Y4205D01*
X16420Y4265D01*
X16405Y4295D01*
X16390Y4310D01*
X16360Y4325D01*
X16060Y4325D02*
X16030Y4325D01*
X16000Y4310D01*
X15985Y4295D01*
X15970Y4265D01*
X15955Y4205D01*
X15955Y4130D01*
X15970Y4070D01*
X15985Y4040D01*
X16000Y4025D01*
X16030Y4010D01*
X16060Y4010D01*
X16090Y4025D01*
X16105Y4040D01*
X16120Y4070D01*
X16135Y4130D01*
X16135Y4205D01*
X16120Y4265D01*
X16105Y4295D01*
X16090Y4310D01*
X16060Y4325D01*
X14635Y4295D02*
X14620Y4310D01*
X14590Y4325D01*
X14515Y4325D01*
X14485Y4310D01*
X14470Y4295D01*
X14455Y4265D01*
X14455Y4235D01*
X14470Y4190D01*
X14650Y4010D01*
X14455Y4010D01*
X14260Y4325D02*
X14230Y4325D01*
X14200Y4310D01*
X14185Y4295D01*
X14170Y4265D01*
X14155Y4205D01*
X14155Y4130D01*
X14170Y4070D01*
X14185Y4040D01*
X14200Y4025D01*
X14230Y4010D01*
X14260Y4010D01*
X14290Y4025D01*
X14305Y4040D01*
X14320Y4070D01*
X14335Y4130D01*
X14335Y4205D01*
X14320Y4265D01*
X14305Y4295D01*
X14290Y4310D01*
X14260Y4325D01*
X13855Y4010D02*
X14035Y4010D01*
X13945Y4010D02*
X13945Y4325D01*
X13975Y4280D01*
X14005Y4250D01*
X14035Y4235D01*
X13585Y4220D02*
X13585Y4010D01*
X13660Y4340D02*
X13735Y4115D01*
X13540Y4115D01*
X13180Y4010D02*
X13180Y4325D01*
X13180Y4205D02*
X13150Y4220D01*
X13090Y4220D01*
X13060Y4205D01*
X13045Y4190D01*
X13030Y4160D01*
X13030Y4070D01*
X13045Y4040D01*
X13060Y4025D01*
X13090Y4010D01*
X13150Y4010D01*
X13180Y4025D01*
X12925Y4220D02*
X12850Y4010D01*
X12775Y4220D02*
X12850Y4010D01*
X12880Y3935D01*
X12895Y3920D01*
X12925Y3905D01*
X12415Y4010D02*
X12415Y4325D01*
X12340Y4325D01*
X12295Y4310D01*
X12265Y4280D01*
X12250Y4250D01*
X12235Y4190D01*
X12235Y4145D01*
X12250Y4085D01*
X12265Y4055D01*
X12295Y4025D01*
X12340Y4010D01*
X12415Y4010D01*
X11965Y4010D02*
X11965Y4175D01*
X11980Y4205D01*
X12010Y4220D01*
X12070Y4220D01*
X12100Y4205D01*
X11965Y4025D02*
X11995Y4010D01*
X12070Y4010D01*
X12100Y4025D01*
X12115Y4055D01*
X12115Y4085D01*
X12100Y4115D01*
X12070Y4130D01*
X11995Y4130D01*
X11965Y4145D01*
X11815Y4220D02*
X11815Y4010D01*
X11815Y4190D02*
X11800Y4205D01*
X11770Y4220D01*
X11725Y4220D01*
X11695Y4205D01*
X11680Y4175D01*
X11680Y4010D01*
X11395Y4010D02*
X11395Y4325D01*
X11395Y4025D02*
X11425Y4010D01*
X11485Y4010D01*
X11515Y4025D01*
X11530Y4040D01*
X11545Y4070D01*
X11545Y4160D01*
X11530Y4190D01*
X11515Y4205D01*
X11485Y4220D01*
X11425Y4220D01*
X11395Y4205D01*
X11275Y4220D02*
X11200Y4010D01*
X11125Y4220D02*
X11200Y4010D01*
X11230Y3935D01*
X11245Y3920D01*
X11275Y3905D01*
X11020Y4025D02*
X10991Y4010D01*
X10931Y4010D01*
X10901Y4025D01*
X10886Y4055D01*
X10886Y4070D01*
X10901Y4100D01*
X10931Y4115D01*
X10976Y4115D01*
X11005Y4130D01*
X11020Y4160D01*
X11020Y4175D01*
X11005Y4205D01*
X10976Y4220D01*
X10931Y4220D01*
X10901Y4205D01*
G54D10*
X-196Y944D02*
G75*
G03X944Y-196I1141J0D01*
G74*
G01*
X944Y24212D02*
X17362Y24212D01*
X-196Y944D02*
X-196Y23070D01*
X17362Y-196D02*
X944Y-196D01*
X18503Y23070D02*
X18503Y944D01*
X17362Y-196D02*
G75*
G03X18503Y944I0J1141D01*
G74*
G01*
X944Y24212D02*
G75*
G03X-196Y23070I0J-1141D01*
G74*
G01*
X18503Y23070D02*
G75*
G03X17362Y24212I-1141J0D01*
G74*
G01*
G36*
X7911Y17177D02*
X7298Y16565D01*
X6874Y16989D01*
X7486Y17601D01*
X7911Y17177D01*
X7911Y17177D01*
G37*
G54D12*
X6591Y17696D02*
X6779Y17884D01*
G54D13*
X17192Y14241D03*
X17192Y12923D03*
G54D14*
X15433Y3346D03*
X15433Y2342D03*
X15433Y1338D03*
G54D15*
X3425Y1340D03*
G54D14*
X3425Y2340D03*
X4425Y1340D03*
X4425Y2340D03*
X5425Y1340D03*
X5425Y2340D03*
X6425Y1340D03*
X6425Y2340D03*
X7425Y1340D03*
X7425Y2340D03*
X8425Y1340D03*
X8425Y2340D03*
X9425Y1340D03*
X9425Y2340D03*
X10425Y1340D03*
X10425Y2340D03*
X11425Y1340D03*
X11425Y2340D03*
X12425Y1340D03*
X12425Y2340D03*
X3425Y3340D03*
X4425Y3340D03*
X5425Y3340D03*
X6425Y3340D03*
X7425Y3340D03*
X8425Y3340D03*
X9425Y3340D03*
X10425Y3340D03*
X11425Y3340D03*
X12425Y3340D03*
X13425Y1340D03*
X13425Y2340D03*
X13425Y3340D03*
X14425Y1340D03*
X14429Y2342D03*
X14425Y3340D03*
G54D16*
X7559Y18955D03*
X7559Y19547D03*
G54D17*
X944Y23070D03*
X944Y944D03*
X17362Y944D03*
X17362Y23070D03*
G54D18*
X10275Y15905D03*
X9094Y15117D03*
X10275Y14330D03*
X9094Y13542D03*
X10275Y12755D03*
X9094Y11968D03*
X10275Y11180D03*
X9094Y10393D03*
X10275Y9605D03*
X9094Y8818D03*
X433Y8818D03*
X1614Y9605D03*
X433Y10393D03*
X1614Y11180D03*
X433Y11968D03*
X1614Y12755D03*
X433Y13542D03*
X1614Y14330D03*
X433Y15117D03*
X1614Y15905D03*
G54D19*
X13386Y14507D03*
X13386Y13759D03*
X13386Y14133D03*
X12362Y13759D03*
X12362Y14507D03*
G54D20*
X2531Y2049D03*
X1625Y2049D03*
X719Y2049D03*
G54D21*
X1625Y4411D03*
G54D22*
X15725Y12804D03*
X14975Y12804D03*
X15350Y12804D03*
X14975Y13636D03*
X15725Y13636D03*
G54D23*
X17757Y18309D03*
X17257Y18309D03*
X16757Y18309D03*
X16257Y18309D03*
X16257Y20509D03*
X16757Y20509D03*
X17257Y20509D03*
X17757Y20509D03*
G54D24*
X3703Y18659D03*
X3703Y19159D03*
X3703Y19659D03*
X3703Y20159D03*
X5903Y20159D03*
X5903Y19659D03*
X5903Y19159D03*
X5903Y18659D03*
G54D25*
X16495Y21555D03*
X17283Y21555D03*
X15866Y14507D03*
X15078Y14507D03*
G54D26*
X2420Y21496D03*
X3012Y21496D03*
X12382Y23110D03*
X11790Y23110D03*
X14784Y23149D03*
X14192Y23149D03*
X9705Y23110D03*
X9113Y23110D03*
X7107Y23228D03*
X6515Y23228D03*
X1987Y8818D03*
X2579Y8818D03*
G54D16*
X8326Y12658D03*
X8326Y12066D03*
G54D26*
X6948Y14448D03*
X7540Y14448D03*
X3799Y8818D03*
X3207Y8818D03*
X3130Y8267D03*
X2538Y8267D03*
G54D16*
X1968Y7617D03*
X1968Y8209D03*
X8338Y6054D03*
X8338Y6646D03*
G54D26*
X9223Y6039D03*
X9815Y6039D03*
G54D16*
X7480Y12421D03*
X7480Y11829D03*
G54D27*
X16387Y8886D03*
X16230Y9319D03*
X16387Y9752D03*
X16466Y10185D03*
X16387Y10618D03*
X16466Y11051D03*
X16387Y11484D03*
X16387Y11917D03*
G54D28*
X12332Y11598D03*
X12332Y9354D03*
G54D29*
X17903Y7051D03*
X17509Y12228D03*
G54D30*
X4743Y13189D03*
X4546Y13189D03*
X4349Y13189D03*
X4153Y13189D03*
X3956Y13189D03*
X5334Y13189D03*
X5137Y13189D03*
X4940Y13189D03*
G54D31*
X2637Y13720D03*
X2637Y13917D03*
X2637Y14114D03*
X2637Y14311D03*
X2637Y14508D03*
X2637Y14705D03*
X2637Y14901D03*
X2637Y15098D03*
G54D30*
X3168Y16417D03*
X3365Y16417D03*
X3562Y16417D03*
X3759Y16417D03*
X3956Y16417D03*
X4153Y16417D03*
X4349Y16417D03*
X4546Y16417D03*
G54D31*
X5865Y15886D03*
X5865Y15689D03*
X5865Y15492D03*
X5865Y15295D03*
X5865Y15098D03*
X5865Y14901D03*
X5865Y14705D03*
X5865Y14508D03*
G54D30*
X3759Y13189D03*
X3562Y13189D03*
X3365Y13189D03*
X3168Y13189D03*
G54D31*
X2637Y15295D03*
X2637Y15492D03*
X2637Y15689D03*
X2637Y15886D03*
G54D30*
X4743Y16417D03*
X4940Y16417D03*
X5137Y16417D03*
X5334Y16417D03*
G54D31*
X5865Y14311D03*
X5865Y14114D03*
X5865Y13917D03*
X5865Y13720D03*
G54D32*
X6181Y23779D03*
X7204Y23779D03*
X8779Y23779D03*
X9803Y23779D03*
X13976Y23779D03*
X15000Y23779D03*
X11377Y23779D03*
X12401Y23779D03*
G54D33*
X8130Y5039D03*
X8720Y5039D03*
X9818Y5039D03*
X9228Y5039D03*
G54D34*
X8031Y9251D03*
X8031Y10708D03*
G54D35*
X3326Y11732D03*
X4783Y11732D03*
G54D25*
X8365Y7775D03*
G54D36*
X9153Y7775D03*
G54D25*
X7027Y11397D03*
G54D36*
X6239Y11397D03*
G54D37*
X12283Y15550D03*
G54D38*
X12283Y16338D03*
G54D37*
X10964Y7834D03*
G54D38*
X10964Y8622D03*
G54D37*
X11062Y11732D03*
G54D38*
X11062Y10944D03*
G54D25*
X2991Y4370D03*
G54D36*
X3779Y4370D03*
G54D37*
X14212Y14523D03*
G54D38*
X14212Y13735D03*
G54D25*
X2972Y5255D03*
G54D36*
X3760Y5255D03*
G54D26*
X8050Y11377D03*
X8642Y11377D03*
X7892Y8582D03*
X8484Y8582D03*
G54D16*
X4645Y10768D03*
X4645Y10176D03*
X3779Y10768D03*
X3779Y10176D03*
G54D26*
X3130Y7716D03*
X2538Y7716D03*
X16711Y17440D03*
X17303Y17440D03*
X11083Y15196D03*
X10491Y15196D03*
G54D16*
X6929Y18995D03*
X6929Y19587D03*
G54D26*
X5138Y20944D03*
X4546Y20944D03*
X7717Y6476D03*
X7125Y6476D03*
G54D16*
X5314Y8248D03*
X5314Y7656D03*
G54D26*
X5414Y8858D03*
X4822Y8858D03*
G54D16*
X5708Y10137D03*
X5708Y10729D03*
X2559Y10296D03*
X2559Y9704D03*
X7401Y8110D03*
X7401Y7518D03*
X2519Y16988D03*
X2519Y16396D03*
G54D26*
X6477Y16535D03*
X5885Y16535D03*
G54D16*
X5826Y12578D03*
X5826Y13170D03*
X2559Y13248D03*
X2559Y12656D03*
X1968Y17067D03*
X1968Y16475D03*
X11775Y14437D03*
X11775Y13845D03*
G54D26*
X5176Y18070D03*
X5768Y18070D03*
G54D39*
X4188Y12547D03*
G54D40*
X17618Y11377D03*
X18050Y11377D03*
X17618Y10157D03*
X18050Y10157D03*
X17618Y9015D03*
X18050Y9015D03*
X17618Y10905D03*
X18050Y10905D03*
X17869Y9566D03*
X17437Y9566D03*
G54D41*
X5511Y22657D03*
X5118Y22657D03*
X5314Y23169D03*
X8582Y22736D03*
X8188Y22736D03*
X8385Y23248D03*
X14055Y21948D03*
X13661Y21948D03*
X13858Y22460D03*
G54D42*
X11240Y22795D03*
X11240Y22401D03*
X10728Y22598D03*
G54D26*
X5406Y4125D03*
X4814Y4125D03*
X9599Y4377D03*
X9007Y4377D03*
X981Y20397D03*
X389Y20397D03*
X8315Y20688D03*
X7723Y20688D03*
G54D24*
X10537Y18883D03*
X10537Y19383D03*
X10537Y19883D03*
X10537Y20383D03*
X12737Y20383D03*
X12737Y19883D03*
X12737Y19383D03*
X12737Y18883D03*
G54D26*
X12000Y18236D03*
X11408Y18236D03*
M02*
