G04 (created by PCBNEW (2013-may-18)-stable) date Ne 10. listopad 2013, 11:38:45 CET*
%MOIN*%
G04 Gerber Fmt 3.4, Leading zero omitted, Abs format*
%FSLAX34Y34*%
G01*
G70*
G90*
G04 APERTURE LIST*
%ADD10C,0.00590551*%
%ADD11C,0.00826772*%
%ADD12C,0.011811*%
%ADD13C,0.00787402*%
%ADD14C,0.00757874*%
%ADD15C,0.0001*%
%ADD16C,0.0590551*%
%ADD17C,0.0165354*%
%ADD18C,0.00984252*%
%ADD19C,0.008*%
%ADD20C,0.005*%
%ADD21C,0.0059*%
%ADD22C,0.0079*%
%ADD23C,0.00748031*%
%ADD24C,0.0866142*%
%ADD25R,0.0512X0.0118*%
%ADD26R,0.0118X0.0512*%
%ADD27C,0.0708661*%
%ADD28R,0.0708661X0.0787*%
%ADD29R,0.0236X0.0394*%
%ADD30R,0.019685X0.023622*%
%ADD31R,0.0354X0.0394*%
%ADD32R,0.0394X0.0354*%
%ADD33R,0.0629921X0.0314961*%
%ADD34R,0.11811X0.0826772*%
%ADD35R,0.0826772X0.11811*%
%ADD36R,0.0314961X0.0629921*%
%ADD37R,0.0472X0.0236*%
%ADD38O,0.0315X0.011811*%
%ADD39O,0.011811X0.0315*%
%ADD40R,0.0314X0.0314*%
%ADD41R,0.0747X0.0747*%
%ADD42R,0.0531X0.0157*%
%ADD43R,0.053X0.0157*%
%ADD44R,0.059X0.0472*%
%ADD45R,0.059X0.0473*%
G04 APERTURE END LIST*
G54D10*
G54D11*
X17447Y20159D02*
X17670Y20159D01*
X17447Y19825D01*
X17670Y19825D01*
X16023Y21008D02*
X16023Y20848D01*
X15912Y21183D02*
X16023Y21008D01*
X16135Y21183D01*
X16856Y22167D02*
X17080Y21833D01*
X17080Y22167D02*
X16856Y21833D01*
G54D12*
X17922Y20669D02*
G75*
G03X17922Y20669I-362J0D01*
G74*
G01*
G54D13*
X17670Y20669D02*
G75*
G03X17670Y20669I-111J0D01*
G74*
G01*
X17647Y20669D02*
G75*
G03X17647Y20669I-88J0D01*
G74*
G01*
X17614Y20669D02*
G75*
G03X17614Y20669I-55J0D01*
G74*
G01*
G54D12*
X16062Y20669D02*
X16417Y21023D01*
X16062Y20669D02*
X16417Y20314D01*
X17559Y20669D02*
X16062Y20669D01*
X17559Y22165D02*
X17913Y21811D01*
X17559Y22165D02*
X17204Y21811D01*
X17559Y20669D02*
X17559Y22165D01*
G54D14*
X14369Y13805D02*
X14369Y13704D01*
X14528Y13704D02*
X14225Y13704D01*
X14225Y13848D01*
X14528Y14007D02*
X14513Y13978D01*
X14484Y13963D01*
X14225Y13963D01*
X14528Y14122D02*
X14326Y14122D01*
X14225Y14122D02*
X14239Y14108D01*
X14253Y14122D01*
X14239Y14137D01*
X14225Y14122D01*
X14253Y14122D01*
X14326Y14396D02*
X14571Y14396D01*
X14600Y14382D01*
X14614Y14368D01*
X14629Y14339D01*
X14629Y14295D01*
X14614Y14267D01*
X14513Y14396D02*
X14528Y14368D01*
X14528Y14310D01*
X14513Y14281D01*
X14499Y14267D01*
X14470Y14252D01*
X14383Y14252D01*
X14354Y14267D01*
X14340Y14281D01*
X14326Y14310D01*
X14326Y14368D01*
X14340Y14396D01*
X14528Y14541D02*
X14225Y14541D01*
X14528Y14671D02*
X14369Y14671D01*
X14340Y14656D01*
X14326Y14627D01*
X14326Y14584D01*
X14340Y14555D01*
X14354Y14541D01*
X14326Y14772D02*
X14326Y14887D01*
X14225Y14815D02*
X14484Y14815D01*
X14513Y14830D01*
X14528Y14858D01*
X14528Y14887D01*
X14528Y15349D02*
X14225Y15349D01*
X14513Y15349D02*
X14528Y15320D01*
X14528Y15263D01*
X14513Y15234D01*
X14499Y15219D01*
X14470Y15205D01*
X14383Y15205D01*
X14354Y15219D01*
X14340Y15234D01*
X14326Y15263D01*
X14326Y15320D01*
X14340Y15349D01*
X14528Y15494D02*
X14326Y15494D01*
X14225Y15494D02*
X14239Y15479D01*
X14253Y15494D01*
X14239Y15508D01*
X14225Y15494D01*
X14253Y15494D01*
X14528Y15638D02*
X14326Y15638D01*
X14383Y15638D02*
X14354Y15652D01*
X14340Y15667D01*
X14326Y15696D01*
X14326Y15725D01*
X14513Y15941D02*
X14528Y15912D01*
X14528Y15854D01*
X14513Y15826D01*
X14484Y15811D01*
X14369Y15811D01*
X14340Y15826D01*
X14326Y15854D01*
X14326Y15912D01*
X14340Y15941D01*
X14369Y15956D01*
X14398Y15956D01*
X14427Y15811D01*
X14513Y16215D02*
X14528Y16187D01*
X14528Y16129D01*
X14513Y16100D01*
X14499Y16085D01*
X14470Y16071D01*
X14383Y16071D01*
X14354Y16085D01*
X14340Y16100D01*
X14326Y16129D01*
X14326Y16187D01*
X14340Y16215D01*
X14326Y16302D02*
X14326Y16417D01*
X14225Y16345D02*
X14484Y16345D01*
X14513Y16360D01*
X14528Y16389D01*
X14528Y16417D01*
X14528Y16519D02*
X14326Y16519D01*
X14225Y16519D02*
X14239Y16504D01*
X14253Y16519D01*
X14239Y16533D01*
X14225Y16519D01*
X14253Y16519D01*
X14528Y16706D02*
X14513Y16677D01*
X14499Y16663D01*
X14470Y16648D01*
X14383Y16648D01*
X14354Y16663D01*
X14340Y16677D01*
X14326Y16706D01*
X14326Y16750D01*
X14340Y16778D01*
X14354Y16793D01*
X14383Y16807D01*
X14470Y16807D01*
X14499Y16793D01*
X14513Y16778D01*
X14528Y16750D01*
X14528Y16706D01*
X14326Y16937D02*
X14528Y16937D01*
X14354Y16937D02*
X14340Y16952D01*
X14326Y16980D01*
X14326Y17024D01*
X14340Y17053D01*
X14369Y17067D01*
X14528Y17067D01*
G54D10*
X-196Y944D02*
G75*
G03X944Y-196I1141J0D01*
G74*
G01*
X944Y24212D02*
X17362Y24212D01*
X-196Y944D02*
X-196Y23070D01*
X17362Y-196D02*
X944Y-196D01*
X18503Y23070D02*
X18503Y944D01*
X17362Y-196D02*
G75*
G03X18503Y944I0J1141D01*
G74*
G01*
X944Y24212D02*
G75*
G03X-196Y23070I0J-1141D01*
G74*
G01*
X18503Y23070D02*
G75*
G03X17362Y24212I-1141J0D01*
G74*
G01*
G54D15*
G36*
X14105Y13696D02*
X14104Y13693D01*
X14103Y13691D01*
X14103Y13691D01*
X14093Y13684D01*
X14088Y13683D01*
X14085Y13688D01*
X14075Y13704D01*
X14059Y13730D01*
X14038Y13764D01*
X14012Y13807D01*
X13981Y13858D01*
X13946Y13915D01*
X13908Y13979D01*
X13866Y14049D01*
X13821Y14123D01*
X13774Y14202D01*
X13724Y14285D01*
X13686Y14349D01*
X13635Y14434D01*
X13586Y14515D01*
X13539Y14593D01*
X13495Y14667D01*
X13454Y14735D01*
X13416Y14797D01*
X13382Y14853D01*
X13352Y14902D01*
X13327Y14943D01*
X13308Y14975D01*
X13293Y14999D01*
X13285Y15012D01*
X13282Y15015D01*
X13279Y15010D01*
X13269Y14994D01*
X13253Y14969D01*
X13231Y14935D01*
X13204Y14892D01*
X13173Y14842D01*
X13137Y14785D01*
X13097Y14722D01*
X13054Y14653D01*
X13007Y14579D01*
X12958Y14501D01*
X12907Y14419D01*
X12863Y14349D01*
X12810Y14265D01*
X12760Y14183D01*
X12711Y14106D01*
X12665Y14033D01*
X12623Y13965D01*
X12584Y13903D01*
X12549Y13847D01*
X12518Y13798D01*
X12492Y13757D01*
X12472Y13724D01*
X12457Y13701D01*
X12448Y13687D01*
X12445Y13683D01*
X12439Y13685D01*
X12433Y13687D01*
X12423Y13693D01*
X12421Y13698D01*
X12423Y13704D01*
X12428Y13723D01*
X12436Y13753D01*
X12447Y13794D01*
X12461Y13845D01*
X12477Y13906D01*
X12496Y13976D01*
X12518Y14055D01*
X12542Y14143D01*
X12568Y14238D01*
X12595Y14340D01*
X12625Y14448D01*
X12656Y14563D01*
X12689Y14683D01*
X12724Y14809D01*
X12759Y14939D01*
X12796Y15072D01*
X12833Y15210D01*
X12851Y15274D01*
X12900Y15453D01*
X12947Y15622D01*
X12990Y15781D01*
X13031Y15930D01*
X13069Y16067D01*
X13104Y16194D01*
X13136Y16309D01*
X13165Y16414D01*
X13191Y16507D01*
X13214Y16588D01*
X13234Y16658D01*
X13251Y16717D01*
X13264Y16764D01*
X13273Y16798D01*
X13280Y16821D01*
X13284Y16831D01*
X13285Y16831D01*
X13287Y16824D01*
X13292Y16805D01*
X13300Y16775D01*
X13311Y16734D01*
X13325Y16682D01*
X13341Y16620D01*
X13360Y16550D01*
X13381Y16470D01*
X13405Y16383D01*
X13430Y16287D01*
X13457Y16185D01*
X13486Y16076D01*
X13516Y15961D01*
X13548Y15840D01*
X13581Y15714D01*
X13616Y15584D01*
X13651Y15450D01*
X13688Y15313D01*
X13702Y15259D01*
X13745Y15095D01*
X13786Y14942D01*
X13823Y14800D01*
X13858Y14669D01*
X13889Y14549D01*
X13918Y14440D01*
X13945Y14340D01*
X13968Y14249D01*
X13990Y14167D01*
X14009Y14094D01*
X14026Y14028D01*
X14041Y13970D01*
X14054Y13919D01*
X14065Y13875D01*
X14075Y13837D01*
X14083Y13804D01*
X14089Y13777D01*
X14094Y13754D01*
X14098Y13736D01*
X14101Y13721D01*
X14103Y13710D01*
X14104Y13702D01*
X14105Y13696D01*
X14105Y13696D01*
X14105Y13696D01*
G37*
G36*
X4294Y19442D02*
X4294Y19419D01*
X4291Y19400D01*
X4285Y19384D01*
X4275Y19369D01*
X4267Y19360D01*
X4249Y19346D01*
X4233Y19338D01*
X4228Y19337D01*
X4228Y19433D01*
X4227Y19451D01*
X4222Y19467D01*
X4215Y19480D01*
X4206Y19489D01*
X4205Y19489D01*
X4190Y19493D01*
X4176Y19492D01*
X4162Y19486D01*
X4152Y19476D01*
X4151Y19474D01*
X4145Y19458D01*
X4143Y19440D01*
X4144Y19422D01*
X4148Y19405D01*
X4155Y19392D01*
X4160Y19387D01*
X4173Y19380D01*
X4187Y19378D01*
X4201Y19381D01*
X4212Y19388D01*
X4220Y19400D01*
X4226Y19416D01*
X4228Y19433D01*
X4228Y19337D01*
X4217Y19334D01*
X4198Y19331D01*
X4178Y19331D01*
X4161Y19332D01*
X4157Y19332D01*
X4134Y19340D01*
X4113Y19352D01*
X4097Y19368D01*
X4087Y19382D01*
X4079Y19404D01*
X4076Y19427D01*
X4076Y19451D01*
X4081Y19474D01*
X4090Y19495D01*
X4103Y19511D01*
X4106Y19514D01*
X4121Y19525D01*
X4139Y19533D01*
X4159Y19538D01*
X4178Y19539D01*
X4207Y19538D01*
X4232Y19533D01*
X4253Y19523D01*
X4270Y19508D01*
X4282Y19491D01*
X4287Y19481D01*
X4291Y19472D01*
X4292Y19461D01*
X4294Y19447D01*
X4294Y19442D01*
X4294Y19442D01*
X4294Y19442D01*
G37*
G36*
X4802Y19418D02*
X4735Y19418D01*
X4735Y19461D01*
X4734Y19466D01*
X4731Y19474D01*
X4731Y19476D01*
X4723Y19487D01*
X4712Y19494D01*
X4698Y19497D01*
X4685Y19495D01*
X4672Y19490D01*
X4662Y19480D01*
X4658Y19472D01*
X4655Y19465D01*
X4653Y19460D01*
X4653Y19459D01*
X4656Y19459D01*
X4664Y19458D01*
X4677Y19458D01*
X4692Y19458D01*
X4694Y19458D01*
X4713Y19458D01*
X4726Y19459D01*
X4734Y19460D01*
X4735Y19461D01*
X4735Y19418D01*
X4727Y19418D01*
X4703Y19418D01*
X4684Y19418D01*
X4670Y19417D01*
X4660Y19416D01*
X4655Y19415D01*
X4653Y19412D01*
X4653Y19408D01*
X4656Y19403D01*
X4658Y19398D01*
X4666Y19387D01*
X4678Y19380D01*
X4694Y19376D01*
X4709Y19375D01*
X4737Y19378D01*
X4762Y19385D01*
X4778Y19392D01*
X4791Y19398D01*
X4791Y19373D01*
X4791Y19347D01*
X4774Y19341D01*
X4742Y19334D01*
X4709Y19330D01*
X4679Y19332D01*
X4666Y19334D01*
X4641Y19342D01*
X4620Y19355D01*
X4605Y19372D01*
X4594Y19394D01*
X4588Y19419D01*
X4587Y19436D01*
X4590Y19464D01*
X4598Y19487D01*
X4611Y19507D01*
X4630Y19522D01*
X4643Y19530D01*
X4652Y19534D01*
X4661Y19536D01*
X4671Y19538D01*
X4684Y19538D01*
X4696Y19538D01*
X4718Y19537D01*
X4736Y19535D01*
X4750Y19529D01*
X4763Y19521D01*
X4772Y19512D01*
X4786Y19495D01*
X4795Y19476D01*
X4800Y19453D01*
X4800Y19444D01*
X4802Y19418D01*
X4802Y19418D01*
X4802Y19418D01*
G37*
G36*
X5460Y19336D02*
X5427Y19336D01*
X5394Y19336D01*
X5394Y19350D01*
X5394Y19364D01*
X5393Y19363D01*
X5393Y19427D01*
X5392Y19444D01*
X5390Y19461D01*
X5385Y19474D01*
X5377Y19483D01*
X5366Y19490D01*
X5353Y19494D01*
X5351Y19494D01*
X5339Y19491D01*
X5328Y19484D01*
X5319Y19475D01*
X5316Y19466D01*
X5313Y19452D01*
X5312Y19436D01*
X5312Y19421D01*
X5314Y19408D01*
X5314Y19407D01*
X5322Y19394D01*
X5333Y19384D01*
X5345Y19379D01*
X5359Y19379D01*
X5372Y19383D01*
X5377Y19388D01*
X5384Y19397D01*
X5389Y19409D01*
X5390Y19412D01*
X5393Y19427D01*
X5393Y19363D01*
X5381Y19351D01*
X5363Y19338D01*
X5343Y19331D01*
X5321Y19330D01*
X5308Y19333D01*
X5290Y19340D01*
X5274Y19353D01*
X5261Y19369D01*
X5252Y19389D01*
X5246Y19411D01*
X5243Y19434D01*
X5245Y19457D01*
X5251Y19480D01*
X5261Y19500D01*
X5269Y19512D01*
X5286Y19527D01*
X5303Y19536D01*
X5324Y19540D01*
X5329Y19540D01*
X5349Y19538D01*
X5365Y19532D01*
X5381Y19521D01*
X5382Y19520D01*
X5394Y19510D01*
X5394Y19561D01*
X5394Y19612D01*
X5427Y19612D01*
X5460Y19612D01*
X5460Y19474D01*
X5460Y19336D01*
X5460Y19336D01*
X5460Y19336D01*
G37*
G36*
X5947Y19336D02*
X5914Y19336D01*
X5881Y19336D01*
X5881Y19349D01*
X5881Y19363D01*
X5881Y19420D01*
X5881Y19421D01*
X5878Y19423D01*
X5870Y19424D01*
X5859Y19425D01*
X5847Y19425D01*
X5835Y19423D01*
X5826Y19421D01*
X5822Y19420D01*
X5813Y19413D01*
X5809Y19404D01*
X5808Y19396D01*
X5811Y19387D01*
X5819Y19380D01*
X5829Y19376D01*
X5842Y19375D01*
X5854Y19378D01*
X5864Y19384D01*
X5872Y19394D01*
X5878Y19407D01*
X5881Y19420D01*
X5881Y19363D01*
X5866Y19349D01*
X5847Y19337D01*
X5826Y19331D01*
X5803Y19331D01*
X5793Y19332D01*
X5774Y19340D01*
X5760Y19352D01*
X5749Y19368D01*
X5744Y19386D01*
X5743Y19405D01*
X5748Y19424D01*
X5749Y19427D01*
X5759Y19440D01*
X5773Y19451D01*
X5792Y19458D01*
X5816Y19462D01*
X5846Y19464D01*
X5850Y19464D01*
X5881Y19464D01*
X5879Y19473D01*
X5876Y19481D01*
X5874Y19486D01*
X5866Y19491D01*
X5853Y19495D01*
X5837Y19496D01*
X5819Y19496D01*
X5801Y19494D01*
X5784Y19490D01*
X5776Y19487D01*
X5759Y19481D01*
X5759Y19505D01*
X5759Y19530D01*
X5771Y19533D01*
X5779Y19535D01*
X5792Y19536D01*
X5808Y19538D01*
X5826Y19539D01*
X5827Y19539D01*
X5853Y19539D01*
X5875Y19538D01*
X5892Y19534D01*
X5906Y19529D01*
X5918Y19520D01*
X5919Y19519D01*
X5927Y19512D01*
X5933Y19505D01*
X5937Y19496D01*
X5941Y19486D01*
X5943Y19473D01*
X5944Y19456D01*
X5945Y19434D01*
X5946Y19407D01*
X5947Y19336D01*
X5947Y19336D01*
X5947Y19336D01*
G37*
G36*
X6426Y19503D02*
X6426Y19491D01*
X6425Y19482D01*
X6424Y19478D01*
X6424Y19478D01*
X6399Y19489D01*
X6377Y19493D01*
X6358Y19492D01*
X6345Y19487D01*
X6332Y19477D01*
X6323Y19464D01*
X6319Y19447D01*
X6318Y19434D01*
X6320Y19415D01*
X6327Y19400D01*
X6338Y19389D01*
X6341Y19386D01*
X6354Y19381D01*
X6370Y19379D01*
X6387Y19379D01*
X6404Y19383D01*
X6409Y19385D01*
X6418Y19389D01*
X6424Y19391D01*
X6425Y19392D01*
X6426Y19389D01*
X6426Y19381D01*
X6426Y19369D01*
X6426Y19366D01*
X6425Y19341D01*
X6410Y19337D01*
X6393Y19333D01*
X6374Y19331D01*
X6354Y19331D01*
X6336Y19332D01*
X6334Y19332D01*
X6310Y19340D01*
X6288Y19352D01*
X6270Y19369D01*
X6258Y19388D01*
X6255Y19397D01*
X6252Y19407D01*
X6251Y19419D01*
X6251Y19436D01*
X6251Y19452D01*
X6252Y19463D01*
X6254Y19472D01*
X6257Y19480D01*
X6260Y19486D01*
X6274Y19507D01*
X6294Y19523D01*
X6308Y19531D01*
X6316Y19534D01*
X6325Y19536D01*
X6336Y19537D01*
X6351Y19538D01*
X6363Y19538D01*
X6383Y19538D01*
X6400Y19537D01*
X6412Y19534D01*
X6414Y19534D01*
X6426Y19530D01*
X6426Y19503D01*
X6426Y19503D01*
X6426Y19503D01*
G37*
G36*
X6681Y19418D02*
X6614Y19418D01*
X6614Y19461D01*
X6611Y19471D01*
X6605Y19481D01*
X6598Y19490D01*
X6594Y19492D01*
X6579Y19497D01*
X6564Y19495D01*
X6550Y19489D01*
X6539Y19478D01*
X6533Y19465D01*
X6533Y19462D01*
X6533Y19460D01*
X6536Y19459D01*
X6543Y19458D01*
X6553Y19458D01*
X6570Y19458D01*
X6572Y19458D01*
X6591Y19458D01*
X6604Y19459D01*
X6612Y19460D01*
X6614Y19461D01*
X6614Y19418D01*
X6606Y19418D01*
X6531Y19418D01*
X6533Y19409D01*
X6538Y19395D01*
X6546Y19385D01*
X6558Y19379D01*
X6574Y19376D01*
X6595Y19376D01*
X6612Y19377D01*
X6625Y19379D01*
X6636Y19383D01*
X6648Y19388D01*
X6670Y19398D01*
X6670Y19373D01*
X6670Y19347D01*
X6652Y19341D01*
X6617Y19333D01*
X6583Y19330D01*
X6551Y19333D01*
X6545Y19334D01*
X6519Y19342D01*
X6499Y19355D01*
X6483Y19372D01*
X6473Y19393D01*
X6467Y19418D01*
X6466Y19427D01*
X6467Y19452D01*
X6471Y19474D01*
X6479Y19492D01*
X6491Y19507D01*
X6505Y19520D01*
X6520Y19529D01*
X6537Y19535D01*
X6557Y19538D01*
X6574Y19538D01*
X6597Y19537D01*
X6614Y19535D01*
X6628Y19529D01*
X6641Y19521D01*
X6651Y19512D01*
X6665Y19495D01*
X6673Y19476D01*
X6678Y19453D01*
X6679Y19444D01*
X6681Y19418D01*
X6681Y19418D01*
X6681Y19418D01*
G37*
G36*
X6930Y19336D02*
X6897Y19336D01*
X6864Y19336D01*
X6864Y19349D01*
X6864Y19363D01*
X6862Y19361D01*
X6862Y19438D01*
X6860Y19459D01*
X6854Y19475D01*
X6844Y19486D01*
X6830Y19491D01*
X6821Y19492D01*
X6806Y19490D01*
X6795Y19483D01*
X6787Y19470D01*
X6783Y19452D01*
X6782Y19434D01*
X6783Y19413D01*
X6788Y19397D01*
X6797Y19386D01*
X6810Y19380D01*
X6823Y19379D01*
X6838Y19381D01*
X6845Y19385D01*
X6854Y19397D01*
X6860Y19413D01*
X6862Y19436D01*
X6862Y19438D01*
X6862Y19361D01*
X6849Y19350D01*
X6831Y19338D01*
X6811Y19331D01*
X6791Y19330D01*
X6778Y19332D01*
X6758Y19342D01*
X6740Y19357D01*
X6726Y19376D01*
X6720Y19390D01*
X6716Y19406D01*
X6714Y19426D01*
X6714Y19447D01*
X6716Y19466D01*
X6720Y19482D01*
X6721Y19485D01*
X6733Y19505D01*
X6745Y19520D01*
X6761Y19531D01*
X6763Y19531D01*
X6784Y19539D01*
X6806Y19540D01*
X6828Y19534D01*
X6848Y19523D01*
X6853Y19519D01*
X6864Y19510D01*
X6864Y19561D01*
X6864Y19612D01*
X6897Y19612D01*
X6930Y19612D01*
X6930Y19474D01*
X6930Y19336D01*
X6930Y19336D01*
X6930Y19336D01*
G37*
G36*
X7331Y19349D02*
X7314Y19343D01*
X7282Y19334D01*
X7251Y19330D01*
X7218Y19332D01*
X7213Y19333D01*
X7186Y19341D01*
X7162Y19354D01*
X7140Y19372D01*
X7122Y19394D01*
X7115Y19408D01*
X7111Y19416D01*
X7108Y19424D01*
X7107Y19432D01*
X7106Y19443D01*
X7106Y19458D01*
X7106Y19468D01*
X7106Y19486D01*
X7107Y19500D01*
X7108Y19510D01*
X7111Y19519D01*
X7114Y19527D01*
X7126Y19551D01*
X7145Y19571D01*
X7168Y19588D01*
X7175Y19591D01*
X7187Y19597D01*
X7197Y19601D01*
X7207Y19603D01*
X7219Y19604D01*
X7235Y19605D01*
X7265Y19605D01*
X7290Y19602D01*
X7311Y19596D01*
X7319Y19592D01*
X7331Y19586D01*
X7331Y19560D01*
X7331Y19547D01*
X7331Y19538D01*
X7330Y19534D01*
X7330Y19533D01*
X7327Y19535D01*
X7319Y19538D01*
X7308Y19543D01*
X7306Y19544D01*
X7294Y19549D01*
X7283Y19553D01*
X7272Y19554D01*
X7258Y19555D01*
X7256Y19555D01*
X7241Y19554D01*
X7230Y19553D01*
X7222Y19551D01*
X7214Y19547D01*
X7198Y19534D01*
X7186Y19518D01*
X7180Y19498D01*
X7177Y19473D01*
X7177Y19461D01*
X7180Y19437D01*
X7187Y19418D01*
X7198Y19403D01*
X7210Y19393D01*
X7217Y19388D01*
X7224Y19386D01*
X7232Y19384D01*
X7243Y19384D01*
X7255Y19384D01*
X7269Y19384D01*
X7279Y19384D01*
X7288Y19386D01*
X7297Y19389D01*
X7309Y19394D01*
X7324Y19402D01*
X7329Y19404D01*
X7330Y19402D01*
X7331Y19394D01*
X7331Y19383D01*
X7331Y19377D01*
X7331Y19349D01*
X7331Y19349D01*
X7331Y19349D01*
G37*
G36*
X7588Y19442D02*
X7587Y19417D01*
X7583Y19396D01*
X7575Y19379D01*
X7562Y19363D01*
X7560Y19360D01*
X7543Y19346D01*
X7527Y19338D01*
X7520Y19336D01*
X7520Y19435D01*
X7518Y19457D01*
X7513Y19474D01*
X7503Y19486D01*
X7490Y19493D01*
X7479Y19494D01*
X7464Y19491D01*
X7452Y19482D01*
X7443Y19469D01*
X7438Y19452D01*
X7437Y19438D01*
X7439Y19415D01*
X7444Y19398D01*
X7454Y19386D01*
X7467Y19380D01*
X7479Y19379D01*
X7490Y19380D01*
X7500Y19383D01*
X7502Y19384D01*
X7511Y19393D01*
X7517Y19407D01*
X7520Y19425D01*
X7520Y19435D01*
X7520Y19336D01*
X7507Y19333D01*
X7485Y19331D01*
X7462Y19331D01*
X7447Y19334D01*
X7428Y19339D01*
X7413Y19347D01*
X7400Y19358D01*
X7397Y19361D01*
X7382Y19380D01*
X7373Y19402D01*
X7369Y19425D01*
X7369Y19449D01*
X7374Y19472D01*
X7383Y19493D01*
X7397Y19511D01*
X7407Y19520D01*
X7428Y19531D01*
X7452Y19538D01*
X7479Y19540D01*
X7509Y19537D01*
X7533Y19530D01*
X7554Y19518D01*
X7570Y19501D01*
X7580Y19480D01*
X7587Y19455D01*
X7588Y19442D01*
X7588Y19442D01*
X7588Y19442D01*
G37*
G36*
X8453Y19419D02*
X8450Y19400D01*
X8444Y19384D01*
X8434Y19369D01*
X8426Y19360D01*
X8408Y19346D01*
X8393Y19338D01*
X8387Y19337D01*
X8387Y19433D01*
X8386Y19451D01*
X8382Y19467D01*
X8375Y19480D01*
X8365Y19489D01*
X8365Y19489D01*
X8350Y19493D01*
X8335Y19492D01*
X8322Y19486D01*
X8312Y19476D01*
X8310Y19474D01*
X8305Y19458D01*
X8303Y19440D01*
X8304Y19422D01*
X8308Y19405D01*
X8315Y19392D01*
X8320Y19387D01*
X8332Y19380D01*
X8347Y19378D01*
X8361Y19381D01*
X8371Y19388D01*
X8380Y19400D01*
X8385Y19416D01*
X8387Y19433D01*
X8387Y19337D01*
X8377Y19334D01*
X8357Y19331D01*
X8338Y19331D01*
X8321Y19332D01*
X8317Y19332D01*
X8293Y19340D01*
X8273Y19352D01*
X8256Y19368D01*
X8246Y19382D01*
X8239Y19404D01*
X8235Y19427D01*
X8236Y19451D01*
X8241Y19474D01*
X8250Y19495D01*
X8263Y19511D01*
X8265Y19514D01*
X8281Y19525D01*
X8298Y19533D01*
X8318Y19538D01*
X8337Y19539D01*
X8367Y19538D01*
X8392Y19533D01*
X8413Y19523D01*
X8430Y19508D01*
X8442Y19491D01*
X8447Y19481D01*
X8450Y19472D01*
X8452Y19461D01*
X8453Y19447D01*
X8453Y19442D01*
X8453Y19419D01*
X8453Y19419D01*
X8453Y19419D01*
G37*
G36*
X8951Y19418D02*
X8885Y19418D01*
X8885Y19463D01*
X8882Y19474D01*
X8874Y19485D01*
X8863Y19493D01*
X8850Y19497D01*
X8847Y19497D01*
X8831Y19495D01*
X8819Y19487D01*
X8809Y19473D01*
X8806Y19466D01*
X8803Y19458D01*
X8844Y19458D01*
X8861Y19458D01*
X8873Y19458D01*
X8880Y19459D01*
X8884Y19460D01*
X8885Y19462D01*
X8885Y19463D01*
X8885Y19418D01*
X8877Y19418D01*
X8850Y19418D01*
X8829Y19418D01*
X8815Y19417D01*
X8806Y19416D01*
X8803Y19415D01*
X8803Y19414D01*
X8805Y19406D01*
X8811Y19396D01*
X8818Y19386D01*
X8824Y19381D01*
X8832Y19378D01*
X8842Y19376D01*
X8856Y19375D01*
X8860Y19375D01*
X8878Y19376D01*
X8895Y19379D01*
X8914Y19385D01*
X8935Y19393D01*
X8938Y19394D01*
X8940Y19392D01*
X8941Y19386D01*
X8941Y19375D01*
X8941Y19371D01*
X8941Y19347D01*
X8924Y19341D01*
X8890Y19334D01*
X8858Y19330D01*
X8828Y19331D01*
X8819Y19333D01*
X8794Y19341D01*
X8773Y19353D01*
X8756Y19371D01*
X8745Y19392D01*
X8738Y19417D01*
X8737Y19436D01*
X8740Y19462D01*
X8748Y19486D01*
X8761Y19506D01*
X8778Y19522D01*
X8794Y19530D01*
X8814Y19536D01*
X8837Y19539D01*
X8861Y19539D01*
X8882Y19536D01*
X8890Y19533D01*
X8911Y19522D01*
X8929Y19506D01*
X8941Y19485D01*
X8949Y19462D01*
X8951Y19439D01*
X8951Y19418D01*
X8951Y19418D01*
X8951Y19418D01*
G37*
G36*
X3858Y19469D02*
X3858Y19452D01*
X3857Y19439D01*
X3856Y19430D01*
X3854Y19422D01*
X3851Y19413D01*
X3849Y19409D01*
X3836Y19388D01*
X3818Y19369D01*
X3798Y19354D01*
X3794Y19352D01*
X3788Y19350D01*
X3788Y19469D01*
X3786Y19493D01*
X3779Y19513D01*
X3768Y19528D01*
X3752Y19539D01*
X3731Y19546D01*
X3706Y19549D01*
X3679Y19551D01*
X3679Y19469D01*
X3679Y19388D01*
X3708Y19389D01*
X3728Y19391D01*
X3743Y19395D01*
X3750Y19398D01*
X3766Y19409D01*
X3778Y19424D01*
X3785Y19442D01*
X3788Y19465D01*
X3788Y19469D01*
X3788Y19350D01*
X3780Y19346D01*
X3762Y19342D01*
X3740Y19339D01*
X3713Y19337D01*
X3680Y19336D01*
X3670Y19336D01*
X3610Y19336D01*
X3610Y19470D01*
X3610Y19603D01*
X3681Y19602D01*
X3708Y19601D01*
X3729Y19600D01*
X3745Y19599D01*
X3757Y19597D01*
X3767Y19595D01*
X3771Y19594D01*
X3798Y19583D01*
X3820Y19567D01*
X3838Y19547D01*
X3849Y19527D01*
X3853Y19519D01*
X3856Y19511D01*
X3857Y19502D01*
X3858Y19490D01*
X3858Y19474D01*
X3858Y19469D01*
X3858Y19469D01*
X3858Y19469D01*
G37*
G36*
X4060Y19495D02*
X4060Y19487D01*
X4059Y19483D01*
X4057Y19482D01*
X4055Y19482D01*
X4049Y19484D01*
X4038Y19485D01*
X4029Y19486D01*
X4011Y19485D01*
X3997Y19480D01*
X3987Y19469D01*
X3981Y19460D01*
X3979Y19454D01*
X3977Y19447D01*
X3976Y19438D01*
X3975Y19426D01*
X3975Y19409D01*
X3975Y19391D01*
X3975Y19336D01*
X3942Y19336D01*
X3909Y19336D01*
X3909Y19436D01*
X3909Y19537D01*
X3942Y19537D01*
X3975Y19537D01*
X3975Y19522D01*
X3975Y19507D01*
X3988Y19520D01*
X4004Y19532D01*
X4021Y19538D01*
X4042Y19539D01*
X4042Y19539D01*
X4059Y19538D01*
X4060Y19509D01*
X4060Y19495D01*
X4060Y19495D01*
X4060Y19495D01*
G37*
G36*
X4545Y19336D02*
X4512Y19336D01*
X4479Y19336D01*
X4478Y19391D01*
X4478Y19420D01*
X4477Y19442D01*
X4475Y19460D01*
X4473Y19472D01*
X4469Y19481D01*
X4463Y19487D01*
X4456Y19490D01*
X4447Y19491D01*
X4446Y19491D01*
X4432Y19488D01*
X4421Y19480D01*
X4412Y19466D01*
X4410Y19460D01*
X4409Y19453D01*
X4407Y19445D01*
X4407Y19433D01*
X4406Y19416D01*
X4406Y19394D01*
X4406Y19336D01*
X4373Y19336D01*
X4340Y19336D01*
X4340Y19436D01*
X4340Y19537D01*
X4373Y19537D01*
X4406Y19537D01*
X4406Y19523D01*
X4406Y19510D01*
X4417Y19519D01*
X4435Y19530D01*
X4455Y19538D01*
X4476Y19540D01*
X4495Y19538D01*
X4503Y19535D01*
X4515Y19528D01*
X4526Y19516D01*
X4535Y19502D01*
X4538Y19495D01*
X4539Y19488D01*
X4540Y19475D01*
X4542Y19458D01*
X4543Y19438D01*
X4543Y19415D01*
X4544Y19409D01*
X4545Y19336D01*
X4545Y19336D01*
X4545Y19336D01*
G37*
G36*
X5225Y19339D02*
X5223Y19337D01*
X5218Y19336D01*
X5209Y19336D01*
X5195Y19336D01*
X5191Y19337D01*
X5156Y19337D01*
X5148Y19361D01*
X5140Y19385D01*
X5120Y19385D01*
X5120Y19437D01*
X5119Y19441D01*
X5117Y19450D01*
X5112Y19463D01*
X5107Y19478D01*
X5103Y19488D01*
X5086Y19537D01*
X5069Y19487D01*
X5063Y19470D01*
X5058Y19455D01*
X5054Y19444D01*
X5052Y19437D01*
X5051Y19435D01*
X5054Y19435D01*
X5063Y19435D01*
X5075Y19435D01*
X5086Y19435D01*
X5100Y19435D01*
X5111Y19435D01*
X5119Y19436D01*
X5120Y19437D01*
X5120Y19385D01*
X5086Y19384D01*
X5033Y19384D01*
X5025Y19360D01*
X5017Y19336D01*
X4981Y19336D01*
X4946Y19336D01*
X4950Y19345D01*
X4951Y19350D01*
X4955Y19360D01*
X4961Y19376D01*
X4968Y19395D01*
X4976Y19417D01*
X4986Y19442D01*
X4996Y19469D01*
X4997Y19472D01*
X5007Y19499D01*
X5016Y19524D01*
X5024Y19546D01*
X5031Y19565D01*
X5037Y19581D01*
X5041Y19591D01*
X5043Y19596D01*
X5043Y19597D01*
X5045Y19599D01*
X5048Y19601D01*
X5054Y19602D01*
X5064Y19602D01*
X5078Y19602D01*
X5087Y19602D01*
X5129Y19601D01*
X5176Y19474D01*
X5186Y19446D01*
X5195Y19421D01*
X5204Y19397D01*
X5211Y19377D01*
X5217Y19361D01*
X5222Y19349D01*
X5224Y19342D01*
X5224Y19341D01*
X5225Y19339D01*
X5225Y19339D01*
X5225Y19339D01*
G37*
G36*
X5722Y19535D02*
X5683Y19436D01*
X5644Y19337D01*
X5609Y19337D01*
X5572Y19336D01*
X5534Y19434D01*
X5525Y19458D01*
X5516Y19480D01*
X5509Y19499D01*
X5503Y19515D01*
X5498Y19526D01*
X5496Y19533D01*
X5496Y19534D01*
X5499Y19535D01*
X5507Y19536D01*
X5519Y19536D01*
X5527Y19536D01*
X5559Y19535D01*
X5582Y19472D01*
X5589Y19453D01*
X5595Y19436D01*
X5600Y19421D01*
X5604Y19411D01*
X5606Y19405D01*
X5606Y19405D01*
X5608Y19406D01*
X5611Y19413D01*
X5616Y19425D01*
X5622Y19440D01*
X5629Y19459D01*
X5632Y19467D01*
X5640Y19487D01*
X5646Y19504D01*
X5651Y19519D01*
X5656Y19529D01*
X5658Y19535D01*
X5658Y19536D01*
X5662Y19536D01*
X5670Y19536D01*
X5683Y19536D01*
X5691Y19536D01*
X5722Y19535D01*
X5722Y19535D01*
X5722Y19535D01*
G37*
G36*
X6207Y19336D02*
X6174Y19336D01*
X6141Y19336D01*
X6140Y19405D01*
X6140Y19428D01*
X6139Y19445D01*
X6139Y19458D01*
X6138Y19466D01*
X6137Y19472D01*
X6135Y19477D01*
X6133Y19480D01*
X6131Y19482D01*
X6121Y19489D01*
X6108Y19490D01*
X6095Y19487D01*
X6084Y19480D01*
X6076Y19470D01*
X6074Y19465D01*
X6072Y19458D01*
X6071Y19449D01*
X6070Y19436D01*
X6069Y19418D01*
X6069Y19397D01*
X6068Y19336D01*
X6035Y19336D01*
X6003Y19336D01*
X6003Y19435D01*
X6004Y19535D01*
X6036Y19536D01*
X6068Y19537D01*
X6068Y19523D01*
X6068Y19510D01*
X6079Y19519D01*
X6099Y19532D01*
X6121Y19539D01*
X6135Y19540D01*
X6155Y19538D01*
X6171Y19532D01*
X6184Y19521D01*
X6190Y19514D01*
X6195Y19507D01*
X6199Y19499D01*
X6201Y19490D01*
X6203Y19477D01*
X6205Y19461D01*
X6205Y19440D01*
X6206Y19414D01*
X6206Y19411D01*
X6207Y19336D01*
X6207Y19336D01*
X6207Y19336D01*
G37*
G36*
X7835Y19336D02*
X7804Y19336D01*
X7772Y19336D01*
X7772Y19381D01*
X7772Y19411D01*
X7771Y19434D01*
X7770Y19453D01*
X7768Y19467D01*
X7765Y19476D01*
X7761Y19482D01*
X7760Y19484D01*
X7749Y19489D01*
X7736Y19490D01*
X7724Y19487D01*
X7720Y19485D01*
X7713Y19479D01*
X7708Y19472D01*
X7705Y19463D01*
X7702Y19450D01*
X7701Y19433D01*
X7700Y19411D01*
X7700Y19394D01*
X7700Y19336D01*
X7667Y19336D01*
X7634Y19336D01*
X7634Y19436D01*
X7634Y19537D01*
X7667Y19537D01*
X7700Y19537D01*
X7700Y19523D01*
X7700Y19510D01*
X7713Y19521D01*
X7731Y19533D01*
X7752Y19539D01*
X7776Y19539D01*
X7795Y19535D01*
X7812Y19525D01*
X7824Y19510D01*
X7827Y19505D01*
X7829Y19500D01*
X7831Y19495D01*
X7832Y19488D01*
X7833Y19479D01*
X7833Y19466D01*
X7834Y19449D01*
X7834Y19427D01*
X7834Y19414D01*
X7835Y19336D01*
X7835Y19336D01*
X7835Y19336D01*
G37*
G36*
X8033Y19491D02*
X8000Y19491D01*
X7967Y19491D01*
X7967Y19442D01*
X7967Y19424D01*
X7967Y19409D01*
X7968Y19397D01*
X7969Y19390D01*
X7970Y19389D01*
X7974Y19386D01*
X7983Y19384D01*
X7998Y19382D01*
X7999Y19382D01*
X8026Y19381D01*
X8026Y19358D01*
X8026Y19336D01*
X7987Y19336D01*
X7965Y19337D01*
X7948Y19338D01*
X7936Y19341D01*
X7935Y19341D01*
X7920Y19349D01*
X7909Y19363D01*
X7904Y19374D01*
X7903Y19382D01*
X7902Y19395D01*
X7901Y19411D01*
X7901Y19429D01*
X7901Y19439D01*
X7901Y19491D01*
X7884Y19491D01*
X7868Y19491D01*
X7868Y19514D01*
X7868Y19537D01*
X7884Y19537D01*
X7901Y19537D01*
X7901Y19565D01*
X7901Y19593D01*
X7934Y19593D01*
X7967Y19593D01*
X7967Y19565D01*
X7967Y19537D01*
X7999Y19536D01*
X8031Y19535D01*
X8032Y19513D01*
X8033Y19491D01*
X8033Y19491D01*
X8033Y19491D01*
G37*
G36*
X8220Y19495D02*
X8220Y19487D01*
X8219Y19483D01*
X8217Y19482D01*
X8214Y19482D01*
X8208Y19484D01*
X8198Y19485D01*
X8189Y19486D01*
X8171Y19485D01*
X8157Y19480D01*
X8146Y19469D01*
X8141Y19460D01*
X8139Y19454D01*
X8137Y19447D01*
X8136Y19438D01*
X8135Y19426D01*
X8135Y19409D01*
X8135Y19391D01*
X8135Y19336D01*
X8102Y19336D01*
X8069Y19336D01*
X8069Y19436D01*
X8069Y19537D01*
X8102Y19537D01*
X8135Y19537D01*
X8135Y19522D01*
X8135Y19507D01*
X8147Y19520D01*
X8163Y19532D01*
X8181Y19538D01*
X8202Y19539D01*
X8202Y19539D01*
X8218Y19538D01*
X8219Y19509D01*
X8220Y19495D01*
X8220Y19495D01*
X8220Y19495D01*
G37*
G36*
X8566Y19336D02*
X8533Y19336D01*
X8500Y19336D01*
X8500Y19474D01*
X8500Y19612D01*
X8533Y19612D01*
X8566Y19612D01*
X8566Y19474D01*
X8566Y19336D01*
X8566Y19336D01*
X8566Y19336D01*
G37*
G36*
X8691Y19336D02*
X8658Y19336D01*
X8625Y19336D01*
X8625Y19474D01*
X8625Y19612D01*
X8658Y19612D01*
X8691Y19612D01*
X8691Y19474D01*
X8691Y19336D01*
X8691Y19336D01*
X8691Y19336D01*
G37*
G36*
X9148Y19510D02*
X9148Y19496D01*
X9148Y19487D01*
X9147Y19483D01*
X9145Y19482D01*
X9143Y19482D01*
X9130Y19485D01*
X9116Y19486D01*
X9101Y19485D01*
X9090Y19482D01*
X9089Y19482D01*
X9081Y19477D01*
X9075Y19470D01*
X9070Y19462D01*
X9067Y19450D01*
X9065Y19435D01*
X9064Y19414D01*
X9063Y19393D01*
X9062Y19336D01*
X9031Y19336D01*
X9000Y19336D01*
X9000Y19436D01*
X9000Y19537D01*
X9031Y19537D01*
X9063Y19537D01*
X9063Y19521D01*
X9063Y19506D01*
X9075Y19518D01*
X9092Y19531D01*
X9111Y19538D01*
X9130Y19540D01*
X9148Y19540D01*
X9148Y19510D01*
X9148Y19510D01*
X9148Y19510D01*
G37*
G36*
X4824Y20100D02*
X4823Y20086D01*
X4818Y20068D01*
X4814Y20056D01*
X4806Y20039D01*
X4796Y20024D01*
X4783Y20009D01*
X4767Y19996D01*
X4747Y19982D01*
X4722Y19969D01*
X4692Y19954D01*
X4660Y19940D01*
X4641Y19932D01*
X4623Y19923D01*
X4606Y19916D01*
X4594Y19910D01*
X4587Y19907D01*
X4555Y19887D01*
X4525Y19862D01*
X4497Y19831D01*
X4496Y19830D01*
X4478Y19808D01*
X4458Y19786D01*
X4438Y19765D01*
X4418Y19746D01*
X4399Y19730D01*
X4383Y19718D01*
X4372Y19711D01*
X4349Y19700D01*
X4327Y19692D01*
X4305Y19686D01*
X4285Y19682D01*
X4268Y19681D01*
X4255Y19683D01*
X4252Y19684D01*
X4242Y19693D01*
X4236Y19706D01*
X4234Y19723D01*
X4235Y19742D01*
X4241Y19762D01*
X4250Y19782D01*
X4252Y19786D01*
X4269Y19808D01*
X4290Y19828D01*
X4317Y19847D01*
X4348Y19864D01*
X4381Y19878D01*
X4417Y19890D01*
X4455Y19898D01*
X4460Y19899D01*
X4472Y19901D01*
X4482Y19903D01*
X4488Y19905D01*
X4488Y19905D01*
X4487Y19908D01*
X4482Y19914D01*
X4473Y19923D01*
X4460Y19937D01*
X4442Y19955D01*
X4420Y19977D01*
X4393Y20003D01*
X4390Y20005D01*
X4288Y20102D01*
X4180Y20102D01*
X4072Y20101D01*
X3968Y20003D01*
X3947Y19983D01*
X3927Y19963D01*
X3908Y19946D01*
X3893Y19930D01*
X3880Y19918D01*
X3871Y19909D01*
X3866Y19904D01*
X3865Y19902D01*
X3868Y19900D01*
X3876Y19896D01*
X3888Y19891D01*
X3901Y19885D01*
X3928Y19874D01*
X3949Y19863D01*
X3967Y19853D01*
X3982Y19843D01*
X3996Y19831D01*
X4009Y19818D01*
X4018Y19809D01*
X4038Y19784D01*
X4053Y19760D01*
X4064Y19738D01*
X4069Y19718D01*
X4069Y19700D01*
X4064Y19686D01*
X4057Y19677D01*
X4051Y19672D01*
X4044Y19669D01*
X4034Y19669D01*
X4027Y19669D01*
X4015Y19669D01*
X4007Y19669D01*
X4003Y19670D01*
X3998Y19671D01*
X3989Y19674D01*
X3978Y19677D01*
X3976Y19678D01*
X3962Y19683D01*
X3951Y19688D01*
X3940Y19696D01*
X3931Y19704D01*
X3919Y19715D01*
X3908Y19727D01*
X3897Y19739D01*
X3886Y19753D01*
X3873Y19771D01*
X3858Y19792D01*
X3848Y19808D01*
X3836Y19825D01*
X3825Y19841D01*
X3815Y19855D01*
X3808Y19866D01*
X3804Y19871D01*
X3787Y19889D01*
X3765Y19908D01*
X3740Y19926D01*
X3719Y19938D01*
X3681Y19960D01*
X3649Y19980D01*
X3622Y19998D01*
X3600Y20015D01*
X3583Y20031D01*
X3571Y20044D01*
X3561Y20059D01*
X3551Y20075D01*
X3542Y20093D01*
X3534Y20109D01*
X3529Y20123D01*
X3528Y20130D01*
X3529Y20145D01*
X3536Y20157D01*
X3547Y20166D01*
X3563Y20172D01*
X3582Y20174D01*
X3603Y20172D01*
X3617Y20169D01*
X3647Y20158D01*
X3675Y20141D01*
X3702Y20118D01*
X3726Y20090D01*
X3748Y20058D01*
X3767Y20020D01*
X3781Y19986D01*
X3787Y19968D01*
X3794Y19954D01*
X3800Y19943D01*
X3806Y19939D01*
X3807Y19938D01*
X3810Y19940D01*
X3817Y19947D01*
X3828Y19957D01*
X3842Y19970D01*
X3859Y19986D01*
X3878Y20004D01*
X3899Y20024D01*
X3915Y20039D01*
X4021Y20138D01*
X4021Y20225D01*
X4021Y20312D01*
X3912Y20416D01*
X3890Y20437D01*
X3869Y20457D01*
X3850Y20475D01*
X3833Y20490D01*
X3819Y20503D01*
X3809Y20512D01*
X3803Y20518D01*
X3800Y20520D01*
X3798Y20517D01*
X3792Y20511D01*
X3783Y20501D01*
X3774Y20489D01*
X3754Y20465D01*
X3733Y20442D01*
X3713Y20421D01*
X3693Y20403D01*
X3676Y20389D01*
X3668Y20383D01*
X3654Y20375D01*
X3637Y20366D01*
X3620Y20359D01*
X3614Y20356D01*
X3586Y20348D01*
X3563Y20343D01*
X3545Y20343D01*
X3531Y20348D01*
X3522Y20357D01*
X3516Y20370D01*
X3515Y20388D01*
X3515Y20393D01*
X3519Y20419D01*
X3530Y20443D01*
X3546Y20467D01*
X3568Y20488D01*
X3594Y20508D01*
X3625Y20525D01*
X3660Y20540D01*
X3699Y20552D01*
X3732Y20559D01*
X3748Y20562D01*
X3764Y20566D01*
X3776Y20570D01*
X3782Y20572D01*
X3794Y20580D01*
X3808Y20592D01*
X3823Y20609D01*
X3839Y20628D01*
X3854Y20650D01*
X3855Y20652D01*
X3870Y20675D01*
X3883Y20694D01*
X3895Y20709D01*
X3906Y20722D01*
X3918Y20733D01*
X3931Y20743D01*
X3937Y20747D01*
X3965Y20764D01*
X3992Y20778D01*
X4018Y20788D01*
X4041Y20793D01*
X4062Y20795D01*
X4079Y20792D01*
X4092Y20785D01*
X4097Y20781D01*
X4102Y20769D01*
X4103Y20754D01*
X4100Y20736D01*
X4094Y20717D01*
X4085Y20697D01*
X4079Y20687D01*
X4068Y20674D01*
X4052Y20660D01*
X4030Y20646D01*
X4003Y20631D01*
X3970Y20615D01*
X3939Y20601D01*
X3912Y20590D01*
X3891Y20581D01*
X3875Y20573D01*
X3864Y20568D01*
X3857Y20564D01*
X3854Y20561D01*
X3854Y20559D01*
X3856Y20557D01*
X3863Y20550D01*
X3874Y20539D01*
X3888Y20526D01*
X3904Y20509D01*
X3923Y20491D01*
X3944Y20471D01*
X3959Y20458D01*
X4062Y20359D01*
X4177Y20359D01*
X4291Y20358D01*
X4396Y20458D01*
X4417Y20479D01*
X4438Y20498D01*
X4456Y20516D01*
X4471Y20531D01*
X4484Y20543D01*
X4493Y20553D01*
X4499Y20558D01*
X4499Y20559D01*
X4497Y20561D01*
X4489Y20566D01*
X4477Y20572D01*
X4463Y20581D01*
X4451Y20587D01*
X4414Y20608D01*
X4384Y20628D01*
X4358Y20647D01*
X4336Y20666D01*
X4318Y20685D01*
X4303Y20706D01*
X4290Y20728D01*
X4282Y20747D01*
X4276Y20765D01*
X4275Y20780D01*
X4278Y20792D01*
X4284Y20799D01*
X4298Y20810D01*
X4317Y20815D01*
X4338Y20815D01*
X4363Y20811D01*
X4389Y20802D01*
X4398Y20797D01*
X4423Y20782D01*
X4447Y20761D01*
X4469Y20735D01*
X4490Y20705D01*
X4509Y20671D01*
X4525Y20635D01*
X4531Y20617D01*
X4537Y20602D01*
X4545Y20589D01*
X4554Y20577D01*
X4567Y20567D01*
X4584Y20556D01*
X4605Y20545D01*
X4632Y20533D01*
X4644Y20528D01*
X4667Y20518D01*
X4686Y20509D01*
X4702Y20501D01*
X4714Y20494D01*
X4725Y20486D01*
X4736Y20477D01*
X4748Y20466D01*
X4748Y20466D01*
X4769Y20444D01*
X4787Y20421D01*
X4800Y20398D01*
X4810Y20377D01*
X4816Y20357D01*
X4817Y20340D01*
X4814Y20331D01*
X4808Y20320D01*
X4799Y20313D01*
X4786Y20310D01*
X4775Y20309D01*
X4756Y20310D01*
X4736Y20314D01*
X4717Y20320D01*
X4704Y20325D01*
X4686Y20337D01*
X4666Y20355D01*
X4644Y20380D01*
X4621Y20410D01*
X4598Y20444D01*
X4587Y20460D01*
X4577Y20475D01*
X4568Y20489D01*
X4561Y20499D01*
X4560Y20499D01*
X4547Y20516D01*
X4439Y20413D01*
X4331Y20311D01*
X4331Y20228D01*
X4331Y20146D01*
X4436Y20047D01*
X4458Y20027D01*
X4478Y20007D01*
X4497Y19990D01*
X4513Y19975D01*
X4526Y19962D01*
X4536Y19953D01*
X4542Y19948D01*
X4543Y19947D01*
X4546Y19949D01*
X4552Y19956D01*
X4559Y19967D01*
X4568Y19980D01*
X4570Y19983D01*
X4586Y20007D01*
X4600Y20027D01*
X4611Y20043D01*
X4621Y20055D01*
X4631Y20065D01*
X4640Y20072D01*
X4642Y20073D01*
X4665Y20089D01*
X4690Y20104D01*
X4715Y20116D01*
X4740Y20125D01*
X4761Y20130D01*
X4767Y20131D01*
X4784Y20131D01*
X4796Y20130D01*
X4806Y20126D01*
X4814Y20120D01*
X4821Y20111D01*
X4824Y20100D01*
X4824Y20100D01*
X4824Y20100D01*
G37*
G36*
X8233Y19947D02*
X8233Y19943D01*
X8231Y19933D01*
X8228Y19919D01*
X8225Y19900D01*
X8221Y19879D01*
X8217Y19855D01*
X8216Y19850D01*
X8199Y19756D01*
X8172Y19747D01*
X8143Y19736D01*
X8109Y19727D01*
X8074Y19718D01*
X8042Y19710D01*
X8029Y19708D01*
X8013Y19705D01*
X7992Y19703D01*
X7970Y19701D01*
X7948Y19700D01*
X7926Y19699D01*
X7908Y19699D01*
X7894Y19699D01*
X7889Y19700D01*
X7866Y19703D01*
X7847Y19706D01*
X7832Y19709D01*
X7819Y19712D01*
X7806Y19716D01*
X7804Y19717D01*
X7761Y19733D01*
X7722Y19755D01*
X7687Y19783D01*
X7657Y19814D01*
X7630Y19850D01*
X7609Y19891D01*
X7593Y19934D01*
X7589Y19946D01*
X7586Y19959D01*
X7584Y19972D01*
X7582Y19985D01*
X7581Y19999D01*
X7580Y20018D01*
X7579Y20042D01*
X7579Y20043D01*
X7577Y20105D01*
X7685Y20105D01*
X7792Y20105D01*
X7792Y20080D01*
X7795Y20039D01*
X7802Y20001D01*
X7814Y19967D01*
X7831Y19937D01*
X7852Y19912D01*
X7877Y19892D01*
X7906Y19877D01*
X7938Y19868D01*
X7974Y19864D01*
X8013Y19865D01*
X8028Y19867D01*
X8045Y19870D01*
X8065Y19875D01*
X8082Y19879D01*
X8087Y19881D01*
X8100Y19885D01*
X8118Y19893D01*
X8138Y19902D01*
X8159Y19912D01*
X8180Y19922D01*
X8199Y19932D01*
X8214Y19940D01*
X8219Y19943D01*
X8228Y19948D01*
X8233Y19948D01*
X8233Y19947D01*
X8233Y19947D01*
X8233Y19947D01*
G37*
G36*
X9208Y20103D02*
X9207Y20097D01*
X9204Y20087D01*
X9200Y20073D01*
X9196Y20059D01*
X9191Y20044D01*
X9186Y20030D01*
X9183Y20020D01*
X9159Y19966D01*
X9131Y19917D01*
X9098Y19871D01*
X9061Y19831D01*
X9024Y19796D01*
X8986Y19768D01*
X8946Y19745D01*
X8903Y19727D01*
X8856Y19713D01*
X8823Y19706D01*
X8806Y19704D01*
X8785Y19702D01*
X8761Y19700D01*
X8736Y19700D01*
X8712Y19699D01*
X8691Y19700D01*
X8675Y19701D01*
X8674Y19701D01*
X8632Y19709D01*
X8591Y19721D01*
X8552Y19738D01*
X8518Y19758D01*
X8512Y19762D01*
X8495Y19775D01*
X8476Y19793D01*
X8458Y19812D01*
X8442Y19831D01*
X8433Y19844D01*
X8413Y19879D01*
X8398Y19918D01*
X8386Y19961D01*
X8379Y20005D01*
X8376Y20050D01*
X8377Y20077D01*
X8379Y20105D01*
X8486Y20105D01*
X8592Y20105D01*
X8592Y20081D01*
X8594Y20047D01*
X8598Y20013D01*
X8605Y19981D01*
X8615Y19953D01*
X8620Y19941D01*
X8630Y19925D01*
X8644Y19909D01*
X8659Y19894D01*
X8675Y19883D01*
X8677Y19881D01*
X8703Y19871D01*
X8732Y19864D01*
X8762Y19863D01*
X8764Y19864D01*
X8801Y19869D01*
X8835Y19879D01*
X8866Y19895D01*
X8893Y19917D01*
X8918Y19944D01*
X8941Y19977D01*
X8953Y19999D01*
X8960Y20014D01*
X8967Y20031D01*
X8974Y20049D01*
X8981Y20066D01*
X8986Y20081D01*
X8989Y20093D01*
X8990Y20100D01*
X8991Y20102D01*
X8994Y20103D01*
X8999Y20103D01*
X9007Y20104D01*
X9019Y20105D01*
X9035Y20105D01*
X9056Y20105D01*
X9083Y20105D01*
X9099Y20105D01*
X9125Y20105D01*
X9149Y20105D01*
X9169Y20104D01*
X9186Y20104D01*
X9199Y20104D01*
X9206Y20103D01*
X9208Y20103D01*
X9208Y20103D01*
X9208Y20103D01*
G37*
G36*
X5832Y20105D02*
X5830Y20094D01*
X5826Y20079D01*
X5819Y20060D01*
X5812Y20038D01*
X5803Y20016D01*
X5795Y19996D01*
X5789Y19983D01*
X5761Y19935D01*
X5730Y19891D01*
X5695Y19851D01*
X5656Y19816D01*
X5613Y19787D01*
X5569Y19763D01*
X5562Y19760D01*
X5541Y19752D01*
X5518Y19744D01*
X5493Y19738D01*
X5467Y19732D01*
X5437Y19728D01*
X5404Y19724D01*
X5368Y19720D01*
X5327Y19718D01*
X5282Y19716D01*
X5231Y19715D01*
X5175Y19715D01*
X5134Y19714D01*
X5101Y19714D01*
X5074Y19715D01*
X5053Y19715D01*
X5037Y19715D01*
X5025Y19716D01*
X5017Y19717D01*
X5013Y19717D01*
X5012Y19718D01*
X5012Y19722D01*
X5014Y19732D01*
X5017Y19747D01*
X5020Y19767D01*
X5024Y19791D01*
X5029Y19819D01*
X5035Y19849D01*
X5040Y19882D01*
X5046Y19913D01*
X5080Y20103D01*
X5182Y20104D01*
X5212Y20105D01*
X5236Y20105D01*
X5254Y20104D01*
X5268Y20104D01*
X5277Y20103D01*
X5283Y20103D01*
X5285Y20101D01*
X5285Y20101D01*
X5284Y20097D01*
X5283Y20087D01*
X5280Y20072D01*
X5277Y20055D01*
X5273Y20033D01*
X5269Y20009D01*
X5267Y19997D01*
X5262Y19972D01*
X5258Y19949D01*
X5255Y19929D01*
X5252Y19912D01*
X5250Y19900D01*
X5249Y19893D01*
X5249Y19891D01*
X5249Y19889D01*
X5252Y19887D01*
X5259Y19886D01*
X5270Y19886D01*
X5279Y19886D01*
X5308Y19886D01*
X5337Y19888D01*
X5365Y19890D01*
X5390Y19894D01*
X5410Y19898D01*
X5415Y19899D01*
X5455Y19912D01*
X5491Y19931D01*
X5525Y19956D01*
X5554Y19985D01*
X5579Y20019D01*
X5599Y20056D01*
X5609Y20082D01*
X5616Y20103D01*
X5724Y20104D01*
X5832Y20105D01*
X5832Y20105D01*
X5832Y20105D01*
G37*
G36*
X6628Y19714D02*
X6525Y19714D01*
X6423Y19714D01*
X6418Y19732D01*
X6416Y19739D01*
X6413Y19752D01*
X6408Y19769D01*
X6402Y19790D01*
X6395Y19814D01*
X6388Y19839D01*
X6384Y19856D01*
X6374Y19891D01*
X6367Y19921D01*
X6359Y19945D01*
X6352Y19964D01*
X6346Y19980D01*
X6340Y19993D01*
X6334Y20003D01*
X6328Y20011D01*
X6321Y20019D01*
X6318Y20022D01*
X6309Y20030D01*
X6299Y20036D01*
X6289Y20040D01*
X6276Y20043D01*
X6259Y20044D01*
X6237Y20046D01*
X6229Y20046D01*
X6181Y20048D01*
X6177Y20025D01*
X6176Y20017D01*
X6173Y20003D01*
X6170Y19985D01*
X6166Y19962D01*
X6162Y19936D01*
X6156Y19908D01*
X6151Y19877D01*
X6148Y19859D01*
X6122Y19716D01*
X6020Y19715D01*
X5994Y19715D01*
X5971Y19715D01*
X5951Y19715D01*
X5935Y19716D01*
X5924Y19716D01*
X5918Y19717D01*
X5917Y19717D01*
X5917Y19721D01*
X5919Y19730D01*
X5922Y19745D01*
X5925Y19764D01*
X5929Y19786D01*
X5933Y19812D01*
X5938Y19840D01*
X5943Y19869D01*
X5949Y19900D01*
X5954Y19930D01*
X5960Y19960D01*
X5965Y19989D01*
X5969Y20016D01*
X5974Y20040D01*
X5978Y20061D01*
X5981Y20077D01*
X5983Y20090D01*
X5984Y20097D01*
X5984Y20098D01*
X5986Y20105D01*
X6236Y20105D01*
X6486Y20105D01*
X6500Y20090D01*
X6512Y20076D01*
X6524Y20058D01*
X6535Y20035D01*
X6544Y20015D01*
X6546Y20009D01*
X6550Y19997D01*
X6554Y19981D01*
X6560Y19961D01*
X6567Y19938D01*
X6574Y19913D01*
X6581Y19886D01*
X6589Y19859D01*
X6596Y19832D01*
X6604Y19806D01*
X6610Y19781D01*
X6616Y19760D01*
X6621Y19741D01*
X6624Y19728D01*
X6626Y19723D01*
X6628Y19714D01*
X6628Y19714D01*
X6628Y19714D01*
G37*
G36*
X7486Y19716D02*
X7483Y19716D01*
X7474Y19715D01*
X7460Y19715D01*
X7442Y19715D01*
X7421Y19715D01*
X7397Y19715D01*
X7388Y19715D01*
X7290Y19716D01*
X7279Y19795D01*
X7267Y19874D01*
X7109Y19875D01*
X6951Y19876D01*
X6912Y19795D01*
X6873Y19714D01*
X6768Y19714D01*
X6738Y19714D01*
X6714Y19715D01*
X6696Y19715D01*
X6682Y19715D01*
X6673Y19716D01*
X6667Y19717D01*
X6664Y19718D01*
X6664Y19719D01*
X6665Y19722D01*
X6670Y19731D01*
X6677Y19745D01*
X6686Y19763D01*
X6697Y19785D01*
X6710Y19811D01*
X6724Y19839D01*
X6740Y19870D01*
X6757Y19902D01*
X6763Y19915D01*
X6861Y20105D01*
X6963Y20105D01*
X7065Y20105D01*
X7047Y20069D01*
X7028Y20034D01*
X7134Y20034D01*
X7163Y20034D01*
X7186Y20034D01*
X7204Y20034D01*
X7218Y20034D01*
X7227Y20035D01*
X7233Y20035D01*
X7237Y20036D01*
X7239Y20038D01*
X7239Y20039D01*
X7239Y20039D01*
X7239Y20046D01*
X7237Y20057D01*
X7235Y20069D01*
X7233Y20084D01*
X7231Y20096D01*
X7230Y20105D01*
X7326Y20105D01*
X7423Y20105D01*
X7425Y20096D01*
X7426Y20091D01*
X7427Y20081D01*
X7430Y20066D01*
X7433Y20047D01*
X7437Y20024D01*
X7441Y19998D01*
X7446Y19970D01*
X7450Y19940D01*
X7455Y19909D01*
X7460Y19879D01*
X7465Y19849D01*
X7470Y19821D01*
X7474Y19794D01*
X7478Y19770D01*
X7481Y19750D01*
X7483Y19734D01*
X7485Y19722D01*
X7486Y19717D01*
X7486Y19716D01*
X7486Y19716D01*
X7486Y19716D01*
G37*
G36*
X5845Y20197D02*
X5737Y20197D01*
X5629Y20197D01*
X5628Y20224D01*
X5625Y20263D01*
X5616Y20298D01*
X5603Y20328D01*
X5585Y20354D01*
X5576Y20364D01*
X5557Y20380D01*
X5536Y20394D01*
X5512Y20404D01*
X5484Y20411D01*
X5451Y20415D01*
X5414Y20418D01*
X5397Y20418D01*
X5342Y20418D01*
X5323Y20307D01*
X5303Y20197D01*
X5200Y20197D01*
X5175Y20197D01*
X5152Y20198D01*
X5132Y20198D01*
X5116Y20198D01*
X5104Y20199D01*
X5098Y20200D01*
X5097Y20200D01*
X5098Y20204D01*
X5100Y20214D01*
X5102Y20228D01*
X5105Y20247D01*
X5109Y20270D01*
X5114Y20296D01*
X5119Y20324D01*
X5124Y20353D01*
X5129Y20384D01*
X5135Y20415D01*
X5140Y20445D01*
X5145Y20474D01*
X5150Y20501D01*
X5154Y20525D01*
X5158Y20546D01*
X5161Y20563D01*
X5164Y20575D01*
X5165Y20582D01*
X5165Y20583D01*
X5166Y20585D01*
X5168Y20586D01*
X5171Y20587D01*
X5177Y20587D01*
X5185Y20588D01*
X5196Y20588D01*
X5211Y20589D01*
X5231Y20589D01*
X5255Y20589D01*
X5285Y20589D01*
X5317Y20589D01*
X5367Y20589D01*
X5410Y20588D01*
X5448Y20588D01*
X5481Y20586D01*
X5510Y20585D01*
X5536Y20583D01*
X5559Y20580D01*
X5579Y20577D01*
X5598Y20573D01*
X5616Y20568D01*
X5634Y20563D01*
X5635Y20562D01*
X5677Y20546D01*
X5713Y20524D01*
X5745Y20499D01*
X5773Y20468D01*
X5796Y20432D01*
X5805Y20416D01*
X5821Y20379D01*
X5833Y20342D01*
X5841Y20302D01*
X5844Y20259D01*
X5845Y20236D01*
X5845Y20197D01*
X5845Y20197D01*
X5845Y20197D01*
G37*
G36*
X6639Y20364D02*
X6639Y20358D01*
X6634Y20314D01*
X6624Y20274D01*
X6609Y20237D01*
X6594Y20212D01*
X6584Y20197D01*
X6433Y20197D01*
X6433Y20336D01*
X6433Y20341D01*
X6432Y20356D01*
X6431Y20366D01*
X6428Y20376D01*
X6424Y20385D01*
X6417Y20396D01*
X6410Y20404D01*
X6400Y20410D01*
X6395Y20413D01*
X6376Y20423D01*
X6312Y20423D01*
X6248Y20423D01*
X6229Y20317D01*
X6225Y20292D01*
X6220Y20268D01*
X6217Y20247D01*
X6214Y20230D01*
X6211Y20217D01*
X6210Y20210D01*
X6210Y20208D01*
X6213Y20206D01*
X6222Y20205D01*
X6234Y20204D01*
X6250Y20204D01*
X6268Y20204D01*
X6286Y20204D01*
X6304Y20204D01*
X6320Y20205D01*
X6333Y20207D01*
X6343Y20208D01*
X6343Y20208D01*
X6370Y20218D01*
X6392Y20233D01*
X6409Y20252D01*
X6422Y20276D01*
X6430Y20304D01*
X6433Y20336D01*
X6433Y20197D01*
X6294Y20197D01*
X6251Y20197D01*
X6209Y20197D01*
X6170Y20197D01*
X6135Y20198D01*
X6102Y20198D01*
X6073Y20198D01*
X6049Y20198D01*
X6029Y20198D01*
X6014Y20199D01*
X6005Y20199D01*
X6003Y20199D01*
X6003Y20203D01*
X6005Y20212D01*
X6007Y20227D01*
X6011Y20246D01*
X6014Y20269D01*
X6019Y20294D01*
X6024Y20322D01*
X6029Y20352D01*
X6034Y20382D01*
X6040Y20413D01*
X6045Y20443D01*
X6050Y20472D01*
X6055Y20499D01*
X6060Y20524D01*
X6063Y20545D01*
X6067Y20562D01*
X6069Y20575D01*
X6070Y20582D01*
X6070Y20583D01*
X6071Y20584D01*
X6073Y20586D01*
X6076Y20586D01*
X6081Y20587D01*
X6089Y20588D01*
X6099Y20588D01*
X6113Y20588D01*
X6132Y20589D01*
X6154Y20589D01*
X6183Y20589D01*
X6216Y20589D01*
X6247Y20589D01*
X6290Y20589D01*
X6327Y20589D01*
X6358Y20588D01*
X6384Y20588D01*
X6406Y20587D01*
X6425Y20586D01*
X6441Y20585D01*
X6455Y20583D01*
X6467Y20581D01*
X6478Y20579D01*
X6489Y20576D01*
X6500Y20572D01*
X6504Y20571D01*
X6530Y20561D01*
X6551Y20550D01*
X6570Y20536D01*
X6585Y20523D01*
X6606Y20498D01*
X6622Y20470D01*
X6633Y20439D01*
X6638Y20403D01*
X6639Y20364D01*
X6639Y20364D01*
X6639Y20364D01*
G37*
G36*
X7407Y20197D02*
X7312Y20197D01*
X7287Y20197D01*
X7265Y20198D01*
X7246Y20198D01*
X7231Y20199D01*
X7221Y20199D01*
X7216Y20200D01*
X7216Y20200D01*
X7216Y20205D01*
X7214Y20214D01*
X7213Y20228D01*
X7210Y20245D01*
X7207Y20264D01*
X7204Y20284D01*
X7201Y20304D01*
X7199Y20322D01*
X7196Y20339D01*
X7194Y20352D01*
X7193Y20361D01*
X7192Y20364D01*
X7190Y20361D01*
X7186Y20354D01*
X7180Y20341D01*
X7172Y20325D01*
X7163Y20306D01*
X7152Y20285D01*
X7150Y20281D01*
X7110Y20197D01*
X7010Y20197D01*
X6980Y20197D01*
X6957Y20197D01*
X6939Y20198D01*
X6926Y20198D01*
X6917Y20199D01*
X6913Y20200D01*
X6911Y20201D01*
X6911Y20201D01*
X6913Y20205D01*
X6917Y20214D01*
X6924Y20228D01*
X6934Y20246D01*
X6945Y20268D01*
X6958Y20293D01*
X6972Y20321D01*
X6988Y20352D01*
X7005Y20384D01*
X7011Y20396D01*
X7109Y20587D01*
X7228Y20587D01*
X7346Y20587D01*
X7376Y20400D01*
X7382Y20365D01*
X7387Y20332D01*
X7392Y20302D01*
X7396Y20275D01*
X7400Y20251D01*
X7403Y20232D01*
X7405Y20217D01*
X7407Y20208D01*
X7407Y20205D01*
X7407Y20197D01*
X7407Y20197D01*
X7407Y20197D01*
G37*
G36*
X8327Y20535D02*
X8327Y20534D01*
X8326Y20529D01*
X8324Y20519D01*
X8321Y20504D01*
X8318Y20485D01*
X8314Y20464D01*
X8311Y20446D01*
X8306Y20423D01*
X8303Y20403D01*
X8299Y20386D01*
X8297Y20372D01*
X8295Y20364D01*
X8295Y20361D01*
X8292Y20362D01*
X8285Y20366D01*
X8276Y20373D01*
X8270Y20377D01*
X8244Y20394D01*
X8216Y20409D01*
X8187Y20422D01*
X8161Y20431D01*
X8159Y20431D01*
X8140Y20435D01*
X8117Y20438D01*
X8091Y20439D01*
X8066Y20439D01*
X8042Y20438D01*
X8022Y20435D01*
X8016Y20433D01*
X7981Y20421D01*
X7947Y20402D01*
X7915Y20378D01*
X7886Y20350D01*
X7876Y20338D01*
X7861Y20318D01*
X7847Y20294D01*
X7833Y20268D01*
X7822Y20244D01*
X7814Y20222D01*
X7813Y20219D01*
X7807Y20197D01*
X7701Y20197D01*
X7671Y20197D01*
X7648Y20197D01*
X7629Y20198D01*
X7616Y20198D01*
X7606Y20199D01*
X7600Y20199D01*
X7596Y20200D01*
X7595Y20201D01*
X7595Y20202D01*
X7596Y20209D01*
X7599Y20221D01*
X7604Y20236D01*
X7610Y20254D01*
X7617Y20272D01*
X7624Y20290D01*
X7631Y20307D01*
X7635Y20316D01*
X7661Y20365D01*
X7694Y20412D01*
X7731Y20456D01*
X7741Y20466D01*
X7783Y20504D01*
X7827Y20535D01*
X7874Y20561D01*
X7924Y20581D01*
X7977Y20596D01*
X7986Y20598D01*
X8006Y20601D01*
X8032Y20603D01*
X8060Y20604D01*
X8090Y20604D01*
X8118Y20603D01*
X8144Y20601D01*
X8166Y20597D01*
X8171Y20596D01*
X8210Y20586D01*
X8249Y20574D01*
X8285Y20560D01*
X8298Y20554D01*
X8312Y20547D01*
X8321Y20542D01*
X8326Y20538D01*
X8327Y20535D01*
X8327Y20535D01*
X8327Y20535D01*
G37*
G36*
X9222Y20199D02*
X9115Y20198D01*
X9008Y20197D01*
X9006Y20242D01*
X9004Y20273D01*
X9001Y20298D01*
X8996Y20320D01*
X8990Y20340D01*
X8982Y20358D01*
X8965Y20385D01*
X8945Y20407D01*
X8920Y20423D01*
X8892Y20434D01*
X8861Y20440D01*
X8827Y20440D01*
X8794Y20435D01*
X8762Y20424D01*
X8733Y20407D01*
X8705Y20383D01*
X8702Y20380D01*
X8673Y20347D01*
X8648Y20309D01*
X8628Y20267D01*
X8615Y20231D01*
X8604Y20197D01*
X8498Y20197D01*
X8468Y20197D01*
X8445Y20197D01*
X8427Y20198D01*
X8413Y20198D01*
X8404Y20198D01*
X8398Y20199D01*
X8394Y20200D01*
X8392Y20201D01*
X8392Y20203D01*
X8392Y20203D01*
X8394Y20209D01*
X8397Y20219D01*
X8400Y20230D01*
X8415Y20281D01*
X8437Y20331D01*
X8463Y20378D01*
X8493Y20423D01*
X8527Y20464D01*
X8565Y20500D01*
X8605Y20532D01*
X8606Y20533D01*
X8647Y20556D01*
X8691Y20575D01*
X8740Y20590D01*
X8792Y20600D01*
X8846Y20604D01*
X8849Y20604D01*
X8892Y20605D01*
X8931Y20602D01*
X8967Y20596D01*
X9001Y20586D01*
X9034Y20573D01*
X9041Y20569D01*
X9081Y20546D01*
X9116Y20519D01*
X9147Y20486D01*
X9173Y20450D01*
X9194Y20409D01*
X9210Y20366D01*
X9213Y20354D01*
X9216Y20339D01*
X9219Y20327D01*
X9220Y20315D01*
X9221Y20301D01*
X9222Y20284D01*
X9222Y20263D01*
X9222Y20258D01*
X9222Y20199D01*
X9222Y20199D01*
X9222Y20199D01*
G37*
G54D16*
X1417Y23070D02*
G75*
G03X1417Y23070I-472J0D01*
G74*
G01*
X1417Y944D02*
G75*
G03X1417Y944I-472J0D01*
G74*
G01*
X17834Y944D02*
G75*
G03X17834Y944I-472J0D01*
G74*
G01*
X17834Y23070D02*
G75*
G03X17834Y23070I-472J0D01*
G74*
G01*
G54D17*
X6751Y12559D02*
X6948Y12756D01*
X6948Y12756D02*
X12066Y12756D01*
X12066Y12756D02*
X12263Y12559D01*
X12263Y12559D02*
X12263Y7441D01*
X12263Y7441D02*
X12066Y7244D01*
X12066Y7244D02*
X6948Y7244D01*
X6948Y7244D02*
X6751Y7441D01*
X6751Y7441D02*
X6751Y12559D01*
X7260Y12397D02*
G75*
G03X7260Y12397I-150J0D01*
G74*
G01*
G54D18*
X14879Y840D02*
X15909Y840D01*
X15909Y840D02*
X15909Y-159D01*
X15909Y-159D02*
X14829Y-159D01*
X15415Y1340D02*
X15415Y-2659D01*
X14425Y1340D02*
X14425Y-2659D01*
X13925Y840D02*
X14900Y840D01*
X14900Y-159D02*
X13950Y-159D01*
X13425Y840D02*
X13425Y-2659D01*
X13425Y1340D02*
X13425Y840D01*
X13425Y840D02*
X12925Y840D01*
X12925Y840D02*
X13925Y840D01*
X13925Y-159D02*
X12925Y-159D01*
X2925Y840D02*
X3925Y-159D01*
X3925Y840D02*
X2925Y-159D01*
X12425Y1340D02*
X12425Y-2659D01*
X11425Y1340D02*
X11425Y-2659D01*
X10425Y1340D02*
X10425Y-2659D01*
X9425Y1340D02*
X9425Y-2659D01*
X8925Y840D02*
X12925Y840D01*
X12925Y-159D02*
X8925Y-159D01*
X3925Y-159D02*
X3925Y840D01*
X3425Y1340D02*
X3425Y-2659D01*
X8425Y1340D02*
X8425Y-2659D01*
X7425Y1340D02*
X7425Y-2659D01*
X6425Y1340D02*
X6425Y-2659D01*
X5425Y-2659D02*
X5425Y1340D01*
X4425Y1340D02*
X4425Y-2659D01*
X2925Y-159D02*
X2925Y840D01*
X2925Y840D02*
X8925Y840D01*
X8925Y-159D02*
X2925Y-159D01*
X3090Y23030D02*
X3345Y22775D01*
X3150Y23030D02*
X3345Y22835D01*
X2755Y22480D02*
X2755Y22220D01*
X2380Y22480D02*
X2380Y22220D01*
X3130Y22480D02*
X3130Y22220D01*
X2755Y23030D02*
X2755Y23290D01*
X2380Y23030D02*
X2380Y23290D01*
X3130Y23030D02*
X3130Y23290D01*
X3345Y22480D02*
X2165Y22480D01*
X2165Y22480D02*
X2165Y23030D01*
X2165Y23030D02*
X3345Y23030D01*
X3345Y23030D02*
X3345Y22480D01*
X3287Y4468D02*
X3917Y4468D01*
X3917Y4468D02*
X3917Y4153D01*
X3917Y4153D02*
X3287Y4153D01*
X3287Y4153D02*
X3287Y4468D01*
X14570Y8507D02*
X15200Y8507D01*
X15200Y8507D02*
X15200Y8192D01*
X15200Y8192D02*
X14570Y8192D01*
X14570Y8192D02*
X14570Y8507D01*
X14606Y9488D02*
X15236Y9488D01*
X15236Y9488D02*
X15236Y9173D01*
X15236Y9173D02*
X14606Y9173D01*
X14606Y9173D02*
X14606Y9488D01*
G54D13*
X3006Y21274D02*
X3286Y21274D01*
X3286Y21274D02*
X3286Y21864D01*
X3286Y21864D02*
X3006Y21864D01*
X2406Y21274D02*
X2146Y21274D01*
X2146Y21274D02*
X2146Y21864D01*
X2146Y21864D02*
X2416Y21864D01*
X11678Y21717D02*
X11398Y21717D01*
X11398Y21717D02*
X11398Y21127D01*
X11398Y21127D02*
X11678Y21127D01*
X12278Y21717D02*
X12538Y21717D01*
X12538Y21717D02*
X12538Y21127D01*
X12538Y21127D02*
X12268Y21127D01*
X16196Y6166D02*
X16196Y5886D01*
X16196Y5886D02*
X16786Y5886D01*
X16786Y5886D02*
X16786Y6166D01*
X16196Y6766D02*
X16196Y7026D01*
X16196Y7026D02*
X16786Y7026D01*
X16786Y7026D02*
X16786Y6756D01*
X3164Y13440D02*
X3444Y13440D01*
X3444Y13440D02*
X3444Y14030D01*
X3444Y14030D02*
X3164Y14030D01*
X2564Y13440D02*
X2304Y13440D01*
X2304Y13440D02*
X2304Y14030D01*
X2304Y14030D02*
X2574Y14030D01*
X3164Y14109D02*
X3444Y14109D01*
X3444Y14109D02*
X3444Y14699D01*
X3444Y14699D02*
X3164Y14699D01*
X2564Y14109D02*
X2304Y14109D01*
X2304Y14109D02*
X2304Y14699D01*
X2304Y14699D02*
X2574Y14699D01*
X3124Y18479D02*
X3404Y18479D01*
X3404Y18479D02*
X3404Y19069D01*
X3404Y19069D02*
X3124Y19069D01*
X2524Y18479D02*
X2264Y18479D01*
X2264Y18479D02*
X2264Y19069D01*
X2264Y19069D02*
X2534Y19069D01*
X3085Y17731D02*
X3365Y17731D01*
X3365Y17731D02*
X3365Y18321D01*
X3365Y18321D02*
X3085Y18321D01*
X2485Y17731D02*
X2225Y17731D01*
X2225Y17731D02*
X2225Y18321D01*
X2225Y18321D02*
X2495Y18321D01*
X13833Y8922D02*
X13833Y8642D01*
X13833Y8642D02*
X14423Y8642D01*
X14423Y8642D02*
X14423Y8922D01*
X13833Y9522D02*
X13833Y9782D01*
X13833Y9782D02*
X14423Y9782D01*
X14423Y9782D02*
X14423Y9512D01*
X4729Y4640D02*
X4729Y4920D01*
X4729Y4920D02*
X4139Y4920D01*
X4139Y4920D02*
X4139Y4640D01*
X4729Y4040D02*
X4729Y3780D01*
X4729Y3780D02*
X4139Y3780D01*
X4139Y3780D02*
X4139Y4050D01*
X14729Y4640D02*
X14729Y4920D01*
X14729Y4920D02*
X14139Y4920D01*
X14139Y4920D02*
X14139Y4640D01*
X14729Y4040D02*
X14729Y3780D01*
X14729Y3780D02*
X14139Y3780D01*
X14139Y3780D02*
X14139Y4050D01*
X13725Y4640D02*
X13725Y4920D01*
X13725Y4920D02*
X13135Y4920D01*
X13135Y4920D02*
X13135Y4640D01*
X13725Y4040D02*
X13725Y3780D01*
X13725Y3780D02*
X13135Y3780D01*
X13135Y3780D02*
X13135Y4050D01*
X12721Y4640D02*
X12721Y4920D01*
X12721Y4920D02*
X12131Y4920D01*
X12131Y4920D02*
X12131Y4640D01*
X12721Y4040D02*
X12721Y3780D01*
X12721Y3780D02*
X12131Y3780D01*
X12131Y3780D02*
X12131Y4050D01*
X10733Y4640D02*
X10733Y4920D01*
X10733Y4920D02*
X10143Y4920D01*
X10143Y4920D02*
X10143Y4640D01*
X10733Y4040D02*
X10733Y3780D01*
X10733Y3780D02*
X10143Y3780D01*
X10143Y3780D02*
X10143Y4050D01*
X11717Y4640D02*
X11717Y4920D01*
X11717Y4920D02*
X11127Y4920D01*
X11127Y4920D02*
X11127Y4640D01*
X11717Y4040D02*
X11717Y3780D01*
X11717Y3780D02*
X11127Y3780D01*
X11127Y3780D02*
X11127Y4050D01*
X9729Y4640D02*
X9729Y4920D01*
X9729Y4920D02*
X9139Y4920D01*
X9139Y4920D02*
X9139Y4640D01*
X9729Y4040D02*
X9729Y3780D01*
X9729Y3780D02*
X9139Y3780D01*
X9139Y3780D02*
X9139Y4050D01*
X8725Y4640D02*
X8725Y4920D01*
X8725Y4920D02*
X8135Y4920D01*
X8135Y4920D02*
X8135Y4640D01*
X8725Y4040D02*
X8725Y3780D01*
X8725Y3780D02*
X8135Y3780D01*
X8135Y3780D02*
X8135Y4050D01*
X7721Y4640D02*
X7721Y4920D01*
X7721Y4920D02*
X7131Y4920D01*
X7131Y4920D02*
X7131Y4640D01*
X7721Y4040D02*
X7721Y3780D01*
X7721Y3780D02*
X7131Y3780D01*
X7131Y3780D02*
X7131Y4050D01*
X6717Y4640D02*
X6717Y4920D01*
X6717Y4920D02*
X6127Y4920D01*
X6127Y4920D02*
X6127Y4640D01*
X6717Y4040D02*
X6717Y3780D01*
X6717Y3780D02*
X6127Y3780D01*
X6127Y3780D02*
X6127Y4050D01*
X5713Y4640D02*
X5713Y4920D01*
X5713Y4920D02*
X5123Y4920D01*
X5123Y4920D02*
X5123Y4640D01*
X5713Y4040D02*
X5713Y3780D01*
X5713Y3780D02*
X5123Y3780D01*
X5123Y3780D02*
X5123Y4050D01*
X10880Y21117D02*
X11160Y21117D01*
X11160Y21117D02*
X11160Y21707D01*
X11160Y21707D02*
X10880Y21707D01*
X10280Y21117D02*
X10020Y21117D01*
X10020Y21117D02*
X10020Y21707D01*
X10020Y21707D02*
X10290Y21707D01*
X3164Y14778D02*
X3444Y14778D01*
X3444Y14778D02*
X3444Y15368D01*
X3444Y15368D02*
X3164Y15368D01*
X2564Y14778D02*
X2304Y14778D01*
X2304Y14778D02*
X2304Y15368D01*
X2304Y15368D02*
X2574Y15368D01*
X3203Y15408D02*
X3483Y15408D01*
X3483Y15408D02*
X3483Y15998D01*
X3483Y15998D02*
X3203Y15998D01*
X2603Y15408D02*
X2343Y15408D01*
X2343Y15408D02*
X2343Y15998D01*
X2343Y15998D02*
X2613Y15998D01*
X14306Y5772D02*
X14306Y5492D01*
X14306Y5492D02*
X14896Y5492D01*
X14896Y5492D02*
X14896Y5772D01*
X14306Y6372D02*
X14306Y6632D01*
X14306Y6632D02*
X14896Y6632D01*
X14896Y6632D02*
X14896Y6362D01*
X14936Y5772D02*
X14936Y5492D01*
X14936Y5492D02*
X15526Y5492D01*
X15526Y5492D02*
X15526Y5772D01*
X14936Y6372D02*
X14936Y6632D01*
X14936Y6632D02*
X15526Y6632D01*
X15526Y6632D02*
X15526Y6362D01*
X15526Y5772D02*
X15526Y5492D01*
X15526Y5492D02*
X16116Y5492D01*
X16116Y5492D02*
X16116Y5772D01*
X15526Y6372D02*
X15526Y6632D01*
X15526Y6632D02*
X16116Y6632D01*
X16116Y6632D02*
X16116Y6362D01*
X2475Y4001D02*
X2475Y3721D01*
X2475Y3721D02*
X3065Y3721D01*
X3065Y3721D02*
X3065Y4001D01*
X2475Y4601D02*
X2475Y4861D01*
X2475Y4861D02*
X3065Y4861D01*
X3065Y4861D02*
X3065Y4591D01*
X9620Y21117D02*
X9900Y21117D01*
X9900Y21117D02*
X9900Y21707D01*
X9900Y21707D02*
X9620Y21707D01*
X9020Y21117D02*
X8760Y21117D01*
X8760Y21117D02*
X8760Y21707D01*
X8760Y21707D02*
X9030Y21707D01*
X15733Y4620D02*
X15733Y4900D01*
X15733Y4900D02*
X15143Y4900D01*
X15143Y4900D02*
X15143Y4620D01*
X15733Y4020D02*
X15733Y3760D01*
X15733Y3760D02*
X15143Y3760D01*
X15143Y3760D02*
X15143Y4030D01*
X3124Y19148D02*
X3404Y19148D01*
X3404Y19148D02*
X3404Y19738D01*
X3404Y19738D02*
X3124Y19738D01*
X2524Y19148D02*
X2264Y19148D01*
X2264Y19148D02*
X2264Y19738D01*
X2264Y19738D02*
X2534Y19738D01*
X3124Y19818D02*
X3404Y19818D01*
X3404Y19818D02*
X3404Y20408D01*
X3404Y20408D02*
X3124Y20408D01*
X2524Y19818D02*
X2264Y19818D01*
X2264Y19818D02*
X2264Y20408D01*
X2264Y20408D02*
X2534Y20408D01*
X16012Y8352D02*
X16012Y8632D01*
X16012Y8632D02*
X15422Y8632D01*
X15422Y8632D02*
X15422Y8352D01*
X16012Y7752D02*
X16012Y7492D01*
X16012Y7492D02*
X15422Y7492D01*
X15422Y7492D02*
X15422Y7762D01*
X2691Y9030D02*
X2971Y9030D01*
X2971Y9030D02*
X2971Y9620D01*
X2971Y9620D02*
X2691Y9620D01*
X2091Y9030D02*
X1831Y9030D01*
X1831Y9030D02*
X1831Y9620D01*
X1831Y9620D02*
X2101Y9620D01*
X2643Y8174D02*
X2363Y8174D01*
X2363Y8174D02*
X2363Y7584D01*
X2363Y7584D02*
X2643Y7584D01*
X3243Y8174D02*
X3503Y8174D01*
X3503Y8174D02*
X3503Y7584D01*
X3503Y7584D02*
X3233Y7584D01*
X3006Y8223D02*
X3286Y8223D01*
X3286Y8223D02*
X3286Y8813D01*
X3286Y8813D02*
X3006Y8813D01*
X2406Y8223D02*
X2146Y8223D01*
X2146Y8223D02*
X2146Y8813D01*
X2146Y8813D02*
X2416Y8813D01*
X2948Y9237D02*
X2948Y8957D01*
X2948Y8957D02*
X3538Y8957D01*
X3538Y8957D02*
X3538Y9237D01*
X2948Y9837D02*
X2948Y10097D01*
X2948Y10097D02*
X3538Y10097D01*
X3538Y10097D02*
X3538Y9827D01*
X1992Y5959D02*
X1992Y6239D01*
X1992Y6239D02*
X1402Y6239D01*
X1402Y6239D02*
X1402Y5959D01*
X1992Y5359D02*
X1992Y5099D01*
X1992Y5099D02*
X1402Y5099D01*
X1402Y5099D02*
X1402Y5369D01*
X2662Y5959D02*
X2662Y6239D01*
X2662Y6239D02*
X2072Y6239D01*
X2072Y6239D02*
X2072Y5959D01*
X2662Y5359D02*
X2662Y5099D01*
X2662Y5099D02*
X2072Y5099D01*
X2072Y5099D02*
X2072Y5369D01*
X13922Y11756D02*
X13642Y11756D01*
X13642Y11756D02*
X13642Y11166D01*
X13642Y11166D02*
X13922Y11166D01*
X14522Y11756D02*
X14782Y11756D01*
X14782Y11756D02*
X14782Y11166D01*
X14782Y11166D02*
X14512Y11166D01*
X13922Y12465D02*
X13642Y12465D01*
X13642Y12465D02*
X13642Y11875D01*
X13642Y11875D02*
X13922Y11875D01*
X14522Y12465D02*
X14782Y12465D01*
X14782Y12465D02*
X14782Y11875D01*
X14782Y11875D02*
X14512Y11875D01*
X5553Y12007D02*
X5833Y12007D01*
X5833Y12007D02*
X5833Y12597D01*
X5833Y12597D02*
X5553Y12597D01*
X4953Y12007D02*
X4693Y12007D01*
X4693Y12007D02*
X4693Y12597D01*
X4693Y12597D02*
X4963Y12597D01*
X9541Y5684D02*
X9821Y5684D01*
X9821Y5684D02*
X9821Y6274D01*
X9821Y6274D02*
X9541Y6274D01*
X8941Y5684D02*
X8681Y5684D01*
X8681Y5684D02*
X8681Y6274D01*
X8681Y6274D02*
X8951Y6274D01*
G54D18*
X1062Y11102D02*
X1062Y10433D01*
X1062Y10433D02*
X-39Y10433D01*
X-39Y10433D02*
X-39Y11102D01*
X1062Y16220D02*
X1062Y16889D01*
X1062Y16889D02*
X-39Y16889D01*
X-39Y16889D02*
X-39Y16220D01*
X1456Y16220D02*
X1456Y11102D01*
X1456Y11102D02*
X-196Y11102D01*
X-196Y11102D02*
X-196Y16220D01*
X-196Y16220D02*
X1456Y16220D01*
X1062Y21496D02*
X1062Y22165D01*
X1062Y22165D02*
X-39Y22165D01*
X-39Y22165D02*
X-39Y21496D01*
X1062Y17854D02*
X1062Y17185D01*
X1062Y17185D02*
X-39Y17185D01*
X-39Y17185D02*
X-39Y17854D01*
X1456Y21496D02*
X1456Y17854D01*
X1456Y17854D02*
X-196Y17854D01*
X-196Y17854D02*
X-196Y21496D01*
X-196Y21496D02*
X1456Y21496D01*
X17244Y2559D02*
X17244Y1889D01*
X17244Y1889D02*
X18346Y1889D01*
X18346Y1889D02*
X18346Y2559D01*
X17244Y6200D02*
X17244Y6870D01*
X17244Y6870D02*
X18346Y6870D01*
X18346Y6870D02*
X18346Y6200D01*
X16850Y2559D02*
X16850Y6200D01*
X16850Y6200D02*
X18503Y6200D01*
X18503Y6200D02*
X18503Y2559D01*
X18503Y2559D02*
X16850Y2559D01*
X17244Y15413D02*
X17244Y14744D01*
X17244Y14744D02*
X18346Y14744D01*
X18346Y14744D02*
X18346Y15413D01*
X17244Y18070D02*
X17244Y18740D01*
X17244Y18740D02*
X18346Y18740D01*
X18346Y18740D02*
X18346Y18070D01*
X16850Y15413D02*
X16850Y18070D01*
X16850Y18070D02*
X18503Y18070D01*
X18503Y18070D02*
X18503Y15413D01*
X18503Y15413D02*
X16850Y15413D01*
X15807Y22952D02*
X16476Y22952D01*
X16476Y22952D02*
X16476Y24055D01*
X16476Y24055D02*
X15807Y24055D01*
X13149Y22952D02*
X12480Y22952D01*
X12480Y22952D02*
X12480Y24055D01*
X12480Y24055D02*
X13149Y24055D01*
X15807Y22559D02*
X13149Y22559D01*
X13149Y22559D02*
X13149Y24212D01*
X13149Y24212D02*
X15807Y24212D01*
X15807Y24212D02*
X15807Y22559D01*
X1062Y9468D02*
X1062Y10137D01*
X1062Y10137D02*
X-39Y10137D01*
X-39Y10137D02*
X-39Y9468D01*
X1062Y6811D02*
X1062Y6141D01*
X1062Y6141D02*
X-39Y6141D01*
X-39Y6141D02*
X-39Y6811D01*
X1456Y9468D02*
X1456Y6811D01*
X1456Y6811D02*
X-196Y6811D01*
X-196Y6811D02*
X-196Y9468D01*
X-196Y9468D02*
X1456Y9468D01*
X1062Y5177D02*
X1062Y5846D01*
X1062Y5846D02*
X-39Y5846D01*
X-39Y5846D02*
X-39Y5177D01*
X1062Y2519D02*
X1062Y1850D01*
X1062Y1850D02*
X-39Y1850D01*
X-39Y1850D02*
X-39Y2519D01*
X1456Y5177D02*
X1456Y2519D01*
X1456Y2519D02*
X-196Y2519D01*
X-196Y2519D02*
X-196Y5177D01*
X-196Y5177D02*
X1456Y5177D01*
X11515Y22952D02*
X12185Y22952D01*
X12185Y22952D02*
X12185Y24055D01*
X12185Y24055D02*
X11515Y24055D01*
X8858Y22952D02*
X8188Y22952D01*
X8188Y22952D02*
X8188Y24055D01*
X8188Y24055D02*
X8858Y24055D01*
X11515Y22559D02*
X8858Y22559D01*
X8858Y22559D02*
X8858Y24212D01*
X8858Y24212D02*
X11515Y24212D01*
X11515Y24212D02*
X11515Y22559D01*
X7224Y22952D02*
X7893Y22952D01*
X7893Y22952D02*
X7893Y24055D01*
X7893Y24055D02*
X7224Y24055D01*
X4566Y22952D02*
X3897Y22952D01*
X3897Y22952D02*
X3897Y24055D01*
X3897Y24055D02*
X4566Y24055D01*
X7224Y22559D02*
X4566Y22559D01*
X4566Y22559D02*
X4566Y24212D01*
X4566Y24212D02*
X7224Y24212D01*
X7224Y24212D02*
X7224Y22559D01*
X17263Y7854D02*
X17263Y7185D01*
X17263Y7185D02*
X18366Y7185D01*
X18366Y7185D02*
X18366Y7854D01*
X17263Y9527D02*
X17263Y10196D01*
X17263Y10196D02*
X18366Y10196D01*
X18366Y10196D02*
X18366Y9527D01*
X16850Y7854D02*
X16850Y9527D01*
X16850Y9527D02*
X18503Y9527D01*
X18503Y9527D02*
X18503Y7854D01*
X18503Y7854D02*
X16850Y7854D01*
G54D19*
X15443Y18601D02*
G75*
G03X15443Y18601I-70J0D01*
G74*
G01*
X13758Y18602D02*
X15372Y18602D01*
X15372Y18602D02*
X15372Y20590D01*
X15372Y20590D02*
X13758Y20590D01*
X13758Y20590D02*
X13758Y18602D01*
G54D18*
X12440Y18425D02*
X12263Y18267D01*
X12440Y18267D02*
X11259Y18267D01*
X11259Y18267D02*
X11259Y19448D01*
X11259Y19448D02*
X12440Y19448D01*
X12440Y19448D02*
X12440Y18267D01*
G54D20*
X4055Y12508D02*
X4055Y12114D01*
X4291Y12114D02*
X4291Y12508D01*
X4173Y12350D02*
X4173Y12272D01*
X4212Y12232D02*
X4212Y12390D01*
X4212Y12390D02*
X4134Y12311D01*
X4134Y12311D02*
X4212Y12232D01*
X4488Y12114D02*
X3858Y12114D01*
X3858Y12114D02*
X3858Y12508D01*
X3858Y12508D02*
X4488Y12508D01*
X4488Y12508D02*
X4488Y12114D01*
X9389Y5255D02*
X9389Y5649D01*
X9153Y5649D02*
X9153Y5255D01*
X9271Y5413D02*
X9271Y5491D01*
X9232Y5531D02*
X9232Y5373D01*
X9232Y5373D02*
X9310Y5452D01*
X9310Y5452D02*
X9232Y5531D01*
X8956Y5649D02*
X9586Y5649D01*
X9586Y5649D02*
X9586Y5255D01*
X9586Y5255D02*
X8956Y5255D01*
X8956Y5255D02*
X8956Y5649D01*
G54D21*
X8271Y15948D02*
X8271Y17712D01*
X8467Y15752D02*
X10231Y15752D01*
X8467Y15752D02*
X8271Y15948D01*
G54D22*
X8565Y15948D02*
X8467Y15948D01*
X8467Y15948D02*
X8467Y16046D01*
X10035Y16046D02*
X10035Y15948D01*
X10035Y15948D02*
X9937Y15948D01*
X9937Y17516D02*
X10035Y17516D01*
X10035Y17516D02*
X10035Y17418D01*
X8467Y17418D02*
X8467Y17516D01*
X8467Y17516D02*
X8565Y17516D01*
G54D21*
X10231Y17712D02*
X10231Y15752D01*
X8271Y17712D02*
X10231Y17712D01*
G54D22*
X18503Y10865D02*
X18503Y14173D01*
X18543Y10865D02*
X18543Y14173D01*
X18543Y14173D02*
X18464Y14173D01*
X18464Y14173D02*
X18464Y10865D01*
X18464Y10865D02*
X18543Y10865D01*
X18543Y10984D02*
X16574Y10984D01*
X16574Y10984D02*
X16574Y14054D01*
X16574Y14054D02*
X18543Y14054D01*
G54D19*
X1968Y2323D02*
X1968Y2657D01*
X1968Y2657D02*
X2756Y2657D01*
X2756Y2657D02*
X2756Y2323D01*
X1968Y1555D02*
X1968Y1201D01*
X1968Y1201D02*
X2756Y1201D01*
X2756Y1201D02*
X2756Y1535D01*
X10630Y19015D02*
X10630Y18681D01*
X10630Y18681D02*
X9842Y18681D01*
X9842Y18681D02*
X9842Y19015D01*
X10630Y19783D02*
X10630Y20137D01*
X10630Y20137D02*
X9842Y20137D01*
X9842Y20137D02*
X9842Y19803D01*
X15606Y10192D02*
X15606Y9858D01*
X15606Y9858D02*
X14818Y9858D01*
X14818Y9858D02*
X14818Y10192D01*
X15606Y10960D02*
X15606Y11314D01*
X15606Y11314D02*
X14818Y11314D01*
X14818Y11314D02*
X14818Y10980D01*
G54D13*
X10948Y17425D02*
X10948Y17661D01*
X10948Y17661D02*
X10437Y17661D01*
X10437Y17661D02*
X10437Y17425D01*
X10948Y16834D02*
X10948Y16598D01*
X10948Y16598D02*
X10437Y16598D01*
X10437Y16598D02*
X10437Y16834D01*
X11082Y20255D02*
X10846Y20255D01*
X10846Y20255D02*
X10846Y19744D01*
X10846Y19744D02*
X11082Y19744D01*
X11673Y20255D02*
X11909Y20255D01*
X11909Y20255D02*
X11909Y19744D01*
X11909Y19744D02*
X11673Y19744D01*
X15964Y19468D02*
X15964Y19704D01*
X15964Y19704D02*
X15452Y19704D01*
X15452Y19704D02*
X15452Y19468D01*
X15964Y18877D02*
X15964Y18641D01*
X15964Y18641D02*
X15452Y18641D01*
X15452Y18641D02*
X15452Y18877D01*
X2677Y9625D02*
X2913Y9625D01*
X2913Y9625D02*
X2913Y10137D01*
X2913Y10137D02*
X2677Y10137D01*
X2086Y9625D02*
X1850Y9625D01*
X1850Y9625D02*
X1850Y10137D01*
X1850Y10137D02*
X2086Y10137D01*
X8078Y17641D02*
X8078Y17877D01*
X8078Y17877D02*
X7566Y17877D01*
X7566Y17877D02*
X7566Y17641D01*
X8078Y17051D02*
X8078Y16814D01*
X8078Y16814D02*
X7566Y16814D01*
X7566Y16814D02*
X7566Y17051D01*
X8964Y18555D02*
X8728Y18555D01*
X8728Y18555D02*
X8728Y18043D01*
X8728Y18043D02*
X8964Y18043D01*
X9555Y18555D02*
X9791Y18555D01*
X9791Y18555D02*
X9791Y18043D01*
X9791Y18043D02*
X9555Y18043D01*
X13287Y19507D02*
X13287Y19744D01*
X13287Y19744D02*
X12775Y19744D01*
X12775Y19744D02*
X12775Y19507D01*
X13287Y18917D02*
X13287Y18681D01*
X13287Y18681D02*
X12775Y18681D01*
X12775Y18681D02*
X12775Y18917D01*
X12775Y6377D02*
X13011Y6377D01*
X13011Y6377D02*
X13011Y6889D01*
X13011Y6889D02*
X12775Y6889D01*
X12185Y6377D02*
X11948Y6377D01*
X11948Y6377D02*
X11948Y6889D01*
X11948Y6889D02*
X12185Y6889D01*
X2854Y23484D02*
X3090Y23484D01*
X3090Y23484D02*
X3090Y23996D01*
X3090Y23996D02*
X2854Y23996D01*
X2263Y23484D02*
X2027Y23484D01*
X2027Y23484D02*
X2027Y23996D01*
X2027Y23996D02*
X2263Y23996D01*
X5413Y9507D02*
X5649Y9507D01*
X5649Y9507D02*
X5649Y10019D01*
X5649Y10019D02*
X5413Y10019D01*
X4822Y9507D02*
X4586Y9507D01*
X4586Y9507D02*
X4586Y10019D01*
X4586Y10019D02*
X4822Y10019D01*
X6161Y13307D02*
X5925Y13307D01*
X5925Y13307D02*
X5925Y12795D01*
X5925Y12795D02*
X6161Y12795D01*
X6751Y13307D02*
X6988Y13307D01*
X6988Y13307D02*
X6988Y12795D01*
X6988Y12795D02*
X6751Y12795D01*
X13090Y12637D02*
X13326Y12637D01*
X13326Y12637D02*
X13326Y13149D01*
X13326Y13149D02*
X13090Y13149D01*
X12500Y12637D02*
X12263Y12637D01*
X12263Y12637D02*
X12263Y13149D01*
X12263Y13149D02*
X12500Y13149D01*
X2637Y7480D02*
X2401Y7480D01*
X2401Y7480D02*
X2401Y6968D01*
X2401Y6968D02*
X2637Y6968D01*
X3228Y7480D02*
X3464Y7480D01*
X3464Y7480D02*
X3464Y6968D01*
X3464Y6968D02*
X3228Y6968D01*
X12061Y21865D02*
X12341Y21865D01*
X12341Y21865D02*
X12341Y22455D01*
X12341Y22455D02*
X12061Y22455D01*
X11461Y21865D02*
X11201Y21865D01*
X11201Y21865D02*
X11201Y22455D01*
X11201Y22455D02*
X11471Y22455D01*
X11784Y17419D02*
X11784Y17699D01*
X11784Y17699D02*
X11194Y17699D01*
X11194Y17699D02*
X11194Y17419D01*
X11784Y16819D02*
X11784Y16559D01*
X11784Y16559D02*
X11194Y16559D01*
X11194Y16559D02*
X11194Y16829D01*
X15622Y16978D02*
X15622Y17258D01*
X15622Y17258D02*
X15032Y17258D01*
X15032Y17258D02*
X15032Y16978D01*
X15622Y16378D02*
X15622Y16118D01*
X15622Y16118D02*
X15032Y16118D01*
X15032Y16118D02*
X15032Y16388D01*
X4565Y11451D02*
X4845Y11451D01*
X4845Y11451D02*
X4845Y12041D01*
X4845Y12041D02*
X4565Y12041D01*
X3965Y11451D02*
X3705Y11451D01*
X3705Y11451D02*
X3705Y12041D01*
X3705Y12041D02*
X3975Y12041D01*
X4561Y10766D02*
X4841Y10766D01*
X4841Y10766D02*
X4841Y11356D01*
X4841Y11356D02*
X4561Y11356D01*
X3961Y10766D02*
X3701Y10766D01*
X3701Y10766D02*
X3701Y11356D01*
X3701Y11356D02*
X3971Y11356D01*
X4573Y10070D02*
X4853Y10070D01*
X4853Y10070D02*
X4853Y10660D01*
X4853Y10660D02*
X4573Y10660D01*
X3973Y10070D02*
X3713Y10070D01*
X3713Y10070D02*
X3713Y10660D01*
X3713Y10660D02*
X3983Y10660D01*
G54D23*
X6280Y7223D02*
X6280Y6978D01*
X6295Y6949D01*
X6309Y6935D01*
X6338Y6920D01*
X6396Y6920D01*
X6425Y6935D01*
X6439Y6949D01*
X6454Y6978D01*
X6454Y7223D01*
X6569Y7223D02*
X6771Y7223D01*
X6641Y6920D01*
X16130Y365D02*
X16130Y668D01*
X16246Y668D01*
X16274Y654D01*
X16289Y639D01*
X16303Y610D01*
X16303Y567D01*
X16289Y538D01*
X16274Y524D01*
X16246Y509D01*
X16130Y509D01*
X16592Y365D02*
X16419Y365D01*
X16505Y365D02*
X16505Y668D01*
X16477Y625D01*
X16448Y596D01*
X16419Y582D01*
X3438Y22163D02*
X3481Y22148D01*
X3553Y22148D01*
X3582Y22163D01*
X3597Y22177D01*
X3611Y22206D01*
X3611Y22235D01*
X3597Y22264D01*
X3582Y22278D01*
X3553Y22293D01*
X3496Y22307D01*
X3467Y22322D01*
X3452Y22336D01*
X3438Y22365D01*
X3438Y22394D01*
X3452Y22423D01*
X3467Y22437D01*
X3496Y22452D01*
X3568Y22452D01*
X3611Y22437D01*
X3712Y22452D02*
X3784Y22148D01*
X3842Y22365D01*
X3900Y22148D01*
X3972Y22452D01*
X4246Y22148D02*
X4073Y22148D01*
X4160Y22148D02*
X4160Y22452D01*
X4131Y22408D01*
X4102Y22379D01*
X4073Y22365D01*
X4045Y4939D02*
X4030Y4910D01*
X4001Y4881D01*
X3958Y4838D01*
X3944Y4809D01*
X3944Y4780D01*
X4016Y4795D02*
X4001Y4766D01*
X3973Y4737D01*
X3915Y4723D01*
X3814Y4723D01*
X3756Y4737D01*
X3727Y4766D01*
X3713Y4795D01*
X3713Y4853D01*
X3727Y4881D01*
X3756Y4910D01*
X3814Y4925D01*
X3915Y4925D01*
X3973Y4910D01*
X4001Y4881D01*
X4016Y4853D01*
X4016Y4795D01*
X4016Y5213D02*
X4016Y5040D01*
X4016Y5127D02*
X3713Y5127D01*
X3756Y5098D01*
X3785Y5069D01*
X3799Y5040D01*
X14207Y7864D02*
X14178Y7878D01*
X14149Y7907D01*
X14106Y7950D01*
X14077Y7965D01*
X14048Y7965D01*
X14062Y7893D02*
X14034Y7907D01*
X14005Y7936D01*
X13990Y7994D01*
X13990Y8095D01*
X14005Y8152D01*
X14034Y8181D01*
X14062Y8196D01*
X14120Y8196D01*
X14149Y8181D01*
X14178Y8152D01*
X14192Y8095D01*
X14192Y7994D01*
X14178Y7936D01*
X14149Y7907D01*
X14120Y7893D01*
X14062Y7893D01*
X14293Y8196D02*
X14481Y8196D01*
X14380Y8080D01*
X14423Y8080D01*
X14452Y8066D01*
X14467Y8051D01*
X14481Y8022D01*
X14481Y7950D01*
X14467Y7921D01*
X14452Y7907D01*
X14423Y7893D01*
X14337Y7893D01*
X14308Y7907D01*
X14293Y7921D01*
X14702Y10057D02*
X14688Y10028D01*
X14659Y10000D01*
X14616Y9956D01*
X14601Y9927D01*
X14601Y9898D01*
X14673Y9913D02*
X14659Y9884D01*
X14630Y9855D01*
X14572Y9841D01*
X14471Y9841D01*
X14414Y9855D01*
X14385Y9884D01*
X14370Y9913D01*
X14370Y9971D01*
X14385Y10000D01*
X14414Y10028D01*
X14471Y10043D01*
X14572Y10043D01*
X14630Y10028D01*
X14659Y10000D01*
X14673Y9971D01*
X14673Y9913D01*
X14399Y10158D02*
X14385Y10173D01*
X14370Y10202D01*
X14370Y10274D01*
X14385Y10303D01*
X14399Y10317D01*
X14428Y10332D01*
X14457Y10332D01*
X14500Y10317D01*
X14673Y10144D01*
X14673Y10332D01*
X3576Y21215D02*
X3475Y21360D01*
X3403Y21215D02*
X3403Y21519D01*
X3519Y21519D01*
X3547Y21504D01*
X3562Y21490D01*
X3576Y21461D01*
X3576Y21417D01*
X3562Y21389D01*
X3547Y21374D01*
X3519Y21360D01*
X3403Y21360D01*
X3677Y21519D02*
X3865Y21519D01*
X3764Y21403D01*
X3807Y21403D01*
X3836Y21389D01*
X3851Y21374D01*
X3865Y21345D01*
X3865Y21273D01*
X3851Y21244D01*
X3836Y21230D01*
X3807Y21215D01*
X3721Y21215D01*
X3692Y21230D01*
X3677Y21244D01*
X3980Y21490D02*
X3995Y21504D01*
X4024Y21519D01*
X4096Y21519D01*
X4125Y21504D01*
X4139Y21490D01*
X4154Y21461D01*
X4154Y21432D01*
X4139Y21389D01*
X3966Y21215D01*
X4154Y21215D01*
X12832Y21160D02*
X12731Y21305D01*
X12659Y21160D02*
X12659Y21463D01*
X12774Y21463D01*
X12803Y21449D01*
X12818Y21435D01*
X12832Y21406D01*
X12832Y21362D01*
X12818Y21333D01*
X12803Y21319D01*
X12774Y21305D01*
X12659Y21305D01*
X13106Y21463D02*
X12962Y21463D01*
X12948Y21319D01*
X12962Y21333D01*
X12991Y21348D01*
X13063Y21348D01*
X13092Y21333D01*
X13106Y21319D01*
X13121Y21290D01*
X13121Y21218D01*
X13106Y21189D01*
X13092Y21175D01*
X13063Y21160D01*
X12991Y21160D01*
X12962Y21175D01*
X12948Y21189D01*
X13265Y21160D02*
X13323Y21160D01*
X13352Y21175D01*
X13366Y21189D01*
X13395Y21232D01*
X13410Y21290D01*
X13410Y21406D01*
X13395Y21435D01*
X13381Y21449D01*
X13352Y21463D01*
X13294Y21463D01*
X13265Y21449D01*
X13251Y21435D01*
X13236Y21406D01*
X13236Y21333D01*
X13251Y21305D01*
X13265Y21290D01*
X13294Y21276D01*
X13352Y21276D01*
X13381Y21290D01*
X13395Y21305D01*
X13410Y21333D01*
X16756Y7297D02*
X16612Y7196D01*
X16756Y7124D02*
X16453Y7124D01*
X16453Y7239D01*
X16467Y7268D01*
X16482Y7282D01*
X16511Y7297D01*
X16554Y7297D01*
X16583Y7282D01*
X16597Y7268D01*
X16612Y7239D01*
X16612Y7124D01*
X16554Y7557D02*
X16756Y7557D01*
X16438Y7484D02*
X16655Y7412D01*
X16655Y7600D01*
X16583Y7759D02*
X16568Y7730D01*
X16554Y7715D01*
X16525Y7701D01*
X16511Y7701D01*
X16482Y7715D01*
X16467Y7730D01*
X16453Y7759D01*
X16453Y7816D01*
X16467Y7845D01*
X16482Y7860D01*
X16511Y7874D01*
X16525Y7874D01*
X16554Y7860D01*
X16568Y7845D01*
X16583Y7816D01*
X16583Y7759D01*
X16597Y7730D01*
X16612Y7715D01*
X16641Y7701D01*
X16698Y7701D01*
X16727Y7715D01*
X16742Y7730D01*
X16756Y7759D01*
X16756Y7816D01*
X16742Y7845D01*
X16727Y7860D01*
X16698Y7874D01*
X16641Y7874D01*
X16612Y7860D01*
X16597Y7845D01*
X16583Y7816D01*
X3757Y13562D02*
X3656Y13706D01*
X3584Y13562D02*
X3584Y13865D01*
X3700Y13865D01*
X3729Y13851D01*
X3743Y13836D01*
X3757Y13807D01*
X3757Y13764D01*
X3743Y13735D01*
X3729Y13721D01*
X3700Y13706D01*
X3584Y13706D01*
X3873Y13836D02*
X3887Y13851D01*
X3916Y13865D01*
X3988Y13865D01*
X4017Y13851D01*
X4032Y13836D01*
X4046Y13807D01*
X4046Y13778D01*
X4032Y13735D01*
X3858Y13562D01*
X4046Y13562D01*
X4219Y13735D02*
X4190Y13750D01*
X4176Y13764D01*
X4162Y13793D01*
X4162Y13807D01*
X4176Y13836D01*
X4190Y13851D01*
X4219Y13865D01*
X4277Y13865D01*
X4306Y13851D01*
X4320Y13836D01*
X4335Y13807D01*
X4335Y13793D01*
X4320Y13764D01*
X4306Y13750D01*
X4277Y13735D01*
X4219Y13735D01*
X4190Y13721D01*
X4176Y13706D01*
X4162Y13677D01*
X4162Y13620D01*
X4176Y13591D01*
X4190Y13576D01*
X4219Y13562D01*
X4277Y13562D01*
X4306Y13576D01*
X4320Y13591D01*
X4335Y13620D01*
X4335Y13677D01*
X4320Y13706D01*
X4306Y13721D01*
X4277Y13735D01*
X3702Y14148D02*
X3601Y14293D01*
X3529Y14148D02*
X3529Y14452D01*
X3645Y14452D01*
X3673Y14437D01*
X3688Y14423D01*
X3702Y14394D01*
X3702Y14351D01*
X3688Y14322D01*
X3673Y14307D01*
X3645Y14293D01*
X3529Y14293D01*
X3818Y14423D02*
X3832Y14437D01*
X3861Y14452D01*
X3933Y14452D01*
X3962Y14437D01*
X3977Y14423D01*
X3991Y14394D01*
X3991Y14365D01*
X3977Y14322D01*
X3803Y14148D01*
X3991Y14148D01*
X4092Y14452D02*
X4294Y14452D01*
X4164Y14148D01*
X3667Y18326D02*
X3566Y18470D01*
X3494Y18326D02*
X3494Y18629D01*
X3609Y18629D01*
X3638Y18614D01*
X3652Y18600D01*
X3667Y18571D01*
X3667Y18528D01*
X3652Y18499D01*
X3638Y18484D01*
X3609Y18470D01*
X3494Y18470D01*
X3782Y18600D02*
X3797Y18614D01*
X3826Y18629D01*
X3898Y18629D01*
X3927Y18614D01*
X3941Y18600D01*
X3956Y18571D01*
X3956Y18542D01*
X3941Y18499D01*
X3768Y18326D01*
X3956Y18326D01*
X4215Y18629D02*
X4158Y18629D01*
X4129Y18614D01*
X4114Y18600D01*
X4085Y18557D01*
X4071Y18499D01*
X4071Y18383D01*
X4085Y18354D01*
X4100Y18340D01*
X4129Y18326D01*
X4187Y18326D01*
X4215Y18340D01*
X4230Y18354D01*
X4244Y18383D01*
X4244Y18456D01*
X4230Y18484D01*
X4215Y18499D01*
X4187Y18513D01*
X4129Y18513D01*
X4100Y18499D01*
X4085Y18484D01*
X4071Y18456D01*
X2588Y17298D02*
X2487Y17442D01*
X2415Y17298D02*
X2415Y17601D01*
X2530Y17601D01*
X2559Y17587D01*
X2574Y17572D01*
X2588Y17543D01*
X2588Y17500D01*
X2574Y17471D01*
X2559Y17457D01*
X2530Y17442D01*
X2415Y17442D01*
X2704Y17572D02*
X2718Y17587D01*
X2747Y17601D01*
X2819Y17601D01*
X2848Y17587D01*
X2862Y17572D01*
X2877Y17543D01*
X2877Y17515D01*
X2862Y17471D01*
X2689Y17298D01*
X2877Y17298D01*
X3151Y17601D02*
X3007Y17601D01*
X2992Y17457D01*
X3007Y17471D01*
X3036Y17486D01*
X3108Y17486D01*
X3137Y17471D01*
X3151Y17457D01*
X3166Y17428D01*
X3166Y17356D01*
X3151Y17327D01*
X3137Y17312D01*
X3108Y17298D01*
X3036Y17298D01*
X3007Y17312D01*
X2992Y17327D01*
X13713Y8954D02*
X13568Y8853D01*
X13713Y8781D02*
X13410Y8781D01*
X13410Y8896D01*
X13424Y8925D01*
X13438Y8940D01*
X13467Y8954D01*
X13511Y8954D01*
X13540Y8940D01*
X13554Y8925D01*
X13568Y8896D01*
X13568Y8781D01*
X13511Y9214D02*
X13713Y9214D01*
X13395Y9142D02*
X13612Y9070D01*
X13612Y9257D01*
X13511Y9503D02*
X13713Y9503D01*
X13395Y9431D02*
X13612Y9358D01*
X13612Y9546D01*
X4630Y5312D02*
X4486Y5211D01*
X4630Y5139D02*
X4327Y5139D01*
X4327Y5255D01*
X4341Y5284D01*
X4356Y5298D01*
X4385Y5312D01*
X4428Y5312D01*
X4457Y5298D01*
X4471Y5284D01*
X4486Y5255D01*
X4486Y5139D01*
X4630Y5601D02*
X4630Y5428D01*
X4630Y5515D02*
X4327Y5515D01*
X4370Y5486D01*
X4399Y5457D01*
X4414Y5428D01*
X4428Y5861D02*
X4630Y5861D01*
X4312Y5789D02*
X4529Y5717D01*
X4529Y5904D01*
X15110Y4307D02*
X14966Y4206D01*
X15110Y4134D02*
X14807Y4134D01*
X14807Y4250D01*
X14822Y4278D01*
X14836Y4293D01*
X14865Y4307D01*
X14908Y4307D01*
X14937Y4293D01*
X14952Y4278D01*
X14966Y4250D01*
X14966Y4134D01*
X14908Y4567D02*
X15110Y4567D01*
X14793Y4495D02*
X15009Y4423D01*
X15009Y4610D01*
X13591Y5244D02*
X13446Y5143D01*
X13591Y5071D02*
X13288Y5071D01*
X13288Y5187D01*
X13302Y5215D01*
X13316Y5230D01*
X13345Y5244D01*
X13389Y5244D01*
X13417Y5230D01*
X13432Y5215D01*
X13446Y5187D01*
X13446Y5071D01*
X13288Y5519D02*
X13288Y5374D01*
X13432Y5360D01*
X13417Y5374D01*
X13403Y5403D01*
X13403Y5475D01*
X13417Y5504D01*
X13432Y5519D01*
X13461Y5533D01*
X13533Y5533D01*
X13562Y5519D01*
X13576Y5504D01*
X13591Y5475D01*
X13591Y5403D01*
X13576Y5374D01*
X13562Y5360D01*
X12583Y5229D02*
X12438Y5127D01*
X12583Y5055D02*
X12280Y5055D01*
X12280Y5171D01*
X12294Y5200D01*
X12309Y5214D01*
X12337Y5229D01*
X12381Y5229D01*
X12410Y5214D01*
X12424Y5200D01*
X12438Y5171D01*
X12438Y5055D01*
X12280Y5488D02*
X12280Y5431D01*
X12294Y5402D01*
X12309Y5387D01*
X12352Y5358D01*
X12410Y5344D01*
X12525Y5344D01*
X12554Y5358D01*
X12568Y5373D01*
X12583Y5402D01*
X12583Y5459D01*
X12568Y5488D01*
X12554Y5503D01*
X12525Y5517D01*
X12453Y5517D01*
X12424Y5503D01*
X12410Y5488D01*
X12395Y5459D01*
X12395Y5402D01*
X12410Y5373D01*
X12424Y5358D01*
X12453Y5344D01*
X10614Y5240D02*
X10470Y5139D01*
X10614Y5067D02*
X10311Y5067D01*
X10311Y5183D01*
X10326Y5211D01*
X10340Y5226D01*
X10369Y5240D01*
X10412Y5240D01*
X10441Y5226D01*
X10456Y5211D01*
X10470Y5183D01*
X10470Y5067D01*
X10441Y5414D02*
X10427Y5385D01*
X10412Y5370D01*
X10383Y5356D01*
X10369Y5356D01*
X10340Y5370D01*
X10326Y5385D01*
X10311Y5414D01*
X10311Y5471D01*
X10326Y5500D01*
X10340Y5515D01*
X10369Y5529D01*
X10383Y5529D01*
X10412Y5515D01*
X10427Y5500D01*
X10441Y5471D01*
X10441Y5414D01*
X10456Y5385D01*
X10470Y5370D01*
X10499Y5356D01*
X10557Y5356D01*
X10585Y5370D01*
X10600Y5385D01*
X10614Y5414D01*
X10614Y5471D01*
X10600Y5500D01*
X10585Y5515D01*
X10557Y5529D01*
X10499Y5529D01*
X10470Y5515D01*
X10456Y5500D01*
X10441Y5471D01*
X11583Y5236D02*
X11438Y5135D01*
X11583Y5063D02*
X11280Y5063D01*
X11280Y5179D01*
X11294Y5208D01*
X11309Y5222D01*
X11337Y5236D01*
X11381Y5236D01*
X11410Y5222D01*
X11424Y5208D01*
X11438Y5179D01*
X11438Y5063D01*
X11280Y5337D02*
X11280Y5540D01*
X11583Y5410D01*
X10087Y4303D02*
X9942Y4202D01*
X10087Y4130D02*
X9784Y4130D01*
X9784Y4246D01*
X9798Y4274D01*
X9812Y4289D01*
X9841Y4303D01*
X9885Y4303D01*
X9914Y4289D01*
X9928Y4274D01*
X9942Y4246D01*
X9942Y4130D01*
X10087Y4448D02*
X10087Y4505D01*
X10072Y4534D01*
X10058Y4549D01*
X10015Y4578D01*
X9957Y4592D01*
X9841Y4592D01*
X9812Y4578D01*
X9798Y4563D01*
X9784Y4534D01*
X9784Y4477D01*
X9798Y4448D01*
X9812Y4433D01*
X9841Y4419D01*
X9914Y4419D01*
X9942Y4433D01*
X9957Y4448D01*
X9971Y4477D01*
X9971Y4534D01*
X9957Y4563D01*
X9942Y4578D01*
X9914Y4592D01*
X9083Y4139D02*
X8938Y4038D01*
X9083Y3966D02*
X8780Y3966D01*
X8780Y4082D01*
X8794Y4110D01*
X8809Y4125D01*
X8837Y4139D01*
X8881Y4139D01*
X8910Y4125D01*
X8924Y4110D01*
X8938Y4082D01*
X8938Y3966D01*
X9083Y4428D02*
X9083Y4255D01*
X9083Y4341D02*
X8780Y4341D01*
X8823Y4312D01*
X8852Y4284D01*
X8866Y4255D01*
X8780Y4616D02*
X8780Y4645D01*
X8794Y4673D01*
X8809Y4688D01*
X8837Y4702D01*
X8895Y4717D01*
X8967Y4717D01*
X9025Y4702D01*
X9054Y4688D01*
X9068Y4673D01*
X9083Y4645D01*
X9083Y4616D01*
X9068Y4587D01*
X9054Y4572D01*
X9025Y4558D01*
X8967Y4543D01*
X8895Y4543D01*
X8837Y4558D01*
X8809Y4572D01*
X8794Y4587D01*
X8780Y4616D01*
X7579Y5206D02*
X7435Y5105D01*
X7579Y5033D02*
X7276Y5033D01*
X7276Y5148D01*
X7290Y5177D01*
X7305Y5192D01*
X7333Y5206D01*
X7377Y5206D01*
X7406Y5192D01*
X7420Y5177D01*
X7435Y5148D01*
X7435Y5033D01*
X7579Y5495D02*
X7579Y5322D01*
X7579Y5408D02*
X7276Y5408D01*
X7319Y5379D01*
X7348Y5351D01*
X7362Y5322D01*
X7579Y5784D02*
X7579Y5610D01*
X7579Y5697D02*
X7276Y5697D01*
X7319Y5668D01*
X7348Y5639D01*
X7362Y5610D01*
X6445Y5238D02*
X6301Y5137D01*
X6445Y5064D02*
X6142Y5064D01*
X6142Y5180D01*
X6156Y5209D01*
X6171Y5223D01*
X6200Y5238D01*
X6243Y5238D01*
X6272Y5223D01*
X6286Y5209D01*
X6301Y5180D01*
X6301Y5064D01*
X6445Y5526D02*
X6445Y5353D01*
X6445Y5440D02*
X6142Y5440D01*
X6185Y5411D01*
X6214Y5382D01*
X6229Y5353D01*
X6171Y5642D02*
X6156Y5656D01*
X6142Y5685D01*
X6142Y5757D01*
X6156Y5786D01*
X6171Y5801D01*
X6200Y5815D01*
X6229Y5815D01*
X6272Y5801D01*
X6445Y5627D01*
X6445Y5815D01*
X5606Y5210D02*
X5462Y5109D01*
X5606Y5037D02*
X5303Y5037D01*
X5303Y5152D01*
X5318Y5181D01*
X5332Y5196D01*
X5361Y5210D01*
X5404Y5210D01*
X5433Y5196D01*
X5448Y5181D01*
X5462Y5152D01*
X5462Y5037D01*
X5606Y5499D02*
X5606Y5326D01*
X5606Y5412D02*
X5303Y5412D01*
X5347Y5383D01*
X5375Y5354D01*
X5390Y5326D01*
X5303Y5600D02*
X5303Y5788D01*
X5419Y5687D01*
X5419Y5730D01*
X5433Y5759D01*
X5448Y5773D01*
X5477Y5788D01*
X5549Y5788D01*
X5578Y5773D01*
X5592Y5759D01*
X5606Y5730D01*
X5606Y5643D01*
X5592Y5614D01*
X5578Y5600D01*
X10403Y20735D02*
X10302Y20879D01*
X10230Y20735D02*
X10230Y21038D01*
X10345Y21038D01*
X10374Y21024D01*
X10389Y21009D01*
X10403Y20980D01*
X10403Y20937D01*
X10389Y20908D01*
X10374Y20894D01*
X10345Y20879D01*
X10230Y20879D01*
X10677Y21038D02*
X10533Y21038D01*
X10519Y20894D01*
X10533Y20908D01*
X10562Y20923D01*
X10634Y20923D01*
X10663Y20908D01*
X10677Y20894D01*
X10692Y20865D01*
X10692Y20793D01*
X10677Y20764D01*
X10663Y20750D01*
X10634Y20735D01*
X10562Y20735D01*
X10533Y20750D01*
X10519Y20764D01*
X10865Y20908D02*
X10836Y20923D01*
X10822Y20937D01*
X10807Y20966D01*
X10807Y20980D01*
X10822Y21009D01*
X10836Y21024D01*
X10865Y21038D01*
X10923Y21038D01*
X10952Y21024D01*
X10966Y21009D01*
X10980Y20980D01*
X10980Y20966D01*
X10966Y20937D01*
X10952Y20923D01*
X10923Y20908D01*
X10865Y20908D01*
X10836Y20894D01*
X10822Y20879D01*
X10807Y20851D01*
X10807Y20793D01*
X10822Y20764D01*
X10836Y20750D01*
X10865Y20735D01*
X10923Y20735D01*
X10952Y20750D01*
X10966Y20764D01*
X10980Y20793D01*
X10980Y20851D01*
X10966Y20879D01*
X10952Y20894D01*
X10923Y20908D01*
X3738Y14877D02*
X3637Y15021D01*
X3564Y14877D02*
X3564Y15180D01*
X3680Y15180D01*
X3709Y15166D01*
X3723Y15151D01*
X3738Y15122D01*
X3738Y15079D01*
X3723Y15050D01*
X3709Y15036D01*
X3680Y15021D01*
X3564Y15021D01*
X3998Y15079D02*
X3998Y14877D01*
X3925Y15194D02*
X3853Y14978D01*
X4041Y14978D01*
X4127Y15180D02*
X4315Y15180D01*
X4214Y15064D01*
X4257Y15064D01*
X4286Y15050D01*
X4301Y15036D01*
X4315Y15007D01*
X4315Y14935D01*
X4301Y14906D01*
X4286Y14891D01*
X4257Y14877D01*
X4171Y14877D01*
X4142Y14891D01*
X4127Y14906D01*
X2545Y16101D02*
X2444Y16246D01*
X2372Y16101D02*
X2372Y16404D01*
X2487Y16404D01*
X2516Y16390D01*
X2530Y16375D01*
X2545Y16347D01*
X2545Y16303D01*
X2530Y16274D01*
X2516Y16260D01*
X2487Y16246D01*
X2372Y16246D01*
X2805Y16303D02*
X2805Y16101D01*
X2732Y16419D02*
X2660Y16202D01*
X2848Y16202D01*
X2949Y16375D02*
X2963Y16390D01*
X2992Y16404D01*
X3064Y16404D01*
X3093Y16390D01*
X3108Y16375D01*
X3122Y16347D01*
X3122Y16318D01*
X3108Y16274D01*
X2935Y16101D01*
X3122Y16101D01*
X14106Y5860D02*
X13962Y5759D01*
X14106Y5687D02*
X13803Y5687D01*
X13803Y5802D01*
X13818Y5831D01*
X13832Y5845D01*
X13861Y5860D01*
X13904Y5860D01*
X13933Y5845D01*
X13948Y5831D01*
X13962Y5802D01*
X13962Y5687D01*
X13803Y6134D02*
X13803Y5990D01*
X13948Y5975D01*
X13933Y5990D01*
X13919Y6019D01*
X13919Y6091D01*
X13933Y6120D01*
X13948Y6134D01*
X13977Y6148D01*
X14049Y6148D01*
X14078Y6134D01*
X14092Y6120D01*
X14106Y6091D01*
X14106Y6019D01*
X14092Y5990D01*
X14078Y5975D01*
X14106Y6437D02*
X14106Y6264D01*
X14106Y6351D02*
X13803Y6351D01*
X13847Y6322D01*
X13875Y6293D01*
X13890Y6264D01*
X14962Y5074D02*
X14861Y5218D01*
X14789Y5074D02*
X14789Y5377D01*
X14904Y5377D01*
X14933Y5362D01*
X14948Y5348D01*
X14962Y5319D01*
X14962Y5276D01*
X14948Y5247D01*
X14933Y5232D01*
X14904Y5218D01*
X14789Y5218D01*
X15236Y5377D02*
X15092Y5377D01*
X15078Y5232D01*
X15092Y5247D01*
X15121Y5261D01*
X15193Y5261D01*
X15222Y5247D01*
X15236Y5232D01*
X15251Y5204D01*
X15251Y5131D01*
X15236Y5103D01*
X15222Y5088D01*
X15193Y5074D01*
X15121Y5074D01*
X15092Y5088D01*
X15078Y5103D01*
X15438Y5377D02*
X15467Y5377D01*
X15496Y5362D01*
X15511Y5348D01*
X15525Y5319D01*
X15540Y5261D01*
X15540Y5189D01*
X15525Y5131D01*
X15511Y5103D01*
X15496Y5088D01*
X15467Y5074D01*
X15438Y5074D01*
X15410Y5088D01*
X15395Y5103D01*
X15381Y5131D01*
X15366Y5189D01*
X15366Y5261D01*
X15381Y5319D01*
X15395Y5348D01*
X15410Y5362D01*
X15438Y5377D01*
X15478Y6715D02*
X15377Y6860D01*
X15305Y6715D02*
X15305Y7019D01*
X15420Y7019D01*
X15449Y7004D01*
X15463Y6990D01*
X15478Y6961D01*
X15478Y6917D01*
X15463Y6889D01*
X15449Y6874D01*
X15420Y6860D01*
X15305Y6860D01*
X15738Y6917D02*
X15738Y6715D01*
X15666Y7033D02*
X15593Y6816D01*
X15781Y6816D01*
X15911Y6715D02*
X15969Y6715D01*
X15998Y6730D01*
X16012Y6744D01*
X16041Y6788D01*
X16055Y6845D01*
X16055Y6961D01*
X16041Y6990D01*
X16026Y7004D01*
X15998Y7019D01*
X15940Y7019D01*
X15911Y7004D01*
X15896Y6990D01*
X15882Y6961D01*
X15882Y6889D01*
X15896Y6860D01*
X15911Y6845D01*
X15940Y6831D01*
X15998Y6831D01*
X16026Y6845D01*
X16041Y6860D01*
X16055Y6889D01*
X2938Y4963D02*
X2837Y5108D01*
X2765Y4963D02*
X2765Y5267D01*
X2881Y5267D01*
X2910Y5252D01*
X2924Y5238D01*
X2938Y5209D01*
X2938Y5166D01*
X2924Y5137D01*
X2910Y5122D01*
X2881Y5108D01*
X2765Y5108D01*
X3227Y4963D02*
X3054Y4963D01*
X3141Y4963D02*
X3141Y5267D01*
X3112Y5223D01*
X3083Y5194D01*
X3054Y5180D01*
X3400Y5137D02*
X3372Y5151D01*
X3357Y5166D01*
X3343Y5194D01*
X3343Y5209D01*
X3357Y5238D01*
X3372Y5252D01*
X3400Y5267D01*
X3458Y5267D01*
X3487Y5252D01*
X3501Y5238D01*
X3516Y5209D01*
X3516Y5194D01*
X3501Y5166D01*
X3487Y5151D01*
X3458Y5137D01*
X3400Y5137D01*
X3372Y5122D01*
X3357Y5108D01*
X3343Y5079D01*
X3343Y5021D01*
X3357Y4992D01*
X3372Y4978D01*
X3400Y4963D01*
X3458Y4963D01*
X3487Y4978D01*
X3501Y4992D01*
X3516Y5021D01*
X3516Y5079D01*
X3501Y5108D01*
X3487Y5122D01*
X3458Y5137D01*
X8616Y20672D02*
X8515Y20816D01*
X8442Y20672D02*
X8442Y20975D01*
X8558Y20975D01*
X8587Y20961D01*
X8601Y20946D01*
X8616Y20917D01*
X8616Y20874D01*
X8601Y20845D01*
X8587Y20831D01*
X8558Y20816D01*
X8442Y20816D01*
X8717Y20975D02*
X8904Y20975D01*
X8803Y20860D01*
X8847Y20860D01*
X8875Y20845D01*
X8890Y20831D01*
X8904Y20802D01*
X8904Y20730D01*
X8890Y20701D01*
X8875Y20687D01*
X8847Y20672D01*
X8760Y20672D01*
X8731Y20687D01*
X8717Y20701D01*
X9193Y20672D02*
X9020Y20672D01*
X9106Y20672D02*
X9106Y20975D01*
X9078Y20932D01*
X9049Y20903D01*
X9020Y20889D01*
X16099Y4248D02*
X15954Y4147D01*
X16099Y4075D02*
X15795Y4075D01*
X15795Y4190D01*
X15810Y4219D01*
X15824Y4234D01*
X15853Y4248D01*
X15896Y4248D01*
X15925Y4234D01*
X15940Y4219D01*
X15954Y4190D01*
X15954Y4075D01*
X15795Y4349D02*
X15795Y4537D01*
X15911Y4436D01*
X15911Y4479D01*
X15925Y4508D01*
X15940Y4522D01*
X15969Y4537D01*
X16041Y4537D01*
X16070Y4522D01*
X16084Y4508D01*
X16099Y4479D01*
X16099Y4393D01*
X16084Y4364D01*
X16070Y4349D01*
X3690Y18944D02*
X3589Y19088D01*
X3517Y18944D02*
X3517Y19247D01*
X3633Y19247D01*
X3662Y19232D01*
X3676Y19218D01*
X3690Y19189D01*
X3690Y19146D01*
X3676Y19117D01*
X3662Y19103D01*
X3633Y19088D01*
X3517Y19088D01*
X3950Y19146D02*
X3950Y18944D01*
X3878Y19261D02*
X3806Y19045D01*
X3994Y19045D01*
X4268Y18944D02*
X4095Y18944D01*
X4181Y18944D02*
X4181Y19247D01*
X4152Y19204D01*
X4124Y19175D01*
X4095Y19160D01*
X3005Y20605D02*
X2904Y20750D01*
X2832Y20605D02*
X2832Y20908D01*
X2948Y20908D01*
X2977Y20894D01*
X2991Y20879D01*
X3005Y20851D01*
X3005Y20807D01*
X2991Y20778D01*
X2977Y20764D01*
X2948Y20750D01*
X2832Y20750D01*
X3265Y20807D02*
X3265Y20605D01*
X3193Y20923D02*
X3121Y20706D01*
X3309Y20706D01*
X3482Y20908D02*
X3511Y20908D01*
X3540Y20894D01*
X3554Y20879D01*
X3568Y20851D01*
X3583Y20793D01*
X3583Y20721D01*
X3568Y20663D01*
X3554Y20634D01*
X3540Y20620D01*
X3511Y20605D01*
X3482Y20605D01*
X3453Y20620D01*
X3438Y20634D01*
X3424Y20663D01*
X3410Y20721D01*
X3410Y20793D01*
X3424Y20851D01*
X3438Y20879D01*
X3453Y20894D01*
X3482Y20908D01*
X14773Y7251D02*
X14672Y7395D01*
X14600Y7251D02*
X14600Y7554D01*
X14715Y7554D01*
X14744Y7540D01*
X14759Y7525D01*
X14773Y7496D01*
X14773Y7453D01*
X14759Y7424D01*
X14744Y7410D01*
X14715Y7395D01*
X14600Y7395D01*
X15033Y7453D02*
X15033Y7251D01*
X14961Y7568D02*
X14889Y7352D01*
X15076Y7352D01*
X15322Y7554D02*
X15264Y7554D01*
X15235Y7540D01*
X15221Y7525D01*
X15192Y7482D01*
X15177Y7424D01*
X15177Y7309D01*
X15192Y7280D01*
X15206Y7265D01*
X15235Y7251D01*
X15293Y7251D01*
X15322Y7265D01*
X15336Y7280D01*
X15351Y7309D01*
X15351Y7381D01*
X15336Y7410D01*
X15322Y7424D01*
X15293Y7438D01*
X15235Y7438D01*
X15206Y7424D01*
X15192Y7410D01*
X15177Y7381D01*
X3832Y9070D02*
X3731Y9214D01*
X3659Y9070D02*
X3659Y9373D01*
X3774Y9373D01*
X3803Y9358D01*
X3818Y9344D01*
X3832Y9315D01*
X3832Y9272D01*
X3818Y9243D01*
X3803Y9229D01*
X3774Y9214D01*
X3659Y9214D01*
X4121Y9070D02*
X3948Y9070D01*
X4034Y9070D02*
X4034Y9373D01*
X4005Y9330D01*
X3977Y9301D01*
X3948Y9286D01*
X4265Y9070D02*
X4323Y9070D01*
X4352Y9084D01*
X4366Y9099D01*
X4395Y9142D01*
X4410Y9200D01*
X4410Y9315D01*
X4395Y9344D01*
X4381Y9358D01*
X4352Y9373D01*
X4294Y9373D01*
X4265Y9358D01*
X4251Y9344D01*
X4236Y9315D01*
X4236Y9243D01*
X4251Y9214D01*
X4265Y9200D01*
X4294Y9185D01*
X4352Y9185D01*
X4381Y9200D01*
X4395Y9214D01*
X4410Y9243D01*
X3852Y7491D02*
X3751Y7635D01*
X3679Y7491D02*
X3679Y7794D01*
X3794Y7794D01*
X3823Y7780D01*
X3837Y7765D01*
X3852Y7736D01*
X3852Y7693D01*
X3837Y7664D01*
X3823Y7650D01*
X3794Y7635D01*
X3679Y7635D01*
X3967Y7765D02*
X3982Y7780D01*
X4011Y7794D01*
X4083Y7794D01*
X4112Y7780D01*
X4126Y7765D01*
X4141Y7736D01*
X4141Y7708D01*
X4126Y7664D01*
X3953Y7491D01*
X4141Y7491D01*
X4285Y7491D02*
X4343Y7491D01*
X4372Y7505D01*
X4386Y7520D01*
X4415Y7563D01*
X4429Y7621D01*
X4429Y7736D01*
X4415Y7765D01*
X4400Y7780D01*
X4372Y7794D01*
X4314Y7794D01*
X4285Y7780D01*
X4270Y7765D01*
X4256Y7736D01*
X4256Y7664D01*
X4270Y7635D01*
X4285Y7621D01*
X4314Y7606D01*
X4372Y7606D01*
X4400Y7621D01*
X4415Y7635D01*
X4429Y7664D01*
X3588Y8436D02*
X3487Y8580D01*
X3415Y8436D02*
X3415Y8739D01*
X3530Y8739D01*
X3559Y8725D01*
X3574Y8710D01*
X3588Y8681D01*
X3588Y8638D01*
X3574Y8609D01*
X3559Y8595D01*
X3530Y8580D01*
X3415Y8580D01*
X3704Y8710D02*
X3718Y8725D01*
X3747Y8739D01*
X3819Y8739D01*
X3848Y8725D01*
X3862Y8710D01*
X3877Y8681D01*
X3877Y8652D01*
X3862Y8609D01*
X3689Y8436D01*
X3877Y8436D01*
X4064Y8739D02*
X4093Y8739D01*
X4122Y8725D01*
X4137Y8710D01*
X4151Y8681D01*
X4166Y8624D01*
X4166Y8551D01*
X4151Y8494D01*
X4137Y8465D01*
X4122Y8450D01*
X4093Y8436D01*
X4064Y8436D01*
X4036Y8450D01*
X4021Y8465D01*
X4007Y8494D01*
X3992Y8551D01*
X3992Y8624D01*
X4007Y8681D01*
X4021Y8710D01*
X4036Y8725D01*
X4064Y8739D01*
X3461Y10415D02*
X3316Y10314D01*
X3461Y10242D02*
X3158Y10242D01*
X3158Y10357D01*
X3172Y10386D01*
X3187Y10400D01*
X3215Y10415D01*
X3259Y10415D01*
X3288Y10400D01*
X3302Y10386D01*
X3316Y10357D01*
X3316Y10242D01*
X3158Y10516D02*
X3158Y10704D01*
X3273Y10603D01*
X3273Y10646D01*
X3288Y10675D01*
X3302Y10689D01*
X3331Y10704D01*
X3403Y10704D01*
X3432Y10689D01*
X3446Y10675D01*
X3461Y10646D01*
X3461Y10559D01*
X3446Y10530D01*
X3432Y10516D01*
X3158Y10891D02*
X3158Y10920D01*
X3172Y10949D01*
X3187Y10963D01*
X3215Y10978D01*
X3273Y10992D01*
X3345Y10992D01*
X3403Y10978D01*
X3432Y10963D01*
X3446Y10949D01*
X3461Y10920D01*
X3461Y10891D01*
X3446Y10862D01*
X3432Y10848D01*
X3403Y10833D01*
X3345Y10819D01*
X3273Y10819D01*
X3215Y10833D01*
X3187Y10848D01*
X3172Y10862D01*
X3158Y10891D01*
X2087Y6508D02*
X1942Y6407D01*
X2087Y6335D02*
X1784Y6335D01*
X1784Y6450D01*
X1798Y6479D01*
X1812Y6494D01*
X1841Y6508D01*
X1885Y6508D01*
X1914Y6494D01*
X1928Y6479D01*
X1942Y6450D01*
X1942Y6335D01*
X1812Y6624D02*
X1798Y6638D01*
X1784Y6667D01*
X1784Y6739D01*
X1798Y6768D01*
X1812Y6782D01*
X1841Y6797D01*
X1870Y6797D01*
X1914Y6782D01*
X2087Y6609D01*
X2087Y6797D01*
X3047Y5921D02*
X2903Y5820D01*
X3047Y5748D02*
X2744Y5748D01*
X2744Y5864D01*
X2759Y5893D01*
X2773Y5907D01*
X2802Y5921D01*
X2845Y5921D01*
X2874Y5907D01*
X2889Y5893D01*
X2903Y5864D01*
X2903Y5748D01*
X3047Y6210D02*
X3047Y6037D01*
X3047Y6124D02*
X2744Y6124D01*
X2788Y6095D01*
X2816Y6066D01*
X2831Y6037D01*
X14358Y10557D02*
X14214Y10456D01*
X14358Y10383D02*
X14055Y10383D01*
X14055Y10499D01*
X14070Y10528D01*
X14084Y10542D01*
X14113Y10557D01*
X14156Y10557D01*
X14185Y10542D01*
X14200Y10528D01*
X14214Y10499D01*
X14214Y10383D01*
X14358Y10845D02*
X14358Y10672D01*
X14358Y10759D02*
X14055Y10759D01*
X14099Y10730D01*
X14127Y10701D01*
X14142Y10672D01*
X14055Y11120D02*
X14055Y10975D01*
X14200Y10961D01*
X14185Y10975D01*
X14171Y11004D01*
X14171Y11076D01*
X14185Y11105D01*
X14200Y11120D01*
X14229Y11134D01*
X14301Y11134D01*
X14330Y11120D01*
X14344Y11105D01*
X14358Y11076D01*
X14358Y11004D01*
X14344Y10975D01*
X14330Y10961D01*
X14005Y12550D02*
X13904Y12694D01*
X13832Y12550D02*
X13832Y12853D01*
X13948Y12853D01*
X13977Y12839D01*
X13991Y12824D01*
X14005Y12795D01*
X14005Y12752D01*
X13991Y12723D01*
X13977Y12709D01*
X13948Y12694D01*
X13832Y12694D01*
X14294Y12550D02*
X14121Y12550D01*
X14208Y12550D02*
X14208Y12853D01*
X14179Y12810D01*
X14150Y12781D01*
X14121Y12767D01*
X14554Y12853D02*
X14496Y12853D01*
X14467Y12839D01*
X14453Y12824D01*
X14424Y12781D01*
X14410Y12723D01*
X14410Y12608D01*
X14424Y12579D01*
X14438Y12564D01*
X14467Y12550D01*
X14525Y12550D01*
X14554Y12564D01*
X14568Y12579D01*
X14583Y12608D01*
X14583Y12680D01*
X14568Y12709D01*
X14554Y12723D01*
X14525Y12738D01*
X14467Y12738D01*
X14438Y12723D01*
X14424Y12709D01*
X14410Y12680D01*
X5116Y12692D02*
X5015Y12836D01*
X4942Y12692D02*
X4942Y12995D01*
X5058Y12995D01*
X5087Y12980D01*
X5101Y12966D01*
X5116Y12937D01*
X5116Y12894D01*
X5101Y12865D01*
X5087Y12851D01*
X5058Y12836D01*
X4942Y12836D01*
X5390Y12995D02*
X5246Y12995D01*
X5231Y12851D01*
X5246Y12865D01*
X5274Y12879D01*
X5347Y12879D01*
X5375Y12865D01*
X5390Y12851D01*
X5404Y12822D01*
X5404Y12750D01*
X5390Y12721D01*
X5375Y12706D01*
X5347Y12692D01*
X5274Y12692D01*
X5246Y12706D01*
X5231Y12721D01*
X5664Y12894D02*
X5664Y12692D01*
X5592Y13009D02*
X5520Y12793D01*
X5708Y12793D01*
X10264Y5820D02*
X10120Y5719D01*
X10264Y5647D02*
X9961Y5647D01*
X9961Y5763D01*
X9975Y5791D01*
X9990Y5806D01*
X10019Y5820D01*
X10062Y5820D01*
X10091Y5806D01*
X10105Y5791D01*
X10120Y5763D01*
X10120Y5647D01*
X9961Y6095D02*
X9961Y5950D01*
X10105Y5936D01*
X10091Y5950D01*
X10076Y5979D01*
X10076Y6051D01*
X10091Y6080D01*
X10105Y6095D01*
X10134Y6109D01*
X10206Y6109D01*
X10235Y6095D01*
X10250Y6080D01*
X10264Y6051D01*
X10264Y5979D01*
X10250Y5950D01*
X10235Y5936D01*
X9961Y6383D02*
X9961Y6239D01*
X10105Y6225D01*
X10091Y6239D01*
X10076Y6268D01*
X10076Y6340D01*
X10091Y6369D01*
X10105Y6383D01*
X10134Y6398D01*
X10206Y6398D01*
X10235Y6383D01*
X10250Y6369D01*
X10264Y6340D01*
X10264Y6268D01*
X10250Y6239D01*
X10235Y6225D01*
X1878Y16013D02*
X1575Y16013D01*
X1575Y16129D01*
X1589Y16158D01*
X1604Y16172D01*
X1633Y16187D01*
X1676Y16187D01*
X1705Y16172D01*
X1719Y16158D01*
X1734Y16129D01*
X1734Y16013D01*
X1878Y16475D02*
X1878Y16302D01*
X1878Y16389D02*
X1575Y16389D01*
X1618Y16360D01*
X1647Y16331D01*
X1662Y16302D01*
X1878Y16764D02*
X1878Y16591D01*
X1878Y16677D02*
X1575Y16677D01*
X1618Y16648D01*
X1647Y16620D01*
X1662Y16591D01*
X1862Y17563D02*
X1559Y17563D01*
X1559Y17679D01*
X1574Y17708D01*
X1588Y17722D01*
X1617Y17736D01*
X1660Y17736D01*
X1689Y17722D01*
X1704Y17708D01*
X1718Y17679D01*
X1718Y17563D01*
X1559Y17996D02*
X1559Y17938D01*
X1574Y17910D01*
X1588Y17895D01*
X1631Y17866D01*
X1689Y17852D01*
X1805Y17852D01*
X1833Y17866D01*
X1848Y17881D01*
X1862Y17910D01*
X1862Y17967D01*
X1848Y17996D01*
X1833Y18011D01*
X1805Y18025D01*
X1732Y18025D01*
X1704Y18011D01*
X1689Y17996D01*
X1675Y17967D01*
X1675Y17910D01*
X1689Y17881D01*
X1704Y17866D01*
X1732Y17852D01*
X16799Y1702D02*
X16496Y1702D01*
X16496Y1818D01*
X16511Y1847D01*
X16525Y1861D01*
X16554Y1875D01*
X16597Y1875D01*
X16626Y1861D01*
X16641Y1847D01*
X16655Y1818D01*
X16655Y1702D01*
X16799Y2164D02*
X16799Y1991D01*
X16799Y2078D02*
X16496Y2078D01*
X16540Y2049D01*
X16568Y2020D01*
X16583Y1991D01*
X16496Y2265D02*
X16496Y2453D01*
X16612Y2352D01*
X16612Y2395D01*
X16626Y2424D01*
X16641Y2438D01*
X16669Y2453D01*
X16742Y2453D01*
X16770Y2438D01*
X16785Y2424D01*
X16799Y2395D01*
X16799Y2309D01*
X16785Y2280D01*
X16770Y2265D01*
X16831Y14886D02*
X16528Y14886D01*
X16528Y15001D01*
X16542Y15030D01*
X16557Y15045D01*
X16585Y15059D01*
X16629Y15059D01*
X16658Y15045D01*
X16672Y15030D01*
X16687Y15001D01*
X16687Y14886D01*
X16831Y15204D02*
X16831Y15261D01*
X16816Y15290D01*
X16802Y15305D01*
X16759Y15333D01*
X16701Y15348D01*
X16585Y15348D01*
X16557Y15333D01*
X16542Y15319D01*
X16528Y15290D01*
X16528Y15232D01*
X16542Y15204D01*
X16557Y15189D01*
X16585Y15175D01*
X16658Y15175D01*
X16687Y15189D01*
X16701Y15204D01*
X16715Y15232D01*
X16715Y15290D01*
X16701Y15319D01*
X16687Y15333D01*
X16658Y15348D01*
X15945Y22294D02*
X15945Y22597D01*
X16061Y22597D01*
X16089Y22583D01*
X16104Y22568D01*
X16118Y22540D01*
X16118Y22496D01*
X16104Y22467D01*
X16089Y22453D01*
X16061Y22438D01*
X15945Y22438D01*
X16234Y22568D02*
X16248Y22583D01*
X16277Y22597D01*
X16349Y22597D01*
X16378Y22583D01*
X16393Y22568D01*
X16407Y22540D01*
X16407Y22511D01*
X16393Y22467D01*
X16219Y22294D01*
X16407Y22294D01*
X1673Y9622D02*
X1370Y9622D01*
X1370Y9738D01*
X1385Y9767D01*
X1399Y9781D01*
X1428Y9795D01*
X1471Y9795D01*
X1500Y9781D01*
X1515Y9767D01*
X1529Y9738D01*
X1529Y9622D01*
X1370Y10070D02*
X1370Y9925D01*
X1515Y9911D01*
X1500Y9925D01*
X1486Y9954D01*
X1486Y10026D01*
X1500Y10055D01*
X1515Y10070D01*
X1543Y10084D01*
X1616Y10084D01*
X1645Y10070D01*
X1659Y10055D01*
X1673Y10026D01*
X1673Y9954D01*
X1659Y9925D01*
X1645Y9911D01*
X1634Y1941D02*
X1331Y1941D01*
X1331Y2057D01*
X1345Y2085D01*
X1360Y2100D01*
X1389Y2114D01*
X1432Y2114D01*
X1461Y2100D01*
X1475Y2085D01*
X1490Y2057D01*
X1490Y1941D01*
X1331Y2215D02*
X1331Y2403D01*
X1446Y2302D01*
X1446Y2345D01*
X1461Y2374D01*
X1475Y2389D01*
X1504Y2403D01*
X1576Y2403D01*
X1605Y2389D01*
X1620Y2374D01*
X1634Y2345D01*
X1634Y2259D01*
X1620Y2230D01*
X1605Y2215D01*
X8614Y22133D02*
X8614Y22436D01*
X8730Y22436D01*
X8759Y22421D01*
X8773Y22407D01*
X8788Y22378D01*
X8788Y22335D01*
X8773Y22306D01*
X8759Y22291D01*
X8730Y22277D01*
X8614Y22277D01*
X8889Y22436D02*
X9091Y22436D01*
X8961Y22133D01*
X7343Y22345D02*
X7343Y22648D01*
X7458Y22648D01*
X7487Y22634D01*
X7501Y22620D01*
X7516Y22591D01*
X7516Y22547D01*
X7501Y22519D01*
X7487Y22504D01*
X7458Y22490D01*
X7343Y22490D01*
X7689Y22519D02*
X7660Y22533D01*
X7646Y22547D01*
X7631Y22576D01*
X7631Y22591D01*
X7646Y22620D01*
X7660Y22634D01*
X7689Y22648D01*
X7747Y22648D01*
X7776Y22634D01*
X7790Y22620D01*
X7805Y22591D01*
X7805Y22576D01*
X7790Y22547D01*
X7776Y22533D01*
X7747Y22519D01*
X7689Y22519D01*
X7660Y22504D01*
X7646Y22490D01*
X7631Y22461D01*
X7631Y22403D01*
X7646Y22374D01*
X7660Y22360D01*
X7689Y22345D01*
X7747Y22345D01*
X7776Y22360D01*
X7790Y22374D01*
X7805Y22403D01*
X7805Y22461D01*
X7790Y22490D01*
X7776Y22504D01*
X7747Y22519D01*
X16736Y9281D02*
X16433Y9281D01*
X16433Y9396D01*
X16448Y9425D01*
X16462Y9440D01*
X16491Y9454D01*
X16534Y9454D01*
X16563Y9440D01*
X16578Y9425D01*
X16592Y9396D01*
X16592Y9281D01*
X16736Y9743D02*
X16736Y9570D01*
X16736Y9656D02*
X16433Y9656D01*
X16477Y9627D01*
X16505Y9599D01*
X16520Y9570D01*
X16462Y9858D02*
X16448Y9873D01*
X16433Y9902D01*
X16433Y9974D01*
X16448Y10003D01*
X16462Y10017D01*
X16491Y10032D01*
X16520Y10032D01*
X16563Y10017D01*
X16736Y9844D01*
X16736Y10032D01*
X14115Y18487D02*
X14115Y18242D01*
X14129Y18213D01*
X14144Y18198D01*
X14173Y18184D01*
X14230Y18184D01*
X14259Y18198D01*
X14274Y18213D01*
X14288Y18242D01*
X14288Y18487D01*
X14447Y18184D02*
X14505Y18184D01*
X14534Y18198D01*
X14548Y18213D01*
X14577Y18256D01*
X14591Y18314D01*
X14591Y18429D01*
X14577Y18458D01*
X14562Y18473D01*
X14534Y18487D01*
X14476Y18487D01*
X14447Y18473D01*
X14433Y18458D01*
X14418Y18429D01*
X14418Y18357D01*
X14433Y18328D01*
X14447Y18314D01*
X14476Y18299D01*
X14534Y18299D01*
X14562Y18314D01*
X14577Y18328D01*
X14591Y18357D01*
X10762Y18184D02*
X10762Y17938D01*
X10776Y17910D01*
X10791Y17895D01*
X10820Y17881D01*
X10877Y17881D01*
X10906Y17895D01*
X10921Y17910D01*
X10935Y17938D01*
X10935Y18184D01*
X11238Y17881D02*
X11065Y17881D01*
X11152Y17881D02*
X11152Y18184D01*
X11123Y18141D01*
X11094Y18112D01*
X11065Y18097D01*
X11527Y17881D02*
X11354Y17881D01*
X11440Y17881D02*
X11440Y18184D01*
X11412Y18141D01*
X11383Y18112D01*
X11354Y18097D01*
X3933Y12652D02*
X3933Y12956D01*
X4005Y12956D01*
X4049Y12941D01*
X4078Y12912D01*
X4092Y12883D01*
X4106Y12826D01*
X4106Y12782D01*
X4092Y12725D01*
X4078Y12696D01*
X4049Y12667D01*
X4005Y12652D01*
X3933Y12652D01*
X4366Y12956D02*
X4309Y12956D01*
X4280Y12941D01*
X4265Y12927D01*
X4236Y12883D01*
X4222Y12826D01*
X4222Y12710D01*
X4236Y12681D01*
X4251Y12667D01*
X4280Y12652D01*
X4337Y12652D01*
X4366Y12667D01*
X4381Y12681D01*
X4395Y12710D01*
X4395Y12782D01*
X4381Y12811D01*
X4366Y12826D01*
X4337Y12840D01*
X4280Y12840D01*
X4251Y12826D01*
X4236Y12811D01*
X4222Y12782D01*
X8166Y5259D02*
X8166Y5562D01*
X8238Y5562D01*
X8281Y5547D01*
X8310Y5519D01*
X8324Y5490D01*
X8339Y5432D01*
X8339Y5389D01*
X8324Y5331D01*
X8310Y5302D01*
X8281Y5273D01*
X8238Y5259D01*
X8166Y5259D01*
X8440Y5562D02*
X8642Y5562D01*
X8512Y5259D01*
X8278Y15684D02*
X8278Y15438D01*
X8292Y15410D01*
X8307Y15395D01*
X8335Y15381D01*
X8393Y15381D01*
X8422Y15395D01*
X8437Y15410D01*
X8451Y15438D01*
X8451Y15684D01*
X8754Y15381D02*
X8581Y15381D01*
X8667Y15381D02*
X8667Y15684D01*
X8639Y15641D01*
X8610Y15612D01*
X8581Y15597D01*
X8942Y15684D02*
X8971Y15684D01*
X9000Y15669D01*
X9014Y15655D01*
X9028Y15626D01*
X9043Y15568D01*
X9043Y15496D01*
X9028Y15438D01*
X9014Y15410D01*
X9000Y15395D01*
X8971Y15381D01*
X8942Y15381D01*
X8913Y15395D01*
X8898Y15410D01*
X8884Y15438D01*
X8870Y15496D01*
X8870Y15568D01*
X8884Y15626D01*
X8898Y15655D01*
X8913Y15669D01*
X8942Y15684D01*
X16921Y10402D02*
X16618Y10402D01*
X16618Y10517D01*
X16633Y10546D01*
X16647Y10561D01*
X16676Y10575D01*
X16719Y10575D01*
X16748Y10561D01*
X16763Y10546D01*
X16777Y10517D01*
X16777Y10402D01*
X16719Y10835D02*
X16921Y10835D01*
X16604Y10763D02*
X16820Y10690D01*
X16820Y10878D01*
X2389Y803D02*
X2403Y789D01*
X2417Y746D01*
X2417Y717D01*
X2403Y673D01*
X2374Y645D01*
X2345Y630D01*
X2288Y616D01*
X2244Y616D01*
X2187Y630D01*
X2158Y645D01*
X2129Y673D01*
X2114Y717D01*
X2114Y746D01*
X2129Y789D01*
X2143Y803D01*
X2143Y919D02*
X2129Y933D01*
X2114Y962D01*
X2114Y1034D01*
X2129Y1063D01*
X2143Y1078D01*
X2172Y1092D01*
X2201Y1092D01*
X2244Y1078D01*
X2417Y904D01*
X2417Y1092D01*
X9574Y19612D02*
X9588Y19597D01*
X9603Y19554D01*
X9603Y19525D01*
X9588Y19482D01*
X9559Y19453D01*
X9530Y19438D01*
X9473Y19424D01*
X9429Y19424D01*
X9372Y19438D01*
X9343Y19453D01*
X9314Y19482D01*
X9299Y19525D01*
X9299Y19554D01*
X9314Y19597D01*
X9328Y19612D01*
X9400Y19872D02*
X9603Y19872D01*
X9285Y19799D02*
X9501Y19727D01*
X9501Y19915D01*
X9603Y20189D02*
X9603Y20016D01*
X9603Y20103D02*
X9299Y20103D01*
X9343Y20074D01*
X9372Y20045D01*
X9386Y20016D01*
X16267Y10411D02*
X16281Y10396D01*
X16295Y10353D01*
X16295Y10324D01*
X16281Y10281D01*
X16252Y10252D01*
X16223Y10238D01*
X16166Y10223D01*
X16122Y10223D01*
X16064Y10238D01*
X16036Y10252D01*
X16007Y10281D01*
X15992Y10324D01*
X15992Y10353D01*
X16007Y10396D01*
X16021Y10411D01*
X16295Y10700D02*
X16295Y10526D01*
X16295Y10613D02*
X15992Y10613D01*
X16036Y10584D01*
X16064Y10555D01*
X16079Y10526D01*
X15992Y10959D02*
X15992Y10902D01*
X16007Y10873D01*
X16021Y10858D01*
X16064Y10830D01*
X16122Y10815D01*
X16238Y10815D01*
X16267Y10830D01*
X16281Y10844D01*
X16295Y10873D01*
X16295Y10931D01*
X16281Y10959D01*
X16267Y10974D01*
X16238Y10988D01*
X16166Y10988D01*
X16137Y10974D01*
X16122Y10959D01*
X16108Y10931D01*
X16108Y10873D01*
X16122Y10844D01*
X16137Y10830D01*
X16166Y10815D01*
X10755Y15915D02*
X10769Y15900D01*
X10784Y15857D01*
X10784Y15828D01*
X10769Y15785D01*
X10740Y15756D01*
X10711Y15742D01*
X10654Y15727D01*
X10610Y15727D01*
X10553Y15742D01*
X10524Y15756D01*
X10495Y15785D01*
X10480Y15828D01*
X10480Y15857D01*
X10495Y15900D01*
X10509Y15915D01*
X10582Y16175D02*
X10784Y16175D01*
X10466Y16103D02*
X10683Y16030D01*
X10683Y16218D01*
X10509Y16319D02*
X10495Y16333D01*
X10480Y16362D01*
X10480Y16435D01*
X10495Y16463D01*
X10509Y16478D01*
X10538Y16492D01*
X10567Y16492D01*
X10610Y16478D01*
X10784Y16305D01*
X10784Y16492D01*
X11253Y20366D02*
X11239Y20352D01*
X11196Y20337D01*
X11167Y20337D01*
X11124Y20352D01*
X11095Y20381D01*
X11080Y20410D01*
X11066Y20467D01*
X11066Y20511D01*
X11080Y20568D01*
X11095Y20597D01*
X11124Y20626D01*
X11167Y20641D01*
X11196Y20641D01*
X11239Y20626D01*
X11253Y20612D01*
X11513Y20540D02*
X11513Y20337D01*
X11441Y20655D02*
X11369Y20438D01*
X11557Y20438D01*
X11816Y20641D02*
X11672Y20641D01*
X11658Y20496D01*
X11672Y20511D01*
X11701Y20525D01*
X11773Y20525D01*
X11802Y20511D01*
X11816Y20496D01*
X11831Y20467D01*
X11831Y20395D01*
X11816Y20366D01*
X11802Y20352D01*
X11773Y20337D01*
X11701Y20337D01*
X11672Y20352D01*
X11658Y20366D01*
X16385Y19029D02*
X16399Y19015D01*
X16414Y18971D01*
X16414Y18942D01*
X16399Y18899D01*
X16370Y18870D01*
X16341Y18856D01*
X16284Y18841D01*
X16240Y18841D01*
X16183Y18856D01*
X16154Y18870D01*
X16125Y18899D01*
X16110Y18942D01*
X16110Y18971D01*
X16125Y19015D01*
X16139Y19029D01*
X16211Y19289D02*
X16414Y19289D01*
X16096Y19217D02*
X16312Y19145D01*
X16312Y19332D01*
X16110Y19505D02*
X16110Y19534D01*
X16125Y19563D01*
X16139Y19578D01*
X16168Y19592D01*
X16226Y19606D01*
X16298Y19606D01*
X16356Y19592D01*
X16385Y19578D01*
X16399Y19563D01*
X16414Y19534D01*
X16414Y19505D01*
X16399Y19477D01*
X16385Y19462D01*
X16356Y19448D01*
X16298Y19433D01*
X16226Y19433D01*
X16168Y19448D01*
X16139Y19462D01*
X16125Y19477D01*
X16110Y19505D01*
X2387Y10370D02*
X2373Y10356D01*
X2330Y10341D01*
X2301Y10341D01*
X2257Y10356D01*
X2229Y10385D01*
X2214Y10414D01*
X2200Y10471D01*
X2200Y10515D01*
X2214Y10572D01*
X2229Y10601D01*
X2257Y10630D01*
X2301Y10645D01*
X2330Y10645D01*
X2373Y10630D01*
X2387Y10616D01*
X2676Y10341D02*
X2503Y10341D01*
X2589Y10341D02*
X2589Y10645D01*
X2561Y10601D01*
X2532Y10572D01*
X2503Y10558D01*
X2864Y10645D02*
X2893Y10645D01*
X2921Y10630D01*
X2936Y10616D01*
X2950Y10587D01*
X2965Y10529D01*
X2965Y10457D01*
X2950Y10399D01*
X2936Y10370D01*
X2921Y10356D01*
X2893Y10341D01*
X2864Y10341D01*
X2835Y10356D01*
X2820Y10370D01*
X2806Y10399D01*
X2791Y10457D01*
X2791Y10529D01*
X2806Y10587D01*
X2820Y10616D01*
X2835Y10630D01*
X2864Y10645D01*
X7452Y16860D02*
X7466Y16845D01*
X7480Y16802D01*
X7480Y16773D01*
X7466Y16730D01*
X7437Y16701D01*
X7408Y16687D01*
X7351Y16672D01*
X7307Y16672D01*
X7250Y16687D01*
X7221Y16701D01*
X7192Y16730D01*
X7177Y16773D01*
X7177Y16802D01*
X7192Y16845D01*
X7206Y16860D01*
X7278Y17120D02*
X7480Y17120D01*
X7163Y17047D02*
X7379Y16975D01*
X7379Y17163D01*
X7278Y17408D02*
X7480Y17408D01*
X7163Y17336D02*
X7379Y17264D01*
X7379Y17452D01*
X8655Y18689D02*
X8641Y18675D01*
X8597Y18660D01*
X8568Y18660D01*
X8525Y18675D01*
X8496Y18704D01*
X8482Y18732D01*
X8467Y18790D01*
X8467Y18833D01*
X8482Y18891D01*
X8496Y18920D01*
X8525Y18949D01*
X8568Y18963D01*
X8597Y18963D01*
X8641Y18949D01*
X8655Y18935D01*
X8915Y18862D02*
X8915Y18660D01*
X8843Y18978D02*
X8770Y18761D01*
X8958Y18761D01*
X9204Y18963D02*
X9146Y18963D01*
X9117Y18949D01*
X9103Y18935D01*
X9074Y18891D01*
X9059Y18833D01*
X9059Y18718D01*
X9074Y18689D01*
X9088Y18675D01*
X9117Y18660D01*
X9175Y18660D01*
X9204Y18675D01*
X9218Y18689D01*
X9232Y18718D01*
X9232Y18790D01*
X9218Y18819D01*
X9204Y18833D01*
X9175Y18848D01*
X9117Y18848D01*
X9088Y18833D01*
X9074Y18819D01*
X9059Y18790D01*
X13215Y20021D02*
X13230Y20007D01*
X13244Y19963D01*
X13244Y19935D01*
X13230Y19891D01*
X13201Y19862D01*
X13172Y19848D01*
X13114Y19833D01*
X13071Y19833D01*
X13013Y19848D01*
X12984Y19862D01*
X12956Y19891D01*
X12941Y19935D01*
X12941Y19963D01*
X12956Y20007D01*
X12970Y20021D01*
X13042Y20281D02*
X13244Y20281D01*
X12927Y20209D02*
X13143Y20137D01*
X13143Y20324D01*
X12941Y20411D02*
X12941Y20599D01*
X13057Y20498D01*
X13057Y20541D01*
X13071Y20570D01*
X13085Y20584D01*
X13114Y20599D01*
X13187Y20599D01*
X13215Y20584D01*
X13230Y20570D01*
X13244Y20541D01*
X13244Y20454D01*
X13230Y20425D01*
X13215Y20411D01*
X11277Y6142D02*
X11263Y6127D01*
X11219Y6113D01*
X11190Y6113D01*
X11147Y6127D01*
X11118Y6156D01*
X11104Y6185D01*
X11089Y6243D01*
X11089Y6286D01*
X11104Y6344D01*
X11118Y6373D01*
X11147Y6402D01*
X11190Y6416D01*
X11219Y6416D01*
X11263Y6402D01*
X11277Y6387D01*
X11378Y6416D02*
X11566Y6416D01*
X11465Y6301D01*
X11508Y6301D01*
X11537Y6286D01*
X11551Y6272D01*
X11566Y6243D01*
X11566Y6171D01*
X11551Y6142D01*
X11537Y6127D01*
X11508Y6113D01*
X11421Y6113D01*
X11393Y6127D01*
X11378Y6142D01*
X11753Y6416D02*
X11782Y6416D01*
X11811Y6402D01*
X11826Y6387D01*
X11840Y6358D01*
X11854Y6301D01*
X11854Y6229D01*
X11840Y6171D01*
X11826Y6142D01*
X11811Y6127D01*
X11782Y6113D01*
X11753Y6113D01*
X11725Y6127D01*
X11710Y6142D01*
X11696Y6171D01*
X11681Y6229D01*
X11681Y6301D01*
X11696Y6358D01*
X11710Y6387D01*
X11725Y6402D01*
X11753Y6416D01*
X1959Y23438D02*
X1974Y23424D01*
X1988Y23381D01*
X1988Y23352D01*
X1974Y23309D01*
X1945Y23280D01*
X1916Y23265D01*
X1858Y23251D01*
X1815Y23251D01*
X1757Y23265D01*
X1729Y23280D01*
X1700Y23309D01*
X1685Y23352D01*
X1685Y23381D01*
X1700Y23424D01*
X1714Y23438D01*
X1988Y23727D02*
X1988Y23554D01*
X1988Y23641D02*
X1685Y23641D01*
X1729Y23612D01*
X1757Y23583D01*
X1772Y23554D01*
X1786Y23987D02*
X1988Y23987D01*
X1671Y23915D02*
X1887Y23843D01*
X1887Y24030D01*
X4887Y9130D02*
X4873Y9116D01*
X4830Y9101D01*
X4801Y9101D01*
X4757Y9116D01*
X4729Y9145D01*
X4714Y9173D01*
X4700Y9231D01*
X4700Y9274D01*
X4714Y9332D01*
X4729Y9361D01*
X4757Y9390D01*
X4801Y9404D01*
X4830Y9404D01*
X4873Y9390D01*
X4887Y9375D01*
X5176Y9101D02*
X5003Y9101D01*
X5089Y9101D02*
X5089Y9404D01*
X5061Y9361D01*
X5032Y9332D01*
X5003Y9318D01*
X5291Y9375D02*
X5306Y9390D01*
X5335Y9404D01*
X5407Y9404D01*
X5436Y9390D01*
X5450Y9375D01*
X5465Y9347D01*
X5465Y9318D01*
X5450Y9274D01*
X5277Y9101D01*
X5465Y9101D01*
X5923Y13492D02*
X5908Y13478D01*
X5865Y13463D01*
X5836Y13463D01*
X5793Y13478D01*
X5764Y13507D01*
X5750Y13536D01*
X5735Y13593D01*
X5735Y13637D01*
X5750Y13694D01*
X5764Y13723D01*
X5793Y13752D01*
X5836Y13767D01*
X5865Y13767D01*
X5908Y13752D01*
X5923Y13738D01*
X6038Y13738D02*
X6053Y13752D01*
X6082Y13767D01*
X6154Y13767D01*
X6183Y13752D01*
X6197Y13738D01*
X6211Y13709D01*
X6211Y13680D01*
X6197Y13637D01*
X6024Y13463D01*
X6211Y13463D01*
X6385Y13637D02*
X6356Y13651D01*
X6341Y13666D01*
X6327Y13694D01*
X6327Y13709D01*
X6341Y13738D01*
X6356Y13752D01*
X6385Y13767D01*
X6442Y13767D01*
X6471Y13752D01*
X6486Y13738D01*
X6500Y13709D01*
X6500Y13694D01*
X6486Y13666D01*
X6471Y13651D01*
X6442Y13637D01*
X6385Y13637D01*
X6356Y13622D01*
X6341Y13608D01*
X6327Y13579D01*
X6327Y13521D01*
X6341Y13492D01*
X6356Y13478D01*
X6385Y13463D01*
X6442Y13463D01*
X6471Y13478D01*
X6486Y13492D01*
X6500Y13521D01*
X6500Y13579D01*
X6486Y13608D01*
X6471Y13622D01*
X6442Y13637D01*
X12714Y13268D02*
X12700Y13253D01*
X12656Y13239D01*
X12627Y13239D01*
X12584Y13253D01*
X12555Y13282D01*
X12541Y13311D01*
X12526Y13369D01*
X12526Y13412D01*
X12541Y13470D01*
X12555Y13499D01*
X12584Y13528D01*
X12627Y13542D01*
X12656Y13542D01*
X12700Y13528D01*
X12714Y13513D01*
X12830Y13513D02*
X12844Y13528D01*
X12873Y13542D01*
X12945Y13542D01*
X12974Y13528D01*
X12988Y13513D01*
X13003Y13484D01*
X13003Y13456D01*
X12988Y13412D01*
X12815Y13239D01*
X13003Y13239D01*
X13147Y13239D02*
X13205Y13239D01*
X13234Y13253D01*
X13248Y13268D01*
X13277Y13311D01*
X13291Y13369D01*
X13291Y13484D01*
X13277Y13513D01*
X13263Y13528D01*
X13234Y13542D01*
X13176Y13542D01*
X13147Y13528D01*
X13133Y13513D01*
X13118Y13484D01*
X13118Y13412D01*
X13133Y13383D01*
X13147Y13369D01*
X13176Y13354D01*
X13234Y13354D01*
X13263Y13369D01*
X13277Y13383D01*
X13291Y13412D01*
X2886Y6599D02*
X2872Y6584D01*
X2828Y6570D01*
X2799Y6570D01*
X2756Y6584D01*
X2727Y6613D01*
X2713Y6642D01*
X2698Y6700D01*
X2698Y6743D01*
X2713Y6801D01*
X2727Y6830D01*
X2756Y6858D01*
X2799Y6873D01*
X2828Y6873D01*
X2872Y6858D01*
X2886Y6844D01*
X3059Y6743D02*
X3030Y6757D01*
X3016Y6772D01*
X3001Y6801D01*
X3001Y6815D01*
X3016Y6844D01*
X3030Y6858D01*
X3059Y6873D01*
X3117Y6873D01*
X3146Y6858D01*
X3160Y6844D01*
X3175Y6815D01*
X3175Y6801D01*
X3160Y6772D01*
X3146Y6757D01*
X3117Y6743D01*
X3059Y6743D01*
X3030Y6729D01*
X3016Y6714D01*
X3001Y6685D01*
X3001Y6627D01*
X3016Y6599D01*
X3030Y6584D01*
X3059Y6570D01*
X3117Y6570D01*
X3146Y6584D01*
X3160Y6599D01*
X3175Y6627D01*
X3175Y6685D01*
X3160Y6714D01*
X3146Y6729D01*
X3117Y6743D01*
X12620Y21900D02*
X12519Y22045D01*
X12446Y21900D02*
X12446Y22204D01*
X12562Y22204D01*
X12591Y22189D01*
X12605Y22175D01*
X12620Y22146D01*
X12620Y22103D01*
X12605Y22074D01*
X12591Y22059D01*
X12562Y22045D01*
X12446Y22045D01*
X12879Y22204D02*
X12822Y22204D01*
X12793Y22189D01*
X12778Y22175D01*
X12750Y22131D01*
X12735Y22074D01*
X12735Y21958D01*
X12750Y21929D01*
X12764Y21915D01*
X12793Y21900D01*
X12851Y21900D01*
X12879Y21915D01*
X12894Y21929D01*
X12908Y21958D01*
X12908Y22030D01*
X12894Y22059D01*
X12879Y22074D01*
X12851Y22088D01*
X12793Y22088D01*
X12764Y22074D01*
X12750Y22059D01*
X12735Y22030D01*
X13096Y22204D02*
X13125Y22204D01*
X13154Y22189D01*
X13168Y22175D01*
X13183Y22146D01*
X13197Y22088D01*
X13197Y22016D01*
X13183Y21958D01*
X13168Y21929D01*
X13154Y21915D01*
X13125Y21900D01*
X13096Y21900D01*
X13067Y21915D01*
X13053Y21929D01*
X13038Y21958D01*
X13024Y22016D01*
X13024Y22088D01*
X13038Y22146D01*
X13053Y22175D01*
X13067Y22189D01*
X13096Y22204D01*
X11312Y16160D02*
X11211Y16305D01*
X11139Y16160D02*
X11139Y16463D01*
X11255Y16463D01*
X11284Y16449D01*
X11298Y16435D01*
X11312Y16406D01*
X11312Y16362D01*
X11298Y16333D01*
X11284Y16319D01*
X11255Y16305D01*
X11139Y16305D01*
X11572Y16463D02*
X11515Y16463D01*
X11486Y16449D01*
X11471Y16435D01*
X11442Y16391D01*
X11428Y16333D01*
X11428Y16218D01*
X11442Y16189D01*
X11457Y16175D01*
X11486Y16160D01*
X11543Y16160D01*
X11572Y16175D01*
X11587Y16189D01*
X11601Y16218D01*
X11601Y16290D01*
X11587Y16319D01*
X11572Y16333D01*
X11543Y16348D01*
X11486Y16348D01*
X11457Y16333D01*
X11442Y16319D01*
X11428Y16290D01*
X11717Y16435D02*
X11731Y16449D01*
X11760Y16463D01*
X11832Y16463D01*
X11861Y16449D01*
X11875Y16435D01*
X11890Y16406D01*
X11890Y16377D01*
X11875Y16333D01*
X11702Y16160D01*
X11890Y16160D01*
X16028Y16513D02*
X15883Y16412D01*
X16028Y16340D02*
X15725Y16340D01*
X15725Y16456D01*
X15739Y16484D01*
X15753Y16499D01*
X15782Y16513D01*
X15826Y16513D01*
X15854Y16499D01*
X15869Y16484D01*
X15883Y16456D01*
X15883Y16340D01*
X15725Y16773D02*
X15725Y16715D01*
X15739Y16687D01*
X15753Y16672D01*
X15797Y16643D01*
X15854Y16629D01*
X15970Y16629D01*
X15999Y16643D01*
X16013Y16658D01*
X16028Y16687D01*
X16028Y16744D01*
X16013Y16773D01*
X15999Y16788D01*
X15970Y16802D01*
X15898Y16802D01*
X15869Y16788D01*
X15854Y16773D01*
X15840Y16744D01*
X15840Y16687D01*
X15854Y16658D01*
X15869Y16643D01*
X15898Y16629D01*
X16028Y17091D02*
X16028Y16917D01*
X16028Y17004D02*
X15725Y17004D01*
X15768Y16975D01*
X15797Y16946D01*
X15811Y16917D01*
X5124Y11522D02*
X5022Y11667D01*
X4950Y11522D02*
X4950Y11826D01*
X5066Y11826D01*
X5095Y11811D01*
X5109Y11797D01*
X5124Y11768D01*
X5124Y11725D01*
X5109Y11696D01*
X5095Y11681D01*
X5066Y11667D01*
X4950Y11667D01*
X5383Y11826D02*
X5326Y11826D01*
X5297Y11811D01*
X5282Y11797D01*
X5253Y11753D01*
X5239Y11696D01*
X5239Y11580D01*
X5253Y11551D01*
X5268Y11537D01*
X5297Y11522D01*
X5354Y11522D01*
X5383Y11537D01*
X5398Y11551D01*
X5412Y11580D01*
X5412Y11652D01*
X5398Y11681D01*
X5383Y11696D01*
X5354Y11710D01*
X5297Y11710D01*
X5268Y11696D01*
X5253Y11681D01*
X5239Y11652D01*
X5513Y11826D02*
X5701Y11826D01*
X5600Y11710D01*
X5643Y11710D01*
X5672Y11696D01*
X5687Y11681D01*
X5701Y11652D01*
X5701Y11580D01*
X5687Y11551D01*
X5672Y11537D01*
X5643Y11522D01*
X5557Y11522D01*
X5528Y11537D01*
X5513Y11551D01*
X5124Y10861D02*
X5022Y11005D01*
X4950Y10861D02*
X4950Y11164D01*
X5066Y11164D01*
X5095Y11150D01*
X5109Y11135D01*
X5124Y11106D01*
X5124Y11063D01*
X5109Y11034D01*
X5095Y11020D01*
X5066Y11005D01*
X4950Y11005D01*
X5383Y11164D02*
X5326Y11164D01*
X5297Y11150D01*
X5282Y11135D01*
X5253Y11092D01*
X5239Y11034D01*
X5239Y10919D01*
X5253Y10890D01*
X5268Y10875D01*
X5297Y10861D01*
X5354Y10861D01*
X5383Y10875D01*
X5398Y10890D01*
X5412Y10919D01*
X5412Y10991D01*
X5398Y11020D01*
X5383Y11034D01*
X5354Y11049D01*
X5297Y11049D01*
X5268Y11034D01*
X5253Y11020D01*
X5239Y10991D01*
X5672Y11063D02*
X5672Y10861D01*
X5600Y11179D02*
X5528Y10962D01*
X5715Y10962D01*
X5139Y10412D02*
X5038Y10557D01*
X4966Y10412D02*
X4966Y10715D01*
X5082Y10715D01*
X5110Y10701D01*
X5125Y10687D01*
X5139Y10658D01*
X5139Y10614D01*
X5125Y10585D01*
X5110Y10571D01*
X5082Y10557D01*
X4966Y10557D01*
X5399Y10715D02*
X5341Y10715D01*
X5312Y10701D01*
X5298Y10687D01*
X5269Y10643D01*
X5255Y10585D01*
X5255Y10470D01*
X5269Y10441D01*
X5284Y10427D01*
X5312Y10412D01*
X5370Y10412D01*
X5399Y10427D01*
X5414Y10441D01*
X5428Y10470D01*
X5428Y10542D01*
X5414Y10571D01*
X5399Y10585D01*
X5370Y10600D01*
X5312Y10600D01*
X5284Y10585D01*
X5269Y10571D01*
X5255Y10542D01*
X5702Y10715D02*
X5558Y10715D01*
X5543Y10571D01*
X5558Y10585D01*
X5587Y10600D01*
X5659Y10600D01*
X5688Y10585D01*
X5702Y10571D01*
X5717Y10542D01*
X5717Y10470D01*
X5702Y10441D01*
X5688Y10427D01*
X5659Y10412D01*
X5587Y10412D01*
X5558Y10427D01*
X5543Y10441D01*
%LPC*%
G54D24*
X944Y23070D03*
X944Y944D03*
X17362Y944D03*
X17362Y23070D03*
G54D25*
X6485Y11772D03*
X6485Y11575D03*
X6485Y11378D03*
X6485Y11181D03*
X6485Y10984D03*
X6485Y12362D03*
X6485Y12165D03*
X6485Y11969D03*
X6485Y9213D03*
X6485Y9016D03*
X6485Y8819D03*
X6485Y8622D03*
X6485Y8425D03*
X6485Y8228D03*
X6485Y8031D03*
X6485Y7835D03*
G54D26*
X8523Y6978D03*
X8720Y6978D03*
X8916Y6978D03*
X9113Y6978D03*
X9310Y6978D03*
X9507Y6978D03*
X9704Y6978D03*
X9901Y6978D03*
X11672Y6978D03*
X11869Y6978D03*
G54D25*
X12529Y7638D03*
X12529Y7835D03*
X12529Y8031D03*
X12529Y8228D03*
X12529Y8425D03*
X12529Y8622D03*
X6485Y10787D03*
X6485Y10591D03*
X6485Y10394D03*
X6485Y7638D03*
G54D26*
X7145Y6978D03*
X7342Y6978D03*
X10098Y6978D03*
X10294Y6978D03*
X10491Y6978D03*
G54D25*
X12529Y8819D03*
X12529Y9016D03*
X12529Y9213D03*
X6485Y10197D03*
X6485Y10000D03*
X6485Y9803D03*
X6485Y9606D03*
X6485Y9409D03*
G54D26*
X7538Y6978D03*
X7735Y6978D03*
X7932Y6978D03*
X8129Y6978D03*
X8326Y6978D03*
X10688Y6978D03*
X10885Y6978D03*
X11082Y6978D03*
X11279Y6978D03*
X11476Y6978D03*
G54D25*
X12529Y9409D03*
X12529Y9606D03*
X12529Y9803D03*
X12529Y10000D03*
X12529Y10197D03*
X12529Y10394D03*
X12529Y10591D03*
X12529Y10787D03*
X12529Y10984D03*
X12529Y11181D03*
X12529Y11378D03*
X12529Y11575D03*
X12529Y11772D03*
X12529Y11969D03*
X12529Y12165D03*
X12529Y12362D03*
G54D26*
X11869Y13022D03*
X11672Y13022D03*
X11476Y13022D03*
X11279Y13022D03*
X11082Y13022D03*
X10885Y13022D03*
X10688Y13022D03*
X10491Y13022D03*
X10294Y13022D03*
X10098Y13022D03*
X9901Y13022D03*
X9704Y13022D03*
X9507Y13022D03*
X9310Y13022D03*
X9113Y13022D03*
X8916Y13022D03*
X8720Y13022D03*
X8523Y13022D03*
X8326Y13022D03*
X8129Y13022D03*
X7932Y13022D03*
X7735Y13022D03*
X7538Y13022D03*
X7342Y13022D03*
X7145Y13022D03*
G54D27*
X15433Y3346D03*
X15433Y2342D03*
X15433Y1338D03*
G54D28*
X3425Y1340D03*
G54D27*
X3425Y2340D03*
X4425Y1340D03*
X4425Y2340D03*
X5425Y1340D03*
X5425Y2340D03*
X6425Y1340D03*
X6425Y2340D03*
X7425Y1340D03*
X7425Y2340D03*
X8425Y1340D03*
X8425Y2340D03*
X9425Y1340D03*
X9425Y2340D03*
X10425Y1340D03*
X10425Y2340D03*
X11425Y1340D03*
X11425Y2340D03*
X12425Y1340D03*
X12425Y2340D03*
X3425Y3340D03*
X4425Y3340D03*
X5425Y3340D03*
X6425Y3340D03*
X7425Y3340D03*
X8425Y3340D03*
X9425Y3340D03*
X10425Y3340D03*
X11425Y3340D03*
X12425Y3340D03*
X13425Y1340D03*
X13425Y2340D03*
X13425Y3340D03*
X14425Y1340D03*
X14429Y2342D03*
X14425Y3340D03*
G54D29*
X3130Y23171D03*
X2380Y23171D03*
X2755Y23171D03*
X2380Y22339D03*
X3130Y22339D03*
X2755Y22339D03*
G54D30*
X3405Y4055D03*
X3799Y4055D03*
X3602Y4566D03*
X14688Y8094D03*
X15082Y8094D03*
X14885Y8606D03*
X14724Y9074D03*
X15118Y9074D03*
X14921Y9586D03*
G54D31*
X2420Y21574D03*
X3012Y21574D03*
X12264Y21417D03*
X11672Y21417D03*
G54D32*
X16496Y6752D03*
X16496Y6160D03*
G54D31*
X2578Y13740D03*
X3170Y13740D03*
X2578Y14409D03*
X3170Y14409D03*
X2538Y18779D03*
X3130Y18779D03*
X2499Y18031D03*
X3091Y18031D03*
G54D32*
X14133Y9508D03*
X14133Y8916D03*
X4429Y4054D03*
X4429Y4646D03*
X14429Y4054D03*
X14429Y4646D03*
X13425Y4054D03*
X13425Y4646D03*
X12421Y4054D03*
X12421Y4646D03*
X10433Y4054D03*
X10433Y4646D03*
X11417Y4054D03*
X11417Y4646D03*
X9429Y4054D03*
X9429Y4646D03*
X8425Y4054D03*
X8425Y4646D03*
X7421Y4054D03*
X7421Y4646D03*
X6417Y4054D03*
X6417Y4646D03*
X5413Y4054D03*
X5413Y4646D03*
G54D31*
X10294Y21417D03*
X10886Y21417D03*
X2578Y15078D03*
X3170Y15078D03*
X2617Y15708D03*
X3209Y15708D03*
G54D32*
X14606Y6358D03*
X14606Y5766D03*
X15236Y6358D03*
X15236Y5766D03*
X15826Y6358D03*
X15826Y5766D03*
X2775Y4587D03*
X2775Y3995D03*
G54D31*
X9034Y21417D03*
X9626Y21417D03*
G54D32*
X15433Y4034D03*
X15433Y4626D03*
G54D31*
X2538Y19448D03*
X3130Y19448D03*
X2538Y20118D03*
X3130Y20118D03*
G54D32*
X15712Y7766D03*
X15712Y8358D03*
G54D31*
X2105Y9330D03*
X2697Y9330D03*
X3229Y7874D03*
X2637Y7874D03*
X2420Y8523D03*
X3012Y8523D03*
G54D32*
X3248Y9823D03*
X3248Y9231D03*
X1692Y5373D03*
X1692Y5965D03*
X2362Y5373D03*
X2362Y5965D03*
G54D31*
X14508Y11456D03*
X13916Y11456D03*
X14508Y12165D03*
X13916Y12165D03*
X4967Y12307D03*
X5559Y12307D03*
X8955Y5984D03*
X9547Y5984D03*
G54D33*
X1771Y15629D03*
X1771Y15137D03*
X1771Y14645D03*
X1771Y14153D03*
X1771Y13661D03*
X1771Y13169D03*
X1771Y12677D03*
X1771Y12185D03*
X1771Y11692D03*
G54D34*
X629Y16633D03*
X629Y10688D03*
X629Y21909D03*
X629Y17440D03*
G54D33*
X1771Y20905D03*
X1771Y20413D03*
X1771Y19921D03*
X1771Y19429D03*
X1771Y18937D03*
X1771Y18444D03*
G54D34*
X17677Y2145D03*
X17677Y6614D03*
G54D33*
X16535Y3149D03*
X16535Y3641D03*
X16535Y4133D03*
X16535Y4625D03*
X16535Y5118D03*
X16535Y5610D03*
G54D34*
X17677Y15000D03*
X17677Y18484D03*
G54D33*
X16535Y16003D03*
X16535Y16496D03*
X16535Y16988D03*
X16535Y17480D03*
G54D35*
X16220Y23385D03*
X12736Y23385D03*
G54D36*
X15216Y22244D03*
X14724Y22244D03*
X14232Y22244D03*
X13740Y22244D03*
G54D34*
X629Y9881D03*
X629Y6397D03*
G54D33*
X1771Y8877D03*
X1771Y8385D03*
X1771Y7893D03*
X1771Y7401D03*
G54D34*
X629Y5590D03*
X629Y2106D03*
G54D33*
X1771Y4586D03*
X1771Y4094D03*
X1771Y3602D03*
X1771Y3110D03*
G54D35*
X11929Y23385D03*
X8444Y23385D03*
G54D36*
X10925Y22244D03*
X10433Y22244D03*
X9940Y22244D03*
X9448Y22244D03*
G54D35*
X7637Y23385D03*
X4153Y23385D03*
G54D36*
X6633Y22244D03*
X6141Y22244D03*
X5649Y22244D03*
X5157Y22244D03*
G54D33*
X16535Y8444D03*
X16535Y8937D03*
G54D34*
X17677Y7440D03*
X17677Y9940D03*
G54D37*
X15018Y18858D03*
X15018Y19350D03*
X15018Y19842D03*
X15018Y20334D03*
X14112Y20334D03*
X14112Y19842D03*
X14112Y19350D03*
X14112Y18858D03*
G54D38*
X12421Y18562D03*
X12421Y18759D03*
X12421Y18956D03*
X12421Y19153D03*
G54D39*
X12145Y19428D03*
X11948Y19428D03*
X11751Y19428D03*
X11555Y19428D03*
G54D38*
X11279Y19153D03*
X11279Y18957D03*
X11279Y18760D03*
X11279Y18563D03*
G54D39*
X11555Y18287D03*
X11751Y18287D03*
X11948Y18287D03*
X12145Y18287D03*
G54D40*
X4468Y12311D03*
X3878Y12311D03*
X8976Y5452D03*
X9566Y5452D03*
G54D39*
X8759Y15945D03*
X8956Y15945D03*
X9153Y15945D03*
X9349Y15945D03*
X9546Y15945D03*
X9743Y15945D03*
G54D38*
X10038Y16240D03*
X10038Y16437D03*
X10038Y16634D03*
X10038Y16830D03*
X10038Y17027D03*
X10038Y17224D03*
G54D39*
X9743Y17519D03*
X9546Y17519D03*
X9349Y17519D03*
X9153Y17519D03*
X8956Y17519D03*
X8759Y17519D03*
G54D38*
X8464Y17224D03*
X8464Y17027D03*
X8464Y16830D03*
X8464Y16634D03*
X8464Y16437D03*
X8464Y16240D03*
G54D41*
X17716Y12047D03*
X17716Y12991D03*
X17716Y14074D03*
X17716Y10964D03*
G54D42*
X16663Y12007D03*
G54D43*
X16663Y12264D03*
X16663Y12519D03*
X16663Y12774D03*
X16663Y13031D03*
G54D44*
X2362Y2323D03*
G54D45*
X2362Y1535D03*
G54D44*
X10236Y19015D03*
G54D45*
X10236Y19803D03*
G54D44*
X15212Y10192D03*
G54D45*
X15212Y10980D03*
G54D32*
X10692Y16833D03*
X10692Y17425D03*
G54D31*
X11673Y20000D03*
X11081Y20000D03*
G54D32*
X15708Y18877D03*
X15708Y19469D03*
G54D31*
X2085Y9881D03*
X2677Y9881D03*
G54D32*
X7822Y17050D03*
X7822Y17642D03*
G54D31*
X9555Y18299D03*
X8963Y18299D03*
G54D32*
X13031Y18916D03*
X13031Y19508D03*
G54D31*
X12184Y6633D03*
X12776Y6633D03*
X2263Y23740D03*
X2855Y23740D03*
X4822Y9763D03*
X5414Y9763D03*
X6752Y13051D03*
X6160Y13051D03*
X12499Y12893D03*
X13091Y12893D03*
X3229Y7224D03*
X2637Y7224D03*
X11475Y22165D03*
X12067Y22165D03*
G54D32*
X11484Y16833D03*
X11484Y17425D03*
X15322Y16392D03*
X15322Y16984D03*
G54D31*
X3979Y11751D03*
X4571Y11751D03*
X3975Y11066D03*
X4567Y11066D03*
X3987Y10370D03*
X4579Y10370D03*
M02*
