G04 (created by PCBNEW (2013-may-18)-stable) date Ne 10. listopad 2013, 11:38:45 CET*
%MOIN*%
G04 Gerber Fmt 3.4, Leading zero omitted, Abs format*
%FSLAX34Y34*%
G01*
G70*
G90*
G04 APERTURE LIST*
%ADD10C,0.00590551*%
%ADD11C,0.00984252*%
%ADD12C,0.0708661*%
%ADD13R,0.0708661X0.0787*%
%ADD14C,0.0275591*%
%ADD15C,0.0393701*%
%ADD16C,0.0354331*%
%ADD17C,0.0314961*%
%ADD18C,0.0433071*%
%ADD19C,0.0472441*%
%ADD20C,0.019685*%
%ADD21C,0.0275591*%
%ADD22C,0.0590551*%
%ADD23C,0.0393701*%
%ADD24C,0.0984252*%
%ADD25C,0.011811*%
G04 APERTURE END LIST*
G54D10*
G54D11*
X1785Y523D02*
X1803Y542D01*
X1841Y561D01*
X1935Y561D01*
X1972Y542D01*
X1991Y523D01*
X2010Y486D01*
X2010Y448D01*
X1991Y392D01*
X1766Y167D01*
X2010Y167D01*
G54D10*
X-196Y944D02*
G75*
G03X944Y-196I1141J0D01*
G74*
G01*
X944Y24212D02*
X17362Y24212D01*
X-196Y944D02*
X-196Y23070D01*
X17362Y-196D02*
X944Y-196D01*
X18503Y23070D02*
X18503Y944D01*
X17362Y-196D02*
G75*
G03X18503Y944I0J1141D01*
G74*
G01*
X944Y24212D02*
G75*
G03X-196Y23070I0J-1141D01*
G74*
G01*
X18503Y23070D02*
G75*
G03X17362Y24212I-1141J0D01*
G74*
G01*
G54D12*
X15433Y3346D03*
X15433Y2342D03*
X15433Y1338D03*
G54D13*
X3425Y1340D03*
G54D12*
X3425Y2340D03*
X4425Y1340D03*
X4425Y2340D03*
X5425Y1340D03*
X5425Y2340D03*
X6425Y1340D03*
X6425Y2340D03*
X7425Y1340D03*
X7425Y2340D03*
X8425Y1340D03*
X8425Y2340D03*
X9425Y1340D03*
X9425Y2340D03*
X10425Y1340D03*
X10425Y2340D03*
X11425Y1340D03*
X11425Y2340D03*
X12425Y1340D03*
X12425Y2340D03*
X3425Y3340D03*
X4425Y3340D03*
X5425Y3340D03*
X6425Y3340D03*
X7425Y3340D03*
X8425Y3340D03*
X9425Y3340D03*
X10425Y3340D03*
X11425Y3340D03*
X12425Y3340D03*
X13425Y1340D03*
X13425Y2340D03*
X13425Y3340D03*
X14425Y1340D03*
X14429Y2342D03*
X14425Y3340D03*
G54D14*
X15039Y15665D03*
X12118Y17015D03*
G54D15*
X2484Y11137D03*
X1070Y3692D03*
G54D16*
X6003Y20799D03*
X4948Y23409D03*
X3409Y23661D03*
G54D14*
X6732Y13425D03*
G54D16*
X6165Y17338D03*
G54D14*
X2744Y20559D03*
X11279Y21409D03*
X6177Y18224D03*
X1921Y22724D03*
X12177Y12610D03*
G54D17*
X15870Y10185D03*
G54D14*
X14122Y8452D03*
X15070Y7775D03*
X5433Y10354D03*
X5748Y8657D03*
X7590Y6169D03*
X2799Y3594D03*
X12409Y6106D03*
X5881Y8334D03*
G54D16*
X9437Y18988D03*
G54D14*
X11740Y17909D03*
G54D17*
X13440Y19110D03*
G54D16*
X14255Y17452D03*
X12956Y22507D03*
X2389Y11610D03*
G54D18*
X1062Y20905D03*
G54D16*
X5921Y23279D03*
X9283Y22803D03*
X13669Y23295D03*
X17299Y3090D03*
G54D15*
X748Y2874D03*
G54D19*
X16740Y14476D03*
G54D14*
X3791Y7110D03*
X4232Y8787D03*
X15830Y17763D03*
X11062Y13870D03*
X15799Y18228D03*
X10976Y14232D03*
X9559Y20807D03*
X4940Y14677D03*
X5114Y15035D03*
X12232Y21011D03*
X4720Y14133D03*
X6909Y12625D03*
X7027Y11956D03*
X7066Y9712D03*
X17070Y16480D03*
X10141Y22929D03*
X6901Y22751D03*
X4519Y22251D03*
G54D16*
X12200Y19940D03*
X13480Y19543D03*
G54D14*
X10874Y18665D03*
G54D16*
X15692Y20047D03*
X10594Y17862D03*
G54D14*
X7362Y17653D03*
G54D18*
X14015Y21437D03*
G54D14*
X11059Y19452D03*
X9720Y19763D03*
G54D15*
X12901Y16377D03*
X11287Y15748D03*
G54D14*
X7244Y13543D03*
X17059Y9267D03*
G54D16*
X1141Y12263D03*
X2342Y20598D03*
G54D14*
X6657Y18610D03*
X1551Y17055D03*
X1192Y15429D03*
X5287Y18547D03*
X5259Y15929D03*
X6192Y16161D03*
X3539Y12437D03*
X5271Y13858D03*
X2893Y13078D03*
X6377Y12755D03*
X1602Y22547D03*
X5767Y11169D03*
X18043Y19771D03*
X16421Y15590D03*
X12972Y14137D03*
G54D16*
X16366Y13559D03*
G54D14*
X16531Y8078D03*
X15354Y13248D03*
X13854Y13259D03*
X15452Y9200D03*
G54D17*
X15870Y11051D03*
G54D14*
X8897Y8307D03*
X9200Y11240D03*
X2125Y10381D03*
X3937Y7992D03*
X3818Y9724D03*
G54D15*
X3779Y5866D03*
X2637Y3149D03*
G54D14*
X11259Y10433D03*
X13098Y12496D03*
X7047Y7637D03*
G54D16*
X9708Y8960D03*
G54D14*
X9614Y7681D03*
X10354Y8771D03*
X9940Y5059D03*
X4657Y8444D03*
X4893Y7645D03*
X7165Y8818D03*
X5984Y10708D03*
X12712Y6940D03*
X7106Y6212D03*
X12547Y19397D03*
X12968Y18003D03*
X14496Y22767D03*
X4102Y15822D03*
X10759Y23133D03*
X4728Y16964D03*
X7299Y22263D03*
X4551Y17283D03*
X3755Y21720D03*
X4535Y17708D03*
X9665Y16433D03*
X9267Y12433D03*
X9311Y16409D03*
X7905Y12496D03*
X14799Y20744D03*
X14811Y17574D03*
X11350Y7629D03*
X10488Y18551D03*
G54D16*
X10696Y20358D03*
G54D14*
X7330Y10421D03*
X7708Y9811D03*
X1240Y8751D03*
X1181Y7440D03*
X1192Y14744D03*
X1059Y18279D03*
X610Y15578D03*
X1118Y19696D03*
X15677Y22267D03*
X14818Y21708D03*
X7397Y11303D03*
X5133Y21440D03*
X2003Y21657D03*
X11692Y11811D03*
X8645Y12444D03*
X3692Y14610D03*
X1677Y21358D03*
X3476Y23196D03*
X3023Y21035D03*
X3732Y17787D03*
X3401Y21007D03*
X4137Y17748D03*
X15759Y10618D03*
X11228Y13535D03*
X15712Y9755D03*
X10700Y12283D03*
X15870Y11480D03*
X13511Y10456D03*
X15818Y11885D03*
X13224Y10696D03*
X15748Y8881D03*
X11610Y12291D03*
X15818Y9326D03*
X11074Y12433D03*
X1700Y6503D03*
X6645Y5838D03*
X13566Y20141D03*
X9610Y16803D03*
X8555Y14755D03*
X12476Y17724D03*
X7893Y16074D03*
X6598Y14925D03*
X8539Y14385D03*
X13649Y18562D03*
X7858Y16437D03*
X6496Y15586D03*
X7964Y14940D03*
X9196Y13980D03*
X13846Y11027D03*
G54D17*
X16952Y13440D03*
G54D14*
X16173Y12795D03*
X13452Y11354D03*
X1476Y9263D03*
X11811Y9015D03*
X11877Y8405D03*
X13110Y8539D03*
G54D20*
X4830Y23527D02*
X4948Y23409D01*
X3543Y23527D02*
X4830Y23527D01*
X3409Y23661D02*
X3543Y23527D01*
G54D21*
X6604Y13553D02*
X6732Y13425D01*
X5787Y14370D02*
X6604Y13553D01*
X6604Y13553D02*
X6610Y13547D01*
X5787Y16381D02*
X5787Y14370D01*
X6102Y16696D02*
X5787Y16381D01*
X6102Y17275D02*
X6102Y16696D01*
X6165Y17338D02*
X6102Y17275D01*
G54D20*
X13090Y22641D02*
X13090Y23295D01*
X12956Y22507D02*
X13090Y22641D01*
G54D22*
X3425Y2340D02*
X2407Y2340D01*
G54D21*
X2322Y11677D02*
X2389Y11610D01*
X1051Y11677D02*
X2322Y11677D01*
G54D22*
X531Y11157D02*
X1051Y11677D01*
X531Y5208D02*
X531Y11157D01*
X1874Y3866D02*
X531Y5208D01*
X1874Y2874D02*
X1874Y3866D01*
X2407Y2340D02*
X1874Y2874D01*
X15433Y2342D02*
X14429Y2342D01*
X14429Y2342D02*
X14427Y2340D01*
X14427Y2340D02*
X12425Y2340D01*
X5921Y23279D02*
X5921Y23023D01*
G54D23*
X1968Y22251D02*
X1062Y21346D01*
X1062Y21346D02*
X1062Y20905D01*
X3366Y22251D02*
X1968Y22251D01*
X3948Y22834D02*
X3366Y22251D01*
G54D22*
X5732Y22834D02*
X3948Y22834D01*
X5921Y23023D02*
X5732Y22834D01*
X7531Y23279D02*
X5921Y23279D01*
X9283Y22803D02*
X8007Y22803D01*
X8007Y22803D02*
X7531Y23279D01*
X13669Y23295D02*
X13090Y23295D01*
X13090Y23295D02*
X11413Y23295D01*
X10141Y23661D02*
X9283Y22803D01*
X11047Y23661D02*
X10141Y23661D01*
X11413Y23295D02*
X11047Y23661D01*
G54D24*
X17779Y13657D02*
X17779Y18976D01*
G54D22*
X15818Y23295D02*
X13669Y23295D01*
X16287Y22826D02*
X15818Y23295D01*
X16287Y22409D02*
X16287Y22826D01*
X17110Y21586D02*
X16287Y22409D01*
G54D24*
X17110Y19645D02*
X17110Y21586D01*
X17779Y18976D02*
X17110Y19645D01*
G54D22*
X3425Y2340D02*
X4425Y2340D01*
X4425Y2340D02*
X5425Y2340D01*
X5425Y2340D02*
X6425Y2340D01*
X6425Y2340D02*
X7425Y2340D01*
X7425Y2340D02*
X8425Y2340D01*
X8425Y2340D02*
X9425Y2340D01*
X9425Y2340D02*
X10425Y2340D01*
X10425Y2340D02*
X11425Y2340D01*
X11425Y2340D02*
X12425Y2340D01*
X15433Y2342D02*
X15488Y2287D01*
X15488Y2287D02*
X17271Y2287D01*
G54D24*
X17271Y2287D02*
X17299Y2314D01*
X17299Y2314D02*
X17299Y3090D01*
X17299Y3090D02*
X17299Y8047D01*
X16960Y14476D02*
X16740Y14476D01*
X17779Y13657D02*
X16960Y14476D01*
X17779Y8527D02*
X17779Y13657D01*
X17299Y8047D02*
X17779Y8527D01*
G54D25*
X15830Y17661D02*
X15830Y17763D01*
X13110Y14940D02*
X15830Y17661D01*
X12133Y14940D02*
X13110Y14940D01*
X11062Y13870D02*
X12133Y14940D01*
X15492Y17921D02*
X15799Y18228D01*
X15492Y17595D02*
X15492Y17921D01*
X13030Y15133D02*
X15492Y17595D01*
X11877Y15133D02*
X13030Y15133D01*
X10976Y14232D02*
X11877Y15133D01*
X7011Y20807D02*
X9559Y20807D01*
X5562Y19358D02*
X7011Y20807D01*
X5562Y17102D02*
X5562Y19358D01*
X4468Y16007D02*
X5562Y17102D01*
X4468Y15149D02*
X4468Y16007D01*
X4940Y14677D02*
X4468Y15149D01*
X5114Y15035D02*
X4937Y15212D01*
X4937Y15212D02*
X4937Y16141D01*
X4937Y16141D02*
X5755Y16960D01*
X5755Y16960D02*
X5755Y19236D01*
X5755Y19236D02*
X7039Y20519D01*
X7039Y20519D02*
X9775Y20519D01*
X9775Y20519D02*
X10267Y21011D01*
X10267Y21011D02*
X12232Y21011D01*
X5401Y14133D02*
X4720Y14133D01*
X6909Y12625D02*
X5401Y14133D01*
X7090Y9712D02*
X7066Y9712D01*
X7551Y10173D02*
X7090Y9712D01*
X11090Y10173D02*
X7551Y10173D01*
X12177Y9086D02*
X11090Y10173D01*
X12177Y8988D02*
X12177Y9086D01*
X13031Y8133D02*
X12177Y8988D01*
X15712Y8133D02*
X13031Y8133D01*
X16448Y8870D02*
X15712Y8133D01*
X16448Y12988D02*
X16448Y8870D01*
X15960Y13476D02*
X16448Y12988D01*
X15960Y14657D02*
X15960Y13476D01*
X16803Y15500D02*
X15960Y14657D01*
X16803Y16212D02*
X16803Y15500D01*
X17070Y16480D02*
X16803Y16212D01*
X12755Y19606D02*
X12547Y19397D01*
X12944Y19606D02*
X12755Y19606D01*
X13051Y19500D02*
X12944Y19606D01*
X13051Y18086D02*
X13051Y19500D01*
X12968Y18003D02*
X13051Y18086D01*
X13881Y22153D02*
X14496Y22767D01*
X8303Y22153D02*
X13881Y22153D01*
X7893Y21744D02*
X8303Y22153D01*
X5020Y21744D02*
X7893Y21744D01*
X4440Y21164D02*
X5020Y21744D01*
X4440Y18795D02*
X4440Y21164D01*
X5208Y18027D02*
X4440Y18795D01*
X5208Y17047D02*
X5208Y18027D01*
X4838Y16677D02*
X5208Y17047D01*
X4755Y16677D02*
X4838Y16677D01*
X4259Y16181D02*
X4755Y16677D01*
X4259Y15980D02*
X4259Y16181D01*
X4102Y15822D02*
X4259Y15980D01*
X9972Y22346D02*
X10759Y23133D01*
X8220Y22346D02*
X9972Y22346D01*
X7811Y21937D02*
X8220Y22346D01*
X4940Y21937D02*
X7811Y21937D01*
X4248Y21244D02*
X4940Y21937D01*
X4248Y18691D02*
X4248Y21244D01*
X5015Y17923D02*
X4248Y18691D01*
X5015Y17346D02*
X5015Y17923D01*
X4728Y17059D02*
X5015Y17346D01*
X4728Y16964D02*
X4728Y17059D01*
X4940Y22263D02*
X7299Y22263D01*
X4051Y21374D02*
X4940Y22263D01*
X4051Y18615D02*
X4051Y21374D01*
X4818Y17847D02*
X4051Y18615D01*
X4818Y17590D02*
X4818Y17847D01*
X4551Y17322D02*
X4818Y17590D01*
X4551Y17283D02*
X4551Y17322D01*
X4535Y17708D02*
X4535Y17858D01*
X3755Y18637D02*
X3755Y21720D01*
X4535Y17858D02*
X3755Y18637D01*
X9665Y12830D02*
X9665Y16433D01*
X9267Y12433D02*
X9665Y12830D01*
X9311Y15885D02*
X9311Y16409D01*
X8842Y15417D02*
X9311Y15885D01*
X8842Y13433D02*
X8842Y15417D01*
X7905Y12496D02*
X8842Y13433D01*
X14799Y17586D02*
X14799Y20744D01*
X14811Y17574D02*
X14799Y17586D01*
X3692Y14610D02*
X1909Y16393D01*
X1909Y16393D02*
X1909Y21125D01*
X1909Y21125D02*
X1677Y21358D01*
X3023Y18496D02*
X3023Y21035D01*
X3732Y17787D02*
X3023Y18496D01*
X3401Y18590D02*
X3401Y21007D01*
X3996Y17996D02*
X3401Y18590D01*
X3996Y17889D02*
X3996Y17996D01*
X4137Y17748D02*
X3996Y17889D01*
X15248Y10106D02*
X15759Y10618D01*
X13366Y10106D02*
X15248Y10106D01*
X12129Y11342D02*
X13366Y10106D01*
X12129Y12200D02*
X12129Y11342D01*
X11740Y12590D02*
X12129Y12200D01*
X11740Y13023D02*
X11740Y12590D01*
X11228Y13535D02*
X11740Y13023D01*
X13228Y9755D02*
X15712Y9755D01*
X10700Y12283D02*
X13228Y9755D01*
X15448Y11480D02*
X15870Y11480D01*
X15295Y11326D02*
X15448Y11480D01*
X15295Y10759D02*
X15295Y11326D01*
X14992Y10456D02*
X15295Y10759D01*
X13511Y10456D02*
X14992Y10456D01*
X15393Y11885D02*
X15818Y11885D01*
X15066Y11559D02*
X15393Y11885D01*
X15066Y11027D02*
X15066Y11559D01*
X14775Y10736D02*
X15066Y11027D01*
X13263Y10736D02*
X14775Y10736D01*
X13224Y10696D02*
X13263Y10736D01*
X13353Y8881D02*
X15748Y8881D01*
X10173Y12061D02*
X13353Y8881D01*
X10173Y12501D02*
X10173Y12061D01*
X10483Y12811D02*
X10173Y12501D01*
X11255Y12811D02*
X10483Y12811D01*
X11476Y12590D02*
X11255Y12811D01*
X11476Y12425D02*
X11476Y12590D01*
X11610Y12291D02*
X11476Y12425D01*
X15744Y9326D02*
X15818Y9326D01*
X15515Y9555D02*
X15744Y9326D01*
X12992Y9555D02*
X15515Y9555D01*
X10401Y12145D02*
X12992Y9555D01*
X10401Y12405D02*
X10401Y12145D01*
X10586Y12590D02*
X10401Y12405D01*
X10917Y12590D02*
X10586Y12590D01*
X11074Y12433D02*
X10917Y12590D01*
X5980Y6503D02*
X1700Y6503D01*
X6645Y5838D02*
X5980Y6503D01*
X9610Y16803D02*
X11779Y16803D01*
X14047Y19661D02*
X13566Y20141D01*
X14047Y17952D02*
X14047Y19661D01*
X12811Y16716D02*
X14047Y17952D01*
X11866Y16716D02*
X12811Y16716D01*
X11779Y16803D02*
X11866Y16716D01*
X8555Y14755D02*
X8555Y15799D01*
X9283Y16803D02*
X9610Y16803D01*
X8925Y16444D02*
X9283Y16803D01*
X8925Y16169D02*
X8925Y16444D01*
X8555Y15799D02*
X8925Y16169D01*
X7893Y16074D02*
X8220Y16074D01*
X12118Y17366D02*
X12476Y17724D01*
X9511Y17366D02*
X12118Y17366D01*
X8220Y16074D02*
X9511Y17366D01*
X6598Y14925D02*
X6744Y14925D01*
X6744Y14925D02*
X7893Y16074D01*
X6594Y14921D02*
X6598Y14925D01*
X6594Y14551D02*
X6594Y14921D01*
X6759Y14385D02*
X6594Y14551D01*
X8539Y14385D02*
X6759Y14385D01*
X7858Y16437D02*
X8263Y16437D01*
X13649Y18118D02*
X13649Y18562D01*
X13248Y17716D02*
X13649Y18118D01*
X12870Y17716D02*
X13248Y17716D01*
X12488Y18098D02*
X12870Y17716D01*
X12346Y18098D02*
X12488Y18098D01*
X11850Y17602D02*
X12346Y18098D01*
X11625Y17602D02*
X11850Y17602D01*
X11047Y18181D02*
X11625Y17602D01*
X10007Y18181D02*
X11047Y18181D01*
X8263Y16437D02*
X10007Y18181D01*
X6496Y15586D02*
X6496Y15590D01*
X7342Y16437D02*
X7858Y16437D01*
X6496Y15590D02*
X7342Y16437D01*
X14893Y12795D02*
X16173Y12795D01*
X13452Y11354D02*
X14893Y12795D01*
X1417Y9370D02*
X1476Y9263D01*
X11456Y9370D02*
X1417Y9370D01*
X11811Y9015D02*
X11456Y9370D01*
M02*
